<svg id="图层_1" data-name="图层 1" xmlns="http://www.w3.org/2000/svg" viewBox="0 0 186 186"><defs><style>.cls-1{fill:#5b3b2f;}.cls-2{fill:#f4e2e9;}</style></defs><title>child_neckline传iconfount</title><path class="cls-1" d="M122.87,157.52c0-5.79.09-11.57.17-17.35s.3-11.57.61-17.35c.16-2.89.32-5.79.64-8.69s.71-5.76,1.09-8.63c.78-5.73,1.64-11.45,2.49-17.17l1.26-8.47.7,8.54c1,11.82,1.84,23.66,2.53,35.51q.52,8.88.88,17.78c.16,5.94.4,11.88.23,17.81-.29-5.93-.72-11.84-1.21-17.75L130.81,124l-3-35.46,2,.07-2.6,17.14c-.42,2.85-.85,5.71-1.22,8.56s-.6,5.71-.83,8.59c-.43,5.75-.81,11.52-1.18,17.29Z"/><path class="cls-1" d="M53.4,159.5c.05-5.86.22-11.72.31-17.59l.47-17.58.51-17.57L55,98c0-2.9.16-5.9.07-8.7l-.23-6.89,2.15,6.51c1.82,5.51,3.58,11,5.14,16.63.77,2.8,1.52,5.61,2.1,8.49a44.13,44.13,0,0,1,.77,8.77c.09,5.82-.16,11.61-.44,17.4s-.7,11.56-1.23,17.33c.09-5.79.25-11.57.27-17.36s.09-11.57-.13-17.32a46.44,46.44,0,0,0-.93-8.47c-.61-2.79-1.39-5.57-2.2-8.33-1.62-5.53-3.38-11.05-5.22-16.51L57,89.14c.1,3.07,0,5.93-.1,8.89l-.32,8.8c-.26,5.85-.51,11.71-.84,17.57s-.67,11.7-1,17.56S53.9,153.66,53.4,159.5Z"/><path class="cls-1" d="M79.92,26.74a17,17,0,0,1,.52,5.37,25.07,25.07,0,0,1-.28,2.72l-.3,1.33-.16.67-.21.65a22.7,22.7,0,0,1-5.86,9.23l-1,.95a8.1,8.1,0,0,1-1,.89l-2.23,1.63c-.76.52-1.57.93-2.36,1.4l-1.19.69c-.4.23-.83.39-1.24.58-3.35,1.58-6.69,2.69-10,4.13A83.43,83.43,0,0,0,45,61.54a30.1,30.1,0,0,0-8.2,6.36,20,20,0,0,0-4.42,9.29,47,47,0,0,0-.7,10.62A41,41,0,0,1,31.43,77,18.82,18.82,0,0,1,32,74.33a16.49,16.49,0,0,1,.86-2.63l.54-1.28a12.13,12.13,0,0,1,.69-1.21L34.76,68c.28-.38.57-.74.86-1.1a30.22,30.22,0,0,1,8.45-7,83.72,83.72,0,0,1,9.76-4.76c3.31-1.4,6.77-2.57,9.94-4,.4-.17.82-.32,1.2-.52L66.12,50c.77-.42,1.56-.8,2.29-1.27l2.16-1.49a7.19,7.19,0,0,0,1-.8l1-.85a22.77,22.77,0,0,0,6-8.43l.26-.61.19-.62.4-1.26a22.9,22.9,0,0,0,.49-2.6A19.82,19.82,0,0,0,79.92,26.74Z"/><path class="cls-1" d="M31.69,87.81c.91,5.93,1.58,11.89,2.06,17.87s.79,12,1,17.95.19,12-.07,18a96.76,96.76,0,0,1-2.09,17.87c.28-3,.48-6,.49-8.95s.06-6,0-9q-.09-9-.36-17.91l-.54-17.93C32,99.79,31.84,93.81,31.69,87.81Z"/><path class="cls-1" d="M153.72,97.6A113.09,113.09,0,0,0,154,85.82a40,40,0,0,0-1.82-11.46,20.27,20.27,0,0,0-2.55-5.07,19.48,19.48,0,0,0-3.93-4.08,49.12,49.12,0,0,0-10.07-5.69c-3.55-1.66-7.18-3.22-10.74-5a68.8,68.8,0,0,1-10.37-6,22.57,22.57,0,0,1-4.48-4.21,14,14,0,0,1-2.65-5.66,28.45,28.45,0,0,1-.47-6.06c0-2,.09-3.95.12-5.91l.73.73-7-.13-7-.16c-4.65-.15-9.29-.24-13.94-.45,4.65-.2,9.29-.29,13.94-.44l7-.16,7-.13h.72v.75c0,2,0,3.95.06,5.89a28,28,0,0,0,.55,5.69c.8,3.66,3.44,6.48,6.54,8.7a72.61,72.61,0,0,0,10.11,5.76c3.5,1.74,7.1,3.32,10.68,5a50.79,50.79,0,0,1,10.32,6.11,20.15,20.15,0,0,1,6.67,10,38,38,0,0,1,1.34,11.86A91,91,0,0,1,153.72,97.6Z"/><path class="cls-1" d="M154.71,159.5a126.6,126.6,0,0,1-2.41-15.37c-.28-2.58-.45-5.16-.63-7.75s-.24-5.19-.29-7.78,0-5.19,0-7.79.16-5.19.39-7.77a133.45,133.45,0,0,1,1.93-15.44c-.11,5.19-.35,10.34-.39,15.5s-.08,10.31,0,15.46.25,10.31.48,15.46S154.36,154.33,154.71,159.5Z"/><path class="cls-1" d="M71,56c3-.3,6-.51,9-.59,1.49,0,3,0,4.49.06a18.76,18.76,0,0,1,2.23.24,4.4,4.4,0,0,1,2.08.78,4.4,4.4,0,0,0-2.1-.66c-.74-.08-1.48-.11-2.22-.12-1.49,0-3,.08-4.46.2-3,.24-5.92.61-8.85,1.07Z"/><path class="cls-1" d="M114.37,57c-2.93-.46-5.89-.83-8.85-1.07-1.49-.12-3-.2-4.46-.2-.74,0-1.48,0-2.22.12a4.4,4.4,0,0,0-2.1.66,4.4,4.4,0,0,1,2.08-.78,18.76,18.76,0,0,1,2.23-.24c1.5-.09,3-.09,4.49-.06,3,.08,6,.29,9,.59Z"/><path class="cls-2" d="M35.31,118.6a12.55,12.55,0,0,1-3.39-.26c-1.64-1.58-1.42-4-1.19-6.49.06-.69.12-1.38.15-2.06a11.59,11.59,0,0,0-1.41-5.37,28.57,28.57,0,0,1-1.37-3.54,2.1,2.1,0,0,1,.33-1.76,3.56,3.56,0,0,1,2.76-1.32c.6,0,1.17-.06,1.72-.06,1.15,0,2.22.08,3.25.15s2,.13,3,.13a18.24,18.24,0,0,0,8.3-2c1.45-.69,3.32-1.7,5.13-2.69C54.76,92.19,57,91,58,90.62c.15-.05.37-.15.63-.26s.71-.32,1.11-.46a3.32,3.32,0,0,0-.38.6l0,.09a34.33,34.33,0,0,0-3.07,8.12c-.59,3.12,2.39,5.51,5.26,7.82.52.41,1,.81,1.48,1.21a66.49,66.49,0,0,0-7.74,4c-4.79,2.7-10.22,5.76-15.33,6.65A35.94,35.94,0,0,1,35.31,118.6Z"/><path class="cls-1" d="M60.51,90.71h0m-2.93,1.16a29.34,29.34,0,0,0-2.34,6.66c-.7,3.71,2.66,6.4,5.62,8.78l.2.16c-2,.91-4.11,2.11-6.33,3.36-4.72,2.66-10.07,5.68-15,6.54a35.28,35.28,0,0,1-4.41.23,18.33,18.33,0,0,1-2.87-.16c-1-1.16-1-2.88-.72-5.5.06-.69.13-1.4.15-2.11A12.43,12.43,0,0,0,30.38,104a27.06,27.06,0,0,1-1.33-3.43,1.11,1.11,0,0,1,.2-.9,2.58,2.58,0,0,1,2-.89c.54,0,1.08-.06,1.65-.06,1.12,0,2.17.07,3.19.14s2,.14,3,.14A19.12,19.12,0,0,0,47.88,97c1.47-.7,3.35-1.72,5.18-2.71,1.61-.88,3.4-1.84,4.52-2.37m2.92-3.15a10.08,10.08,0,0,0-2.86,1c-1.86.67-7.38,3.93-10.62,5.47A17.19,17.19,0,0,1,39.15,97c-2,0-3.95-.28-6.24-.28-.57,0-1.17,0-1.79.06-3.34.23-4.48,2.68-4,4.35,1.12,3.75,2.85,5.68,2.74,8.59-.12,3.31-1.15,7,1.42,9.37.38.35,2.14.48,4,.48a35.89,35.89,0,0,0,4.75-.27c8.85-1.54,18.31-9.2,24.43-11.07.41-.33,0-.53-.32-.79-3-2.68-7.58-5.35-7-8.57a33.89,33.89,0,0,1,3-8c.24-.51,1.26-1.44.93-1.93a.75.75,0,0,0-.66-.28Z"/><path class="cls-2" d="M150.69,118.6a35.94,35.94,0,0,1-4.58-.25c-5.11-.89-10.54-3.95-15.33-6.65a66.49,66.49,0,0,0-7.74-4c.46-.4,1-.8,1.48-1.21,2.88-2.31,5.85-4.7,5.26-7.82a34.73,34.73,0,0,0-3.06-8.12l0-.09a3.32,3.32,0,0,0-.38-.6c.4.14.83.33,1.11.46s.48.21.63.26c1,.35,3.22,1.57,5.39,2.75,1.81,1,3.69,2,5.13,2.68a18.24,18.24,0,0,0,8.3,2c1,0,2-.06,3-.13s2.1-.15,3.25-.15c.55,0,1.12,0,1.72.06a3.56,3.56,0,0,1,2.76,1.32,2.1,2.1,0,0,1,.33,1.76,28.57,28.57,0,0,1-1.37,3.54,11.59,11.59,0,0,0-1.41,5.37c0,.68.09,1.37.15,2.06.23,2.52.45,4.91-1.19,6.49A12.55,12.55,0,0,1,150.69,118.6Z"/><path class="cls-1" d="M128.42,91.87c1.12.53,2.9,1.49,4.52,2.37,1.83,1,3.71,2,5.18,2.71A19.14,19.14,0,0,0,146.85,99c1,0,2.07-.07,3.05-.14s2.07-.14,3.19-.14c.57,0,1.11,0,1.65.06a2.58,2.58,0,0,1,2,.89,1.11,1.11,0,0,1,.2.9,27.06,27.06,0,0,1-1.33,3.43,12.43,12.43,0,0,0-1.49,5.81c0,.71.09,1.42.15,2.11.24,2.62.31,4.34-.72,5.5a18.33,18.33,0,0,1-2.87.16,35.28,35.28,0,0,1-4.41-.23c-4.94-.86-10.29-3.88-15-6.54-2.22-1.25-4.36-2.45-6.33-3.36l.2-.16c3-2.38,6.32-5.07,5.62-8.78a29.34,29.34,0,0,0-2.34-6.66m-2.92-3.15a.75.75,0,0,0-.66.28c-.33.49.69,1.42.93,1.93a33.89,33.89,0,0,1,3,8c.61,3.22-4,5.89-7,8.57-.29.26-.73.46-.32.79,6.12,1.87,15.58,9.53,24.43,11.07a35.89,35.89,0,0,0,4.75.27c1.87,0,3.63-.13,4-.48,2.57-2.38,1.54-6.06,1.42-9.37-.11-2.91,1.61-4.84,2.74-8.59.5-1.67-.64-4.12-4-4.35-.62,0-1.22-.06-1.79-.06-2.29,0-4.22.28-6.24.28A17.19,17.19,0,0,1,139,95.15c-3.24-1.54-8.76-4.8-10.62-5.47a10.08,10.08,0,0,0-2.86-1Z"/><path class="cls-2" d="M68.67,76.62,60.89,53.24a1,1,0,0,0-1.33-.6c-2.27,1-4.05,1.63-5,2a1,1,0,0,0-.61,1.2L61,81.07h0a1.83,1.83,0,0,1-.61,2,49.85,49.85,0,0,0-4.86,4.24,3,3,0,0,0-.66,2.12l3.84,49.71A144.38,144.38,0,0,1,57.84,159h71.07a142.63,142.63,0,0,1-.85-19.89L131.9,89.4a3,3,0,0,0-.67-2.12,21.17,21.17,0,0,0-5.53-4.83,1.93,1.93,0,0,1-.89-2.17l6.84-24.45a1,1,0,0,0-.61-1.2c-1-.36-2.76-1-5-2a1,1,0,0,0-1.33.59C123.43,57,119,70.34,116.9,76.61A6.94,6.94,0,0,1,112.46,81c-5.31,1.73-15.49,4.85-19.81,4.85S78.35,82.76,73.1,81A7,7,0,0,1,68.67,76.62Z"/><path class="cls-1" d="M128.91,160H57.84a1,1,0,0,1-.75-.34,1,1,0,0,1-.24-.79,144.07,144.07,0,0,0,.84-19.73L53.86,89.48a4,4,0,0,1,.87-2.82,47.26,47.26,0,0,1,5-4.4.83.83,0,0,0,.28-.9L53,56.1a2,2,0,0,1,1.23-2.4c.86-.32,2.66-1,5-2a2,2,0,0,1,1.6,0,2,2,0,0,1,1.07,1.19L69.62,76.3h0a6,6,0,0,0,3.79,3.79c9.24,3,16.26,4.79,19.24,4.79h0c3,0,10.14-1.75,19.49-4.8A6,6,0,0,0,116,76.3l7.78-23.39a2,2,0,0,1,1.06-1.17,2,2,0,0,1,1.6,0c2.18.92,3.91,1.59,5,2a2,2,0,0,1,1.23,2.4l-6.84,24.45a.93.93,0,0,0,.44,1,22.48,22.48,0,0,1,5.8,5.06,4,4,0,0,1,.88,2.83l-3.84,49.7a145.45,145.45,0,0,0,.84,19.69,1,1,0,0,1-.23.79A1,1,0,0,1,128.91,160ZM59,158h68.81a152.12,152.12,0,0,1-.72-18.93l3.84-49.76a2,2,0,0,0-.44-1.41,20.2,20.2,0,0,0-5.26-4.6,2.93,2.93,0,0,1-1.35-3.3l6.85-24.44c-1.09-.4-2.86-1.08-5.08-2l-.31,1-7.46,22.43a8,8,0,0,1-5.08,5c-5.61,1.83-15.68,4.89-20.11,4.89h0c-4.37,0-14.32-3.06-19.86-4.89a8,8,0,0,1-5.06-5L60,53.55c-2.37,1-4.2,1.7-5.08,2L61.94,80.8a2.79,2.79,0,0,1-.95,3,45.28,45.28,0,0,0-4.71,4.09,2,2,0,0,0-.44,1.41L59.68,139A149.57,149.57,0,0,1,59,158Z"/></svg>