<svg id="图层_1" data-name="图层 1" xmlns="http://www.w3.org/2000/svg" viewBox="0 0 186 186"><defs><style>.cls-1{fill:#5b3b2f;}.cls-2{fill:#f2f2f2;}.cls-3{fill:#f4e2e9;}</style></defs><title>child_neckline传iconfount</title><path class="cls-1" d="M122.87,157.52c0-5.79.09-11.57.17-17.35s.3-11.57.61-17.35c.16-2.89.32-5.79.64-8.69s.71-5.76,1.09-8.63c.78-5.73,1.64-11.45,2.49-17.17l1.26-8.46.7,8.53q1.47,17.75,2.53,35.51.52,8.88.88,17.78c.16,5.94.4,11.88.23,17.81-.29-5.93-.72-11.84-1.21-17.75L130.81,124l-3-35.46,2,.07-2.6,17.14c-.42,2.85-.85,5.71-1.22,8.56s-.6,5.71-.83,8.59c-.43,5.75-.81,11.52-1.18,17.29Z"/><path class="cls-1" d="M53.4,159.5c.05-5.86.22-11.72.31-17.59l.47-17.58.51-17.57L55,98c0-2.9.16-5.9.07-8.7l-.23-6.89,2.15,6.51c1.82,5.51,3.58,11,5.14,16.63.77,2.8,1.52,5.61,2.1,8.49a44.13,44.13,0,0,1,.77,8.77c.09,5.82-.16,11.61-.44,17.4s-.7,11.56-1.23,17.33c.09-5.79.25-11.57.27-17.36s.09-11.57-.13-17.32a46.44,46.44,0,0,0-.93-8.47c-.61-2.79-1.39-5.57-2.2-8.33-1.62-5.53-3.38-11.05-5.22-16.51L57,89.14c.1,3.07,0,5.93-.1,8.89l-.32,8.8c-.26,5.85-.51,11.71-.84,17.57s-.67,11.7-1,17.56S53.9,153.66,53.4,159.5Z"/><path class="cls-1" d="M79.92,26.74a17,17,0,0,1,.52,5.37,25.07,25.07,0,0,1-.28,2.72l-.3,1.33-.16.67-.21.65a22.7,22.7,0,0,1-5.86,9.23l-1,.95a8.1,8.1,0,0,1-1,.89l-2.23,1.63c-.76.52-1.57.93-2.36,1.4l-1.19.69c-.4.23-.83.39-1.24.58-3.35,1.58-6.69,2.69-10,4.13A83.43,83.43,0,0,0,45,61.54a30.1,30.1,0,0,0-8.2,6.36,20,20,0,0,0-4.42,9.29,46.38,46.38,0,0,0-.7,10.62A41,41,0,0,1,31.43,77,18.82,18.82,0,0,1,32,74.33a16.49,16.49,0,0,1,.86-2.63l.54-1.28a12.13,12.13,0,0,1,.69-1.21L34.76,68c.28-.38.57-.74.86-1.1a30.22,30.22,0,0,1,8.45-7,83.72,83.72,0,0,1,9.76-4.76c3.31-1.4,6.77-2.57,9.94-4,.4-.17.82-.32,1.2-.52L66.12,50c.77-.42,1.56-.8,2.29-1.27l2.16-1.49a7.19,7.19,0,0,0,1-.8l1-.85a22.77,22.77,0,0,0,6-8.43l.26-.61.19-.62.4-1.26a22.9,22.9,0,0,0,.49-2.6A19.82,19.82,0,0,0,79.92,26.74Z"/><path class="cls-1" d="M31.69,87.81c.91,5.93,1.58,11.89,2.06,17.87s.79,12,1,17.95.19,12-.07,18a96.76,96.76,0,0,1-2.09,17.87c.28-3,.48-6,.49-8.95s.06-6,0-9q-.09-9-.36-17.91l-.54-17.93C32,99.79,31.84,93.81,31.69,87.81Z"/><path class="cls-1" d="M153.72,97.6A113.09,113.09,0,0,0,154,85.82a40,40,0,0,0-1.82-11.46,20.27,20.27,0,0,0-2.55-5.07,19.48,19.48,0,0,0-3.93-4.08,48.85,48.85,0,0,0-10.07-5.69c-3.55-1.66-7.18-3.22-10.74-5a68.8,68.8,0,0,1-10.37-6,22.57,22.57,0,0,1-4.48-4.21,14,14,0,0,1-2.65-5.66,28.45,28.45,0,0,1-.47-6.06c0-2,.09-3.95.12-5.91l.73.73-7-.13-7-.16c-4.65-.15-9.29-.24-13.94-.45,4.65-.2,9.29-.29,13.94-.44l7-.16,7-.13h.72v.75c0,2,0,3.95.06,5.89a28,28,0,0,0,.55,5.69c.8,3.66,3.44,6.48,6.54,8.7a72.61,72.61,0,0,0,10.11,5.76c3.5,1.74,7.1,3.32,10.68,5a50.79,50.79,0,0,1,10.32,6.11,20.15,20.15,0,0,1,6.67,10,38,38,0,0,1,1.34,11.86A91,91,0,0,1,153.72,97.6Z"/><path class="cls-1" d="M154.71,159.5a126.6,126.6,0,0,1-2.41-15.37c-.28-2.58-.44-5.16-.63-7.75s-.24-5.19-.29-7.78,0-5.19,0-7.79.16-5.19.39-7.77a133.45,133.45,0,0,1,1.93-15.44c-.11,5.19-.35,10.34-.39,15.5s-.08,10.31,0,15.46.25,10.31.48,15.46S154.36,154.33,154.71,159.5Z"/><path class="cls-1" d="M71,56c3-.3,6-.51,9-.59,1.49,0,3,0,4.49.06a18.76,18.76,0,0,1,2.23.24,4.4,4.4,0,0,1,2.08.78,4.4,4.4,0,0,0-2.1-.66c-.74-.08-1.48-.11-2.22-.12-1.49,0-3,.08-4.46.2-3,.24-5.92.61-8.85,1.07Z"/><path class="cls-1" d="M114.37,57c-2.93-.46-5.89-.83-8.85-1.07-1.49-.12-3-.2-4.46-.2-.74,0-1.48,0-2.22.12a4.4,4.4,0,0,0-2.1.66,4.4,4.4,0,0,1,2.08-.78,18.76,18.76,0,0,1,2.23-.24c1.5-.09,3-.09,4.49-.06,3,.08,6,.29,9,.59Z"/><path class="cls-2" d="M138.14,58.05c-4.54-3.27-14.85-7.84-17.91-9.07a1,1,0,0,0-1.17.33s-6.31,12.38-26.42,12.82c-19.21.43-26.58-11.59-26.58-11.59A1,1,0,0,0,65,50.32c-2.52,1-14,4.55-18.27,7.73a1,1,0,0,0-.38,1c.65,3.55,5.31,15.55,7.89,30.53,2.83,16.45,5.58,30.12,5.63,39,0,7.49,0,21.54,0,21.54h68.64s-.38-5.58-.41-14.62c0-7.48,2.54-27.57,4.62-45.32a243.78,243.78,0,0,1,5.84-31A1,1,0,0,0,138.14,58.05Z"/><path class="cls-1" d="M128.48,150.54H59.34V150c0-.14,0-14.13,0-21.53,0-7.21-1.93-17.88-4.12-30.24-.49-2.78-1-5.67-1.51-8.65A192.44,192.44,0,0,0,47.5,65c-.84-2.74-1.46-4.73-1.67-5.89a1.47,1.47,0,0,1,.57-1.45c3.31-2.46,10.81-5.1,15.28-6.67,1.4-.49,2.51-.88,3.1-1.12a1.49,1.49,0,0,1,1.63.32l.07.1c.07.11,7.46,11.72,26.15,11.36,19.58-.43,25.93-12.44,26-12.56a1.51,1.51,0,0,1,1.79-.56c3.23,1.3,13.5,5.87,18,9.12a1.47,1.47,0,0,1,.58,1.57l0,.18a241,241,0,0,0-5.78,30.77c-.33,2.77-.66,5.6-1,8.43-1.79,15-3.64,30.55-3.62,36.83,0,8.92.41,14.53.41,14.59l0,.53Zm-68.14-1H128c-.09-1.6-.36-6.73-.38-14.12,0-6.34,1.84-21.9,3.63-36.95.34-2.83.67-5.66,1-8.42a242.68,242.68,0,0,1,5.8-30.9l.05-.18a.49.49,0,0,0-.2-.52h0c-4.44-3.19-14.61-7.72-17.81-9a.51.51,0,0,0-.58.17s-6.64,12.58-26.8,13c-10.06.21-16.86-3-20.8-5.73a23.51,23.51,0,0,1-6.19-6,.5.5,0,0,0-.51-.08c-.61.25-1.73.65-3.15,1.14-4.42,1.56-11.82,4.15-15,6.53a.48.48,0,0,0-.18.47c.2,1.11.81,3.06,1.64,5.77A193.24,193.24,0,0,1,54.7,89.45c.51,3,1,5.87,1.52,8.65,2.19,12.4,4.08,23.11,4.12,30.4C60.38,135.11,60.35,147,60.34,149.54Z"/><path class="cls-3" d="M128.41,139.11l3.83-49.68a3.09,3.09,0,0,0-.68-2.18c-1.71-2.11-6.19-6.76-12.4-6.83-7.62-.08-10.85,2.5-18.63,4.93a24.08,24.08,0,0,1-6.81,1.43,24.15,24.15,0,0,1-6.81-1.43c-7.77-2.43-11-5-18.62-4.93-6.19.07-10.66,4.69-12.39,6.81a3.17,3.17,0,0,0-.7,2.23L59,139.11a144.63,144.63,0,0,1-.83,19.76.11.11,0,0,0,.11.13h70.94A142.63,142.63,0,0,1,128.41,139.11Z"/><path class="cls-1" d="M129.26,160H58.32a1.14,1.14,0,0,1-.84-.38,1.23,1.23,0,0,1-.26-.88,144.32,144.32,0,0,0,.82-19.6l-3.83-49.6a4.12,4.12,0,0,1,.92-2.94c1.73-2.13,6.5-7.11,13.15-7.17,5.44,0,8.75,1.21,12.89,2.81,1.74.67,3.7,1.43,6,2.16a23.61,23.61,0,0,0,6.51,1.39,23.61,23.61,0,0,0,6.51-1.39c2.34-.73,4.31-1.49,6-2.16,4.14-1.6,7.37-2.84,12.9-2.81,6.66.06,11.43,5,13.17,7.2a4,4,0,0,1,.9,2.88l-3.84,49.65a144.93,144.93,0,0,0,.84,19.71,1,1,0,0,1-1,1.13Zm-69.94-2h68.8a153.32,153.32,0,0,1-.71-18.93V139l3.84-49.67a2.08,2.08,0,0,0-.46-1.48c-1.56-1.92-5.83-6.4-11.64-6.46-5.12,0-8.07,1.09-12.16,2.68-1.76.68-3.76,1.45-6.16,2.2a25,25,0,0,1-7.11,1.48,25,25,0,0,1-7.1-1.48c-2.41-.75-4.4-1.52-6.17-2.2-4.09-1.59-7.09-2.72-12.15-2.68-5.81.06-10.07,4.52-11.63,6.44a2.11,2.11,0,0,0-.47,1.53L60,139A149.57,149.57,0,0,1,59.32,158Z"/></svg>