<svg id="图层_1" data-name="图层 1" xmlns="http://www.w3.org/2000/svg" viewBox="0 0 186 186"><defs><style>.cls-1{fill:#5b3b2f;}.cls-2{fill:#f4e2e9;}</style></defs><title>child_neckline传iconfount</title><path class="cls-1" d="M122.89,157.57c0-5.78.08-11.57.16-17.35s.31-11.58.61-17.36c.16-2.89.32-5.8.64-8.7s.71-5.75,1.1-8.62c.78-5.74,1.63-11.46,2.49-17.19l1.25-8.46.71,8.53c1,11.84,1.84,23.67,2.53,35.53q.52,8.89.87,17.79c.17,5.94.41,11.88.23,17.82-.28-5.93-.71-11.85-1.21-17.76l-1.45-17.74-2.94-35.47,2,.06-2.6,17.15c-.43,2.85-.86,5.72-1.22,8.57s-.6,5.71-.84,8.59q-.65,8.63-1.17,17.3Z"/><path class="cls-1" d="M53.39,159.56c0-5.87.21-11.73.31-17.6l.46-17.59.52-17.58L54.93,98c.06-2.91.16-5.91.07-8.7l-.22-6.9,2.15,6.51c1.82,5.52,3.57,11,5.14,16.64.77,2.8,1.52,5.61,2.1,8.49a44.3,44.3,0,0,1,.77,8.78c.09,5.83-.16,11.62-.44,17.41s-.7,11.57-1.24,17.33c.1-5.79.26-11.57.28-17.36s.09-11.58-.13-17.33a46.65,46.65,0,0,0-.93-8.48c-.61-2.78-1.4-5.56-2.2-8.33-1.63-5.53-3.38-11-5.23-16.51L57,89.17c.1,3.07,0,5.93-.11,8.89l-.31,8.8c-.27,5.86-.51,11.72-.85,17.58s-.66,11.71-1,17.56S53.89,153.71,53.39,159.56Z"/><path class="cls-1" d="M79.92,26.75a17.27,17.27,0,0,1,.51,5.37,24.89,24.89,0,0,1-.28,2.71l-.3,1.34-.15.67-.22.65a22.78,22.78,0,0,1-5.85,9.23l-1,1a8.1,8.1,0,0,1-1.05.89l-2.23,1.63c-.76.52-1.57.93-2.36,1.4l-1.2.69a12.77,12.77,0,0,1-1.24.58c-3.34,1.58-6.68,2.7-10,4.13A86.9,86.9,0,0,0,45,61.55a30.33,30.33,0,0,0-8.2,6.37,20,20,0,0,0-4.42,9.29,46.43,46.43,0,0,0-.71,10.63A41.49,41.49,0,0,1,31.41,77a22,22,0,0,1,1.38-5.32l.55-1.28A12,12,0,0,1,34,69.23l.72-1.2c.27-.37.57-.73.85-1.1a30.23,30.23,0,0,1,8.46-7,82.28,82.28,0,0,1,9.77-4.76c3.3-1.41,6.77-2.58,9.94-4,.4-.17.82-.32,1.2-.52L66.11,50c.76-.42,1.56-.8,2.29-1.27l2.16-1.49a7.19,7.19,0,0,0,1-.8l1-.85a22.78,22.78,0,0,0,6-8.44l.26-.6.2-.63.39-1.26a22.9,22.9,0,0,0,.49-2.6A19.34,19.34,0,0,0,79.92,26.75Z"/><path class="cls-1" d="M31.66,87.84c.92,5.93,1.59,11.89,2.06,17.87s.8,12,1,18,.18,12-.08,18a97,97,0,0,1-2.08,17.89c.27-3,.48-6,.49-9s.06-6,.05-8.95q-.09-9-.36-17.92l-.55-17.93C32,99.82,31.82,93.84,31.66,87.84Z"/><path class="cls-1" d="M153.74,97.63a110.59,110.59,0,0,0,.32-11.79,39.64,39.64,0,0,0-1.83-11.46,18.87,18.87,0,0,0-6.47-9.15,49.23,49.23,0,0,0-10.08-5.7c-3.55-1.65-7.18-3.22-10.74-5a68.53,68.53,0,0,1-10.38-6,22.23,22.23,0,0,1-4.48-4.2,14,14,0,0,1-2.65-5.67,28.42,28.42,0,0,1-.48-6.06c0-2,.09-3.95.12-5.91l.74.73-7-.13-7-.16c-4.65-.15-9.3-.24-13.94-.44,4.64-.21,9.29-.3,13.94-.45l7-.16,7-.13h.72v.75c0,2,0,3.95.06,5.9a27.78,27.78,0,0,0,.55,5.68c.8,3.66,3.43,6.49,6.54,8.71A72.61,72.61,0,0,0,125.8,52.8c3.51,1.74,7.11,3.32,10.68,5a51,51,0,0,1,10.33,6.11,20.35,20.35,0,0,1,6.68,10,38.28,38.28,0,0,1,1.33,11.87A91.11,91.11,0,0,1,153.74,97.63Z"/><path class="cls-1" d="M154.73,159.56a127,127,0,0,1-2.4-15.38c-.29-2.58-.45-5.17-.64-7.76s-.24-5.18-.29-7.78,0-5.19,0-7.79.15-5.19.38-7.78a133.45,133.45,0,0,1,1.93-15.44c-.1,5.19-.34,10.35-.38,15.51s-.08,10.31,0,15.47.25,10.3.47,15.46S154.39,154.38,154.73,159.56Z"/><path class="cls-1" d="M71,56c3-.3,6-.51,9-.58,1.5,0,3,0,4.49,0a21,21,0,0,1,2.24.24,4.44,4.44,0,0,1,2.08.78,4.42,4.42,0,0,0-2.1-.65,18.41,18.41,0,0,0-2.23-.12c-1.48,0-3,.07-4.45.19-3,.24-5.93.62-8.86,1.07Z"/><path class="cls-1" d="M114.38,57c-2.93-.45-5.89-.83-8.86-1.07-1.48-.12-3-.2-4.45-.19a18.41,18.41,0,0,0-2.23.12,4.39,4.39,0,0,0-2.1.65,4.44,4.44,0,0,1,2.08-.78,21,21,0,0,1,2.24-.24c1.49-.09,3-.09,4.49,0,3,.07,6,.28,9,.58Z"/><path class="cls-2" d="M59.55,83.39a3.27,3.27,0,0,0-1.91,1.41,35,35,0,0,0-3,7.29l3.43,47a144.54,144.54,0,0,1-.85,19.9h73.2c-1.19-8.74-1.8-14.43-2-19.46-.43-11.69,2.09-46.76,2.09-46.76a.9.9,0,0,0-.09-.46c-1.69-3.6-1.58-4.81-3-6.59a6.18,6.18,0,0,0-2.58-2.19A109.07,109.07,0,0,0,92.72,79C76.61,79,63.49,82.54,59.55,83.39Z"/><path class="cls-1" d="M131.38,160H58.17a1,1,0,0,1-.75-.34,1,1,0,0,1-.24-.79A145,145,0,0,0,58,139.13l-3.77-46,.23-2A33.63,33.63,0,0,1,57.36,85l.75-1.33a2.55,2.55,0,0,1,2.22-1.3h0L62.1,82a138.89,138.89,0,0,1,31.62-4A106.57,106.57,0,0,1,125,82.25l.17,0a10.33,10.33,0,0,1,3.77,2.77l.07.09c1.44,1.81,1.38,2.57,3.11,6.27a2,2,0,0,1,.18,1c0,.37-2.34,35.62-1.91,47.11a194.71,194.71,0,0,0,2,19.37,1,1,0,0,1-.24.79A1,1,0,0,1,131.38,160Zm-72.07-2h70.93c-1.15-8.49-1.67-13.72-1.84-18.42-.38-10.05,1-37.08,1.71-45.11a8.15,8.15,0,0,0-.92-4.52,21.36,21.36,0,0,0-2.51-3.76l-.08-.1c-.28-.37-1.15-1.62-2-1.88l-.17,0A104.69,104.69,0,0,0,93.72,80a137.16,137.16,0,0,0-31.17,4l-1.8.41h0a2.37,2.37,0,0,0-1.24.92l-.42.74a32.15,32.15,0,0,0-2.76,5.88l-.1.88L60,139a152.83,152.83,0,0,1-.72,19Z"/></svg>