<svg id="图层_1" data-name="图层 1" xmlns="http://www.w3.org/2000/svg" viewBox="0 0 186 186"><defs><style>.cls-1{fill:#5b3b2f;}.cls-2{fill:#f4e2e9;}</style></defs><title>child_neckline传iconfount</title><path class="cls-1" d="M122.87,157.52c0-5.79.09-11.57.17-17.35s.3-11.57.61-17.35c.16-2.89.32-5.79.64-8.69s.71-5.76,1.09-8.63c.78-5.73,1.64-11.45,2.49-17.17l1.26-8.46.7,8.53q1.47,17.75,2.53,35.51.52,8.88.88,17.78c.16,5.94.4,11.88.23,17.81-.29-5.93-.72-11.84-1.21-17.75L130.81,124l-3-35.46,2,.07-2.6,17.14c-.42,2.85-.85,5.71-1.22,8.56s-.6,5.71-.83,8.59c-.43,5.75-.81,11.52-1.18,17.29Z"/><path class="cls-1" d="M53.4,159.5c.05-5.86.22-11.72.31-17.59l.47-17.58.51-17.57L55,98c0-2.9.16-5.9.07-8.7l-.23-6.89,2.15,6.51c1.82,5.51,3.58,11,5.14,16.63.77,2.8,1.52,5.61,2.1,8.49a44.13,44.13,0,0,1,.77,8.77c.09,5.82-.16,11.61-.44,17.4s-.7,11.56-1.23,17.33c.09-5.79.25-11.57.27-17.36s.09-11.57-.13-17.32a46.44,46.44,0,0,0-.93-8.47c-.61-2.79-1.39-5.57-2.2-8.33-1.62-5.53-3.38-11.05-5.22-16.51L57,89.14c.1,3.07,0,5.93-.1,8.89l-.32,8.8c-.26,5.85-.51,11.71-.84,17.57s-.67,11.7-1,17.56S53.9,153.66,53.4,159.5Z"/><path class="cls-1" d="M79.92,26.74a17,17,0,0,1,.52,5.37,25.07,25.07,0,0,1-.28,2.72l-.3,1.33-.16.67-.21.65a22.7,22.7,0,0,1-5.86,9.23l-1,.95a8.1,8.1,0,0,1-1,.89l-2.23,1.63c-.76.52-1.57.93-2.36,1.4l-1.19.69c-.4.23-.83.39-1.24.58-3.35,1.58-6.69,2.69-10,4.13A83.43,83.43,0,0,0,45,61.54a30.1,30.1,0,0,0-8.2,6.36,20,20,0,0,0-4.42,9.29,46.38,46.38,0,0,0-.7,10.62A41,41,0,0,1,31.43,77,18.82,18.82,0,0,1,32,74.33a16.49,16.49,0,0,1,.86-2.63l.54-1.28a12.13,12.13,0,0,1,.69-1.21L34.76,68c.28-.38.57-.74.86-1.1a30.22,30.22,0,0,1,8.45-7,83.72,83.72,0,0,1,9.76-4.76c3.31-1.4,6.77-2.57,9.94-4,.4-.17.82-.32,1.2-.52L66.12,50c.77-.42,1.56-.8,2.29-1.27l2.16-1.49a7.19,7.19,0,0,0,1-.8l1-.85a22.77,22.77,0,0,0,6-8.43l.26-.61.19-.62.4-1.26a22.9,22.9,0,0,0,.49-2.6A19.82,19.82,0,0,0,79.92,26.74Z"/><path class="cls-1" d="M31.69,87.81c.91,5.93,1.58,11.89,2.06,17.87s.79,12,1,17.95.19,12-.07,18a96.76,96.76,0,0,1-2.09,17.87c.28-3,.48-6,.49-8.95s.06-6,0-9q-.09-9-.36-17.91l-.54-17.93C32,99.79,31.84,93.81,31.69,87.81Z"/><path class="cls-1" d="M153.72,97.6A113.09,113.09,0,0,0,154,85.82a40,40,0,0,0-1.82-11.46,20.27,20.27,0,0,0-2.55-5.07,19.48,19.48,0,0,0-3.93-4.08,48.85,48.85,0,0,0-10.07-5.69c-3.55-1.66-7.18-3.22-10.74-5a68.8,68.8,0,0,1-10.37-6,22.57,22.57,0,0,1-4.48-4.21,14,14,0,0,1-2.65-5.66,28.45,28.45,0,0,1-.47-6.06c0-2,.09-3.95.12-5.91l.73.73-7-.13-7-.16c-4.65-.15-9.29-.24-13.94-.45,4.65-.2,9.29-.29,13.94-.44l7-.16,7-.13h.72v.75c0,2,0,3.95.06,5.89a28,28,0,0,0,.55,5.69c.8,3.66,3.44,6.48,6.54,8.7a72.61,72.61,0,0,0,10.11,5.76c3.5,1.74,7.1,3.32,10.68,5a50.79,50.79,0,0,1,10.32,6.11,20.15,20.15,0,0,1,6.67,10,38,38,0,0,1,1.34,11.86A91,91,0,0,1,153.72,97.6Z"/><path class="cls-1" d="M154.71,159.5a126.6,126.6,0,0,1-2.41-15.37c-.28-2.58-.44-5.16-.63-7.75s-.24-5.19-.29-7.78,0-5.19,0-7.79.16-5.19.39-7.77a133.45,133.45,0,0,1,1.93-15.44c-.11,5.19-.35,10.34-.39,15.5s-.08,10.31,0,15.46.25,10.31.48,15.46S154.36,154.33,154.71,159.5Z"/><path class="cls-1" d="M71,56c3-.3,6-.51,9-.59,1.49,0,3,0,4.49.06a18.76,18.76,0,0,1,2.23.24,4.4,4.4,0,0,1,2.08.78,4.4,4.4,0,0,0-2.1-.66c-.74-.08-1.48-.11-2.22-.12-1.49,0-3,.08-4.46.2-3,.24-5.92.61-8.85,1.07Z"/><path class="cls-1" d="M114.37,57c-2.93-.46-5.89-.83-8.85-1.07-1.49-.12-3-.2-4.46-.2-.74,0-1.48,0-2.22.12a4.4,4.4,0,0,0-2.1.66,4.4,4.4,0,0,1,2.08-.78,18.76,18.76,0,0,1,2.23-.24c1.5-.09,3-.09,4.49-.06,3,.08,6,.29,9,.59Z"/><path class="cls-2" d="M128.41,139.11l3.84-49.71a3,3,0,0,0-.67-2.12c-1.7-2.1-6.19-6.79-12.42-6.86-7.62-.08-10.85,2.5-18.63,4.93a24.08,24.08,0,0,1-6.81,1.43,24.15,24.15,0,0,1-6.81-1.43c-7.77-2.43-11-5-18.62-4.93-6.24.07-10.73,4.76-12.43,6.86a3,3,0,0,0-.66,2.12L59,139.11A144.38,144.38,0,0,1,58.19,159h71.07A142.63,142.63,0,0,1,128.41,139.11Z"/><path class="cls-1" d="M129.26,160H58.19a1,1,0,0,1-.75-.34,1,1,0,0,1-.24-.79A144,144,0,0,0,58,139.14L54.2,89.48a4.08,4.08,0,0,1,.88-2.83c1.75-2.15,6.51-7.16,13.19-7.23,5.51-.06,8.77,1.22,12.91,2.82,1.73.67,3.69,1.43,6,2.16a23.57,23.57,0,0,0,6.51,1.38,23.49,23.49,0,0,0,6.51-1.38c2.34-.73,4.3-1.49,6-2.16,4.14-1.6,7.43-2.86,12.9-2.82,6.68.07,11.45,5.08,13.19,7.23a4,4,0,0,1,.88,2.83l-3.84,49.68a144.93,144.93,0,0,0,.84,19.71,1,1,0,0,1-1,1.13Zm-69.94-2h68.8a153.32,153.32,0,0,1-.71-18.93V139l3.84-49.71a2,2,0,0,0-.44-1.41c-1.56-1.93-5.83-6.43-11.66-6.49h-.34c-4.9,0-7.82,1.13-11.82,2.68-1.77.68-3.76,1.45-6.16,2.2a25,25,0,0,1-7.11,1.48,25,25,0,0,1-7.1-1.48c-2.41-.75-4.4-1.52-6.16-2.2-4-1.55-6.93-2.68-11.83-2.68H68.3c-5.84.06-10.1,4.56-11.67,6.49a2,2,0,0,0-.44,1.41L60,139A149.57,149.57,0,0,1,59.32,158Z"/><path class="cls-1" d="M67.62,81a1,1,0,0,1-1-.71L58.89,53.67a1,1,0,0,1,1.91-.56l7.78,26.61A1,1,0,0,1,67.9,81,.86.86,0,0,1,67.62,81Z"/><path class="cls-1" d="M121.57,81a.9.9,0,0,1-.28,0,1,1,0,0,1-.68-1.23l7.47-25.52a1,1,0,0,1,1.23-.68,1,1,0,0,1,.68,1.24l-7.46,25.52A1,1,0,0,1,121.57,81Z"/></svg>