<svg id="图层_1" data-name="图层 1" xmlns="http://www.w3.org/2000/svg" viewBox="0 0 186 186"><defs><style>.cls-1{fill:#fff;}.cls-2{fill:#5b3b2f;}.cls-3{fill:#f9e6ed;}</style></defs><path class="cls-1" d="M147.88,56.8a5.08,5.08,0,0,0-.31-1.49,26.33,26.33,0,0,0-1-3l-.09-.17c-2-3.49-1.84-3.13-4.25-5a1.56,1.56,0,0,0-.4-.27c-.24-.12-.46-.3-.69-.44-3.13-1.82-5.63-2.36-10-2.31-5.12.05-10.12.61-15.19.61-.75,0-1.35-.18-1.45-1.17-.41-4.05-.88-8.11-1.22-12.17-.3-3.63-.31-7.29-.72-10.9-.22-1.91-.24-4.13-1.49-5.71a4.31,4.31,0,0,0-1.91-1.41L108.1,13a4.66,4.66,0,0,0-1-.21c-1.3-.15-2.61-.25-3.92-.37-.7-.06-1.38-.18-2.07-.3a34.84,34.84,0,0,1-4.3-1c-.93-.29-2.39-.68-2.91-1.6-1.09-1.9-1.36-6-1.36-6l-9.9-.13S84,7.72,81.23,9.62a13.45,13.45,0,0,1-4.8,2,33,33,0,0,0-3.28.71,18.9,18.9,0,0,0-3,1.39,32.72,32.72,0,0,0-2.83,1.71,31.38,31.38,0,0,0-3,2.26,4.77,4.77,0,0,0-1.8,2.61C62.28,22,62,25,61.75,28.34c-.43,3.65-.73,7-.72,7.35,0,.72-4.23-10.5-4.24-11.22a12.23,12.23,0,0,1,.3-3c.23-.73.7-1.94,1.17-3.15s1.07-2.06,1.3-2.78,0-1.44-.53-1.19a8.92,8.92,0,0,0-1.56,2.06s-.29-1.43-.29-1.67-.16-1.32.34-1.09a15.18,15.18,0,0,0,2.5.44s1.73-.27.73-.73a3.94,3.94,0,0,0-1.25-.46L61,11.67s.22-1-.76-.71a15.46,15.46,0,0,1-3.23.3c-.74,0-1-.23-1.74,0s-.62.13-2.1.63c-.93.32-1.36.15-2,.76a4.07,4.07,0,0,0-.77,4.21C52.63,22,54.66,39.64,55,41.8a65.72,65.72,0,0,0,1.69,8.38c.53,1.43,2.35,5,3.11,5.47s2.24.2,3.94-1.75,2.38-4.75,3.31-7c1.13-2.75,4.63-11.19,5.34-17.85.77-7.15.07,8.37.07,9.47,0,1.63.27,13.57-.82,16.28s-3.79,10-3.79,13.29V83.81S71.06,105,71.6,109a107.62,107.62,0,0,1,1.09,19.26c-.27,9.23-.54,17.36.54,21.43A53.81,53.81,0,0,1,74.86,163c0,4.34.54,8.41,0,10.31s-3.53,4.34-3,6.78,9.77,3.8,10.58.82.82-9.77.82-11.12-1.36-6.79-1.09-10.58,1.63-10.85,1.9-16-1.08-12.48-.81-14.1,1.63-3.26,1.63-7.33.27-17.09.54-24.41S86,83.81,86,83.81h3.26s.27,6.23.54,13.56.54,20.34.54,24.41,1.36,5.7,1.63,7.33-1.09,8.95-.82,14.1,1.63,12.21,1.9,16S92,168.44,92,169.8s0,8.13.81,11.12,10,1.63,10.58-.82-2.44-4.88-3-6.78,0-6,0-10.31A54.29,54.29,0,0,1,102,149.72c1.09-4.07.82-12.2.55-21.43A108.85,108.85,0,0,1,103.61,109c.55-4.07,3.8-25.22,3.8-25.22s1.63-12.75.81-17.09-5.69-13.57-5.69-17.36c0-3,1.11-14.17,1.33-19.25.92,4.24,3.29,13.62,3.41,14.51a25,25,0,0,0,2,6.18A2.46,2.46,0,0,0,111,52.21a1.43,1.43,0,0,0,.29,0A73,73,0,0,0,129,50.39a26.59,26.59,0,0,1,5.56-1.06c5,0,4.24,2.69,6.62,4.5a9.8,9.8,0,0,1,1.32.79c1.68,2.29,1.35,2.12,2.13,2.71a.28.28,0,0,0,.43-.29c-.13-.51-.32-1.31-.43-1.67a.54.54,0,0,1,.48-.66.79.79,0,0,1,.53.35c-.07.89-.23,2.86-.23,3.26s.53,1.86.8,1.06c.11-.33.31-1.08.49-1.88.33.75.83,2.3,1.12,1.68A8.11,8.11,0,0,0,147.88,56.8Z"/><path class="cls-2" d="M78.47,183h-.3c-2.92-.07-6.29-1.16-6.66-2.81s.75-3.33,1.74-4.77a8.55,8.55,0,0,0,1.25-2.19,22.59,22.59,0,0,0,.12-5.69c-.06-1.38-.13-2.94-.13-4.52a53.42,53.42,0,0,0-1.62-13.19C71.8,145.8,72,138,72.29,129l0-.7a108.61,108.61,0,0,0-1.07-19l0-.15c-.53-4-3.76-25-3.79-25.22V68.07c0-3.75,3.44-12.45,3.83-13.43.93-2.34.83-12,.79-15.22,0-.42,0-.73,0-.92s0-1.18.08-2.42c0-1.06.1-2.58.14-4.06A88.65,88.65,0,0,1,67.41,46.9l-.06.12c-.23.56-.44,1.16-.66,1.76A16.48,16.48,0,0,1,64,54.15c-1.9,2.18-3.56,2.34-4.42,1.82s-2.76-4.3-3.26-5.66a65,65,0,0,1-1.71-8.46c0-.24-.09-.69-.17-1.29-.59-4.71-2.41-19-4.37-23.52a4.43,4.43,0,0,1,.85-4.63,2.21,2.21,0,0,1,1.35-.65,5.58,5.58,0,0,0,.76-.19c.89-.3,1.21-.38,1.48-.45s.33-.09.62-.19a2.34,2.34,0,0,1,1.25-.09,3.47,3.47,0,0,0,.6,0,15.08,15.08,0,0,0,3.14-.28,1,1,0,0,1,1,.17,1.09,1.09,0,0,1,.22,1,.41.41,0,0,1-.12.2l-.94.78c.18.07.39.16.64.28s.57.41.53.69c0,.13-.08.55-1.35.75h-.16a1.83,1.83,0,0,1,0,1.2,9.09,9.09,0,0,1-.58,1.28,12.88,12.88,0,0,0-.72,1.53c-.46,1.18-.94,2.41-1.17,3.12a12.09,12.09,0,0,0-.28,2.88c.05.58,2.46,7.09,3.6,9.84.12-1.39.34-3.63.62-6,.29-3.95.56-6.6.82-8.1a5.06,5.06,0,0,1,1.93-2.83,31.35,31.35,0,0,1,3-2.29c.91-.61,1.88-1.2,2.86-1.73a19.7,19.7,0,0,1,3-1.41,13,13,0,0,1,2.16-.5l1.16-.22A13.06,13.06,0,0,0,81,9.31c2.45-1.72,1.23-5.78,1.21-5.82a.41.41,0,0,1,.06-.34.37.37,0,0,1,.3-.15l9.91.14a.36.36,0,0,1,.36.35s.28,4,1.31,5.8c.41.73,1.61,1.1,2.48,1.37l.22.06a34,34,0,0,0,4.25,1c.73.13,1.38.24,2,.3l1,.09c1,.08,2,.16,2.92.27a4.56,4.56,0,0,1,1.14.24l1,.37a4.72,4.72,0,0,1,2.09,1.53c1.12,1.42,1.31,3.34,1.47,5l.09.87c.24,2.1.35,4.25.45,6.34.07,1.5.15,3.05.27,4.57.24,2.84.54,5.72.84,8.51.13,1.22.25,2.44.38,3.66.06.63.31.82,1.08.82h0c2.65,0,5.33-.15,7.93-.3,2.36-.14,4.79-.28,7.23-.31,4.44-.05,7,.55,10.15,2.37l.31.2a2.67,2.67,0,0,0,.36.22,4.26,4.26,0,0,1,.47.31l.69.55c1.78,1.4,1.88,1.53,3.65,4.62l.1.2a17.36,17.36,0,0,1,.9,2.53l.15.48a5.3,5.3,0,0,1,.33,1.59h0a7.19,7.19,0,0,1-.07,2.57.54.54,0,0,1-.5.36c-.36,0-.59-.37-.87-1-.09.35-.17.63-.23.8-.17.51-.5.52-.64.5-.61-.1-.88-1.32-.88-1.68,0-.11,0-.34,0-.63a.63.63,0,0,1-.66-.07,3.47,3.47,0,0,1-1.06-1.15c-.22-.33-.56-.83-1.15-1.63-.08-.07-.51-.3-.74-.43a5,5,0,0,1-.51-.29,7.26,7.26,0,0,1-1.74-2c-.83-1.32-1.49-2.37-4.65-2.37a22.23,22.23,0,0,0-4.77.87l-.7.18a73.57,73.57,0,0,1-17.78,1.86,2,2,0,0,1-.35,0A2.84,2.84,0,0,1,109,51a25.41,25.41,0,0,1-2.06-6.28c-.06-.41-.68-3-1.34-5.71-.49-2.05-1-4.28-1.48-6.19-.14,2.12-.34,4.64-.54,7.11-.33,4.06-.64,7.89-.64,9.47,0,2.07,1.53,5.88,3,9.58a49.31,49.31,0,0,1,2.68,7.72c.82,4.34-.74,16.68-.81,17.2,0,.22-3.26,21.21-3.8,25.23l0,.15a107.87,107.87,0,0,0-1.06,19l0,.7c.27,9,.5,16.82-.57,20.84A53.42,53.42,0,0,0,100.73,163c0,1.58-.07,3.14-.13,4.52a22.12,22.12,0,0,0,.12,5.69,8.55,8.55,0,0,0,1.25,2.19c1,1.44,2.11,3.08,1.74,4.77S100,182.92,97.05,183c-2.59.08-4.29-.66-4.65-2-.72-2.64-.82-8.17-.82-11.22a21.43,21.43,0,0,1,.34-2.57,36.9,36.9,0,0,0,.74-8c-.12-1.63-.44-3.9-.78-6.31-.45-3.17-1-6.76-1.12-9.7a65.58,65.58,0,0,1,.53-9.61,27.44,27.44,0,0,0,.29-4.45,7.9,7.9,0,0,0-.5-1.58A14.79,14.79,0,0,1,90,121.78c0-4.08-.28-17.13-.55-24.4-.23-6.29-.46-11.78-.52-13.2H86.34c-.06,1.42-.3,6.91-.53,13.2-.27,7.27-.54,20.32-.54,24.4a14.76,14.76,0,0,1-1.14,5.81,8.51,8.51,0,0,0-.49,1.58,26.44,26.44,0,0,0,.29,4.46,66.77,66.77,0,0,1,.52,9.6c-.15,2.94-.66,6.53-1.11,9.7-.34,2.41-.67,4.68-.78,6.31a36.9,36.9,0,0,0,.74,8,21.68,21.68,0,0,1,.34,2.57c0,3-.11,8.58-.83,11.22C82.47,182.28,80.89,183,78.47,183ZM86,83.43h3.26a.37.37,0,0,1,.37.36s.27,6.24.54,13.57.54,20.34.54,24.42a14,14,0,0,0,1.09,5.54,9.62,9.62,0,0,1,.54,1.72A26.48,26.48,0,0,1,92,133.7a65.56,65.56,0,0,0-.52,9.49c.15,2.91.66,6.48,1.11,9.63.34,2.43.67,4.71.79,6.37a38.28,38.28,0,0,1-.75,8.17,21.91,21.91,0,0,0-.34,2.44c0,5.21.29,9.13.8,11,.26.93,1.77,1.47,3.91,1.43,2.87-.07,5.7-1.13,6-2.23.3-1.38-.68-2.81-1.63-4.19a9.22,9.22,0,0,1-1.35-2.4,22.18,22.18,0,0,1-.15-5.94c.06-1.37.13-2.92.13-4.48a54.36,54.36,0,0,1,1.64-13.38c1-3.92.82-11.66.55-20.63l0-.7a109.91,109.91,0,0,1,1.07-19.17l0-.15c.54-4,3.77-25,3.8-25.23s1.61-12.73.82-17a50.13,50.13,0,0,0-2.64-7.57c-1.51-3.76-3.07-7.65-3.07-9.86,0-1.61.31-5.46.64-9.53.3-3.61.6-7.34.7-9.73a.37.37,0,0,1,.74-.06c.47,2.17,1.31,5.67,2.06,8.75s1.29,5.34,1.35,5.79a24.82,24.82,0,0,0,2,6.07,2.08,2.08,0,0,0,1.47,1.2.82.82,0,0,0,.22,0A72.48,72.48,0,0,0,128.93,50l.7-.17a22.62,22.62,0,0,1,5-.9c3.57,0,4.4,1.32,5.29,2.72a6.46,6.46,0,0,0,1.55,1.86l.41.22a3.19,3.19,0,0,1,1,.65c.6.81.94,1.31,1.17,1.65a3.21,3.21,0,0,0,.65.8c-.11-.49-.26-1.08-.35-1.38a.93.93,0,0,1,.2-.84.82.82,0,0,1,.69-.29,1.17,1.17,0,0,1,.78.5.37.37,0,0,1,.07.25c-.1,1.28-.22,2.9-.22,3.23A2.1,2.1,0,0,0,146,59c.12-.4.26-1,.39-1.54a.38.38,0,0,1,.33-.29.38.38,0,0,1,.38.22l.2.48c.08.2.19.48.31.72,0-.53,0-1.32-.06-1.73h0a4.85,4.85,0,0,0-.29-1.38c0-.09-.09-.28-.16-.52a19,19,0,0,0-.86-2.44l-.08-.14c-1.75-3.06-1.78-3.08-3.46-4.4l-.7-.55a1.45,1.45,0,0,0-.34-.23,4,4,0,0,1-.44-.27l-.27-.18c-3-1.76-5.38-2.3-9.77-2.26-2.41,0-4.84.17-7.19.3-2.6.15-5.3.31-8,.31a1.59,1.59,0,0,1-1.85-1.5c-.12-1.22-.25-2.44-.38-3.65-.29-2.8-.6-5.68-.83-8.53-.13-1.53-.2-3.09-.28-4.6-.1-2.07-.2-4.21-.44-6.29,0-.28-.06-.58-.09-.88-.16-1.66-.33-3.39-1.32-4.64A4,4,0,0,0,109,13.68L108,13.31a4.08,4.08,0,0,0-1-.19c-1-.11-1.93-.2-2.9-.28l-1-.09c-.69-.06-1.36-.17-2.11-.3a36.35,36.35,0,0,1-4.34-1l-.22-.07c-1-.31-2.35-.73-2.91-1.7a17.15,17.15,0,0,1-1.37-5.79l-9.08-.12c.29,1.24.75,4.5-1.62,6.16a13.69,13.69,0,0,1-4.94,2c-.39.09-.79.16-1.19.23a14.6,14.6,0,0,0-2,.47A18.61,18.61,0,0,0,70.38,14a32.48,32.48,0,0,0-2.8,1.69,31.81,31.81,0,0,0-3,2.23,4.44,4.44,0,0,0-1.67,2.4c-.26,1.45-.53,4.16-.82,8-.43,3.7-.72,7-.72,7.31a.44.44,0,0,1-.18.36.39.39,0,0,1-.39,0c-.64-.35-4.41-11.47-4.42-11.57a12.9,12.9,0,0,1,.32-3.13c.24-.73.72-2,1.18-3.16a17.58,17.58,0,0,1,.75-1.61,6.74,6.74,0,0,0,.54-1.16.9.9,0,0,0,0-.76,10.37,10.37,0,0,0-1.39,1.94.37.37,0,0,1-.69-.11c-.07-.35-.29-1.49-.3-1.74v-.12c0-.55,0-1.06.29-1.29a.57.57,0,0,1,.59,0,13,13,0,0,0,2.33.4,4.18,4.18,0,0,0,.41-.09c-.86-.38-.94-.35-1-.35a.37.37,0,0,1-.34-.24.39.39,0,0,1,.12-.42l1.36-1.13c0-.08,0-.16,0-.17a.47.47,0,0,0-.29,0,16.49,16.49,0,0,1-3.31.3,4.67,4.67,0,0,1-.72-.05,1.7,1.7,0,0,0-.91.06,6.93,6.93,0,0,1-.68.2c-.26.07-.57.15-1.42.44a7.81,7.81,0,0,1-.86.22,1.48,1.48,0,0,0-1,.44,3.69,3.69,0,0,0-.69,3.81c2,4.59,3.82,19,4.42,23.71.08.6.14,1,.17,1.29A67.34,67.34,0,0,0,57,50.05c.58,1.56,2.35,4.91,3,5.28s2,0,3.45-1.67A15.88,15.88,0,0,0,66,48.53c.22-.62.44-1.22.67-1.79l.06-.13C67.85,43.86,71.28,35.5,72,29c.22-2,.26-2.25.69-2.21s.53,0,.2,9.33c-.05,1.23-.08,2.15-.08,2.39s0,.5,0,.91c.06,5.59,0,13.29-.85,15.51-1.4,3.5-3.77,10.22-3.77,13.15V83.81C68.21,84,71.44,105,72,109l0,.15a107.92,107.92,0,0,1,1.07,19.17l0,.7c-.26,9-.49,16.71.55,20.63A54.36,54.36,0,0,1,75.23,163c0,1.56.07,3.11.14,4.48a23.06,23.06,0,0,1-.15,5.94,9.22,9.22,0,0,1-1.35,2.4c-1,1.39-1.94,2.81-1.63,4.19.24,1.1,3.08,2.16,5.94,2.23,2.17,0,3.66-.5,3.91-1.43.52-1.89.8-5.81.8-11a21.24,21.24,0,0,0-.33-2.44,38.28,38.28,0,0,1-.75-8.17c.12-1.66.44-3.94.79-6.37.45-3.15,1-6.72,1.11-9.63a65.57,65.57,0,0,0-.53-9.49A27.19,27.19,0,0,1,82.9,129a8.87,8.87,0,0,1,.54-1.72,14,14,0,0,0,1.08-5.54c0-4.08.27-17.16.54-24.42s.55-13.57.55-13.57A.37.37,0,0,1,86,83.43Zm59.1-28.35s-.09.11-.07.19.12.45.2.75c0-.33,0-.62.07-.84A.36.36,0,0,0,145.08,55.08Zm-87.55-41a5.1,5.1,0,0,0,0,.53v.15c0,.07.05.34.11.68a7.76,7.76,0,0,1,.88-1.14A7.16,7.16,0,0,1,57.53,14.05Z"/><path class="cls-3" d="M141.44,153.49c-3.21-.26-6.51-.27-7.91,1-1.92,1.75,1.48,6.11-.92,7.9a2.56,2.56,0,0,1-1.14.37c-8.73,1.21-17.83.06-26.67-.71a116.21,116.21,0,0,0-26.1.76c-6.22.85-12.21-.15-18.26-1.3-3.45-.66-6.87-1.28-10-3.19a63.26,63.26,0,0,0-5.93-3.13,32.31,32.31,0,0,0-3.12-1,2.9,2.9,0,0,1-2.19-3.09,1.58,1.58,0,0,0-1.36-1.71,9.47,9.47,0,0,1-4.44-2.64,3.72,3.72,0,0,1-1-3c.23-1.8-.39-2.34-.9-4-.64-2.07-.33-2.74.43-5.17,8.16-26,12.08-56.93,31.42-77.7a23.88,23.88,0,0,0,5.21-7.81c1.54-3.88,2.81-7.94,2.51-12.2a81,81,0,0,0-2.59-13.3c-.25-1-.48-2.06-.76-3.07s-.65-1.89-.91-2.85-.43-1.86.36-2.34a47.65,47.65,0,0,1,9.14-4.28c1.58-.59,3.15.63,4.39,1.52a15,15,0,0,0,3.63,2.2,7.65,7.65,0,0,0,2.06.34A14,14,0,0,0,88.87,15a10.07,10.07,0,0,0,2.28-.59c.59-.23,1.18-.46,1.75-.75a4.23,4.23,0,0,0,1-.75c.69-.66,1.3-1.41,2-2.08,1.23-1.19,2.71-1.19,4.39-.62,1,.33,2,.72,2.92,1.12,1.48.63,2.9,1.37,4.33,2.11a3,3,0,0,1,2.06,2.5,16.67,16.67,0,0,1-.19,3.15c-.13,1.25-.27,2.51-.41,3.77a128.86,128.86,0,0,0-1.16,15.58c0,2.5-.13,5.5.89,7.81,1.16,2.62,4.13,6.05,5.8,8.19,19.71,25.11,34.52,55.25,39.3,87q.43,2.91.75,5.83c.26,2.46-.14,4.91-2.6,6a10.06,10.06,0,0,1-4,.72C146.6,154.08,144.05,153.71,141.44,153.49Z"/><path class="cls-2" d="M123.17,164.29c-5,0-10-.46-14.91-.92l-3.54-.32a115,115,0,0,0-25.88.76c-6.31.86-12.39-.13-18.59-1.31l-.22,0c-3.39-.65-6.9-1.32-10.09-3.28a61.71,61.71,0,0,0-5.83-3.08,10.55,10.55,0,0,0-1.67-.54,13.44,13.44,0,0,1-1.37-.41,3.83,3.83,0,0,1-2.84-4.07c0-.32,0-.52-.64-.7a10.5,10.5,0,0,1-4.89-2.91,4.67,4.67,0,0,1-1.22-3.82,3.73,3.73,0,0,0-.39-2.26c-.15-.38-.32-.8-.48-1.32-.69-2.22-.39-3.17.28-5.27l.15-.49c1.9-6.07,3.54-12.27,5.27-18.83,5.6-21.21,11.38-43.15,26.37-59.24a23.11,23.11,0,0,0,5-7.51c1.45-3.64,2.74-7.59,2.44-11.76A68.76,68.76,0,0,0,68,25.42L67.36,23c-.17-.72-.34-1.44-.54-2.15-.12-.45-.27-.88-.42-1.31s-.35-1-.49-1.55c-.2-.77-.68-2.55.8-3.46a47.78,47.78,0,0,1,9.06-4.26l.26-.09c2-.74,3.8.56,5.12,1.5l.67.48a11.58,11.58,0,0,0,2.9,1.73,6.36,6.36,0,0,0,1.78.28A12.76,12.76,0,0,0,88.74,14a9.58,9.58,0,0,0,2.05-.54,15.13,15.13,0,0,0,1.65-.7,3.81,3.81,0,0,0,.81-.58c.33-.32.64-.67,1-1s.67-.73,1-1.07c1.37-1.33,3.13-1.61,5.39-.85.9.3,1.85.66,3,1.15,1.39.59,2.74,1.28,4,2l.34.17a4,4,0,0,1,2.6,3.3,14.21,14.21,0,0,1-.12,2.78l-.06.56L110,23l-.06.57a122.93,122.93,0,0,0-1.09,14.89v1c0,2.15,0,4.59.8,6.41a37.34,37.34,0,0,0,4.69,6.74c.36.44.69.86,1,1.24,21.31,27.15,35,57.4,39.49,87.46.29,1.94.55,3.91.76,5.88.37,3.53-.69,5.9-3.18,7a11.09,11.09,0,0,1-4.35.82,36,36,0,0,1-3.95-.29c-.87-.09-1.81-.19-2.75-.26h0c-1.44-.12-5.82-.48-7.16.74-.5.46-.27,1.59,0,2.78.35,1.73.79,3.87-1,5.19a3.24,3.24,0,0,1-1.6.55A60.69,60.69,0,0,1,123.17,164.29Zm-27.83-3.64c3.22,0,6.39.14,9.55.42l3.55.32c7.59.7,15.44,1.43,22.89.39a1.8,1.8,0,0,0,.68-.18c.7-.52.55-1.55.22-3.19s-.7-3.43.63-4.65c1.74-1.59,5.35-1.53,8.66-1.26h0c1,.08,1.91.18,2.8.27a34.61,34.61,0,0,0,3.69.28,9.2,9.2,0,0,0,3.57-.64c1-.48,2.4-1.52,2-5-.21-1.94-.46-3.89-.75-5.79-4.47-29.73-18-59.65-39.09-86.53l-1-1.22a38.14,38.14,0,0,1-5-7.19c-1-2.2-1-4.86-1-7.21v-1A124.15,124.15,0,0,1,108,23.32l.06-.56c.14-1.26.28-2.51.41-3.77l.07-.58a12,12,0,0,0,.11-2.37c-.07-.83-.5-1.19-1.52-1.71l-.34-.17c-1.28-.66-2.59-1.34-3.92-1.9-1.09-.46-2-.81-2.85-1.1-1.55-.52-2.55-.4-3.37.4-.33.31-.64.65-.94,1s-.68.74-1,1.09a5.47,5.47,0,0,1-1.28.91,15.56,15.56,0,0,1-1.86.8A11.17,11.17,0,0,1,89,16a14.92,14.92,0,0,1-2.6.11,7.79,7.79,0,0,1-2.34-.39,13.5,13.5,0,0,1-3.42-2L80,13.25c-1.06-.76-2.27-1.63-3.27-1.26l-.26.1a45,45,0,0,0-8.71,4.1c-.14.08-.11.5.08,1.23.13.48.29.95.45,1.42s.33.94.46,1.42c.2.74.38,1.49.56,2.23l.6,2.45a71.08,71.08,0,0,1,2.22,11.89c.33,4.58-1.12,9-2.58,12.64a25.26,25.26,0,0,1-5.4,8.12C49.49,73.32,43.77,95,38.24,116c-1.66,6.29-3.38,12.8-5.3,18.92l-.15.49c-.63,2-.78,2.46-.28,4.09.14.45.29.81.42,1.14a5.6,5.6,0,0,1,.52,3.26,2.68,2.68,0,0,0,.69,2.2,8.57,8.57,0,0,0,4,2.38,2.54,2.54,0,0,1,2.09,2.71,1.91,1.91,0,0,0,1.52,2.1c.4.14.8.25,1.21.35a12.15,12.15,0,0,1,2,.67,67.25,67.25,0,0,1,6,3.18c2.88,1.77,6.06,2.38,9.42,3l.23,0c6,1.15,11.93,2.12,17.94,1.3A123.66,123.66,0,0,1,95.34,160.65Z"/></svg>