<svg id="图层_1" data-name="图层 1" xmlns="http://www.w3.org/2000/svg" viewBox="0 0 186 186"><defs><style>.cls-1{fill:#f1f1f1;}.cls-2{fill:#5b3b2f;}.cls-3{fill:#fff;}.cls-4{fill:#f9e6ed;}</style></defs><path class="cls-1" d="M157.75,174.24S31.59,179.61,29,162.37,67.86,94,67.86,94l51.63,1Z"/><path class="cls-2" d="M116,176c-7,0-14.35-.08-21.72-.26-43.45-1.11-65.15-5.45-66.35-13.25C25.3,145,65.38,95.45,67.09,93.35l.3-.38,52.73,1,.27.56,38.92,80.65-1.51.07C157.56,175.25,138.93,176,116,176ZM68.33,95c-3.76,4.69-40.81,51.39-38.39,67.24.57,3.71,9.7,10.16,64.43,11.55,27.54.71,55.16-.21,61.83-.46L118.86,95.93Z"/><path class="cls-3" d="M75.76,68.07V83.81h0c0,.49-.16,2.42-1.24,9.25l-1.66,14.71.21.11c-.57,5.25-1.87,16.86-2.25,17.38-.5.68-.93,18.46-2.74,28.81A110.5,110.5,0,0,1,64,170.3a6.36,6.36,0,0,1-2.31,3.13c-5.11,3.6-11.44,3.3-13.62,3.69-2.42.43-.78,2.5.43,2.29s20.71.43,23.14,0,.24-5.35,0-6.5,2.35-7.5,3.52-11.25,4.45-19.67,5.13-22.74,3.09-13.53,4.84-20.93c.29-1.22.56-2.41.81-3.55l.27.13,6.43-30.76h4.57s.27,6.23.54,13.56.54,20.34.54,24.41,1.36,5.7,1.63,7.33-1.09,8.95-.81,14.1,1.62,12.21,1.89,16-1.08,9.22-1.08,10.58,0,8.14.81,11.12,10,1.63,10.58-.81-2.44-4.89-3-6.79,0-6,0-10.3a53.89,53.89,0,0,1,1.63-13.3c1.08-4.06.81-12.2.54-21.43A108.85,108.85,0,0,1,111.56,109c.55-4.07,3.8-25.22,3.8-25.22s1.63-12.75.82-17.09Z"/><path class="cls-2" d="M104.7,183c-2.43,0-4-.71-4.35-2-.72-2.64-.82-8.16-.82-11.22a21.59,21.59,0,0,1,.34-2.56,37,37,0,0,0,.74-8c-.11-1.63-.44-3.91-.78-6.32-.45-3.17-1-6.76-1.12-9.7a68.25,68.25,0,0,1,.53-9.6,27.6,27.6,0,0,0,.29-4.46,8.1,8.1,0,0,0-.5-1.58,14.79,14.79,0,0,1-1.13-5.81c0-4.08-.27-17.13-.54-24.4-.24-6.29-.47-11.78-.53-13.2H92.92l-6.36,30.47a.39.39,0,0,1-.21.26.42.42,0,0,1-.16,0h0c-.23,1-.47,2.06-.72,3.13C83.74,125.4,81.3,136,80.63,139c-.14.64-.39,1.84-.72,3.38-1.21,5.73-3.48,16.41-4.41,19.4-.39,1.25-1,2.82-1.49,4.34-1,2.7-2.15,6.06-2,6.72a9.42,9.42,0,0,0,.28,1c.5,1.58,1.26,4,.51,5.2a1.59,1.59,0,0,1-1.13.75c-1.45.26-8.55.14-14.81,0-4-.07-7.86-.13-8.32,0a2,2,0,0,1-2.1-1.46c-.05-.29-.09-1.26,1.54-1.56.46-.08,1.07-.13,1.83-.19,2.86-.23,7.65-.63,11.63-3.44a5.93,5.93,0,0,0,2.18-2.94A110.26,110.26,0,0,0,67.73,154c1.11-6.34,1.71-15.6,2.1-21.74.36-5.58.47-6.91.71-7.23.24-.53,1.07-7,2.15-17a.37.37,0,0,1-.18-.37L74.17,93c1-6.29,1.2-8.41,1.23-9.09a.36.36,0,0,1,0-.11V68.07c0-3.76,3.44-12.45,3.83-13.43.93-2.34.83-12,.79-15.22,0-.42,0-.73,0-.92s0-.77,0-1.41c-.06-1.92-.18-5.35,0-8.36l0,.12c-.34,1.13-.73,7.7-1.07,13.49-.29,5-.57,9.66-.82,11.14-.2,1.2-.82,3.73-1.54,6.66-1.24,5-2.79,11.33-2.79,13.36,0,1.79,0,4.28-.08,6.52,0,1.83-.06,3.49-.06,4.46s-.27,1.72-.8,1.85-1.22-.52-1.53-1.14a20.16,20.16,0,0,1-1-4.1,2.93,2.93,0,0,0-1,1.57C69,84,70.92,86.42,71.57,87.23s.3,1.44.16,1.59c-.58.63-2,.53-3.1-.23-1.81-1.2-3.15-5.17-2.88-8.48a27.55,27.55,0,0,1,2.15-7A28.41,28.41,0,0,0,69,70c.33-1.32,1.12-7,2.35-16.9l.08-.69c.27-2.13.81-19.57,1.08-29.54a11.11,11.11,0,0,1,9.28-11.21s4.56-.55,7.16-2.37,1.23-5.78,1.21-5.83a.39.39,0,0,1,.06-.33.38.38,0,0,1,.3-.15h0l9.9.14a.36.36,0,0,1,.36.34s.28,4,1.31,5.81c.69,1.2,4.41,2.1,7.38,2.5l.24,0,.73.14c3.35.62,8.41,1.55,8.67,10.93.28,10,.82,27.41,1.08,29.54l.09.69c1.23,9.9,2,15.58,2.35,16.9a28.41,28.41,0,0,0,1.12,3.07,27.92,27.92,0,0,1,2.14,7c.28,3.31-1.07,7.28-2.88,8.48-1.13.76-2.51.86-3.09.23-.14-.15-.54-.71.15-1.59s2.63-3.28,2.37-4.57a3,3,0,0,0-1-1.58,21.49,21.49,0,0,1-1,4.11c-.31.62-.9,1.29-1.53,1.14s-.81-.75-.81-1.85,0-2.63-.05-4.46c0-2.24-.08-4.73-.08-6.52,0-2-1.55-8.31-2.79-13.36-.73-2.93-1.35-5.46-1.55-6.66-.26-1.57-.57-6.65-.9-12-.22-3.55-.45-7.18-.65-9.66-.13,2-.34,4.78-.61,8.1-.33,4.06-.64,7.89-.64,9.47,0,2.07,1.53,5.88,3,9.58a49.31,49.31,0,0,1,2.68,7.72c.82,4.34-.74,16.68-.81,17.2,0,.22-3.26,21.21-3.8,25.23v.15a107.61,107.61,0,0,0-1.07,19l0,.7c.27,9,.5,16.82-.57,20.84a53.44,53.44,0,0,0-1.62,13.2c0,1.57-.07,3.13-.13,4.51a22.08,22.08,0,0,0,.12,5.69,8.39,8.39,0,0,0,1.25,2.19c1,1.45,2.11,3.08,1.74,4.78s-3.74,2.74-6.66,2.81ZM92.62,83.43h4.57a.37.37,0,0,1,.37.36s.27,6.24.54,13.57.55,20.34.55,24.42a14,14,0,0,0,1.08,5.54,9.71,9.71,0,0,1,.54,1.73,26.38,26.38,0,0,1-.29,4.65,65.56,65.56,0,0,0-.52,9.49c.15,2.91.66,6.48,1.11,9.63.34,2.43.67,4.72.79,6.37a38.28,38.28,0,0,1-.75,8.17,22.23,22.23,0,0,0-.34,2.44c0,5.21.29,9.13.8,11,.26.93,1.75,1.47,3.91,1.43,2.87-.07,5.71-1.13,6-2.22.31-1.38-.68-2.81-1.63-4.19a9.42,9.42,0,0,1-1.35-2.41,23,23,0,0,1-.15-5.93c.06-1.37.14-2.93.14-4.48a53.91,53.91,0,0,1,1.64-13.39c1-3.92.81-11.66.55-20.63l0-.7a107.92,107.92,0,0,1,1.07-19.17V109c.54-4,3.77-25,3.8-25.23s1.61-12.73.82-17a49.46,49.46,0,0,0-2.64-7.58c-1.51-3.75-3.06-7.64-3.06-9.85,0-1.61.31-5.46.63-9.53.41-5.07.92-11.38.68-12.07a5.9,5.9,0,0,1-.21-.66.36.36,0,0,1,.24-.46.38.38,0,0,1,.47.24c.29.85.48,1.44.56,1.78.3,1.16.64,6.79,1,12.75.32,5.12.64,10.43.9,12,.19,1.17.81,3.68,1.53,6.6,1.25,5.09,2.81,11.42,2.81,13.54,0,1.79,0,4.28.08,6.51,0,1.83.06,3.5.06,4.47s.19,1.11.23,1.12.41-.17.69-.74a25.45,25.45,0,0,0,1-4.5.38.38,0,0,1,.56-.27,4.15,4.15,0,0,1,1.8,2.42c.29,1.45-1.19,3.54-2.51,5.19-.09.1-.34.45-.19.61s1.22.27,2.13-.34c1.4-.93,2.82-4.54,2.55-7.8a27.4,27.4,0,0,0-2.09-6.8,28.9,28.9,0,0,1-1.16-3.17c-.5-2-1.9-13.29-2.36-17l-.09-.69c-.33-2.65-1-26.85-1.08-29.6-.25-8.79-4.77-9.62-8.06-10.22l-.75-.14-.16,0c-1.63-.21-6.92-1.06-8-2.87a17.29,17.29,0,0,1-1.37-5.78L91,3.75c.29,1.25.75,4.51-1.62,6.17-2.76,1.93-7.3,2.48-7.5,2.5s-8.36,1.18-8.62,10.5c-.08,2.75-.76,26.95-1.09,29.6l-.08.69c-.46,3.7-1.86,15-2.37,17a28.5,28.5,0,0,1-1.15,3.17,27,27,0,0,0-2.09,6.8c-.28,3.31,1.12,6.85,2.55,7.8.91.61,1.88.61,2.13.34s-.11-.51-.19-.61c-1.33-1.65-2.81-3.74-2.52-5.19a4.15,4.15,0,0,1,1.8-2.42.36.36,0,0,1,.35,0,.35.35,0,0,1,.22.28,24,24,0,0,0,1,4.5c.29.57.61.74.69.74s.24-.24.24-1.12,0-2.64,0-4.47c0-2.23.08-4.72.08-6.51,0-2.12,1.56-8.45,2.81-13.54.72-2.92,1.34-5.43,1.54-6.6.24-1.44.51-6.12.8-11.06.36-6.12.74-12.45,1.11-13.67.16-.54.35-1.05.54-1.59s.37-1,.55-1.58a.38.38,0,0,1,.73.18c-.58,3.25-.4,8.77-.32,11.43,0,.65,0,1.15,0,1.43s0,.5,0,.91c.06,5.59,0,13.29-.85,15.51-1.4,3.5-3.77,10.21-3.77,13.15V83.68a.35.35,0,0,1,0,.14c0,.53-.18,2.5-1.25,9.29l-1.63,14.45a.4.4,0,0,1,.18.36c-1.83,16.9-2.2,17.4-2.32,17.56-.14.35-.35,3.5-.56,6.84-.4,6.15-1,15.44-2.12,21.81a109.84,109.84,0,0,1-4.16,16.3,6.61,6.61,0,0,1-2.45,3.3c-4.15,2.93-9.06,3.33-12,3.57-.71.06-1.34.11-1.76.19s-1,.25-.93.69a1.24,1.24,0,0,0,1.23.86c.51-.09,3.55,0,8.46,0,5.92.1,13.29.22,14.67,0a.82.82,0,0,0,.62-.4c.57-.95-.18-3.31-.58-4.59a10.74,10.74,0,0,1-.31-1.07c-.15-.8.68-3.22,2.06-7.11.53-1.51,1.09-3.07,1.48-4.32.92-3,3.18-13.6,4.39-19.33.33-1.54.58-2.74.72-3.38.69-3.1,3.08-13.47,4.84-20.93.29-1.22.56-2.41.82-3.55a.34.34,0,0,1,.2-.25.28.28,0,0,1,.15,0l6.35-30.34A.37.37,0,0,1,92.62,83.43Z"/><path class="cls-4" d="M78.13,15.77a2.49,2.49,0,0,1,.58-1.57c.8-1,4.5-2.07,6.53-2.75,2.91-1,3.42,4.21,7.66,5.12s9.78.71,13.66-3.18c2.33-2.33,4.64-.59,9.69,1.94,1.94,1-4.62,25.88-2.27,33.18,3.62,11.18,8.86,22,13.33,32.85,7.19,17.42,14.41,34.83,21.34,52.35,4.67,11.78,8.73,23.72,12.28,35.89.84,2.87,1,4.79-2.59,4.92a114.3,114.3,0,0,1-14.79-1c-6.43-.63-13.06-1.14-19.41-2.39a23.38,23.38,0,0,1-8.75-3.41c-.85-.59-6.61-5.35-4.81-6.33,2.06-1.13,8.21-5.56,1.88-6.4s-13.8-3.73-9.75-8.09,7-10.79,2.71-12.74-5.32-1.92-18.07-5.69S70.41,124.9,66.21,125s-.9,4.25-3,4.33-11.63-1.7-12.57,1.49,12.82,5.88,9.82,10.2S42.69,143.79,38.53,145s-5.11,4.4-1.85,7.45S56,163.36,57.18,167.53c.77,2.68,1.3,5.89-1.52,7.56a11.5,11.5,0,0,1-5.49,1.13l-9.35.37c-4,.16-7.71-.17-10.32-3.61a25,25,0,0,1-2.93-5.67,41.5,41.5,0,0,1-2.77-8.37c-1.29-7.18,3.33-15.19,6.05-21.69q5.38-12.89,11-25.69Q47.83,97.76,54,84c3-6.59,5.91-13.2,9.13-19.67.56-1.13,1.12-2.27,1.78-3.35,3.51-5.75,6.12-8.88,8-14.22C74.76,41.69,78,22.09,78.13,15.77Z"/><path class="cls-2" d="M71,66.75c-.94,5-2.1,9.85-3.34,14.73s-2.61,9.72-4,14.54-3,9.61-4.76,14.34c-.86,2.36-1.78,4.71-2.78,7-.51,1.16-1,2.31-1.61,3.44A13.56,13.56,0,0,1,52.41,124a9.07,9.07,0,0,0,.87-1.66c.24-.58.47-1.16.68-1.75.42-1.18.82-2.37,1.2-3.56.77-2.38,1.49-4.79,2.22-7.19L61.7,95.44c1.48-4.8,2.93-9.61,4.47-14.39S69.27,71.49,71,66.75Z"/><path class="cls-2" d="M89.83,58.18C91,69,91.64,79.89,92.22,90.76c.26,5.43.52,10.86.73,16.3l.36,8.14a50,50,0,0,0,.72,8.11,18.14,18.14,0,0,1-1-4q-.36-2-.66-4-.54-4-.93-8.13c-.53-5.43-.87-10.86-1.17-16.3S89.77,80,89.69,74.53,89.64,63.63,89.83,58.18Z"/><path class="cls-2" d="M84.58,58.18c0,4.59-.16,9.16-.42,13.73s-.61,9.13-1,13.69-.9,9.11-1.5,13.65a127.88,127.88,0,0,1-2.33,13.55c.28-4.57.46-9.14.78-13.71s.67-9.12,1.07-13.67.89-9.1,1.45-13.64S83.78,62.7,84.58,58.18Z"/><path class="cls-2" d="M105.22,69.81q2,9.36,3.7,18.74c1.16,6.25,2.25,12.52,3.35,18.78l3.23,18.79,1.67,9.38c.25,1.58.58,3.13.87,4.69.14.79.32,1.56.5,2.33l.49,2.34a152.81,152.81,0,0,1-5-18.44c-1.38-6.22-2.56-12.48-3.67-18.75s-2.07-12.56-2.92-18.87S105.78,76.16,105.22,69.81Z"/><path class="cls-2" d="M39.3,177.62c-3.39,0-7-.59-9.59-4a26.08,26.08,0,0,1-3.06-5.9,42.64,42.64,0,0,1-2.83-8.57c-1.11-6.19,1.87-12.8,4.51-18.63.56-1.25,1.11-2.46,1.6-3.62,3.14-7.49,6.63-15.66,11-25.7S49.31,92,53.08,83.62l.69-1.53c2.69-6,5.47-12.19,8.46-18.18l.15-.3c.51-1,1-2.1,1.67-3.12,1-1.56,1.83-2.92,2.66-4.19A45.1,45.1,0,0,0,72,46.46c1.75-4.88,5-24.39,5.14-30.71h0a3.51,3.51,0,0,1,.81-2.19c.83-1,3.17-1.81,6.16-2.78l.83-.28c2.13-.71,3.37.85,4.46,2.23,1,1.22,2,2.49,3.71,2.86,2.45.53,8.58,1.29,12.75-2.9,2.53-2.54,5.1-1.22,9,.79.58.3,1.2.63,1.88,1,1.35.68,1.14,3-.34,12.53-1.19,7.73-2.68,17.34-1.43,21.23,2.51,7.75,5.85,15.46,9.09,22.92,1.41,3.23,2.86,6.57,4.21,9.86l1.59,3.83c6.55,15.88,13.33,32.29,19.76,48.54,4.56,11.51,8.7,23.61,12.31,36,.5,1.71.91,3.49,0,4.79-.64.88-1.78,1.34-3.49,1.4a92.61,92.61,0,0,1-12.48-.71l-2.44-.24-2.8-.27c-5.52-.52-11.22-1-16.71-2.13a24.3,24.3,0,0,1-9.11-3.57c-.06,0-5.71-4.25-5.59-6.67a1.62,1.62,0,0,1,.86-1.36c2.11-1.15,4.28-3.16,4.15-3.85,0-.09-.4-.48-1.92-.68-1.68-.22-10.12-1.52-11.56-5.52-.35-1-.42-2.48,1.21-4.23,3.08-3.31,4.92-7.18,4.48-9.39a2.39,2.39,0,0,0-1.45-1.78,51.52,51.52,0,0,0-9-3.05c-2.15-.61-5-1.42-8.94-2.59-12.59-3.72-16.78-3.57-20.83-3.43a1.81,1.81,0,0,0-1.17.32c-.21.23-.16.82-.12,1.33a2.75,2.75,0,0,1-.42,2.12,1.73,1.73,0,0,1-1.29.55,21.93,21.93,0,0,1-2.42-.15c-2.38-.21-8.72-.78-9.22.93-.19.64,2.75,2.21,4.15,3,2.73,1.46,5.55,3,6.06,5.06a3,3,0,0,1-.53,2.47c-2.29,3.29-9.49,3.54-15.85,3.77a36.67,36.67,0,0,0-6.63.55c-1.68.49-2.78,1.35-3,2.36s.32,2.22,1.58,3.4a59,59,0,0,0,7,4.6c7.58,4.62,13,8.11,13.82,10.95.51,1.76,1.85,6.43-2,8.68a12.44,12.44,0,0,1-6,1.28l-9.35.37Q40.1,177.62,39.3,177.62ZM85.93,12.32a1.27,1.27,0,0,0-.37.07l-.84.28c-1.54.5-4.73,1.54-5.25,2.17a1.52,1.52,0,0,0-.35.95h0C79,22.39,75.7,42,73.87,47.13a47,47,0,0,1-5.49,10.26c-.82,1.25-1.69,2.6-2.64,4.14-.57.94-1.08,2-1.58,3l-.15.3c-3,6-5.74,12.13-8.43,18.11l-.68,1.53C51.14,92.8,47.16,101.81,42.75,112s-7.85,18.19-11,25.68c-.5,1.18-1.05,2.41-1.63,3.67-2.51,5.57-5.36,11.88-4.36,17.46a40.91,40.91,0,0,0,2.71,8.16,24,24,0,0,0,2.81,5.45c2.2,2.9,5.25,3.38,9.48,3.22l9.35-.37a10.83,10.83,0,0,0,5-1c1.77-1,2.08-2.91,1.08-6.42-.67-2.32-8.06-6.82-12.95-9.8A59.27,59.27,0,0,1,36,153.17c-1.81-1.7-2.58-3.59-2.16-5.32s2-3.11,4.41-3.81a35.29,35.29,0,0,1,7.11-.63c5.3-.19,12.57-.45,14.28-2.92a1,1,0,0,0,.23-.86c-.29-1.23-2.93-2.64-5.06-3.77-3-1.59-5.76-3.09-5.12-5.28,1-3.27,7.19-2.72,11.31-2.35.83.07,1.55.14,2,.14,0-.16,0-.37,0-.52a3.61,3.61,0,0,1,.62-2.82,3.45,3.45,0,0,1,2.59-1c4.21-.15,8.56-.3,21.46,3.51,4,1.17,6.78,2,8.93,2.58a53.82,53.82,0,0,1,9.28,3.16,4.35,4.35,0,0,1,2.57,3.2c.7,3.52-2.24,8.19-5,11.13-1.15,1.24-.88,2-.8,2.2.64,1.78,4.82,3.56,10,4.23.8.1,3.27.43,3.62,2.29.47,2.54-3.89,5.23-4.94,5.84.41,1.09,3.5,3.95,4.68,4.76a22.53,22.53,0,0,0,8.38,3.25c5.38,1.06,11,1.59,16.51,2.11l2.8.27,2.45.24a91,91,0,0,0,12.21.7c1,0,1.7-.24,1.95-.58.39-.54.08-1.85-.27-3.07-3.59-12.29-7.72-24.34-12.25-35.79-6.43-16.23-13.2-32.64-19.76-48.51l-1.58-3.83c-1.35-3.27-2.79-6.61-4.2-9.83-3.25-7.5-6.62-15.25-9.15-23.09-1.4-4.34.06-13.8,1.36-22.15.64-4.18,1.44-9.34,1.18-10.56l-1.67-.86c-3.91-2-5.21-2.59-6.65-1.16-4.86,4.89-11.81,4-14.57,3.45C90.24,17,88.9,15.33,87.82,14,86.89,12.78,86.44,12.32,85.93,12.32Z"/></svg>