<svg id="图层_1" data-name="图层 1" xmlns="http://www.w3.org/2000/svg" viewBox="0 0 186 186"><defs><style>.cls-1{fill:#fff;}.cls-2{fill:#f3e1e7;}.cls-3{fill:#5b3b2f;}.cls-4{fill:#f9e6ed;}</style></defs><path class="cls-1" d="M145.71,12.34c3.38.95,8.86,1.64,8.38,11.53s-1.26,27.75-1.15,30,.74,15.78,1.12,18,2.5,7.08,2.53,10.39-1.64,7-3.37,8-3.6.28-2.4-1,3-3.35,2.84-4.75a3.79,3.79,0,0,0-1.48-2.31,26.2,26.2,0,0,1-1.45,4.57c-.63,1.06-1.77,1.53-1.6-.67s.45-7.82.7-11.11S147.27,57.68,147,54.35s.35-22.86,0-25.1S141.63,11.2,145.71,12.34Z"/><path class="cls-1" d="M126.23,3.38s1.37,4.4-1.38,6.32-7.42,2.47-7.42,2.47.18,8.86-.94,12.48-.57,12.68-.57,14.33.27,13.75-.83,16.5S111.24,65.65,111.24,69v16h40.15S153,72,152.21,67.58s-5.77-13.75-5.77-17.6,1.78-20.68,1.3-22-2.82-9.73-2.13-15.64c0,0-6.87-.82-8-2.75s-1.38-6.05-1.38-6.05Z"/><path class="cls-1" d="M113.59,17.2c-.07-.82.79-3.41,0-3.17-2.9.91-8.92,3.72-8.72,11.25.27,9.9.68,27.78.48,30s-1.37,15.78-1.9,18-3.21,7.08-3.35,10.39,1.75,7.06,3.8,8,4.32.29,2.92-1-3.52-3.37-3.27-4.77v0a1.28,1.28,0,0,1,2.47-.06,10.54,10.54,0,0,0,1,2.38c.73,1,2.08,1.52,1.95-.67s-.31-7.83-.51-11.13,3.6-17.29,4.06-20.62.15-22.9.81-25.12C114.24,27.62,114.44,27.27,113.59,17.2Z"/><path class="cls-2" d="M111.24,84.9s3.3,20.58,3.85,24.54a100.68,100.68,0,0,1,1.1,18.73c-.27,9-.55,16.89.55,20.85A50.59,50.59,0,0,1,118.39,162c0,4.22.55,8.18,0,10s-3.57,4.22-3,6.59,9.9,3.7,10.72.79.83-9.5.83-10.82-1.38-6.59-1.1-10.29,1.65-10.55,1.92-15.56-1.1-12.14-.82-13.73,1.65-3.16,1.65-7.12.27-16.62.55-23.75.55-13.19.55-13.19Z"/><path class="cls-2" d="M151.39,84.9s-3.3,20.58-3.85,24.54a100.68,100.68,0,0,0-1.1,18.73c.27,9,.55,16.89-.55,20.85A50.59,50.59,0,0,0,144.24,162c0,4.22-.55,8.18,0,10s3.57,4.22,3,6.59-9.9,3.7-10.72.79-.83-9.5-.83-10.82,1.38-6.59,1.1-10.29-1.65-10.55-1.92-15.56,1.1-12.14.82-13.73-1.65-3.16-1.65-7.12-.27-16.62-.55-23.75S133,84.9,133,84.9Z"/><path class="cls-3" d="M151.59,91.08a1.63,1.63,0,0,1-1.32-.51c-.13-.16-.49-.76.28-1.58s2.9-3.12,2.74-4.45a3.12,3.12,0,0,0-.89-1.68A21.1,21.1,0,0,1,151.05,87c-.36.59-1,1.22-1.62,1s-.76-.81-.67-1.92.17-2.67.28-4.52c.13-2.26.28-4.78.42-6.59.15-2-.93-8.52-1.81-13.72-.5-3-.94-5.62-1.05-6.84-.14-1.61-.07-6.78,0-12.25.08-5.74.16-11.68,0-12.81-.07-.4-.3-1.28-.58-2.39-1.61-6.26-3.2-13.07-1.58-14.65a1.36,1.36,0,0,1,1.4-.3l.73.2c3.34.88,8.38,2.2,7.93,11.7C154,34,153.2,51.65,153.31,53.82l0,.67c.49,10.11.85,15.93,1.09,17.29a27.52,27.52,0,0,0,.9,3.19A28,28,0,0,1,157,82.23c0,3.36-1.63,7.26-3.55,8.35A3.88,3.88,0,0,1,151.59,91.08Zm.59-9.28a.4.4,0,0,1,.21.07A4.16,4.16,0,0,1,154,84.45c.18,1.48-1.48,3.48-2.94,5-.09.1-.38.43-.24.61s1.2.37,2.19-.18c1.49-.84,3.2-4.38,3.17-7.69a27.32,27.32,0,0,0-1.59-7,29.83,29.83,0,0,1-.93-3.3c-.35-2.09-.91-13.59-1.09-17.37l0-.68c-.14-2.7,1-27.21,1.15-30,.43-8.9-4.08-10.08-7.37-11l-.74-.2h0a.62.62,0,0,0-.68.11c-1.44,1.41.81,10.19,1.78,13.93.3,1.18.52,2,.59,2.45.21,1.2.13,6.91,0,13-.07,5.21-.14,10.6,0,12.18.11,1.19.54,3.78,1,6.77.88,5.24,2,11.76,1.81,13.91-.14,1.8-.28,4.31-.42,6.57-.11,1.86-.21,3.55-.28,4.54s.15,1.15.15,1.15.43-.15.76-.7a25.71,25.71,0,0,0,1.41-4.47.34.34,0,0,1,.23-.26A.28.28,0,0,1,152.18,81.8Z"/><path class="cls-3" d="M151.39,85.27H111.24a.38.38,0,0,1-.37-.37V69c0-3.81,3.48-12.62,3.88-13.61,1-2.37.84-12.2.8-15.43V39c0-.28,0-.78,0-1.43-.11-3.23-.32-10,.62-13,1.09-3.52.93-12.27.93-12.36a.36.36,0,0,1,.33-.37s4.61-.57,7.25-2.42c2.49-1.74,1.25-5.86,1.23-5.9a.41.41,0,0,1,.06-.34.37.37,0,0,1,.3-.15l10,.14a.39.39,0,0,1,.37.35s.28,4.06,1.32,5.89c.83,1.44,5.84,2.34,7.7,2.56a.37.37,0,0,1,.32.41c-.68,5.9,1.65,14.2,2.11,15.48.29.8-.05,5.27-.64,12.55-.33,4.11-.64,8-.64,9.6,0,2.09,1.55,6,3.05,9.7a50.43,50.43,0,0,1,2.72,7.83c.82,4.4-.76,16.91-.82,17.44A.38.38,0,0,1,151.39,85.27Zm-39.77-.74h39.44c.24-2,1.52-13,.79-16.88A51,51,0,0,0,149.17,60c-1.53-3.81-3.11-7.75-3.11-10,0-1.63.32-5.53.65-9.66.42-5.14.93-11.54.68-12.24-.46-1.28-2.75-9.44-2.19-15.45-1.55-.21-6.84-1.05-7.88-2.88-1-1.67-1.31-4.82-1.4-5.87l-9.21-.12c.29,1.25.76,4.56-1.64,6.24s-6.13,2.33-7.26,2.5c0,1.67,0,9-1,12.26-.9,2.93-.69,9.57-.59,12.77,0,.66,0,1.17,0,1.45s0,.5,0,.92c.06,5.67,0,13.47-.86,15.72C114,59.17,111.62,66,111.62,69Z"/><path class="cls-4" d="M115.8,181.37q-2.25-.13-4.5-.24c-13-.58-26.15,1.14-39.22.84q-17-.37-33.88-2c-5.49-.52-19.7.4-22.94-5.35-3.89-6.92,9.09-12.29,13.61-14.08,7.87-3.11,15.53-5.87,22.87-10.21,17.31-10.25,32-25.26,41.17-43.24a406.46,406.46,0,0,0,17.21-37.78c1.47-3.83,3.7-8.43,3.7-12.62,0-10.64-1-38.67-1-41.4a.59.59,0,0,1,.06-.32c1.12-1.82,4.92-2.52,6.15-2.84,2.53-.66,4.63-1.07,6.74.79a13,13,0,0,0,1.91,1.56c2.52,1.47,6.68,1.14,9.24-.06,1.29-.6,1.87-1.59,3.06-2.3,1.58-.94,1.64-1,3.12-.51l1.62.55,2.9,1a3.66,3.66,0,0,1,2,1.49c1.23,2.32.79,4.19.75,6.72-.18,12.57-1.1,25.2.57,37.72.89,6.66,3.07,13.37,4.58,20,3.56,15.55,7,31.15,9.92,46.82,1.89,10,3.69,20,4.77,30.14.53,5,3,13.31-1.05,17.49a10.65,10.65,0,0,1-4.62,2.42C148.63,181.08,132.43,182.34,115.8,181.37Z"/><path class="cls-3" d="M75.18,183c-1.05,0-2.09,0-3.13,0-11.28-.26-22.71-.93-33.95-2-1.05-.1-2.44-.15-4.05-.2-7.08-.23-16.78-.55-19.66-5.66a5.92,5.92,0,0,1-.49-5c1.3-3.66,6.08-7.07,14.6-10.44l3.18-1.25c6.83-2.66,13.28-5.18,19.56-8.9,17.54-10.38,32-25.59,40.78-42.83A392.69,392.69,0,0,0,109.19,69c.26-.69.56-1.41.85-2.14,1.31-3.22,2.79-6.88,2.79-10.12,0-6.76-.39-20.43-.68-30.42-.17-5.79-.29-10-.28-11a1.49,1.49,0,0,1,.21-.83c1.2-2,4.47-2.74,6.23-3.16l.51-.12c2.24-.59,5-1.31,7.65,1l.43.39a8.32,8.32,0,0,0,1.32,1.05c2.24,1.3,6.06,1,8.32-.1A5.89,5.89,0,0,0,138,12.47a8.81,8.81,0,0,1,1.5-1.18c1.78-1.07,2.15-1.18,3.94-.6l1.63.55,1.29.44,1.61.56a4.65,4.65,0,0,1,2.55,2,10,10,0,0,1,.92,5.73c0,.47,0,.95-.06,1.46,0,2.79-.11,5.58-.19,8.37-.26,9.6-.54,19.54.76,29.2a110.32,110.32,0,0,0,2.9,13.24c.56,2.18,1.15,4.44,1.66,6.64,4.17,18.19,7.32,33.08,9.93,46.87,1.72,9.13,3.66,19.75,4.78,30.21.1.92.27,2,.45,3.11.81,5.09,1.82,11.44-1.77,15.18a11.6,11.6,0,0,1-5,2.68c-14.76,4.74-30.83,6.53-49.14,5.46h0l-4.48-.24c-6.9-.3-14,0-20.82.38C85.44,182.75,80.29,183,75.18,183ZM113.85,15.39c0,1.19.13,5.47.28,10.85.29,10,.69,23.68.69,30.47,0,3.63-1.56,7.47-2.94,10.86-.29.73-.58,1.43-.84,2.11a394,394,0,0,1-17.25,37.88c-8.93,17.57-23.68,33.07-41.54,43.64-6.42,3.8-12.94,6.35-19.85,9l-3.17,1.24c-7.85,3.1-12.38,6.22-13.46,9.27a3.93,3.93,0,0,0,.35,3.4c2.33,4.13,11.76,4.44,18,4.64,1.65.06,3.07.1,4.18.21,11.2,1.06,22.57,1.73,33.81,2,6.06.14,12.25-.17,18.24-.46,6.89-.34,14-.69,21-.38l4.51.24c18,1.05,33.89-.7,48.41-5.37a9.71,9.71,0,0,0,4.2-2.17c2.91-3,2-8.83,1.24-13.49-.18-1.15-.35-2.24-.45-3.21-1.12-10.39-3-21-4.76-30-2.61-13.76-5.76-28.63-9.92-46.79-.5-2.18-1.08-4.42-1.65-6.58A113.68,113.68,0,0,1,150,59.24c-1.31-9.83-1-19.84-.78-29.53.08-2.78.16-5.56.2-8.34,0-.53,0-1,.05-1.53a8.09,8.09,0,0,0-.69-4.7,2.69,2.69,0,0,0-1.43-1l-1.62-.56-1.28-.44c-.53-.19-1.07-.37-1.61-.54-1-.34-1-.34-2.28.4a7.69,7.69,0,0,0-1.21.95,7.49,7.49,0,0,1-2,1.41c-2.74,1.28-7.23,1.73-10.17,0a9.6,9.6,0,0,1-1.66-1.31l-.4-.37c-1.71-1.51-3.35-1.22-5.84-.57l-.55.13C117.54,13.54,114.73,14.21,113.85,15.39Zm-.08.11h0Z"/><path class="cls-3" d="M85,120.27s-19.51,34.66-22.74,38.14"/><path class="cls-3" d="M62.21,159.4a1,1,0,0,1-.73-1.66c2.5-2.69,15.87-26,22.6-37.95a1,1,0,0,1,1.73,1c-.8,1.42-19.6,34.8-22.87,38.33A1,1,0,0,1,62.21,159.4Z"/><path class="cls-1" d="M105.36,55.27c-.2,2.22-1.37,15.78-1.9,18s-3.21,7.08-3.35,10.39,1.75,7.06,3.8,8,4.32.29,2.92-1-3.52-3.37-3.27-4.77v0a1.28,1.28,0,0,1,2.47-.06,10.54,10.54,0,0,0,1,2.38c.73,1,2.08,1.52,1.95-.67s-.31-7.83-.51-11.13,3.6-17.29,4.06-20.62Z"/><path class="cls-3" d="M105.86,92.55a4.89,4.89,0,0,1-2.11-.5c-2.27-1.08-4.14-5-4-8.38.09-2.19,1.25-5,2.19-7.28a25.26,25.26,0,0,0,1.17-3.18c.32-1.35.93-7.14,1.82-17.22l.07-.75c.19-2.16-.21-19.85-.48-29.95-.2-7.57,5.19-10.41,8.43-11.43a.52.52,0,0,1,.51.1c.42.35.33,1.38,0,3.5a11.81,11.81,0,0,0-.16,1.56h0c.63,7.43.54,8.58.44,9.92,0,.47-.07.95-.08,1.75,0,2.35-.34,21.81-.81,25.17-.17,1.22-.77,3.83-1.47,6.84-1.21,5.2-2.71,11.67-2.59,13.71.11,1.81.22,4.36.31,6.6.07,1.85.14,3.54.2,4.53.08,1.32-.37,1.76-.75,1.9-.66.22-1.42-.34-1.88-1a10.64,10.64,0,0,1-1-2.47.91.91,0,0,0-1-.65.81.81,0,0,0-.78.67c-.24,1.33,2.3,3.68,3.14,4.45s.55,1.29.4,1.5A1.94,1.94,0,0,1,105.86,92.55ZM113,14.63c-3,1-7.91,3.7-7.73,10.64.08,2.79.72,27.33.48,30l-.07.75c-.33,3.77-1.34,15.24-1.83,17.32a25.64,25.64,0,0,1-1.22,3.29c-.91,2.22-2,5-2.12,7-.14,3.35,1.78,6.82,3.58,7.68,1.33.64,2.59.45,2.8.14.08-.12-.1-.35-.29-.53-1.72-1.58-3.65-3.59-3.38-5.1a1.56,1.56,0,0,1,1.48-1.31,1.63,1.63,0,0,1,1.71,1.16,9.41,9.41,0,0,0,.93,2.28c.35.5.81.78,1,.71s.3-.43.26-1.15c-.06-1-.13-2.68-.21-4.54-.09-2.24-.19-4.78-.3-6.58-.13-2.16,1.39-8.68,2.6-13.93.7-3,1.3-5.58,1.46-6.77.47-3.33.79-22.73.81-25.07,0-.82,0-1.32.08-1.8.09-1.31.18-2.44-.45-9.81h0a11.22,11.22,0,0,1,.17-1.72A16.14,16.14,0,0,0,113,14.63Z"/><path class="cls-3" d="M114.83,57.68h-2c0-6.9-.39-20.86-.68-31.06-.17-5.92-.29-10.2-.28-11.23a1.53,1.53,0,0,1,.21-.84c1.19-2,4.47-2.8,6.23-3.23l.51-.12.52,1.94-.56.13c-1.22.3-4,1-4.91,2.2,0,1.21.13,5.59.28,11.09C114.43,36.77,114.83,50.76,114.83,57.68Zm-1-42.1h0Z"/></svg>