<svg id="图层_1" data-name="图层 1" xmlns="http://www.w3.org/2000/svg" viewBox="0 0 186 186"><defs><style>.cls-1{fill:#fff;}.cls-2{fill:#f3e1e7;}.cls-3{fill:#5b3b2f;}.cls-4{fill:#f9e6ed;}</style></defs><path class="cls-1" d="M120.71,12.24c3.34.93,8.76,1.62,8.29,11.39s-1.25,27.44-1.14,29.63.73,15.59,1.11,17.8,2.47,7,2.49,10.28-1.61,7-3.32,7.92-3.56.28-2.38-1,3-3.32,2.81-4.7a3.79,3.79,0,0,0-1.46-2.29,25.79,25.79,0,0,1-1.44,4.53c-.62,1-1.74,1.5-1.58-.67s.45-7.73.69-11S122.25,57.06,122,53.77s.34-22.6,0-24.81S116.68,11.11,120.71,12.24Z"/><path class="cls-1" d="M101.45,3.38s1.36,4.35-1.36,6.25-7.34,2.44-7.34,2.44.18,8.76-.93,12.33S91.26,37,91.26,38.58s.27,13.59-.82,16.31-3.8,10-3.8,13.32V84h39.68s1.63-12.77.82-17.12-5.71-13.59-5.71-17.4S123.2,29,122.72,27.67s-2.79-9.62-2.11-15.46c0,0-6.79-.82-7.88-2.72s-1.36-6-1.36-6Z"/><path class="cls-1" d="M89,17c-.06-.81.79-3.37,0-3.13-2.86.9-8.81,3.68-8.61,11.12.26,9.79.67,27.46.47,29.65s-1.35,15.61-1.88,17.81-3.18,7-3.31,10.28,1.73,7,3.75,7.94,4.28.29,2.89-1S78.8,86.39,79,85v0a1.27,1.27,0,0,1,2.44,0,10.84,10.84,0,0,0,1,2.34c.72,1,2.06,1.51,1.93-.66s-.31-7.74-.5-11,3.55-17.09,4-20.39.15-22.64.8-24.83C89.6,27.34,89.8,27,89,17Z"/><path class="cls-2" d="M86.64,84s3.26,20.35,3.8,24.26a99.52,99.52,0,0,1,1.09,18.52c-.27,8.87-.54,16.7.54,20.61a49.87,49.87,0,0,1,1.63,12.78c0,4.18.55,8.09,0,9.92s-3.53,4.17-3,6.52,9.79,3.65,10.6.78.82-9.39.82-10.69-1.36-6.53-1.09-10.18,1.63-10.43,1.91-15.39-1.09-12-.82-13.56,1.63-3.13,1.63-7.05.27-16.43.54-23.48.55-13,.55-13Z"/><path class="cls-2" d="M126.32,84s-3.26,20.35-3.8,24.26a99.52,99.52,0,0,0-1.09,18.52c.27,8.87.54,16.7-.54,20.61a49.87,49.87,0,0,0-1.64,12.78c0,4.18-.54,8.09,0,9.92s3.54,4.17,3,6.52-9.78,3.65-10.6.78-.81-9.39-.81-10.69,1.36-6.53,1.09-10.18-1.64-10.43-1.91-15.39,1.09-12,.82-13.56-1.63-3.13-1.63-7.05-.27-16.43-.55-23.48-.54-13-.54-13Z"/><path class="cls-3" d="M126.53,90.09a1.64,1.64,0,0,1-1.32-.51c-.12-.16-.48-.75.28-1.57s2.87-3.08,2.71-4.39a3,3,0,0,0-.88-1.65A20.48,20.48,0,0,1,126,86c-.35.59-1,1.22-1.61,1s-.74-.81-.66-1.91.17-2.64.28-4.47c.13-2.24.28-4.73.41-6.51.15-2-.92-8.43-1.78-13.58-.5-3-.93-5.54-1-6.75-.15-1.59-.08-6.7,0-12.1.08-5.68.16-11.56,0-12.68-.06-.39-.29-1.26-.57-2.36-1.59-6.19-3.16-12.92-1.56-14.49a1.35,1.35,0,0,1,1.39-.29h0l.72.2c3.3.86,8.29,2.17,7.84,11.57-.47,10-1.25,27.44-1.14,29.59l0,.69c.48,10,.84,15.73,1.07,17.07a31.51,31.51,0,0,0,.89,3.15,27.84,27.84,0,0,1,1.62,7.18c0,3.33-1.62,7.19-3.52,8.26A3.77,3.77,0,0,1,126.53,90.09Zm.58-9.18a.33.33,0,0,1,.21.07,4.09,4.09,0,0,1,1.62,2.55c.18,1.46-1.46,3.44-2.91,5-.09.1-.37.43-.23.6s1.11.41,2.16-.18c1.47-.83,3.16-4.33,3.13-7.6a26.64,26.64,0,0,0-1.58-7,28.76,28.76,0,0,1-.91-3.26c-.35-2.06-.9-13.42-1.08-17.16l0-.68c-.1-2.18.67-19.67,1.15-29.66.42-8.8-4-10-7.29-10.82l-.73-.2h0a.61.61,0,0,0-.66.1c-1.43,1.4.8,10.08,1.75,13.78.3,1.16.51,2,.59,2.42.2,1.19.12,6.83,0,12.81-.07,5.15-.14,10.47,0,12,.1,1.17.53,3.73,1,6.69.87,5.18,2,11.63,1.79,13.75-.13,1.79-.28,4.27-.41,6.5-.11,1.84-.21,3.51-.28,4.49s.15,1.14.15,1.14.42-.16.74-.69a24.18,24.18,0,0,0,1.39-4.42.41.41,0,0,1,.23-.27Z"/><path class="cls-3" d="M126.32,84.34H86.64a.37.37,0,0,1-.38-.37V68.21c0-3.78,3.44-12.48,3.84-13.46.93-2.35.83-12.07.79-15.26v-.91c0-.28,0-.77,0-1.42-.11-3.2-.32-9.85.62-12.87,1.07-3.47.91-12.12.91-12.21a.39.39,0,0,1,.33-.38s4.56-.55,7.17-2.38,1.23-5.79,1.22-5.83a.37.37,0,0,1,.05-.34.32.32,0,0,1,.31-.15l9.92.14a.36.36,0,0,1,.36.35s.28,4,1.31,5.82c.82,1.42,5.77,2.31,7.61,2.53a.37.37,0,0,1,.32.41c-.67,5.83,1.64,14,2.09,15.3.28.79,0,5.21-.63,12.41-.33,4.06-.64,7.9-.64,9.49,0,2.07,1.54,5.89,3,9.59a49.79,49.79,0,0,1,2.68,7.74c.82,4.35-.74,16.71-.81,17.24A.37.37,0,0,1,126.32,84.34ZM87,83.6h39c.25-2,1.51-12.83.78-16.69a49.51,49.51,0,0,0-2.64-7.59c-1.51-3.77-3.07-7.66-3.07-9.87,0-1.62.31-5.47.64-9.55.41-5.08.92-11.41.67-12.1-.45-1.27-2.72-9.33-2.16-15.27-1.55-.21-6.77-1-7.8-2.85A17.24,17.24,0,0,1,111,3.88l-9.1-.12c.29,1.24.75,4.51-1.63,6.17s-6,2.3-7.17,2.47c0,1.66.05,8.88-.95,12.11-.9,2.9-.69,9.47-.59,12.63,0,.65,0,1.15,0,1.44s0,.49,0,.9c.06,5.61,0,13.32-.85,15.54C89.38,58.53,87,65.26,87,68.21Z"/><path class="cls-3" d="M51,172.72a1,1,0,0,1-.78-.37,1,1,0,0,1,.16-1.39c5-4,8.89-17.64,8.93-17.78a1,1,0,0,1,1.91.54c-.17.59-4.16,14.43-9.6,18.78A1,1,0,0,1,51,172.72Z"/><path class="cls-4" d="M123.57,54.09c6.74,11.32,11.64,24,16.8,36.12q8.2,19.28,14.59,39.28a198.6,198.6,0,0,1,5.84,21.71c1.94,9.84,4.21,23-7.65,27.35-3.51,1.3-7.31,1.49-11.05,1.55-4.55.07-9,.42-13.54.92-8.86,1-35.43,1-43.31,1s-13.78-1-18.7-1c-12.66,0-25.12,1-37.82.53a6.88,6.88,0,0,1-3.09-.59,4.3,4.3,0,0,1-2-4.1c.21-2.61,2.24-5,4.37-6.41,4.67-3,10-4.64,15.37-6.13,4.91-1.38,10.56-2.2,14.29-5.93,4.93-4.92,31.5-92.28,31.5-101.32,0-10.74-1-39-1-41.81a.64.64,0,0,1,.07-.33c1.1-1.83,4.86-2.54,6.07-2.86,2.5-.67,4.59-1.09,6.67.8a12.23,12.23,0,0,0,1.88,1.57c2.5,1.48,6.61,1.16,9.15-.06,1.27-.61,1.84-1.6,3-2.32,1.56-1,1.63-1,3.09-.52l1.6.55,2.87,1a3.7,3.7,0,0,1,2,1.52c1.21,2.33.77,4.23.74,6.77q-.06,4.38-.28,8.76c-.15,3.16-.35,6.32-.53,9.48C124.54,39.63,123.08,53.27,123.57,54.09Z"/><path class="cls-3" d="M85.25,183c-4.43,0-8.24-.31-11.6-.58-2.66-.22-5-.4-7.1-.4-5.14,0-10.35.16-15.38.32-7.33.23-14.92.47-22.47.2a7.67,7.67,0,0,1-3.53-.71,5.27,5.27,0,0,1-2.5-5.05c.25-3.14,2.65-5.76,4.81-7.17,4.67-3,9.85-4.62,15.65-6.25.89-.25,1.8-.48,2.73-.71,4.06-1,8.27-2.1,11.13-5C61.37,153.31,88.2,66.8,88.2,57.07c0-6.82-.4-20.62-.68-30.7-.17-5.86-.29-10.1-.28-11.12a1.5,1.5,0,0,1,.21-.83c1.18-2,4.42-2.76,6.16-3.19l.51-.12c2.22-.59,5-1.33,7.59,1l.42.39a8.37,8.37,0,0,0,1.3,1.07c2.21,1.31,6,1,8.21-.1a5.76,5.76,0,0,0,1.44-1.09,9,9,0,0,1,1.48-1.19c1.78-1.08,2.15-1.2,3.92-.61l1.62.56,1.32.46,1.54.55a4,4,0,0,1,2.53,2,16.22,16.22,0,0,1,.9,5.78c0,.47,0,1,0,1.47,0,3-.14,6-.27,8.79-.11,2.13-.24,4.25-.36,6.38l-.18,3.11c-.65,6.1-1.2,12.87-1,14,5.59,9.42,10,19.82,14.16,29.88.88,2.09,1.75,4.18,2.63,6.25,5.47,12.84,10.39,26.08,14.63,39.37A199.86,199.86,0,0,1,161.77,151c1.75,8.86,4.68,23.7-8.27,28.47a34.19,34.19,0,0,1-11.38,1.61c-4.1.07-8.5.37-13.45.92C122.75,182.67,108.15,183,85.25,183Zm-18.7-3c2.21,0,4.55.19,7.26.41,3.32.27,7.09.58,11.44.58,22.82,0,37.36-.33,43.2-1,5-.56,9.48-.86,13.63-.93a32.69,32.69,0,0,0,10.73-1.49c10.49-3.86,9.22-15.07,7-26.23a199.56,199.56,0,0,0-5.8-21.6c-4.22-13.22-9.12-26.41-14.57-39.19-.88-2.08-1.75-4.17-2.63-6.27-4.2-10-8.55-20.41-14.1-29.73h0c-.18-.3-.66-1.1.83-15.07l.18-3.07c.12-2.12.25-4.24.35-6.36.14-2.78.23-5.72.27-8.72,0-.54,0-1.05.06-1.54a8.36,8.36,0,0,0-.68-4.76,2.73,2.73,0,0,0-1.42-1l-1.55-.55L119.45,13c-.53-.18-1.06-.37-1.6-.54-1-.34-1-.34-2.22.4a7.12,7.12,0,0,0-1.2,1,7.51,7.51,0,0,1-1.94,1.43c-2.71,1.3-7.16,1.75-10.07,0A9.19,9.19,0,0,1,100.77,14l-.39-.37c-1.69-1.52-3.3-1.23-5.75-.57l-.55.13c-1.21.3-4,1-4.85,2.17,0,1.2.12,5.53.27,11,.29,10.09.68,23.91.68,30.76,0,8.06-26,96.27-31.78,102-3.26,3.25-7.73,4.39-12.06,5.48-.9.23-1.8.46-2.67.7-5.64,1.58-10.67,3.12-15.1,6-1.69,1.09-3.72,3.23-3.92,5.66a3.33,3.33,0,0,0,1.47,3.15,6.22,6.22,0,0,0,2.65.47c7.48.26,15,0,22.34-.21C56.16,180.19,61.37,180,66.55,180ZM89.15,15.44Z"/><path class="cls-1" d="M78.94,72.49c-.52,2.21-3.18,7-3.31,10.28s1.73,7,3.75,7.94,4.28.29,2.89-1S78.8,86.39,79,85v0a1.27,1.27,0,0,1,2.44,0,10.84,10.84,0,0,0,1,2.34c.72,1,2.06,1.51,1.93-.66s-.31-7.74-.5-11Z"/><path class="cls-3" d="M81.31,91.54a5,5,0,0,1-2.09-.49c-2.24-1.07-4.09-5-4-8.29.09-2.16,1.24-5,2.16-7.2a24.27,24.27,0,0,0,1.16-3.15c.32-1.34.93-7.08,1.81-17.07l.06-.69C80.64,52.49,80.24,35,80,25c-.2-7.78,5.73-10.62,8.47-11.48a.55.55,0,0,1,.57.1c.36.31.26,1,0,2.15a6.86,6.86,0,0,0-.15,1.2h0c.83,9.79.65,10.39-.21,13.26l-.07.22c-.34,1.15,0,7.74-.06,13.55,0,5-.1,9.71-.31,11.22-.17,1.21-.77,3.79-1.46,6.77-1.19,5.14-2.67,11.53-2.55,13.55.11,1.8.21,4.33.3,6.56.07,1.82.14,3.47.2,4.44.08,1.31-.36,1.75-.75,1.88-.65.23-1.41-.33-1.86-1a10.55,10.55,0,0,1-1-2.44.91.91,0,0,0-.94-.63.77.77,0,0,0-.77.65c-.24,1.32,2.28,3.64,3.1,4.4s.54,1.28.4,1.49A1.91,1.91,0,0,1,81.31,91.54Zm7.2-77.23c-3.22,1-8,3.82-7.79,10.71.27,10,.67,27.5.47,29.7l-.06.69c-.33,3.73-1.34,15.1-1.82,17.17a25.88,25.88,0,0,1-1.2,3.26c-.9,2.19-2,4.92-2.1,6.94-.14,3.32,1.76,6.75,3.54,7.6,1.31.63,2.55.44,2.76.14.08-.12-.11-.36-.29-.52-1.7-1.57-3.61-3.55-3.34-5a1.54,1.54,0,0,1,1.47-1.3,1.65,1.65,0,0,1,1.69,1.15,9.09,9.09,0,0,0,.92,2.25c.34.5.81.77,1,.71s.29-.33.24-1.14c0-1-.12-2.63-.19-4.45-.09-2.23-.2-4.75-.3-6.55-.13-2.12,1.3-8.3,2.57-13.76.68-3,1.28-5.52,1.44-6.7.21-1.46.25-6.16.31-11.13.06-6.43-.28-12.5.09-13.75l.07-.22c.85-2.83,1-3.34.18-13a6.14,6.14,0,0,1,.16-1.39A8.34,8.34,0,0,0,88.51,14.31Z"/><path class="cls-3" d="M90.18,57.07h-2c0-6.82-.4-20.62-.68-30.7-.17-5.86-.29-10.1-.28-11.12a1.5,1.5,0,0,1,.21-.83c1.18-2,4.42-2.76,6.16-3.19l.51-.12L94.63,13l-.55.13c-1.21.3-4,1-4.85,2.17,0,1.2.12,5.53.27,11C89.79,36.4,90.18,50.22,90.18,57.07Zm-1-41.63Z"/><path class="cls-3" d="M53.81,169.27a.93.93,0,0,1-.57-.19A1,1,0,0,1,53,167.7c1-1.45,6-13.66,9-21.51a1,1,0,0,1,1.28-.56,1,1,0,0,1,.57,1.29c-.79,2-7.76,19.81-9.27,21.93A1,1,0,0,1,53.81,169.27Z"/></svg>