<svg id="图层_1" data-name="图层 1" xmlns="http://www.w3.org/2000/svg" viewBox="0 0 186 186"><defs><style>.cls-1{fill:#f9e6ed;}.cls-2{fill:#5b3b2f;}.cls-3{fill:#fff;}</style></defs><path class="cls-1" d="M124,57.06S63.5,124.6,11.94,157c-34.67,21.78,64.66,15.4,84.58,14.49,37.28-1.7,69.84-.26,73.93-7.24,5.11-8.74-2.13-79-19.39-110.79C145.94,44,124,57.06,124,57.06Z"/><path class="cls-2" d="M48.72,174c-29,0-43.18-2.6-44.88-8-.91-2.87,1.57-6.1,7.57-9.87C62.25,124.2,122.66,57.07,123.26,56.4l.23-.19c.63-.38,15.46-9.1,23.86-6.79A7.21,7.21,0,0,1,151.94,53c17.21,31.67,25,102.21,19.37,111.77-3.36,5.73-22.17,6.21-48.2,6.87-8.5.22-17.29.44-26.55.87-1.27.05-2.87.14-4.74.23C74.88,173.55,60.56,174,48.72,174ZM124.64,57.84c-2.89,3.21-62.1,68.53-112.17,100-4.91,3.08-7.3,5.77-6.73,7.58.69,2.2,6.21,6,35.35,6.56,18.5.36,39.4-.69,50.63-1.26l4.75-.23c9.28-.43,18.08-.65,26.59-.87,23.47-.6,43.74-1.11,46.53-5.89,4.7-8-2-77.76-19.41-109.8a5.08,5.08,0,0,0-3.36-2.57C139.61,49.36,126.1,57,124.64,57.84Z"/><path class="cls-2" d="M103.85,91.18q-7.27,11-15.39,21.36T71.63,132.82a237.81,237.81,0,0,1-18.55,18.75,118.75,118.75,0,0,1-10.28,8.3,56.56,56.56,0,0,1-11.48,6.49,63.37,63.37,0,0,0,10.89-7.27c3.42-2.71,6.64-5.66,9.81-8.66s6.25-6.11,9.24-9.29,6-6.37,8.89-9.65C76,125,81.64,118.3,87.25,111.57S98.38,98,103.85,91.18Z"/><path class="cls-2" d="M111.65,96.84c-.25,5.46-.78,10.91-1.52,16.32s-1.67,10.81-2.81,16.17A141.42,141.42,0,0,1,103,145.19a68.93,68.93,0,0,1-3.11,7.63,31.54,31.54,0,0,1-4.43,6.93A36.74,36.74,0,0,0,99,152.44c1-2.53,1.77-5.12,2.52-7.72,1.49-5.22,2.74-10.5,3.87-15.81s2.19-10.65,3.23-16Z"/><path class="cls-2" d="M139.47,164.24l-1.92-.5c4.23-16.31-10.11-63.13-10.25-63.61l1.9-.58C129.8,101.49,143.85,147.39,139.47,164.24Z"/><path class="cls-2" d="M147.85,81.73c2.1,6.28,3.91,12.65,5.48,19.07s2.93,12.91,4,19.44A172.2,172.2,0,0,1,159.65,140a85,85,0,0,1,0,10,39.84,39.84,0,0,1-1.75,9.78,46.18,46.18,0,0,0,.77-9.81c0-3.28-.25-6.56-.55-9.83s-.68-6.53-1.17-9.79-.94-6.51-1.51-9.75c-1.07-6.49-2.33-13-3.6-19.43Z"/><path class="cls-3" d="M122.94,3.37s.21,7.89-1.49,10.66-7.89,7-8.31,9.8,11.5,21.94,11.29,26.41S115.37,106.6,114.1,113s-2.35,12.57-7.67,20.24-10,28.33-12.36,30.68-9.16,9.16-8.1,12.57,4.26,9,7.89,4.47A43.64,43.64,0,0,0,102,167.32a140.12,140.12,0,0,1,11.41-22.6c4.57-7.23,6.49-11.92,9-14.9S135.23,97.51,137.23,93s-5,19.78-4.6,23.4a34.83,34.83,0,0,1-.64,12.14c-1.06,5.33,5.33,33.45,4.9,34.94s-1.58,7.47.7,7.79,14,.73,18.9,2,13,.64,6.18-2.55-15.76-5.12-17.26-18.11-1.91-24.93-.42-28.77,2.13-10,2.77-11.93S153.08,87,153.08,87s.68-37.11.45-40.08S149.89,18,147.76,16.69s-10.87-4.47-11.51-5.11-.74-8.21-.74-8.21Z"/><path class="cls-2" d="M91.09,183a3.17,3.17,0,0,1-.53-.05c-2.48-.48-4.28-4.22-4.94-6.36-1-3.25,4.18-8.94,8.18-13,1-.94,2.4-5.36,4.08-10.48,2.3-7,5.16-15.71,8.24-20.14,5.06-7.29,6.22-13.13,7.45-19.31l.16-.79c1.32-6.59,10.12-58.37,10.33-62.69.1-2.31-3.33-9-6.35-15-3.2-6.26-5.15-10.17-4.94-11.5.27-1.76,2.56-3.95,4.77-6.06a24.85,24.85,0,0,0,3.59-3.88c1.63-2.64,1.44-10.37,1.43-10.45a.38.38,0,0,1,.38-.38h12.57a.37.37,0,0,1,.37.37c.05,3.55.31,7.49.65,8a49.79,49.79,0,0,0,4.93,2.17A67.91,67.91,0,0,1,148,16.37c2.46,1.47,5.84,29.07,6,30.52.23,3-.42,38.6-.44,40.11-.2,1-4.71,23.12-5.35,25a34.54,34.54,0,0,0-.75,3.58,49.4,49.4,0,0,1-2,8.37c-1.35,3.47-1.18,14.42.44,28.58,1.27,11.06,7.86,13.86,14.23,16.58,1,.41,1.91.81,2.82,1.24,2.19,1,3.07,1.88,2.78,2.7-.56,1.54-6,1.4-9.21.55-3.46-.9-10.34-1.37-14.9-1.69-1.84-.12-3.29-.22-4-.31a1.63,1.63,0,0,1-1.14-.75c-1.16-1.78-.19-6.38.13-7.51.12-.55-.72-5.08-1.6-9.88-1.69-9.12-4-21.6-3.31-25a34.11,34.11,0,0,0,.64-12c-.24-2,1.72-10.08,3.3-16.53.39-1.56.77-3.15,1.08-4.45-.77,2-1.84,4.84-3,8-3.87,10.37-9.16,24.56-10.94,26.63a42,42,0,0,0-4.25,6.74c-1.29,2.32-2.76,4.95-4.77,8.12a141,141,0,0,0-11.37,22.53c-2.11,5.71-4.4,9.11-8.15,13.74A4.1,4.1,0,0,1,91.09,183ZM123.32,3.75c0,1.64,0,8-1.56,10.47a24.71,24.71,0,0,1-3.7,4c-2,1.93-4.32,4.12-4.55,5.63-.18,1.16,2.38,6.19,4.86,11.05,3.22,6.31,6.55,12.83,6.43,15.33-.22,4.68-9.12,56.71-10.34,62.8l-.16.79c-1.24,6.26-2.42,12.18-7.57,19.59-3,4.34-5.86,13-8.14,19.95-1.78,5.43-3.19,9.72-4.26,10.78-6,6-8.66,10.08-8,12.2.8,2.56,2.51,5.49,4.37,5.85,1,.18,1.91-.33,2.87-1.5,3.69-4.57,6-7.92,8-13.53A139.84,139.84,0,0,1,113,144.52c2-3.15,3.46-5.77,4.75-8.08a42.57,42.57,0,0,1,4.33-6.86c1.69-2,7.18-16.68,10.81-26.41,1.85-5,3.31-8.87,4-10.32.2-.46.4-.89.79-.76s.52.18-1.39,8c-1.48,6-3.51,14.35-3.29,16.26a35.45,35.45,0,0,1-.64,12.26c-.66,3.29,1.63,15.7,3.3,24.75,1.29,7,1.76,9.64,1.59,10.22-.38,1.35-1.15,5.48-.22,6.9a.86.86,0,0,0,.61.42c.65.08,2.09.18,3.91.31,4.58.31,11.51.79,15,1.71,3.76,1,8,.65,8.32-.09,0,0,.17-.56-2.4-1.77-.9-.42-1.84-.82-2.79-1.23-6.26-2.66-13.36-5.69-14.68-17.17-1.66-14.49-1.81-25.31-.4-28.94a48,48,0,0,0,2-8.23,34,34,0,0,1,.78-3.68c.63-1.88,5.27-24.66,5.32-24.89s.66-37.06.43-40c-.38-5-3.82-28.88-5.58-29.94a68.31,68.31,0,0,0-6.4-2.82c-3.35-1.38-4.85-2-5.18-2.35-.64-.64-.81-5.61-.85-8.09Z"/><path class="cls-1" d="M119.36,17.35a2.11,2.11,0,0,0-2.59,1.07,22.84,22.84,0,0,1-3,4.85.24.24,0,0,0,.13.4,7.28,7.28,0,0,1,2.93,1.65c2.17,1.81,4.78,9.48,7,14.17a90,90,0,0,1,4.54,12,200.77,200.77,0,0,0-32.87,49.05,2.94,2.94,0,0,0,2.66,4.21c3.69,0,8.48,0,10,.13,2.56.22,1.45,1.77,2.56,2.77,2.23,2,17.25,2.77,26.63.85s5.75-2.76,12.78-3.4,11.08-1.28,10.87-3.2-.86-1.28,1.91-1.7,15.77-1.71,17.9-5.54c0,0,1.28,1.39,0-3.46s-3-21-26.31-43.95c0,0-3.85-23.78-6.42-29.94a1.77,1.77,0,0,0-.88-.91l-4.83-2.26a1.26,1.26,0,0,0-1.74.7c-.49,1.5-2.24,3.69-8.18,4C125.54,19.14,121.63,18.14,119.36,17.35Z"/><path class="cls-2" d="M124.42,110.63c-6.69,0-12.82-.79-14.4-2.23a3.15,3.15,0,0,1-.92-1.75c-.14-.6-.16-.69-1-.76-1.16-.1-4.59-.14-9.9-.13h0a3.95,3.95,0,0,1-3.55-5.64,201.16,201.16,0,0,1,32-48.07l.71-.79a104.06,104.06,0,0,0-4.36-11.35c-.67-1.41-1.35-3-2.07-4.77-1.56-3.72-3.32-7.94-4.66-9.06a6.3,6.3,0,0,0-2.51-1.44,1.23,1.23,0,0,1-.63-2.05A21.45,21.45,0,0,0,115.88,18a3.12,3.12,0,0,1,3.81-1.57h0a33.83,33.83,0,0,0,12.68,1.41c4.06-.18,6.65-1.35,7.29-3.28a2.18,2.18,0,0,1,1.22-1.32,2.28,2.28,0,0,1,1.88,0l4.83,2.26A2.75,2.75,0,0,1,149,16.94c2.45,5.87,5.94,26.85,6.43,29.84,21.13,20.83,24.51,36,26,42.54.14.64.27,1.19.38,1.63.82,3.12.81,4.27-.08,4.76a1.29,1.29,0,0,1-.5.14c-2.52,2.89-9.86,4.23-16.84,5.16l-1.28.18c-.47.07-.85.12-1.15.14,0,.14.05.3.07.47a2.19,2.19,0,0,1-.49,1.63c-1.23,1.51-4.62,2.06-11.28,2.67-3.41.31-4.14.65-5.24,1.16a28.68,28.68,0,0,1-7.43,2.23A68.72,68.72,0,0,1,124.42,110.63Zm-24.54-6.87c3.37,0,7,0,8.33.14,2.15.18,2.59,1.28,2.83,2.29a1.31,1.31,0,0,0,.31.73c1.8,1.63,16.35,2.54,25.77.62a27.05,27.05,0,0,0,7-2.08c1.25-.58,2.16-1,5.91-1.35,3.15-.28,9-.81,9.92-1.94a.21.21,0,0,0,0-.15,7.6,7.6,0,0,0-.14-.81,1.43,1.43,0,0,1,.14-1.27c.33-.46.82-.5,1.39-.56a13.69,13.69,0,0,0,1.36-.16l1.32-.18c3.52-.47,14.21-1.89,15.86-4.86l.37-.66c-.07-.44-.21-1.1-.46-2.06-.13-.47-.25-1-.4-1.71C178,83.39,174.69,68.5,153.77,48l-.23-.23,0-.32c0-.24-3.86-23.74-6.36-29.71a.72.72,0,0,0-.38-.39l-4.84-2.27a.28.28,0,0,0-.25,0,.17.17,0,0,0-.11.11c-.65,2-2.75,4.36-9.09,4.65A35.7,35.7,0,0,1,119,18.29a1.11,1.11,0,0,0-1.36.57,31,31,0,0,1-2.45,4.22,10.77,10.77,0,0,1,2.25,1.47c1.71,1.43,3.41,5.51,5.22,9.83.71,1.7,1.38,3.31,2,4.68,2,4.23,4.63,11.62,4.63,12.44,0,.44,0,.49-1.3,1.88A199.51,199.51,0,0,0,96.39,101a1.95,1.95,0,0,0,1.75,2.79h1.74Zm14.23-81.07h0Z"/><path class="cls-3" d="M113.11,24.46A4.24,4.24,0,0,0,110.42,28c-.29,2.89-.3,7.84,2.08,12,3.62,6.39,7.11,10.33,9.14,14.7s11,17.15,14.19,22,5.75,10,10,10.44,8.86-.21,7.73-1.81-3.68-3.3-2.19-3.3,3.41.85,4.9-.43,1.7-3.31,0-2.51a5,5,0,0,1-5.11,0,10.47,10.47,0,0,0-5.12-1.7c-1.91-.21-8.52-16.3-10.54-19.12S126.67,45.88,125,41.83s-4.65-14.49-6.91-16.3C116.27,24.1,115.5,23.53,113.11,24.46Z"/><path class="cls-2" d="M148.45,87.71c-.94,0-1.86,0-2.65-.13-3.83-.38-6.32-4.33-9-8.52-.44-.69-.88-1.39-1.34-2.09-.82-1.27-2-3.07-3.42-5.11-3.91-5.79-9.26-13.72-10.78-17a52.71,52.71,0,0,0-4.26-7c-1.49-2.2-3.18-4.68-4.88-7.69-2.48-4.37-2.39-9.55-2.12-12.25A4.57,4.57,0,0,1,113,24.11c2.54-1,3.46-.36,5.32,1.13,1.66,1.34,3.55,6.75,5.22,11.53.66,1.91,1.29,3.72,1.8,4.91,1.59,3.8,7.87,12.73,10.5,16.39a70.53,70.53,0,0,1,3.8,7.38c2,4.28,5.49,11.46,6.48,11.59a11,11,0,0,1,5.29,1.77c1.65,1.18,3.68.52,4.74,0s1.44,0,1.58.16c.44.68-.1,2-1.18,3s-2.62.83-3.88.65a8.18,8.18,0,0,0-1.24-.13c.19.25.6.66.91,1a14.18,14.18,0,0,1,1.57,1.73,1,1,0,0,1,.11,1.17C153.39,87.38,150.87,87.71,148.45,87.71ZM115.06,24.38a5.15,5.15,0,0,0-1.82.43h0A3.83,3.83,0,0,0,110.79,28c-.26,2.61-.34,7.62,2,11.81,1.69,3,3.37,5.45,4.85,7.64A52.18,52.18,0,0,1,122,54.56c1.5,3.21,6.83,11.11,10.73,16.88,1.38,2,2.6,3.85,3.43,5.13.46.7.9,1.4,1.34,2.09,2.53,4,4.93,7.83,8.4,8.18,3.87.38,7-.15,7.46-.86,0,0,.08-.15-.07-.37A14,14,0,0,0,151.79,84c-.87-.87-1.4-1.39-1.2-1.88s.63-.38.79-.38a9.65,9.65,0,0,1,1.37.14c1.15.17,2.34.34,3.29-.47s1.19-1.75,1-2c0-.06-.24-.08-.63.1-2.09,1-4,1-5.49-.08A9.81,9.81,0,0,0,146,77.78c-1.3-.14-3.54-4.63-7.08-12a74.12,74.12,0,0,0-3.73-7.27c-3.28-4.57-9-12.8-10.58-16.53-.52-1.22-1.15-3-1.82-4.95-1.55-4.45-3.48-10-5-11.2C116.69,24.91,116,24.38,115.06,24.38Zm-2,.08h0Z"/><path class="cls-3" d="M147.76,16.69s4,15.11,4.3,19.11,1.13,10.61,2.41,11.46S161.93,63,161.93,67.5s.85,5.75-.64,6.18-5.41,3.09-6.33,4.63-2.28,2.82-1.39,2.93,3.94-3.15,3.91-1.42-.74,4.61-2.52,4.35-4.11,1.44-3.05,2.08a8,8,0,0,0,8.74-.43c3.62-2.77,4.68-6.39,6-8.73s1.71-9.59.64-16.83-3-13.64-4.69-16.19a41,41,0,0,1-6-12.57C155.32,26.17,152.34,19.78,147.76,16.69Z"/><path class="cls-2" d="M156.11,87.72a8.92,8.92,0,0,1-4.39-1.15.83.83,0,0,1-.39-1c.33-.94,2.19-1.94,3.69-1.72a1,1,0,0,0,.86-.26c.78-.66,1.2-2.37,1.23-3.72a.44.44,0,0,0,0-.17,7.79,7.79,0,0,0-1.55,1c-.94.66-1.53,1.07-2,1a.63.63,0,0,1-.57-.37c-.2-.44.18-1,.79-1.8.29-.4.61-.85.89-1.32,1-1.66,5-4.36,6.54-4.8.67-.19.69-.47.54-2.33-.07-.84-.17-2-.17-3.49,0-4.49-6.29-19.26-7.29-19.93-1.79-1.19-2.5-10.66-2.57-11.74-.27-3.92-4.25-18.89-4.29-19a.38.38,0,0,1,.14-.41.39.39,0,0,1,.43,0c4.74,3.2,7.75,9.86,9,15a40.12,40.12,0,0,0,5.92,12.45c1.79,2.7,3.7,9.26,4.74,16.34s.73,14.48-.68,17.07c-.27.5-.53,1.06-.81,1.65a17.75,17.75,0,0,1-5.26,7.2A7.68,7.68,0,0,1,156.11,87.72Zm-1.54-3.2A3.18,3.18,0,0,0,152,85.77c0,.07,0,.1.07.16s4.41,2.59,8.32-.4a17.09,17.09,0,0,0,5-6.93c.29-.61.56-1.18.84-1.69,1.15-2.11,1.7-9.06.59-16.6-1-7-2.88-13.42-4.63-16a40.89,40.89,0,0,1-6-12.69c-1.14-4.71-3.77-10.7-7.85-14,.91,3.49,3.81,14.73,4,18.16.35,5,1.28,10.53,2.25,11.17,1.44,1,7.62,16,7.62,20.55,0,1.46.09,2.55.16,3.43.15,1.77.22,2.74-1.07,3.11s-5.23,3-6.11,4.46c-.29.5-.63,1-.92,1.37a9.64,9.64,0,0,0-.65,1,7,7,0,0,0,1.4-.84c1.12-.79,1.83-1.26,2.36-1a.8.8,0,0,1,.38.81c0,1.14-.35,3.32-1.48,4.28a1.8,1.8,0,0,1-1.46.43A1.94,1.94,0,0,0,154.57,84.52Z"/><path class="cls-2" d="M153.25,45.52c-.71-3.94-1.36-7.88-2.14-11.8S149.6,25.87,148.63,22c-.25-1-.52-1.9-.82-2.83-.13-.47-.32-.89-.48-1.34a1,1,0,0,0-.22-.42.84.84,0,0,0-.3-.22L144.09,16l-1.37-.62-.68-.31a.51.51,0,0,0-.17-.07h-.11c-.15,0-.21.06-.26.21a5.25,5.25,0,0,1-.9,1.6,7.27,7.27,0,0,1-2.81,2,18.05,18.05,0,0,1-6.23,1.08,35.37,35.37,0,0,1-12.18-1.5l-.35-.12-.2-.05a1.19,1.19,0,0,0-.42,0,1.15,1.15,0,0,0-.7.44l-.12.18-.17.33-.35.68-.76,1.34a16.11,16.11,0,0,1-1.83,2.59s-.14.18,0,0a.6.6,0,0,0,0-.47.63.63,0,0,0-.31-.35c-.25-.09,0,0,0,0a6.68,6.68,0,0,1,.8.31,12.91,12.91,0,0,1,1.42.76,11.56,11.56,0,0,1,1.3.94,5.86,5.86,0,0,1,1.13,1.27,20.81,20.81,0,0,1,1.51,2.71c.86,1.84,1.59,3.72,2.33,5.58,1.41,3.74,3,7.4,4.62,11.05a88.39,88.39,0,0,1-5.6-10.64c-.83-1.82-1.66-3.63-2.58-5.37A20,20,0,0,0,117.69,27a5,5,0,0,0-.89-.93,9,9,0,0,0-1.16-.78,12,12,0,0,0-1.24-.62c-.21-.08-.43-.16-.61-.21a2.22,2.22,0,0,1-.32-.1,1.08,1.08,0,0,1-.54-.63,1,1,0,0,1,.06-.83,1.77,1.77,0,0,1,.24-.32,13.8,13.8,0,0,0,1.56-2.34c.24-.42.47-.86.69-1.29l.33-.66L116,18a3.4,3.4,0,0,1,.28-.45,3.08,3.08,0,0,1,3.36-1.1l.37.12a33.63,33.63,0,0,0,11.52,1.3,16.2,16.2,0,0,0,5.55-.9,5.2,5.2,0,0,0,2.07-1.4,3.27,3.27,0,0,0,.57-1,2.16,2.16,0,0,1,2-1.49,2.73,2.73,0,0,1,.64.06,3.83,3.83,0,0,1,.53.2l.68.33,1.35.65,2.71,1.31a2.63,2.63,0,0,1,.87.69,2.67,2.67,0,0,1,.49.89c.16.5.37,1,.5,1.49.28,1,.52,2,.73,3A185,185,0,0,1,153.25,45.52Z"/></svg>