<svg id="图层_1" data-name="图层 1" xmlns="http://www.w3.org/2000/svg" viewBox="0 0 186 186"><defs><style>.cls-1{fill:#fff;}.cls-2{fill:#5b3b2f;}.cls-3{fill:#f9e6ed;}</style></defs><path class="cls-1" d="M74.5,12.08S65.29,13.15,65,22.79,64.14,49.85,63.85,52s-2,15.27-2.59,17.42-3.17,6.69-3.45,9.91,1.15,7,2.87,8,3.74.54,2.59-.8-2.87-3.48-2.59-4.82a3.78,3.78,0,0,1,1.73-2.14,24.44,24.44,0,0,0,1.15,4.55c.58,1.07,1.73,1.61,1.73-.54s.14-7.63.14-10.84,4-16.61,4.61-19.83,1.32-22.26,2-24.38C73.06,25.47,74.93,23.2,74.5,12.08Z"/><path class="cls-1" d="M104,12.21c3.6.67,9.37.94,9.66,10.58s.86,27.06,1.15,29.2,2,15.27,2.59,17.42,3.17,6.69,3.46,9.91-1.16,7-2.88,8-3.74.54-2.59-.8,2.88-3.48,2.59-4.82a3.78,3.78,0,0,0-1.73-2.14,23.65,23.65,0,0,1-1.15,4.55c-.58,1.07-1.73,1.61-1.73-.54s-.14-7.63-.14-10.84-4-16.61-4.61-19.83-1.43-22.23-2-24.38S99.64,11.4,104,12.21Z"/><path class="cls-1" d="M83.71,3.51s1.43,4.28-1.44,6.16-7.77,2.41-7.77,2.41.18,8.63-1,12.15-.6,12.36-.6,14,.29,13.39-.86,16.07-4,9.91-4,13.13V82.93h42s1.72-12.59.86-16.87-6-13.4-6-17.15,1.87-20.15,1.36-21.46-3-9.48-2.23-15.24c0,0-7.19-.8-8.34-2.68s-1.44-5.89-1.44-5.89Z"/><path class="cls-1" d="M68,82.93s3.45,20.9,4,24.92a99.15,99.15,0,0,1,1.15,19c-.29,9.11-.57,17.14.58,21.16a50,50,0,0,1,1.72,13.13c0,4.28.58,8.3,0,10.18s-3.74,4.28-3.16,6.69,10.36,3.75,11.22.81.86-9.65.86-11-1.43-6.69-1.15-10.44,1.73-10.72,2-15.81-1.15-12.32-.87-13.93,1.73-3.21,1.73-7.23.29-16.88.58-24.11.57-13.4.57-13.4Z"/><path class="cls-1" d="M110,82.93s-3.46,20.9-4,24.92a99.15,99.15,0,0,0-1.15,19c.28,9.11.57,17.14-.58,21.16a50,50,0,0,0-1.73,13.13c0,4.28-.57,8.3,0,10.18s3.75,4.28,3.17,6.69-10.36,3.75-11.22.81-.87-9.65-.87-11,1.44-6.69,1.15-10.44-1.72-10.72-2-15.81,1.15-12.32.86-13.93-1.72-3.21-1.72-7.23-.29-16.88-.58-24.11-.57-13.4-.57-13.4Z"/><path class="cls-2" d="M62.53,88.29a4,4,0,0,1-2-.62c-1.92-1.19-3.35-5.11-3.06-8.38a25.75,25.75,0,0,1,2.28-6.94,26.42,26.42,0,0,0,1.19-3c.35-1.3,1.19-6.93,2.49-16.73l.09-.64c.28-2.08.85-19.31,1.15-29.16s9.73-11.06,9.82-11.07a.39.39,0,0,1,.29.09.37.37,0,0,1,.13.27c.36,9.3-.89,12.5-1.9,15.08-.2.51-.4,1-.57,1.52-.36,1.12-.77,7.6-1.13,13.31-.31,4.91-.6,9.55-.87,11-.21,1.18-.87,3.67-1.64,6.57-1.31,5-3,11.18-3,13.18,0,1.78,0,4.24-.08,6.45,0,1.81-.06,3.44-.06,4.4s-.28,1.69-.82,1.83-1.28-.5-1.61-1.11a20.42,20.42,0,0,1-1.09-4.09,2.94,2.94,0,0,0-1.09,1.58c-.27,1.26,1.82,3.7,2.51,4.5s.38,1.34.21,1.54A1.61,1.61,0,0,1,62.53,88.29ZM74.14,12.51a10.37,10.37,0,0,0-8.77,10.3c-.08,2.71-.8,26.63-1.15,29.23l-.09.64c-.49,3.66-2,14.81-2.51,16.82a26.13,26.13,0,0,1-1.23,3.14c-.9,2.1-2,4.72-2.21,6.71-.3,3.26,1.18,6.75,2.7,7.69a2.28,2.28,0,0,0,2.32.32c.13-.15-.13-.47-.21-.57-1.41-1.63-3-3.7-2.67-5.14a4.12,4.12,0,0,1,1.91-2.39.37.37,0,0,1,.34,0,.38.38,0,0,1,.21.28A22.45,22.45,0,0,0,63.89,84c.29.54.66.77.77.74s.25-.25.25-1.1,0-2.6.07-4.41c0-2.21.08-4.67.08-6.44,0-2.09,1.65-8.35,3-13.37.77-2.88,1.42-5.36,1.63-6.51.25-1.43.55-6,.85-10.93.39-6,.78-12.29,1.18-13.5.17-.53.37-1,.57-1.57C73.24,24.41,74.44,21.34,74.14,12.51Z"/><path class="cls-2" d="M116.12,88.29a1.61,1.61,0,0,1-1.24-.44c-.17-.2-.48-.74.22-1.54s2.77-3.24,2.5-4.5a2.94,2.94,0,0,0-1.09-1.58,20.42,20.42,0,0,1-1.09,4.09c-.33.61-1,1.27-1.61,1.11s-.82-.75-.82-1.83,0-2.59-.06-4.4c0-2.21-.08-4.67-.08-6.45,0-2-1.65-8.2-3-13.18-.77-2.9-1.43-5.39-1.64-6.57-.28-1.56-.61-6.58-1-11.9-.37-5.59-.75-11.36-1-12.45-.1-.38-.41-1.21-.79-2.27-2.15-5.91-4.33-12.35-2.85-14.1a1.46,1.46,0,0,1,1.46-.43l.78.13c3.55.61,8.91,1.53,9.18,10.8.3,9.84.87,27.06,1.15,29.16l.08.63c1.31,9.8,2.15,15.44,2.5,16.74a25.69,25.69,0,0,0,1.19,3,25.82,25.82,0,0,1,2.28,7c.29,3.27-1.14,7.19-3.06,8.38A4,4,0,0,1,116.12,88.29Zm.12-9.08a.37.37,0,0,1,.18.05,4.12,4.12,0,0,1,1.91,2.39c.31,1.44-1.26,3.51-2.67,5.14-.08.1-.34.42-.21.57a2.28,2.28,0,0,0,2.32-.32c1.52-.94,3-4.43,2.7-7.69-.17-2-1.31-4.61-2.21-6.71A26.8,26.8,0,0,1,117,69.5c-.36-1.33-1.2-7-2.51-16.83l-.09-.63c-.28-2.13-.86-19.38-1.15-29.23-.26-8.67-5.06-9.49-8.57-10.09l-.78-.14h0a.72.72,0,0,0-.76.18c-1.32,1.57,1.69,9.83,3,13.36.41,1.12.7,1.93.81,2.34.31,1.15.68,6.71,1.07,12.59.33,5.07.68,10.3,1,11.82.21,1.15.86,3.63,1.63,6.51,1.33,5,3,11.28,3,13.37,0,1.77,0,4.23.08,6.44,0,1.81.07,3.45.07,4.41s.19,1.09.25,1.1.48-.2.77-.74a21.77,21.77,0,0,0,1.11-4.43.38.38,0,0,1,.21-.28A.47.47,0,0,1,116.24,79.21Z"/><path class="cls-2" d="M110,83.31H68a.38.38,0,0,1-.37-.38V67.4c0-3.72,3.64-12.31,4.06-13.28,1-2.3.88-11.88.84-15,0-.41,0-.72,0-.9s0-.76,0-1.39c-.11-3.16-.34-9.72.66-12.7,1.14-3.42,1-11.94,1-12a.37.37,0,0,1,.33-.38s4.84-.55,7.61-2.35c2.6-1.7,1.31-5.69,1.29-5.73a.38.38,0,0,1,.36-.5l10.5.14a.36.36,0,0,1,.37.34s.3,4,1.39,5.73c.86,1.41,6.11,2.29,8.07,2.5a.4.4,0,0,1,.25.14.35.35,0,0,1,.07.28c-.71,5.73,1.73,13.81,2.21,15.06.3.78,0,5.15-.67,12.25-.34,4-.67,7.78-.67,9.34,0,2,1.62,5.8,3.19,9.45A46.7,46.7,0,0,1,111.27,66c.86,4.3-.79,16.49-.86,17A.38.38,0,0,1,110,83.31Zm-41.65-.75h41.32c.26-2,1.59-12.63.82-16.43a47.15,47.15,0,0,0-2.79-7.48c-1.6-3.71-3.26-7.55-3.26-9.74,0-1.59.33-5.39.68-9.41.41-4.74,1-11.23.72-11.91-.48-1.25-2.89-9.2-2.3-15-1.61-.2-7.15-1-8.25-2.81C94.33,8.11,94,5,93.87,4L84.2,3.89c.3,1.24.78,4.45-1.73,6.09s-6.42,2.27-7.6,2.43c0,1.65.06,8.75-1,11.94-1,2.85-.72,9.32-.61,12.43,0,.65,0,1.14,0,1.42s0,.48,0,.89c.06,5.53,0,13.13-.91,15.33-1.48,3.45-4,10.08-4,13Z"/><path class="cls-2" d="M68,82.93s3.45,20.9,4,24.92a99.15,99.15,0,0,1,1.15,19c-.29,9.11-.57,17.14.58,21.16a50,50,0,0,1,1.72,13.13c0,4.28.58,8.3,0,10.18s-3.74,4.28-3.16,6.69,10.36,3.75,11.22.81.86-9.65.86-11-1.43-6.69-1.15-10.44,1.73-10.72,2-15.81-1.15-12.32-.87-13.93,1.73-3.21,1.73-7.23.29-16.88.58-24.11.57-13.4.57-13.4Z"/><path class="cls-2" d="M79.34,180.89H79c-2.65-.07-6.56-1-7-2.77s.79-3.31,1.84-4.73a8.91,8.91,0,0,0,1.33-2.16,20.63,20.63,0,0,0,.12-5.61c-.06-1.37-.14-2.91-.14-4.46a49.41,49.41,0,0,0-1.71-13c-1.14-4-.9-11.66-.61-20.57l0-.7A99.9,99.9,0,0,0,71.7,108l0-.14c-.57-4-4-24.7-4-24.9a.44.44,0,0,1,.09-.31.37.37,0,0,1,.28-.13H87.3a.36.36,0,0,1,.27.12.39.39,0,0,1,.11.27s-.29,6.16-.58,13.39-.58,20.07-.58,24.1a13.71,13.71,0,0,1-1.2,5.74,8.22,8.22,0,0,0-.53,1.56,25.27,25.27,0,0,0,.31,4.39,61.38,61.38,0,0,1,.56,9.49c-.16,2.91-.71,6.45-1.18,9.58-.37,2.38-.71,4.63-.83,6.23a34.25,34.25,0,0,0,.78,7.89,18.87,18.87,0,0,1,.37,2.53c0,3-.12,8.48-.88,11.09C83.55,180.19,81.89,180.89,79.34,180.89ZM68.46,83.31c.5,3,3.44,20.83,4,24.49l0,.13a100.44,100.44,0,0,1,1.13,18.95l0,.71c-.28,8.84-.52,16.48.59,20.34a50.45,50.45,0,0,1,1.74,13.23c0,1.53.07,3.07.14,4.42a20.81,20.81,0,0,1-.16,5.87,9,9,0,0,1-1.44,2.38c-1,1.36-2,2.77-1.72,4.12C73,179,76,180.07,79,180.15c2.33,0,3.94-.49,4.21-1.42.55-1.86.85-5.73.85-10.88a20.22,20.22,0,0,0-.35-2.4,35,35,0,0,1-.8-8.07c.13-1.64.47-3.9.84-6.29.47-3.11,1-6.64,1.18-9.51a61.18,61.18,0,0,0-.56-9.36,23.83,23.83,0,0,1-.3-4.61,8.79,8.79,0,0,1,.57-1.71,13,13,0,0,0,1.15-5.46c0-4,.29-17,.57-24.13.25-6.16.49-11.54.56-13Z"/><path class="cls-2" d="M110,82.93s-3.46,20.9-4,24.92a99.15,99.15,0,0,0-1.15,19c.28,9.11.57,17.14-.58,21.16a50,50,0,0,0-1.73,13.13c0,4.28-.57,8.3,0,10.18s3.75,4.28,3.17,6.69-10.36,3.75-11.22.81-.87-9.65-.87-11,1.44-6.69,1.15-10.44-1.72-10.72-2-15.81,1.15-12.32.86-13.93-1.72-3.21-1.72-7.23-.29-16.88-.58-24.11-.57-13.4-.57-13.4Z"/><path class="cls-2" d="M98.72,180.89c-2.55,0-4.22-.7-4.58-1.95-.76-2.61-.88-8.06-.88-11.09a18.87,18.87,0,0,1,.37-2.53,34.25,34.25,0,0,0,.78-7.89c-.12-1.6-.46-3.85-.83-6.23-.48-3.13-1-6.67-1.18-9.58a61.31,61.31,0,0,1,.56-9.49,26.35,26.35,0,0,0,.31-4.39,8.22,8.22,0,0,0-.53-1.56,13.68,13.68,0,0,1-1.21-5.74c0-4-.29-16.91-.57-24.1S90.38,83,90.38,83a.39.39,0,0,1,.11-.27.34.34,0,0,1,.27-.12H110a.37.37,0,0,1,.28.13.39.39,0,0,1,.08.31c0,.2-3.45,20.93-4,24.9l0,.14a99.9,99.9,0,0,0-1.13,18.82l0,.68c.28,8.92.53,16.62-.61,20.59a49.41,49.41,0,0,0-1.71,13c0,1.55-.08,3.09-.15,4.46a20.55,20.55,0,0,0,.13,5.61,8.83,8.83,0,0,0,1.32,2.16c1.06,1.42,2.26,3,1.85,4.73s-4.35,2.7-7,2.77ZM91.15,83.31c.06,1.46.31,6.84.55,13,.29,7.2.58,20.1.58,24.13a13,13,0,0,0,1.15,5.46,8.79,8.79,0,0,1,.57,1.71,23.71,23.71,0,0,1-.3,4.6,61.31,61.31,0,0,0-.56,9.37c.16,2.87.7,6.39,1.18,9.5.37,2.4.71,4.66.84,6.3a35,35,0,0,1-.8,8.07,20.22,20.22,0,0,0-.35,2.4c0,5.15.3,9,.85,10.88.27.93,1.89,1.48,4.21,1.42,3-.08,6-1.13,6.29-2.2.32-1.35-.72-2.76-1.73-4.12a9.2,9.2,0,0,1-1.43-2.38,20.81,20.81,0,0,1-.16-5.87c.07-1.35.14-2.89.14-4.42a50.45,50.45,0,0,1,1.74-13.23c1.11-3.86.87-11.51.59-20.36l0-.69a100.22,100.22,0,0,1,1.14-18.95l0-.13c.52-3.66,3.46-21.47,4-24.49Z"/><path class="cls-3" d="M147.68,131.41c-4.62-11-7.79-22.54-12.55-33.53a231.08,231.08,0,0,0-20.44-37.53C113.05,57.92,110.16,54,109,51c-1-2.63-.85-6.05-.87-8.89-.05-7.92,1-15.75,1.68-23.62.26-3.27-.3-3.84-1.89-4.79a44.48,44.48,0,0,0-7-3.63c-2.94-1.23-2.85.22-6.51,1.5a19.42,19.42,0,0,1-5.31,1.19,18.8,18.8,0,0,1-7.56-1c-2.07-.59-2.24-1.92-4.4-1.44-1.72.39-5.48,2.57-9.29,5.53-.72.55-1.17,1-1,2C68.36,24,71,31,71.9,37.32c.77,5.23.66,8.82-2.1,16.94a28,28,0,0,1-5.1,8.89C55.4,74.79,51.07,90.2,45.88,104q-6.65,17.67-12.71,35.56C29.7,149.76,25,159.36,21,169.41a3.89,3.89,0,0,0,2.83,5.27c8.25,1.51,16.17,3.67,24.5,4.9,10,1.47,20.19,3.06,30.38,2.41,7.41-.48,14.76-2.13,22.18-1.92,5.61.15,11.14,1.36,16.74,1.77,9.34.67,18.81.17,27.58-3.39a132.37,132.37,0,0,0,12-5.88c2.65-1.41,7.37-2.52,7.77-6.07.25-2.33-.85-4.58-2-6.65-4.28-7.82-9.21-15.18-13.06-23.25C149.18,134.88,148.42,133.15,147.68,131.41Z"/><path class="cls-2" d="M73.91,183.13c-8.26,0-16.5-1.21-24.51-2.39l-1.2-.18c-4.91-.72-9.74-1.78-14.42-2.81-3.3-.72-6.71-1.47-10.1-2.09a4.78,4.78,0,0,1-3.31-2.39,5,5,0,0,1-.28-4.22c1.54-3.89,3.21-7.77,4.82-11.52,2.56-5.93,5.2-12.07,7.32-18.31,4-11.88,8.3-23.85,12.72-35.59,1-2.55,1.91-5.21,2.83-7.78,4.16-11.66,8.46-23.71,16.15-33.32a26.92,26.92,0,0,0,4.92-8.59c2.71-7.94,2.82-11.36,2.06-16.48a92.85,92.85,0,0,0-2.85-11.73c-.74-2.57-1.5-5.22-2.06-7.7a2.76,2.76,0,0,1,1.31-3C71.14,12.09,75,9.8,77,9.35a3.83,3.83,0,0,1,3.39.7,4.89,4.89,0,0,0,1.5.75,17.76,17.76,0,0,0,7.22,1,18.94,18.94,0,0,0,5.05-1.13A15,15,0,0,0,96.7,9.48a4.29,4.29,0,0,1,4.67-.3,41.19,41.19,0,0,1,6.29,3.23l.78.47c2,1.21,2.67,2.2,2.38,5.72-.18,2.19-.4,4.38-.61,6.56a164.63,164.63,0,0,0-1.06,17v1.15c0,2.47,0,5.28.8,7.39a43.3,43.3,0,0,0,4.61,7.73c.35.5.67,1,1,1.4A233.28,233.28,0,0,1,136,97.48c2.5,5.76,4.58,11.74,6.6,17.53,1.85,5.29,3.76,10.76,6,16h0c.77,1.84,1.52,3.52,2.3,5.15,2.35,4.94,5.18,9.71,7.91,14.33,1.71,2.88,3.48,5.87,5.12,8.88,1.21,2.22,2.38,4.61,2.08,7.23-.37,3.36-3.72,4.81-6.41,6-.69.29-1.34.58-1.88.86l-.25.14a130.28,130.28,0,0,1-11.87,5.78c-7.81,3.17-16.71,4.27-28,3.46-2.46-.18-4.93-.51-7.31-.84a91.93,91.93,0,0,0-9.38-.93,88.35,88.35,0,0,0-13.41,1c-2.84.35-5.78.72-8.69.91C77.16,183.08,75.53,183.13,73.91,183.13ZM78.06,11.21a3.28,3.28,0,0,0-.63.08c-1.41.32-4.92,2.26-8.9,5.34-.69.53-.67.64-.59,1,.54,2.42,1.27,4.93,2,7.59a94.45,94.45,0,0,1,2.91,12c.8,5.35.67,9.13-2.14,17.41a29.5,29.5,0,0,1-5.26,9.2C58,73.13,53.76,85,49.65,96.52c-.92,2.58-1.87,5.25-2.84,7.81-4.41,11.72-8.68,23.67-12.7,35.52-2.14,6.33-4.8,12.5-7.37,18.47-1.61,3.73-3.28,7.6-4.8,11.46a3,3,0,0,0,.17,2.52A2.78,2.78,0,0,0,24,173.7c3.44.63,6.86,1.38,10.18,2.11,4.64,1,9.44,2.07,14.28,2.78l1.2.18c9.48,1.4,19.29,2.84,29,2.22,2.85-.18,5.76-.54,8.57-.9a91.63,91.63,0,0,1,13.71-1,91.31,91.31,0,0,1,9.59,1c2.36.32,4.8.65,7.19.82,11,.8,19.62-.26,27.13-3.31a128.7,128.7,0,0,0,11.68-5.7l.26-.14c.61-.32,1.29-.61,2-.93,2.34-1,5-2.16,5.23-4.37.22-2-.79-4.12-1.86-6.06-1.62-3-3.38-6-5.08-8.82-2.76-4.65-5.6-9.46-8-14.48-.79-1.66-1.55-3.37-2.33-5.24h0c-2.23-5.3-4.15-10.81-6-16.13-2-5.75-4.08-11.7-6.54-17.39a232.09,232.09,0,0,0-20.35-37.36c-.28-.42-.6-.89-1-1.38a44.83,44.83,0,0,1-4.83-8.15c-.93-2.45-.93-5.45-.93-8.1V42.15A164.87,164.87,0,0,1,108.23,25c.21-2.18.43-4.35.6-6.53.24-2.88-.14-3.1-1.4-3.86l-.79-.47a40.37,40.37,0,0,0-6-3.1,2.45,2.45,0,0,0-2.93.2,17.51,17.51,0,0,1-2.87,1.33,20.1,20.1,0,0,1-5.58,1.24,19.78,19.78,0,0,1-7.89-1.06,7,7,0,0,1-2.06-1A2.05,2.05,0,0,0,78.06,11.21Z"/></svg>