<svg id="图层_1" data-name="图层 1" xmlns="http://www.w3.org/2000/svg" viewBox="0 0 186 186"><defs><style>.cls-1{fill:#fff;}.cls-2{fill:#5b3b2f;}.cls-3{fill:#f9e6ed;}</style></defs><path class="cls-1" d="M114,179.08a2.14,2.14,0,0,0-.52-.79,37.81,37.81,0,0,0-4.67-3.52,20.3,20.3,0,0,1-8.26-9.05,11.47,11.47,0,0,1-.91-5.36c.19-2.39,1.06-4.71,1.56-7.08.87-4.13,1.76-8.26,2.49-12.41s1.13-8.28,1.93-12.37q1.89-9.63,4.15-19.17a92.71,92.71,0,0,0,3-19.93c.12-6.88.28-13.76.38-20.64.08-5.28,0-10.56.16-15.84a22.81,22.81,0,0,0-.81-6.64,8.83,8.83,0,0,1,.27-3.15c.05-.43.19-.86.25-1.29.37-3.06-2.26-8.28-1.3-11.14,1.1-3.26.36-6.15-.43-9.12-.59-2.26.76-2.37.19-4.63s-1.75-3.2-4.13-3.46c-4.51-.49-6.08-1.14-6-5.71,0-1.73-.32-2.54-.18-4.38a74.82,74.82,0,0,1-9.58.41c-.23,3-.45,2.91-.69,5.79-.2,2.32-.34,2.29-2.62,2.22-2-.06-4.11-.11-6.15,0a9.48,9.48,0,0,0-8.89,7.6c-.58,2.88-.76,5.89-1.67,8.67a93.72,93.72,0,0,1-4.72,11.47,39.05,39.05,0,0,1-4.13,6c-1.38,1.84-3.1,3.45-4.28,5.4-.29.49-.6,1-.91,1.45l-4,5.48c-2.36,2.92-4.86,5.72-7.26,8.6C44.4,68,42,69.94,40.72,71.78,39,74.43,38.31,78.32,39.19,80s2.75,2.13,2.47.46-.65-4.29.22-5.32a3.68,3.68,0,0,1,2.42-1.08A25.23,25.23,0,0,0,43,78.52c0,1.18.62,2.16,1.65.31.89-1.61,5.49-6.83,7.69-10,2.9-3,6.13-5.64,9-8.64,3.53-3.67,7.4-7.18,10.11-11.41,3.52-5.47,6-11.58,9-17.41.15-.28.38-.52.76-1.05.74,1.54,1.48,2.81,2,4.15,1.69,4.49,3.9,8.89,1,13.8-1.21,2-1.67,4.46-2.63,6.64-2.36,5.37-5.14,10.56-6.12,16.45-.75,4.45-1.73,8.87-2.45,13.32-.52,3.19-.65,6.43-1.16,9.62-.63,4-1.44,8-2.22,12s-2,7.71-4.84,10.73c-1.86,2-4,3.76-5.82,5.79-3.62,4-5.76,8.94-7.89,13.84-1.81,4.16-3.72,8.27-5.6,12.4-.58,1.26-1.73,1.7-3,2.37-1.11-.28-5.65-.67-5.65,1.31,0,8.77,1.31,10.16.89,20.52a31.82,31.82,0,0,0,.93,7.64c.47,1.68,2,1.69,3.48,1.62s1.2-1.27,1.49-2.09.33-1.67.62-2.46c1.87-5.21,2.89-10,4.51-15.29.91-3,3.75-5.81,5.12-8.51,1.52-3,3.32-5.91,5.06-8.82.91-1.53,1.92-3,3-4.47,1.15-1.62,2.37-3.19,3.58-4.76,2.19-2.84,4.27-5.76,6.62-8.44,1.74-2,4-3.47,5.74-5.46a47.33,47.33,0,0,0,4.34-6.37c2.94-4.78,4.4-10.14,6-15.44,1.2-3.86,2.72-7.63,4.1-11.43l.33,0c.46,4.46,1,8.9,1.35,13.37a78.65,78.65,0,0,1,0,8.27q-.1,3.54-.41,7.07c-.31,3.77-.61,7.53-1.11,11.28s-1.42,7.54-1.7,11.34c-.45,6-.52,12.05-.74,18.08a29.32,29.32,0,0,1-.19,5.06,81,81,0,0,1-2.44,8.29c-.59,1.77-1.29,3.15.46,3.74,12,1.5,10.94,2.58,16.14,4a52.79,52.79,0,0,0,8.56,1.16,1.81,1.81,0,0,0,.81-.13A1.15,1.15,0,0,0,114,179.08Z"/><path class="cls-1" d="M106.09,12.17c3.59.72,9.34,1,9.62,11.33s.86,29,1.15,31.25,2,16.34,2.58,18.64,3.15,7.16,3.44,10.6-1.15,7.46-2.87,8.61-3.72.57-2.58-.86S120.3,88,120,86.58a4,4,0,0,0-1.72-2.3,27.59,27.59,0,0,1-1.14,4.88c-.58,1.14-1.72,1.72-1.72-.58s-.15-8.17-.15-11.61-4-17.78-4.58-21.22-1.44-23.8-2-26.09S101.76,11.3,106.09,12.17Z"/><path class="cls-2" d="M118.17,93.58a1.6,1.6,0,0,1-1.2-.43c-.18-.2-.53-.76.17-1.65s2.78-3.47,2.51-4.85a3.21,3.21,0,0,0-1.09-1.7,22.18,22.18,0,0,1-1.08,4.37c-.32.65-.93,1.34-1.59,1.19s-.84-.78-.84-1.93,0-2.78-.06-4.71c0-2.37-.08-5-.08-6.9,0-2.15-1.64-8.78-3-14.12-.76-3.1-1.42-5.77-1.63-7-.28-1.66-.61-7-1-12.73-.37-6-.75-12.16-1-13.33-.11-.41-.41-1.3-.8-2.44-2.16-6.38-4.34-13.33-2.78-15.1a1.38,1.38,0,0,1,1.41-.41h0l.78.15c3.53.65,8.87,1.63,9.15,11.54.29,10.53.86,29,1.14,31.21l.09.74c1.3,10.46,2.13,16.47,2.48,17.86A30,30,0,0,0,121,76.55,29.37,29.37,0,0,1,123.25,84c.29,3.5-1.12,7.68-3,9A3.86,3.86,0,0,1,118.17,93.58Zm-.16-9.9.48.28a4.36,4.36,0,0,1,1.89,2.54c.3,1.53-1.26,3.73-2.65,5.47-.12.14-.37.5-.21.68s1.3.29,2.29-.36c1.51-1,3-4.76,2.7-8.26a28.79,28.79,0,0,0-2.21-7.2,29.35,29.35,0,0,1-1.22-3.35c-.54-2.14-2-14-2.5-18l-.09-.73c-.35-2.81-1.07-28.39-1.15-31.29-.26-9.3-5-10.18-8.54-10.83l-.78-.14h0c-.44-.09-.61.05-.71.16-1.4,1.6,1.64,10.55,2.93,14.37.41,1.2.7,2.06.81,2.5.31,1.23.67,7.17,1.06,13.46.34,5.43.68,11,1,12.66.21,1.24.87,3.9,1.62,7,1.33,5.38,3,12.06,3,14.3,0,1.89,0,4.52.08,6.89,0,1.93.06,3.69.06,4.72s.21,1.19.26,1.2.47-.23.75-.79a26.91,26.91,0,0,0,1.11-4.76Z"/><path class="cls-2" d="M41.39,183c-1.19,0-2.65-.24-3.12-1.92a32.7,32.7,0,0,1-1-7.73,70.32,70.32,0,0,0-.38-11.84,74.2,74.2,0,0,1-.5-8.69,1.49,1.49,0,0,1,.61-1.21c1.29-1,4.38-.7,5.37-.49l.37-.19A4.37,4.37,0,0,0,45.15,149l1.31-2.88c1.43-3.11,2.9-6.33,4.29-9.52,2.11-4.85,4.29-9.87,8-13.94,1-1.08,2-2.09,3.07-3.07s1.88-1.78,2.75-2.72c2.36-2.55,3.82-5.8,4.75-10.55l.32-1.62c.66-3.41,1.36-6.93,1.91-10.42.24-1.56.4-3.16.56-4.72s.33-3.27.59-4.9c.38-2.36.84-4.73,1.29-7,.39-2,.81-4.18,1.16-6.28.8-4.81,2.82-9.22,4.77-13.49.46-1,.93-2,1.38-3,.37-.85.67-1.76,1-2.64a19.81,19.81,0,0,1,1.68-4c2.58-4.3,1.08-8.14-.5-12.21l-.48-1.26a28,28,0,0,0-1.26-2.69c-.15-.29-.3-.58-.45-.89a2.93,2.93,0,0,0-.35.51c-.9,1.77-1.78,3.6-2.63,5.37A108.9,108.9,0,0,1,71.83,49a58.74,58.74,0,0,1-7.93,9.19c-.75.76-1.5,1.52-2.23,2.28-1.49,1.55-3.1,3-4.65,4.46s-3,2.74-4.38,4.18c-1,1.49-2.69,3.55-4.15,5.36A48.13,48.13,0,0,0,45,79c-.53.94-1.06,1.34-1.58,1.19s-.8-1-.77-1.7a19.77,19.77,0,0,1,1.07-4,2.91,2.91,0,0,0-1.57.86c-.83,1-.32,4-.15,5s-.42,1.37-.62,1.44c-.79.26-1.93-.48-2.54-1.67-1-1.88-.25-5.91,1.55-8.6a27.14,27.14,0,0,1,5.15-5l.48-.38c1-1.17,2-2.37,3-3.58,1.38-1.62,2.82-3.29,4.18-5,1.49-2,3-4.06,4-5.46.29-.46.6-.94.89-1.43a25.4,25.4,0,0,1,2.58-3.34c.58-.68,1.18-1.37,1.72-2.08.3-.41.61-.81.92-1.21a28,28,0,0,0,3.17-4.76A90.65,90.65,0,0,0,71.23,28a34.36,34.36,0,0,0,1.15-5.53c.15-1,.31-2.07.52-3.1a9.8,9.8,0,0,1,9.23-7.89c2.05-.09,4.09,0,6.18,0h.1c2,.05,2,.06,2.13-1.88.12-1.42.24-2.13.35-2.82s.23-1.44.35-3l0-.34h.34A73.73,73.73,0,0,0,101.15,3l.45,0,0,.45a12.91,12.91,0,0,0,.07,2.4,15.46,15.46,0,0,1,.12,2c-.06,4.34,1.34,4.86,5.69,5.33,2.6.28,2.69,1.42,3.3,3.82a3.94,3.94,0,0,1-.11,2.52,3.08,3.08,0,0,0-.08,2.11c.77,2.91,1.56,5.92.41,9.34-.49,1.46.06,3.71.59,5.89a16.23,16.23,0,0,1,.73,5.16c0,.24-.08.46-.13.69a4.38,4.38,0,0,0-.12.61c0,.32-.1.64-.16,1a4.82,4.82,0,0,0-.12,2c.62,2.32,2,4.44,2,6.66-.09,3.18-.1,6.43-.11,9.56,0,2.09,0,4.19,0,6.28q-.09,6.14-.23,12.27c0,2.79-.11,5.58-.15,8.37-.12,6.89-1.53,13.69-3,20s-2.88,12.7-4.15,19.15c-.44,2.26-.77,4.58-1.09,6.83-.25,1.81-.52,3.69-.84,5.53-.68,3.83-1.49,7.7-2.28,11.44l-.21,1c-.18.86-.41,1.72-.64,2.55a25.63,25.63,0,0,0-.92,4.48,11.18,11.18,0,0,0,.88,5.18,20,20,0,0,0,8.11,8.88,39,39,0,0,1,4.72,3.55,2.48,2.48,0,0,1,.62.93,1.52,1.52,0,0,1,0,1.22,1.42,1.42,0,0,1-.87.81,2.2,2.2,0,0,1-1,.16l-1.86-.18a38.56,38.56,0,0,1-6.76-1,28.9,28.9,0,0,1-3.64-1.26c-2.16-.88-4.19-1.7-12.44-2.73a2,2,0,0,1-1.28-.94c-.37-.76,0-1.69.34-2.77l.17-.51a81.64,81.64,0,0,0,2.42-8.26,14.22,14.22,0,0,0,.19-3.29c0-.57,0-1.14,0-1.7.06-1.72.11-3.44.16-5.16.12-4.24.25-8.63.57-12.94.18-2.3.59-4.62,1-6.85.26-1.48.54-3,.73-4.51.46-3.45.75-7,1-10.39l.07-.87c.2-2.36.34-4.74.41-7.05v-.2a76.84,76.84,0,0,0,0-8c-.23-3.13-.58-6.3-.92-9.37-.12-1-.23-2.08-.34-3.12-.33.89-.66,1.78-1,2.68-1,2.57-2,5.24-2.79,7.91L88,102.35c-1.43,4.66-2.9,9.47-5.54,13.76l-.35.57a43.11,43.11,0,0,1-4,5.85,28.85,28.85,0,0,1-2.94,2.81,28,28,0,0,0-2.8,2.64c-1.69,1.93-3.28,4-4.81,6.06-.59.79-1.19,1.58-1.79,2.36l-.36.48c-1.08,1.39-2.19,2.82-3.22,4.27-1.2,1.69-2.14,3.11-2.94,4.45l-.9,1.49c-1.42,2.37-2.89,4.81-4.15,7.31A27.2,27.2,0,0,1,52,157.79a18.72,18.72,0,0,0-2.9,5.06c-.62,2-1.16,4-1.68,5.91-.87,3.17-1.68,6.17-2.84,9.39a8.14,8.14,0,0,0-.29,1.18,8.68,8.68,0,0,1-.32,1.29,2.79,2.79,0,0,0-.14.57c-.14.72-.33,1.7-1.69,1.77Zm-1.26-31.35a4.84,4.84,0,0,0-2.63.55.74.74,0,0,0-.32.62,73.13,73.13,0,0,0,.5,8.62,71,71,0,0,1,.39,11.91,31.53,31.53,0,0,0,.92,7.53c.39,1.37,1.58,1.43,3.1,1.35.74,0,.85-.4,1-1.16a6.14,6.14,0,0,1,.17-.68,7.14,7.14,0,0,0,.3-1.19,8.56,8.56,0,0,1,.32-1.28c1.15-3.19,2-6.18,2.82-9.34.52-1.91,1.06-3.9,1.68-5.93a19.64,19.64,0,0,1,3-5.28,26,26,0,0,0,2.13-3.29c1.27-2.52,2.75-5,4.18-7.35l.89-1.49c.82-1.36,1.77-2.79,3-4.5,1-1.46,2.16-2.9,3.23-4.3l.37-.47c.6-.78,1.19-1.57,1.79-2.36,1.54-2,3.13-4.15,4.84-6.1a29.43,29.43,0,0,1,2.87-2.72A28.49,28.49,0,0,0,77.53,122a43,43,0,0,0,4-5.75l.36-.57c2.58-4.21,4-9,5.45-13.58l.55-1.79c.84-2.68,1.84-5.36,2.81-7.95.44-1.16.88-2.32,1.3-3.49l.1-.28.84.11L93,89c.14,1.33.29,2.66.43,4,.34,3.07.69,6.25.93,9.39a78.38,78.38,0,0,1,0,8.11v.2c-.08,2.33-.21,4.71-.41,7.1l-.08.87c-.28,3.42-.58,7-1,10.41-.2,1.53-.47,3.06-.73,4.55a66.46,66.46,0,0,0-1,6.77c-.32,4.3-.45,8.68-.57,12.91,0,1.72-.1,3.44-.17,5.16,0,.55,0,1.11,0,1.67a14.88,14.88,0,0,1-.21,3.46A81.52,81.52,0,0,1,87.77,172l-.18.52c-.32.92-.6,1.72-.37,2.2a1.24,1.24,0,0,0,.77.54c8.28,1,10.36,1.87,12.56,2.76a27.35,27.35,0,0,0,3.55,1.24,38.7,38.7,0,0,0,6.63,1l1.87.17a1.55,1.55,0,0,0,.65-.11.71.71,0,0,0,.44-.41.75.75,0,0,0,0-.62h0a1.53,1.53,0,0,0-.42-.66,36.14,36.14,0,0,0-4.62-3.48,20.74,20.74,0,0,1-8.4-9.22,11.9,11.9,0,0,1-1-5.54,26.67,26.67,0,0,1,1-4.62c.22-.82.45-1.67.63-2.5l.21-1c.78-3.73,1.6-7.6,2.27-11.42.32-1.82.59-3.7.84-5.51.32-2.25.65-4.59,1.1-6.87,1.26-6.45,2.66-12.9,4.15-19.17a93.85,93.85,0,0,0,3-19.86q.08-4.17.16-8.36.12-6.14.22-12.27,0-3.14,0-6.27c0-3.14,0-6.39.12-9.58.06-2.15-1.36-4.2-2-6.45a5.45,5.45,0,0,1,.1-2.37c.06-.31.12-.62.16-.92s.08-.46.13-.69a6,6,0,0,0,.12-.61,15.85,15.85,0,0,0-.72-4.9c-.55-2.28-1.13-4.63-.57-6.3,1.08-3.21.32-6.11-.42-8.91a3.88,3.88,0,0,1,.09-2.54,3.16,3.16,0,0,0,.09-2.1c-.53-2.09-.37-3-2.65-3.26-4.57-.5-6.42-1.18-6.36-6.08a14.37,14.37,0,0,0-.11-1.87,14.47,14.47,0,0,1-.1-2.09A74.85,74.85,0,0,1,92,4.18c-.12,1.33-.23,2-.33,2.69s-.22,1.38-.34,2.76c-.21,2.5-.53,2.63-2.91,2.57h-.09c-2.08,0-4.11-.1-6.13,0a9.09,9.09,0,0,0-8.53,7.3c-.2,1-.36,2.06-.51,3.07a35.34,35.34,0,0,1-1.18,5.64A90.77,90.77,0,0,1,67.21,39.7,29.1,29.1,0,0,1,64,44.59c-.31.4-.62.8-.91,1.2-.56.74-1.16,1.44-1.75,2.13a24.41,24.41,0,0,0-2.51,3.24c-.3.49-.61,1-.92,1.46-1,1.42-2.53,3.46-4,5.5-1.38,1.71-2.82,3.38-4.21,5q-1.54,1.8-3.06,3.61l-.53.44A26.72,26.72,0,0,0,41,72c-1.77,2.65-2.26,6.39-1.51,7.85.49,1,1.31,1.41,1.65,1.3.19-.07.14-.48.12-.6-.35-2-.63-4.53.31-5.63a4,4,0,0,1,2.69-1.21l.55,0-.19.52a23.57,23.57,0,0,0-1.23,4.33c0,.6.15.93.23,1h0s.26,0,.71-.84A49.61,49.61,0,0,1,47.91,74c1.46-1.8,3.11-3.85,4.16-5.36,1.46-1.5,3-2.9,4.44-4.26s3.14-2.9,4.62-4.43c.73-.76,1.49-1.52,2.24-2.28a58.46,58.46,0,0,0,7.83-9.07,109.07,109.07,0,0,0,6.36-12c.85-1.77,1.73-3.61,2.63-5.39a3.94,3.94,0,0,1,.43-.63c.1-.13.22-.28.35-.47l.37-.5.27.56c.24.5.48,1,.72,1.42a27.26,27.26,0,0,1,1.29,2.76c.15.42.32.84.48,1.26,1.58,4.06,3.21,8.25.44,12.87a18.94,18.94,0,0,0-1.61,3.88c-.3.9-.61,1.83-1,2.7-.45,1-.92,2-1.38,3.07-1.93,4.22-3.93,8.59-4.72,13.31-.35,2.1-.76,4.24-1.16,6.3-.45,2.29-.91,4.67-1.28,7-.26,1.6-.43,3.26-.59,4.86s-.32,3.18-.57,4.76c-.55,3.5-1.24,7-1.91,10.45L70,106.43c-1,4.9-2.47,8.26-4.93,10.91-.89,1-1.85,1.88-2.78,2.76s-2.09,2-3,3c-3.57,4-5.73,8.94-7.81,13.73-1.4,3.21-2.87,6.43-4.3,9.54l-1.32,2.87a5,5,0,0,1-2.69,2.3l-.62.32-.14,0A10.22,10.22,0,0,0,40.13,151.63Z"/><path class="cls-3" d="M38.32,98c0,.15-.06.31-.08.46-.26,2.51,3.44,3.59,5.35,3.65,4.62.14,10.62.35,12.5.54,3.2.31,1.76,1.82,3.12,2.87,2.73,2.11,21.53,3.46,33.34,1.93s7.3-2.54,16.13-2.89,13.92-.83,13.72-2.76-1-1.31,2.45-1.62c4.76-.43,9.52-.69,14.23-1.55a25.73,25.73,0,0,0,5.36-1.15,5.68,5.68,0,0,0,2.84-2.4,2.33,2.33,0,0,0,.33-1.2,2.94,2.94,0,0,0-.35-1.11,32.13,32.13,0,0,0-4.07-6c-1.5-1.88-2.95-3.79-4.39-5.72-2.38-3.21-4.7-6.46-7-9.7l-1.56-2.17c-.92-1.27-1.82-2.55-2.73-3.82q-4.22-6-8.23-12.07c-1.36-2.06-3.33-4.18-4.74-6.47a10.35,10.35,0,0,1-1.7-4.74c-.09-1.37-.2-2.74-.32-4.11-.25-2.92-.51-5.83-.76-8.75s-.46-5.7-.65-8.55c-.09-1.39-.14-2.78-.26-4.16-.16-1.87,0-3.57-2.22-3.87-1.57-.21-3.14-.45-4.72-.61s-3,1.34-4.36,2.1a10,10,0,0,1-7.59.69c-2.2-.67-4.28-3.67-6.6-3.22l-1.68.3c-1.05.19-2.1.36-3.15.57a2.32,2.32,0,0,0-1.88,1.24c-.51,1.06,0,2.17.28,3.22,2.27,8.52,1.24,18.72.74,27.44a13.64,13.64,0,0,1-2,6.36c-2.73,4.4-6.91,8.21-10.3,12.1q-6.15,7-12.4,14c-5.57,6.22-11.57,12.2-15.83,19.45A7.12,7.12,0,0,0,38.32,98Z"/><path class="cls-2" d="M80.76,109.09c-9.84,0-20-1.1-22.16-2.78a3.08,3.08,0,0,1-1.09-1.81c-.14-.52-.19-.73-1.52-.86s-5.75-.33-12.43-.53c-1.26,0-4-.55-5.47-2.2a3.29,3.29,0,0,1-.84-2.55,4,4,0,0,1,.11-.6h0a8,8,0,0,1,.88-1.94c3.54-6,8.29-11.2,12.88-16.22,1-1.13,2.06-2.25,3.07-3.39,3.73-4.16,8.11-9.07,12.39-14,1-1.19,2.15-2.38,3.23-3.53a56.06,56.06,0,0,0,7-8.44,12.64,12.64,0,0,0,1.86-5.9c.06-1,.13-2.09.2-3.16.5-7.79,1.06-16.61-.9-24,0-.17-.1-.35-.15-.52a4.48,4.48,0,0,1-.07-3.37,3.34,3.34,0,0,1,2.59-1.8l2.07-.37,1.54-.28,1.22-.22c1.82-.35,3.39.82,4.77,1.85a8.63,8.63,0,0,0,2.31,1.4A9,9,0,0,0,99,13.31c.35-.2.71-.46,1.1-.73A5.67,5.67,0,0,1,104,11.09c1.23.12,2.45.3,3.64.46l1.11.16c2.77.37,2.92,2.57,3,4.17,0,.2,0,.39,0,.59.08.89.13,1.78.18,2.67,0,.51.05,1,.08,1.51.17,2.51.37,5.22.65,8.54q.24,2.85.5,5.71l.27,3c.12,1.38.22,2.75.31,4.13a9.32,9.32,0,0,0,1.56,4.29A37.91,37.91,0,0,0,118,49.91c.77,1,1.5,1.93,2.13,2.88,2.66,4,5.42,8.09,8.22,12,.9,1.28,1.8,2.55,2.72,3.81l2.74,3.82c1.9,2.65,3.87,5.39,5.84,8,1.27,1.71,2.78,3.72,4.37,5.7a32.4,32.4,0,0,1,4.18,6.14,3.89,3.89,0,0,1,.45,1.49,3.22,3.22,0,0,1-.45,1.73,6.66,6.66,0,0,1-3.33,2.84,16.72,16.72,0,0,1-4.14,1c-.48.07-1,.14-1.42.23-3.73.68-7.53,1-11.21,1.3l-3.11.26c-.69.06-1.21.09-1.61.11q0,.18.06.42a1.93,1.93,0,0,1-.49,1.51c-1.35,1.57-5.47,2-14.18,2.34-4.36.18-5.31.5-6.75,1s-3.4,1.14-9.29,1.9A94.55,94.55,0,0,1,80.76,109.09ZM39.29,98.25a1.7,1.7,0,0,0-.06.31,1.3,1.3,0,0,0,.36,1,6.42,6.42,0,0,0,4,1.52c4.69.14,10.67.35,12.57.54,2.49.24,3,1.29,3.25,2.34.1.39.15.56.38.73,2.3,1.77,20.38,3.32,32.6,1.73a40.49,40.49,0,0,0,8.91-1.82c1.55-.52,2.67-.89,7.31-1.08,3.64-.14,12.16-.48,12.77-1.67a5.23,5.23,0,0,0-.15-.77,1.45,1.45,0,0,1,.14-1.29c.36-.48.87-.5,1.63-.53.39,0,1,0,1.74-.11l3.12-.27c3.63-.3,7.38-.6,11-1.27.49-.09,1-.16,1.49-.24a15.17,15.17,0,0,0,3.66-.85,4.65,4.65,0,0,0,2.35-2,1.36,1.36,0,0,0,.21-.68,2.07,2.07,0,0,0-.25-.72,31,31,0,0,0-3.94-5.77c-1.61-2-3.14-4-4.42-5.75-2-2.67-3.95-5.42-5.86-8.07l-2.74-3.81c-.91-1.27-1.83-2.55-2.73-3.83-2.81-4-5.58-8-8.25-12.09-.59-.89-1.29-1.79-2-2.75a42.16,42.16,0,0,1-2.72-3.75,11.35,11.35,0,0,1-1.85-5.2c-.09-1.36-.19-2.72-.31-4.08l-.26-3c-.17-1.9-.34-3.81-.5-5.71-.28-3.33-.49-6.06-.65-8.58,0-.51-.06-1-.09-1.53,0-.87-.09-1.74-.17-2.6,0-.21,0-.42,0-.63-.13-1.8-.25-2.2-1.32-2.34l-1.12-.16c-1.16-.16-2.37-.33-3.56-.45a4.17,4.17,0,0,0-2.48,1.12,13.91,13.91,0,0,1-1.3.86,10.89,10.89,0,0,1-8.36.77,9.77,9.77,0,0,1-2.92-1.71c-1.15-.86-2.24-1.68-3.21-1.49l-1.24.23-1.55.28c-.68.12-1.36.23-2,.36s-1,.38-1.17.7c-.24.49-.09,1.06.17,1.94l.18.59c2,7.67,1.46,16.67,1,24.61-.07,1.06-.14,2.12-.2,3.14a14.68,14.68,0,0,1-2.16,6.84,57.5,57.5,0,0,1-7.21,8.75c-1.12,1.2-2.17,2.32-3.18,3.47-4.28,4.91-8.67,9.83-12.41,14q-1.53,1.71-3.08,3.4C48.07,85.87,43.39,91,40,96.82a5.78,5.78,0,0,0-.67,1.43Z"/></svg>