<svg id="图层_1" data-name="图层 1" xmlns="http://www.w3.org/2000/svg" viewBox="0 0 186 186"><defs><style>.cls-1{fill:#5b3b2f;}.cls-2{fill:#f9e6ed;}.cls-3{fill:#fff;}</style></defs><path class="cls-1" d="M47,65.71h-.08c-.85-.09-1.6-1.25-1.67-2.61-.13-2.16,2.22-5.61,5-7.38a27.58,27.58,0,0,1,6.89-2.5,29.52,29.52,0,0,0,3.12-.95c1-.41,4.37-2.27,9.84-5.38a5.48,5.48,0,0,0,2.78-4.59c.28-7.72.54-16.84.61-19.45a11.09,11.09,0,0,1,9.26-11.19.35.35,0,0,1,.28.09.4.4,0,0,1,.14.27c.34,9.4-.84,12.63-1.79,15.22-.19.53-.37,1-.53,1.55-.34,1.12-.73,7.64-1,12.88l-.21,3.5a6.79,6.79,0,0,1-4,5.79h0l-3,1.34c-4.77,2-10.7,4.56-12.32,5.78-1.43,1.08-3.46,2.55-5.27,3.87-1.47,1.06-2.79,2-3.57,2.61s-1.53.82-1.95.46-.32-1.28,0-1.9a20.63,20.63,0,0,1,2.66-3.27,3,3,0,0,0-1.85.15c-1.19.57-2,3.63-2.23,4.63S47.28,65.71,47,65.71ZM82.48,12.47c-1.69.35-8,2.18-8.21,10.4-.07,2.61-.33,11.73-.6,19.45a6.22,6.22,0,0,1-3.16,5.22c-5.58,3.17-8.91,5-9.92,5.42a30.56,30.56,0,0,1-3.22,1,26.75,26.75,0,0,0-6.68,2.41c-2.8,1.76-4.79,5-4.69,6.71.06,1.09.65,1.87,1,1.91s.35-.4.38-.52C47.9,62.4,48.68,60,50,59.33a4.18,4.18,0,0,1,3,0,.4.4,0,0,1,.22.27.35.35,0,0,1-.1.34,26,26,0,0,0-3,3.54c-.28.56-.24.94-.18,1s.33,0,1-.49,2.11-1.55,3.58-2.61c1.81-1.32,3.83-2.79,5.26-3.87,1.7-1.27,7.67-3.82,12.48-5.87l.38-.16,2.6-1.17a6,6,0,0,0,3.56-5.15l.22-3.5c.4-6.71.73-11.94,1.07-13.06.16-.54.34-1.05.54-1.58C81.63,24.49,82.76,21.4,82.48,12.47Zm-7,38.15h0Z"/><path class="cls-1" d="M122,89a1.52,1.52,0,0,1-1.14-.41c-.14-.15-.53-.71.16-1.58s2.62-3.28,2.36-4.57a3,3,0,0,0-1-1.57,19.84,19.84,0,0,1-1,4.1c-.3.62-.89,1.28-1.52,1.14s-.81-.75-.81-1.84,0-2.63-.05-4.45c0-2.24-.08-4.73-.08-6.52,0-2-1.55-8.29-2.79-13.33-.72-2.92-1.34-5.44-1.54-6.63-.26-1.57-.57-6.64-.9-12-.35-5.65-.71-11.49-1-12.59-.09-.38-.38-1.23-.74-2.3-2-6-4.1-12.6-2.63-14.28a1.38,1.38,0,0,1,1.36-.39h0l.73.14c3.34.62,8.39,1.54,8.65,10.91.28,9.94.81,27.34,1.08,29.46l.08.69c1.23,9.88,2,15.55,2.35,16.86a27.66,27.66,0,0,0,1.12,3.07,27.23,27.23,0,0,1,2.13,7c.28,3.31-1.06,7.26-2.87,8.47A3.62,3.62,0,0,1,122,89Zm.12-9.17a.31.31,0,0,1,.19.06,4.07,4.07,0,0,1,1.8,2.41c.29,1.44-1.19,3.52-2.51,5.18-.08.1-.34.45-.19.61s1.22.26,2.13-.35c1.4-.93,2.81-4.53,2.54-7.77A26.79,26.79,0,0,0,124,73.21,27.8,27.8,0,0,1,122.81,70c-.5-2-1.9-13.25-2.35-17l-.09-.68c-.33-2.65-1-26.8-1.09-29.54-.24-8.76-4.75-9.59-8-10.2l-.74-.14h0c-.39-.07-.56.05-.65.16-1.31,1.49,1.55,9.93,2.77,13.54.39,1.13.66,1.94.77,2.36.29,1.16.63,6.78,1,12.72.32,5.11.64,10.4.9,11.94.19,1.16.81,3.67,1.53,6.58,1.25,5.07,2.8,11.39,2.8,13.5,0,1.79,0,4.27.08,6.5,0,1.83.06,3.49.06,4.47s.19,1.1.23,1.11.41-.18.69-.74a26.08,26.08,0,0,0,1-4.49.38.38,0,0,1,.21-.28A.47.47,0,0,1,122.09,79.86Z"/><path class="cls-1" d="M116.26,84H76.74a.37.37,0,0,1-.37-.37V67.92c0-3.75,3.43-12.42,3.82-13.4.93-2.33.82-12,.79-15.19,0-.41,0-.73,0-.91s0-.77,0-1.41c-.11-3.18-.32-9.81.61-12.81,1.07-3.46.91-12.07.91-12.16a.39.39,0,0,1,.33-.38s4.54-.55,7.14-2.37c2.45-1.71,1.22-5.77,1.21-5.81a.36.36,0,0,1,0-.33.42.42,0,0,1,.3-.15h0l9.88.14a.36.36,0,0,1,.36.34s.28,4,1.31,5.8c.81,1.42,5.74,2.3,7.57,2.52a.36.36,0,0,1,.32.41c-.67,5.8,1.63,14,2.08,15.23.28.78,0,5.19-.63,12.36-.32,4.05-.63,7.87-.63,9.45,0,2,1.53,5.86,3,9.55a50.26,50.26,0,0,1,2.68,7.7c.81,4.34-.75,16.64-.81,17.17A.38.38,0,0,1,116.26,84Zm-39.14-.74h38.81c.24-2,1.49-12.77.77-16.61a49.91,49.91,0,0,0-2.63-7.57c-1.5-3.75-3.06-7.62-3.06-9.82,0-1.61.31-5.45.64-9.51.41-5.06.92-11.36.67-12-.45-1.26-2.71-9.29-2.15-15.2-1.54-.21-6.74-1-7.77-2.84A17.29,17.29,0,0,1,101,3.88l-9-.13c.28,1.24.74,4.5-1.63,6.15s-6,2.29-7.14,2.46c0,1.65.05,8.84-.95,12.06-.89,2.89-.68,9.43-.58,12.57,0,.65,0,1.15,0,1.43s0,.49,0,.9c.06,5.59,0,13.26-.85,15.48-1.4,3.49-3.76,10.18-3.76,13.12Z"/><path class="cls-1" d="M76.74,83.62s3.25,20.26,3.79,24.15a99.68,99.68,0,0,1,1.09,18.45c-.28,8.83-.55,16.62.54,20.51a50,50,0,0,1,1.62,12.73c0,4.16.54,8,0,9.87s-3.52,4.16-3,6.5,9.75,3.63,10.56.77.81-9.35.81-10.64-1.35-6.5-1.08-10.13S92.71,145.44,93,140.5,91.9,128.55,92.17,127s1.62-3.11,1.62-7,.27-16.36.55-23.37.54-13,.54-13Z"/><path class="cls-1" d="M116.26,83.62s-3.25,21.11-3.79,25.17A108.26,108.26,0,0,0,111.39,128c.27,9.21.54,17.33-.55,21.39a54,54,0,0,0-1.62,13.26c0,4.33-.54,8.39,0,10.28s3.52,4.33,3,6.77-9.75,3.79-10.56.81-.81-9.74-.81-11.1,1.35-6.76,1.08-10.55-1.62-10.83-1.89-16,1.08-12.45.81-14.07-1.62-3.25-1.62-7.31-.27-17.05-.54-24.36-.55-13.53-.55-13.53Z"/><path class="cls-2" d="M79.48,14.27a2.23,2.23,0,0,1,2-2.4l6.37-.72a.5.5,0,0,1,.35.14c.82.86,5.2,5.19,9.58,5.19,4,0,8.2-3.79,9.54-4.87a1.12,1.12,0,0,1,1.1-.18l5.8,2.12a1.14,1.14,0,0,1,.73,1.25l-4.3,29.68a5.32,5.32,0,0,0,.52,3.14c4.06,8,23.27,46.33,25,56.81,2,11.72,6.81,52.23,13.61,58.63s10.69,6.4,12.64,7.46,3.4,3.92-10.7,6.4c-23.56,4.15-24.29,6.39-44.71,4.26s-27.21,0-45.68-2.13-20.41-7.46-27.21-13.86-10.69-7.46-11.67-8.53,12.64-73.55,17.5-85.28,36-18.12,38.88-26.65C81.18,37.75,80,20.37,79.48,14.27Z"/><path class="cls-1" d="M119.82,183a125.14,125.14,0,0,1-12.94-.83c-20.47-2.14-27.26,0-45.69-2.13-15.81-1.83-20-6.13-24.78-11.12-.94-1-1.91-2-3-3a46.4,46.4,0,0,0-9.73-7.24,8.27,8.27,0,0,1-2-1.35c-.43-.47-.69-.75,1.4-13,1.24-7.31,3-17,4.92-26.54C29.8,108.74,35.89,78.52,39,71c2.75-6.62,12.78-11.34,22.47-15.9,7.8-3.66,15.17-7.12,16.39-10.69,2.35-6.88,1.08-24.74.63-30a3.19,3.19,0,0,1,2.85-3.47l6.48-.74a1.44,1.44,0,0,1,1.07.46c.48.49,4.8,4.88,8.86,4.88,3.68,0,7.52-2.86,8.61-3.74.59-.47,1.67-1.51,2.38-1.25l5.79,2.12A2.13,2.13,0,0,1,115.9,15l-4.3,29.67a4.32,4.32,0,0,0,.43,2.55c3.88,7.67,23.33,46.44,25.09,57.09.32,1.89.71,4.54,1.16,7.61,2.17,14.72,6.69,45.33,12.15,50.47,5,4.7,8.32,5.82,10.52,6.55a12.05,12.05,0,0,1,1.91.76,2.74,2.74,0,0,1,1.72,2.77c-.24,1.43-1.82,3.56-12.71,5.48-5.85,1-10.36,1.95-14,2.7C130.56,182.1,126.2,183,119.82,183ZM23.36,156.17c.29.21.77.48,1.3.78a48,48,0,0,1,10.11,7.52c1.13,1.06,2.12,2.08,3.07,3.07,4.74,4.91,8.48,8.78,23.58,10.52a171.67,171.67,0,0,0,22,1.06,204.58,204.58,0,0,1,23.68,1.07c15.18,1.59,19.32.74,30.4-1.54,3.63-.75,8.16-1.68,14-2.71,10.65-1.88,11.08-3.77,11.1-3.84s-.19-.42-.71-.71a10.27,10.27,0,0,0-1.6-.61c-2.21-.75-5.92-2-11.24-7-5.5-5.17-9.47-29.36-12.75-51.62-.46-3.06-.85-5.7-1.16-7.57-1.72-10.37-21-48.9-24.91-56.52a6.29,6.29,0,0,1-.62-3.72l4.31-29.69a.17.17,0,0,0-.09-.18l-5.8-2.12a.13.13,0,0,0-.13,0c-1.57,1.26-6,5.09-10.17,5.09-4.51,0-8.9-4.07-10.11-5.3l-6.07.69a1.23,1.23,0,0,0-1.1,1.33h0c.58,6.93,1.68,23.82-.73,30.86-1.5,4.37-8.87,7.84-17.42,11.85-8.92,4.2-19,8.95-21.48,14.86C36.24,82.85,23.43,150.43,23.36,156.17Z"/><path class="cls-1" d="M50.05,65.21a.74.74,0,0,1-.52-.19c-.5-.41-.32-1.28,0-1.9a14.93,14.93,0,0,1,2.06-2.63.43.43,0,0,0,.07-.48.4.4,0,0,0-.4-.24h-.1a.35.35,0,0,1-.4-.34.36.36,0,0,1,.34-.4h.12a1.13,1.13,0,0,1,1.11.66,1.15,1.15,0,0,1-.19,1.3,15.06,15.06,0,0,0-2,2.47c-.28.56-.24.94-.18,1s.33,0,1-.49,2.11-1.55,3.58-2.61c1.72-1.25,3.62-2.64,5-3.7a2.43,2.43,0,0,0,.38-.34L74.82,48a.37.37,0,1,1,.39.63L60.5,57.89a2.52,2.52,0,0,1-.4.36c-1.42,1.06-3.33,2.45-5.05,3.7-1.47,1.06-2.8,2-3.57,2.61A2.62,2.62,0,0,1,50.05,65.21Z"/><path class="cls-3" d="M74.42,48.08c.42-.43-8,2-8.54,2.21l-5.44,2.32c-2,.87-7.19,1.69-9.95,3.43l-.22,2.49a.8.8,0,0,0,.85.88h.11a.8.8,0,0,1,.63,1.34,15.61,15.61,0,0,0-2,2.55c-.54,1.08-.32,2.27,1.41,1s6-4.34,8.61-6.31a2.6,2.6,0,0,0,.43-.38Z"/><path class="cls-1" d="M47.38,64.45C47.9,62.4,48.68,60,50,59.33a2.66,2.66,0,0,1,2.56.15.36.36,0,0,1,.23.26.41.41,0,0,1-.1.34,27.62,27.62,0,0,0-2.52,3.38c-.28.56-.24.94-.18,1s.33,0,1-.49,2.11-1.55,3.58-2.61c1.81-1.32,3.83-2.79,5.26-3.87,1.7-1.27,3.25-2.11,8.05-4.16l.29.68c-4.76,2-6.27,2.86-7.89,4.08-1.43,1.08-3.46,2.55-5.27,3.87-1.47,1.06-2.79,2-3.57,2.61s-1.53.82-1.95.46-.32-1.28,0-1.9A16.78,16.78,0,0,1,51.73,60c-.48-.1-.76-.32-1.4,0-1.19.57-1.67,2.53-1.93,3.53ZM45.26,63.1c-.13-2.16,2.22-5.61,5-7.38a27.58,27.58,0,0,1,6.89-2.5,29.52,29.52,0,0,0,3.12-.95c1-.41,4.37-2.27,9.84-5.38a5.48,5.48,0,0,0,2.78-4.59l.75,0a6.22,6.22,0,0,1-3.16,5.22c-5.58,3.17-8.91,5-9.92,5.42a30.56,30.56,0,0,1-3.22,1,26.75,26.75,0,0,0-6.68,2.41c-2.8,1.76-4.79,5-4.69,6.71Z"/></svg>