<svg id="图层_1" data-name="图层 1" xmlns="http://www.w3.org/2000/svg" viewBox="0 0 186 186"><defs><style>.cls-1{fill:#fff;}.cls-2{fill:#5b3b2f;}.cls-3{fill:#f9e6ed;}</style></defs><path class="cls-1" d="M96,128.83s9.84,25.63,11.69,29.81c.94,2.13,2.38,3.46,2,5.77-.44,2.48-.48,3.33,0,3.94,1.61,2.05,3.56,3,5.41,5.12,3.76,4.37,7.15,8.67,9.11,8.67,2.92,0,5.51-1.86,4.85-4.86s-1.36-2.76-4.83-6.51-5-5.34-6.21-6.36-1.78-2.7-3.53-10.45-6.11-27.69-6.11-27.69Z"/><path class="cls-1" d="M70,119.73s-.38,16.08,1,24.21A147.83,147.83,0,0,1,73,161c0,2.46.28,5.21-2,9s-8.51,9.46-6.43,10.78,6.81,4,11.35-.94,7-4.35,6.43-8.71-3-8.89-1.89-17.21,5.3-23.46,4.73-34.06,0-15.32,0-15.32l-16.84-.57Z"/><path class="cls-1" d="M112.67,12.16c3.38.68,8.8.95,9.07,10.69s.82,27.32,1.09,29.49,1.89,15.42,2.43,17.58,3,6.77,3.25,10-1.08,7-2.71,8.12-3.51.54-2.43-.81,2.7-3.52,2.43-4.87a3.78,3.78,0,0,0-1.62-2.17,25.82,25.82,0,0,1-1.08,4.6c-.54,1.09-1.63,1.63-1.63-.54s-.13-7.71-.13-11-4-11.64-5-21.36c-.32-3.27-.7-21.12-1.24-23.28S108.58,11.35,112.67,12.16Z"/><path class="cls-1" d="M84.94,12S76.28,13.11,76,22.85s-.81,27.32-1.08,29.49S73,67.76,72.49,69.92s-3,6.77-3.25,10,1.09,7,2.71,8.12,3.52.54,2.43-.81-2.7-3.52-2.43-4.87a3.78,3.78,0,0,1,1.62-2.17,25.18,25.18,0,0,0,1.09,4.6c.54,1.09,1.62,1.63,1.62-.54s.13-7.71.13-11,3.79-16.78,4.33-20S82,30.8,82.64,28.67C83.58,25.56,85.34,23.26,84.94,12Z"/><path class="cls-1" d="M93.59,3.37S95,7.7,92.24,9.59,84.94,12,84.94,12s.17,8.71-.93,12.27-.56,12.48-.56,14.11.27,13.52-.81,16.23-3.79,10-3.79,13.25v15.7h39.5s1.62-12.72.81-17S113.48,53,113.48,49.23s1.76-20.35,1.28-21.68S112,18,112.67,12.16c0,0-6.77-.81-7.85-2.7s-1.35-6-1.35-6Z"/><path class="cls-2" d="M124.14,182.51c-1.89,0-4.6-3.18-8-7.21l-1.36-1.59a20,20,0,0,0-2.65-2.47,17.29,17.29,0,0,1-2.77-2.66c-.57-.73-.52-1.65-.07-4.24.27-1.52-.35-2.61-1.06-3.86-.3-.53-.61-1.07-.89-1.69-1.83-4.15-11.59-29.57-11.69-29.83a.37.37,0,0,1,.27-.49l12.34-2.55a.37.37,0,0,1,.44.28c0,.2,4.38,20,6.11,27.68,1.78,7.87,2.36,9.33,3.41,10.25a87.23,87.23,0,0,1,6.24,6.39c1,1,1.73,1.79,2.33,2.38,1.53,1.49,2.1,2,2.59,4.3a3.92,3.92,0,0,1-.73,3.42A5.74,5.74,0,0,1,124.14,182.51ZM96.46,129.1c1.26,3.29,9.83,25.55,11.53,29.39a14.54,14.54,0,0,0,.85,1.62c.75,1.33,1.46,2.58,1.14,4.36-.43,2.46-.44,3.18-.07,3.66a16.73,16.73,0,0,0,2.66,2.54,20.65,20.65,0,0,1,2.74,2.56l1.36,1.59c3,3.58,5.92,7,7.47,7a5,5,0,0,0,3.91-1.61,3.23,3.23,0,0,0,.59-2.8c-.45-2-.9-2.48-2.39-3.94-.61-.59-1.37-1.34-2.36-2.41a86.63,86.63,0,0,0-6.18-6.32c-1.28-1.13-1.9-2.92-3.65-10.64-1.6-7.09-5.44-24.62-6-27.34Z"/><path class="cls-2" d="M70.16,183a10.83,10.83,0,0,1-5.76-1.95,1.23,1.23,0,0,1-.57-.85c-.22-1.39,1.61-3.64,3.74-6.24a42.79,42.79,0,0,0,3.15-4.19,13.57,13.57,0,0,0,1.94-8.06V161a146.61,146.61,0,0,0-2.08-17c-1.29-7.93-1-23.56-.95-24.26L68,104a.38.38,0,0,1,.09-.29.34.34,0,0,1,.28-.12l16.84.57a.35.35,0,0,1,.27.13.37.37,0,0,1,.09.28s-.56,4.83,0,15.26c.39,7.41-1.53,17.14-3.08,25-.67,3.41-1.31,6.64-1.66,9.17a31.37,31.37,0,0,0,1.06,13.18,36.69,36.69,0,0,1,.84,3.94c.4,3.06-.69,3.92-2.66,5.48a30.69,30.69,0,0,0-3.87,3.52A8.16,8.16,0,0,1,70.16,183Zm-1.37-78.69,1.57,15.38v0c0,.16-.36,16.14.94,24.14A148,148,0,0,1,73.38,161v.74a14.1,14.1,0,0,1-2,8.44,40.89,40.89,0,0,1-3.22,4.28c-1.75,2.15-3.74,4.59-3.57,5.65a.46.46,0,0,0,.24.35c1.56,1,6.33,4,10.88-.88A31.66,31.66,0,0,1,79.63,176c1.93-1.54,2.73-2.17,2.39-4.82a33.73,33.73,0,0,0-.82-3.85,32.3,32.3,0,0,1-1.07-13.46c.35-2.55,1-5.79,1.66-9.22,1.54-7.77,3.46-17.45,3.06-24.77a112.24,112.24,0,0,1,0-15Z"/><path class="cls-2" d="M124.06,89a1.5,1.5,0,0,1-1.14-.41c-.13-.15-.53-.71.16-1.57s2.62-3.28,2.36-4.57a2.9,2.9,0,0,0-1-1.57,20.84,20.84,0,0,1-1,4.1c-.31.61-.88,1.28-1.52,1.13s-.8-.75-.8-1.84,0-2.62-.06-4.44c0-2.24-.08-4.73-.08-6.51A28.17,28.17,0,0,0,119.43,67,77.73,77.73,0,0,1,116,52c-.13-1.32-.27-4.88-.43-9-.22-5.78-.49-13-.81-14.24-.1-.39-.38-1.23-.75-2.31-2-6-4.09-12.58-2.62-14.26a1.34,1.34,0,0,1,1.35-.39h0l.73.14c3.34.62,8.38,1.54,8.64,10.9.28,9.94.82,27.33,1.08,29.45l.09.7c1.22,9.87,2,15.53,2.34,16.84a27.66,27.66,0,0,0,1.12,3.07,27.23,27.23,0,0,1,2.13,7c.28,3.3-1.06,7.25-2.86,8.46A3.65,3.65,0,0,1,124.06,89Zm.12-9.15a.34.34,0,0,1,.19,0,4.11,4.11,0,0,1,1.79,2.41c.29,1.44-1.19,3.52-2.51,5.17-.08.1-.34.45-.19.62s1.21.27,2.14-.35c1.43-.95,2.82-4.48,2.54-7.78a26.92,26.92,0,0,0-2.09-6.79A31.37,31.37,0,0,1,124.9,70c-.5-2-1.89-13.24-2.35-16.93l-.09-.69c-.27-2.16-.81-19.58-1.08-29.53-.25-8.76-4.75-9.59-8-10.2l-.74-.14c-.39-.07-.56.05-.65.16-1.32,1.49,1.55,9.93,2.77,13.54.38,1.13.66,2,.76,2.36.34,1.33.6,8.27.84,14.39.15,3.93.29,7.65.42,8.94a75.44,75.44,0,0,0,3.41,14.9,28.64,28.64,0,0,1,1.57,6.5c0,1.78,0,4.26.07,6.49,0,1.83.06,3.49.06,4.46s.23,1.12.24,1.12.41-.18.69-.74a24.67,24.67,0,0,0,1-4.49.35.35,0,0,1,.2-.28A.45.45,0,0,1,124.18,79.84Z"/><path class="cls-2" d="M73.69,89a3.55,3.55,0,0,1-1.94-.64c-1.81-1.2-3.15-5.15-2.87-8.45a27.26,27.26,0,0,1,2.14-7,27.26,27.26,0,0,0,1.11-3.07c.34-1.32,1.13-7,2.36-16.94l.07-.6c.27-2.13.8-19.51,1.08-29.45a11.08,11.08,0,0,1,9.25-11.18.38.38,0,0,1,.41.36c.34,9.39-.84,12.62-1.78,15.21-.19.52-.37,1-.53,1.54-.35,1.14-.73,7.68-1.07,13.46-.29,5-.57,9.64-.82,11.12-.19,1.19-.82,3.71-1.54,6.64-1.24,5-2.78,11.29-2.78,13.32,0,1.78,0,4.27-.08,6.51,0,1.82,0,3.47,0,4.44s-.27,1.71-.81,1.84-1.21-.52-1.51-1.13a20.16,20.16,0,0,1-1-4.1,3,3,0,0,0-1,1.57C72.05,83.73,74,86.2,74.67,87s.3,1.42.16,1.57A1.49,1.49,0,0,1,73.69,89ZM84.58,12.46c-1.68.34-8,2.17-8.21,10.4-.27,10-.81,27.36-1.08,29.53l-.07.59c-1.24,10-2,15.68-2.37,17a27.8,27.8,0,0,1-1.15,3.17A26.73,26.73,0,0,0,69.61,80c-.27,3.25,1.14,6.85,2.54,7.78.93.62,1.89.62,2.14.35s-.11-.52-.19-.62c-1.32-1.65-2.8-3.73-2.51-5.17a4.11,4.11,0,0,1,1.79-2.41.39.39,0,0,1,.35,0,.38.38,0,0,1,.21.28,25.15,25.15,0,0,0,1,4.49c.28.56.6.77.7.74s.23-.13.23-1.12,0-2.63.06-4.46c0-2.23.08-4.71.08-6.49,0-2.12,1.55-8.43,2.8-13.5.72-2.91,1.34-5.42,1.53-6.58.24-1.45.51-6.11.81-11,.35-6.11.73-12.41,1.1-13.63.16-.53.34-1,.54-1.58C83.74,24.48,84.87,21.39,84.58,12.46Z"/><path class="cls-2" d="M118.35,84H78.85a.37.37,0,0,1-.37-.36V67.89c0-3.75,3.42-12.41,3.82-13.39.93-2.33.82-12,.79-15.18,0-.42,0-.73,0-.91s0-.77,0-1.41c-.1-3.18-.31-9.81.62-12.81,1.07-3.46.91-12.07.91-12.15a.37.37,0,0,1,.32-.38s4.54-.55,7.14-2.37,1.22-5.77,1.21-5.81a.39.39,0,0,1,.06-.33A.33.33,0,0,1,93.6,3l9.87.14a.36.36,0,0,1,.36.34s.28,4,1.31,5.8c.81,1.42,5.74,2.3,7.57,2.52a.36.36,0,0,1,.32.41c-.67,5.8,1.63,14,2.08,15.22.28.79,0,5.19-.63,12.35-.33,4-.64,7.87-.64,9.45,0,2.05,1.53,5.86,3,9.55a50,50,0,0,1,2.67,7.69c.81,4.34-.74,16.64-.81,17.16A.36.36,0,0,1,118.35,84Zm-39.13-.73H118c.25-2,1.5-12.77.78-16.61a49,49,0,0,0-2.64-7.56c-1.5-3.75-3-7.62-3-9.82,0-1.61.31-5.44.64-9.51.41-5,.91-11.35.67-12-.45-1.26-2.72-9.28-2.16-15.2-1.53-.21-6.73-1-7.76-2.84-.94-1.64-1.28-4.74-1.37-5.77l-9.06-.12c.28,1.23.75,4.49-1.62,6.15a18.73,18.73,0,0,1-7.14,2.45c0,1.64,0,8.84-1,12.06-.9,2.88-.68,9.42-.58,12.56,0,.66,0,1.16,0,1.44v.9c.06,5.58,0,13.25-.84,15.46-1.4,3.5-3.76,10.19-3.76,13.12Z"/><path class="cls-3" d="M115.09,53.51a7.94,7.94,0,0,1-.66-3.67l2.77-34a1.39,1.39,0,0,0-.79-1.44l-5.88-2.28a1,1,0,0,0-1.09.25c-1.29,1.32-5.11,4.84-9.06,5-4.37.16-8.93-4.77-9.79-5.74a.43.43,0,0,0-.35-.16l-6.33,1.08A2.55,2.55,0,0,0,82,15.46c1.15,10.69.52,22-.79,32.77a9.46,9.46,0,0,1-.65,3.21c-.3.53-.73,1-1.08,1.52-8.19,11.6-15.32,23.92-23,35.85C49.18,100.14,40.23,110.55,34.83,123a21.59,21.59,0,0,0-2,6.91c-.46,6.47,4.68,9.89,10,12.09,11,4.59,23,6.6,34.91,7.16a210.48,210.48,0,0,0,23-.35c6.65-.42,15,.19,21.23-2.35a37,37,0,0,1,6-2.34c2.69-.58,5.47-.16,8.21,0,5.91.3,11.82.13,15.55-4.84,2.85-3.8.6-7.21-.77-11.2C147.07,116.63,116.51,56.92,115.09,53.51Z"/><path class="cls-2" d="M85.47,150.34c-2.69,0-5.26-.05-7.75-.17-13.51-.63-25-3-35.23-7.23-2.77-1.15-11.2-4.65-10.6-13.07a22.23,22.23,0,0,1,2-7.22c3.74-8.67,9.24-16.43,14.56-23.93,2.41-3.4,4.89-6.91,7.18-10.44,2.68-4.16,5.33-8.43,7.9-12.57C68.39,68,73.37,60,78.72,52.39l.39-.52a7.87,7.87,0,0,0,.63-.91,6.48,6.48,0,0,0,.47-2.25c0-.21.05-.41.07-.6,1.53-12.59,1.79-23.23.78-32.55a3.51,3.51,0,0,1,2.68-4l6.46-1.1a1.43,1.43,0,0,1,1.13.49c.49.56,4.88,5.42,8.85,5.42h.17c3.64-.14,7.35-3.63,8.39-4.69a2,2,0,0,1,2.15-.48l5.9,1.26A2.36,2.36,0,0,1,118.2,15l-2.79,35a6.88,6.88,0,0,0,.58,3.21h0c.39.94,3.3,6.75,7,14.11,9.78,19.55,26.13,52.27,29,60.53.24.68.5,1.34.75,2,1.26,3.22,2.57,6.55-.12,10.13-4,5.38-10.3,5.53-16.38,5.23l-1.83-.12a21.15,21.15,0,0,0-6.12.12,21.51,21.51,0,0,0-4.12,1.53c-.57.26-1.15.52-1.73.76-4.82,2-10.93,2.11-16.33,2.23-1.83,0-3.57.08-5.21.18C95.17,150.17,90.13,150.34,85.47,150.34ZM90.05,12.5l-6,1A1.59,1.59,0,0,0,83,15.35c1,9.47.77,20.26-.79,33l-.06.57a7.81,7.81,0,0,1-.71,3,10.39,10.39,0,0,1-.78,1.14l-.35.46C75,61.05,70,69,65.25,76.75c-2.58,4.14-5.24,8.42-7.93,12.59-2.3,3.57-4.8,7.1-7.22,10.51-5.26,7.42-10.7,15.1-14.37,23.57A21.05,21.05,0,0,0,33.84,130c-.34,4.78,2.65,8.31,9.4,11.12,10,4.14,21.29,6.46,34.57,7.08a208.38,208.38,0,0,0,22.92-.35c1.68-.11,3.43-.15,5.29-.19,5.48-.12,11.15-.25,15.62-2.09.57-.23,1.12-.48,1.68-.73a23.21,23.21,0,0,1,4.5-1.65,23.14,23.14,0,0,1,6.69-.17c.59.05,1.19.09,1.78.12,5.78.29,11.26.17,14.71-4.44,2-2.71,1.08-5.15-.13-8.24-.27-.67-.54-1.36-.78-2.06-2.81-8.14-19.13-40.79-28.88-60.3-4-8-6.61-13.22-7-14.22h0a9,9,0,0,1-.73-4.13l2.8-35a.46.46,0,0,0-.17-.45l-5.9-1.26c-1.55,1.55-5.51,5.14-9.76,5.29h-.25C95.78,18.37,91.54,14.15,90.05,12.5Z"/><path class="cls-1" d="M122.83,52.34c.27,2.16,1.89,15.42,2.43,17.58s3,6.77,3.25,10-1.08,7-2.71,8.12-3.51.54-2.43-.81,2.7-3.52,2.43-4.87a3.78,3.78,0,0,0-1.62-2.17,25.82,25.82,0,0,1-1.08,4.6c-.54,1.09-1.63,1.63-1.63-.54s-.13-7.71-.13-11-2.06-6.79-5-20.39Z"/><path class="cls-2" d="M124.06,89a1.5,1.5,0,0,1-1.14-.41c-.13-.15-.53-.71.16-1.57s2.62-3.28,2.36-4.57a3,3,0,0,0-1-1.58,21,21,0,0,1-1,4.11c-.31.61-.88,1.28-1.52,1.13s-.8-.75-.8-1.84,0-2.62-.06-4.44c0-2.24-.08-4.73-.08-6.51,0-1.57-.47-3.24-1.33-6.28s-2.09-7.39-3.55-14.22a.37.37,0,1,1,.72-.15c1.46,6.81,2.66,11.06,3.54,14.17s1.36,4.81,1.36,6.48,0,4.26.07,6.49c0,1.83.06,3.49.06,4.46s.23,1.12.24,1.12.41-.18.69-.74a26.33,26.33,0,0,0,1-4.49.35.35,0,0,1,.2-.28.39.39,0,0,1,.35,0,4.11,4.11,0,0,1,1.79,2.41c.29,1.44-1.19,3.52-2.51,5.17-.08.1-.34.45-.19.62s1.21.27,2.14-.35c1.43-.95,2.82-4.48,2.54-7.78a26.92,26.92,0,0,0-2.09-6.79A31.37,31.37,0,0,1,124.9,70c-.5-2-1.89-13.24-2.35-16.93l-.09-.69a.38.38,0,0,1,.32-.42.36.36,0,0,1,.41.32l.09.7c1.22,9.87,2,15.53,2.34,16.84a27.66,27.66,0,0,0,1.12,3.07,27.23,27.23,0,0,1,2.13,7c.28,3.3-1.06,7.25-2.86,8.46A3.65,3.65,0,0,1,124.06,89Z"/></svg>