<svg id="图层_1" data-name="图层 1" xmlns="http://www.w3.org/2000/svg" viewBox="0 0 186 186"><defs><style>.cls-1{fill:#f3e1e7;}.cls-2{fill:#fff;}.cls-3{fill:#5b3b2f;}</style></defs><path class="cls-1" d="M148.11,56.65a5.07,5.07,0,0,0-.31-1.5,27,27,0,0,0-1-3l-.09-.17c-2-3.51-1.85-3.15-4.27-5.08a3.51,3.51,0,0,0-.4-.27c-.24-.12-.46-.3-.7-.44-3.14-1.83-5.65-2.37-10-2.32-5.14.06-10.16.62-15.25.61-.76,0-1.36-.17-1.46-1.16-.42-4.08-.89-8.15-1.22-12.23-.31-3.64-.31-7.32-.73-10.94-.22-1.92-.24-4.16-1.49-5.74A4.37,4.37,0,0,0,109.22,13l-1.06-.38a4.66,4.66,0,0,0-1-.21c-1.31-.15-2.63-.25-3.94-.37-.7-.06-1.39-.18-2.08-.3a35.58,35.58,0,0,1-4.32-1c-.93-.3-2.39-.69-2.92-1.61-1.09-1.91-1.36-6-1.36-6L82.55,3s1.36,4.36-1.37,6.27a13.68,13.68,0,0,1-4.82,2,33.19,33.19,0,0,0-3.29.71,20,20,0,0,0-3,1.39c-1,.53-1.93,1.1-2.85,1.72a33.39,33.39,0,0,0-3,2.27A4.83,4.83,0,0,0,62.44,20c-.29,1.69-.58,4.77-.82,8.11-.43,3.67-.73,7-.73,7.38,0,.73-4.24-10.54-4.26-11.26a12.86,12.86,0,0,1,.31-3c.23-.73.7-2,1.17-3.16s1.08-2.07,1.31-2.8,0-1.44-.53-1.19a9.26,9.26,0,0,0-1.57,2.07S57,14.65,57,14.41s-.16-1.32.35-1.09a15,15,0,0,0,2.5.44s1.74-.27.73-.74a4.35,4.35,0,0,0-1.26-.46l1.47-1.23s.23-1-.76-.71a15.48,15.48,0,0,1-3.24.29c-.75,0-1-.22-1.75,0s-.62.14-2.1.64c-.94.32-1.37.15-2,.76a4.08,4.08,0,0,0-.77,4.23c2.24,5.15,4.28,22.85,4.58,25A64.79,64.79,0,0,0,56.5,50c.53,1.44,2.36,5,3.12,5.5s2.25.2,4-1.76S66,49,66.9,46.69c1.14-2.77,4.65-11.24,5.37-17.93.77-7.18.06,8.41.06,9.52,0,1.63.27,13.62-.82,16.34S67.7,64.7,67.7,68v15.8S71,105,71.51,109.1a107.56,107.56,0,0,1,1.09,19.34c-.27,9.26-.54,17.43.55,21.52a54.3,54.3,0,0,1,1.63,13.35c0,4.36.55,8.44,0,10.35s-3.54,4.36-3,6.81,9.8,3.81,10.62.82.82-9.81.82-11.17-1.36-6.81-1.09-10.63,1.63-10.89,1.9-16.07-1.09-12.53-.81-14.16,1.63-3.27,1.63-7.36.27-17.16.55-24.51S86,83.77,86,83.77h3.27s.27,6.26.54,13.62.55,20.43.55,24.51,1.36,5.72,1.63,7.36-1.09,9-.81,14.16,1.63,12.26,1.9,16.07-1.09,9.27-1.09,10.63,0,8.17.82,11.17,10.08,1.63,10.62-.82-2.45-4.9-3-6.81,0-6,0-10.35A54.3,54.3,0,0,1,102,150c1.09-4.09.82-12.26.55-21.52a108.52,108.52,0,0,1,1.09-19.34c.54-4.09,3.81-25.33,3.81-25.33s1.64-12.81.82-17.16S102.57,53,102.57,49.17c0-3,1.12-14.22,1.34-19.33.92,4.26,3.3,13.69,3.42,14.58a24.77,24.77,0,0,0,2,6.2A2.47,2.47,0,0,0,111.12,52a1.36,1.36,0,0,0,.29,0,74.19,74.19,0,0,0,17.77-1.86,26.55,26.55,0,0,1,5.58-1.07c5.05,0,4.25,2.71,6.64,4.52a11.16,11.16,0,0,1,1.33.8c1.68,2.3,1.35,2.12,2.14,2.72a.27.27,0,0,0,.42-.29c-.12-.52-.32-1.32-.42-1.68a.54.54,0,0,1,.48-.66.79.79,0,0,1,.53.35c-.07.9-.23,2.87-.23,3.28s.53,1.86.8,1.06c.11-.33.31-1.08.5-1.89.33.75.83,2.31,1.12,1.69A8.2,8.2,0,0,0,148.11,56.65Z"/><path class="cls-2" d="M141.64,153.75c-3.22-.26-6.53-.28-7.94,1-1.93,1.76,1.49,6.14-.93,7.93a2.4,2.4,0,0,1-1.14.37c-8.76,1.22-17.9.06-26.78-.71a116,116,0,0,0-26.21.77c-6.24.85-12.26-.15-18.34-1.31-3.46-.67-6.9-1.29-10-3.21a63.69,63.69,0,0,0-6-3.14c-1-.47-2.11-.61-3.14-1A2.9,2.9,0,0,1,39,151.38a1.59,1.59,0,0,0-1.37-1.72A9.63,9.63,0,0,1,33.17,147a3.7,3.7,0,0,1-1-3c.22-1.81-.4-2.35-.91-4-.64-2.08-.33-2.76.44-5.2,8.19-26.14,12.13-57.16,31.54-78a24.09,24.09,0,0,0,5.24-7.84c1.54-3.9,2.82-8,2.52-12.26A81.1,81.1,0,0,0,68.43,23.3c-.25-1-.47-2.06-.76-3.07s-.65-1.9-.91-2.87-.43-1.87.36-2.35a47.62,47.62,0,0,1,9.18-4.29c1.58-.59,3.17.63,4.41,1.52a14.7,14.7,0,0,0,3.65,2.21,6.9,6.9,0,0,0,2.07.34,14.12,14.12,0,0,0,2.43-.1,10.8,10.8,0,0,0,2.28-.6,17,17,0,0,0,1.76-.76,4.75,4.75,0,0,0,1-.74c.69-.67,1.3-1.42,2-2.09,1.22-1.2,2.71-1.2,4.4-.63,1,.33,2,.72,2.94,1.13,1.48.63,2.91,1.38,4.34,2.12,1.09.55,1.94,1.13,2.07,2.5a16.83,16.83,0,0,1-.19,3.17c-.13,1.26-.27,2.52-.41,3.78a130.18,130.18,0,0,0-1.17,15.65c0,2.51-.13,5.53.9,7.84,1.16,2.63,4.14,6.08,5.83,8.23,19.78,25.21,34.65,55.48,39.45,87.36.29,1.95.55,3.9.75,5.86.27,2.47-.13,4.93-2.6,6.06a10.2,10.2,0,0,1-4,.73C146.82,154.33,144.26,154,141.64,153.75Z"/><path class="cls-3" d="M123.3,164.59c-5,0-10-.47-15-.92l-3.56-.33a115.36,115.36,0,0,0-26,.77c-6.33.86-12.44-.13-18.66-1.32l-.23,0c-3.4-.65-6.92-1.32-10.13-3.29a62.23,62.23,0,0,0-5.86-3.09,9.62,9.62,0,0,0-1.67-.55c-.46-.12-.93-.24-1.38-.4a3.86,3.86,0,0,1-2.85-4.1c0-.31,0-.52-.64-.7a10.53,10.53,0,0,1-4.91-2.92,4.67,4.67,0,0,1-1.23-3.84,3.77,3.77,0,0,0-.39-2.27,13.51,13.51,0,0,1-.49-1.32c-.68-2.23-.38-3.19.29-5.3l.15-.49c1.91-6.09,3.55-12.31,5.29-18.91,5.62-21.3,11.43-43.33,26.48-59.49a23.16,23.16,0,0,0,5-7.53C69,44.89,70.34,40.93,70,36.73a70.26,70.26,0,0,0-2.18-11.59l-.61-2.48c-.17-.73-.34-1.45-.54-2.17-.12-.44-.27-.88-.42-1.31s-.35-1-.49-1.56c-.21-.77-.68-2.56.8-3.46a47.22,47.22,0,0,1,9.09-4.28l.26-.1c2-.74,3.82.56,5.15,1.51l.67.48a11.73,11.73,0,0,0,2.92,1.74,6.36,6.36,0,0,0,1.78.28,11.92,11.92,0,0,0,2.25-.1,8.61,8.61,0,0,0,2.06-.54,14.34,14.34,0,0,0,1.65-.7,3.64,3.64,0,0,0,.82-.58c.33-.32.65-.67,1-1s.67-.73,1-1.08c1.38-1.34,3.15-1.62,5.42-.86.9.31,1.85.67,3,1.16,1.39.59,2.75,1.29,4.06,2l.35.18a4,4,0,0,1,2.6,3.3,13.67,13.67,0,0,1-.12,2.8l-.06.56c-.13,1.27-.27,2.53-.42,3.8l-.06.57a123.92,123.92,0,0,0-1.1,15v1c0,2.17,0,4.61.8,6.44a37.31,37.31,0,0,0,4.71,6.77l1,1.24c21.4,27.27,35.12,57.64,39.66,87.83.29,1.95.55,3.93.76,5.91.38,3.55-.69,5.93-3.19,7.07a11.18,11.18,0,0,1-4.37.82,36.12,36.12,0,0,1-4-.29c-.88-.09-1.82-.19-2.77-.27h0c-1.44-.11-5.85-.47-7.19.76-.49.45-.26,1.58,0,2.78.36,1.74.8,3.89-1,5.21a3.29,3.29,0,0,1-1.6.56A61.36,61.36,0,0,1,123.3,164.59Zm-27.95-3.65c3.23,0,6.42.13,9.59.41l3.57.33c7.62.7,15.5,1.43,23,.39a1.67,1.67,0,0,0,.69-.19c.7-.52.55-1.55.21-3.2s-.7-3.44.63-4.66c1.75-1.6,5.38-1.54,8.7-1.27h0c1,.08,1.92.18,2.81.27a35.29,35.29,0,0,0,3.71.28,9.33,9.33,0,0,0,3.59-.64c1-.48,2.41-1.53,2-5-.21-2-.46-3.9-.75-5.82-4.49-29.85-18.06-59.9-39.25-86.89-.29-.38-.63-.79-1-1.23a38.07,38.07,0,0,1-5-7.21c-1-2.21-1-4.89-1-7.25v-1A127.17,127.17,0,0,1,108,23l.06-.57q.22-1.89.42-3.78l.06-.58a11.54,11.54,0,0,0,.12-2.39c-.07-.83-.51-1.18-1.53-1.71l-.34-.17c-1.28-.66-2.61-1.34-3.94-1.91-1.1-.46-2-.81-2.86-1.1-1.55-.52-2.56-.4-3.39.39-.32.32-.63.66-.94,1s-.69.74-1,1.09a5.5,5.5,0,0,1-1.28.92,15.56,15.56,0,0,1-1.86.8,11.52,11.52,0,0,1-2.51.66,15,15,0,0,1-2.61.11A8.61,8.61,0,0,1,84,15.4a13.33,13.33,0,0,1-3.43-2l-.66-.47c-1.07-.77-2.29-1.64-3.29-1.27l-.26.1a46.17,46.17,0,0,0-8.75,4.11c-.14.09-.11.51.09,1.25.13.48.29.95.45,1.42s.32.95.46,1.43c.2.74.38,1.49.56,2.24l.6,2.46A71.56,71.56,0,0,1,72,36.59c.33,4.61-1.12,9-2.58,12.69A25.26,25.26,0,0,1,64,57.44C49.31,73.24,43.56,95,38,116.08c-1.67,6.33-3.4,12.86-5.32,19l-.15.49c-.64,2-.79,2.48-.29,4.11.15.46.3.82.43,1.15a5.65,5.65,0,0,1,.52,3.27,2.72,2.72,0,0,0,.69,2.22,8.55,8.55,0,0,0,4,2.38,2.56,2.56,0,0,1,2.1,2.73,1.91,1.91,0,0,0,1.53,2.1c.39.14.8.25,1.21.36a10.87,10.87,0,0,1,2,.67,63.93,63.93,0,0,1,6,3.19c2.9,1.78,6.09,2.39,9.47,3l.22,0c6.05,1.16,12,2.13,18,1.31A123.17,123.17,0,0,1,95.35,160.94Z"/></svg>