<svg id="图层_1" data-name="图层 1" xmlns="http://www.w3.org/2000/svg" viewBox="0 0 186 186"><defs><style>.cls-1{fill:#f1f1f1;}.cls-2{fill:#5b3b2f;}.cls-3{fill:#f3e1e7;}.cls-4{fill:#fff;}.cls-5{fill:#593a2e;}</style></defs><path class="cls-1" d="M158,174.58S31.34,180,28.69,162.66,67.75,94,67.75,94l51.85,1Z"/><path class="cls-2" d="M116.14,176.37c-7,0-14.41-.07-21.82-.26C50.69,175,28.9,170.64,27.7,162.81,25,145.26,65.26,95.46,67,93.35l.31-.38,52.95,1,.26.55,39.09,81-1.52.06C157.82,175.59,139.12,176.37,116.14,176.37ZM68.23,95c-3.78,4.71-41,51.6-38.55,67.51.57,3.74,9.73,10.21,64.7,11.61,27.65.71,55.38-.22,62.08-.47L119,95.94Z"/><path class="cls-3" d="M125.69,80.09c-.28-3.27-2.73-7.9-3.27-10.08S120.24,54.48,120,52.3s-.82-19.88-1.09-29.69-5.74-10.08-9.15-10.76l-.21,0c-1.15-.16-6.71-1-7.69-2.7-1.08-1.91-1.36-6-1.36-6L90.53,3s1.36,4.36-1.36,6.27-7.36,2.45-7.36,2.45-8.71,1.09-9,10.89S72,50.13,71.73,52.3,69.83,67.83,69.28,70s-3,6.81-3.27,10.08,1.09,7.08,2.73,8.17,3.54.55,2.45-.82-2.72-3.54-2.45-4.9a3.78,3.78,0,0,1,1.63-2.18A26.44,26.44,0,0,0,71.46,85c.55,1.09,1.64,1.64,1.64-.54s.13-7.77.13-11,3.82-16.89,4.36-20.16,1.25-22.64,1.91-24.79c.31-1,.71-2,1.1-3.17-.73,4.08-.28,11.5-.28,13s.27,13.62-.82,16.34S75.68,64.7,75.68,68v15.8h0c0,.49-.16,2.43-1.25,9.29l-1.67,14.77.22.11c-.58,5.28-1.88,16.93-2.27,17.45-.5.69-.93,18.54-2.75,28.94a110.44,110.44,0,0,1-4.16,16.3,6.34,6.34,0,0,1-2.33,3.13c-5.13,3.62-11.48,3.32-13.66,3.71-2.43.44-.79,2.51.43,2.3s20.8.43,23.23,0,.25-5.38,0-6.52,2.36-7.53,3.54-11.3,4.47-19.76,5.14-22.84,3.11-13.59,4.86-21c.29-1.23.57-2.42.82-3.57l.27.13,6.46-30.89H97.2s.28,6.26.55,13.62.54,20.43.54,24.51,1.37,5.72,1.64,7.36-1.09,9-.82,14.16,1.64,12.26,1.91,16.07-1.09,9.27-1.09,10.63,0,8.17.82,11.17,10.07,1.63,10.62-.82-2.45-4.9-3-6.81,0-6,0-10.35A54.3,54.3,0,0,1,110,150c1.09-4.09.81-12.26.54-21.52a109.5,109.5,0,0,1,1.09-19.34c.55-4.09,3.82-25.33,3.82-25.33s1.63-12.81.81-17.16S110.55,53,110.55,49.17s1.77-20.49,1.3-21.82c0-.14-.12-.36-.21-.64.28.81.48,1.43.56,1.76.55,2.18,1.36,21.52,1.91,24.79s4.36,16.89,4.36,20.16.13,8.85.13,11,1.09,1.63,1.64.54a26.44,26.44,0,0,0,1.09-4.63A3.78,3.78,0,0,1,123,82.54c.27,1.36-1.36,3.54-2.45,4.9s.82,1.91,2.45.82S126,83.36,125.69,80.09Z"/><path class="cls-4" d="M78.07,15.45a2.48,2.48,0,0,1,.58-1.58c.81-1,4.52-2.08,6.56-2.76,2.92-1,3.43,4.23,7.69,5.14s9.82.71,13.72-3.19c2.33-2.34,4.65-.59,9.73,1.95,1.94,1-4.65,26-2.28,33.31,3.63,11.23,8.89,22.1,13.39,33,7.22,17.49,14.46,35,21.43,52.57q7,17.75,12.32,36c.85,2.88,1,4.81-2.6,4.93a111.75,111.75,0,0,1-14.85-.95c-6.46-.62-13.11-1.14-19.49-2.39a23.6,23.6,0,0,1-8.79-3.43c-.85-.59-6.63-5.37-4.83-6.36,2.07-1.13,8.25-5.58,1.89-6.42s-13.86-3.74-9.79-8.12,7-10.84,2.72-12.8-5.34-1.93-18.14-5.72-17-3.63-21.23-3.48-.91,4.26-3,4.34-11.67-1.71-12.61,1.5,12.87,5.9,9.86,10.24-17.85,2.75-22,4-5.12,4.42-1.85,7.48,19.38,11,20.58,15.15c.77,2.69,1.3,5.92-1.53,7.59A11.59,11.59,0,0,1,50,176.57l-9.38.37c-4,.16-7.75-.17-10.37-3.62a25.42,25.42,0,0,1-2.94-5.7,41.82,41.82,0,0,1-2.79-8.4C23.22,152,27.86,144,30.59,137.44q5.42-12.94,11-25.8,6-13.86,12.2-27.64c3-6.62,5.94-13.27,9.17-19.76.57-1.14,1.13-2.28,1.79-3.36C68.31,55.1,70.92,52,72.85,46.6,74.69,41.48,77.94,21.8,78.07,15.45Z"/><path class="cls-2" d="M39.07,178c-3.4,0-7-.59-9.62-4.05A25.65,25.65,0,0,1,26.38,168a41.62,41.62,0,0,1-2.85-8.61c-1.12-6.21,1.88-12.85,4.53-18.7.57-1.25,1.12-2.47,1.61-3.64,3.15-7.52,6.65-15.72,11-25.81S49.13,92,52.91,83.59l.69-1.54c2.71-6,5.5-12.25,8.5-18.26l.15-.3c.52-1,1-2.11,1.68-3.14.95-1.56,1.84-2.93,2.67-4.2a45.57,45.57,0,0,0,5.31-9.89c1.75-4.9,5-24.49,5.16-30.83h0a3.45,3.45,0,0,1,.81-2.2c.83-1,3.18-1.82,6.18-2.8l.83-.27c2.14-.72,3.39.85,4.48,2.23,1,1.23,2,2.51,3.73,2.88,2.46.53,8.61,1.29,12.81-2.92,2.54-2.54,5.11-1.22,9,.8l1.88,1c1.37.68,1.16,3-.33,12.58-1.2,7.76-2.7,17.41-1.44,21.32,2.52,7.78,5.88,15.52,9.13,23,1.41,3.24,2.87,6.6,4.23,9.9L130,84.78c6.58,15.94,13.39,32.42,19.85,48.73,4.57,11.56,8.73,23.72,12.35,36.12.51,1.73.92,3.52,0,4.81-.64.89-1.79,1.35-3.51,1.41a91.73,91.73,0,0,1-12.53-.71l-2.45-.24-2.81-.27c-5.54-.52-11.27-1.06-16.78-2.14a24.45,24.45,0,0,1-9.15-3.59c-.06,0-5.74-4.27-5.61-6.69a1.64,1.64,0,0,1,.86-1.37c2.12-1.15,4.29-3.17,4.17-3.86,0-.09-.4-.48-1.93-.69-1.69-.22-10.16-1.52-11.61-5.54-.35-1-.42-2.49,1.22-4.25,3.09-3.33,4.94-7.2,4.5-9.43a2.39,2.39,0,0,0-1.46-1.78,51.61,51.61,0,0,0-9-3.07c-2.16-.61-5-1.42-9-2.6C74.4,125.88,70.2,126,66.13,126.18a1.81,1.81,0,0,0-1.18.32c-.21.23-.16.82-.12,1.34a2.67,2.67,0,0,1-.42,2.12,1.75,1.75,0,0,1-1.29.56c-.53,0-1.37-.06-2.43-.15-2.4-.22-8.76-.78-9.26.93-.19.64,2.75,2.21,4.17,3,2.74,1.47,5.57,3,6.08,5.09a3,3,0,0,1-.53,2.47c-2.3,3.31-9.53,3.56-15.92,3.79a35.93,35.93,0,0,0-6.65.55c-1.69.49-2.8,1.35-3,2.38s.32,2.22,1.59,3.41a61.12,61.12,0,0,0,7,4.61c7.61,4.64,13.06,8.15,13.88,11,.5,1.76,1.85,6.45-2,8.72a12.49,12.49,0,0,1-6,1.28l-9.39.37C40.13,178,39.6,178,39.07,178ZM85.9,12a1.24,1.24,0,0,0-.37.06l-.85.28c-1.54.51-4.74,1.56-5.27,2.18a1.5,1.5,0,0,0-.34,1h0c-.13,6.62-3.44,26.33-5.28,31.47a47,47,0,0,1-5.52,10.3c-.81,1.26-1.69,2.61-2.64,4.16-.58.94-1.09,2-1.59,3l-.15.3c-3,6-5.77,12.18-8.46,18.19l-.69,1.54C51,92.8,47,101.84,42.54,112s-7.88,18.27-11,25.78c-.49,1.19-1.05,2.42-1.63,3.69-2.52,5.59-5.39,11.93-4.38,17.53a40.28,40.28,0,0,0,2.73,8.2A24.16,24.16,0,0,0,31,172.71c2.21,2.92,5.28,3.39,9.53,3.23l9.38-.37a11,11,0,0,0,5-1c1.77-1,2.09-2.92,1.07-6.45-.66-2.32-8.08-6.85-13-9.84a58.2,58.2,0,0,1-7.31-4.86c-1.82-1.7-2.6-3.6-2.18-5.34s2-3.13,4.43-3.83a35.56,35.56,0,0,1,7.14-.63c5.33-.19,12.62-.45,14.34-2.93a1,1,0,0,0,.23-.87c-.29-1.23-2.94-2.65-5.07-3.79-3-1.59-5.8-3.09-5.15-5.29,1-3.29,7.22-2.73,11.36-2.37.83.08,1.56.14,2,.15,0-.16,0-.37,0-.53a3.53,3.53,0,0,1,.62-2.82,3.44,3.44,0,0,1,2.6-1c4.23-.15,8.6-.3,21.55,3.53,4,1.17,6.81,2,9,2.59a53.18,53.18,0,0,1,9.32,3.17,4.37,4.37,0,0,1,2.59,3.21c.7,3.53-2.25,8.23-5,11.18-1.16,1.24-.89,2-.81,2.21.65,1.78,4.84,3.57,10,4.24.81.11,3.28.43,3.63,2.3.48,2.55-3.9,5.26-5,5.87.4,1.1,3.51,4,4.7,4.77a22.55,22.55,0,0,0,8.41,3.28c5.41,1.06,11.08,1.59,16.58,2.11l2.81.27,2.46.24a88.61,88.61,0,0,0,12.26.7c1,0,1.71-.23,2-.58.39-.54.08-1.86-.28-3.07-3.6-12.35-7.74-24.45-12.29-35.95-6.46-16.3-13.26-32.77-19.84-48.71l-1.59-3.85c-1.35-3.28-2.81-6.63-4.21-9.87-3.27-7.53-6.65-15.31-9.2-23.19-1.41-4.36.07-13.86,1.36-22.24.65-4.19,1.46-9.37,1.19-10.6L114,14.93c-3.92-2-5.23-2.61-6.67-1.17-4.88,4.91-11.86,4.06-14.63,3.47-2.46-.53-3.81-2.23-4.89-3.6C86.86,12.45,86.41,12,85.9,12Z"/><path class="cls-5" d="M70.9,66.64s-14.47,53-18.66,57.51"/><path class="cls-5" d="M70.9,66.64c-.93,5-2.1,9.9-3.35,14.79S64.93,91.19,63.49,96s-3,9.65-4.78,14.4c-.86,2.38-1.79,4.73-2.79,7.07-.52,1.15-1,2.31-1.62,3.44a13.84,13.84,0,0,1-2.06,3.21,9.15,9.15,0,0,0,.87-1.67c.25-.58.48-1.16.68-1.76.43-1.18.83-2.37,1.21-3.57.78-2.39,1.5-4.81,2.23-7.22l4.34-14.48c1.48-4.82,2.94-9.64,4.49-14.45S69.17,71.4,70.9,66.64Z"/><path class="cls-5" d="M105.28,69.72s8.57,58,13.86,75.36"/><path class="cls-5" d="M105.28,69.72q2,9.39,3.7,18.81c1.17,6.28,2.26,12.57,3.37,18.86l3.24,18.87,1.68,9.42c.25,1.58.59,3.14.88,4.71.14.79.32,1.56.49,2.34l.5,2.35a156.58,156.58,0,0,1-5.08-18.52c-1.38-6.25-2.57-12.53-3.68-18.83s-2.08-12.62-2.93-19S105.84,76.09,105.28,69.72Z"/><path class="cls-5" d="M84.54,58s-4.22,49.58-5.27,54.85"/><path class="cls-5" d="M84.54,58c0,4.61-.16,9.21-.42,13.8s-.61,9.16-1,13.74-.9,9.14-1.51,13.7a130.69,130.69,0,0,1-2.33,13.61c.28-4.59.45-9.18.78-13.76s.67-9.16,1.07-13.73.89-9.14,1.45-13.7S83.74,62.57,84.54,58Z"/><path class="cls-5" d="M89.82,58s2.11,61.18,4.22,65.4"/><path class="cls-5" d="M89.82,58c1.17,10.9,1.81,21.81,2.4,32.72.26,5.45.52,10.91.73,16.36l.36,8.19a49.05,49.05,0,0,0,.73,8.13,17.7,17.7,0,0,1-1.05-4c-.24-1.35-.46-2.71-.66-4.06q-.56-4.08-.93-8.17c-.53-5.45-.88-10.91-1.18-16.37s-.47-10.93-.54-16.4S89.62,63.51,89.82,58Z"/></svg>