<svg id="图层_1" data-name="图层 1" xmlns="http://www.w3.org/2000/svg" viewBox="0 0 186 186"><defs><style>.cls-1{fill:#f3e1e7;}.cls-2{fill:#fff;}.cls-3{fill:#5b3b2f;}.cls-4{fill:#593a2e;}</style></defs><path class="cls-1" d="M111.28,84.69s3.31,20.63,3.86,24.59a101.24,101.24,0,0,1,1.1,18.78c-.27,9-.55,16.92.55,20.89a50.7,50.7,0,0,1,1.66,13c0,4.23.55,8.2,0,10s-3.59,4.23-3,6.61,9.92,3.7,10.75.8.83-9.52.83-10.85-1.38-6.61-1.11-10.31,1.66-10.57,1.93-15.6-1.1-12.16-.82-13.75,1.65-3.17,1.65-7.14.28-16.66.55-23.8.55-13.22.55-13.22Z"/><path class="cls-1" d="M151.51,84.69s-3.31,20.63-3.86,24.59a101.24,101.24,0,0,0-1.1,18.78c.27,9,.55,16.92-.55,20.89a50.7,50.7,0,0,0-1.66,13c0,4.23-.55,8.2,0,10s3.59,4.23,3,6.61-9.92,3.7-10.75.8-.83-9.52-.83-10.85,1.38-6.61,1.11-10.31-1.66-10.57-1.93-15.6,1.1-12.16.82-13.75-1.65-3.17-1.65-7.14-.28-16.66-.55-23.8-.55-13.22-.55-13.22Z"/><path class="cls-1" d="M145.82,12c3.38.94,8.87,1.63,8.4,11.54s-1.27,27.81-1.16,30,.75,15.81,1.13,18,2.5,7.09,2.53,10.41-1.64,7.06-3.37,8-3.61.28-2.41-1,3-3.37,2.85-4.76A3.83,3.83,0,0,0,152.3,82a26.24,26.24,0,0,1-1.45,4.58c-.63,1.06-1.77,1.53-1.61-.67s.46-7.84.71-11.14-2.57-17.32-2.87-20.66.35-22.91,0-25.15S141.73,10.84,145.82,12Z"/><path class="cls-1" d="M126.3,3s1.38,4.41-1.38,6.34-7.44,2.48-7.44,2.48.18,8.87-.94,12.49S116,37,116,38.68s.27,13.78-.83,16.53-3.86,10.2-3.86,13.5v16h40.23s1.65-13,.82-17.36-5.78-13.77-5.78-17.63,1.79-20.72,1.31-22.07S145,17.88,145.72,12c0,0-6.89-.82-8-2.75s-1.38-6.06-1.38-6.06Z"/><path class="cls-2" d="M115.85,181.37l-4.51-.24c-13-.59-26.21,1.13-39.31.84q-17-.37-33.95-2c-5.5-.52-19.73.41-23-5.36-3.9-6.93,9.1-12.32,13.63-14.11,7.89-3.11,15.57-5.88,22.93-10.23C69,140,83.75,125,92.91,107a404.34,404.34,0,0,0,17.24-37.86c1.47-3.83,3.72-8.44,3.72-12.65,0-10.65-1-38.74-1-41.48a.6.6,0,0,1,.07-.32c1.11-1.83,4.92-2.53,6.15-2.85,2.54-.66,4.65-1.07,6.76.79a12.46,12.46,0,0,0,1.91,1.57c2.53,1.47,6.7,1.14,9.27-.06,1.29-.61,1.87-1.6,3.05-2.31,1.59-.94,1.65-1,3.13-.51l1.63.55,2.9,1a3.71,3.71,0,0,1,2,1.5c1.23,2.32.79,4.2.75,6.73-.18,12.59-1.1,25.26.57,37.8.9,6.68,3.08,13.4,4.59,20,3.57,15.58,7,31.21,9.94,46.92,1.9,10,3.7,20.07,4.78,30.2.54,5,3,13.34-1.05,17.53a10.76,10.76,0,0,1-4.63,2.43C148.74,181.08,132.51,182.34,115.85,181.37Z"/><path class="cls-3" d="M75.14,183c-1,0-2.09,0-3.13,0-11.31-.26-22.76-.93-34-2-1.06-.1-2.45-.14-4.07-.2-7.09-.23-16.81-.55-19.69-5.66a5.91,5.91,0,0,1-.5-5.05c1.31-3.67,6.09-7.1,14.64-10.47l3.18-1.25c6.84-2.67,13.31-5.19,19.6-8.92C68.73,139,83.24,123.78,92,106.5a394.14,394.14,0,0,0,17.2-37.77c.27-.69.56-1.41.86-2.15,1.31-3.22,2.79-6.88,2.79-10.14,0-6.77-.39-20.47-.68-30.47-.17-5.81-.29-10-.28-11a1.53,1.53,0,0,1,.21-.84c1.2-1.95,4.48-2.74,6.24-3.16l.51-.12c2.25-.59,5-1.31,7.67,1l.44.39a7.43,7.43,0,0,0,1.31,1.06c2.25,1.3,6.08,1,8.34-.1a5.93,5.93,0,0,0,1.47-1.08,9.68,9.68,0,0,1,1.5-1.18c1.79-1.07,2.16-1.18,4-.6l1.64.55,1.3.45,1.6.55a4.68,4.68,0,0,1,2.56,2,9.91,9.91,0,0,1,.92,5.75c0,.47,0,.95-.06,1.46,0,2.79-.11,5.59-.19,8.38-.26,9.63-.53,19.59.76,29.27A112.82,112.82,0,0,0,155,72c.57,2.19,1.15,4.44,1.66,6.66,4.18,18.22,7.34,33.15,9.95,47,1.73,9.15,3.67,19.79,4.79,30.27.1.93.27,2,.45,3.12.81,5.1,1.82,11.46-1.77,15.21a11.53,11.53,0,0,1-5,2.68c-14.79,4.76-30.9,6.55-49.24,5.48h0l-4.49-.24c-6.92-.31-14,0-20.87.38C85.42,182.75,80.26,183,75.14,183ZM113.9,15c0,1.19.12,5.48.27,10.87.3,10,.69,23.73.69,30.53,0,3.65-1.56,7.5-2.94,10.89-.29.73-.58,1.43-.84,2.12a396.48,396.48,0,0,1-17.28,38c-9,17.61-23.74,33.14-41.64,43.74-6.43,3.8-13,6.35-19.89,9.06l-3.17,1.24c-7.87,3.11-12.41,6.23-13.49,9.28a3.94,3.94,0,0,0,.35,3.41c2.34,4.14,11.78,4.45,18,4.66,1.65.05,3.07.1,4.19.2,11.21,1.07,22.61,1.74,33.88,2,6.07.13,12.28-.17,18.28-.47,6.9-.34,14-.69,21-.37,1.5.06,3,.15,4.51.23,18.09,1.06,34-.7,48.52-5.38a9.75,9.75,0,0,0,4.21-2.17c2.91-3,2-8.85,1.25-13.52-.19-1.15-.36-2.24-.47-3.21-1.11-10.41-3-21-4.76-30.12-2.61-13.79-5.77-28.69-9.94-46.89-.5-2.18-1.08-4.43-1.65-6.59A114.2,114.2,0,0,1,150.11,59c-1.32-9.85-1-19.88-.78-29.59.08-2.79.16-5.57.2-8.36,0-.53,0-1,.05-1.53a8.11,8.11,0,0,0-.69-4.71,2.79,2.79,0,0,0-1.44-1l-1.62-.56-1.28-.44c-.54-.18-1.07-.37-1.61-.54-1.05-.34-1.05-.34-2.29.4a7.2,7.2,0,0,0-1.21,1,7.8,7.8,0,0,1-2,1.41c-2.74,1.29-7.24,1.73-10.19,0a9.6,9.6,0,0,1-1.66-1.31l-.41-.37c-1.71-1.51-3.35-1.23-5.85-.58l-.55.14C117.59,13.18,114.77,13.85,113.9,15Zm-.08.11h0Z"/><path class="cls-1" d="M113.63,16.85c-.07-.82.79-3.42,0-3.17-2.9.91-8.93,3.72-8.73,11.27.26,9.92.67,27.83.48,30.05s-1.38,15.82-1.9,18.06-3.23,7.09-3.36,10.41,1.75,7.08,3.8,8.06,4.33.29,2.93-1-3.52-3.37-3.28-4.77v0a1.28,1.28,0,0,1,2.47-.06A11,11,0,0,0,107,88c.73,1.06,2.08,1.53,1.95-.67s-.31-7.85-.5-11.15,3.6-17.33,4.06-20.67.15-22.95.81-25.17C114.29,27.29,114.49,27,113.63,16.85Z"/><path class="cls-3" d="M114.87,57.42h-2c0-6.91-.39-20.91-.68-31.13-.17-5.93-.29-10.22-.29-11.25a1.72,1.72,0,0,1,.22-.85c1.19-2,4.48-2.79,6.24-3.22l.51-.13.52,1.94-.55.14c-1.23.3-4,1-4.92,2.19,0,1.22.12,5.61.28,11.12C114.48,36.46,114.87,50.48,114.87,57.42Zm-1-42.19Z"/><path class="cls-4" d="M84.93,120.14s-19.54,34.73-22.79,38.22"/><path class="cls-4" d="M62.14,159.36a1,1,0,0,1-.67-.27,1,1,0,0,1,0-1.41c2.5-2.69,15.9-26.05,22.64-38a1,1,0,0,1,1.73,1C85,122.05,66.16,155.5,62.87,159A1,1,0,0,1,62.14,159.36Z"/></svg>