<svg id="图层_1" data-name="图层 1" xmlns="http://www.w3.org/2000/svg" viewBox="0 0 186 186"><defs><style>.cls-1{fill:#f3e1e7;}.cls-2{fill:#5b3b2f;}.cls-3{fill:#fff;}.cls-4{fill:#593a2e;}</style></defs><path class="cls-1" d="M86.62,83.76s3.27,20.39,3.82,24.31a101.05,101.05,0,0,1,1.09,18.57c-.28,8.88-.55,16.73.54,20.65a50,50,0,0,1,1.64,12.81c0,4.18.54,8.1,0,9.93s-3.55,4.18-3,6.54,9.8,3.66,10.62.78.82-9.41.82-10.72-1.36-6.53-1.09-10.19S102.69,146,103,141s-1.09-12-.82-13.59,1.63-3.14,1.63-7.06.28-16.47.55-23.53.54-13.07.54-13.07Z"/><path class="cls-1" d="M126.39,83.76s-3.27,20.39-3.81,24.31a100.15,100.15,0,0,0-1.09,18.57c.27,8.88.54,16.73-.55,20.65a50,50,0,0,0-1.63,12.81c0,4.18-.55,8.1,0,9.93s3.54,4.18,3,6.54-9.81,3.66-10.63.78-.81-9.41-.81-10.72,1.36-6.53,1.09-10.19S110.32,146,110.05,141s1.09-12,.82-13.59-1.64-3.14-1.64-7.06-.27-16.47-.54-23.53-.55-13.07-.55-13.07Z"/><path class="cls-1" d="M120.77,11.88c3.34.94,8.77,1.62,8.31,11.42S127.82,50.79,127.93,53s.73,15.62,1.11,17.84,2.48,7,2.5,10.29-1.62,7-3.33,7.95-3.57.27-2.38-1,3-3.33,2.81-4.71a3.76,3.76,0,0,0-1.46-2.29,25.53,25.53,0,0,1-1.44,4.53c-.62,1.05-1.75,1.51-1.59-.66s.45-7.75.7-11S122.32,56.8,122,53.5s.34-22.65,0-24.86S116.73,10.75,120.77,11.88Z"/><path class="cls-1" d="M101.47,3s1.36,4.36-1.36,6.26-7.36,2.46-7.36,2.46.18,8.77-.93,12.35-.57,12.57-.57,14.2.28,13.62-.81,16.35S86.62,64.7,86.62,68v15.8h39.77S128,71,127.21,66.6,121.49,53,121.49,49.17s1.77-20.49,1.29-21.82-2.79-9.64-2.11-15.5c0,0-6.81-.81-7.9-2.72s-1.36-6-1.36-6Z"/><path class="cls-2" d="M50.9,172.7a1,1,0,0,1-.78-.37,1,1,0,0,1,.16-1.4c5-4,8.91-17.68,8.95-17.81a1,1,0,1,1,1.91.54c-.17.59-4.17,14.46-9.62,18.82A1,1,0,0,1,50.9,172.7Z"/><path class="cls-3" d="M123.64,53.82C130.39,65.17,135.3,77.88,140.47,90q8.22,19.33,14.62,39.37a197.09,197.09,0,0,1,5.85,21.75c1.95,9.86,4.22,23-7.66,27.41-3.52,1.3-7.33,1.49-11.08,1.55-4.56.08-9,.43-13.57.93-8.87,1-35.5,1-43.39,1s-13.81-1-18.74-1c-12.7,0-25.18,1-37.9.53a6.93,6.93,0,0,1-3.1-.6,4.28,4.28,0,0,1-2-4.1c.21-2.62,2.24-5,4.37-6.43,4.68-3,10.07-4.65,15.4-6.14,4.93-1.38,10.59-2.21,14.33-5.94C62.55,153.4,89.18,65.86,89.18,56.8c0-10.76-1-39.13-1-41.89a.62.62,0,0,1,.07-.33c1.1-1.84,4.87-2.55,6.08-2.87,2.51-.67,4.6-1.09,6.69.8A12.47,12.47,0,0,0,103,14.09c2.49,1.48,6.62,1.16,9.16-.06,1.27-.61,1.84-1.61,3-2.33,1.56-1,1.63-1,3.09-.51.54.17,1.08.36,1.61.55l2.87,1a3.65,3.65,0,0,1,2,1.51c1.22,2.34.78,4.24.74,6.8,0,2.92-.12,5.85-.27,8.77-.16,3.17-.36,6.34-.54,9.5C124.6,39.33,123.15,53,123.64,53.82Z"/><path class="cls-2" d="M85.24,183c-4.45,0-8.27-.31-11.63-.58-2.67-.22-5-.41-7.11-.41-5.16,0-10.38.17-15.42.33-7.35.23-14.95.46-22.52.2a7.73,7.73,0,0,1-3.54-.71,5.31,5.31,0,0,1-2.5-5.06c.26-3.15,2.66-5.77,4.83-7.18C32,166.54,37.22,165,43,163.32c.89-.25,1.8-.48,2.73-.72,4.07-1,8.28-2.09,11.16-5C61.3,153.25,88.18,66.55,88.18,56.8c0-6.83-.39-20.66-.67-30.76-.17-5.87-.29-10.11-.28-11.14a1.5,1.5,0,0,1,.21-.83c1.18-2,4.43-2.77,6.17-3.2l.51-.12c2.22-.6,5-1.33,7.6,1l.43.39a7.84,7.84,0,0,0,1.3,1.07c2.21,1.32,6,1,8.22-.1A5.63,5.63,0,0,0,113.12,12a9.7,9.7,0,0,1,1.49-1.19c1.78-1.09,2.15-1.2,3.92-.61l1.63.56,1.32.47,1.54.54a4.5,4.5,0,0,1,2.53,2c1.08,2.14.94,2.95.92,5.34,0,.47,0,1.42-.06,1.93,0,3-.14,6-.28,8.81-.1,2.13-.23,4.26-.35,6.39l-.18,3.12c-.65,6.11-1.21,12.9-1,14,5.61,9.44,10,19.86,14.19,29.94q1.32,3.15,2.64,6.26c5.48,12.87,10.41,26.14,14.66,39.45a203,203,0,0,1,5.88,21.87c1.75,8.89,4.69,23.75-8.3,28.54-3.72,1.37-7.67,1.55-11.4,1.61-4.1.06-8.51.37-13.48.92C122.81,182.67,108.18,183,85.24,183ZM66.5,180c2.21,0,4.56.19,7.27.42,3.33.27,7.1.57,11.47.57,22.86,0,37.43-.33,43.28-1,5-.56,9.5-.86,13.67-.93,3.55-.06,7.31-.22,10.74-1.49,10.52-3.87,9.24-15.11,7-26.28a199.76,199.76,0,0,0-5.82-21.65c-4.22-13.25-9.13-26.47-14.59-39.28q-1.32-3.12-2.64-6.27c-4.21-10.06-8.56-20.45-14.13-29.8h0c-.18-.3-.66-1.11.83-15.1l.18-3.08q.19-3.18.36-6.37c.14-2.79.21-4.7.25-7.7,0-.54,0-2.09.08-2.58a8.53,8.53,0,0,0-.69-4.78,2.72,2.72,0,0,0-1.42-1l-1.55-.55-1.32-.47-1.59-.54c-1-.34-1-.34-2.24.4a7.62,7.62,0,0,0-1.19,1,7.87,7.87,0,0,1-1.94,1.43c-2.72,1.3-7.18,1.75-10.1,0a8.81,8.81,0,0,1-1.65-1.33l-.4-.36c-1.68-1.52-3.3-1.24-5.76-.58l-.55.14c-1.21.29-4,1-4.86,2.17,0,1.2.12,5.54.28,11,.28,10.11.67,24,.67,30.82,0,8.08-26.09,96.48-31.85,102.24-3.26,3.26-7.74,4.39-12.07,5.49-.91.23-1.81.46-2.69.7-5.65,1.59-10.68,3.13-15.13,6-1.69,1.1-3.73,3.25-3.92,5.68A3.31,3.31,0,0,0,26,180.08a6.1,6.1,0,0,0,2.65.47c7.51.27,15.07,0,22.39-.2C56.08,180.19,61.31,180,66.5,180ZM89.14,15.09Z"/><path class="cls-1" d="M89,16.7c-.07-.82.78-3.39,0-3.14-2.86.9-8.83,3.68-8.63,11.14.26,9.81.67,27.52.47,29.71s-1.35,15.64-1.88,17.85-3.18,7-3.31,10.3,1.73,7,3.76,8,4.28.29,2.89-1S78.77,86.19,79,84.81v0a1.27,1.27,0,0,1,2.44-.06,10.69,10.69,0,0,0,1,2.35c.72,1,2.06,1.51,1.93-.66s-.3-7.76-.5-11,3.56-17.14,4-20.44.15-22.69.8-24.88C89.59,27,89.79,26.67,89,16.7Z"/><path class="cls-2" d="M90.17,56.8h-2c0-6.83-.39-20.66-.67-30.76-.17-5.87-.29-10.11-.28-11.14a1.5,1.5,0,0,1,.21-.83c1.18-2,4.43-2.77,6.17-3.2l.51-.12.51,1.92-.55.14c-1.21.29-4,1-4.86,2.17,0,1.2.12,5.54.28,11C89.78,36.09,90.17,49.94,90.17,56.8Zm-1-41.71Z"/><path class="cls-4" d="M62.9,146.48s-7.69,19.68-9.17,21.76"/><path class="cls-4" d="M53.73,169.24a1,1,0,0,1-.81-1.57c1-1.46,6-13.69,9-21.55a1,1,0,0,1,1.29-.57,1,1,0,0,1,.56,1.29c-.79,2-7.77,19.85-9.28,22A1,1,0,0,1,53.73,169.24Z"/></svg>