<svg id="图层_1" data-name="图层 1" xmlns="http://www.w3.org/2000/svg" viewBox="0 0 186 186"><defs><style>.cls-1{fill:#fff;}.cls-2{fill:#5b3b2f;}.cls-3{fill:#f5e3e9;}.cls-4{fill:#f4e2e8;}</style></defs><path class="cls-1" d="M124.13,56.91S63.37,124.73,11.6,157.25c-34.82,21.87,64.93,15.46,84.93,14.55,37.44-1.71,70.13-.26,74.24-7.27,5.13-8.78-2.14-79.38-19.47-111.25C146.16,43.83,124.13,56.91,124.13,56.91Z"/><path class="cls-2" d="M48.53,174.33c-29.13,0-43.36-2.62-45.07-8-.91-2.88,1.58-6.12,7.6-9.91C62.12,124.33,122.78,56.92,123.38,56.25l.24-.2c.63-.37,15.52-9.13,23.95-6.81a7.19,7.19,0,0,1,4.61,3.56C169.47,84.6,177.25,155.43,171.63,165c-3.37,5.75-22.25,6.23-48.4,6.9-8.53.22-17.36.44-26.65.87l-4.77.23C74.8,173.89,60.42,174.33,48.53,174.33ZM124.77,57.7c-2.91,3.22-62.36,68.81-112.64,100.4-4.93,3.09-7.33,5.8-6.76,7.61.7,2.21,6.24,6,35.5,6.59,18.57.36,39.57-.7,50.84-1.26l4.77-.24c9.32-.43,18.16-.65,26.7-.87,23.57-.6,43.92-1.12,46.73-5.91,4.71-8.06-2-78.09-19.49-110.27A5.19,5.19,0,0,0,147,51.17C139.8,49.18,126.23,56.85,124.77,57.7Z"/><path class="cls-2" d="M103.89,91.17c-4.86,7.35-10,14.49-15.45,21.45s-11,13.77-16.9,20.36a236.55,236.55,0,0,1-18.63,18.84,123.17,123.17,0,0,1-10.32,8.33,56.54,56.54,0,0,1-11.53,6.51A63.89,63.89,0,0,0,42,159.37c3.43-2.72,6.67-5.69,9.85-8.7s6.27-6.13,9.28-9.33,6-6.4,8.92-9.69c5.87-6.53,11.54-13.25,17.18-20S98.4,98.06,103.89,91.17Z"/><path class="cls-2" d="M111.73,96.85c-.26,5.49-.79,11-1.53,16.4s-1.68,10.85-2.82,16.23A139.87,139.87,0,0,1,103,145.4a68.76,68.76,0,0,1-3.11,7.67,31.45,31.45,0,0,1-4.45,7A37.44,37.44,0,0,0,99,152.68c1-2.53,1.77-5.13,2.53-7.75,1.48-5.23,2.74-10.54,3.88-15.87s2.2-10.7,3.24-16.06Z"/><path class="cls-2" d="M139.66,164.54l-1.93-.5c4.26-16.38-10.14-63.4-10.29-63.88l1.91-.59C130,101.53,144.06,147.61,139.66,164.54Z"/><path class="cls-2" d="M148.08,81.68c2.11,6.31,3.92,12.7,5.5,19.16s2.94,13,4.07,19.52a173.32,173.32,0,0,1,2.27,19.84,83.58,83.58,0,0,1,0,10,40.26,40.26,0,0,1-1.76,9.82,46.61,46.61,0,0,0,.78-9.85c0-3.3-.26-6.59-.56-9.87s-.69-6.56-1.18-9.83-.94-6.54-1.51-9.79c-1.08-6.53-2.35-13-3.62-19.52Z"/><path class="cls-3" d="M123.06,3s.21,7.92-1.5,10.7-7.91,7.06-8.34,9.84,11.55,22,11.34,26.53-9.1,56.58-10.38,63-2.35,12.63-7.7,20.33-10.06,28.45-12.41,30.8-9.2,9.2-8.13,12.63,4.28,9,7.92,4.49,6-7.92,8.13-13.69a140.34,140.34,0,0,1,11.45-22.69c4.59-7.26,6.52-12,9.08-15s12.88-32.44,14.89-37-5,19.86-4.62,23.5a35.12,35.12,0,0,1-.64,12.19c-1.07,5.35,5.35,33.59,4.92,35.09s-1.59,7.5.7,7.81,14.06.74,19,2,13.05.64,6.2-2.57-15.83-5.13-17.33-18.18-1.93-25-.43-28.89,2.14-10,2.78-12,5.35-25,5.35-25,.68-37.26.45-40.24-3.66-29.08-5.8-30.36-10.91-4.49-11.55-5.13S135.68,3,135.68,3Z"/><path class="cls-1" d="M119.47,17a2.13,2.13,0,0,0-2.6,1.08,23.44,23.44,0,0,1-3,4.87.24.24,0,0,0,.12.4A7.17,7.17,0,0,1,116.92,25c2.18,1.81,4.8,9.52,7,14.23a91,91,0,0,1,4.56,12,201.91,201.91,0,0,0-33,49.27,3,3,0,0,0,2.67,4.22c3.7,0,8.51,0,10,.13,2.57.22,1.46,1.78,2.57,2.78,2.24,2,17.33,2.79,26.74.86s5.78-2.78,12.84-3.42,11.12-1.29,10.91-3.21-.86-1.29,1.92-1.71,15.83-1.72,18-5.57c0,0,1.29,1.4,0-3.47s-3-21.13-26.42-44.13c0,0-3.86-23.88-6.44-30.06a1.72,1.72,0,0,0-.89-.91l-4.85-2.28a1.26,1.26,0,0,0-1.74.7c-.5,1.52-2.26,3.71-8.22,4C125.68,18.83,121.75,17.83,119.47,17Z"/><path class="cls-2" d="M124.54,110.71c-6.71,0-12.86-.8-14.45-2.24a3.14,3.14,0,0,1-.92-1.76c-.15-.6-.17-.7-1.06-.77-1.17-.1-4.61-.14-9.94-.13h0a4,4,0,0,1-3.56-5.66,201.53,201.53,0,0,1,32.11-48.27l.71-.8A104.53,104.53,0,0,0,123,39.69c-.67-1.41-1.35-3-2.08-4.79-1.56-3.74-3.33-8-4.68-9.1a6.38,6.38,0,0,0-2.52-1.45,1.21,1.21,0,0,1-.91-.84,1.25,1.25,0,0,1,.28-1.21A21.65,21.65,0,0,0,116,17.67a3.13,3.13,0,0,1,3.82-1.58h0a34,34,0,0,0,12.74,1.42c4.08-.19,6.68-1.36,7.32-3.3a2.22,2.22,0,0,1,1.22-1.33,2.27,2.27,0,0,1,1.89,0l4.86,2.27a2.71,2.71,0,0,1,1.38,1.43c2.46,5.9,6,27,6.46,30,21.21,20.91,24.61,36.18,26.07,42.71.14.65.26,1.2.38,1.65.83,3.12.81,4.28-.08,4.77a1.29,1.29,0,0,1-.51.14c-2.53,2.91-9.9,4.25-16.91,5.19l-1.28.17c-.48.08-.85.12-1.15.15,0,.14,0,.29.06.47a2.14,2.14,0,0,1-.49,1.64c-1.23,1.51-4.63,2.06-11.32,2.67-3.42.31-4.16.66-5.27,1.17a28.9,28.9,0,0,1-7.46,2.24A69.34,69.34,0,0,1,124.54,110.71Zm-24.64-6.9c3.39,0,7.06,0,8.37.14,2.16.18,2.6,1.28,2.84,2.29a1.31,1.31,0,0,0,.32.74c1.8,1.64,16.41,2.55,25.87.62a27.28,27.28,0,0,0,7-2.09c1.25-.58,2.16-1,5.93-1.35,3.15-.29,9-.82,9.95-2,.06-.07.06-.1.05-.15a5.61,5.61,0,0,0-.14-.82,1.46,1.46,0,0,1,.14-1.27,1.72,1.72,0,0,1,1.41-.56c.31,0,.75-.07,1.36-.16l1.33-.19c3.53-.47,14.27-1.9,15.92-4.87l.37-.67c-.07-.44-.21-1.1-.46-2.06-.13-.48-.26-1-.4-1.72C178.35,83.35,175,68.4,154,47.79l-.23-.23,0-.33c0-.24-3.88-23.84-6.38-29.84A.78.78,0,0,0,147,17l-4.85-2.27a.34.34,0,0,0-.26,0,.21.21,0,0,0-.11.12c-.65,2-2.76,4.37-9.12,4.67A36,36,0,0,1,119.14,18a1.11,1.11,0,0,0-1.37.57,31.29,31.29,0,0,1-2.46,4.24,10.38,10.38,0,0,1,2.25,1.48c1.72,1.43,3.44,5.53,5.25,9.86.71,1.71,1.39,3.33,2,4.71,2,4.24,4.65,11.66,4.65,12.48,0,.45-.05.5-1.31,1.9A200,200,0,0,0,96.4,101a1.91,1.91,0,0,0,.12,1.88,1.89,1.89,0,0,0,1.64.91H99.9ZM114.2,22.4Z"/><path class="cls-3" d="M113.19,24.17a4.25,4.25,0,0,0-2.7,3.54c-.29,2.91-.31,7.87,2.09,12.09,3.63,6.42,7.13,10.38,9.18,14.76s11,17.22,14.24,22.14,5.78,10.06,10.06,10.49,8.9-.22,7.76-1.82-3.7-3.32-2.2-3.32,3.42.86,4.92-.43,1.71-3.32,0-2.51a5,5,0,0,1-5.13,0,10.56,10.56,0,0,0-5.14-1.72c-1.92-.21-8.56-16.36-10.59-19.2s-8.88-12.46-10.59-16.52-4.67-14.55-6.93-16.37C116.37,23.81,115.59,23.25,113.19,24.17Z"/><path class="cls-4" d="M148,16.37s4.05,15.18,4.33,19.2,1.13,10.65,2.41,11.5,7.49,15.83,7.49,20.33.86,5.77-.64,6.2-5.43,3.1-6.35,4.65-2.3,2.83-1.4,2.94,4-3.17,3.93-1.42-.75,4.63-2.53,4.36-4.13,1.45-3.06,2.09a8.06,8.06,0,0,0,8.77-.42c3.63-2.79,4.7-6.42,6-8.78s1.71-9.62.64-16.9-3-13.69-4.71-16.26a40.93,40.93,0,0,1-6-12.62C155.58,25.89,152.58,19.47,148,16.37Z"/><path class="cls-2" d="M153.5,45.32c-.72-4-1.37-7.92-2.15-11.85s-1.52-7.88-2.49-11.73c-.25-1-.52-1.92-.82-2.84-.14-.48-.33-.9-.49-1.36a1,1,0,0,0-.22-.42,1,1,0,0,0-.3-.22l-2.73-1.24L142.92,15l-.68-.31-.17-.07H142c-.16,0-.22.07-.27.21a5.12,5.12,0,0,1-.91,1.61,7.08,7.08,0,0,1-2.82,2,18.12,18.12,0,0,1-6.25,1.08A35.17,35.17,0,0,1,119.49,18l-.35-.12-.21-.05a1.19,1.19,0,0,0-1.12.45l-.12.18-.17.33-.36.68q-.36.68-.75,1.35a16.92,16.92,0,0,1-1.84,2.6s-.14.18,0,0a.56.56,0,0,0,0-.47.56.56,0,0,0-.31-.35c-.24-.09,0,0,0,0a7.6,7.6,0,0,1,.81.31,12.31,12.31,0,0,1,2.73,1.7A5.87,5.87,0,0,1,119,25.9a20.46,20.46,0,0,1,1.52,2.73c.87,1.85,1.6,3.72,2.34,5.59,1.42,3.76,3,7.44,4.64,11.1a87.63,87.63,0,0,1-5.62-10.68c-.84-1.83-1.67-3.65-2.59-5.4a20,20,0,0,0-1.5-2.47,4.5,4.5,0,0,0-.9-.94,8.94,8.94,0,0,0-1.15-.78,9.68,9.68,0,0,0-1.25-.62,5.1,5.1,0,0,0-.61-.22,1,1,0,0,1-.32-.1,1.08,1.08,0,0,1-.49-1.46,2.43,2.43,0,0,1,.24-.33A14.46,14.46,0,0,0,114.88,20c.24-.43.47-.86.69-1.3l.33-.66.17-.34a4.25,4.25,0,0,1,.27-.46,3.08,3.08,0,0,1,1.77-1.16,3,3,0,0,1,1.08,0,2.4,2.4,0,0,1,.53.12l.37.11a34,34,0,0,0,11.57,1.3,16.07,16.07,0,0,0,5.57-.89,5.25,5.25,0,0,0,2.07-1.41,3.15,3.15,0,0,0,.58-1,2.24,2.24,0,0,1,.76-1.06,2.2,2.2,0,0,1,1.22-.43,2.35,2.35,0,0,1,.65.06,2.48,2.48,0,0,1,.53.2l.68.33,1.35.65,2.73,1.32a2.51,2.51,0,0,1,.87.69,2.61,2.61,0,0,1,.49.9c.16.5.37,1,.5,1.49.29,1,.52,2,.74,3A186.59,186.59,0,0,1,153.5,45.32Z"/></svg>