<svg id="图层_1" data-name="图层 1" xmlns="http://www.w3.org/2000/svg" viewBox="0 0 186 186"><defs><style>.cls-1{fill:#f3e1e7;}.cls-2{fill:#fff;}.cls-3{fill:#5b3b2f;}</style></defs><path class="cls-1" d="M74.46,11.91S65.23,13,64.94,22.65s-.86,27.11-1.15,29.26-2,15.3-2.6,17.45S58,76.07,57.73,79.29s1.15,7,2.89,8,3.74.54,2.59-.8-2.88-3.49-2.59-4.83a3.74,3.74,0,0,1,1.73-2.15,23.71,23.71,0,0,0,1.15,4.56c.58,1.08,1.73,1.61,1.73-.53s.14-7.66.14-10.88,4-16.64,4.62-19.86,1.32-22.31,2-24.43C73,25.33,74.89,23.05,74.46,11.91Z"/><path class="cls-1" d="M104,12c3.6.67,9.39.94,9.67,10.61s.87,27.11,1.16,29.26,2,15.3,2.59,17.45,3.18,6.71,3.46,9.93-1.15,7-2.88,8-3.75.54-2.6-.8,2.89-3.49,2.6-4.83a3.78,3.78,0,0,0-1.73-2.15,24.5,24.5,0,0,1-1.15,4.56c-.58,1.08-1.73,1.61-1.73-.53s-.15-7.66-.15-10.88-4-16.64-4.61-19.86-1.44-22.28-2-24.43S99.66,11.23,104,12Z"/><path class="cls-1" d="M83.69,3.32s1.44,4.29-1.45,6.17-7.78,2.42-7.78,2.42.19,8.65-1,12.18-.6,12.38-.6,14,.29,13.43-.86,16.11-4,9.93-4,13.15V82.91h42.1s1.73-12.61.87-16.91-6.06-13.42-6.06-17.18,1.88-20.19,1.37-21.5-3-9.5-2.23-15.28c0,0-7.21-.8-8.37-2.68s-1.44-5.91-1.44-5.91Z"/><path class="cls-1" d="M68,82.91s3.46,20.94,4,25a100.42,100.42,0,0,1,1.15,19.06c-.29,9.13-.58,17.18.58,21.21a50.11,50.11,0,0,1,1.73,13.15c0,4.3.57,8.32,0,10.2s-3.75,4.3-3.18,6.71S82.68,182,83.54,179s.87-9.67.87-11S83,161.3,83.25,157.54s1.73-10.74,2-15.84-1.15-12.34-.86-14,1.73-3.22,1.73-7.24.29-16.92.57-24.16.58-13.43.58-13.43Z"/><path class="cls-1" d="M110.07,82.91s-3.46,20.94-4,25a99.36,99.36,0,0,0-1.16,19.06c.29,9.13.58,17.18-.57,21.21a49.7,49.7,0,0,0-1.74,13.15c0,4.3-.57,8.32,0,10.2s3.75,4.3,3.18,6.71S95.37,182,94.5,179s-.86-9.67-.86-11,1.44-6.71,1.15-10.47-1.73-10.74-2-15.84,1.15-12.34.87-14-1.74-3.22-1.74-7.24-.28-16.92-.57-24.16-.58-13.43-.58-13.43Z"/><path class="cls-2" d="M147.8,131.49c-4.64-11-7.81-22.59-12.58-33.6a232.82,232.82,0,0,0-20.48-37.61c-1.64-2.44-4.55-6.36-5.68-9.34-1-2.63-.85-6.06-.87-8.91-.06-7.93,1-15.78,1.67-23.67.27-3.27-.3-3.85-1.89-4.8a45.93,45.93,0,0,0-7-3.64c-3-1.23-2.86.23-6.53,1.51a19.41,19.41,0,0,1-5.32,1.19,18.85,18.85,0,0,1-7.57-1c-2.08-.6-2.25-1.93-4.41-1.44-1.72.39-5.5,2.58-9.31,5.53-.72.56-1.17,1-1,2,1.4,6.17,4,13.21,4.94,19.54.78,5.25.67,8.84-2.1,17a28.1,28.1,0,0,1-5.11,8.91C55.32,74.76,51,90.19,45.78,104Q39.12,121.72,33,139.63c-3.47,10.25-8.2,19.87-12.17,29.94a3.89,3.89,0,0,0,2.84,5.28c8.26,1.51,16.2,3.68,24.54,4.91,10.07,1.48,20.24,3.06,30.45,2.41,7.43-.47,14.79-2.12,22.23-1.92,5.62.16,11.16,1.37,16.77,1.77,9.36.68,18.85.18,27.64-3.39a132.81,132.81,0,0,0,12-5.89c2.66-1.41,7.39-2.53,7.79-6.08.26-2.34-.85-4.6-2-6.67-4.28-7.83-9.23-15.21-13.08-23.3Q148.89,134.11,147.8,131.49Z"/><path class="cls-3" d="M73.87,183.32c-8.28,0-16.53-1.22-24.56-2.4l-1.2-.18c-4.92-.72-9.77-1.78-14.46-2.81-3.3-.72-6.71-1.47-10.12-2.1a4.75,4.75,0,0,1-3.31-2.39,4.91,4.91,0,0,1-.28-4.23c1.54-3.9,3.21-7.78,4.83-11.54,2.56-5.95,5.21-12.1,7.33-18.36,4-11.9,8.32-23.9,12.75-35.66,1-2.55,1.91-5.22,2.84-7.8,4.16-11.67,8.48-23.75,16.17-33.38a26.87,26.87,0,0,0,4.94-8.61c2.71-8,2.83-11.38,2.07-16.51A95.11,95.11,0,0,0,68,25.59c-.74-2.58-1.51-5.24-2.07-7.71a2.75,2.75,0,0,1,1.32-3c3.84-3,7.74-5.28,9.7-5.72a3.83,3.83,0,0,1,3.39.7,5.07,5.07,0,0,0,1.51.75,17.82,17.82,0,0,0,7.23,1,19.14,19.14,0,0,0,5.06-1.14A14.37,14.37,0,0,0,96.71,9.3a4.31,4.31,0,0,1,4.68-.3,41.71,41.71,0,0,1,6.3,3.24l.79.47c2,1.21,2.67,2.21,2.38,5.74-.19,2.19-.4,4.38-.61,6.57a162.64,162.64,0,0,0-1.07,17v1.15c0,2.48,0,5.29.81,7.41a43.3,43.3,0,0,0,4.61,7.73l1,1.41a233.87,233.87,0,0,1,20.57,37.76c2.49,5.77,4.58,11.77,6.61,17.57,1.85,5.3,3.76,10.78,6,16h0c.77,1.84,1.52,3.53,2.3,5.16,2.36,5,5.19,9.74,7.93,14.36,1.71,2.89,3.48,5.88,5.13,8.9,1.22,2.22,2.38,4.62,2.09,7.25-.37,3.36-3.73,4.81-6.43,6-.69.3-1.34.58-1.88.87l-.26.14a128.14,128.14,0,0,1-11.89,5.79c-7.82,3.18-16.75,4.28-28.08,3.47-2.46-.18-4.94-.51-7.33-.84a86.71,86.71,0,0,0-9.4-.93,90.24,90.24,0,0,0-13.44,1c-2.84.36-5.78.73-8.7.92Q76.32,183.32,73.87,183.32ZM78,11a3.28,3.28,0,0,0-.63.08c-1.42.32-4.94,2.26-8.92,5.35-.69.54-.67.64-.6,1,.55,2.43,1.28,4.94,2,7.61a96.54,96.54,0,0,1,2.92,12c.79,5.36.67,9.16-2.15,17.45a29.25,29.25,0,0,1-5.27,9.21C57.93,73.08,53.68,85,49.56,96.52c-.92,2.59-1.88,5.27-2.84,7.83C42.3,116.1,38,128.07,34,140c-2.15,6.34-4.81,12.52-7.39,18.51-1.61,3.74-3.28,7.61-4.81,11.48a3,3,0,0,0,.17,2.53,2.77,2.77,0,0,0,1.93,1.4c3.44.63,6.87,1.39,10.19,2.11,4.66,1,9.47,2.08,14.32,2.79l1.2.18c9.5,1.4,19.33,2.85,29,2.23,2.86-.18,5.77-.55,8.58-.9a89.58,89.58,0,0,1,13.75-1,86.62,86.62,0,0,1,9.61,1c2.36.32,4.8.65,7.2.82,11,.79,19.66-.26,27.19-3.32,4-1.63,7.92-3.71,11.71-5.71l.25-.14c.61-.32,1.3-.62,2-.93,2.34-1,5-2.17,5.24-4.38s-.8-4.13-1.86-6.08c-1.63-3-3.39-6-5.1-8.83-2.76-4.67-5.61-9.49-8-14.52-.79-1.66-1.56-3.38-2.34-5.25h0c-2.23-5.31-4.16-10.83-6-16.16-2-5.76-4.09-11.72-6.55-17.43a231.55,231.55,0,0,0-20.4-37.44c-.28-.42-.6-.89-1-1.38a45.55,45.55,0,0,1-4.84-8.16c-.93-2.47-.93-5.47-.93-8.13V42a168.25,168.25,0,0,1,1.07-17.21c.22-2.18.43-4.36.61-6.55.24-2.88-.15-3.11-1.41-3.86l-.79-.47a39.24,39.24,0,0,0-6-3.11,2.45,2.45,0,0,0-2.93.2,16.52,16.52,0,0,1-2.88,1.33,20.16,20.16,0,0,1-5.59,1.24,19.89,19.89,0,0,1-7.91-1.06,7.15,7.15,0,0,1-2.06-1A2.05,2.05,0,0,0,78,11Z"/></svg>