<svg id="图层_1" data-name="图层 1" xmlns="http://www.w3.org/2000/svg" viewBox="0 0 186 186"><defs><style>.cls-1{fill:#f3e1e7;}.cls-2{fill:#fff;}.cls-3{fill:#5b3b2f;}</style></defs><path class="cls-1" d="M126,51.93c-.19-2,2-3.93,1.06-7.26-1.67-6.23-2.78-17.08-4.53-20.66A30.78,30.78,0,0,0,118,17.18c-1.06-1.3-3.56,4.56-4.47,9.8,0,0,1.08,6.46,1.77,8.73s4.23,7.53,4.89,9.58Z"/><path class="cls-1" d="M113.17,36s-3.46,17.12-3.48,18.16-3.7,43.92-2.83,53.05a96.54,96.54,0,0,0,4,21.16c1.72,5.24,3.73,9.18,4.6,17.79S117,160,120.35,164s9.09,8.37,9,11.24-7,5.75-9.56,2.8c-6.62-7.56-8.95-10-11.71-14-1-1.51.64-6.23.66-7.27a19.75,19.75,0,0,0-3-7.61c-1.77-2.64-5.76-11.83-6-14.43S93.74,126,94.14,119s.86-45,.86-45-10.17,41.72-10.49,44.83-2.06,12.2-1.85,14.81-1,10.65-1.83,14-2.28,10.63-2.35,14.27.84,10.43-.26,13.27,1.13,8.88-4.57,7.73-7.24-2.49-5.3-9,2.09-14,2.15-17.14-1.09-24.23.58-30.18S76.72,77,76.29,72.27s1.79-25.74,1.81-26.78,3.8-8.26,4.12-11.11,2.59-6.4,2.91-9.26-2.07-7.65,1.6-8.88S95.62,14.33,95.9,13A26.41,26.41,0,0,0,96,8.35l-.17-4.69L109,3s-.38,6.24,2.17,8.89,6.37,3.85,8.48,6Z"/><path class="cls-1" d="M74.26,51s5.41-19,6.19-24.69,4.09-9.73,4.36-9.68c11.78,2-4.38,32-8.83,40.25S74,52,74.26,51Z"/><path class="cls-1" d="M129,67.63c.46-2.91-.85-5.47-1-6.87s.59-2.61,0-8.83c-.18-2,.52-1.52-.9-7.26l-7,.62c.67,2,1.08,14,.86,16.59s-.78,5.09-.2,7.75c.46,2.15,1.6,1.33,1.65.09.1-2.15.52-3,1.68-3.12,1-.09,1.18,1.2,1.31,2.59s-.45,4.84.42,4.41C128,72.54,128.55,70.36,129,67.63Z"/><path class="cls-2" d="M116,50.23a5.91,5.91,0,0,1-.46-3.18l4.73-28.95a1.15,1.15,0,0,0-.71-1.28l-5.8-2.28a1.16,1.16,0,0,0-1.12.16c-1.38,1.06-5.43,3.86-9.42,3.77-4.42-.1-8.74-3.6-9.55-4.48a.5.5,0,0,0-.35-.16l-6.44,1.56a2.4,2.4,0,0,0-2,2.39c.32,5.37-2.24,18.76-4.86,27a20.66,20.66,0,0,1-2.83,5.7c-7,10-33.86,45.8-38.54,53.15-5.43,8.53-3.59,10.61-.82,13.72,7.17,8.09,21.58,11.13,31.75,12.48a165.91,165.91,0,0,0,24.72,1c7.62-.13,15.16,1.11,22.81,1.13,4.58,0,7.9-2.6,12.28-3.19a23.71,23.71,0,0,1,6.22.42c3.75.48,8.48,1,11.74-1.34a7.48,7.48,0,0,0,3.23-5.92c0-4.48-3.12-9.76-5-13.84s-4-8.35-6.13-12.5c-4.8-9.54-9.73-19-14.67-28.5C121.85,61.54,118.43,56,116,50.23Z"/><path class="cls-3" d="M117.12,133h0c-3.65,0-7.32-.3-10.86-.57-3.91-.31-7.95-.63-11.93-.56a167.34,167.34,0,0,1-24.87-1c-15.8-2.09-26.69-6.4-32.37-12.8-3.17-3.57-4.83-6.2.73-14.92,2.83-4.45,13.75-19.3,23.39-32.4C67.56,62,73.57,53.87,76.36,49.91a20.12,20.12,0,0,0,2.7-5.43c2.77-8.71,5.11-21.66,4.81-26.64a3.39,3.39,0,0,1,2.86-3.43l6.52-1.58h.13a1.47,1.47,0,0,1,1.07.48c.57.63,4.65,4.06,8.84,4.16,3.68.05,7.66-2.71,8.79-3.57a2.13,2.13,0,0,1,2.08-.29l5.8,2.28a2.16,2.16,0,0,1,1.33,2.39l-4.72,28.93a4.87,4.87,0,0,0,.39,2.64h0a117,117,0,0,0,5.81,11.51c1,1.72,1.94,3.51,2.86,5.26,5,9.62,9.91,19,14.68,28.51,2,4,4.12,8.25,6.13,12.53.35.75.75,1.54,1.16,2.36,1.87,3.76,4,8,4,11.91a8.49,8.49,0,0,1-3.65,6.73c-3.44,2.43-8,2.08-12.45,1.51l-1.23-.17a16.92,16.92,0,0,0-4.72-.25,23.16,23.16,0,0,0-5.13,1.49A20,20,0,0,1,117.12,133Zm-21.66-3.14c3.68,0,7.36.29,10.94.57s7.13.56,10.7.57a18.1,18.1,0,0,0,6.58-1.58,25.61,25.61,0,0,1,5.57-1.61,19.27,19.27,0,0,1,5.27.26l1.21.17c4,.52,8.19.85,11-1.16a6.5,6.5,0,0,0,2.81-5.11c0-3.41-2-7.45-3.76-11-.42-.83-.82-1.64-1.18-2.4-2-4.26-4.12-8.51-6.11-12.48-4.76-9.46-9.65-18.87-14.67-28.48C123,65.81,122,64,121,62.33a117.89,117.89,0,0,1-5.91-11.72h0a6.76,6.76,0,0,1-.51-3.72l4.72-28.95a.16.16,0,0,0-.09-.19l-5.8-2.27a.12.12,0,0,0-.14,0c-1.61,1.23-5.77,4.12-10.05,4-4.56-.11-8.84-3.45-10-4.57l-6.06,1.47a1.44,1.44,0,0,0-1.29,1.35c.34,5.67-2.35,19.36-4.89,27.37a22.25,22.25,0,0,1-3,6C75.2,55,69.17,63.22,62.8,71.89,53.18,85,42.28,99.78,39.48,104.17c-5,7.89-3.56,9.53-.92,12.52,5.36,6,15.83,10.12,31.14,12.14a164.41,164.41,0,0,0,24.57,1ZM93,14.66h0Z"/><path class="cls-1" d="M128.06,71.24a14.09,14.09,0,0,0,.92-3.61c.46-2.91-.85-5.47-1-6.87s.59-2.61,0-8.83c-.18-2,.52-1.52-.9-7.26l-7,.62c.67,2,.8,14,.86,16.59.13,5.75.2,4.11.78,6.77.46,2.15,1.6,1.33,1.66.09.1-2.15-.53-3,.64-3.07,1-.09,1.33.71,2,2Z"/></svg>