<svg id="图层_1" data-name="图层 1" xmlns="http://www.w3.org/2000/svg" viewBox="0 0 186 186"><defs><style>.cls-1{fill:#f3e1e7;}.cls-2{fill:#fff;}.cls-3{fill:#5b3b2f;}</style></defs><path class="cls-1" d="M114.13,179.46a2.14,2.14,0,0,0-.52-.8,38.09,38.09,0,0,0-4.69-3.53,20.35,20.35,0,0,1-8.29-9.09,11.43,11.43,0,0,1-.92-5.38c.19-2.4,1.07-4.73,1.57-7.11.88-4.15,1.76-8.3,2.5-12.47s1.13-8.32,1.94-12.43q1.91-9.66,4.17-19.25c1.56-6.59,2.91-13.21,3-20s.28-13.82.38-20.73c.08-5.31,0-10.62.16-15.92a22.72,22.72,0,0,0-.81-6.67,8.88,8.88,0,0,1,.27-3.16c0-.44.2-.86.25-1.3.37-3.07-2.27-8.32-1.31-11.18,1.11-3.28.37-6.18-.42-9.17-.6-2.27.76-2.37.19-4.65s-1.76-3.21-4.16-3.47c-4.52-.49-6.1-1.15-6-5.73,0-1.75-.32-2.56-.18-4.41a75.44,75.44,0,0,1-9.62.41c-.24,3-.46,2.93-.7,5.82-.2,2.33-.34,2.3-2.63,2.23-2.06-.06-4.12-.11-6.18,0a9.51,9.51,0,0,0-8.92,7.63c-.59,2.9-.77,5.92-1.69,8.71A92.29,92.29,0,0,1,66.76,39.3a39,39,0,0,1-4.16,6.06c-1.38,1.85-3.1,3.46-4.29,5.42-.29.49-.6,1-.92,1.46-1,1.4-2.52,3.46-4,5.5-2.36,2.94-4.88,5.75-7.28,8.65-1.88,1.53-4.34,3.45-5.58,5.3C38.71,74.35,38.07,78.25,39,80s2.77,2.14,2.48.46-.65-4.31.23-5.35A3.68,3.68,0,0,1,44.08,74a25.4,25.4,0,0,0-1.26,4.46c0,1.19.62,2.17,1.66.31.89-1.61,5.51-6.85,7.72-10,2.92-3,6.16-5.68,9.06-8.69,3.54-3.68,7.43-7.21,10.16-11.45,3.54-5.5,6.07-11.64,9-17.5a9.62,9.62,0,0,1,.76-1.05c.75,1.55,1.48,2.82,2,4.17,1.7,4.51,3.92,8.93,1,13.87-1.21,2-1.68,4.47-2.64,6.66-2.37,5.39-5.16,10.61-6.15,16.53-.75,4.47-1.74,8.9-2.46,13.37-.51,3.2-.65,6.47-1.16,9.67-.64,4.05-1.45,8.07-2.24,12.1s-2,7.75-4.86,10.78c-1.86,2-4,3.77-5.84,5.81-3.64,4-5.78,9-7.92,13.91-1.82,4.17-3.74,8.3-5.63,12.45-.58,1.27-1.73,1.7-3,2.38-1.12-.29-5.68-.68-5.68,1.32,0,8.8,1.31,10.2.89,20.61a32.6,32.6,0,0,0,.94,7.67c.48,1.68,2,1.7,3.5,1.63s1.2-1.28,1.5-2.1.33-1.68.61-2.48c1.89-5.23,2.91-10,4.53-15.35.92-3,3.78-5.83,5.14-8.55,1.53-3,3.34-5.93,5.09-8.86.92-1.54,1.93-3,3-4.49,1.16-1.63,2.38-3.2,3.6-4.78,2.2-2.85,4.28-5.79,6.65-8.48,1.75-2,4-3.48,5.77-5.48A48.63,48.63,0,0,0,82.11,116c3-4.81,4.41-10.19,6.07-15.52,1.21-3.88,2.73-7.66,4.12-11.48l.33,0c.46,4.48,1,9,1.36,13.43a79.42,79.42,0,0,1,0,8.31q-.11,3.56-.41,7.1c-.32,3.78-.62,7.57-1.12,11.33s-1.43,7.57-1.71,11.39c-.45,6-.52,12.1-.74,18.16a29.51,29.51,0,0,1-.19,5.08,81,81,0,0,1-2.45,8.33c-.59,1.77-1.29,3.17.46,3.75,12.1,1.52,11,2.59,16.21,4a52.34,52.34,0,0,0,8.6,1.17,1.81,1.81,0,0,0,.81-.13A1.15,1.15,0,0,0,114.13,179.46Z"/><path class="cls-1" d="M106.15,11.81c3.6.72,9.38,1,9.67,11.38s.86,29.09,1.15,31.39S119,71,119.56,73.3,122.73,80.5,123,84s-1.16,7.49-2.88,8.64-3.75.58-2.6-.86,2.88-3.74,2.6-5.18a4,4,0,0,0-1.73-2.31,28,28,0,0,1-1.15,4.9c-.58,1.15-1.73,1.73-1.73-.58s-.15-8.21-.15-11.66-4-17.86-4.6-21.31-1.44-23.91-2-26.21S101.8,10.94,106.15,11.81Z"/><path class="cls-2" d="M38.08,98a3.85,3.85,0,0,0-.08.47c-.26,2.51,3.45,3.6,5.38,3.66,4.63.14,10.66.35,12.55.54,3.21.32,1.77,1.83,3.13,2.88,2.75,2.13,21.63,3.48,33.49,1.94s7.33-2.54,16.2-2.9,14-.83,13.78-2.77-1-1.31,2.47-1.63c4.78-.43,9.56-.69,14.29-1.56a25.91,25.91,0,0,0,5.38-1.15,5.63,5.63,0,0,0,2.85-2.41,2.37,2.37,0,0,0,.33-1.21,2.94,2.94,0,0,0-.35-1.11,32.4,32.4,0,0,0-4.08-6c-1.52-1.88-3-3.81-4.41-5.75-2.4-3.22-4.72-6.48-7.06-9.74l-1.57-2.18c-.92-1.27-1.84-2.55-2.74-3.84q-4.23-6-8.27-12.12C118,51.1,116,49,114.61,46.66a10.28,10.28,0,0,1-1.71-4.76c-.09-1.37-.2-2.75-.32-4.12-.25-2.93-.52-5.86-.76-8.79s-.47-5.73-.66-8.59c-.09-1.4-.13-2.79-.26-4.18-.16-1.88,0-3.58-2.23-3.88-1.58-.22-3.15-.46-4.74-.62s-3,1.35-4.38,2.11a10,10,0,0,1-7.62.7c-2.22-.68-4.3-3.69-6.64-3.24l-1.68.3c-1,.19-2.11.37-3.16.57a2.36,2.36,0,0,0-1.89,1.25c-.51,1.07,0,2.18.28,3.23,2.28,8.56,1.25,18.81.74,27.56a13.73,13.73,0,0,1-2,6.4C74.83,55,70.63,58.84,67.22,62.75q-6.18,7.06-12.45,14c-5.6,6.26-11.62,12.26-15.91,19.54A7.38,7.38,0,0,0,38.08,98Z"/><path class="cls-3" d="M80.7,109.16c-9.88,0-20.06-1.1-22.25-2.8a2.93,2.93,0,0,1-1.09-1.81c-.14-.52-.2-.73-1.53-.86s-5.78-.33-12.48-.54c-1.27,0-4.05-.55-5.5-2.2A3.32,3.32,0,0,1,37,98.39a6,6,0,0,1,.11-.61h0a8,8,0,0,1,.89-2c3.56-6,8.32-11.25,12.93-16.29q1.56-1.69,3.09-3.4c3.74-4.18,8.15-9.12,12.44-14,1-1.19,2.16-2.38,3.25-3.54a56.07,56.07,0,0,0,7-8.48,12.69,12.69,0,0,0,1.87-5.93c.06-1,.13-2.09.2-3.17.5-7.82,1.06-16.69-.9-24.07,0-.18-.1-.35-.16-.53A4.53,4.53,0,0,1,77.65,13a3.36,3.36,0,0,1,2.61-1.8c.69-.14,1.38-.26,2.07-.38l1.55-.27,1.22-.23c1.84-.35,3.41.83,4.8,1.86a8.73,8.73,0,0,0,2.32,1.41A9,9,0,0,0,99.07,13a9.94,9.94,0,0,0,1.1-.73A5.7,5.7,0,0,1,104,10.73c1.23.12,2.46.29,3.66.46l1.11.15c2.78.38,2.94,2.59,3,4.2,0,.2,0,.39.05.59.08.9.13,1.79.17,2.68l.09,1.52c.17,2.52.37,5.25.65,8.58q.24,2.86.5,5.73l.27,3c.12,1.38.22,2.76.32,4.15a9.28,9.28,0,0,0,1.56,4.3,39.64,39.64,0,0,0,2.6,3.58c.78,1,1.51,1.93,2.14,2.89,2.67,4.06,5.45,8.12,8.25,12.1q1.37,1.92,2.74,3.83l2.75,3.83c1.91,2.66,3.89,5.41,5.87,8.08,1.27,1.71,2.79,3.73,4.39,5.72a32.72,32.72,0,0,1,4.2,6.17,3.89,3.89,0,0,1,.45,1.49,3.24,3.24,0,0,1-.45,1.74,6.67,6.67,0,0,1-3.35,2.85,16.78,16.78,0,0,1-4.16,1c-.47.07-.95.14-1.42.23-3.75.68-7.57,1-11.26,1.3l-3.12.27c-.7.06-1.22.09-1.62.1,0,.13,0,.27,0,.43a1.94,1.94,0,0,1-.48,1.52c-1.36,1.57-5.5,2-14.25,2.35-4.37.17-5.33.5-6.78,1s-3.41,1.14-9.33,1.91A95.43,95.43,0,0,1,80.7,109.16ZM39.05,98.27l-.06.32a1.36,1.36,0,0,0,.36,1,6.45,6.45,0,0,0,4.06,1.52c4.7.15,10.71.36,12.62.54,2.5.25,3,1.3,3.26,2.35.1.4.15.57.38.74,2.31,1.79,20.47,3.34,32.75,1.74,5.73-.75,7.52-1.34,9-1.83s2.68-.89,7.34-1.08c3.66-.15,12.21-.49,12.83-1.68a7.29,7.29,0,0,0-.15-.78,1.39,1.39,0,0,1,.14-1.29c.36-.49.87-.51,1.64-.54.39,0,1,0,1.74-.11L128,99c3.65-.3,7.42-.61,11.07-1.28.49-.09,1-.16,1.49-.24a15.23,15.23,0,0,0,3.68-.85,4.66,4.66,0,0,0,2.36-2,1.31,1.31,0,0,0,.21-.68,2.07,2.07,0,0,0-.25-.72,31.58,31.58,0,0,0-4-5.79c-1.62-2-3.15-4-4.44-5.78-2-2.68-4-5.44-5.88-8.11l-2.75-3.82q-1.38-1.92-2.75-3.85c-2.82-4-5.61-8.08-8.29-12.15-.58-.89-1.29-1.79-2-2.75a42.56,42.56,0,0,1-2.73-3.77A11.34,11.34,0,0,1,111.9,42c-.09-1.37-.19-2.74-.31-4.11l-.27-3q-.25-2.87-.5-5.74c-.28-3.34-.49-6.08-.65-8.61,0-.51-.07-1-.09-1.54,0-.87-.1-1.74-.17-2.61,0-.21,0-.42,0-.63-.13-1.81-.26-2.21-1.33-2.35l-1.12-.16c-1.17-.16-2.39-.33-3.58-.45a4.13,4.13,0,0,0-2.49,1.12,12.94,12.94,0,0,1-1.31.87,11,11,0,0,1-8.39.77,9.94,9.94,0,0,1-2.93-1.72c-1.17-.86-2.26-1.69-3.23-1.49l-1.25.23-1.56.27-2,.37c-.78.15-1,.38-1.18.7a2.78,2.78,0,0,0,.18,1.95c.06.2.12.4.17.59,2,7.7,1.47,16.74,1,24.72-.07,1.07-.14,2.13-.2,3.16a14.66,14.66,0,0,1-2.17,6.86,58.19,58.19,0,0,1-7.24,8.8C70,61.11,69,62.25,68,63.4c-4.3,4.93-8.71,9.88-12.46,14.06-1,1.15-2.06,2.28-3.1,3.42-4.54,5-9.24,10.1-12.69,16a5.78,5.78,0,0,0-.67,1.43Z"/></svg>