<svg id="图层_1" data-name="图层 1" xmlns="http://www.w3.org/2000/svg" viewBox="0 0 186 186"><defs><style>.cls-1{fill:#f3e1e7;}.cls-2{fill:#fff;}.cls-3{fill:#5b3b2f;}</style></defs><path class="cls-1" d="M75.45,50.74a6.41,6.41,0,0,0,3.79-5.48l.22-3.5c.34-5.86.71-11.87,1.05-13,.95-3.11,2.72-5.42,2.31-16.67,0,0-8.68,1.08-8.95,10.84-.15,5.41-.38,13.23-.61,19.5a5.88,5.88,0,0,1-3,4.91c-4,2.25-8.66,4.88-9.9,5.41-2.06.87-7.21,1.69-10,3.43s-5,5.1-4.87,7.06,1.68,3.14,2.11,1.46,1.19-4.29,2.44-4.89a3.8,3.8,0,0,1,2.71,0,25.61,25.61,0,0,0-3,3.64c-.54,1.08-.33,2.28,1.41,1s6.26-4.53,8.86-6.49c1.7-1.28,7.89-3.91,12.8-6Z"/><path class="cls-1" d="M110.62,12.21c3.39.68,8.83.95,9.1,10.71s.81,27.4,1.08,29.56,1.9,15.46,2.44,17.63,3,6.78,3.26,10-1.09,7-2.71,8.13-3.53.55-2.44-.81,2.71-3.53,2.44-4.88a3.74,3.74,0,0,0-1.63-2.17A26.07,26.07,0,0,1,121.08,85c-.55,1.08-1.63,1.63-1.63-.54s-.14-7.73-.14-11S115.52,56.69,115,53.43s-1.35-22.51-1.9-24.68S106.52,11.39,110.62,12.21Z"/><path class="cls-1" d="M91.5,3.4s1.35,4.34-1.36,6.23-7.32,2.45-7.32,2.45.18,8.73-.93,12.3-.56,12.51-.56,14.14.27,13.56-.82,16.27-3.79,10-3.79,13.29V83.81h39.59s1.63-12.75.82-17.09-5.7-13.56-5.7-17.35,1.76-20.4,1.29-21.73-2.78-9.6-2.1-15.43c0,0-6.78-.81-7.87-2.71s-1.35-6-1.35-6Z"/><path class="cls-1" d="M76.72,83.81S80,104.11,80.51,108a99.23,99.23,0,0,1,1.09,18.48c-.27,8.85-.54,16.66.54,20.57a49.64,49.64,0,0,1,1.63,12.75c0,4.16.54,8.07,0,9.89s-3.53,4.16-3,6.51,9.76,3.64,10.57.78.82-9.37.82-10.67-1.36-6.51-1.09-10.15,1.63-10.42,1.9-15.36-1.09-12-.81-13.53,1.62-3.13,1.62-7,.27-16.4.55-23.43.54-13,.54-13Z"/><path class="cls-1" d="M116.31,83.81S113.06,105,112.52,109a107.62,107.62,0,0,0-1.09,19.26c.27,9.22.54,17.35-.54,21.42A53.81,53.81,0,0,0,109.26,163c0,4.34-.54,8.41,0,10.31s3.53,4.34,3,6.78-9.77,3.79-10.58.81-.82-9.76-.82-11.12,1.36-6.78,1.09-10.58-1.63-10.84-1.9-16,1.09-12.47.81-14.1-1.62-3.25-1.62-7.32-.27-17.09-.55-24.41-.54-13.56-.54-13.56Z"/><path class="cls-2" d="M79.46,14.32a2.23,2.23,0,0,1,2-2.41l6.38-.72a.52.52,0,0,1,.35.14c.82.86,5.21,5.2,9.6,5.2,4,0,7.91-2.88,9.25-4a1.14,1.14,0,0,1,1.11-.18l5.8,2.12a1.15,1.15,0,0,1,.74,1.25l-4,28.83a5.32,5.32,0,0,0,.52,3.14c4.08,8.05,23.32,46.43,25.06,56.93,1.95,11.75,6.82,52.35,13.64,58.75s10.71,6.41,12.66,7.48,3.41,3.93-10.72,6.41c-23.61,4.16-24.35,6.41-44.8,4.28s-27.27,0-45.78-2.14S40.79,172,34,165.55,23.26,158.07,22.29,157,35,83.3,39.82,71.54s36-18.16,39-26.7C81.17,37.85,80,20.43,79.46,14.32Z"/><path class="cls-3" d="M119.88,183.4a128.37,128.37,0,0,1-13-.83c-20.52-2.15-27.32,0-45.79-2.14-15.84-1.83-20-6.15-24.83-11.14-.94-1-1.91-2-3-3A46.17,46.17,0,0,0,23.55,159a8.46,8.46,0,0,1-2-1.35c-.43-.47-.69-.76,1.4-13,1.25-7.33,3.05-17,4.93-26.6,1.8-9.11,7.9-39.39,11-46.93,2.75-6.63,12.8-11.36,22.52-15.92,7.81-3.68,15.19-7.15,16.41-10.72,2.36-6.89,1.08-24.79.64-30.12a3.19,3.19,0,0,1,2.85-3.47l6.5-.74a1.45,1.45,0,0,1,1.06.45c.48.5,4.82,4.89,8.89,4.89,3.69,0,7.54-2.86,8.63-3.74a2.15,2.15,0,0,1,2.07-.34l5.8,2.13a2.12,2.12,0,0,1,1.38,2.33l-4,28.82a4.29,4.29,0,0,0,.42,2.56C116,55,135.45,93.82,137.22,104.5c.32,1.89.71,4.55,1.16,7.62,2.18,14.75,6.7,45.42,12.18,50.57,5,4.72,8.34,5.83,10.53,6.57A12.33,12.33,0,0,1,163,170a2.73,2.73,0,0,1,1.71,2.77c-.24,1.44-1.81,3.57-12.73,5.49-5.86,1-10.38,2-14,2.71C130.64,182.5,126.28,183.4,119.88,183.4ZM23.23,156.51a13.31,13.31,0,0,0,1.3.78,48.33,48.33,0,0,1,10.12,7.54c1.14,1.06,2.13,2.08,3.08,3.08,4.75,4.91,8.5,8.79,23.63,10.54a172.48,172.48,0,0,0,22,1.06,203.33,203.33,0,0,1,23.72,1.08c15.22,1.58,19.37.73,30.47-1.55,3.64-.75,8.17-1.68,14.06-2.72,10.67-1.88,11.1-3.77,11.12-3.85s-.19-.42-.71-.7a9.59,9.59,0,0,0-1.6-.62c-2.22-.75-5.93-2-11.27-7-5.51-5.19-9.49-29.42-12.78-51.73-.45-3.06-.84-5.71-1.15-7.59-1.72-10.38-21.1-49-25-56.64a6.39,6.39,0,0,1-.62-3.73l4-28.83a.14.14,0,0,0-.09-.17l-5.81-2.13a.13.13,0,0,0-.13,0c-1.57,1.26-5.66,4.19-9.88,4.19-4.52,0-8.92-4.09-10.14-5.32l-6.08.69a1.24,1.24,0,0,0-1.1,1.34h0c.58,6.94,1.68,23.86-.73,30.92C78.22,49.54,70.83,53,62.26,57c-8.94,4.2-19.07,9-21.52,14.89C36.13,83,23.3,150.76,23.23,156.51Z"/><path class="cls-1" d="M74.39,48.2c.42-.43-8,2-8.56,2.21l-5.45,2.33c-2.06.87-7.21,1.69-10,3.43l-.22,2.49a.8.8,0,0,0,.85.89h.11a.81.81,0,0,1,.63,1.35,15.61,15.61,0,0,0-2,2.55c-.54,1.08-.33,2.28,1.41,1s6-4.35,8.63-6.32a3.16,3.16,0,0,0,.43-.38Z"/></svg>