<svg id="图层_1" data-name="图层 1" xmlns="http://www.w3.org/2000/svg" viewBox="0 0 186 186"><defs><style>.cls-1{fill:#f3e1e7;}.cls-2{fill:#fff;}.cls-3{fill:#5b3b2f;}</style></defs><path class="cls-1" d="M96,129s9.88,25.73,11.74,29.93c.94,2.13,2.39,3.48,2,5.79-.44,2.5-.49,3.34,0,4,1.61,2.06,3.58,3,5.43,5.14,3.78,4.39,7.17,8.71,9.14,8.71,2.94,0,5.54-1.87,4.88-4.88s-1.37-2.77-4.85-6.55-5.07-5.35-6.24-6.38-1.78-2.71-3.54-10.48-6.14-27.8-6.14-27.8Z"/><path class="cls-1" d="M69.9,119.82s-.38,16.15.95,24.32a147.06,147.06,0,0,1,2.09,17.09c0,2.47.28,5.23-2,9s-8.54,9.49-6.46,10.82,6.84,4,11.4-1,7-4.37,6.46-8.73-3-8.93-1.9-17.29,5.32-23.56,4.75-34.19,0-15.39,0-15.39L68.28,104Z"/><path class="cls-1" d="M112.74,11.83c3.4.68,8.85.95,9.12,10.73S122.67,50,123,52.16s1.9,15.49,2.44,17.66,3,6.79,3.26,10.05-1.09,7.06-2.72,8.15-3.53.54-2.44-.82,2.72-3.53,2.44-4.89a3.78,3.78,0,0,0-1.63-2.17,26.13,26.13,0,0,1-1.08,4.62c-.55,1.08-1.63,1.63-1.63-.54s-.14-7.75-.14-11-4-11.68-5-21.44c-.33-3.28-.71-21.2-1.26-23.37S108.64,11,112.74,11.83Z"/><path class="cls-1" d="M84.9,11.69s-8.69,1.09-9,10.87S75.12,50,74.85,52.16,73,67.65,72.41,69.82s-3,6.79-3.26,10.05,1.09,7.06,2.72,8.15,3.53.54,2.44-.82-2.72-3.53-2.44-4.89a3.78,3.78,0,0,1,1.62-2.17,26.38,26.38,0,0,0,1.09,4.62c.54,1.08,1.63,1.63,1.63-.54s.14-7.75.14-11,3.8-16.84,4.34-20.1,1.25-22.57,1.9-24.71C83.55,25.27,85.31,23,84.9,11.69Z"/><path class="cls-1" d="M93.6,3S95,7.35,92.24,9.25s-7.34,2.44-7.34,2.44S85.08,20.44,84,24s-.56,12.54-.56,14.17.27,13.58-.82,16.29-3.8,10-3.8,13.31V83.54h39.66s1.63-12.77.81-17.12-5.7-13.58-5.7-17.38,1.77-20.43,1.29-21.76-2.78-9.61-2.11-15.45c0,0-6.79-.82-7.87-2.72s-1.36-6-1.36-6Z"/><path class="cls-2" d="M115.18,53.34a7.77,7.77,0,0,1-.66-3.69l2.78-34.1a1.4,1.4,0,0,0-.8-1.45l-5.89-2.28a1,1,0,0,0-1.1.25c-1.3,1.32-5.14,4.86-9.1,5-4.39.16-9-4.79-9.83-5.77a.43.43,0,0,0-.35-.16l-6.36,1.09A2.55,2.55,0,0,0,82,15.13c1.16,10.74.53,22.14-.79,32.9a9.53,9.53,0,0,1-.65,3.23,16.64,16.64,0,0,1-1.08,1.52c-8.23,11.65-15.39,24-23.12,36C49,100.16,40,110.61,34.6,123.14a21.81,21.81,0,0,0-2,6.93c-.46,6.5,4.71,9.93,10,12.15,11.09,4.6,23.1,6.63,35.05,7.18a212.13,212.13,0,0,0,23.11-.35c6.68-.42,15.09.19,21.31-2.36a37.32,37.32,0,0,1,6-2.34c2.7-.59,5.49-.17,8.25,0,5.93.3,11.87.14,15.6-4.85,2.86-3.82.61-7.25-.77-11.25C147.28,116.71,116.6,56.76,115.18,53.34Z"/><path class="cls-3" d="M85.44,150.56c-2.7,0-5.28-.06-7.78-.17-13.57-.64-25.14-3-35.38-7.27C39.5,142,31,138.46,31.64,130a22.82,22.82,0,0,1,2.06-7.25c3.76-8.7,9.28-16.49,14.62-24,2.42-3.41,4.92-6.94,7.21-10.49,2.69-4.17,5.36-8.46,7.94-12.61,4.83-7.77,9.82-15.8,15.2-23.41.12-.18.25-.35.38-.53a8,8,0,0,0,.64-.91,6.54,6.54,0,0,0,.47-2.26c0-.21,0-.41.07-.6C81.77,35.28,82,24.59,81,15.24a3.52,3.52,0,0,1,2.69-4l6.48-1.1a1.43,1.43,0,0,1,1.13.49c.5.56,4.9,5.44,8.89,5.44h.17c3.66-.14,7.37-3.64,8.43-4.71A2,2,0,0,1,111,10.9l5.9,2.29a2.34,2.34,0,0,1,1.41,2.45L115.5,49.73a7,7,0,0,0,.58,3.23h0c.4.94,3.31,6.78,7,14.16,9.81,19.63,26.23,52.48,29.09,60.78.23.68.49,1.34.75,2,1.27,3.23,2.57,6.57-.12,10.17-4.05,5.4-10.34,5.55-16.44,5.24-.61,0-1.23-.07-1.84-.12a21.71,21.71,0,0,0-6.15.13,21,21,0,0,0-4.13,1.53c-.58.26-1.16.52-1.75.76-4.83,2-11,2.12-16.39,2.24-1.84,0-3.58.09-5.23.19C95.17,150.39,90.12,150.56,85.44,150.56ZM90,12.17l-6,1A1.59,1.59,0,0,0,83,15c1,9.5.77,20.34-.79,33.12q0,.27-.06.57a7.83,7.83,0,0,1-.72,3,8.78,8.78,0,0,1-.78,1.14l-.35.47C74.93,60.91,70,68.92,65.14,76.67c-2.59,4.16-5.26,8.46-8,12.64-2.31,3.59-4.83,7.13-7.26,10.56C44.64,107.32,39.18,115,35.5,123.53a21.19,21.19,0,0,0-1.9,6.61c-.34,4.81,2.66,8.35,9.44,11.17,10,4.16,21.37,6.49,34.71,7.11a210,210,0,0,0,23-.35c1.69-.11,3.45-.15,5.31-.19,5.5-.13,11.19-.25,15.69-2.1.56-.23,1.12-.48,1.68-.73a23.45,23.45,0,0,1,4.52-1.67,23.28,23.28,0,0,1,6.71-.16l1.8.12c5.8.29,11.3.17,14.77-4.46,2-2.72,1.07-5.17-.14-8.27-.27-.68-.54-1.37-.78-2.07-2.82-8.17-19.2-40.95-29-60.54-4-8-6.64-13.28-7.06-14.28h0a8.79,8.79,0,0,1-.73-4.15l2.78-34.1a.48.48,0,0,0-.17-.45l-5.9-2.29c-1.55,1.57-5.54,5.17-9.8,5.32h-.25C95.79,18.06,91.53,13.82,90,12.17Z"/><path class="cls-1" d="M123,52.16c.27,2.18,1.9,15.49,2.44,17.66s3,6.79,3.26,10.05-1.09,7.06-2.72,8.15-3.53.54-2.44-.82,2.72-3.53,2.44-4.89a3.78,3.78,0,0,0-1.63-2.17,26.13,26.13,0,0,1-1.08,4.62c-.55,1.08-1.63,1.63-1.63-.54s-.14-7.75-.14-11-2.07-6.8-5-20.46Z"/></svg>