<svg id="图层_1" data-name="图层 1" xmlns="http://www.w3.org/2000/svg" viewBox="0 0 186 186"><defs><style>.cls-1{fill:#f9e6ed;}.cls-2{fill:#fff;}.cls-3{fill:#5b3b2f;}</style></defs><path class="cls-1" d="M87.62,3.2c.11,2.61-.07,5.76-2.33,7.05-1.32.74-2.93.59-4.41.89-4.2.86-6.64,5.08-8.88,8.73-2.5,4.06-5.37,7.89-7.79,12a42.63,42.63,0,0,0-3.14,6.4A15.53,15.53,0,0,0,60,41.56a10.09,10.09,0,0,0,.79,3.54C62.54,51,65.4,56.38,68.24,61.77l7.9-7.1L70,42.21l7.73-11.39a2.08,2.08,0,0,1,2.2-1.2l30.68-.3a2.84,2.84,0,0,1,1.2.15A2.94,2.94,0,0,1,113,30.64l8.64,12.94L116,50.88l5.68,7A29.82,29.82,0,0,0,130,49.34a9.71,9.71,0,0,0,1.58-3.68c.44-2.84-1.23-5.54-2.76-8-2.21-3.55-4.25-7.2-6.19-10.9s-3.66-7.25-5.81-10.69a10.54,10.54,0,0,0-3.13-3.56c-3.48-2.19-8.57-.35-11.55-3.46-1.51-1.56-1.76-3.91-1.91-6.07Z"/><path class="cls-2" d="M97,182a350.75,350.75,0,0,1-63.14-6,57.44,57.44,0,0,1-13.56-4.67,3,3,0,0,1-1.66-3.6c.65-2.15,1.48-5.3,2.44-8.95,2.53-9.6,6.36-24.12,11.27-37.3,11.77-31.56,27.48-59,40-69.9.52-.45,1.15-.89,1.83-1.37,1.59-1.12,3.4-2.38,4.24-4.22,1-2.05.53-4.47.16-6.61-.14-.79-.27-1.54-.33-2.23-.17-2.19-.2-4.45-.22-6.65l0-1.73c-.05-5.11-.11-10.39-1.34-15.5a.22.22,0,0,1,.12-.24,23.77,23.77,0,0,1,4.69-1.55.63.63,0,0,1,.19,0,.83.83,0,0,1,.77.54L83,13.46c1.86,4.95,6.39,8.4,11,8.4h.36c6.33-.22,10.77-6.37,11.73-12l.12-.05c.44.17,1.06.42,1.74.71a30.91,30.91,0,0,0,4.94,1.81c-1.92,6.52-1.36,13.34-.82,19.93.24,2.92.49,5.94.5,8.84,0,.37,0,.74,0,1.1,0,2.73-.08,5.56,2.77,7.64,4.34,3.17,20.25,18.31,30.5,36.56,13.74,24.48,26,62.22,30.69,77.31a5.12,5.12,0,0,1-3.26,6.33c-11.84,3.93-14.34,4.7-14.77,4.8A252.11,252.11,0,0,1,97,182Z"/><path class="cls-3" d="M107.11,10h0m-.23,1.11.73.31c1.77.73,3.15,1.3,4.14,1.61-1.7,6.39-1.17,12.94-.65,19.28.24,2.9.49,5.9.5,8.77,0,.36,0,.72,0,1.08,0,2.84-.09,6.07,3.18,8.46,4.93,3.6,20.61,19.13,30.21,36.24,13.7,24.4,26,62.06,30.62,77.12a4.12,4.12,0,0,1-2.63,5.08c-12.24,4.06-14.35,4.7-14.7,4.78A251.07,251.07,0,0,1,97,181a350.64,350.64,0,0,1-63-6,56.91,56.91,0,0,1-13.33-4.6A2,2,0,0,1,19.58,168c.65-2.16,1.44-5.17,2.45-9,2.53-9.59,6.35-24.07,11.24-37.21C44.8,90.85,60.77,62.93,73,52.3c.48-.42,1.09-.85,1.74-1.31,1.7-1.19,3.63-2.54,4.58-4.62,1.08-2.33.63-4.92.23-7.2-.13-.77-.26-1.5-.31-2.14-.17-2.16-.2-4.42-.22-6.6V28.72c-.05-4.95-.1-10.07-1.22-15.09a25.83,25.83,0,0,1,3.77-1.19l.51,1.37c2,5.33,6.92,9,12,9h.39c6.44-.23,11.06-6,12.46-11.75m-.68-2.34a1.06,1.06,0,0,0-1.06.89c-.9,5.28-5,11-10.79,11.2H94c-4.61,0-8.52-3.59-10.08-7.75l-.57-1.51a1.82,1.82,0,0,0-1.71-1.19,2.18,2.18,0,0,0-.43.05,25.2,25.2,0,0,0-4.9,1.64,1.22,1.22,0,0,0-.64,1.36C77,18.86,77,24.43,77,30c0,2.41,0,4.84.24,7.24.2,2.59,1.39,5.88.25,8.35-1.05,2.28-4,3.67-5.82,5.25C58.38,62.36,42.46,91.42,31.4,121.09,24.61,139.32,20,159.63,17.67,167.4a4,4,0,0,0,2.2,4.8A59,59,0,0,0,33.66,177,352.29,352.29,0,0,0,97,183a252.74,252.74,0,0,0,61.78-7.23c1-.25,9.15-2.93,14.84-4.83a6.08,6.08,0,0,0,3.91-7.56c-4.43-14.38-16.89-52.76-30.78-77.51C136.85,68.27,121.05,52.72,116,49c-2.77-2-2.34-4.85-2.35-7.93,0-9.42-2.47-19.25.35-28.48a1,1,0,0,0-.89-1.28,66,66,0,0,1-6.46-2.46,1.14,1.14,0,0,0-.4-.08Z"/></svg>