<svg id="图层_1" data-name="图层 1" xmlns="http://www.w3.org/2000/svg" viewBox="0 0 186 186"><defs><style>.cls-1{fill:#f9e6ed;}.cls-2{fill:#fff;}.cls-3{fill:#5b3b2f;}</style></defs><path class="cls-1" d="M113.12,24.23S92.33,30.57,82,30.34a10.57,10.57,0,0,1-5.17-1.74c-1.84-1.11-6,1-7.41,1.75a39.3,39.3,0,0,0-8.33,5.07c-.9.79-2,1.92-2,3.23,0,1.61,1.08,3.72,1.62,5.22a71.57,71.57,0,0,0,2.76,6.94c.33.66,1,2.69,1.72,3,.84.38,2.82-.64,3.71-.91a4.64,4.64,0,0,1,2-.29c2,.32,5.92,5,6.69,6.76.38.91,1.17,2.69.15,3.48-2.13,1.66-.4,5.35-4.33,4.52-1.33-.28-2-2.49-5.56-2.7-4.34-.26-6-2.6-9.07-5.69a47.22,47.22,0,0,1-5.87-7.18A41.45,41.45,0,0,1,46.36,36.2,4.39,4.39,0,0,1,47,33c2.26-3.31,6.17-5.05,9.48-7.09,3.78-2.34,6.74-3.43,11.11-7.46,4-3.69,9.93-3.52,15-5.06S91,8.73,89.62,3h14.3a13.24,13.24,0,0,0,0,2.45,6.46,6.46,0,0,0,1.78,4.21c1.69,1.56,4.91,1.64,7.07,2.09,3.58.76,8.27.74,11.24,3.09,2.79,2.21,3,5.36,3,8.66,0,.13.41,2.8.07,20.83-.07,3.57,1.63,6.71,2.86,10,2.26,6,2.9,12.19,3.06,18.56a28.69,28.69,0,0,0,.49,3.79c.1.75.19,1.5.3,2.24.17,1.16,1.73,1.86,2.46,2.68A14,14,0,0,1,139.33,94a3.1,3.1,0,0,1-.67,1.43,1.25,1.25,0,0,1-1.45.32c-.52-.3-.46-.89-.27-1.36.47-1.15.93-2.26-.31-3s-2.53-2-2.53-3.66a14,14,0,0,0-.11,1.85,7,7,0,0,0,1.91,3.64c.74.9.39,1.61-.7,2a2,2,0,0,1-1.64-.68c-1.46-2.39-2.17-5.12-3.2-7.7-1.4-3.56-3.12-6.91-4.17-10.59-.71-2.52-3.77-12.18-4.41-14.72-1.56-6.12-3-12.27-4.43-18.42S114.49,30.52,113.12,24.23Z"/><path class="cls-1" d="M76.51,133c.52.29,0,6.08.06,6.83A44.76,44.76,0,0,0,78.25,148c1.78,6.26,3.35,12.22,3.51,18.75.08,3-1.26,6.22,1.93,8,2.15,1.21,7.46.5,8.51-2a6.14,6.14,0,0,0,.36-2.05c.33-6.33-1.27-12.55-1.45-18.86a82.61,82.61,0,0,1,.51-8.74c0-.57.84-5.36.3-5.68Z"/><path class="cls-1" d="M101.1,129.29c-.39.1-.22,6.37-.22,6.84a56.42,56.42,0,0,0,.7,10.06,57.19,57.19,0,0,1,1.35,8.3c.09,2.7-.14,5.4-.14,8.11v12.71s10.16-.27,10.92,0,2.07-2.17,2.07-2.17l-.36-1a24.7,24.7,0,0,1-1.3-9.84c.15-2.59-.52-5.18-.46-7.79a69.51,69.51,0,0,1,.84-8.14c.94-6.5,2-13.84-.34-20.17C114.36,126.19,101.1,129.29,101.1,129.29Z"/><path class="cls-2" d="M93.68,172.89c-.24-2.46-.14-5-.28-7.44.44-3-5-3.42-6.93-3.28-1.44.11-4.91.62-4.79,2.68a16.26,16.26,0,0,1-.87,4.72,18.43,18.43,0,0,1-1.66,4.52c.12-.24-2.36,4.16-.81,6.75A2.52,2.52,0,0,0,79.9,182a21.27,21.27,0,0,0,11.21-.19A4.07,4.07,0,0,0,94,178.46,26,26,0,0,0,93.68,172.89Zm-2.4-4.8c-.1,1.26,0,2.8-.88,3.85-1,1.3-3.68.91-5.14.78s-3.52-.53-3.37-2.46c.18-2.16.32-4.6,2.7-5.45,1.79-.64,5.19-.89,6.34,1.05A3.78,3.78,0,0,1,91.28,168.09Z"/><path class="cls-3" d="M85.25,183a22.31,22.31,0,0,1-5.44-.67A2.91,2.91,0,0,1,78,181c-1.46-2.45.36-6.35.81-7.1h0v0h0a18.55,18.55,0,0,0,1.62-4.43c.06-.25.13-.51.2-.77a13.13,13.13,0,0,0,.66-3.84c-.15-2.49,3.89-3,5.14-3.07s5.13,0,6.7,1.72a2.31,2.31,0,0,1,.62,2c.06.94.08,2,.09,3,0,1.43,0,2.92.19,4.35h0c0,.51.1,1,.16,1.54a16.13,16.13,0,0,1,.11,4.11,4.39,4.39,0,0,1-3.1,3.61A20.08,20.08,0,0,1,85.25,183Zm-5.87-8.78.09.06s-2.19,4.06-.81,6.37a2.17,2.17,0,0,0,1.33.95,20.82,20.82,0,0,0,11-.19,3.66,3.66,0,0,0,2.58-3,15.65,15.65,0,0,0-.12-3.92c-.06-.52-.12-1-.15-1.56-.14-1.46-.17-3-.19-4.41,0-1,0-2-.09-3a1.65,1.65,0,0,0-.42-1.44c-1.26-1.35-4.72-1.59-6.11-1.48-.76,0-4.55.42-4.45,2.28a13.07,13.07,0,0,1-.68,4.08c-.07.26-.14.51-.2.75a19.16,19.16,0,0,1-1.69,4.62Zm8.16-1c-.68,0-1.34-.07-1.91-.12l-.41,0c-1-.08-3.91-.34-3.7-2.86v-.16c.18-2.21.39-4.7,2.93-5.61,2.08-.75,5.57-.86,6.79,1.21a4.1,4.1,0,0,1,.4,2.45h0c0,.2,0,.41,0,.62a6,6,0,0,1-.92,3.44A3.92,3.92,0,0,1,87.54,173.25Zm-.15-8.54a8.54,8.54,0,0,0-2.68.45c-2.09.75-2.26,2.89-2.43,5v.16c-.1,1.23.83,1.86,3,2.06l.41,0c1.43.14,3.59.35,4.4-.67a5.24,5.24,0,0,0,.76-3c0-.22,0-.44,0-.65a2.83,2.83,0,0,0-3.52-3.34Z"/><path class="cls-3" d="M79.6,177a16.94,16.94,0,0,1,5.57-1.67,15,15,0,0,1,2.92-.05,12,12,0,0,1,2.85.61,16.17,16.17,0,0,0-2.86-.42,17.31,17.31,0,0,0-2.88.11,22.56,22.56,0,0,0-2.84.53A24.63,24.63,0,0,0,79.6,177Z"/><path class="cls-2" d="M116.58,172.87c-.11-.17-2.9-5.1-2.48-8.67a1.6,1.6,0,0,0-.81-1.57c-1.66-1-5.39-2.12-10.11.32a1.51,1.51,0,0,0-.85,1.43c.09,2,.26,6.69.11,9.87a12.38,12.38,0,0,1-.44,2.49c-1.19,4.95,4.79,5.08,8,5.07,1.32,0,2.66-.05,4-.18,1-.11,2.37,0,3.17-.79C119.25,178.83,117.88,174.82,116.58,172.87Zm-3-1.58a12.23,12.23,0,0,1-5.3.72c-1.13,0-2.67-.23-3.42-1.2a3,3,0,0,1-.48-1.24,10,10,0,0,1-.28-2.36,3.15,3.15,0,0,1,1-2.27,6,6,0,0,1,3.8-1.44,6.83,6.83,0,0,1,4.23,1.22,1.48,1.48,0,0,1,.5,1.9,3.09,3.09,0,0,0,.35,3.1,1.59,1.59,0,0,1,.3.43C114.39,170.6,114,171.09,113.57,171.29Z"/><path class="cls-3" d="M109.59,182.19c-2.12,0-5.85-.12-7.4-2.08a3.88,3.88,0,0,1-.55-3.46l0-.11a12.57,12.57,0,0,0,.4-2.31c.15-3.19,0-7.94-.12-9.84a1.93,1.93,0,0,1,1.06-1.78c5.4-2.78,9.38-.94,10.47-.31a2,2,0,0,1,1,1.95c-.41,3.47,2.38,8.35,2.43,8.42,1.4,2.1,2.78,6.25.54,8.44a4.17,4.17,0,0,1-2.78.84L114,182a38.92,38.92,0,0,1-4,.18Zm-.82-20.32a11.79,11.79,0,0,0-5.42,1.41,1.15,1.15,0,0,0-.65,1.08c.09,1.91.27,6.69.12,9.91a13,13,0,0,1-.43,2.44l0,.12a3.12,3.12,0,0,0,.41,2.82c1.43,1.81,5.37,1.8,7.24,1.79,1.54,0,2.8-.07,4-.19l.64-.05a3.57,3.57,0,0,0,2.31-.63c1.81-1.77.71-5.44-.65-7.49h0a22.66,22.66,0,0,1-2.39-6.19,2.58,2.58,0,0,0,.32,2.59,1.74,1.74,0,0,1,.37.54,1.35,1.35,0,0,1-.84,1.61h0a13,13,0,0,1-5.48.76c-1.29-.07-2.87-.28-3.69-1.36a3.29,3.29,0,0,1-.56-1.39,10.14,10.14,0,0,1-.28-2.44,3.47,3.47,0,0,1,1.06-2.53,6.35,6.35,0,0,1,4-1.55,7.23,7.23,0,0,1,4.48,1.31,2.55,2.55,0,0,1,.37.36c0-.21,0-.42,0-.63a1.22,1.22,0,0,0-.61-1.21A8.78,8.78,0,0,0,108.77,161.87Zm.3,2h-.22a5.61,5.61,0,0,0-3.56,1.34,2.84,2.84,0,0,0-.83,2,9.39,9.39,0,0,0,.28,2.26,2.66,2.66,0,0,0,.41,1.09c.65.84,2.1,1,3.14,1.06a12.23,12.23,0,0,0,5.13-.69h0c.28-.13.54-.44.45-.66a.94.94,0,0,0-.18-.26l-.06-.08a3.49,3.49,0,0,1-.42-3.44c.22-.73.2-1-.38-1.5A6.36,6.36,0,0,0,109.07,163.87Z"/><path class="cls-3" d="M104.32,174.52a27.9,27.9,0,0,1,5.85,0,12.48,12.48,0,0,1,5.56,1.68,11.06,11.06,0,0,0-2.72-1,21.41,21.41,0,0,0-2.87-.45c-1-.12-1.93-.16-2.9-.2S105.29,174.5,104.32,174.52Z"/><path class="cls-3" d="M104,174.44a43.66,43.66,0,0,1,5,.45c.83.13,1.65.27,2.46.47a9.91,9.91,0,0,1,2.37.81,14.24,14.24,0,0,0-2.41-.63c-.81-.15-1.63-.29-2.45-.4Z"/><path class="cls-2" d="M102.56,146.72c-12.75,0-27.23-.78-38-6.63-4.75-2.59-2.75-15.4-1.68-22.28.16-1.06.31-2,.42-2.79,1.65-12.3,3.26-22.52,4.8-30.36,1.37-7,2.88-14.31,4.61-22.41.54-2.56,1.22-5.06,1.88-7.49a74.4,74.4,0,0,0,2.91-14.65c.15-2.18.44-4.45.73-6.64.79-6.17,1.62-12.54-.47-18.67,1.39-1,3.88-1.31,5-1.39a6.54,6.54,0,0,0,1.72,2c2,1.64,4.73,1.94,6.92,2.17a27.82,27.82,0,0,0,3,.16,28.34,28.34,0,0,0,7.28-.94c2.28-.6,6.9-1.81,8.1-4.61a.51.51,0,0,1,.43-.33,15.94,15.94,0,0,1,5.49,1.23.42.42,0,0,1,.25.45c-1.54,6-.28,13.25.82,19.66.36,2,.69,4,.93,5.79.65,5,1.5,10.53,2.59,16.8.72,4.13,1.47,8.2,2,11.28l1.07,5.7c3,16.16,6.19,32.88,7.26,49.55.47,7.27.36,15.34-4,20.07-2.55,2.76-6.31,4.13-11.48,4.2l-3.64,0C108.65,146.68,105.63,146.72,102.56,146.72Z"/><path class="cls-3" d="M110.6,12.87a15.51,15.51,0,0,1,4.31.92c-1.4,6.08-.16,13.23.93,19.56.35,2,.68,4,.92,5.76.65,5,1.5,10.55,2.6,16.84.71,4.11,1.47,8.2,2,11.29.36,1.9.71,3.8,1.07,5.7,3,16.14,6.18,32.82,7.25,49.44.43,6.64.39,14.85-3.75,19.32-2.36,2.55-5.88,3.81-10.76,3.88l-3.64,0c-2.93.05-5.95.1-9,.1-12.61,0-26.94-.78-37.49-6.52C60.93,137,63,123.65,63.88,118c.17-1.08.32-2,.43-2.82,1.64-12.28,3.26-22.47,4.79-30.3,1.37-7,2.88-14.31,4.6-22.39.54-2.53,1.22-5,1.87-7.44a74.88,74.88,0,0,0,3-14.84c.14-2.16.42-4.31.72-6.58.77-6,1.58-12.24-.27-18.35a11,11,0,0,1,3.27-.79,8.75,8.75,0,0,0,1.63,1.71c2.24,1.83,5.25,2.16,7.45,2.39a29.55,29.55,0,0,0,3.13.17,30,30,0,0,0,7.54-1l.05,0c2.3-.6,7-1.84,8.56-4.87m-.34-2a1.49,1.49,0,0,0-1.35.94c-1,2.37-5.47,3.52-7.43,4a27.78,27.78,0,0,1-7,.9,28.41,28.41,0,0,1-2.92-.15c-2.18-.23-4.65-.52-6.4-1.95a5.77,5.77,0,0,1-1.5-1.74.81.81,0,0,0-.76-.48h-.06c-1.31.08-4.12.41-5.73,1.66a.86.86,0,0,0-.28,1c2.81,8.11.28,16.75-.27,25-.52,7.73-3.18,14.49-4.78,22S68.62,77,67.14,84.47c-1.84,9.39-3.51,20.67-4.81,30.41C61.5,121.1,58,137.62,64.1,141c10.77,5.86,25.09,6.76,38.45,6.76,4.39,0,8.66-.1,12.68-.15,16.11-.2,17.27-13,16.48-25.32-1.2-18.66-4.92-37-8.34-55.37q-1.05-5.64-2.05-11.27c-1-5.57-1.85-11.15-2.58-16.76-1-7.67-3.73-17.48-1.78-25.07a1.4,1.4,0,0,0-.76-1.59,17,17,0,0,0-5.83-1.34Z"/></svg>