<svg id="图层_1" data-name="图层 1" xmlns="http://www.w3.org/2000/svg" viewBox="0 0 186 186"><defs><style>.cls-1{fill:#f9e6ed;}.cls-2{fill:#fff;}.cls-3{fill:#5b3b2f;}.cls-4{fill:#f8e5ec;}</style></defs><path class="cls-1" d="M135.12,79.39c-.21-2.55-2.52-4.82-4.43-6.3a6.69,6.69,0,0,1-2.06-2.27c-1-1.9-1-4.18-1.41-6.25a58.84,58.84,0,0,0-1.62-7.07,22.41,22.41,0,0,0-3.2-6.73c-2.69-3.77-3.7-7.9-5-12.27a130.3,130.3,0,0,1-3.82-15.95,10.8,10.8,0,0,0-5.87-8.16c-2-1-4.18-1.26-6.31-1.93A7.62,7.62,0,0,1,96.18,7.1,29.73,29.73,0,0,1,95.45,3H83.31s.94,8.82-3.52,10c-3.07.81-6,1.39-8.74,3.11-5.82,3.62-7.31,10.72-9.74,16.73-4.16,10.28-7.17,20.2-4.8,31.36,1.07,5.08,3,11.59,7.32,14.88a13.18,13.18,0,0,0,3.69,2.3c.49.14,1.08.3,1.47-.05s.28-.9.65-1.21c.65-.55,1.69.09,2.4.2A8,8,0,0,0,75.15,80c.51-.13,2.15-.34,2.21-1s-1.94-.55-2.45-.39a3,3,0,0,1-1.4,0c-1.57-.29-2.87-1.9-4.24-2.75-.25-.21-.61-.64-.15-.84a1.29,1.29,0,0,1,.4-.07,6.66,6.66,0,0,0,2.25-.48,2.9,2.9,0,0,0,1.65-1.59,1.43,1.43,0,0,0-.23-1.34,1.25,1.25,0,0,0-1.68,0c-.8.75-2.72.54-4.46.62-1.89-5.17-1.48-7.1-1.48-7.15a43.15,43.15,0,0,0-1.42-14.82c3-4,3.38-7.46,5.12-12,1.27-3.34,3.57-7.95,3.57-7.95l31.46-1.95c3.18,6.36,5,13.22,7.71,19.8,1,2.35,1.32,4.9,2.31,7.24,1.6,3.83,4.57,7.24,6.92,10.64,1.11,1.61,2.61,3.34,2.89,5.34.32,2.31.47,4.55,1.87,6.5a21.33,21.33,0,0,0,3.16,3.84,1.43,1.43,0,0,0,1.05.43c1.92-.24-1.54-4.35-1.76-5-.6-1.83,1.27-1.3,2.28-.85a5.39,5.39,0,0,1,2.88,3.12,2,2,0,0,0,.47.82.6.6,0,0,0,1-.13A1,1,0,0,0,135.12,79.39Z"/><path class="cls-2" d="M73.38,15.29c.86-.34,1.73-.72,2.6-1a1,1,0,0,1,1.14.47c1.95,3.86,8.48,6.46,12.31,6.52,4.65.07,12-.1,14.44-4.55A15.75,15.75,0,0,1,105,14.43c1.32-1.65,3.53-.34,4.12,1.27a6.64,6.64,0,0,1,.22,2.52c-.24,7.32,1,14.82,1.49,22.14.1,1.56.21,3.12.32,4.68q1.28,18.32,2.89,36.62t3.66,36.59l.21,1.83,6.13,54.3a4.53,4.53,0,0,1-.26,2.71,4.16,4.16,0,0,1-1.83,1.5A31.45,31.45,0,0,1,90.78,177q-.47-42.19-1.51-84.37l-5.38,84.75A27.82,27.82,0,0,1,55.07,176a7.44,7.44,0,0,1-2.79-3,8.59,8.59,0,0,1-.21-4.59q2.05-15.42,4.29-30.8c2.41-16.61,5-33.23,8.82-49.57,2.95-12.49,6.67-24.92,7.24-37.74.39-8.71-.68-17.42-.44-26.14.06-2.07.6-6.53.8-8.1A.94.94,0,0,1,73.38,15.29Z"/><path class="cls-3" d="M107.81,183a32,32,0,0,1-17.58-5.2,1,1,0,0,1-.45-.82c-.22-20.35-.54-40.9-1-61.35l-3.93,61.79a1,1,0,0,1-.5.8,28.75,28.75,0,0,1-29.88-1.43,8.44,8.44,0,0,1-3.13-3.39,9.52,9.52,0,0,1-.29-5.12c1.36-10.17,2.81-20.53,4.3-30.81,2.32-16,4.91-33,8.83-49.66.58-2.45,1.19-4.89,1.8-7.34,2.44-9.84,5-20,5.42-30.21.2-4.55,0-9.2-.2-13.7-.17-4.07-.36-8.27-.24-12.43.05-2.08.58-6.42.8-8.19A1.94,1.94,0,0,1,73,14.37l.56-.23c.69-.28,1.39-.56,2.11-.78a2,2,0,0,1,2.32,1c1.77,3.52,8.06,5.93,11.44,6,5.26.09,11.55-.31,13.55-4a7.22,7.22,0,0,0,.36-.8,7,7,0,0,1,.9-1.67,2.86,2.86,0,0,1,2.76-1.1,4.19,4.19,0,0,1,3.07,2.64,7.11,7.11,0,0,1,.29,2.78v.12a113.12,113.12,0,0,0,.82,14.45c.25,2.49.51,5.08.68,7.6.1,1.56.2,3.11.31,4.67.88,12.56,1.85,24.87,2.89,36.6,1.11,12.47,2.34,24.77,3.66,36.57l6.34,56.13a5.41,5.41,0,0,1-.38,3.3,5.09,5.09,0,0,1-2.24,1.9A31.77,31.77,0,0,1,107.81,183Zm-16-6.58a30.62,30.62,0,0,0,29.76,1.29A3.43,3.43,0,0,0,123,176.6a3.71,3.71,0,0,0,.14-2.1l-6.34-56.14c-1.32-11.81-2.55-24.13-3.66-36.62-1-11.73-2-24.06-2.89-36.63-.11-1.56-.22-3.12-.32-4.68-.16-2.49-.42-5-.66-7.53a111.19,111.19,0,0,1-.83-14.72v-.12a5.67,5.67,0,0,0-.16-2,2.24,2.24,0,0,0-1.53-1.37.9.9,0,0,0-.88.38,4.82,4.82,0,0,0-.62,1.2c-.14.33-.28.66-.45,1-2.82,5.24-11.58,5.11-15.33,5.06-4-.06-11-2.77-13.19-7.06-.59.22-1.26.49-1.9.75l-.58.23h0c-.15,1.32-.71,5.91-.77,8-.11,4.08.07,8.25.25,12.28.2,4.54.4,9.24.19,13.88C73,60.75,70.4,71,67.94,81c-.61,2.44-1.22,4.88-1.79,7.32-3.9,16.54-6.49,33.51-8.8,49.48-1.49,10.28-2.94,20.64-4.3,30.79a7.8,7.8,0,0,0,.14,4.07,6.73,6.73,0,0,0,2.45,2.55,26.72,26.72,0,0,0,27.29,1.58l5.35-84.2a1,1,0,0,1,1-.93h0a1,1,0,0,1,1,1C91,120.39,91.46,148.6,91.77,176.42ZM73.38,15.29h0Z"/><path class="cls-4" d="M75.42,80.24h0l.59-1c.34-.56-.79-.79-1.16-.7a1.44,1.44,0,0,0-.37.19h0s-.16-.22-.2-.21c-1.13-.64-2,.86-2,.86-.86-.61-1.66-1.4-2.49-1.91-.25-.21-.61-.64-.15-.84a1.29,1.29,0,0,1,.4-.07,6.66,6.66,0,0,0,2.25-.48,2.9,2.9,0,0,0,1.65-1.59,1.43,1.43,0,0,0-.23-1.34,1.25,1.25,0,0,0-1.68,0c-.79.74-2.69.55-4.41.62h0a24.16,24.16,0,0,1-1.53-10.85c.2-4.84-1-9.61-2.22-14.3L57,65.84c1.07,5.08,3,11.59,7.32,14.88A13.09,13.09,0,0,0,68,83a2.83,2.83,0,0,0,.91.14v0L72.73,83a3.12,3.12,0,0,0,1.79-.64.94.94,0,0,0,.39-.52h0c.25,0,.5-.1.75-.17.52-.13,2.15-.33,2.21-1.05S75.93,80.08,75.42,80.24Z"/></svg>