<svg id="图层_1" data-name="图层 1" xmlns="http://www.w3.org/2000/svg" viewBox="0 0 186 186"><defs><style>.cls-1{fill:#f9e6ed;}.cls-2{fill:#fff;}.cls-3{fill:#5b3b2f;}</style></defs><path class="cls-1" d="M144.29,67.6l-.12-.29,0-.11h0a12.73,12.73,0,0,0-1.59-2.32,8,8,0,0,0-4.29-2.64c-1.75-.45-3.29-.1-5-.16-2.11-.06-3-2.81-3.91-4.32-1.19-2-2.45-3.92-3.71-5.86a75,75,0,0,1-6.85-12.25c-1.78-4.38-4.92-11.81-4.92-16.57-1.73-12.39-10.58-10-10.31-9.93C90.32,15.32,91,3.5,91,3.5H80.12C80.61,5,81.75,12.37,75.79,13c-3.75.42-8.54.66-10.58,4.44A15.92,15.92,0,0,0,63.83,22c-1.09,5.61-1.75,11.37-3,16.93a42.35,42.35,0,0,1-3,8,47.91,47.91,0,0,0-3.09,9.73A43,43,0,0,0,54,62c-.12,1.56-.06,2.71-1.39,3.72a18.89,18.89,0,0,1-4,2.07,8.84,8.84,0,0,0-2.67,2.08,25.87,25.87,0,0,0-2.27,2.73c-.44.61-.86,1.23-1.27,1.87-.22.35-.44.72-.65,1.08-.34.57-.87,1.22-.15,1.72a.85.85,0,0,0,.76.09,2.24,2.24,0,0,0,.56-.41c.09-.07.57-.57.64-.42s-.07.27-.09.33-.07.21-.11.31c-.39,1.07-1.25,2.21-1.3,3.38,0,.74,1.08,1.41,1.57.69.79-1.17,1.56-2.36,2.36-3.52a9.67,9.67,0,0,1,1.19-1.64c.07-.06.17-.18.28-.14.41.13-.25,1.8-.33,2a10,10,0,0,0-.79,3.48,1.51,1.51,0,0,0,.35,1,.94.94,0,0,0,1.4-.17,2.78,2.78,0,0,0,.83.27,1,1,0,0,0,.83-.21c.4-.34.33-.92.38-1.4a13.18,13.18,0,0,1,.23-1.4,6.87,6.87,0,0,1,.43-1.4c.11-.25.35-.94.67-.92.1.66.18,1.32.23,2a3.39,3.39,0,0,0,.27,1.7,1.16,1.16,0,0,0,.9.5,1.14,1.14,0,0,0,.93-.41c.49-.61.17-1.34.1-2a7.83,7.83,0,0,1,0-1.81c.21-1.56,1.35-2.67,2.41-3.72a5.81,5.81,0,0,0,1.45-1.79,10.57,10.57,0,0,0,.42-2.44c.45-2.75,2.42-4.66,3.62-7.08q2.57-5.14,5.1-10.31Q70.06,45.44,73.2,39l5-11.81c16,2.18,25.92,3.51,26.57,3.5a2.07,2.07,0,0,1,2,1.5c1.34,4.67,5.5,18.31,9.83,23.11,0,0,8.95,11,13.59,14.07A37.46,37.46,0,0,0,134.53,72a4.06,4.06,0,0,0,1.76,1.72,4.35,4.35,0,0,0,1.33.3c1,.13,2.42.25,2.87-.91,1.1,0,3-.64,3-1.83h0a5.88,5.88,0,0,0,.72-.33.73.73,0,0,0,.43-.61A4.8,4.8,0,0,0,144.29,67.6Zm-6.4,1.64a.43.43,0,0,0,0,.07l-.09,0Zm-1.84,1.59-.07,0h0l.05.06Z"/><path class="cls-2" d="M123,167.88c-.93-2.82-1.75-5.67-2.48-8.55-3.65-11-4.62-23.38-6.46-34.77-3.14-19.45-6.6-38.88-8.41-58.52a273.5,273.5,0,0,1-1.26-29.47c0-2.09,2.53-22.45-.07-22.75a4.79,4.79,0,0,0-2,0c-1.26.51-1.73,2.14-2.6,3.07-3.12,3.3-8.15,4.54-12.53,4.12A18.43,18.43,0,0,1,80,18.71c-1.79-1-2.63-2.56-4-4a6.72,6.72,0,0,0-.86-.74,2.77,2.77,0,0,0-2.23-.1c-.44.11-1,.27-1.13.69a1.43,1.43,0,0,0,0,.89C72.7,19.8,74,25.19,74,29.6c0,4.17-1,7.89-1.8,12C71.08,47.4,69,53,67.43,58.62,65,67.3,63.71,76.26,62.59,85.21c-2.24,18-3.87,36.07-5.5,54.14-1.09,12.06-2,24.12-3.86,36.08a4.9,4.9,0,0,0,0,1.48c.45,3.14,3.67,1.63,5.59,2.18,3,.86,5.63,1.88,8.75,1.21,3.6-.77,7.07,1.39,10.58,1.9a28.93,28.93,0,0,0,11.26-.77c6-1.49,11.79,2,17.85.81,3.1-.63,18.63-2.36,18.71-6.58C126,173.62,123.63,169.93,123,167.88Z"/><path class="cls-3" d="M104.45,183.5a34.69,34.69,0,0,1-6.14-.74c-3-.55-5.85-1.07-8.69-.36a29.76,29.76,0,0,1-11.65.78,24.11,24.11,0,0,1-3.93-1c-2.18-.68-4.24-1.33-6.29-.9-3,.64-5.46-.1-8.1-.89L58.52,180a6.5,6.5,0,0,0-1.71-.08c-1.56.06-4.15.15-4.6-2.91a5.94,5.94,0,0,1,0-1.78c1.57-9.89,2.46-20,3.32-29.85.18-2,.35-4.11.54-6.16,1.61-17.8,3.26-36.17,5.51-54.17,1.07-8.6,2.33-17.75,4.86-26.74.53-1.86,1.11-3.73,1.67-5.54a105,105,0,0,0,3.07-11.39c.18-.93.37-1.84.56-2.74A42.3,42.3,0,0,0,73,29.61c0-4-1.15-9-2-13.06l-.19-.86a2.39,2.39,0,0,1,0-1.49,2.42,2.42,0,0,1,1.82-1.27,3.71,3.71,0,0,1,3,.24,7.46,7.46,0,0,1,1,.87c.47.48.87,1,1.25,1.42a9.53,9.53,0,0,0,2.56,2.39A17.34,17.34,0,0,0,87.27,20c3.61.35,8.56-.47,11.71-3.82a6,6,0,0,0,.72-1,5,5,0,0,1,2.24-2.27,4.86,4.86,0,0,1,2.27-.09l.18,0c2.34.27,2.62,5.12,1.19,20.77-.13,1.46-.23,2.61-.24,3A270,270,0,0,0,106.59,66c1.52,16.46,4.24,33.05,6.88,49.11L115,124.4c.48,3,.9,6.08,1.32,9.08,1.19,8.6,2.42,17.5,5.09,25.54.8,3.1,1.61,5.88,2.49,8.55h0a26.91,26.91,0,0,0,1.12,2.54c1,2,1.94,4,1.91,5.57-.07,4.07-9,5.84-17.37,7.17-.93.15-1.67.27-2.13.36A14.47,14.47,0,0,1,104.45,183.5Zm-11.86-3.44a34.25,34.25,0,0,1,6.08.74c2.88.53,5.6,1,8.36.47.48-.1,1.25-.23,2.22-.38,10.38-1.66,15.66-3.42,15.7-5.25,0-1.08-1-3.07-1.72-4.67a25.87,25.87,0,0,1-1.22-2.78h0c-.9-2.71-1.72-5.53-2.5-8.61-2.71-8.15-4-17.14-5.16-25.83-.41-3-.84-6.08-1.32-9-.5-3.11-1-6.23-1.52-9.34-2.64-16.09-5.37-32.72-6.9-49.25a273.89,273.89,0,0,1-1.26-29.58c0-.45.1-1.51.25-3.13,1-11.13,1.14-17.4.37-18.64h0a4.64,4.64,0,0,0-1.28,0,3.42,3.42,0,0,0-1.28,1.48,9,9,0,0,1-1,1.35C97.38,20.81,92.25,22.5,87.08,22a19.21,19.21,0,0,1-7.6-2.42,11.36,11.36,0,0,1-3.09-2.84c-.36-.44-.74-.89-1.15-1.31a5.77,5.77,0,0,0-.71-.62c-.32-.22-1,0-1.43,0a2.5,2.5,0,0,0-.44.14c0,.08,0,.2,0,.26l.19.86c.92,4.12,2,9.24,2.09,13.48a44.08,44.08,0,0,1-1.27,9.49c-.19.89-.38,1.78-.55,2.7A109.22,109.22,0,0,1,70,53.39c-.56,1.8-1.14,3.66-1.65,5.5-2.5,8.86-3.75,17.92-4.81,26.44-2.24,18-3.89,36.32-5.5,54.07-.18,2.09-.36,4.14-.54,6.19-.86,9.85-1.75,20-3.33,30a4,4,0,0,0,0,1.19c.17,1.16.67,1.27,2.56,1.21a7.55,7.55,0,0,1,2.33.15l1.15.34c2.49.75,4.64,1.39,7.12.86s5,.21,7.3.95a24.2,24.2,0,0,0,3.62.94,27.94,27.94,0,0,0,10.87-.75A14.28,14.28,0,0,1,92.59,180.06ZM104.15,14.81h0Z"/></svg>