<svg id="图层_1" data-name="图层 1" xmlns="http://www.w3.org/2000/svg" viewBox="0 0 186 186"><defs><style>.cls-1,.cls-3{fill:#9b9692;}.cls-2{fill:#f2f2f2;}.cls-3{opacity:0;}</style></defs><path class="cls-1" d="M105.08,176.39h-.5A31.23,31.23,0,0,0,103,167a26.29,26.29,0,0,1-.6-2.85,17.36,17.36,0,0,0-1-4.14c-.44-1-1.18-2.71-.07-4.11,2.61-3.31,1.84-6.81,1-10.52a31.66,31.66,0,0,1-.73-4.17,1.15,1.15,0,0,0-.08-.15,1,1,0,0,1-.14-.27,1.34,1.34,0,0,0-.07-.18,1.72,1.72,0,0,1-.14-.78c.24-1.43.36-2.85.49-4.22s.22-2.51.41-3.8c1.06-7.21.76-13.63-.87-19.07a18.93,18.93,0,0,1,.93-13.34,118.3,118.3,0,0,0,4.35-11.72,72.73,72.73,0,0,0,3.4-15.88c.47-5.63-1-13.52-3.57-19.63a.32.32,0,0,1,.09-.39l.06-.06h.18l.17,0c1.54,1.12,4.31,3.54,4.85,4,1.07.94,2.09.41,3.39-.26l.06,0a23.42,23.42,0,0,0,4.68-3.5L121,50.89c4-3.4,7.53-6.64,10.25-11.79.91-1.72,1-3.09.19-4.42a17.93,17.93,0,0,0-1.87-2.7c-2.32-2.7-4.85-5.29-7.29-7.8-2.74-2.81-5.57-5.71-8.13-8.78A9.39,9.39,0,0,0,112.55,14l-.25-.18c-1.41-1.08-3.17-1.37-5.52-.94-2.59.48-5.77.3-6.94-1.64a4.79,4.79,0,0,1-.55-2,14.21,14.21,0,0,1,.07-3l-7.45.19A10.61,10.61,0,0,1,92,9.14c-.2,2.07-1,3.12-2.81,3.6-.9.24-1.81.51-2.69.78-1.21.36-2.47.74-3.72,1-2.89.69-4.45,2.24-4.89,4.87a97.08,97.08,0,0,0-1,11.73l0,.47c-.18,4-.33,7.93-.49,11.89L76.2,47.4A4.37,4.37,0,0,1,75.38,50c-3,3.86-4.27,8.59-5.46,13.16l-.11.44-1.59,6.51L68,70.07l.23.08c-.18.59-.34,1.29-.51,2a20.05,20.05,0,0,1-.72,2.6c-.24.64-.5,1.3-.76,2-.51,1.27-1,2.58-1.46,3.85C64,82.84,64.05,84.64,65,86a8.72,8.72,0,0,0,1.17,1.43,3.82,3.82,0,0,0,2.18.94c.21,0,.8.1,1-.05a.14.14,0,0,0,0-.11.13.13,0,0,0,0-.08.41.41,0,0,0-.22-.1,3.14,3.14,0,0,1-1.39-.46l-.38-.22-.22-.13a2.66,2.66,0,0,1-1.1-1.68,6.36,6.36,0,0,1,.31-3.27l0-.14a4.23,4.23,0,0,1,.93-1.84q.42-.39.75-.24c.24.11.34.4.32.89a3.65,3.65,0,0,1,0,.38c-.06.69-.25,2.79.21,3.2a.18.18,0,0,0,.18,0c.13,0,.16-.1.13-.5a2,2,0,0,1,0-.23,2.57,2.57,0,0,1,.23-1,4.56,4.56,0,0,0,.21-.66,4.05,4.05,0,0,1,.31-.88,6.18,6.18,0,0,0,.57-3.71,8.58,8.58,0,0,1,.89-5.41c1.16-2.14,2.23-4.36,3.27-6.51.58-1.19,1.17-2.41,1.77-3.62h0c.07-.12.14-.24.2-.37.33-.66.67-1.31,1-2a35.68,35.68,0,0,0,3.5-11.56c.6-4.37,1.64-12.4,2.06-16.62l.11-1.2.37,1.15c.27.82.69,2.63,1.09,4.39s.82,3.57,1.08,4.35c2.11,6.46,1.13,11.81-1,17.84a20.26,20.26,0,0,0,.16,2.78,11.91,11.91,0,0,1,.12,3.22,22.66,22.66,0,0,1-2.1,4.06c-1,1.58-1.44,2.3-1.19,6.24.09,1.5.15,2.89.2,4.24a61.24,61.24,0,0,0,.93,9.89Q83.8,94.43,85,100.34t2.27,11.57a38.2,38.2,0,0,1,.56,5.19c0,.62,0,1.24,0,1.86a33.82,33.82,0,0,0,.46,6.49c2,10.15,4.62,20.36,6.88,29.37,1.29,5.15,2.63,10.47,1.32,16.06a14.84,14.84,0,0,0-.29,2.5l0,.59-.5,0,0-.58a15.23,15.23,0,0,1,.3-2.6c1.29-5.46,0-10.73-1.32-15.82-2.26-9-4.82-19.23-6.88-29.39a34.23,34.23,0,0,1-.47-6.59c0-.61,0-1.23,0-1.85a38.5,38.5,0,0,0-.55-5.1c-.74-3.86-1.51-7.72-2.27-11.57s-1.56-7.89-2.32-11.84a61.33,61.33,0,0,1-.94-10c0-1.35-.11-2.74-.2-4.22-.26-4.11.25-4.93,1.27-6.55a23.14,23.14,0,0,0,2.06-4,20.14,20.14,0,0,0-.16-3,12.47,12.47,0,0,1-.13-3c2.09-5.95,3.06-11.2,1-17.53-.26-.8-.68-2.62-1.09-4.39-.25-1.08-.5-2.19-.72-3.07-.48,4.42-1.38,11.36-1.92,15.31A36.18,36.18,0,0,1,77.78,60h0c-.32.64-.66,1.29-1,2-.68,1.33-1.32,2.67-2,4-1,2.16-2.11,4.38-3.28,6.53a8,8,0,0,0-.83,5.12,6.71,6.71,0,0,1-.62,4,3.62,3.62,0,0,0-.27.78,5.51,5.51,0,0,1-.24.72,1.85,1.85,0,0,0-.18.79,1.09,1.09,0,0,0,0,.18,1.66,1.66,0,0,1,0,.58c.41-.06.74-.07.92.09a.39.39,0,0,1,.13.3c0,.3-.38.52-.75.67.49-.06.9-.06,1.12.22a.47.47,0,0,1,.08.49c-.18.42-1,.59-2.35.75l-.29,0-.16,0a2.64,2.64,0,0,0,1.1.36.84.84,0,0,1,.56.26.61.61,0,0,1,.17.45.65.65,0,0,1-.23.47,1.89,1.89,0,0,1-1.35.16,4.31,4.31,0,0,1-2.47-1.07,9.07,9.07,0,0,1-1.25-1.52c-1.05-1.49-1.14-3.43-.3-5.93.43-1.28.95-2.6,1.46-3.87.26-.66.52-1.31.76-2A21.9,21.9,0,0,0,67.22,72c.16-.68.33-1.39.51-2l1.71-7c1.19-4.62,2.43-9.4,5.55-13.34a3.88,3.88,0,0,0,.71-2.33l.15-3.88q.23-5.94.49-11.9l0-.46a98.06,98.06,0,0,1,1-11.79c.48-2.82,2.2-4.54,5.27-5.28,1.24-.29,2.49-.67,3.69-1,.89-.27,1.81-.54,2.71-.79,1.6-.42,2.26-1.28,2.44-3.16a10.53,10.53,0,0,0-.12-2.84L91.32,6l8.62-.22,0,.3a14,14,0,0,0-.1,3.16,4.29,4.29,0,0,0,.48,1.81c1.33,2.21,5.58,1.55,6.42,1.4,2.5-.46,4.38-.14,5.91,1l.25.18a9.54,9.54,0,0,1,1.65,1.46c2.55,3,5.37,6,8.1,8.75,2.45,2.51,5,5.11,7.31,7.82a18.64,18.64,0,0,1,1.92,2.77,4.71,4.71,0,0,1-.18,4.91c-2.76,5.24-6.33,8.51-10.36,11.94-.42.35-.82.71-1.23,1.07a23.88,23.88,0,0,1-4.78,3.56l-.06,0c-1.35.69-2.62,1.35-4,.18-.48-.42-2.77-2.43-4.33-3.62,2.53,6.18,3.85,13.69,3.38,19.31a73,73,0,0,1-3.42,16,116.84,116.84,0,0,1-4.37,11.77,18.43,18.43,0,0,0-.91,13c1.66,5.51,1.95,12,.89,19.28-.19,1.28-.3,2.55-.41,3.78-.13,1.38-.26,2.81-.49,4.25a1.29,1.29,0,0,0,.12.53l.06.2.09.15a1,1,0,0,1,.16.38,31.48,31.48,0,0,0,.72,4.1c.81,3.66,1.66,7.44-1.11,10.94-.85,1.08-.4,2.37.14,3.6a18.28,18.28,0,0,1,1.09,4.26,24.69,24.69,0,0,0,.58,2.79A31.8,31.8,0,0,1,105.08,176.39ZM66.55,85.29a1.36,1.36,0,0,0,.3.75,1.33,1.33,0,0,0,1.28.61l.32,0c1.48-.17,1.88-.34,2-.45a2.36,2.36,0,0,0-1,0,3.44,3.44,0,0,1-1.89-.09A4.23,4.23,0,0,1,66.55,85.29Zm.85-.11,0,0a1.54,1.54,0,0,0,1.41.19,3.78,3.78,0,0,0,.91-.34,4.29,4.29,0,0,0-.5.07l-.23,0A3.48,3.48,0,0,1,67.87,85a4.38,4.38,0,0,1-1.21-.71,1.31,1.31,0,0,0,.7.86Zm-.86-1.62h0a5.14,5.14,0,0,0,1.45,1,7.88,7.88,0,0,1-.13-3.25,3.18,3.18,0,0,0,0-.36,1,1,0,0,0,0-.41s-.08,0-.19.15a3.9,3.9,0,0,0-.79,1.62l0,.14A8.49,8.49,0,0,0,66.54,83.56Zm40.17-31.62Zm6.89.17c-.87,0-1.76-.67-3.18-2.37-.32-.4-.66-.85-1-1.33a14.62,14.62,0,0,0-2.94-3.25l-.1-.08a6.12,6.12,0,0,0-.63-.35,1.48,1.48,0,0,1-.79-1.59c.13-.67.25-1.31.37-1.94.27-1.41.55-2.88.93-4.3.17-.6.32-1.2.46-1.8a34.23,34.23,0,0,1,1.51-5,4.91,4.91,0,0,0,.29-3.12,2.18,2.18,0,0,1,.74-2.48c1-.71,1.88,0,2.53.47s1.1.81,1.71,1.24a21.88,21.88,0,0,1,3.09,2.41c2.09,2.09,4.34,4.08,6.52,6L125,36.35l.14.12c.26.22.53.44.53.78a1,1,0,0,1-.39.7h0a30.55,30.55,0,0,0-5.38,6.95c-.81,1.29-1.65,2.62-2.58,3.86-1.58,2.12-2.53,3.32-3.66,3.35Zm-6.73-7.28a15.65,15.65,0,0,1,2.94,3.28c.35.48.68.92,1,1.31,1.31,1.57,2.14,2.22,2.82,2.19.91,0,1.84-1.21,3.28-3.15.91-1.23,1.75-2.55,2.55-3.82a31.22,31.22,0,0,1,5.48-7.07h0c.14-.13.22-.24.22-.31s-.19-.27-.35-.41l-.15-.13-1.89-1.67c-2.19-1.93-4.44-3.92-6.54-6a23.21,23.21,0,0,0-3-2.35c-.62-.43-1.21-.83-1.74-1.25-.72-.56-1.28-.92-1.92-.46a1.69,1.69,0,0,0-.55,1.95,5.49,5.49,0,0,1-.32,3.44,34.6,34.6,0,0,0-1.48,4.88c-.15.6-.3,1.2-.46,1.8-.38,1.4-.66,2.86-.93,4.27-.12.63-.24,1.27-.37,1.9s.28,1,.51,1.08a5,5,0,0,1,.79.45l.14.07Z"/><path class="cls-1" d="M110.13,49.3a.25.25,0,0,1-.21-.1c-.25-.36-.48-.71-.71-1.06a11.06,11.06,0,0,0-1.51-2A12,12,0,0,0,104.57,44c-.51-.26-1.06-.52-1.75-.81l-.18-.08c-.18-.09-.75-.36-.88-.23,0,.45,1.3,1.23,1.72,1.48l.33.21.75.54A10.63,10.63,0,0,1,107.67,48a.26.26,0,0,1-.1.34.25.25,0,0,1-.34-.09,10.1,10.1,0,0,0-3-2.76l-.76-.55-.29-.18c-.92-.56-1.91-1.21-2-1.8a.57.57,0,0,1,.17-.47c.38-.37,1-.05,1.45.14l.15.07c.7.29,1.27.56,1.79.82a12.47,12.47,0,0,1,3.26,2.24,11.48,11.48,0,0,1,1.57,2.08c.23.34.45.69.7,1a.23.23,0,0,1-.06.34A.19.19,0,0,1,110.13,49.3Z"/><path class="cls-1" d="M107.1,49.53a.25.25,0,0,1-.19-.09,6.85,6.85,0,0,0-3.21-1.77l-.19-.06c-.53-.18-1.11-.36-1.87-.57l-.11,0c-.41-.11-1.09-.29-1.26-.74a.64.64,0,0,1,.11-.61c.25-.36.83-.3,1.18-.27h.07c1.1.1,2.54.26,4,.53a.25.25,0,1,1-.1.5,39.59,39.59,0,0,0-4-.53h-.07q-.63-.06-.72.06a.18.18,0,0,0-.05.15c.08.2.71.37.92.42l.12,0c.77.21,1.35.39,1.89.58l.19.06a7.19,7.19,0,0,1,3.44,1.93.24.24,0,0,1,0,.35A.24.24,0,0,1,107.1,49.53Z"/><path class="cls-1" d="M113,56.77a1.69,1.69,0,0,1-.38,0,3.69,3.69,0,0,1-1.82-1.14A15.53,15.53,0,0,0,106,52.24a8.75,8.75,0,0,0-3.56-.43h-.76a.6.6,0,0,1-.54-.86c.18-.4.74-.6,1.1-.73a5.36,5.36,0,0,1,3.7.14c.24.08.47.17.71.27a5,5,0,0,0-1.73-.86,7.85,7.85,0,0,0-2.35-.33h-.17c-.83,0-2.5,0-2.53-1A.67.67,0,0,1,100,48a1.48,1.48,0,0,1,1.07-.31h.32c1.2,0,2.44,0,3.66,0a.25.25,0,0,1,.24.26.24.24,0,0,1-.26.25c-1.21,0-2.45,0-3.65,0h-.33a1.12,1.12,0,0,0-.69.16.13.13,0,0,0,0,.1c0,.57,1.52.55,2,.55h.18a8.53,8.53,0,0,1,2.5.35c.69.21,2.31.83,2.52,1.9a.25.25,0,0,1-.11.26.22.22,0,0,1-.27,0c-.13-.08-.51-.25-.73-.35s-.47-.19-.7-.27a4.84,4.84,0,0,0-3.35-.15c-.25.09-.74.27-.83.48a.13.13,0,0,0,0,.11s0,0,.08,0h.76a9.27,9.27,0,0,1,3.75.46,15.92,15.92,0,0,1,4.94,3.46,3.37,3.37,0,0,0,1.57,1,3,3,0,0,0,2-.62.24.24,0,0,1,.34.08.25.25,0,0,1-.08.35A4,4,0,0,1,113,56.77Z"/><path class="cls-2" d="M101,185a38.54,38.54,0,0,1-12.07-1.89c-1-.32-1.89-.74-2.8-1.14A16.58,16.58,0,0,0,80,180.14h-.47a16.89,16.89,0,0,0-6.91,1.94,16.91,16.91,0,0,1-5.45,1.75c-.58,0-1.15.11-1.69.18a17.38,17.38,0,0,1-2.33.21,6.75,6.75,0,0,1-1.52-.16,30.62,30.62,0,0,1-3.77-1.15c-1.09-.38-2.22-.78-3.38-1.07a19.75,19.75,0,0,0-4.38-.47,26.27,26.27,0,0,1-3-.22,34.12,34.12,0,0,0-4.12-.29,19,19,0,0,1-6.34-.9c-1.3-.5-2.93-1.4-3.25-2.84s.72-2.86,1.65-3.83c3.65-3.85,8.52-5.78,15.79-6.27,4-.27,6.06-2.17,6.62-6.15l.91-6.5c3.58-25.53,7.28-51.94,13.24-77.5a25,25,0,0,1,.89-2.7c.19-.49.37-1,.53-1.46.58-1.69,1.07-3.11,1.61-4.5.94-2.41,2.15-4.78,3.31-7.08.45-.88.9-1.76,1.33-2.64a71.91,71.91,0,0,1,4.19-7.24c2.4-3.72,2.65-7.06.85-11.51L84,39.16c-1.76-4.31-3.57-8.77-2.22-13.43.19-.66.38-1.28.57-1.88A26.07,26.07,0,0,0,84,14.78a1.18,1.18,0,0,1,.48-1,6.09,6.09,0,0,1,3.11-1,3.4,3.4,0,0,1,.45,0,1.14,1.14,0,0,1,1.09.52,7.8,7.8,0,0,0,6.46,3.87,6.2,6.2,0,0,0,5.91-4.54.92.92,0,0,1,.77-.46l.61,0a10.14,10.14,0,0,1,4.66,1.05.74.74,0,0,1,.35.66,19.91,19.91,0,0,0,1.08,6.68,29.38,29.38,0,0,1,.92,3.86,12.52,12.52,0,0,1-.81,4.41,23.24,23.24,0,0,0-.61,2.28c-.45,2.32-.94,5.08-1.22,8,0,.33-.07.68-.12,1-.24,2.05-.51,4.38.44,6.27a20,20,0,0,0,2.09,3.07A19.17,19.17,0,0,1,111.45,52c1.79,3.31,3.2,6,4.44,8.59C118.52,66,121,71.82,123.54,78.3c4.45,11.44,8.26,23.33,11.94,34.84l.56,1.74q1.19,3.69,2.38,7.37c4.31,13.29,8.2,27,12,40.21l1.41,5c1.22,4.28,1.22,7.15,0,9s-3.93,3.1-8.49,3.76a32.34,32.34,0,0,1-4.78.41,17.91,17.91,0,0,1-3.72-.37,23,23,0,0,0-4.73-.51,20.71,20.71,0,0,0-5.17.66l-1.35.34a70.61,70.61,0,0,0-7.19,2.09,34,34,0,0,1-7.85,1.53l-2.07.25A41.49,41.49,0,0,1,101,185Z"/><path class="cls-1" d="M102.33,13.09l.45,0a10,10,0,0,1,4.06.82A21.23,21.23,0,0,0,108,20.79a28.86,28.86,0,0,1,.89,3.73,13.08,13.08,0,0,1-.78,4c-.25.85-.49,1.65-.63,2.37-.45,2.35-1,5.14-1.24,8,0,.33-.07.67-.11,1-.25,2.09-.55,4.68.54,6.84A20.42,20.42,0,0,0,108.83,50a19.38,19.38,0,0,1,1.74,2.48c1.78,3.3,3.19,6,4.42,8.56,2.62,5.41,5.11,11.17,7.62,17.61,4.43,11.39,8.23,23.26,11.9,34.73l.58,1.79c.79,2.46,1.58,4.93,2.37,7.38,4.31,13.26,8.19,26.93,11.94,40.14l1.43,5c1.13,4,1.17,6.59.12,8.21s-3.54,2.69-7.79,3.31a32,32,0,0,1-4.64.4,17.44,17.44,0,0,1-3.52-.35,23.49,23.49,0,0,0-4.92-.53,21.73,21.73,0,0,0-5.43.69l-1.33.33a73.2,73.2,0,0,0-7.31,2.13,32.7,32.7,0,0,1-7.61,1.48l-2.09.25A41.2,41.2,0,0,1,101,184a37.39,37.39,0,0,1-11.76-1.83c-.91-.31-1.78-.7-2.71-1.11A17.55,17.55,0,0,0,80,179.14h-.52a17.6,17.6,0,0,0-7.32,2A16.28,16.28,0,0,1,67,182.82c-.62,0-1.19.12-1.74.19a17.37,17.37,0,0,1-2.2.19,6.06,6.06,0,0,1-1.31-.13A28.62,28.62,0,0,1,58.14,182c-1.11-.39-2.26-.79-3.47-1.1a21.33,21.33,0,0,0-4.59-.5,23.94,23.94,0,0,1-2.87-.2,34.52,34.52,0,0,0-4.24-.3,18.25,18.25,0,0,1-6-.83c-1.5-.58-2.46-1.36-2.63-2.13s.32-1.79,1.39-2.92c3.47-3.65,8.14-5.49,15.13-6,4.52-.31,6.92-2.53,7.55-7l.92-6.52C62.89,129,66.59,102.6,72.54,77.09a23.42,23.42,0,0,1,.85-2.58c.19-.5.38-1,.54-1.49.57-1.67,1-3.07,1.6-4.46.92-2.36,2.11-4.71,3.27-7,.45-.89.9-1.77,1.33-2.66a68.77,68.77,0,0,1,4.13-7.13c2.57-4,2.85-7.7.94-12.44L85,38.78C83.2,34.43,81.53,30.33,82.78,26c.19-.65.38-1.28.57-1.87A26.65,26.65,0,0,0,85,14.75c0-.08,0-.1.12-.21a5.27,5.27,0,0,1,2.61-.83l.31,0a.8.8,0,0,1,.2,0h0l0,0a8.8,8.8,0,0,0,7.31,4.33,7.21,7.21,0,0,0,6.78-5m-.1-2a1.87,1.87,0,0,0-1.71,1.14,5.21,5.21,0,0,1-5,3.87,6.86,6.86,0,0,1-5.62-3.4,2.12,2.12,0,0,0-1.93-1c-.19,0-.38,0-.58,0A7.48,7.48,0,0,0,83.79,13a2.16,2.16,0,0,0-.83,1.8c.13,4-.95,6.68-2.1,10.64-1.51,5.2.59,10,2.48,14.66,1.55,3.83,1.6,6.93-.77,10.59A74.33,74.33,0,0,0,78.33,58c-1.59,3.24-3.35,6.42-4.67,9.79-.59,1.5-1.11,3-1.63,4.55s-1.12,2.85-1.44,4.25c-6.47,27.74-10.21,55.94-14.18,84.09-.51,3.64-2.23,5.05-5.69,5.29-6.16.41-12,1.9-16.45,6.58-3.24,3.41-2.45,6.59,2,8.3,3.44,1.33,7.14.7,10.67,1.24,2.44.37,4.84.06,7.27.67s4.72,1.71,7.19,2.23a8.08,8.08,0,0,0,1.73.18c1.36,0,2.65-.28,4.1-.4,4.34-.34,7.84-3.68,12.28-3.68h.42c3.23.16,5.72,1.92,8.69,2.92A39.18,39.18,0,0,0,101,186a43,43,0,0,0,5.58-.36c3.4-.45,6.89-.64,10.13-1.83a84.07,84.07,0,0,1,8.45-2.41,19.5,19.5,0,0,1,4.93-.63,21.84,21.84,0,0,1,4.51.49,19,19,0,0,0,3.93.39,34.89,34.89,0,0,0,4.92-.42c9.34-1.35,11.91-4.94,9.32-14-4.31-15.13-8.54-30.28-13.39-45.24q-1.2-3.68-2.37-7.37c-3.94-12.29-7.84-24.6-12.52-36.63-2.34-6-4.87-12-7.69-17.76-1.41-2.92-2.92-5.79-4.46-8.64-1.1-2-2.88-3.66-3.9-5.68s-.43-4.66-.22-6.76c.25-2.64.7-5.25,1.21-7.85.38-1.95,1.72-5.09,1.43-7-.56-3.65-2.18-6.55-2-10.34a1.74,1.74,0,0,0-.83-1.57c-1.73-1-3.72-1.08-5.68-1.23Z"/><path class="cls-1" d="M82.55,89.92q.4,12.39.43,24.78c0,8.26,0,16.51-.13,24.77-.1,4.14-.24,8.3-.74,12.45-.26,2.07-.59,4.14-1,6.19a25.08,25.08,0,0,1-2.25,6,53.09,53.09,0,0,1-7.16,10.26,59.22,59.22,0,0,1-4.36,4.46,34.22,34.22,0,0,1-4.84,3.89,44,44,0,0,0,4.47-4.27,61.25,61.25,0,0,0,4-4.7,58.54,58.54,0,0,0,6.52-10.32,26.2,26.2,0,0,0,1.93-5.65c.39-2,.67-4,.88-6,.42-4.06.55-8.16.61-12.28.15-8.24.3-16.5.58-24.75S82.05,98.17,82.55,89.92Z"/><path class="cls-1" d="M121.25,107.92l15.11,71.9a1,1,0,0,1-.78,1.18,1,1,0,0,1-1.18-.77v0Z"/><path class="cls-1" d="M84.63,45.2a50.28,50.28,0,0,0,5.73,1.07,45,45,0,0,0,5.79.42,30.32,30.32,0,0,0,5.79-.4,17.81,17.81,0,0,0,5.45-1.88.09.09,0,0,1,.13,0,.11.11,0,0,1,0,.12l0,0a11.39,11.39,0,0,1-5.26,3.26,20.16,20.16,0,0,1-6.1.85c-1,0-2-.1-3-.23a27,27,0,0,1-3-.62,17.84,17.84,0,0,1-5.55-2.45l0,0a.11.11,0,0,1,0-.14A.1.1,0,0,1,84.63,45.2Z"/><path class="cls-1" d="M97.88,47.85c-.32,4.83-.45,9.73-.47,14.61s.09,9.76.32,14.64.6,9.76,1.11,14.62,1.23,9.7,2,14.53c-1-4.8-1.89-9.61-2.53-14.47s-1.23-9.73-1.62-14.61S96,67.38,95.9,62.48s-.18-9.81,0-14.75a1,1,0,1,1,2,.06v.06Z"/><rect class="cls-3" width="186" height="186"/></svg>