<svg id="图层_1" data-name="图层 1" xmlns="http://www.w3.org/2000/svg" viewBox="0 0 186 186"><defs><style>.cls-1,.cls-3{fill:#9b9692;}.cls-2{fill:#f2f2f2;}.cls-3{opacity:0;}</style></defs><path class="cls-1" d="M98.74,176.1h-.5a31.92,31.92,0,0,0-1.63-9.56,24.74,24.74,0,0,1-.6-2.89,17.5,17.5,0,0,0-1.08-4.21c-.44-1-1.19-2.74-.06-4.17,2.65-3.36,1.86-6.92,1-10.69a31.38,31.38,0,0,1-.74-4.24,1.15,1.15,0,0,0-.08-.15,1.17,1.17,0,0,1-.15-.27l-.06-.19a1.51,1.51,0,0,1-.14-.79c.23-1.45.36-2.89.49-4.28s.23-2.55.42-3.87c1.07-7.33.77-13.85-.88-19.37a19.18,19.18,0,0,1,.94-13.55A118.7,118.7,0,0,0,100.11,86a73.48,73.48,0,0,0,3.45-16.13c.48-5.72-1-13.74-3.63-19.95a.33.33,0,0,1,.1-.39l.06,0h.17l.18,0c1.56,1.12,4.37,3.59,4.92,4.07,1.09,1,2.13.42,3.45-.26l.06,0a23.89,23.89,0,0,0,4.76-3.55c.41-.37.83-.73,1.25-1.09,4.06-3.46,7.65-6.74,10.41-12,.93-1.75,1-3.14.19-4.5a17.07,17.07,0,0,0-1.9-2.74c-2.35-2.74-4.92-5.38-7.4-7.92-2.78-2.86-5.66-5.81-8.26-8.93a9.72,9.72,0,0,0-1.59-1.39l-.25-.19c-1.44-1.09-3.22-1.4-5.62-1-2.62.48-5.85.3-7-1.66a4.81,4.81,0,0,1-.55-2.06,14,14,0,0,1,.06-3l-7.57.19a11,11,0,0,1,.08,2.74c-.21,2.1-1,3.16-2.85,3.65-.92.24-1.84.52-2.74.79-1.23.37-2.5.76-3.78,1.06-2.94.7-4.52,2.28-5,5a98.17,98.17,0,0,0-1,11.93l0,.47q-.27,6-.5,12l-.16,4.07a4.35,4.35,0,0,1-.82,2.66c-3.11,3.92-4.35,8.72-5.55,13.37l-.12.45-1.61,6.61-.24-.06.23.08c-.18.6-.35,1.31-.51,2A24.28,24.28,0,0,1,60,72.8c-.25.66-.51,1.32-.78,2-.51,1.28-1,2.62-1.47,3.9-.8,2.38-.72,4.21.24,5.58a8.55,8.55,0,0,0,1.19,1.46,3.93,3.93,0,0,0,2.22,1c.24,0,.81.1,1-.06a.14.14,0,0,0,.05-.11.14.14,0,0,0,0-.09.34.34,0,0,0-.22-.09,3.33,3.33,0,0,1-1.41-.48l-.38-.21-.23-.14A2.65,2.65,0,0,1,59.1,83.8a6.46,6.46,0,0,1,.31-3.32l0-.14a4.38,4.38,0,0,1,.94-1.86c.29-.27.55-.35.76-.25s.35.41.32.91a3.65,3.65,0,0,1,0,.38c-.06.71-.25,2.84.21,3.25,0,0,.09.06.2,0s.16-.1.13-.51a2,2,0,0,1,0-.23,2.7,2.7,0,0,1,.23-1,4.37,4.37,0,0,0,.22-.67,4.05,4.05,0,0,1,.31-.88,6.32,6.32,0,0,0,.58-3.78,8.66,8.66,0,0,1,.91-5.5c1.17-2.16,2.26-4.42,3.32-6.6.58-1.21,1.18-2.45,1.8-3.68h0l.21-.37c.34-.67.68-1.34,1-2a36,36,0,0,0,3.56-11.75c.61-4.44,1.67-12.6,2.09-16.88l.12-1.2.36,1.15c.27.83.7,2.67,1.11,4.46s3.68,5,3.94,5.82c2.15,6.56-1.7,10.59-3.86,16.72A20.83,20.83,0,0,0,78,58.72,13.07,13.07,0,0,1,78.16,62,23.19,23.19,0,0,1,76,66.11c-1,1.61-1.46,2.34-1.21,6.35.1,1.52.15,2.94.2,4.31a63.37,63.37,0,0,0,.95,10q1.16,6,2.36,12c.77,3.92,1.55,7.84,2.31,11.76a39.26,39.26,0,0,1,.56,5.27c0,.63,0,1.26,0,1.89a34.87,34.87,0,0,0,.47,6.59c2.09,10.31,4.69,20.68,7,29.84C90,159.42,91.34,164.83,90,170.5a14.44,14.44,0,0,0-.3,2.55l0,.6-.5,0,0-.59a15.6,15.6,0,0,1,.31-2.63c1.31-5.56,0-10.91-1.33-16.08-2.3-9.16-4.91-19.54-7-29.86a35.22,35.22,0,0,1-.48-6.69c0-.63,0-1.25,0-1.88a39.58,39.58,0,0,0-.55-5.18c-.76-3.92-1.54-7.84-2.31-11.76s-1.59-8-2.36-12a63.22,63.22,0,0,1-1-10.12c-.05-1.37-.1-2.78-.2-4.29-.26-4.18.26-5,1.29-6.65a23.68,23.68,0,0,0,2.09-4,18.1,18.1,0,0,0-.16-3,13.64,13.64,0,0,1-.13-3c2.12-6,6-10,3.86-16.4-.27-.81-3.54-4.07-4-5.86-.25-1.12-.52-2.25-.74-3.15-.48,4.49-1.4,11.56-2,15.58A36.9,36.9,0,0,1,71,57.8h0c-.32.65-.67,1.31-1,2-.68,1.35-1.34,2.71-2,4-1.06,2.19-2.15,4.46-3.33,6.63a8.09,8.09,0,0,0-.85,5.21,6.82,6.82,0,0,1-.63,4,4,4,0,0,0-.28.79,4.5,4.5,0,0,1-.24.74,2,2,0,0,0-.19.8c0,.06,0,.12,0,.19a1.49,1.49,0,0,1,0,.59c.42-.06.75-.08.94.09a.37.37,0,0,1,.12.3c0,.31-.4.54-.79.69.51-.06,1-.08,1.17.21a.47.47,0,0,1,.08.49c-.18.43-1,.61-2.39.77l-.29,0a.37.37,0,0,1-.17,0,2.59,2.59,0,0,0,1.12.39.79.79,0,0,1,.58.26.61.61,0,0,1,.17.45.7.7,0,0,1-.24.47,1.92,1.92,0,0,1-1.36.17,4.37,4.37,0,0,1-2.51-1.1,8.45,8.45,0,0,1-1.27-1.53c-1.06-1.52-1.16-3.49-.3-6,.43-1.3,1-2.63,1.48-3.93.26-.66.53-1.32.78-2a25.26,25.26,0,0,0,.71-2.58c.17-.69.34-1.41.52-2L62.54,61c1.21-4.69,2.47-9.55,5.64-13.55A4,4,0,0,0,68.89,45L69.05,41q.24-6,.5-12l0-.47a99.36,99.36,0,0,1,1-12C71.09,13.7,72.84,12,76,11.21c1.26-.3,2.53-.69,3.75-1.06.9-.27,1.83-.55,2.75-.79,1.62-.44,2.29-1.31,2.48-3.22a10.11,10.11,0,0,0-.12-2.89l0-.28,8.74-.23,0,.3a13.87,13.87,0,0,0-.11,3.21,4.55,4.55,0,0,0,.49,1.84c1.36,2.25,5.67,1.58,6.52,1.43,2.55-.47,4.46-.14,6,1l.25.19a9.43,9.43,0,0,1,1.68,1.48c2.59,3.1,5.45,6,8.23,8.89,2.48,2.55,5,5.19,7.42,7.94a18.79,18.79,0,0,1,2,2.82,4.8,4.8,0,0,1-.19,5C122.92,42.18,119.3,45.5,115.2,49c-.42.35-.83.72-1.24,1.09a24.64,24.64,0,0,1-4.86,3.61l-.06,0c-1.37.7-2.66,1.37-4,.19-.49-.44-2.83-2.48-4.41-3.7,2.57,6.29,3.92,13.93,3.44,19.64a74.46,74.46,0,0,1-3.47,16.24,118.27,118.27,0,0,1-4.45,12,18.73,18.73,0,0,0-.92,13.21c1.68,5.59,2,12.18.9,19.59-.19,1.3-.3,2.59-.42,3.83-.12,1.41-.25,2.86-.49,4.32a1.3,1.3,0,0,0,.12.54c0,.07,0,.14.07.21a1.15,1.15,0,0,0,.08.15.73.73,0,0,1,.16.38,34.1,34.1,0,0,0,.74,4.17c.83,3.72,1.68,7.56-1.12,11.11-.87,1.1-.41,2.41.13,3.66a17.8,17.8,0,0,1,1.11,4.33,25.41,25.41,0,0,0,.59,2.83A32.43,32.43,0,0,1,98.74,176.1ZM59.59,83.54a1.47,1.47,0,0,0,.31.78,1.37,1.37,0,0,0,1.3.62l.33,0c1.59-.18,1.92-.37,2-.46-.1-.1-.66,0-1,0a3.36,3.36,0,0,1-1.92-.09A4.25,4.25,0,0,1,59.59,83.54Zm.11-1a1.29,1.29,0,0,0,.72.89l.07,0a1.56,1.56,0,0,0,1.43.2,4.25,4.25,0,0,0,.95-.35,3.25,3.25,0,0,0-.53.06l-.23,0a3.35,3.35,0,0,1-1.17-.13A4.37,4.37,0,0,1,59.7,82.54Zm-.11-.74h0a5.32,5.32,0,0,0,1.49,1A8,8,0,0,1,61,79.48c0-.16,0-.29,0-.36a1,1,0,0,0,0-.43,1.9,1.9,0,0,0-.2.16,3.82,3.82,0,0,0-.8,1.64l0,.14A9.53,9.53,0,0,0,59.59,81.8Zm40.8-32.13Zm7,.17c-.88,0-1.79-.68-3.23-2.41-.33-.4-.67-.86-1-1.34a14.89,14.89,0,0,0-3-3.31l-.11-.08a4.56,4.56,0,0,0-.63-.35,1.53,1.53,0,0,1-.81-1.62c.14-.68.26-1.32.38-2,.27-1.44.56-2.93,1-4.37.16-.62.32-1.23.47-1.84a33.59,33.59,0,0,1,1.53-5,5.07,5.07,0,0,0,.29-3.17,2.21,2.21,0,0,1,.76-2.52c1-.72,1.9,0,2.55.48s1.12.82,1.74,1.25A22,22,0,0,1,110.42,26c2.12,2.13,4.42,4.16,6.63,6.11L119,33.83l.15.13c.26.22.53.45.53.79a.91.91,0,0,1-.39.7h0a31.3,31.3,0,0,0-5.47,7.07c-.82,1.31-1.68,2.66-2.61,3.92-1.61,2.15-2.57,3.37-3.73,3.4Zm-6.87-7.41a15.67,15.67,0,0,1,3,3.36c.35.48.69.93,1,1.32,1.31,1.58,2.14,2.23,2.84,2.23h0c.92,0,1.87-1.23,3.33-3.2.93-1.25,1.78-2.59,2.6-3.89a31.6,31.6,0,0,1,5.56-7.17c.15-.13.23-.25.22-.32s-.19-.28-.35-.42l-.16-.13-1.91-1.7c-2.22-2-4.52-4-6.65-6.13A23.31,23.31,0,0,0,107,24c-.63-.43-1.22-.84-1.76-1.26-.74-.57-1.3-.94-2-.47a1.75,1.75,0,0,0-.57,2,5.54,5.54,0,0,1-.31,3.48,33.08,33.08,0,0,0-1.5,4.95c-.16.61-.31,1.23-.48,1.85-.38,1.42-.67,2.9-.94,4.34-.12.64-.24,1.28-.38,1.92s.28,1,.52,1.1a5.1,5.1,0,0,1,.8.46Z"/><path class="cls-1" d="M103.87,47a.24.24,0,0,1-.2-.11c-.26-.36-.5-.72-.72-1.07a11.93,11.93,0,0,0-1.54-2,12.1,12.1,0,0,0-3.18-2.18c-.52-.26-1.08-.52-1.79-.82l-.17-.08c-.19-.09-.77-.37-.9-.23s0,0,0,.05c0,.41,1.35,1.2,1.78,1.46a2.87,2.87,0,0,1,.33.21l.76.55a10.6,10.6,0,0,1,3.16,3,.25.25,0,0,1-.44.24,10.29,10.29,0,0,0-3-2.8l-.77-.56-.29-.19c-.94-.57-1.94-1.22-2-1.82a.56.56,0,0,1,.17-.47c.38-.38,1.06-.06,1.46.14l.16.07c.71.3,1.29.56,1.81.83a12.52,12.52,0,0,1,3.31,2.28,11.91,11.91,0,0,1,1.61,2.11c.22.35.45.7.7,1.05a.25.25,0,0,1,0,.35A.3.3,0,0,1,103.87,47Z"/><path class="cls-1" d="M100.8,47.22a.25.25,0,0,1-.2-.09,7,7,0,0,0-3.27-1.8l-.18-.06c-.68-.23-1.37-.43-1.9-.58l-.11,0c-.42-.11-1.11-.3-1.28-.75A.64.64,0,0,1,94,43.3c.25-.37.84-.31,1.2-.27h.07c1.11.11,2.59.26,4.06.55a.24.24,0,0,1,.19.29.26.26,0,0,1-.29.2c-1.45-.28-2.9-.44-4-.54h-.07c-.16,0-.65-.06-.74.06a.2.2,0,0,0,0,.16c.08.21.72.38.93.43l.13,0c.53.15,1.23.35,1.92.59l.18.06a7.3,7.3,0,0,1,3.5,2,.24.24,0,0,1,0,.35A.23.23,0,0,1,100.8,47.22Z"/><path class="cls-1" d="M106.74,54.57a2.56,2.56,0,0,1-.39,0,3.89,3.89,0,0,1-1.85-1.16A15.9,15.9,0,0,0,99.64,50,8.83,8.83,0,0,0,96,49.53h-.79a.57.57,0,0,1-.55-.36.62.62,0,0,1,0-.5c.18-.4.74-.61,1.11-.74a5.44,5.44,0,0,1,3.75.14c.25.09.5.18.75.29h0a5.23,5.23,0,0,0-1.78-.9,8.12,8.12,0,0,0-2.39-.34H96c-.83,0-2.54,0-2.57-1a.64.64,0,0,1,.19-.47,1.62,1.62,0,0,1,1.07-.32H95c1.24,0,2.51,0,3.77.05a.25.25,0,0,1,.24.26.25.25,0,0,1-.25.24c-1.25,0-2.53,0-3.76-.05h-.28A1.32,1.32,0,0,0,94,46a.14.14,0,0,0,0,.11c0,.58,1.56.56,2.06.56h.18a9.16,9.16,0,0,1,2.54.36c.7.22,2.35.84,2.56,1.94a.28.28,0,0,1-.11.25.22.22,0,0,1-.27,0c-.14-.08-.53-.26-.74-.35l-.72-.28A4.87,4.87,0,0,0,96,48.4c-.26.09-.75.27-.85.49a.16.16,0,0,0,0,.12s0,0,.1,0H96a9.39,9.39,0,0,1,3.81.47,16.4,16.4,0,0,1,5,3.52,3.49,3.49,0,0,0,1.6,1,3.15,3.15,0,0,0,2.08-.64.25.25,0,0,1,.34.09.26.26,0,0,1-.08.34A4,4,0,0,1,106.74,54.57Z"/><path class="cls-2" d="M77,182c-.94,0-1.82,0-2.69-.1s-1.93-.11-2.9-.15a32.39,32.39,0,0,1-6.75-.75,12.87,12.87,0,0,1-3.37-1.63,20,20,0,0,0-2.82-1.5,6.79,6.79,0,0,0-2.58-.54,10,10,0,0,0-4.12,1.15c-.48.21-1,.43-1.5.63a22.91,22.91,0,0,1-4.91,1.2,36.31,36.31,0,0,1-5.24.38c-1,0-2,0-3-.13-8.78-.7-15.21-3.56-18.59-8.26-2.82-3.91-3.49-9-2-15,4.39-17.71,12.94-33.48,21.31-48.11C47.6,92.07,59.11,75.64,70.25,59.74l2.09-3C73,55.89,73.75,55,74.47,54c1-1.25,1.93-2.51,2.94-3.74.34-.41.72-.82,1.1-1.23,1.28-1.37,2.74-2.93,2.95-5.11a7.17,7.17,0,0,0-1.39-4.59l-.39-.67a25.14,25.14,0,0,1-1.84-4.26,29,29,0,0,1-1.3-13,60.64,60.64,0,0,0,.36-7.71c0-.8,0-1.6,0-2.4a.65.65,0,0,1,.35-.57,10.64,10.64,0,0,1,3.88-.61c.43,0,.85,0,1.28-.06h0a.64.64,0,0,1,.59.34c1.56,3,3.69,4.45,6.33,4.45a9.49,9.49,0,0,0,4-1,9.64,9.64,0,0,0,3.18-2.51,3.63,3.63,0,0,1,2.68-1.22c.39,0,.78-.06,1.16-.1a7.15,7.15,0,0,1,.9-.08c.41,0,.79,0,1.12.95,0,.14.1.7.2,2.45v.21a17.29,17.29,0,0,0,.54,3.13c.16.63.34,1.26.52,1.88a22.86,22.86,0,0,1,.83,3.54c.31,2.67-.52,5.73-1.31,8.7-.32,1.16-.61,2.27-.84,3.34-.11.53-.31,1.19-.51,1.9-.83,2.84-1.87,6.38-.15,8.56a15.55,15.55,0,0,0,3.06,2.7A20.55,20.55,0,0,1,106.79,49c1.76,1.72,3.53,3.54,5.25,5.4,3.27,3.55,6.48,7.4,9.55,11.45a210,210,0,0,1,16,25c5.25,9.43,9.84,18.94,13.63,27,7.5,15.91,13.59,32.12,18.55,45.88a5.33,5.33,0,0,1-.89,5.77c-5.51,7.34-13.26,10.83-25.14,11.32l-1.49,0a68.2,68.2,0,0,1-10.69-1.09c-1.93-.3-3.92-.61-6-.84a81.67,81.67,0,0,0-9-.61c-1.26,0-2.42.05-3.56.15a30.6,30.6,0,0,0-6.23,1.16,23.54,23.54,0,0,0-2.57,1l-1.31.56a7.8,7.8,0,0,1-3,.57,8.37,8.37,0,0,1-1.58-.15,31.73,31.73,0,0,0-6-.54c-2.6,0-5.21.25-7.74.49S79.56,182,77,182Z"/><path class="cls-1" d="M101.25,11h0a1,1,0,0,1,.1.21c0,.19.09.73.17,2.28v.17a18.36,18.36,0,0,0,.57,3.31c.16.66.35,1.31.53,1.93a21.32,21.32,0,0,1,.79,3.38c.29,2.47-.51,5.44-1.28,8.32-.32,1.18-.62,2.29-.85,3.4-.1.48-.29,1.13-.49,1.82-.85,2.9-2,6.87,0,9.46a16.45,16.45,0,0,0,3.25,2.88,18.94,18.94,0,0,1,2,1.58c1.76,1.71,3.52,3.52,5.21,5.36,3.25,3.52,6.44,7.35,9.49,11.37a210.09,210.09,0,0,1,16,24.84c5.24,9.42,9.81,18.91,13.6,26.94,7.48,15.88,13.55,32.06,18.51,45.79a4.36,4.36,0,0,1-.75,4.83c-5.31,7.08-12.83,10.44-24.38,10.92-.49,0-1,0-1.46,0a68.11,68.11,0,0,1-10.53-1.08c-1.93-.3-3.93-.61-6-.84a83.16,83.16,0,0,0-9.08-.62c-1.28,0-2.48.05-3.65.15a31.88,31.88,0,0,0-6.43,1.2,23.44,23.44,0,0,0-2.69,1.06l-1.28.55a6.81,6.81,0,0,1-2.58.5,7.28,7.28,0,0,1-1.39-.14,32,32,0,0,0-6.23-.56c-2.66,0-5.29.25-7.84.49S79.51,181,77,181c-.92,0-1.77,0-2.61-.1-1-.07-2-.11-2.94-.15a31.2,31.2,0,0,1-6.54-.72,12.18,12.18,0,0,1-3.11-1.52,21.13,21.13,0,0,0-3-1.57,7.77,7.77,0,0,0-3-.61,11.07,11.07,0,0,0-4.53,1.23c-.46.21-1,.43-1.45.62a22.22,22.22,0,0,1-4.69,1.14,35.91,35.91,0,0,1-5.1.37c-1,0-2,0-3-.12-8.48-.68-14.65-3.4-17.86-7.85-2.64-3.67-3.25-8.43-1.83-14.16C21.81,140,30.32,124.28,38.66,109.7c9.79-17.09,21.28-33.5,32.4-49.38l2.06-2.94c.72-.91,1.43-1.82,2.14-2.74.95-1.23,1.93-2.5,2.92-3.72.31-.38.67-.76,1.06-1.17,1.32-1.42,3-3.18,3.22-5.7a8.24,8.24,0,0,0-1.52-5.2c-.13-.21-.26-.43-.38-.65a24.52,24.52,0,0,1-1.77-4.08,27.89,27.89,0,0,1-1.26-12.54,61.11,61.11,0,0,0,.37-7.84c0-.72,0-1.43,0-2.15a11.39,11.39,0,0,1,3.26-.43l1.08,0c2.17,3.93,5,4.77,7.1,4.77a10.46,10.46,0,0,0,4.39-1.09A10.69,10.69,0,0,0,97.26,12a2.64,2.64,0,0,1,1.94-.88,11.57,11.57,0,0,0,1.27-.11,6.56,6.56,0,0,1,.78-.07m-23.33.37h0M101.25,9c-.65,0-1.36.17-2.08.18a4.64,4.64,0,0,0-3.41,1.56A8.88,8.88,0,0,1,92.9,13a8.42,8.42,0,0,1-3.54.9Q86,13.89,83.92,10a1.65,1.65,0,0,0-1.45-.87h-.11c-1.85.12-3.75,0-5.49.74a1.65,1.65,0,0,0-1,1.47,85.14,85.14,0,0,1-.38,10,29.9,29.9,0,0,0,1.35,13.44,25.57,25.57,0,0,0,1.92,4.42c.86,1.54,1.84,2.81,1.66,4.69-.24,2.43-2.39,4-3.84,5.8-1.75,2.14-3.39,4.36-5.11,6.52-12,17.19-24.16,34.3-34.59,52.53-8.81,15.38-17.11,31-21.42,48.37C12,171.16,20.15,180.21,37,181.56c1,.09,2.08.13,3.12.13a37.24,37.24,0,0,0,5.38-.39,24.24,24.24,0,0,0,5.12-1.25c2-.76,3.46-1.72,5.27-1.72a5.83,5.83,0,0,1,2.21.46c2.17.89,4.06,2.6,6.31,3.18,3.2.82,6.56.68,9.83.93.92.07,1.84.1,2.76.1,5.23,0,10.29-1,15.43-1a30.73,30.73,0,0,1,5.85.52,8.79,8.79,0,0,0,1.77.18,8.94,8.94,0,0,0,3.34-.65c1.31-.53,2.6-1.19,3.79-1.55a30,30,0,0,1,6-1.12c1.16-.1,2.32-.14,3.48-.14a82,82,0,0,1,8.86.6c5.84.65,11,1.94,16.77,1.94.51,0,1,0,1.54,0,10.18-.42,19.39-3,25.9-11.72a6.3,6.3,0,0,0,1-6.71c-5.61-15.56-11.53-31-18.58-46-4.31-9.13-8.75-18.22-13.66-27.05a214.83,214.83,0,0,0-16.13-25.08c-3-4-6.22-7.84-9.61-11.52-1.72-1.86-3.48-3.67-5.3-5.43-1.51-1.48-3.75-2.65-5-4.27-1.8-2.28.31-7.11.85-9.63.81-3.83,2.62-8.43,2.16-12.36a44.08,44.08,0,0,0-1.37-5.55,15.57,15.57,0,0,1-.51-3,23.58,23.58,0,0,0-.27-2.93A2,2,0,0,0,101.25,9Z"/><path class="cls-1" d="M74.46,114.4q-4.11,15.79-7.81,31.68Q64.81,154,63.15,162c-1.06,5.31-2.1,10.67-2.62,16v0a1,1,0,0,1-1.1.9,1,1,0,0,1-.9-1.09v0c.71-5.5,1.92-10.81,3.15-16.12s2.6-10.58,4-15.85Q69.86,130.06,74.46,114.4Z"/><path class="cls-1" d="M120.82,112.66a166.62,166.62,0,0,1,7.53,15.79q3.38,8.09,6,16.47A144.21,144.21,0,0,1,138.44,162a114.09,114.09,0,0,1,1.66,17.54,1,1,0,0,1-2,0v-.07A111.12,111.12,0,0,0,137,162.22a140,140,0,0,0-3.61-17q-2.33-8.4-5.45-16.57A168.12,168.12,0,0,0,120.82,112.66Z"/><path class="cls-1" d="M93,45.74A145.38,145.38,0,0,1,105.42,58a163.74,163.74,0,0,1,11,13.65c1.76,2.34,3.35,4.79,5,7.22s3.08,5,4.35,7.63l1.92,4c.55,1.36,1.13,2.7,1.65,4.07a76.53,76.53,0,0,1,2.74,8.33.09.09,0,0,1-.06.12.1.1,0,0,1-.12,0h0c-2.6-5.24-5-10.49-7.9-15.48l-1-1.91-1.1-1.86c-.73-1.25-1.4-2.53-2.15-3.76-1.5-2.47-3-5-4.6-7.35a163.3,163.3,0,0,0-10.41-13.9A144.25,144.25,0,0,0,92.84,45.89a.11.11,0,0,1,0-.14A.12.12,0,0,1,93,45.74Z"/><path class="cls-1" d="M88.5,46Q85.35,59.33,82,72.58c-1.14,4.42-2.28,8.83-3.5,13.22s-2.43,8.79-4,13.06C75.9,94.53,76.94,90.1,78,85.68s2-8.88,3-13.33Q83.91,59,86.55,45.61a1,1,0,1,1,2,.38Z"/><path class="cls-1" d="M88.31,46.43c-2.28,3-4.41,6.17-6.46,9.38s-4,6.49-5.9,9.8C72.17,72.25,68.69,79.06,65.41,86c-1.59,3.48-3.22,6.94-4.69,10.47-.74,1.77-1.53,3.51-2.24,5.29l-2.12,5.33c-.73,1.77-1.4,3.56-2,5.36l-2,5.39c-1.28,3.61-2.47,7.25-3.72,10.87,1.17-3.65,2.28-7.31,3.48-11L54,112.3c.61-1.82,1.24-3.63,1.93-5.42l2-5.38c.67-1.8,1.42-3.56,2.13-5.35,1.39-3.57,2.95-7.07,4.47-10.59,3.14-7,6.48-13.92,10.14-20.68,1.83-3.37,3.71-6.72,5.72-10s4.06-6.52,6.38-9.68a1,1,0,0,1,1.61,1.18v0Z"/><rect class="cls-3" width="186" height="186"/></svg>