<svg id="图层_1" data-name="图层 1" xmlns="http://www.w3.org/2000/svg" viewBox="0 0 186 186"><defs><style>.cls-1,.cls-3{fill:#9b9692;}.cls-2{fill:#f2f2f2;}.cls-3{opacity:0;}</style></defs><path class="cls-1" d="M98.56,183.25a3.11,3.11,0,0,1-1.84-.64c-2.78-2-4-4.33-3.84-7.21l0-.59a14.52,14.52,0,0,1,.31-2.61c1.29-5.51,0-10.82-1.33-15.95C89.61,147.16,87,136.86,85,126.61a34.65,34.65,0,0,1-.48-6.63c0-.63,0-1.25,0-1.88A37.5,37.5,0,0,0,83.9,113l.49-.09a38.49,38.49,0,0,1,.56,5.22c0,.63,0,1.26,0,1.88a34.29,34.29,0,0,0,.47,6.54c2.07,10.24,4.65,20.53,6.94,29.61,1.3,5.2,2.65,10.57,1.32,16.2a15.08,15.08,0,0,0-.29,2.52l0,.6c-.18,2.68,1,4.9,3.64,6.77a2.51,2.51,0,0,0,3.7-.68,6.2,6.2,0,0,0,1.16-3.67,31.45,31.45,0,0,0-1.62-9.48,27.15,27.15,0,0,1-.6-2.87,17.11,17.11,0,0,0-1.06-4.18c-.45-1-1.19-2.73-.07-4.14,2.64-3.34,1.85-6.87,1-10.61a32.58,32.58,0,0,1-.74-4.21.56.56,0,0,0-.08-.15.86.86,0,0,1-.14-.27l-.06-.18a1.6,1.6,0,0,1-.15-.78c.24-1.44.37-2.87.49-4.26.11-1.24.23-2.53.42-3.83,1.06-7.28.77-13.75-.88-19.23l-.29-1c-1.25-4.08-2.53-8.31-.75-12.47l.46.2c-1.71,4-.51,7.94.77,12.13l.29,1c1.67,5.56,2,12.1.89,19.45-.19,1.29-.3,2.57-.41,3.81s-.26,2.83-.49,4.29a1.29,1.29,0,0,0,.12.53c0,.07.05.14.07.2a.44.44,0,0,0,.08.15.88.88,0,0,1,.16.38,31.81,31.81,0,0,0,.73,4.14c.82,3.69,1.67,7.5-1.11,11-.87,1.09-.41,2.39.13,3.63a18.06,18.06,0,0,1,1.1,4.29,25.19,25.19,0,0,0,.58,2.82,32,32,0,0,1,1.64,9.64,6.6,6.6,0,0,1-1.26,4A3.23,3.23,0,0,1,98.56,183.25Z"/><path class="cls-1" d="M98,159.23c-1.28-4.09-1.44-8.59-1.6-12.95l0-1.11c0-1-.07-2.07-.11-3.1a124.58,124.58,0,0,0-.93-13.58c-.32-2.3-.84-4.63-1.35-6.88a67.81,67.81,0,0,1-1.61-9.18c-.29-3.54-.45-7.24-.49-11.32h.5c0,4.06.2,7.75.48,11.28a67.08,67.08,0,0,0,1.61,9.11c.51,2.26,1,4.6,1.36,6.92a125.67,125.67,0,0,1,.93,13.64c0,1,.07,2.06.11,3.09l0,1.12c.16,4.32.32,8.79,1.57,12.81Z"/><path class="cls-1" d="M96.14,112.3a19.32,19.32,0,0,1,1-13.66,118.28,118.28,0,0,0,4.46-12A74.81,74.81,0,0,0,105,70.37c.48-5.77-1-13.85-3.66-20.11a.34.34,0,0,1,.1-.4l.06,0h.17l.18.05c1.52,1.1,4.19,3.42,5,4.11,1.1,1,2.15.42,3.48-.26l.06,0a23.8,23.8,0,0,0,4.79-3.57L116.44,49c4.09-3.48,7.71-6.79,10.5-12.08.93-1.76,1-3.16.19-4.53a18.73,18.73,0,0,0-1.91-2.76c-2.38-2.76-5-5.42-7.47-8-2.8-2.87-5.7-5.85-8.32-9a9.87,9.87,0,0,0-1.61-1.4l-.26-.2c-1.44-1.1-3.24-1.4-5.65-1-2.65.5-5.91.31-7.1-1.67a4.69,4.69,0,0,1-.56-2.07,14.27,14.27,0,0,1,.06-3.06l-7.64.2a10.7,10.7,0,0,1,.09,2.76c-.21,2.12-1,3.18-2.88,3.68-.92.24-1.86.52-2.76.8-1.24.37-2.52.76-3.81,1.06-3,.71-4.55,2.3-5,5a99.33,99.33,0,0,0-1,12l0,.49c-.19,4.08-.35,8.17-.51,12.25l-.15,3.91a4.45,4.45,0,0,1-.83,2.67c-3.13,4-4.38,8.8-5.59,13.48L64,62l-1.63,6.67-.25-.06.24.07c-.19.61-.36,1.33-.52,2a24.71,24.71,0,0,1-.74,2.65c-.25.66-.52,1.33-.78,2-.52,1.3-1.06,2.64-1.49,3.94-.81,2.39-.73,4.23.24,5.62a9,9,0,0,0,1.2,1.47,4,4,0,0,0,2.24,1c.24,0,.82.1,1-.06a.15.15,0,0,0,.06-.11.14.14,0,0,0,0-.09.35.35,0,0,0-.22-.1,3.2,3.2,0,0,1-1.43-.48l-.39-.22-.22-.13a2.69,2.69,0,0,1-1.12-1.72,6.56,6.56,0,0,1,.31-3.35l0-.14a4.42,4.42,0,0,1,1-1.88c.29-.27.55-.35.77-.25s.35.41.32.92a3.65,3.65,0,0,1,0,.38c-.06.71-.26,2.86.21,3.28a.23.23,0,0,0,.2,0c.13,0,.17-.11.13-.52a1.85,1.85,0,0,1,0-.23,2.48,2.48,0,0,1,.23-1,4.87,4.87,0,0,0,.22-.68,4.12,4.12,0,0,1,.31-.89,6.42,6.42,0,0,0,.59-3.81,8.71,8.71,0,0,1,.91-5.54c1.19-2.19,2.29-4.47,3.35-6.67.59-1.22,1.19-2.47,1.81-3.71h0l.2-.37c.34-.68.69-1.36,1-2a36.62,36.62,0,0,0,3.59-11.83c.58-4.28,1.67-12.69,2.1-17l.12-1.2.37,1.15c.27.84.7,2.69,1.11,4.49s.85,3.66,1.11,4.46c2.16,6.62,1.15,12.09-1,18.28a19.54,19.54,0,0,0,.16,2.84,13.32,13.32,0,0,1,.13,3.3,23.8,23.8,0,0,1-2.16,4.15C76.25,68.25,75.78,69,76,73c.1,1.53.15,3,.21,4.34a62,62,0,0,0,1,10.13q1.17,6.06,2.38,12.13t2.33,11.85l-.5.09q-1.14-5.92-2.33-11.84-1.2-6.08-2.38-12.14a64.18,64.18,0,0,1-1-10.2c0-1.38-.11-2.81-.2-4.33-.27-4.21.25-5,1.3-6.7A24.74,24.74,0,0,0,79,62.29a21.2,21.2,0,0,0-.16-3.07,13.4,13.4,0,0,1-.14-3c2.14-6.09,3.14-11.47,1-18-.27-.83-.7-2.7-1.12-4.51-.26-1.12-.52-2.26-.75-3.16-.49,4.56-1.43,11.83-2,15.7a38,38,0,0,1-4.68,14c-.69,1.36-1.35,2.73-2,4.07C68.09,66.56,67,68.84,65.79,71a8.19,8.19,0,0,0-.85,5.25,6.88,6.88,0,0,1-.64,4.09,3.56,3.56,0,0,0-.28.79,4.5,4.5,0,0,1-.24.74,2.09,2.09,0,0,0-.19.81c0,.06,0,.12,0,.19a1.54,1.54,0,0,1,0,.6c.42-.07.75-.08.94.09a.39.39,0,0,1,.13.3c0,.31-.41.54-.8.7.52-.07.95-.08,1.18.21a.49.49,0,0,1,.08.5c-.19.43-1,.61-2.4.77l-.3,0a.68.68,0,0,1-.17,0,2.59,2.59,0,0,0,1.13.39.8.8,0,0,1,.58.26.63.63,0,0,1,.17.46.62.62,0,0,1-.24.47,1.92,1.92,0,0,1-1.38.17A4.49,4.49,0,0,1,60,86.78a8.91,8.91,0,0,1-1.27-1.55c-1.07-1.53-1.17-3.52-.31-6.07.44-1.31,1-2.66,1.5-4,.26-.67.53-1.33.78-2a23,23,0,0,0,.72-2.59c.17-.7.34-1.43.53-2l1.75-7.13c1.22-4.73,2.49-9.62,5.68-13.66a3.91,3.91,0,0,0,.73-2.38l.15-3.91c.16-4.08.32-8.17.51-12.25l0-.49a98.83,98.83,0,0,1,1-12.07c.48-2.88,2.25-4.65,5.39-5.4,1.27-.3,2.54-.68,3.78-1.06.9-.27,1.84-.55,2.77-.8,1.64-.44,2.32-1.32,2.51-3.24a10.73,10.73,0,0,0-.13-2.92l0-.28,8.81-.23,0,.3a13.51,13.51,0,0,0-.1,3.23,4.26,4.26,0,0,0,.49,1.86c1.37,2.27,5.72,1.6,6.57,1.44,2.57-.48,4.49-.14,6.06,1l.26.2a9.85,9.85,0,0,1,1.68,1.48c2.61,3.13,5.51,6.1,8.31,9,2.5,2.58,5.09,5.24,7.48,8a18.76,18.76,0,0,1,2,2.84c.88,1.51.82,3.11-.19,5-2.83,5.36-6.48,8.71-10.61,12.23-.43.36-.85.73-1.26,1.1a24.75,24.75,0,0,1-4.9,3.64l-.06,0c-1.38.72-2.68,1.39-4,.2s-3.22-2.78-4.45-3.73c2.6,6.33,4,14,3.47,19.8A75.08,75.08,0,0,1,102,86.78a119.28,119.28,0,0,1-4.48,12.06,18.88,18.88,0,0,0-.93,13.32ZM60.7,84.2a1.56,1.56,0,0,0,1.62,1.42l.33,0c1.61-.19,1.94-.38,2-.47-.11-.1-.67,0-1,0A3.4,3.4,0,0,1,61.71,85,4.53,4.53,0,0,1,60.7,84.2Zm.11-1a1.31,1.31,0,0,0,.72.89l.07,0a1.62,1.62,0,0,0,1.45.19A4,4,0,0,0,64,84c-.18,0-.43,0-.53.06l-.24,0a3.13,3.13,0,0,1-1.17-.13A4.28,4.28,0,0,1,60.81,83.2Zm-.12-.75h0a5.52,5.52,0,0,0,1.49,1,8.18,8.18,0,0,1-.13-3.35,3.18,3.18,0,0,0,0-.36,1.11,1.11,0,0,0,0-.43,1.35,1.35,0,0,0-.2.16A3.93,3.93,0,0,0,61,81.13l0,.14A9.18,9.18,0,0,0,60.69,82.45ZM108.9,50.22c-.89,0-1.81-.68-3.25-2.42-.34-.41-.68-.87-1-1.36a14.86,14.86,0,0,0-3-3.33l-.11-.08a4.33,4.33,0,0,0-.64-.36A1.51,1.51,0,0,1,100,41c.13-.68.26-1.33.38-2,.28-1.46.56-3,1-4.42.16-.61.32-1.22.47-1.84a35.48,35.48,0,0,1,1.54-5.07,5.09,5.09,0,0,0,.3-3.2,2.22,2.22,0,0,1,.76-2.53c1-.73,1.92,0,2.58.48s1.12.83,1.75,1.26A23.63,23.63,0,0,1,112,26.22c2.14,2.15,4.45,4.19,6.68,6.16l1.93,1.71.14.12c.27.23.54.46.54.8a.91.91,0,0,1-.4.71h0a31.58,31.58,0,0,0-5.51,7.13c-.83,1.31-1.69,2.67-2.64,3.94-1.61,2.17-2.58,3.4-3.75,3.43ZM102,42.76a15.38,15.38,0,0,1,3,3.38c.36.49.7.94,1,1.33,1.32,1.6,2.16,2.25,2.87,2.25h0c.93,0,1.88-1.24,3.36-3.23.94-1.25,1.79-2.6,2.61-3.91a32.2,32.2,0,0,1,5.61-7.24h0c.15-.13.23-.24.23-.32s-.19-.28-.36-.42l-.16-.14-1.92-1.7c-2.24-2-4.56-4-6.71-6.18a21.57,21.57,0,0,0-3.1-2.41c-.63-.44-1.23-.86-1.77-1.28-.74-.58-1.31-.95-2-.47a1.73,1.73,0,0,0-.57,2,5.6,5.6,0,0,1-.32,3.52,34.84,34.84,0,0,0-1.51,5c-.16.62-.31,1.24-.48,1.86-.39,1.43-.67,2.93-1,4.37-.12.65-.24,1.3-.38,1.94s.29,1,.53,1.11a5.39,5.39,0,0,1,.81.47Z"/><path class="cls-1" d="M105.34,47.35a.25.25,0,0,1-.2-.1c-.27-.37-.5-.73-.73-1.09a11.68,11.68,0,0,0-1.55-2,12.58,12.58,0,0,0-3.21-2.21c-.52-.26-1.09-.52-1.8-.82L97.67,41c-.19-.09-.77-.37-.9-.24s0,0,0,.06c.05.41,1.36,1.21,1.79,1.47l.34.21c.23.18.49.37.76.56a10.62,10.62,0,0,1,3.18,3,.25.25,0,0,1-.09.34.25.25,0,0,1-.35-.1,10.31,10.31,0,0,0-3-2.82l-.78-.57-.29-.18c-.94-.58-2-1.24-2-1.84a.56.56,0,0,1,.17-.47c.39-.39,1.07-.06,1.48.13l.16.08c.72.3,1.3.57,1.83.83a12.68,12.68,0,0,1,3.33,2.3,12,12,0,0,1,1.62,2.13c.23.35.46.7.71,1.06a.25.25,0,0,1-.05.35A.3.3,0,0,1,105.34,47.35Z"/><path class="cls-1" d="M102.24,47.59a.28.28,0,0,1-.2-.1,7,7,0,0,0-3.29-1.81l-.18-.06c-.7-.24-1.39-.44-1.92-.59l-.12,0c-.42-.11-1.11-.3-1.28-.75a.63.63,0,0,1,.11-.62c.25-.37.85-.31,1.2-.27h.07c1.13.11,2.62.27,4.1.55a.26.26,0,0,1,.2.29.25.25,0,0,1-.3.2c-1.46-.28-2.93-.43-4-.54h-.08c-.16,0-.65-.07-.74.06a.2.2,0,0,0,0,.16c.08.2.73.38.94.43l.13,0c.53.15,1.23.35,1.94.59l.18.06a7.35,7.35,0,0,1,3.53,2,.25.25,0,0,1,0,.35A.27.27,0,0,1,102.24,47.59Z"/><path class="cls-1" d="M108.23,55a1.72,1.72,0,0,1-.39,0A3.87,3.87,0,0,1,106,53.8a16.14,16.14,0,0,0-4.9-3.45,9,9,0,0,0-3.65-.43h-.79a.58.58,0,0,1-.56-.36.73.73,0,0,1,.37-.89,3.3,3.3,0,0,1,.77-.36,5.55,5.55,0,0,1,3.79.14l.75.29h0a5.28,5.28,0,0,0-1.79-.9,8,8,0,0,0-2.42-.34h-.17c-.84,0-2.56,0-2.58-1.06A.6.6,0,0,1,95,46a1.7,1.7,0,0,1,1.09-.33h.28c1.24,0,2.53,0,3.8.05a.25.25,0,0,1,.24.26.26.26,0,0,1-.26.25c-1.26,0-2.54-.05-3.78-.05h-.29a1.11,1.11,0,0,0-.72.17.13.13,0,0,0,0,.1c0,.59,1.56.57,2.07.57h.18a8.67,8.67,0,0,1,2.57.37c.7.22,2.36.85,2.57,1.94a.26.26,0,0,1-.1.26.24.24,0,0,1-.28,0c-.14-.08-.52-.26-.75-.36a7.66,7.66,0,0,0-.72-.27,4.93,4.93,0,0,0-3.42-.16,3.3,3.3,0,0,0-.69.31c-.23.16-.19.26-.17.3s0,0,.09,0h.77a9.35,9.35,0,0,1,3.84.48,16.39,16.39,0,0,1,5.06,3.54,3.6,3.6,0,0,0,1.61,1,3.13,3.13,0,0,0,2.09-.64.26.26,0,0,1,.35.08.27.27,0,0,1-.08.35A4.13,4.13,0,0,1,108.23,55Z"/><path class="cls-2" d="M100.64,122.21c-1.81-.11-3.65-.12-5.43-.12a47.7,47.7,0,0,1-9.91-.72,3.94,3.94,0,0,1-2.54-2,3.15,3.15,0,0,0-1.84-1.76c-4-.93-4.12-3.28-4-7,0-.64.06-1.27,0-1.89a116.58,116.58,0,0,0-1.83-17.13c-.65-4.14-1.32-8.42-1.63-12.66-.29-13.31,1.84-24.34,6.93-35.68l.07-.18c.44-1,1-2.27.3-3.56-3.2-5.69-3-11.77-1.67-19.74a12,12,0,0,0-.68-5.18l-.07-.25a2.28,2.28,0,0,1,1.25-2.73A7.4,7.4,0,0,1,82.38,11a.36.36,0,0,1,.24.13c2.87,3,5.4,4.35,8,4.35,2.77,0,5.52-1.62,8.66-5.1a.41.41,0,0,1,.29-.13l.5.06c.38.05.76.09,1.13.15a1.78,1.78,0,0,1,1.2.82,1.84,1.84,0,0,1,.19,1.52c-1,3.27-.23,6.08.61,9.05.17.62.35,1.25.52,1.91a8.91,8.91,0,0,1,.14,2.73c-.09.67-.19,1.33-.3,2l-.2,1.28a31.48,31.48,0,0,0-.45,5.34,14,14,0,0,0,1.1,5.27,17.84,17.84,0,0,0,1.3,2.32,15.44,15.44,0,0,1,1.17,2.08c.27.6.55,1.21.82,1.82.55,1.21,1.12,2.45,1.6,3.69.15.4.3.81.44,1.21a59.69,59.69,0,0,1,1.88,7.13,72.88,72.88,0,0,1,1.29,14.47,125.23,125.23,0,0,1-1.31,16.45c-1.11,8.09-1.93,16.16-2.52,22.29-.68,7-2.3,9.12-7.91,10.41h-.1Z"/><path class="cls-1" d="M100,11h0m-.21.24h.14c.37.05.73.09,1.08.15a.75.75,0,0,1,.52.35.88.88,0,0,1,.09.71c-1.11,3.54-.24,6.63.6,9.61.17.61.34,1.24.51,1.88a7.7,7.7,0,0,1,.12,2.35q-.14,1-.3,2c-.07.43-.13.86-.2,1.29a33.16,33.16,0,0,0-.46,5.51,14.94,14.94,0,0,0,1.18,5.65,20.92,20.92,0,0,0,1.37,2.45,15,15,0,0,1,1.11,2c.26.61.54,1.21.82,1.82.54,1.2,1.11,2.44,1.58,3.65.14.39.29.78.42,1.17a59.6,59.6,0,0,1,1.85,7,71.48,71.48,0,0,1,1.27,14.27,124.7,124.7,0,0,1-1.3,16.31c-1.12,8.11-1.94,16.19-2.53,22.33-.67,6.92-2.27,8.4-7,9.51-1.82-.1-3.64-.11-5.4-.11a45.26,45.26,0,0,1-9.69-.7,2.87,2.87,0,0,1-1.88-1.51,4.14,4.14,0,0,0-2.5-2.24c-3.27-.76-3.34-2.3-3.19-6,0-.63.06-1.29,0-1.94a118,118,0,0,0-1.84-17.28c-.64-4.1-1.31-8.35-1.61-12.52-.29-13.19,1.81-24.06,6.83-35.26l.07-.17c.47-1,1.24-2.73.26-4.46-3.06-5.44-2.86-11.33-1.55-19.08a13,13,0,0,0-.71-5.62L79.38,14a1.29,1.29,0,0,1,.68-1.54,6.34,6.34,0,0,1,2-.52c3,3,5.7,4.46,8.5,4.46,3,0,5.93-1.65,9.19-5.19m-.24-2a1.39,1.39,0,0,0-1,.46c-2.88,3.19-5.4,4.77-7.92,4.77-2.32,0-4.65-1.35-7.25-4a1.34,1.34,0,0,0-1-.43h0a8.45,8.45,0,0,0-3.09.7,3.3,3.3,0,0,0-1.82,3.92,11.78,11.78,0,0,1,.73,5C76.92,27.09,76.47,33.73,80,40c.51.91,0,1.9-.42,2.84-5.33,11.9-7.29,23.27-7,36.16.72,10,3.37,19.69,3.45,29.73,0,4-1.23,8.53,4.69,9.9.47.11.85.63,1.19,1.26a5,5,0,0,0,3.21,2.5c5.1,1.11,10.33.54,15.49.86h.08a1.1,1.1,0,0,0,.31,0c6.11-1.4,8-4,8.67-11.28s1.5-14.86,2.52-22.25a127.91,127.91,0,0,0,1.32-16.58,72.86,72.86,0,0,0-1.31-14.67,58.16,58.16,0,0,0-1.92-7.25c-.14-.42-.29-.84-.45-1.25-.72-1.89-1.62-3.72-2.43-5.57-.69-1.56-1.79-2.84-2.47-4.4a12.81,12.81,0,0,1-1-4.88,29.83,29.83,0,0,1,.44-5.17c.16-1.1.35-2.2.5-3.29a9.9,9.9,0,0,0-.16-3.12c-.94-3.71-2.27-6.78-1.14-10.41a2.81,2.81,0,0,0-2.19-3.62c-.53-.09-1.07-.15-1.61-.22Z"/><path class="cls-1" d="M79.58,38.69a43,43,0,0,0,6.24,1,37.34,37.34,0,0,0,6.25.14,53.64,53.64,0,0,0,6-1A45.31,45.31,0,0,0,104,36.94h0a.1.1,0,0,1,.13.06.11.11,0,0,1,0,.1,12.56,12.56,0,0,1-5.48,3.66,19.36,19.36,0,0,1-6.54.72,37.3,37.3,0,0,1-12.58-2.6.1.1,0,0,1-.06-.13A.11.11,0,0,1,79.58,38.69Z"/><rect class="cls-3" width="186" height="186"/></svg>