<svg id="图层_1" data-name="图层 1" xmlns="http://www.w3.org/2000/svg" viewBox="0 0 186 186"><defs><style>.cls-1,.cls-3{fill:#9b9692;}.cls-2{fill:#f2f2f2;}.cls-3{opacity:0;}</style></defs><path class="cls-1" d="M99.17,176.41h-.5A32,32,0,0,0,97,166.83a27.74,27.74,0,0,1-.61-2.9,17.56,17.56,0,0,0-1.07-4.22c-.45-1-1.2-2.75-.07-4.18,2.66-3.37,1.87-6.93,1-10.71a33.07,33.07,0,0,1-.75-4.24.78.78,0,0,0-.08-.16.86.86,0,0,1-.14-.27,1.34,1.34,0,0,0-.07-.18,1.79,1.79,0,0,1-.14-.79c.24-1.46.37-2.9.49-4.3.12-1.25.23-2.55.42-3.87,1.08-7.34.78-13.87-.88-19.41A19.23,19.23,0,0,1,96.11,98a117.59,117.59,0,0,0,4.43-11.93A73.32,73.32,0,0,0,104,69.94c.48-5.73-1-13.76-3.64-20a.36.36,0,0,1,.1-.39l.06-.05h.18l.17,0c1.57,1.13,4.39,3.6,4.94,4.08,1.08,1,2.13.42,3.45-.26l.06,0a23.9,23.9,0,0,0,4.77-3.56l1.25-1.09c4.07-3.46,7.66-6.75,10.43-12,.93-1.76,1-3.15.19-4.51a17.74,17.74,0,0,0-1.9-2.74c-2.36-2.75-4.93-5.39-7.42-7.94-2.78-2.86-5.66-5.81-8.27-8.94a9.4,9.4,0,0,0-1.6-1.4l-.25-.19c-1.44-1.09-3.22-1.39-5.62-1-2.63.49-5.87.3-7.05-1.67a4.61,4.61,0,0,1-.56-2,14.09,14.09,0,0,1,.06-3l-7.58.19a11.52,11.52,0,0,1,.08,2.74c-.21,2.11-1,3.17-2.86,3.66-.91.25-1.84.53-2.73.79-1.24.38-2.52.76-3.8,1.07-2.94.7-4.52,2.28-5,5a100.56,100.56,0,0,0-1,11.94l0,.47q-.27,6-.5,12.05l-.16,4a4.36,4.36,0,0,1-.83,2.66c-3.1,3.92-4.35,8.73-5.55,13.39l-.12.45-1.62,6.63-.24-.06.24.07c-.19.6-.36,1.32-.52,2a20.79,20.79,0,0,1-.74,2.65c-.25.65-.51,1.32-.78,2-.51,1.29-1,2.62-1.47,3.91-.81,2.38-.73,4.21.23,5.59a8.72,8.72,0,0,0,1.2,1.45,3.94,3.94,0,0,0,2.22,1c.24,0,.82.1,1-.06a.12.12,0,0,0,.05-.11s0,0,0-.09a.44.44,0,0,0-.22-.1A3.27,3.27,0,0,1,61.18,86l-.39-.22-.22-.13A2.6,2.6,0,0,1,59.46,84a6.5,6.5,0,0,1,.31-3.33l0-.14a4.18,4.18,0,0,1,.95-1.86c.28-.27.54-.35.75-.26s.35.41.33.91c0,.08,0,.22,0,.39-.07.7-.26,2.84.21,3.26a.19.19,0,0,0,.19,0c.13,0,.17-.1.13-.51,0-.08,0-.16,0-.23a2.51,2.51,0,0,1,.23-1,4.31,4.31,0,0,0,.21-.67,4.83,4.83,0,0,1,.32-.89,6.32,6.32,0,0,0,.58-3.78,8.69,8.69,0,0,1,.91-5.51c1.17-2.17,2.27-4.43,3.32-6.61.59-1.22,1.19-2.46,1.81-3.69h0l.2-.37c.34-.67.69-1.34,1-2A36.49,36.49,0,0,0,74.5,45.91c.61-4.45,1.67-12.63,2.09-16.91l.12-1.2.37,1.14c.26.83.69,2.67,1.1,4.45S79,37,79.28,37.84c2.15,6.57,1.15,12-1,18.16a20.37,20.37,0,0,0,.15,2.82,12.62,12.62,0,0,1,.13,3.28,23.74,23.74,0,0,1-2.14,4.13c-1,1.6-1.47,2.34-1.21,6.36.1,1.52.15,2.94.2,4.32A63.5,63.5,0,0,0,76.35,87c.77,4,1.57,8,2.36,12.06s1.56,7.84,2.32,11.76a41.13,41.13,0,0,1,.56,5.28c0,.63,0,1.26,0,1.89a35.08,35.08,0,0,0,.47,6.61c2.09,10.32,4.7,20.72,7,29.89,1.32,5.24,2.68,10.66,1.34,16.34a15.43,15.43,0,0,0-.29,2.55l0,.6-.5,0,0-.6a14.63,14.63,0,0,1,.31-2.63c1.31-5.57,0-10.93-1.34-16.11-2.31-9.18-4.92-19.58-7-29.91a35.38,35.38,0,0,1-.48-6.7c0-.63,0-1.26,0-1.89a39.56,39.56,0,0,0-.55-5.19Q79.4,105,78.22,99.13c-.79-4-1.59-8-2.36-12.07a63.44,63.44,0,0,1-1-10.13c-.05-1.38-.1-2.8-.2-4.31-.27-4.18.25-5,1.29-6.66a24.29,24.29,0,0,0,2.1-4,20.91,20.91,0,0,0-.16-3,13.22,13.22,0,0,1-.14-3c2.13-6,3.12-11.4,1-17.84-.27-.82-.7-2.68-1.12-4.49-.25-1.1-.52-2.24-.74-3.13C76.47,34.87,75.55,42,75,46A36.78,36.78,0,0,1,71.38,57.9h0c-.32.66-.67,1.33-1,2-.68,1.36-1.34,2.72-2,4.05-1.06,2.2-2.15,4.46-3.33,6.64a8.13,8.13,0,0,0-.85,5.22,6.85,6.85,0,0,1-.63,4.06,3.75,3.75,0,0,0-.28.79,5.72,5.72,0,0,1-.24.74,2,2,0,0,0-.19.8,1.28,1.28,0,0,0,0,.19,1.72,1.72,0,0,1,0,.59c.43-.06.76-.07.94.09a.4.4,0,0,1,.13.31c0,.3-.41.53-.79.68.52-.06,1-.07,1.16.22a.46.46,0,0,1,.09.49c-.19.43-1,.61-2.39.76l-.29,0a.83.83,0,0,1-.18,0,2.53,2.53,0,0,0,1.13.38.88.88,0,0,1,.58.27.56.56,0,0,1,.16.45.65.65,0,0,1-.23.47,2,2,0,0,1-1.37.17,4.37,4.37,0,0,1-2.51-1.1A8.8,8.8,0,0,1,58,84.7c-1.05-1.52-1.15-3.49-.3-6,.44-1.3,1-2.64,1.49-3.94.26-.66.53-1.33.78-2a22.92,22.92,0,0,0,.71-2.58c.17-.7.34-1.41.53-2l1.74-7.08c1.21-4.7,2.47-9.56,5.64-13.57a3.94,3.94,0,0,0,.72-2.37l.16-4q.24-6,.5-12l0-.47a99.51,99.51,0,0,1,1-12c.49-2.87,2.24-4.62,5.36-5.37,1.26-.3,2.53-.68,3.76-1.05.9-.27,1.83-.56,2.75-.8,1.63-.44,2.3-1.31,2.49-3.22a11,11,0,0,0-.12-2.9l0-.28,8.75-.23,0,.3a13.34,13.34,0,0,0-.1,3.21,4.38,4.38,0,0,0,.48,1.85c1.36,2.26,5.69,1.59,6.54,1.43,2.55-.47,4.46-.14,6,1l.26.19a9.83,9.83,0,0,1,1.67,1.48c2.6,3.11,5.47,6.06,8.25,8.91,2.49,2.56,5.07,5.2,7.44,8a19.55,19.55,0,0,1,2,2.82c.87,1.51.81,3.09-.19,5-2.81,5.33-6.44,8.65-10.55,12.15l-1.24,1.09a24.75,24.75,0,0,1-4.87,3.62l-.06,0c-1.37.7-2.67,1.37-4,.19-.5-.44-2.84-2.49-4.43-3.7C103.63,56.6,105,64.25,104.5,70A74.17,74.17,0,0,1,101,86.25a118.6,118.6,0,0,1-4.45,12,18.79,18.79,0,0,0-.92,13.23c1.68,5.6,2,12.21.9,19.63-.19,1.3-.31,2.59-.42,3.83-.13,1.41-.26,2.87-.49,4.34a1.18,1.18,0,0,0,.11.54c0,.07,0,.14.07.2a.85.85,0,0,0,.09.15.88.88,0,0,1,.16.38,30.54,30.54,0,0,0,.74,4.18c.82,3.73,1.68,7.58-1.13,11.13-.87,1.1-.41,2.42.14,3.67a18.89,18.89,0,0,1,1.11,4.33,25.75,25.75,0,0,0,.59,2.85A32.5,32.5,0,0,1,99.17,176.41ZM60,83.68a1.53,1.53,0,0,0,.31.79,1.39,1.39,0,0,0,1.3.62l.33,0c1.6-.19,1.93-.37,2-.47-.1-.1-.66,0-1,0A3.54,3.54,0,0,1,61,84.52,4.53,4.53,0,0,1,60,83.68Zm.11-1a1.39,1.39,0,0,0,.72.89l.07,0a1.57,1.57,0,0,0,1.44.19,4,4,0,0,0,1-.35c-.18,0-.43,0-.54.06l-.23,0a3.51,3.51,0,0,1-1.16-.13A4.66,4.66,0,0,1,60.06,82.69ZM60,81.94h0a5.28,5.28,0,0,0,1.48,1,8,8,0,0,1-.13-3.32c0-.16,0-.28,0-.36a1.15,1.15,0,0,0,0-.43,1.35,1.35,0,0,0-.2.16,3.76,3.76,0,0,0-.81,1.65l0,.14A11.77,11.77,0,0,0,60,81.94Zm47.89-32c-.88,0-1.79-.68-3.22-2.41-.34-.4-.68-.86-1-1.35a14.65,14.65,0,0,0-3-3.31l-.1-.08a5.29,5.29,0,0,0-.64-.35A1.53,1.53,0,0,1,99,40.8c.14-.69.26-1.33.38-2,.28-1.44.56-2.93,1-4.37.17-.61.32-1.22.47-1.84a36.66,36.66,0,0,1,1.53-5,5,5,0,0,0,.3-3.18,2.21,2.21,0,0,1,.75-2.51c1-.73,1.91,0,2.57.48s1.12.82,1.74,1.25a22.7,22.7,0,0,1,3.15,2.45c2.12,2.14,4.41,4.16,6.63,6.11l1.92,1.71.15.12c.26.22.53.45.53.8a.92.92,0,0,1-.39.7h0a31.12,31.12,0,0,0-5.48,7.08c-.83,1.31-1.68,2.66-2.62,3.92-1.61,2.16-2.57,3.38-3.73,3.41ZM101,42.52a16.29,16.29,0,0,1,3,3.35c.35.48.69.93,1,1.32,1.33,1.6,2.19,2.25,2.88,2.23.92,0,1.87-1.23,3.34-3.2.93-1.25,1.78-2.6,2.6-3.9a31.69,31.69,0,0,1,5.57-7.19c.14-.13.22-.24.22-.32s-.19-.27-.36-.42l-.15-.13-1.92-1.7c-2.23-2-4.53-4-6.66-6.13a22.53,22.53,0,0,0-3.07-2.4c-.63-.43-1.23-.85-1.77-1.27-.74-.57-1.31-.94-2-.47a1.73,1.73,0,0,0-.57,2,5.51,5.51,0,0,1-.32,3.49,34.67,34.67,0,0,0-1.5,4.95c-.16.62-.31,1.24-.48,1.85-.38,1.42-.66,2.9-.93,4.33-.13.65-.25,1.3-.38,2s.28,1,.51,1.1a4.56,4.56,0,0,1,.81.47l.14.06Z"/><path class="cls-1" d="M104.31,47.07a.24.24,0,0,1-.2-.11c-.26-.36-.49-.72-.72-1.07a11.62,11.62,0,0,0-1.54-2,12.16,12.16,0,0,0-3.19-2.18c-.52-.27-1.09-.53-1.79-.82l-.17-.09c-.2-.09-.77-.36-.91-.23a.08.08,0,0,0,0,.06c0,.4,1.35,1.2,1.77,1.46l.34.21.76.55a10.61,10.61,0,0,1,3.16,3,.25.25,0,0,1-.43.25,10.36,10.36,0,0,0-3-2.81l-.77-.56-.3-.19c-.93-.57-1.94-1.22-2-1.82a.56.56,0,0,1,.17-.47c.39-.39,1.06-.06,1.47.13l.16.08c.71.3,1.28.56,1.81.83a12.59,12.59,0,0,1,3.32,2.28,12.29,12.29,0,0,1,1.61,2.11c.22.35.45.71.7,1.06a.25.25,0,0,1-.05.35A.3.3,0,0,1,104.31,47.07Z"/><path class="cls-1" d="M101.23,47.3a.23.23,0,0,1-.19-.09,6.91,6.91,0,0,0-3.28-1.8l-.18-.06c-.67-.23-1.34-.43-1.9-.59l-.12,0c-.42-.11-1.11-.29-1.28-.74a.66.66,0,0,1,.11-.62c.26-.37.85-.31,1.2-.27h.07c1.12.11,2.6.27,4.07.55a.25.25,0,0,1,.2.29.26.26,0,0,1-.3.2c-1.45-.28-2.91-.43-4-.54h-.07c-.16,0-.65-.06-.74.07a.18.18,0,0,0,0,.15c.08.21.72.38.94.44l.12,0c.57.16,1.25.36,1.93.59l.18.06a7.35,7.35,0,0,1,3.51,2,.25.25,0,0,1,0,.35A.3.3,0,0,1,101.23,47.3Z"/><path class="cls-1" d="M107.18,54.66l-.39,0a3.89,3.89,0,0,1-1.85-1.16,15.68,15.68,0,0,0-4.87-3.42,9,9,0,0,0-3.62-.43h-.78a.58.58,0,0,1-.56-.36.66.66,0,0,1,0-.5c.18-.4.74-.61,1.12-.74a5.44,5.44,0,0,1,3.75.14c.26.09.51.18.75.29h0a5.28,5.28,0,0,0-1.79-.9,8.12,8.12,0,0,0-2.39-.34H96.4c-.83,0-2.54,0-2.57-1A.64.64,0,0,1,94,45.7a1.57,1.57,0,0,1,1.07-.32h.29c1.24,0,2.51,0,3.77,0a.24.24,0,0,1,.24.26.25.25,0,0,1-.25.24c-1.26,0-2.53,0-3.76,0h-.29a1.22,1.22,0,0,0-.72.17.18.18,0,0,0,0,.1c0,.59,1.56.57,2.07.56h.18a8.47,8.47,0,0,1,2.54.36c.7.22,2.35.85,2.56,1.94a.24.24,0,0,1-.1.25.24.24,0,0,1-.28,0,7.55,7.55,0,0,0-.74-.35l-.72-.28a4.87,4.87,0,0,0-3.4-.15c-.26.09-.76.28-.86.49a.16.16,0,0,0,0,.12.17.17,0,0,0,.1,0h.77a9.39,9.39,0,0,1,3.81.47,16.32,16.32,0,0,1,5,3.52,3.46,3.46,0,0,0,1.59,1A3.18,3.18,0,0,0,109,53.5a.25.25,0,0,1,.34.09.25.25,0,0,1-.08.34A4,4,0,0,1,107.18,54.66Z"/><path class="cls-2" d="M105.85,51.48a133.34,133.34,0,0,1,6,26.9c1.19,11.06.67,22.2.94,33.3.26,10.73,2.06,21.34,4,31.88,1.45,7.89,1.54,19.17,9.44,23.68,2.59,1.47,5.23,4.68,4.18,7.86-1.15,3.45-5.91,3.92-9.08,4.29s-6.39.14-9.57.46c-7.78.8-14.6,4-22.55,2.94-5.54-.72-11.37-1.25-17.06-1.5-4.52-.19-11.21,1-14.76-2.54-3.13-3.13-2.73-6.93,1.3-8.8,5.36-2.48,8.4-6.58,10.35-12,7-19.46,8.32-39.35,4.88-59.66-.85-5-1.54-10.12-2.29-15.18l-.29-3.44-.17-6.85v-.07c.9-10,2.33-20,6.45-29.26a7.65,7.65,0,0,0,.26-5c-6.25-16.71.44-17.45-1-25.13a2.31,2.31,0,0,1,1.61-2.7c.78-.3,3.37-1,3.59.12a5.56,5.56,0,0,0,1.95,3.67,7.45,7.45,0,0,0,3.84,1.62c2.88.34,6.87-.66,8.49-3.28.56-.9.74-2.26,1.77-2.79.59-.31,3.52-.82,3.64.11a4.51,4.51,0,0,1-.27,1.39,18.31,18.31,0,0,0-.91,5.79c-.09,2,1.07,4.07,1.61,5.95.76,2.62-.76,5.6-.89,6.57a26,26,0,0,0-.29,7.63c.69,4.23,2.91,8.37,4.28,12.44Z"/><path class="cls-1" d="M92.45,184a25.57,25.57,0,0,1-3.35-.22c-5.66-.74-11.53-1.25-17-1.49-1,0-2.05,0-3.2,0-4.29.09-9.15.2-12.21-2.85a6.75,6.75,0,0,1-2.3-5.92A6.35,6.35,0,0,1,58.29,169c4.74-2.18,7.77-5.71,9.83-11.42,6.71-18.57,8.34-38.47,4.84-59.15-.65-3.8-1.21-7.68-1.75-11.42-.18-1.27-.36-2.53-.55-3.79l-.3-3.49-.17-6.92v-.17c.87-9.67,2.26-19.94,6.53-29.58A6.57,6.57,0,0,0,77,38.9c-4.08-10.93-2.74-15.42-1.66-19a12,12,0,0,0,.64-6.28,3.28,3.28,0,0,1,2.23-3.81c.11,0,2.7-1,4.09-.28a1.63,1.63,0,0,1,.84,1.14,4.57,4.57,0,0,0,1.61,3.09A6.44,6.44,0,0,0,88,15.14c2.64.31,6.18-.65,7.52-2.82a7.3,7.3,0,0,0,.39-.83,4.11,4.11,0,0,1,1.77-2.32c.57-.3,3.08-.87,4.28-.25A1.46,1.46,0,0,1,102.8,10a5.22,5.22,0,0,1-.33,1.89,17.77,17.77,0,0,0-.84,5.48,10.14,10.14,0,0,0,.92,3.76c.23.61.47,1.24.65,1.86.65,2.26-.13,4.65-.6,6.08a8.06,8.06,0,0,0-.26.9,25.33,25.33,0,0,0-.29,7.34,38.09,38.09,0,0,0,2.6,8c.57,1.4,1.16,2.85,1.64,4.28l.51,1.55a133,133,0,0,1,6.06,27.1,216.65,216.65,0,0,1,.85,22.85c0,3.46,0,7,.1,10.54.26,10.71,2.11,21.54,4,31.72.25,1.39.46,2.85.69,4.4,1,7.08,2.16,15.1,8.27,18.59,3.19,1.82,5.8,5.51,4.63,9-1.33,4-6.38,4.56-9.72,4.94l-.2,0c-1.69.2-3.39.23-5,.26s-3,.06-4.54.21a69,69,0,0,0-8.17,1.5A51.16,51.16,0,0,1,92.45,184Zm-21.52-3.73c.44,0,.87,0,1.28,0,5.51.24,11.44.76,17.15,1.51,4.85.64,9.25-.35,13.91-1.4a70.77,70.77,0,0,1,8.41-1.54c1.58-.16,3.17-.19,4.7-.22s3.26-.06,4.85-.24l.21,0c3-.34,7.11-.81,8-3.59.83-2.48-1.3-5.29-3.72-6.67-7-4-8.19-12.51-9.26-20.05-.22-1.53-.43-3-.68-4.32-1.88-10.26-3.74-21.18-4-32-.09-3.53-.09-7.12-.1-10.59a214.57,214.57,0,0,0-.84-22.63,131.19,131.19,0,0,0-6-26.7h0l-.51-1.53c-.46-1.37-1-2.73-1.59-4.17a39.29,39.29,0,0,1-2.72-8.43,26.72,26.72,0,0,1,.28-7.93,7.06,7.06,0,0,1,.34-1.25c.42-1.29,1.06-3.24.58-4.9-.16-.54-.37-1.11-.6-1.72a11.68,11.68,0,0,1-1.05-4.56,19.68,19.68,0,0,1,1-6.1,4.52,4.52,0,0,0,.16-.56,6.33,6.33,0,0,0-2.14.31,2.68,2.68,0,0,0-.84,1.31,7,7,0,0,1-.53,1.11c-1.84,3-6.15,4.15-9.46,3.75a8.41,8.41,0,0,1-4.36-1.84,6.34,6.34,0,0,1-2.25-4,6,6,0,0,0-2.28.43c-1.2.47-1.05,1.31-1,1.58a13.81,13.81,0,0,1-.7,7.21c-1,3.49-2.22,7.45,1.62,17.75a8.52,8.52,0,0,1-.28,5.7C74.4,53.29,73,63.36,72.19,72.85l.17,6.81L72.65,83c.18,1.2.36,2.47.54,3.73.54,3.74,1.1,7.6,1.74,11.38,3.56,21,1.9,41.26-4.93,60.16-2.23,6.17-5.68,10.16-10.87,12.56a4.32,4.32,0,0,0-2.75,3A4.87,4.87,0,0,0,58.12,178c2.46,2.44,6.86,2.35,10.75,2.26Z"/><path class="cls-1" d="M74,94a22.72,22.72,0,0,1,3.2,4.15c.47.72.86,1.48,1.29,2.21l1.14,2.28a57.94,57.94,0,0,1,3.4,9.51,82.66,82.66,0,0,1,2,9.85c.22,1.65.39,3.32.59,5l.34,5,0-.08a13.42,13.42,0,0,1,.13,1.41l.06,1.34.1,2.68.16,5.35.26,10.7-.59-10.69-.33-5.34-.18-2.66-.1-1.33c0-.42-.08-.93-.13-1.25l0-.08-.51-5c-.24-1.64-.47-3.28-.74-4.92a82.8,82.8,0,0,0-2.31-9.63,56.55,56.55,0,0,0-3.62-9.15L77,101.23c-.44-.69-.82-1.41-1.3-2.06a21.48,21.48,0,0,0-3-3.66l-.07-.06A1,1,0,1,1,74,94Z"/><path class="cls-1" d="M112.24,73.54a66.48,66.48,0,0,1,.07,15.25,53.44,53.44,0,0,1-3.7,14.74c-1,2.35-2,4.63-2.92,7a34,34,0,0,0-2.18,7.14c-.86,4.93-.53,10-.26,15-.43-5-.94-10-.23-15.09a34.37,34.37,0,0,1,2-7.33c.86-2.37,1.82-4.7,2.68-7a52.09,52.09,0,0,0,3.15-14.52,65.16,65.16,0,0,0-.56-14.84,1,1,0,0,1,2-.31Z"/><path class="cls-1" d="M78.19,41.29a55.25,55.25,0,0,0,11.65.51,38.07,38.07,0,0,0,5.7-.77c1.91-.34,3.75-1,5.72-1.47a17.7,17.7,0,0,1-5.29,3,24.92,24.92,0,0,1-3,.86,24,24,0,0,1-3,.4,22.69,22.69,0,0,1-6.1-.4A17.39,17.39,0,0,1,78.19,41.29Z"/><rect class="cls-3" width="186" height="186"/></svg>