<svg id="图层_1" data-name="图层 1" xmlns="http://www.w3.org/2000/svg" viewBox="0 0 186 186"><defs><style>.cls-1,.cls-3{fill:#9b9692;}.cls-2{fill:#f2f2f2;}.cls-3{opacity:0;}</style></defs><path class="cls-1" d="M70.11,183.25H70a5.71,5.71,0,0,1-4.35-2.84c-1.19-1.92-1.15-4.53-1-6.58v-.2l.2,0c2.44-.37,6-.71,8.57.55l.14.07v.16c0,.17,0,.36,0,.57,0,2.1,0,6-1.67,7.59A2.54,2.54,0,0,1,70.11,183.25Zm-5-9.18c-.15,1.94-.16,4.34.91,6.07a5.2,5.2,0,0,0,4,2.61,2,2,0,0,0,1.55-.57c1.51-1.45,1.52-5.21,1.52-7.23,0-.15,0-.29,0-.42C70.71,173.45,67.47,173.73,65.15,174.07Z"/><path class="cls-1" d="M116.5,183.25a2.41,2.41,0,0,1-1.72-.69c-1.73-1.66-1.74-5.93-1.75-8.22v-.78l.13-.07c2.59-1.36,6.14-1,8.58-.59l.19,0,0,.2c.17,2.2.22,5-1,7.06a5.7,5.7,0,0,1-4.36,3.06Zm-3-9.39v.48c0,2.06,0,6.35,1.6,7.86a1.88,1.88,0,0,0,1.47.55,5.22,5.22,0,0,0,4-2.81c1.08-1.88,1.07-4.48.92-6.58C119.15,173,115.9,172.69,113.53,173.86Z"/><path class="cls-1" d="M81.4,122.87a34.17,34.17,0,0,1-.47-6.59c0-.62,0-1.24,0-1.87a38.65,38.65,0,0,0-.55-5.11q-1.11-5.77-2.26-11.53-1.18-6-2.35-12c-.24-1.27-.58-2.52-.91-3.73-1-3.64-1.93-7.08-.2-10.62,6.68-13.71,6.34-26.88,4-34A29.08,29.08,0,0,1,78,33.07c-.1-1-.21-2-.34-2.87-.32,2.29-.9,5.2-1.45,8s-1,5.28-1.3,7.12a37.22,37.22,0,0,1-4.58,13.72c-.68,1.33-1.32,2.67-2,4-1,2.17-2.12,4.41-3.29,6.56a8.06,8.06,0,0,0-.84,5.14,6.66,6.66,0,0,1-.62,4,3.62,3.62,0,0,0-.27.78,5.61,5.61,0,0,1-.24.73,1.79,1.79,0,0,0-.18.79,1.21,1.21,0,0,0,0,.18,1.66,1.66,0,0,1,0,.58,1.23,1.23,0,0,1,.93.09.42.42,0,0,1,.12.3c0,.3-.38.52-.76.67.5-.06.92-.06,1.13.22a.47.47,0,0,1,.08.49c-.18.42-1,.6-2.35.75l-.29,0-.16,0a2.61,2.61,0,0,0,1.1.37.78.78,0,0,1,.57.26.64.64,0,0,1,.16.45.61.61,0,0,1-.23.46,1.9,1.9,0,0,1-1.35.17A4.35,4.35,0,0,1,59.38,85a8.69,8.69,0,0,1-1.25-1.52c-1.05-1.5-1.14-3.44-.3-6,.43-1.28,1-2.6,1.46-3.87.26-.66.52-1.31.77-2a21.65,21.65,0,0,0,.7-2.54c.17-.68.33-1.39.52-2l1.71-7c1.2-4.64,2.44-9.43,5.57-13.38a3.86,3.86,0,0,0,.71-2.33l.14-3.7q.24-6.06.5-12.12l0-.45a97.05,97.05,0,0,1,1-11.84c.48-2.83,2.21-4.56,5.28-5.29,1.25-.3,2.5-.68,3.71-1,.88-.27,1.8-.54,2.71-.79C84.26,8.85,84.92,8,85.1,6.1A9.85,9.85,0,0,0,85,3.25l0-.28,8.64-.22,0,.29a13.54,13.54,0,0,0-.11,3.17A4.36,4.36,0,0,0,93.9,8c1.34,2.23,5.6,1.57,6.44,1.41,2.51-.46,4.39-.14,5.93,1l.24.19a9.24,9.24,0,0,1,1.66,1.46c2.56,3.06,5.39,6,8.13,8.78,2.45,2.52,5,5.12,7.32,7.83a18.18,18.18,0,0,1,1.93,2.79c.87,1.48.81,3-.18,4.91C122.6,41.67,119,45,115,48.4l-1.23,1.07A24.15,24.15,0,0,1,109,53l-.06,0c-1.35.7-2.62,1.36-4,.19-.49-.43-2.79-2.44-4.35-3.64,2.54,6.2,3.86,13.74,3.39,19.37a72.92,72.92,0,0,1-3.43,16l-.47-.15A73,73,0,0,0,103.48,69c.48-5.64-1-13.55-3.58-19.68a.34.34,0,0,1,.1-.4l.06,0h.17l.18,0c1.54,1.12,4.31,3.55,4.86,4,1.07.94,2.09.41,3.39-.26l.07,0a23.53,23.53,0,0,0,4.69-3.51L114.65,48c4-3.41,7.55-6.65,10.28-11.82.91-1.72,1-3.09.19-4.43a18.6,18.6,0,0,0-1.87-2.71c-2.33-2.7-4.86-5.3-7.31-7.81-2.75-2.82-5.58-5.73-8.15-8.81a9.54,9.54,0,0,0-1.58-1.38l-.25-.19c-1.41-1.08-3.17-1.37-5.53-.94-2.6.48-5.79.3-7-1.64a4.52,4.52,0,0,1-.55-2,13.64,13.64,0,0,1,.06-3l-7.47.19a10.69,10.69,0,0,1,.08,2.7c-.2,2.08-1,3.13-2.81,3.61-.9.24-1.81.51-2.7.78-1.21.37-2.47.74-3.73,1.05-2.9.69-4.46,2.24-4.91,4.88a97.72,97.72,0,0,0-1,11.78l0,.45q-.27,6.06-.5,12.12l-.14,3.7A4.35,4.35,0,0,1,69,47.14c-3.06,3.87-4.29,8.61-5.47,13.19l-.12.45-1.59,6.53-.25-.06.24.07c-.18.6-.35,1.3-.51,2a24.5,24.5,0,0,1-.72,2.6c-.25.65-.51,1.3-.77,2-.51,1.27-1,2.58-1.46,3.85-.79,2.35-.71,4.15.24,5.51a7.94,7.94,0,0,0,1.18,1.43,3.87,3.87,0,0,0,2.18.95c.21,0,.8.1,1,0a.12.12,0,0,0,0-.11.08.08,0,0,0,0-.08.3.3,0,0,0-.22-.1,3.11,3.11,0,0,1-1.39-.47c-.13-.07-.26-.14-.38-.22l-.23-.12a2.63,2.63,0,0,1-1.09-1.69,6.4,6.4,0,0,1,.3-3.28l0-.13a4.13,4.13,0,0,1,.94-1.85c.28-.26.53-.35.75-.25s.34.41.32.9c0,.08,0,.21,0,.38-.06.69-.26,2.8.2,3.21a.19.19,0,0,0,.19,0c.13,0,.16-.1.13-.5a1.77,1.77,0,0,1,0-.22,2.41,2.41,0,0,1,.22-1,3.59,3.59,0,0,0,.21-.66,4.67,4.67,0,0,1,.31-.88,6.29,6.29,0,0,0,.58-3.72,8.56,8.56,0,0,1,.89-5.43c1.16-2.14,2.24-4.38,3.28-6.54.58-1.19,1.17-2.4,1.77-3.61h0l.2-.37c.34-.66.68-1.33,1-2h0a35.81,35.81,0,0,0,3.51-11.58c.25-1.85.76-4.42,1.29-7.15.7-3.5,1.41-7.12,1.64-9.51l.12-1.2.37,1.14A30.19,30.19,0,0,1,78.5,33a30.86,30.86,0,0,0,.63,4.31c2.35,7.2,2.7,20.52-4,34.36-1.65,3.37-.74,6.72.23,10.27.33,1.22.67,2.48.92,3.77q1.16,6,2.35,12,1.14,5.76,2.26,11.52a38.36,38.36,0,0,1,.56,5.2c0,.63,0,1.25,0,1.88a33.92,33.92,0,0,0,.46,6.5ZM60.09,82.5a1.47,1.47,0,0,0,.3.76,1.39,1.39,0,0,0,1.28.62,2.11,2.11,0,0,1,.33,0c1.49-.18,1.88-.35,2-.46a2.36,2.36,0,0,0-1,0,3.35,3.35,0,0,1-1.89-.09A4.12,4.12,0,0,1,60.09,82.5Zm.11-1a1.32,1.32,0,0,0,.71.87l.06,0a1.6,1.6,0,0,0,1.42.19,3.87,3.87,0,0,0,.92-.34c-.18,0-.41,0-.51.06l-.23,0a3.24,3.24,0,0,1-1.15-.13A4.19,4.19,0,0,1,60.2,81.52Zm-.11-.74h0a5.38,5.38,0,0,0,1.46,1,7.8,7.8,0,0,1-.13-3.27c0-.15,0-.28,0-.35a1.08,1.08,0,0,0,0-.42,1.62,1.62,0,0,0-.19.16,3.73,3.73,0,0,0-.8,1.63l0,.13A8.35,8.35,0,0,0,60.09,80.78Zm47.18-31.54c-.87,0-1.77-.68-3.18-2.38-.33-.4-.66-.85-1-1.33a14.47,14.47,0,0,0-2.95-3.26l-.1-.08a5.23,5.23,0,0,0-.63-.35,1.51,1.51,0,0,1-.8-1.6c.14-.67.26-1.31.38-1.94.27-1.42.55-2.89.94-4.31.16-.6.31-1.21.46-1.82a33.85,33.85,0,0,1,1.51-5,5,5,0,0,0,.29-3.13,2.17,2.17,0,0,1,.75-2.48c1-.72,1.88,0,2.52.47s1.11.81,1.72,1.24a22.74,22.74,0,0,1,3.1,2.41c2.09,2.1,4.34,4.09,6.53,6l1.9,1.68.14.13c.26.21.53.44.53.78A.92.92,0,0,1,119,35h0a30.79,30.79,0,0,0-5.4,7c-.81,1.29-1.65,2.62-2.58,3.87-1.58,2.12-2.53,3.32-3.67,3.35Zm-6.74-7.3a15.7,15.7,0,0,1,2.94,3.29c.35.48.68.93,1,1.31,1.29,1.55,2.11,2.2,2.8,2.2h0c.91,0,1.84-1.22,3.29-3.16.92-1.23,1.75-2.55,2.56-3.84a31.54,31.54,0,0,1,5.49-7.08h0c.19-.17.22-.27.22-.31s-.19-.27-.35-.41l-.15-.13c-.63-.57-1.27-1.13-1.91-1.69-2.18-1.93-4.44-3.92-6.54-6a22.53,22.53,0,0,0-3-2.36c-.62-.43-1.21-.84-1.74-1.25-.73-.57-1.29-.93-1.93-.47a1.71,1.71,0,0,0-.56,2,5.45,5.45,0,0,1-.31,3.45,33.21,33.21,0,0,0-1.48,4.87c-.15.61-.31,1.22-.47,1.83-.38,1.4-.66,2.86-.93,4.27-.12.64-.24,1.28-.37,1.91s.28,1,.51,1.09a4.27,4.27,0,0,1,.79.45l.14.07Z"/><path class="cls-1" d="M103.79,46.36a.18.18,0,0,1-.15-.08c-.26-.35-.49-.71-.71-1.06a11.24,11.24,0,0,0-1.53-2,11.87,11.87,0,0,0-3.15-2.16c-.52-.27-1.08-.52-1.77-.81l-.17-.08c-.24-.12-.79-.38-1-.22a.11.11,0,0,0,0,.11c.05.42,1.3,1.19,1.77,1.47l.33.21.75.55a10.41,10.41,0,0,1,3.1,2.9.2.2,0,0,1-.08.26.18.18,0,0,1-.25-.07,10.05,10.05,0,0,0-3-2.79L97.19,42a2.91,2.91,0,0,0-.29-.19c-.91-.55-1.89-1.19-2-1.75a.55.55,0,0,1,.15-.42c.35-.34,1,0,1.38.15l.16.07c.7.3,1.27.56,1.79.82A12.58,12.58,0,0,1,101.67,43,11.77,11.77,0,0,1,103.24,45c.22.34.45.69.7,1a.19.19,0,0,1,0,.26A.15.15,0,0,1,103.79,46.36Z"/><path class="cls-1" d="M100.76,46.59a.18.18,0,0,1-.15-.07,6.88,6.88,0,0,0-3.25-1.79l-.18-.06c-.67-.23-1.33-.42-1.88-.58l-.12,0c-.39-.1-1.06-.28-1.21-.7a.55.55,0,0,1,.1-.55c.23-.33.79-.28,1.12-.24h.07c1.11.11,2.56.26,4,.54a.18.18,0,0,1,.15.22.19.19,0,0,1-.22.15,39.76,39.76,0,0,0-4-.53h-.08c-.2,0-.67-.07-.78.09s-.06.18-.05.2c.08.24.7.4,1,.47l.12,0c.56.16,1.22.35,1.9.58l.18.06a7.22,7.22,0,0,1,3.43,1.92.19.19,0,0,1,0,.26A.15.15,0,0,1,100.76,46.59Z"/><path class="cls-1" d="M106.62,53.85a1.55,1.55,0,0,1-.37,0,3.72,3.72,0,0,1-1.8-1.12,15.79,15.79,0,0,0-4.81-3.39,9,9,0,0,0-3.6-.43c-.25,0-.49,0-.77,0a.52.52,0,0,1-.49-.32.65.65,0,0,1,.34-.8,3.51,3.51,0,0,1,.74-.35,5.39,5.39,0,0,1,3.67.14l.73.28.28.13a4.46,4.46,0,0,0-2-1.12,8.14,8.14,0,0,0-2.38-.34H96c-.79,0-2.45,0-2.47-1a.56.56,0,0,1,.16-.42,1.56,1.56,0,0,1,1-.29H95c1.22,0,2.48,0,3.72,0a.2.2,0,0,1,.18.2.2.2,0,0,1-.2.18c-1.23,0-2.48,0-3.7-.05H94.7a1.12,1.12,0,0,0-.74.19.18.18,0,0,0-.06.14c0,.64,1.53.62,2.09.61h.18a8.51,8.51,0,0,1,2.49.35c.68.21,2.28.82,2.48,1.86a.18.18,0,0,1-.08.19.18.18,0,0,1-.2,0,7.35,7.35,0,0,0-.74-.36c-.24-.1-.47-.19-.71-.27a4.87,4.87,0,0,0-3.4-.16,3.23,3.23,0,0,0-.68.32c-.26.18-.21.31-.19.36s.07.08.14.08H96a9.2,9.2,0,0,1,3.74.46,16,16,0,0,1,4.93,3.45,3.39,3.39,0,0,0,1.61,1,3.1,3.1,0,0,0,2.09-.63.19.19,0,0,1,.25.06.18.18,0,0,1-.06.26A3.92,3.92,0,0,1,106.62,53.85Z"/><path class="cls-2" d="M93.87,100.59c-1,13.12-2,25.17-2.93,38.3-.7,9.6-1.39,19.2-2,28.8-.22,3.48-1.92,5.6-5.16,5.89-8.35.74-16.69.91-24.9-1.48-4.05-1.18-5.11-3.62-4.34-7.71,7-37.1,14.94-74,25.39-110.23,1.69-5.88,0-13.42-1.43-18.68-1.31-4.92-.08-7.17.66-12.31a31.1,31.1,0,0,0-.59-10.77c-.57-1.8,4.63-3.08,4.89-1.76,1.2,6.16,11.28,6.1,14.94.14.67-1.1,2.34-.9,3.39-.54,1.23.43.78,2,.9,3.09.19,1.92.06,4.9.67,6.7,2.29,6.68,2.22,9,.4,13.52-1.37,3.42-.54,7.19.75,10.49,9.86,25.19,15.76,51.52,20.56,78.12,2.4,13.29,4.12,26.71,6.41,40,.78,4.53-.59,7.2-4.63,8.8a44.53,44.53,0,0,1-22.36,2.57c-4.07-.52-6.65-2.7-6.82-7.76-.94-28.63-2.55-65.16-2.57-65.16-.21,0-.64-26.84-.64-26.84S94.07,100.6,93.87,100.59Z"/><path class="cls-1" d="M74.06,175.07a54.8,54.8,0,0,1-15.46-2c-4.34-1.27-6-4.08-5-8.85C62,119.51,69.85,85.49,79,53.88c1.56-5.41,0-12.54-1.44-18.14-1-3.88-.56-6.26,0-9.27.2-1,.42-2.14.61-3.44a30.42,30.42,0,0,0-.55-10.33,2,2,0,0,1,.59-2.1,6.15,6.15,0,0,1,5-1.38,1.63,1.63,0,0,1,1.2,1.23,4.74,4.74,0,0,0,4.15,3.68,8.94,8.94,0,0,0,9-3.88c.95-1.54,3-1.51,4.58-.95s1.57,2.19,1.55,3.16c0,.27,0,.53,0,.77.07.63.1,1.36.13,2.13a17.74,17.74,0,0,0,.5,4.34c2.28,6.65,2.35,9.31.38,14.22-1,2.6-.8,5.8.75,9.76C116,70.76,121.81,98.46,126.05,122c1.31,7.23,2.43,14.62,3.52,21.76.91,6,1.85,12.2,2.9,18.27.86,5-.81,8.14-5.25,9.9a45.72,45.72,0,0,1-22.86,2.63c-4.93-.63-7.52-3.56-7.69-8.72-.71-21.6-1.78-47.23-2.28-58.84-.28,3.68-.57,7.3-.85,10.91-.54,6.94-1.08,13.84-1.6,21.07-.67,9.2-1.38,19-2,28.79-.26,4.08-2.42,6.5-6.08,6.82C80.68,174.86,77.4,175.07,74.06,175.07Zm8.23-164a5,5,0,0,0-1.84.41c-.69.3-.91.59-.93.65a31.76,31.76,0,0,1,.63,11.17c-.2,1.35-.43,2.51-.63,3.54-.58,3-1,4.93-.06,8.36,1.66,6.22,3.12,13.36,1.43,19.21C71.79,86,64,120,55.52,164.58c-.72,3.8.27,5.57,3.64,6.56,8.36,2.43,16.73,2.13,24.53,1.44,2.67-.23,4.06-1.85,4.25-5,.62-9.8,1.33-19.61,2-28.81.53-7.24,1.07-14.15,1.61-21.09.44-5.65.88-11.32,1.32-17.21l0-.19c.15-1.41.42-16.56.56-26.55a1,1,0,0,1,1-1h0a1,1,0,0,1,1,1c.16,10.14.46,25.6.61,26.63h0a15.76,15.76,0,0,1,.14,1.79l.2,4.53c.17,3.87.4,9.33.66,15.69.47,11.44,1.13,28.25,1.63,43.33.14,4.19,2,6.29,6,6.79a43.61,43.61,0,0,0,21.86-2.5c3.55-1.41,4.72-3.64,4-7.7-1.05-6.09-2-12.3-2.91-18.31-1.08-7.13-2.21-14.5-3.5-21.7-4.23-23.43-10-51-20.51-77.93-1.75-4.46-2-8.13-.75-11.24,1.69-4.21,1.83-6.28-.41-12.82a18.49,18.49,0,0,1-.61-4.91c0-.73-.06-1.42-.12-2,0-.31,0-.66,0-1,0-1,0-1.16-.21-1.22-.86-.3-1.92-.36-2.21.11a11,11,0,0,1-11,4.8,6.76,6.76,0,0,1-5.7-5Z"/><polygon class="cls-1" points="71.84 173.91 84.46 97.08 73.82 174.21 71.84 173.91"/><polygon class="cls-1" points="103.8 81.11 117.32 173.5 115.34 173.77 103.8 81.11"/><path class="cls-1" d="M80.58,50.43c2.27.06,4.49.07,6.68,0,1.1,0,2.2-.08,3.28-.18l1.62-.14,1.61-.23A32.38,32.38,0,0,0,100,48.3,24.67,24.67,0,0,0,105.65,45a13.69,13.69,0,0,1-5,4.72,20.94,20.94,0,0,1-6.59,2.17A26.88,26.88,0,0,1,87.2,52,24,24,0,0,1,80.58,50.43Z"/><path class="cls-1" d="M84.46,39.12A25.39,25.39,0,0,1,86.35,45,34,34,0,0,1,87,51.09a28.21,28.21,0,0,1-.55,6.15,21.52,21.52,0,0,1-2,5.81c.33-2,.71-4,.86-6a51.54,51.54,0,0,0,.2-6A90.77,90.77,0,0,0,84.46,39.12Z"/><path class="cls-1" d="M97.89,60.21a17.24,17.24,0,0,1-1.64-4.83,32,32,0,0,1-.59-5.06,39.13,39.13,0,0,1,.12-5.08,29.64,29.64,0,0,1,.85-5c.11.85.15,1.69.2,2.53s.09,1.68.12,2.51c.09,1.67.11,3.33.2,5s.15,3.31.26,5S97.65,58.53,97.89,60.21Z"/><rect class="cls-3" width="186" height="186"/></svg>