<svg id="图层_1" data-name="图层 1" xmlns="http://www.w3.org/2000/svg" viewBox="0 0 186 186"><defs><style>.cls-1,.cls-3{fill:#9b9692;}.cls-2{fill:#f2f2f2;}.cls-3{opacity:0;}</style></defs><path class="cls-1" d="M97.86,179.23l-.5,0a32.41,32.41,0,0,0-1.66-9.72,25.6,25.6,0,0,1-.61-2.94A18.15,18.15,0,0,0,94,162.26c-.46-1-1.22-2.79-.07-4.24,2.7-3.42,1.89-7,1-10.88a33.84,33.84,0,0,1-.76-4.31.78.78,0,0,0-.08-.16,1.13,1.13,0,0,1-.15-.27l-.06-.19a1.58,1.58,0,0,1-.14-.8c.23-1.48.37-2.94.49-4.36s.24-2.59.43-3.93c1.09-7.46.79-14.1-.9-19.72a19.54,19.54,0,0,1,1-13.78,118.94,118.94,0,0,0,4.5-12.12,75.07,75.07,0,0,0,3.51-16.42c.49-5.81-1-14-3.69-20.3a.34.34,0,0,1,.09-.39l.07,0h.17l.18.05c1.58,1.14,4.45,3.65,5,4.14,1.11,1,2.17.43,3.51-.26l.07,0A24.63,24.63,0,0,0,113,50.62l1.28-1.12c4.13-3.51,7.78-6.86,10.59-12.19.94-1.78,1-3.19.2-4.58a19.71,19.71,0,0,0-1.93-2.79c-2.4-2.78-5-5.46-7.53-8-2.83-2.91-5.76-5.91-8.41-9.09a10.57,10.57,0,0,0-1.62-1.42l-.26-.19c-1.46-1.11-3.27-1.42-5.71-1-2.68.49-6,.31-7.16-1.69a4.75,4.75,0,0,1-.57-2.09A14.59,14.59,0,0,1,92,3.35l-7.72.2a10.94,10.94,0,0,1,.09,2.79c-.21,2.14-1,3.21-2.9,3.71-.93.25-1.87.53-2.78.81-1.26.38-2.55.77-3.85,1.08-3,.71-4.6,2.31-5.06,5a99.62,99.62,0,0,0-1,12.14l0,.47c-.19,4.14-.35,8.28-.52,12.42L68,45.89a4.4,4.4,0,0,1-.84,2.7c-3.16,4-4.42,8.88-5.64,13.61l-.12.46-1.65,6.73-.24-.06.24.07c-.19.61-.36,1.34-.53,2a21.26,21.26,0,0,1-.75,2.68c-.25.66-.52,1.34-.79,2-.52,1.32-1.06,2.67-1.5,4-.81,2.42-.73,4.28.24,5.68a9,9,0,0,0,1.22,1.48,4,4,0,0,0,2.26,1c.24,0,.83.11,1,0a.17.17,0,0,0,0-.12.09.09,0,0,0,0-.09.3.3,0,0,0-.22-.1,3.34,3.34,0,0,1-1.44-.49l-.4-.23-.22-.12a2.77,2.77,0,0,1-1.13-1.74,6.62,6.62,0,0,1,.32-3.37l0-.14a4.29,4.29,0,0,1,1-1.9c.11-.1.44-.41.77-.25s.34.41.32.92c0,.08,0,.22,0,.39-.07.71-.26,2.89.22,3.31a.21.21,0,0,0,.2,0c.13,0,.17-.11.13-.53,0-.08,0-.16,0-.23a2.56,2.56,0,0,1,.23-1,5.34,5.34,0,0,0,.22-.68,4.33,4.33,0,0,1,.32-.91,6.44,6.44,0,0,0,.59-3.84,8.8,8.8,0,0,1,.92-5.59c1.2-2.21,2.31-4.5,3.38-6.73.6-1.23,1.2-2.49,1.83-3.74h0l.21-.39c.34-.67.69-1.34,1-2a37.15,37.15,0,0,0,3.63-12c.62-4.51,1.69-12.8,2.12-17.18l.12-1.2.37,1.15c.27.84.7,2.71,1.12,4.52s.85,3.7,1.12,4.51c2.18,6.68,1.16,12.2-1,18.44a20,20,0,0,0,.16,2.87,13.56,13.56,0,0,1,.13,3.33,24.76,24.76,0,0,1-2.17,4.19c-1,1.64-1.5,2.38-1.24,6.46.1,1.55.16,3,.21,4.38a64.43,64.43,0,0,0,1,10.23c.78,4.08,1.59,8.16,2.4,12.24s1.58,8,2.35,12a40.61,40.61,0,0,1,.57,5.36c0,.64,0,1.28,0,1.92a34.5,34.5,0,0,0,.47,6.71c2.12,10.48,4.77,21,7.11,30.36,1.34,5.32,2.72,10.83,1.36,16.6a17,17,0,0,0-.3,2.58l0,.62-.5,0,0-.61a15.18,15.18,0,0,1,.31-2.67c1.33-5.65,0-11.09-1.36-16.36-2.34-9.32-5-19.89-7.12-30.38a34.75,34.75,0,0,1-.48-6.8c0-.64,0-1.28,0-1.92a39.09,39.09,0,0,0-.56-5.27q-1.16-6-2.35-12c-.81-4.08-1.62-8.16-2.4-12.25a64.27,64.27,0,0,1-1-10.3c0-1.39-.11-2.83-.21-4.36-.27-4.25.26-5.09,1.31-6.76a23.69,23.69,0,0,0,2.13-4.12,18.83,18.83,0,0,0-.16-3.09,12.69,12.69,0,0,1-.13-3.08c2.16-6.15,3.16-11.58,1-18.12-.27-.84-.7-2.73-1.13-4.55-.26-1.14-.53-2.31-.76-3.22-.49,4.58-1.42,11.79-2,15.88a37.4,37.4,0,0,1-3.68,12.1h0c-.32.66-.66,1.33-1,2-.69,1.38-1.36,2.77-2,4.13-1.07,2.23-2.19,4.53-3.39,6.75a8.23,8.23,0,0,0-.86,5.3,7,7,0,0,1-.64,4.12,3.75,3.75,0,0,0-.29.81,4.5,4.5,0,0,1-.24.74,2.18,2.18,0,0,0-.19.82,1.28,1.28,0,0,0,0,.19,1.85,1.85,0,0,1,0,.61c.43-.07.77-.08,1,.09a.34.34,0,0,1,.12.3c0,.32-.43.55-.82.71.53-.07,1-.08,1.21.21a.49.49,0,0,1,.08.5c-.19.43-1,.61-2.42.77l-.3,0a1,1,0,0,1-.19,0,2.68,2.68,0,0,0,1.16.4.8.8,0,0,1,.58.26.62.62,0,0,1,.17.46.65.65,0,0,1-.23.47,2,2,0,0,1-1.39.17,4.47,4.47,0,0,1-2.55-1.11A9.28,9.28,0,0,1,56,86.08c-1.07-1.54-1.17-3.55-.3-6.13.44-1.32,1-2.68,1.51-4,.27-.68.54-1.35.79-2a25.21,25.21,0,0,0,.73-2.62c.16-.7.34-1.43.53-2.06L61,62.07c1.24-4.77,2.51-9.71,5.74-13.79a4,4,0,0,0,.73-2.41L67.65,42c.17-4.14.33-8.29.52-12.43l0-.47a99.15,99.15,0,0,1,1.06-12.2c.49-2.9,2.27-4.68,5.43-5.44,1.29-.31,2.58-.7,3.82-1.07.92-.28,1.86-.56,2.8-.81,1.65-.45,2.34-1.33,2.53-3.28a11.26,11.26,0,0,0-.12-2.94l0-.28,8.88-.23-.05.29a14.41,14.41,0,0,0-.1,3.27,4.22,4.22,0,0,0,.5,1.87c1.38,2.3,5.77,1.62,6.64,1.46,2.58-.48,4.52-.14,6.1,1.06l.26.19a9.72,9.72,0,0,1,1.7,1.5c2.64,3.16,5.56,6.16,8.38,9.06,2.53,2.59,5.15,5.28,7.56,8.08a19.33,19.33,0,0,1,2,2.86c.89,1.53.83,3.14-.18,5.07-2.86,5.41-6.54,8.78-10.72,12.34L113.34,51a24.15,24.15,0,0,1-4.94,3.68l-.06,0c-1.39.72-2.7,1.39-4.07.19s-3.26-2.81-4.5-3.77c2.62,6.4,4,14.18,3.5,20a75.34,75.34,0,0,1-3.53,16.53,121.3,121.3,0,0,1-4.52,12.16,19.07,19.07,0,0,0-.94,13.45c1.71,5.69,2,12.4.92,19.93-.2,1.32-.31,2.64-.43,3.9-.13,1.43-.26,2.91-.5,4.4a1.37,1.37,0,0,0,.12.55,1.72,1.72,0,0,1,.07.21.49.49,0,0,0,.09.15.87.87,0,0,1,.16.39,33.37,33.37,0,0,0,.75,4.24c.84,3.78,1.71,7.69-1.14,11.3-.89,1.12-.42,2.46.13,3.73a18.51,18.51,0,0,1,1.13,4.4,26,26,0,0,0,.6,2.89A32.93,32.93,0,0,1,97.86,179.23ZM58,85a1.5,1.5,0,0,0,.32.81,1.46,1.46,0,0,0,1.33.64l.33,0c1.63-.18,2-.37,2-.47-.11-.11-.65,0-1,0a3.5,3.5,0,0,1-2-.09A4.46,4.46,0,0,1,58,85Zm.12-1a1.36,1.36,0,0,0,.73.92l.07,0a1.62,1.62,0,0,0,1.46.2,3.73,3.73,0,0,0,1-.37c-.18,0-.45,0-.56.07l-.23,0a3.38,3.38,0,0,1-1.18-.13A4.45,4.45,0,0,1,58.14,84ZM58,83.28h0a5.65,5.65,0,0,0,1.51,1h0a8.11,8.11,0,0,1-.14-3.38,3.32,3.32,0,0,0,0-.37,1.18,1.18,0,0,0,0-.44,1.4,1.4,0,0,0-.21.17,4,4,0,0,0-.82,1.67l0,.15A10.81,10.81,0,0,0,58,83.28Zm48.65-32.53c-.89,0-1.82-.69-3.27-2.45-.34-.41-.69-.87-1.05-1.37a15.14,15.14,0,0,0-3-3.36l-.11-.08a4.3,4.3,0,0,0-.65-.36,1.55,1.55,0,0,1-.81-1.65c.13-.68.26-1.34.38-2,.28-1.46.57-3,1-4.45.17-.62.32-1.24.48-1.87a34.65,34.65,0,0,1,1.55-5.1,5.22,5.22,0,0,0,.3-3.24,2.24,2.24,0,0,1,.77-2.55c1-.74,1.93,0,2.59.49s1.14.83,1.77,1.27a23.6,23.6,0,0,1,3.2,2.49c2.16,2.17,4.49,4.23,6.75,6.22l1.94,1.72.15.13c.26.22.54.45.54.8a1,1,0,0,1-.4.71h0a31.88,31.88,0,0,0-5.57,7.19c-.83,1.33-1.7,2.71-2.66,4-1.63,2.19-2.61,3.43-3.78,3.46Zm-7-7.53a16.16,16.16,0,0,1,3.07,3.41c.36.49.7,1,1,1.35,1.35,1.63,2.21,2.31,2.93,2.27.93,0,1.9-1.26,3.39-3.26,1-1.26,1.81-2.63,2.64-4a32,32,0,0,1,5.66-7.3h0c.15-.14.23-.25.23-.33s-.19-.28-.37-.43l-.15-.13-1.94-1.72c-2.27-2-4.6-4.06-6.77-6.24a22.6,22.6,0,0,0-3.13-2.44c-.64-.44-1.24-.86-1.79-1.29-.75-.58-1.33-.95-2-.47a1.74,1.74,0,0,0-.57,2,5.69,5.69,0,0,1-.33,3.55,35.43,35.43,0,0,0-1.53,5c-.15.63-.31,1.26-.48,1.88-.39,1.45-.68,3-1,4.42-.12.65-.25,1.3-.38,2s.29,1,.53,1.12a5.86,5.86,0,0,1,.82.47Z"/><path class="cls-1" d="M103.08,47.85a.26.26,0,0,1-.2-.11c-.26-.36-.5-.73-.73-1.09a11.46,11.46,0,0,0-1.57-2.06,12.33,12.33,0,0,0-3.23-2.23c-.53-.26-1.11-.53-1.82-.83l-.18-.08c-.19-.09-.78-.37-.92-.24s0,0,0,.07c0,.41,1.37,1.21,1.8,1.48l.34.21.77.57a10.67,10.67,0,0,1,3.21,3,.25.25,0,1,1-.43.25A10.45,10.45,0,0,0,97,43.94l-.78-.57-.3-.18c-1-.58-2-1.25-2-1.85a.57.57,0,0,1,.17-.48c.39-.39,1.07-.06,1.48.14l.16.07c.73.31,1.32.58,1.85.85a13,13,0,0,1,3.37,2.31,12.18,12.18,0,0,1,1.63,2.15c.23.36.46.71.72,1.07a.25.25,0,0,1-.06.35A.27.27,0,0,1,103.08,47.85Z"/><path class="cls-1" d="M100,48.09a.23.23,0,0,1-.2-.1,7.12,7.12,0,0,0-3.32-1.83l-.19-.06c-.7-.24-1.4-.44-1.93-.59l-.12,0c-.42-.11-1.13-.3-1.3-.76A.67.67,0,0,1,93,44.1c.26-.37.86-.31,1.22-.27h.07c1.13.11,2.63.27,4.13.56a.24.24,0,0,1,.2.29.26.26,0,0,1-.29.2c-1.48-.29-3-.44-4.09-.55h-.07c-.17,0-.67-.06-.76.07a.2.2,0,0,0,0,.16c.08.21.74.39,1,.44l.12,0c.54.15,1.25.35,2,.6l.19.06a7.44,7.44,0,0,1,3.56,2,.26.26,0,0,1,0,.35A.27.27,0,0,1,100,48.09Z"/><path class="cls-1" d="M106,55.57a1.72,1.72,0,0,1-.39,0,3.82,3.82,0,0,1-1.88-1.18,16.3,16.3,0,0,0-5-3.47,9.17,9.17,0,0,0-3.68-.44c-.26,0-.5,0-.8,0a.58.58,0,0,1-.55-.37.72.72,0,0,1,.36-.89,4.18,4.18,0,0,1,.78-.37,5.57,5.57,0,0,1,3.82.15c.26.09.51.18.76.29h0a5.18,5.18,0,0,0-1.83-.93A8.11,8.11,0,0,0,95.23,48h-.18c-.84,0-2.58,0-2.6-1.06a.62.62,0,0,1,.18-.47,1.75,1.75,0,0,1,1.1-.33H94c1.25,0,2.55,0,3.84,0a.26.26,0,0,1,.24.26.25.25,0,0,1-.26.24c-1.27,0-2.57,0-3.83,0h-.29a1.12,1.12,0,0,0-.72.18.14.14,0,0,0,0,.11c0,.6,1.59.58,2.09.57h.19a8.7,8.7,0,0,1,2.58.36c.71.22,2.39.86,2.6,2a.24.24,0,0,1-.11.25.22.22,0,0,1-.27,0c-.14-.09-.53-.26-.75-.36l-.73-.28a5.07,5.07,0,0,0-3.47-.16,3.85,3.85,0,0,0-.68.32c-.24.16-.2.26-.18.31s0,0,.1,0h.77a9.54,9.54,0,0,1,3.88.48,16.49,16.49,0,0,1,5.1,3.57,3.54,3.54,0,0,0,1.63,1,3.12,3.12,0,0,0,2.11-.65.26.26,0,0,1,.35.09.25.25,0,0,1-.09.34A4.14,4.14,0,0,1,106,55.57Z"/><path class="cls-2" d="M87.67,45.23c-2.76,0-5.56,0-8.32-.12h0a3.24,3.24,0,0,0-.13-.33,42.28,42.28,0,0,1-3.78-13.52c-.47-3.39-.79-6.85-1-10.28,0-.72-.06-1.45-.08-2.18,0-1,0-1.95-.12-2.93A4.33,4.33,0,0,1,74.7,13a3.37,3.37,0,0,1,2.9-1.41,3.19,3.19,0,0,1,1.33.26,8.37,8.37,0,0,1,2.25,1.73,11.34,11.34,0,0,0,2.5,2,10.1,10.1,0,0,0,4.72,1.18h0a8.73,8.73,0,0,0,4.34-1.11,11.83,11.83,0,0,0,2.54-2.16,16.42,16.42,0,0,1,1.31-1.25,5.75,5.75,0,0,1,2.57-1.5,11.47,11.47,0,0,1,1.71-.19,2,2,0,0,1,1.11.24,1,1,0,0,1,.35.76,7.75,7.75,0,0,1-.08,2c0,.26-.07.53-.09.8a13.92,13.92,0,0,0,0,2.33l0,.77,0,.93c.07,1.86.14,3.78.11,5.66A56.17,56.17,0,0,1,100,40.56l-.11.35A33.5,33.5,0,0,1,98.34,45C94.79,45.16,91.21,45.23,87.67,45.23Z"/><path class="cls-1" d="M100.87,11.5h0a1.87,1.87,0,0,1,.45,0,.3.3,0,0,1,0,.1,7.13,7.13,0,0,1-.08,1.75c0,.28-.07.55-.1.83a15.87,15.87,0,0,0,0,2.49l0,.75,0,.95c.07,1.84.14,3.74.11,5.58A55.14,55.14,0,0,1,99,40.24l-.12.36c-.59,1.86-1,2.89-1.2,3.46-3.33.11-6.69.17-10,.17-2.55,0-5.14,0-7.7-.1a41.9,41.9,0,0,1-3.58-13c-.46-3.37-.78-6.8-.95-10.2,0-.71-.06-1.43-.08-2.15,0-1,0-2-.12-3a3.48,3.48,0,0,1,.33-2.33,2.72,2.72,0,0,1,3-.75,7.82,7.82,0,0,1,2,1.55,12,12,0,0,0,2.72,2.13,11.09,11.09,0,0,0,5.19,1.3,9.82,9.82,0,0,0,4.84-1.24A12.85,12.85,0,0,0,96,14.14,13.18,13.18,0,0,1,97.23,13l.07-.06a4.54,4.54,0,0,1,2-1.22,8.87,8.87,0,0,1,1.53-.18m0-2A10.69,10.69,0,0,0,99,9.71a6.55,6.55,0,0,0-3,1.7c-1.21,1-2.35,2.55-3.71,3.32a7.74,7.74,0,0,1-3.85,1,9.13,9.13,0,0,1-4.25-1.06c-1.87-1-2.86-2.83-4.8-3.73a4.08,4.08,0,0,0-1.75-.35,4.34,4.34,0,0,0-3.77,1.91,5.44,5.44,0,0,0-.6,3.46c.12,1.7.11,3.4.2,5.09.17,3.47.5,6.93,1,10.37a42.66,42.66,0,0,0,3.88,13.83c.12.25.14.55.35.72a1.25,1.25,0,0,0,.7.16q4.15.12,8.33.12,5.58,0,11.15-.21c.5,0,1.9-4.57,2.09-5.14A57.84,57.84,0,0,0,103.35,24c0-2.22-.07-4.43-.15-6.64a24.73,24.73,0,0,1,0-3,12.51,12.51,0,0,0,.17-3.05,2,2,0,0,0-.77-1.44,2.92,2.92,0,0,0-1.68-.42Z"/><path class="cls-2" d="M94.09,182.1c-5.77,0-11.6-.27-17.34-.8a71.69,71.69,0,0,1-8.37-1.42A79.7,79.7,0,0,0,60,178.45a26.08,26.08,0,0,0-2.71-.11H55.85l-1.48,0a14.46,14.46,0,0,1-6.17-1c-3.7-1.75-3.3-6.14-2.73-8.61,1.06-4.63,2.42-9.3,3.74-13.81.79-2.72,1.61-5.54,2.36-8.33.69-2.57,1.27-5.21,1.83-7.76.26-1.16.51-2.31.78-3.47l4-14.13Q64.08,100.35,70,79.44c.84-3,3.22-10.31,3.24-10.38l-.22.27c.37-.75,1.34-3.91,6-18.94a56.07,56.07,0,0,0,10.37,1,47.74,47.74,0,0,0,10-1c.84,1.4,2.52,6.8,3.1,8.66.25.83.44,1.44.53,1.68,1.77,4.78,3.51,9.67,5.2,14.4l.16.45c.72,2,1.46,4.07,2.2,6.1,1.25,3.42,2.54,7,3.73,10.46l.73,2.15c2.65,7.81,5.4,15.88,8,23.85,6.09,18.58,12.12,37.38,17.45,54,.53,1.67.6,2.8.22,3.47-.53.91-2.15,1.27-4.2,1.72l-1.22.27a174.49,174.49,0,0,1-19.08,3.32A191.1,191.1,0,0,1,94.09,182.1Z"/><path class="cls-1" d="M98.78,51.45c.85,1.89,2.2,6.23,2.69,7.83.3,1,.46,1.46.55,1.73,1.77,4.78,3.51,9.67,5.2,14.39l.15.44q1.09,3.07,2.22,6.12c1.24,3.42,2.52,7,3.71,10.43l.73,2.15c2.66,7.8,5.4,15.88,8,23.84,6.07,18.51,12.11,37.34,17.44,54,.62,1.91.4,2.53.31,2.67-.3.53-2,.91-3.54,1.24l-1.23.28a173,173,0,0,1-19,3.29,189,189,0,0,1-22,1.29c-5.74,0-11.54-.27-17.25-.79a70.84,70.84,0,0,1-8.25-1.41,78.79,78.79,0,0,0-8.45-1.44,25.3,25.3,0,0,0-2.81-.12h-1.5l-1.46,0a13.2,13.2,0,0,1-5.74-.92c-2.91-1.38-2.8-4.83-2.19-7.48,1.06-4.61,2.42-9.26,3.73-13.76.79-2.73,1.61-5.55,2.37-8.35.69-2.59,1.27-5.24,1.84-7.79.25-1.15.5-2.29.76-3.43l4-14q5.92-21,11.83-42c.84-3,3.21-10.27,3.23-10.34h0c.11-.27.2-.57.29-.86l.68-2.21,2.06-6.72,2.47-8a58.72,58.72,0,0,0,9.67.81,48.67,48.67,0,0,0,9.48-.89m.85-2.23A45.71,45.71,0,0,1,89.3,50.34a53,53,0,0,1-11.06-1.12l-6,19.53h0S69.86,76.12,69,79.17q-7.87,28-15.8,56c-.86,3.74-1.6,7.5-2.6,11.2-2,7.41-4.39,14.71-6.11,22.18-.85,3.71-.55,7.92,3.28,9.74a15.27,15.27,0,0,0,6.6,1.11c1,0,2,0,3,0a25.15,25.15,0,0,1,2.62.11c5.65.56,11.09,2.34,16.71,2.85q8.69.8,17.43.8a191.34,191.34,0,0,0,22.19-1.3,175.77,175.77,0,0,0,19.19-3.34c4.56-1.05,7.71-1.15,5.92-6.74q-8.67-27-17.45-54c-2.85-8.7-5.8-17.35-8.75-26-1.89-5.56-4-11-5.93-16.58-1.77-5-3.53-9.92-5.36-14.86-.42-1.12-3.25-11.09-4.27-11.09Z"/><path class="cls-1" d="M93,52.67c.61,6.52,1.44,13,2.31,19.45L98.07,91.5c.88,6.48,1.73,13,2.27,19.5a156.88,156.88,0,0,1,.57,19.63c-.53-6.52-1.3-13-2.12-19.46S97,98.25,96.09,91.78s-1.74-13-2.32-19.49A166.83,166.83,0,0,1,93,52.67Z"/><path class="cls-1" d="M85.42,108.35c.23,5.26.13,10.51-.09,15.75s-.62,10.49-1.18,15.71-1.32,10.44-2.43,15.6a75.56,75.56,0,0,1-2,7.65,25.17,25.17,0,0,1-3.4,7.13,31.31,31.31,0,0,0,2.46-7.39c.58-2.54,1-5.11,1.42-7.68s.77-5.15,1.08-7.75.64-5.18.91-7.77c.59-5.2,1.08-10.4,1.61-15.61S84.82,113.57,85.42,108.35Z"/><path class="cls-1" d="M63.82,143.69a66.68,66.68,0,0,1-1.3,8c-.56,2.64-1.27,5.23-2,7.81s-1.69,5.12-2.75,7.61a30.24,30.24,0,0,1-4,7.09c1-2.53,1.71-5.07,2.48-7.62l2.3-7.66c.8-2.55,1.59-5.11,2.45-7.64S62.77,146.19,63.82,143.69Z"/><path class="cls-1" d="M114.55,113.48c1.07,4.94,2,9.88,3,14.82s1.92,9.87,3,14.79q.74,3.69,1.53,7.38l.78,3.68c.29,1.22.56,2.45.83,3.68,1.13,4.89,2.31,9.77,3.65,14.64a101.4,101.4,0,0,1-5.16-14.25c-1.44-4.86-2.55-9.79-3.59-14.73s-1.84-9.93-2.52-14.94S114.8,118.53,114.55,113.48Z"/><path class="cls-1" d="M82.74,102.28c-.14,2.93-.41,5.82-.71,8.7s-.66,5.75-1,8.62l-1,8.6-1,8.65a45.82,45.82,0,0,1-.59-8.75c0-2.93.3-5.84.62-8.74s.82-5.77,1.43-8.62A71.26,71.26,0,0,1,82.74,102.28Z"/><rect class="cls-3" width="186" height="186"/></svg>