<svg id="图层_1" data-name="图层 1" xmlns="http://www.w3.org/2000/svg" viewBox="0 0 186 186"><defs><style>.cls-1,.cls-3{fill:#9b9692;}.cls-2{fill:#f2f2f2;}.cls-3{opacity:0;}</style></defs><path class="cls-1" d="M109.26,176.41h-.5a31.62,31.62,0,0,0-1.63-9.57,25.33,25.33,0,0,1-.6-2.9,18.06,18.06,0,0,0-1.08-4.22c-.45-1-1.2-2.75-.07-4.18,2.66-3.37,1.87-6.93,1-10.71a31.38,31.38,0,0,1-.74-4.24,1,1,0,0,0-.09-.16.86.86,0,0,1-.14-.27l-.06-.18a1.54,1.54,0,0,1-.14-.79c.23-1.46.36-2.9.49-4.3.11-1.25.22-2.55.42-3.87,1.07-7.34.77-13.87-.89-19.41A19.19,19.19,0,0,1,106.21,98a120.69,120.69,0,0,0,4.43-11.93,73.7,73.7,0,0,0,3.45-16.16c.49-5.73-1-13.76-3.63-20a.34.34,0,0,1,.09-.39l.07-.05h.17l.18,0c1.55,1.13,4.38,3.6,4.93,4.08,1.09,1,2.13.42,3.45-.26l.07,0a23.84,23.84,0,0,0,4.76-3.56l1.25-1.09c4.07-3.46,7.66-6.75,10.43-12,.93-1.76,1-3.15.2-4.51a17.73,17.73,0,0,0-1.91-2.74c-2.36-2.75-4.93-5.39-7.42-7.94-2.78-2.86-5.66-5.81-8.27-8.94a9.32,9.32,0,0,0-1.59-1.4l-.26-.19c-1.43-1.09-3.22-1.39-5.62-1-2.63.49-5.87.31-7-1.67a4.78,4.78,0,0,1-.56-2,14.11,14.11,0,0,1,.07-3l-7.59.19a11,11,0,0,1,.08,2.74c-.21,2.11-1,3.17-2.85,3.66-.92.25-1.85.53-2.75.8-1.23.37-2.51.75-3.78,1.06-3,.7-4.53,2.28-5,5a98.53,98.53,0,0,0-1,11.94l0,.47q-.27,6-.5,12.05l-.15,4A4.43,4.43,0,0,1,79,47.8c-3.11,3.92-4.35,8.73-5.56,13.39l-.12.45-1.61,6.63-.25-.06.24.07c-.18.6-.35,1.32-.52,2a22.66,22.66,0,0,1-.73,2.65c-.25.65-.52,1.31-.78,2-.51,1.29-1,2.63-1.48,3.92-.8,2.38-.72,4.21.24,5.59a9.12,9.12,0,0,0,1.2,1.46,4,4,0,0,0,2.22,1c.23,0,.81.1,1-.06a.19.19,0,0,0,0-.11.14.14,0,0,0,0-.09.41.41,0,0,0-.22-.1A3.19,3.19,0,0,1,71.28,86l-.39-.22-.23-.13A2.63,2.63,0,0,1,69.55,84a6.48,6.48,0,0,1,.31-3.33l0-.13a4.27,4.27,0,0,1,.95-1.87c.11-.1.44-.4.76-.26s.34.41.32.91a3.29,3.29,0,0,1,0,.38c-.06.71-.26,2.85.21,3.27a.19.19,0,0,0,.19,0c.14,0,.17-.1.14-.51a2,2,0,0,1,0-.23,2.7,2.7,0,0,1,.23-1,4.37,4.37,0,0,0,.22-.67,4.12,4.12,0,0,1,.31-.89,6.32,6.32,0,0,0,.58-3.78,8.76,8.76,0,0,1,.91-5.51c1.18-2.17,2.27-4.43,3.33-6.62.58-1.21,1.18-2.45,1.8-3.68h0l.2-.37c.34-.68.69-1.35,1-2a36.1,36.1,0,0,0,3.56-11.76c.61-4.45,1.67-12.62,2.09-16.91l.12-1.2.37,1.14c.27.84.69,2.68,1.1,4.46s.84,3.64,1.1,4.44c2.15,6.57,1.15,12-1,18.16a19.31,19.31,0,0,0,.16,2.82,12.36,12.36,0,0,1,.12,3.28,24.61,24.61,0,0,1-2.13,4.13c-1,1.61-1.47,2.34-1.22,6.36.1,1.52.15,2.94.21,4.32A62.29,62.29,0,0,0,86.44,87c.77,4,1.57,8,2.37,12s1.55,7.85,2.31,11.77a39.42,39.42,0,0,1,.56,5.28c0,.63,0,1.26,0,1.89a34.25,34.25,0,0,0,.46,6.61c2.1,10.34,4.7,20.73,7,29.89,1.31,5.24,2.67,10.66,1.33,16.34a15.43,15.43,0,0,0-.29,2.55l0,.6-.5,0,0-.6a15.6,15.6,0,0,1,.31-2.63c1.31-5.57,0-10.93-1.34-16.11-2.3-9.17-4.91-19.56-7-29.91a34.56,34.56,0,0,1-.47-6.7c0-.63,0-1.26,0-1.89a39.56,39.56,0,0,0-.55-5.19c-.76-3.93-1.54-7.85-2.31-11.77s-1.6-8-2.37-12.06a62.25,62.25,0,0,1-1-10.13c-.06-1.38-.11-2.8-.21-4.31-.26-4.18.26-5,1.29-6.66a22.84,22.84,0,0,0,2.1-4,20.91,20.91,0,0,0-.16-3,12.29,12.29,0,0,1-.13-3c2.12-6,3.11-11.4,1-17.84-.27-.82-.7-2.68-1.11-4.48-.26-1.11-.52-2.25-.75-3.14-.48,4.5-1.4,11.58-2,15.61a37.88,37.88,0,0,1-4.66,13.93c-.68,1.35-1.34,2.71-2,4.05-1.06,2.19-2.16,4.46-3.34,6.64a8.13,8.13,0,0,0-.85,5.22,6.85,6.85,0,0,1-.63,4.06,3.56,3.56,0,0,0-.28.79,4.5,4.5,0,0,1-.24.74,2,2,0,0,0-.19.8c0,.06,0,.12,0,.19a1.49,1.49,0,0,1,0,.59,1.25,1.25,0,0,1,.94.09.39.39,0,0,1,.12.31c0,.3-.4.53-.79.68.52-.06.95-.07,1.17.22a.47.47,0,0,1,.08.49c-.18.43-1,.61-2.39.76l-.29,0a.83.83,0,0,1-.18,0A2.57,2.57,0,0,0,72.7,86a.84.84,0,0,1,.58.27.61.61,0,0,1,.17.45.7.7,0,0,1-.24.47,2,2,0,0,1-1.37.17,4.4,4.4,0,0,1-2.51-1.1,8.32,8.32,0,0,1-1.27-1.54c-1.06-1.52-1.16-3.49-.3-6,.43-1.3,1-2.65,1.49-3.94l.77-2a22.82,22.82,0,0,0,.72-2.58c.16-.7.33-1.41.52-2L73,61.06c1.21-4.7,2.47-9.56,5.64-13.57a4,4,0,0,0,.73-2.37l.15-4q.24-6,.5-12l0-.47a99.51,99.51,0,0,1,1-12c.49-2.87,2.24-4.62,5.36-5.37,1.26-.3,2.53-.68,3.76-1.05.9-.27,1.83-.55,2.76-.8,1.62-.44,2.29-1.31,2.48-3.22a11,11,0,0,0-.12-2.9l0-.28L104,2.74l0,.3a13.89,13.89,0,0,0-.1,3.21,4.29,4.29,0,0,0,.49,1.85c1.36,2.26,5.68,1.59,6.53,1.43,2.55-.47,4.46-.14,6,1l.25.19a10.3,10.3,0,0,1,1.68,1.48c2.59,3.11,5.46,6.06,8.24,8.91,2.49,2.56,5.07,5.2,7.44,8a18.08,18.08,0,0,1,2,2.82,4.81,4.81,0,0,1-.18,5c-2.82,5.33-6.45,8.65-10.55,12.15-.42.36-.84.72-1.25,1.09a24.46,24.46,0,0,1-4.87,3.62l-.06,0c-1.37.7-2.66,1.37-4,.19-.5-.44-2.84-2.49-4.42-3.7,2.58,6.29,3.92,14,3.44,19.67a74.17,74.17,0,0,1-3.48,16.27,117.71,117.71,0,0,1-4.45,12,18.79,18.79,0,0,0-.92,13.23c1.68,5.6,2,12.21.9,19.63-.19,1.3-.31,2.59-.42,3.83-.12,1.41-.25,2.87-.49,4.34a1.36,1.36,0,0,0,.12.54c0,.07.05.13.07.2a.74.74,0,0,0,.08.15.77.77,0,0,1,.16.38,32.14,32.14,0,0,0,.74,4.18c.83,3.73,1.68,7.58-1.12,11.13-.88,1.1-.42,2.42.13,3.67a17.92,17.92,0,0,1,1.11,4.33,25.75,25.75,0,0,0,.59,2.85A32.18,32.18,0,0,1,109.26,176.41ZM70,83.68a1.53,1.53,0,0,0,.31.79,1.38,1.38,0,0,0,1.31.62l.33,0c1.59-.19,1.93-.37,2-.47s-.66,0-1,0a3.55,3.55,0,0,1-1.92-.09A4.53,4.53,0,0,1,70,83.68Zm.12-1a1.35,1.35,0,0,0,.71.89l.07,0a1.58,1.58,0,0,0,1.44.19,4,4,0,0,0,1-.35c-.18,0-.43,0-.53.06l-.24,0a3.54,3.54,0,0,1-1.16-.13A4.62,4.62,0,0,1,70.16,82.69ZM70,81.94h0a5.28,5.28,0,0,0,1.48,1,8,8,0,0,1-.13-3.32,3.18,3.18,0,0,0,0-.36,1.15,1.15,0,0,0,0-.43s-.08.05-.2.16a4,4,0,0,0-.81,1.66l0,.13A9,9,0,0,0,70,81.94Zm47.9-32c-.88,0-1.8-.68-3.23-2.41-.33-.4-.67-.86-1-1.35a14.89,14.89,0,0,0-3-3.31l-.11-.08a5.29,5.29,0,0,0-.64-.35,1.53,1.53,0,0,1-.81-1.62c.14-.68.26-1.32.38-2,.28-1.45.56-2.94,1-4.39.16-.61.31-1.22.47-1.83a33.83,33.83,0,0,1,1.53-5,5.1,5.1,0,0,0,.29-3.18,2.2,2.2,0,0,1,.76-2.51c1-.73,1.91,0,2.56.48s1.12.82,1.74,1.25A22.7,22.7,0,0,1,121,26.07c2.12,2.14,4.42,4.17,6.64,6.12l1.92,1.7.14.12a1.16,1.16,0,0,1,.54.8,1,1,0,0,1-.4.7h0a31.4,31.4,0,0,0-5.48,7.08c-.82,1.31-1.68,2.66-2.62,3.92-1.61,2.16-2.57,3.38-3.73,3.41Zm-6.85-7.4a16,16,0,0,1,3,3.35c.35.48.69.93,1,1.32,1.33,1.6,2.17,2.25,2.88,2.23.92,0,1.87-1.23,3.34-3.2.93-1.25,1.78-2.6,2.6-3.9a31.69,31.69,0,0,1,5.57-7.19h0c.2-.17.23-.27.23-.32s-.2-.27-.36-.41l-.16-.14-1.91-1.69c-2.23-2-4.53-4-6.67-6.14a21.93,21.93,0,0,0-3.07-2.4c-.63-.43-1.22-.85-1.77-1.27-.73-.57-1.31-.94-2-.47a1.75,1.75,0,0,0-.56,2,5.65,5.65,0,0,1-.32,3.49,34.46,34.46,0,0,0-1.51,5c-.15.62-.31,1.23-.47,1.84-.39,1.43-.67,2.91-1,4.35-.12.64-.24,1.29-.37,1.93s.28,1,.52,1.1a4.88,4.88,0,0,1,.8.47l.14.06Z"/><path class="cls-1" d="M114.4,47.07a.26.26,0,0,1-.2-.11c-.26-.36-.49-.72-.72-1.07a11.62,11.62,0,0,0-1.54-2,12.24,12.24,0,0,0-3.19-2.18c-.52-.27-1.08-.53-1.79-.82l-.17-.09c-.19-.09-.77-.36-.9-.23s0,0,0,.06c0,.41,1.35,1.2,1.78,1.46a2.87,2.87,0,0,1,.33.21l.76.55a10.61,10.61,0,0,1,3.16,3,.25.25,0,0,1-.43.25,10.11,10.11,0,0,0-3-2.81l-.77-.56-.29-.19c-.94-.57-1.94-1.22-2-1.82a.53.53,0,0,1,.17-.47c.38-.38,1.06-.06,1.46.13l.16.07c.71.31,1.29.57,1.82.84a12.69,12.69,0,0,1,3.31,2.28,11.8,11.8,0,0,1,1.61,2.11c.22.35.45.71.71,1.06a.25.25,0,0,1-.06.35A.3.3,0,0,1,114.4,47.07Z"/><path class="cls-1" d="M111.33,47.3a.25.25,0,0,1-.2-.09,6.86,6.86,0,0,0-3.28-1.8l-.18-.06c-.67-.23-1.34-.43-1.9-.59l-.12,0c-.41-.11-1.11-.29-1.27-.74a.65.65,0,0,1,.1-.62c.26-.37.85-.31,1.2-.27h.07c1.12.11,2.6.27,4.07.55a.24.24,0,0,1,.2.29.25.25,0,0,1-.29.2c-1.45-.28-2.91-.43-4-.54h-.08c-.16,0-.65-.06-.73.07a.19.19,0,0,0-.06.15c.08.21.73.38.94.44l.13,0c.57.16,1.24.36,1.92.59l.18.06a7.35,7.35,0,0,1,3.51,2,.24.24,0,0,1,0,.35A.3.3,0,0,1,111.33,47.3Z"/><path class="cls-1" d="M117.28,54.66l-.39,0A3.89,3.89,0,0,1,115,53.47a16.09,16.09,0,0,0-4.87-3.42,9.07,9.07,0,0,0-3.62-.43c-.26,0-.5,0-.79,0a.57.57,0,0,1-.55-.36.62.62,0,0,1,0-.5,1.91,1.91,0,0,1,1.12-.74,5.47,5.47,0,0,1,3.76.14c.25.09.5.18.75.29h0a5.33,5.33,0,0,0-1.78-.9,8.23,8.23,0,0,0-2.4-.34h-.18c-.82,0-2.54,0-2.56-1a.63.63,0,0,1,.18-.47,1.57,1.57,0,0,1,1.07-.32h.29c1.24,0,2.52,0,3.78,0a.25.25,0,0,1,.24.26.27.27,0,0,1-.26.24c-1.25,0-2.53,0-3.76,0h-.29a1.16,1.16,0,0,0-.71.17.13.13,0,0,0,0,.1c0,.59,1.55.57,2.06.56h.18a8.47,8.47,0,0,1,2.54.36c.7.22,2.36.85,2.56,1.94a.24.24,0,0,1-.1.25.24.24,0,0,1-.28,0,6.58,6.58,0,0,0-.74-.35l-.71-.28a4.84,4.84,0,0,0-3.41-.15c-.26.09-.76.28-.85.49a.1.1,0,0,0,0,.12s0,0,.09,0h.77a9.35,9.35,0,0,1,3.81.47,16.32,16.32,0,0,1,5,3.52,3.44,3.44,0,0,0,1.6,1,3.1,3.1,0,0,0,2.08-.64.25.25,0,0,1,.34.09.24.24,0,0,1-.08.34A4,4,0,0,1,117.28,54.66Z"/><path class="cls-2" d="M95.42,182a30,30,0,0,1-7.57-1l-1.36-.3a41.74,41.74,0,0,0-9.18-.94c-2.64,0-5.27.19-7.81.37s-5.34.39-8.15.39h-.66a37,37,0,0,1-6.22-.51c-2.93-.52-4.27-1.78-4.32-4.09-.06-2.54,1.1-4.06,3.65-4.78.55-.16,1.07-.35,1.58-.55a11.35,11.35,0,0,1,2.07-.64c6.29-1,11-4.83,14.36-11.61,7.07-14.19,12-29.41,16.78-44.14q1-3.15,2-6.3c.89-2.73-.17-5.22-1.12-7.42l-.17-.41a67.72,67.72,0,0,1-5.84-24.44c0-7.12,2.66-15,5-21.91l.27-.81c1.62-4.79,2.76-9.15.36-13.87-2-3.9-4.05-7.93-3.11-12.37.19-.91.41-1.78.62-2.63a35,35,0,0,0,1.16-6.66c0-.46,0-.94,0-1.41a11,11,0,0,1,.32-3.25,2,2,0,0,1,1-1.19,8.88,8.88,0,0,1,2.35-.76l.19,0a2.14,2.14,0,0,1,.56-.08c.27,0,.31,0,.75.79a10.73,10.73,0,0,0,.81,1.3,7.67,7.67,0,0,0,6,3.39,5.48,5.48,0,0,0,.7,0,8.68,8.68,0,0,0,5.08-2.68,7.11,7.11,0,0,0,1-1.53,6.09,6.09,0,0,1,.8-1.19,2.15,2.15,0,0,1,1.33-.27h.81a6.08,6.08,0,0,0,.61,0h.34c.88,0,1.17.31,1.32.58a4.34,4.34,0,0,1,.45,2.45,20.54,20.54,0,0,0,.83,6.89,18,18,0,0,1,.76,6.58,52.13,52.13,0,0,1-1.45,6.66c-.28,1.07-.56,2.13-.81,3.2-.12.54-.3,1.08-.48,1.65-.57,1.76-1.21,3.74-.33,5.93a19,19,0,0,0,2.74,5.38,24.58,24.58,0,0,1,2.09,3.67A58.17,58.17,0,0,1,119,64.11a71.24,71.24,0,0,1,.69,22.28C116.57,113.27,117,142,121,174.24c.37,3,.17,4.7-.65,5.71s-2.17,1.43-4.47,1.61l-1.68.15c-1.42.13-2.89.27-4.31.27h-.31a9.57,9.57,0,0,1-2.55-.26,9.78,9.78,0,0,1-1-.37,7.6,7.6,0,0,0-2.12-.62c-.21,0-.41,0-.62,0a13,13,0,0,0-3.6.68,12.17,12.17,0,0,1-2.87.6Z"/><path class="cls-1" d="M110.57,11.34c.33,0,.45.06.44.07a3.42,3.42,0,0,1,.34,1.86,21.2,21.2,0,0,0,.85,7.22,17.43,17.43,0,0,1,.74,6.22,51.4,51.4,0,0,1-1.43,6.54c-.27,1-.56,2.14-.81,3.22-.12.5-.29,1-.46,1.58-.59,1.8-1.31,4-.33,6.54a19.85,19.85,0,0,0,2.85,5.62,22.71,22.71,0,0,1,2,3.51A56.68,56.68,0,0,1,118,64.31a70.18,70.18,0,0,1,.67,22c-3.12,27-2.7,55.77,1.28,88.08.32,2.62.18,4.2-.44,5s-1.79,1.09-3.77,1.24l-1.7.15c-1.45.14-2.83.27-4.21.27h-.3a8.64,8.64,0,0,1-2.28-.22c-.26-.08-.56-.2-.88-.33a8.15,8.15,0,0,0-2.4-.7q-.36,0-.72,0a13.93,13.93,0,0,0-3.89.72,10.74,10.74,0,0,1-2.62.56l-1.33,0a29.21,29.21,0,0,1-7.36-1l-1.35-.3a42.53,42.53,0,0,0-9.4-1c-2.68,0-5.33.19-7.89.37s-5.29.39-8.07.39h-.64a36.12,36.12,0,0,1-6.06-.49c-3.18-.57-3.47-1.91-3.5-3.13,0-2.07.82-3.21,2.92-3.8.59-.16,1.14-.37,1.67-.57a10.45,10.45,0,0,1,1.87-.59c6.63-1.09,11.57-5.06,15.1-12.15,7.1-14.26,12.05-29.52,16.83-44.29.68-2.09,1.36-4.19,2-6.28,1-3.1-.14-5.77-1.15-8.14l-.17-.4a66.69,66.69,0,0,1-5.76-24c0-7,2.64-14.75,5-21.6l.27-.8c1.69-5,2.88-9.57.3-14.64-1.91-3.75-3.89-7.62-3-11.72.19-.88.4-1.76.61-2.6a36.36,36.36,0,0,0,1.19-6.84c0-.48,0-1,0-1.46a10.21,10.21,0,0,1,.28-3,1,1,0,0,1,.53-.61,8.4,8.4,0,0,1,2.07-.66l.19,0,.08,0c0,.08.09.17.13.24a10.29,10.29,0,0,0,.9,1.42,8.62,8.62,0,0,0,6.82,3.79,7.63,7.63,0,0,0,.82,0,9.54,9.54,0,0,0,5.67-3,8,8,0,0,0,1.2-1.73,8.18,8.18,0,0,1,.57-.91,3.11,3.11,0,0,1,.69-.05h.81q.36,0,.69,0h.26m-2.41,0h0m2.41-2-.43,0-.52,0h-.81a2.87,2.87,0,0,0-2,.54c-.71.66-1.19,2.06-1.87,2.75a7.66,7.66,0,0,1-4.48,2.39l-.59,0a6.75,6.75,0,0,1-5.23-3c-1-1.34-1-2.48-2.36-2.48a3.62,3.62,0,0,0-.79.1,10.41,10.41,0,0,0-2.81.92,2.92,2.92,0,0,0-1.44,1.75,20.21,20.21,0,0,0-.41,4.91c-.16,3.22-1.09,6-1.76,9.13-1,4.73,1.09,8.92,3.19,13,2.29,4.48,1.11,8.61-.41,13.09C85.42,59.72,82.52,68,82.51,75.61a68.84,68.84,0,0,0,5.92,24.8c1,2.28,2.09,4.61,1.26,7.13-5.58,17-10.75,34.2-18.77,50.3-2.83,5.69-6.94,10-13.63,11.08a34.25,34.25,0,0,0-3.76,1.21c-2.94.83-4.45,2.74-4.38,5.77.08,3.27,2.37,4.55,5.14,5a38,38,0,0,0,6.39.53h.67c5.61,0,10.67-.76,16-.76a41.13,41.13,0,0,1,9,.91c3.72.82,5.65,1.37,9.14,1.37l1.41,0c2.15-.08,4.28-1.28,6.43-1.28l.52,0a17.2,17.2,0,0,1,2.92,1,10.25,10.25,0,0,0,2.82.3h.32c2,0,4-.26,6.06-.42,5.67-.45,6.73-2.86,6-8.45-3.58-29.15-4.65-58.39-1.27-87.6a72,72,0,0,0-.7-22.6,59.84,59.84,0,0,0-3.36-11c-1.28-3.08-4-5.8-4.8-9-1-2.5.3-4.72.84-7a99.66,99.66,0,0,0,2.27-10c.6-4.75-2-8.82-1.58-13.5a5.36,5.36,0,0,0-.58-3,2.3,2.3,0,0,0-2.19-1.1Z"/><path class="cls-1" d="M120.8,68.51A207.13,207.13,0,0,1,119,95.65a254.06,254.06,0,0,1-5,26.79,207.4,207.4,0,0,1-8.09,26A163.07,163.07,0,0,1,94.1,173q1.4-3.1,2.83-6.17c.48-1,1-2,1.42-3.08l1.26-3.15c.84-2.1,1.75-4.17,2.54-6.28l2.3-6.37c2.91-8.53,5.56-17.17,7.61-26s3.91-17.62,5.38-26.54l1-6.7c.3-2.24.64-4.48.91-6.72C120,77.53,120.41,73,120.8,68.51Z"/><path class="cls-1" d="M90.94,150.15a21.79,21.79,0,0,1,.25,8.21,28.08,28.08,0,0,1-6.92,14.88,27.82,27.82,0,0,1-3,2.88,34.93,34.93,0,0,1-3.36,2.35c.86-1.08,1.83-2,2.67-3.05s1.71-2,2.44-3.15c.37-.55.78-1.07,1.13-1.62l1-1.69c.36-.54.63-1.15,1-1.72a16.91,16.91,0,0,0,.87-1.76,39.91,39.91,0,0,0,2.64-7.42A44.7,44.7,0,0,0,90.94,150.15Z"/><rect class="cls-3" width="186" height="186"/></svg>