<svg id="图层_1" data-name="图层 1" xmlns="http://www.w3.org/2000/svg" viewBox="0 0 186 186"><defs><style>.cls-1{fill:#f5e3ea;}.cls-2{fill:#e2c9d2;}.cls-3{fill:#fff;}.cls-4{fill:#5b3b2f;}</style></defs><title>child_neckline传iconfount</title><path class="cls-1" d="M79.87,26s4.5,17.7-18.74,26.52S29.9,67.16,31.7,87s3.54,57.44.88,71.59H53.39S56.4,94.2,56,88.38L63,158.57h59.51l6.17-70.93s4.61,55,4.61,70.93h21.21a258.94,258.94,0,0,1-1-61.82c3.65-32.75-7-33.63-27.29-43.35S107.7,39.26,107.7,26Z"/><path class="cls-2" d="M71,55.2c3-.3,6-.51,9-.58,1.49,0,3,0,4.48.05a20.54,20.54,0,0,1,2.23.24,4.4,4.4,0,0,1,2.08.78A4.39,4.39,0,0,0,86.61,55a18.35,18.35,0,0,0-2.22-.12c-1.49,0-3,.07-4.45.19-3,.24-5.92.62-8.85,1.07Z"/><path class="cls-2" d="M114.27,56.18c-2.93-.45-5.89-.83-8.85-1.07-1.48-.12-3-.2-4.44-.19a18.13,18.13,0,0,0-2.22.12,4.39,4.39,0,0,0-2.1.65,4.4,4.4,0,0,1,2.08-.78,20.82,20.82,0,0,1,2.23-.24c1.49-.09,3-.09,4.48-.05,3,.07,6,.28,9,.58Z"/><path class="cls-3" d="M56.42,88.82a5.74,5.74,0,0,0-.21,2.7c2.64,16.58,2.63,45,2.68,53.58a96.81,96.81,0,0,1-1,13.91h72.21s-.4-6.48-.84-12.3c-.57-7.43-1.75-34.52.33-52.2,1.75-15,6.56-30.4,7.55-35.89a1,1,0,0,0-.39-1,38.2,38.2,0,0,0-6.54-3.84,1,1,0,0,0-1.32.4c-4.46,8-13.21,25.38-32.31,29.07-9.4,1.82-22.37-4-30-2.91A12,12,0,0,0,56.42,88.82Z"/><path class="cls-4" d="M130.12,160H57.91a1,1,0,0,1-.76-.35,1,1,0,0,1-.22-.8,97,97,0,0,0,1-13.75v-1.49c0-9.93-.17-36.29-2.66-51.94a6.76,6.76,0,0,1,.24-3.16h0a13.13,13.13,0,0,1,11-9.12c3.66-.51,8.34.45,13.3,1.46C85.53,82,91.5,83.26,96.41,82.32c17.79-3.44,26.39-19.06,31-27.45l.62-1.13a2,2,0,0,1,2.63-.81,39.57,39.57,0,0,1,6.67,3.92,2,2,0,0,1,.8,1.94c-.31,1.73-1,4.35-1.82,7.66-1.91,7.55-4.52,17.89-5.73,28.18-2.13,18.19-.77,46.08-.32,52,.43,5.76.83,12.24.84,12.31a1,1,0,0,1-.27.74A1,1,0,0,1,130.12,160Zm-71.07-2h70c-.13-2.07-.44-6.85-.77-11.22-.46-6-1.82-34,.33-52.39,1.22-10.42,4-21.26,5.78-28.43.83-3.28,1.48-5.87,1.78-7.53a38.12,38.12,0,0,0-6.39-3.73l-.64,1.12c-4.77,8.68-13.66,24.82-32.36,28.43-5.3,1-11.47-.24-17.44-1.46-4.78-1-9.31-1.91-12.62-1.44a11,11,0,0,0-9.37,7.77,4.8,4.8,0,0,0-.17,2.23c2.51,15.8,2.64,42.27,2.68,52.24v1.49A99.84,99.84,0,0,1,59.05,158Z"/><path class="cls-4" d="M63.87,82a1,1,0,0,1-1-.86l-4-28a1,1,0,0,1,2-.28l4,28A1,1,0,0,1,64,82Z"/></svg>