<svg id="图层_1" data-name="图层 1" xmlns="http://www.w3.org/2000/svg" viewBox="0 0 186 186"><defs><style>.cls-1{fill:#f5e3ea;}.cls-2{fill:#e2c9d2;}.cls-3{fill:#fff;}.cls-4{fill:#5b3b2f;}</style></defs><title>child_neckline传iconfount</title><path class="cls-1" d="M79.87,26s4.5,17.7-18.74,26.52S29.9,67.16,31.7,87s3.54,57.44.88,71.59H53.39S56.4,94.2,56,88.38L63,158.57h59.51l6.17-70.93s4.61,55,4.61,70.93h21.21a258.94,258.94,0,0,1-1-61.82c3.65-32.75-7-33.63-27.29-43.35S107.7,39.26,107.7,26Z"/><path class="cls-2" d="M71,55.2c3-.3,6-.51,9-.58,1.49,0,3,0,4.48.05a20.54,20.54,0,0,1,2.23.24,4.4,4.4,0,0,1,2.08.78A4.39,4.39,0,0,0,86.61,55a18.35,18.35,0,0,0-2.22-.12c-1.49,0-3,.07-4.45.19-3,.24-5.92.62-8.85,1.07Z"/><path class="cls-2" d="M114.27,56.18c-2.93-.45-5.89-.83-8.85-1.07-1.48-.12-3-.2-4.44-.19a18.13,18.13,0,0,0-2.22.12,4.39,4.39,0,0,0-2.1.65,4.4,4.4,0,0,1,2.08-.78,20.82,20.82,0,0,1,2.23-.24c1.49-.09,3-.09,4.48-.05,3,.07,6,.28,9,.58Z"/><path class="cls-3" d="M138.15,57.54a42.32,42.32,0,0,0-5.31-2.39c-.38-.14-6.2,2.08-7,2.31-8,2.33-23.64,5.2-32.85,5.2s-24.87-2.87-32.85-5.2c-.79-.23-6.61-2.45-7-2.31a42.32,42.32,0,0,0-5.31,2.39.88.88,0,0,0-.37,1c.64,3.53,4,22.3,6.59,37.22,2.83,16.4,3.09,40.12,3.14,48.94a96.81,96.81,0,0,1-1,13.91L93,159l37.17-.44a96.81,96.81,0,0,1-1-13.91c.05-8.82-.09-32.54,2.74-48.94C134.5,80.8,137.88,62,138.52,58.5A.88.88,0,0,0,138.15,57.54Z"/><path class="cls-4" d="M93,160l-36.79-.44a1,1,0,0,1-.75-.35,1,1,0,0,1-.22-.8,96.24,96.24,0,0,0,1-13.75c-.15-26.16-1.78-41-3.13-48.77-2.58-15-5.94-33.63-6.59-37.22a1.87,1.87,0,0,1,.88-2,44.73,44.73,0,0,1,5.43-2.44c.49-.18.8-.16,5.84,1.66.85.31,1.54.56,1.78.63C68.8,59,84.23,61.67,93,61.67s24.2-2.72,32.57-5.16c.24-.07.93-.32,1.78-.63,5-1.81,5.35-1.84,5.84-1.66a44.73,44.73,0,0,1,5.43,2.44h0a1.85,1.85,0,0,1,.88,2c-.65,3.59-4,22.23-6.6,37.22s-2.67,36.37-2.71,46.59v2.18a96.24,96.24,0,0,0,1,13.75,1,1,0,0,1-.23.8,1,1,0,0,1-.74.35Zm-35.64-2.41L93,158l36-.42a99.61,99.61,0,0,1-.84-12.94v-2.18c0-10.27.12-31.65,2.75-46.91,2.58-15,5.94-33.59,6.59-37.22a41.24,41.24,0,0,0-4.84-2.18c-.76.18-3.37,1.12-4.68,1.59-.91.33-1.64.59-1.89.66-8.5,2.48-24.19,5.24-33.13,5.24s-24.63-2.76-33.13-5.24c-.25-.07-1-.33-1.9-.66-1.3-.47-3.91-1.41-4.67-1.59a41.24,41.24,0,0,0-4.84,2.18c.68,3.79,4,22.31,6.59,37.22,2,11.3,3,28.27,3.15,49.09A100.08,100.08,0,0,1,57.37,157.59Z"/></svg>