<svg id="图层_1" data-name="图层 1" xmlns="http://www.w3.org/2000/svg" viewBox="0 0 186 186"><defs><style>.cls-1{fill:#f5e3ea;}.cls-2{fill:#e2c9d2;}.cls-3{fill:#fefefe;}.cls-4{fill:#5b3b2f;}.cls-5{fill:#fff;}</style></defs><title>child_neckline传iconfount</title><path class="cls-1" d="M79.47,26S84,43.76,60.67,52.61,29.34,67.3,31.15,87.18,34.7,144.82,32,159H52.91s3-64.59,2.6-70.42L62.59,159H122.3l6.19-71.16s4.63,55.2,4.63,71.16H154.4a260,260,0,0,1-1-62c3.65-32.86-7-33.75-27.38-43.5S107.41,39.3,107.41,26Z"/><path class="cls-2" d="M70.54,55.3c3-.3,6-.51,9-.59,1.5,0,3,0,4.5,0a21,21,0,0,1,2.24.25,4.44,4.44,0,0,1,2.08.78,4.44,4.44,0,0,0-2.1-.66C85.5,55.05,84.75,55,84,55c-1.49,0-3,.08-4.46.2-3,.24-5.94.61-8.88,1.07Z"/><path class="cls-2" d="M114,56.28c-2.94-.46-5.9-.83-8.87-1.07-1.49-.12-3-.2-4.47-.2-.74,0-1.48,0-2.22.12a4.47,4.47,0,0,0-2.11.66A4.43,4.43,0,0,1,98.41,55a21,21,0,0,1,2.24-.25c1.49-.08,3-.08,4.49,0,3,.08,6,.29,9,.59Z"/><path class="cls-3" d="M35.52,118.75a12,12,0,0,1-3.38-.26c-1.62-1.57-1.41-3.95-1.18-6.46.06-.69.12-1.38.15-2a11.62,11.62,0,0,0-1.4-5.35,28,28,0,0,1-1.37-3.54,2.06,2.06,0,0,1,.33-1.74A3.53,3.53,0,0,1,31.41,98c.6,0,1.18,0,1.72,0,1.15,0,2.21.07,3.24.14s2,.13,3,.13a18.11,18.11,0,0,0,8.27-2c1.44-.69,3.31-1.7,5.11-2.68,2.17-1.17,4.41-2.39,5.37-2.73l.63-.26c.28-.13.71-.32,1.11-.46a4.08,4.08,0,0,0-.39.6l0,.09a33.88,33.88,0,0,0-3,8.09c-.59,3.11,2.37,5.49,5.24,7.79.51.41,1,.81,1.47,1.2a67.68,67.68,0,0,0-7.71,3.95c-4.77,2.69-10.18,5.74-15.27,6.62A35.88,35.88,0,0,1,35.52,118.75Z"/><path class="cls-4" d="M60.63,91h0m-2.92,1.15a29,29,0,0,0-2.33,6.64c-.69,3.69,2.65,6.37,5.6,8.74l.2.16c-2,.91-4.09,2.11-6.31,3.35-4.7,2.65-10,5.66-14.95,6.52a37.21,37.21,0,0,1-4.4.23,18.27,18.27,0,0,1-2.86-.16c-1-1.16-.95-2.88-.71-5.48.06-.69.12-1.4.15-2.11a12.43,12.43,0,0,0-1.49-5.78,29.2,29.2,0,0,1-1.32-3.42,1.11,1.11,0,0,1,.2-.9,2.6,2.6,0,0,1,2-.89c.54,0,1.08,0,1.65,0,1.11,0,2.16.07,3.18.14s2,.14,3,.14a19.15,19.15,0,0,0,8.7-2.07c1.46-.69,3.34-1.71,5.16-2.7,1.61-.87,3.39-1.83,4.5-2.36M60.62,89a10.11,10.11,0,0,0-2.85,1c-1.85.67-7.35,3.91-10.58,5.45a17,17,0,0,1-7.84,1.87c-2,0-3.93-.28-6.22-.28-.57,0-1.16,0-1.78.06-3.32.23-4.46,2.68-4,4.34,1.11,3.74,2.83,5.66,2.72,8.56-.12,3.29-1.14,7,1.42,9.33.38.35,2.13.48,4,.48a35.71,35.71,0,0,0,4.74-.27c8.82-1.53,18.24-9.17,24.34-11,.41-.33,0-.53-.32-.78-3-2.68-7.55-5.34-7-8.55a34.26,34.26,0,0,1,3-7.94c.24-.5,1.26-1.43.93-1.92a.75.75,0,0,0-.66-.28Z"/><path class="cls-3" d="M150.48,118.75a35.75,35.75,0,0,1-4.57-.25c-5.09-.88-10.5-3.93-15.27-6.62a67.68,67.68,0,0,0-7.71-3.95c.46-.39,1-.79,1.47-1.2,2.87-2.3,5.83-4.68,5.24-7.79a33.88,33.88,0,0,0-3-8.09l0-.09a4,4,0,0,0-.38-.6c.4.14.82.33,1.1.46l.63.26c1,.34,3.2,1.56,5.37,2.73,1.81,1,3.67,2,5.11,2.68a18.11,18.11,0,0,0,8.27,2c1,0,2-.06,3-.13s2.09-.14,3.24-.14c.54,0,1.12,0,1.72,0a3.53,3.53,0,0,1,2.74,1.32,2.06,2.06,0,0,1,.33,1.74,28,28,0,0,1-1.37,3.54,11.62,11.62,0,0,0-1.4,5.35c0,.67.09,1.36.15,2,.23,2.51.44,4.89-1.18,6.46A12,12,0,0,1,150.48,118.75Z"/><path class="cls-4" d="M128.29,92.12c1.11.53,2.89,1.49,4.5,2.36,1.82,1,3.7,2,5.16,2.7a19.15,19.15,0,0,0,8.7,2.07c1,0,2.06-.07,3-.14s2.07-.14,3.18-.14c.57,0,1.11,0,1.65,0a2.6,2.6,0,0,1,2,.89,1.11,1.11,0,0,1,.2.9,29.2,29.2,0,0,1-1.32,3.42A12.43,12.43,0,0,0,153.9,110c0,.71.09,1.42.15,2.11.24,2.6.31,4.32-.71,5.48a18.27,18.27,0,0,1-2.86.16,37.21,37.21,0,0,1-4.4-.23c-4.92-.86-10.25-3.87-15-6.52-2.22-1.24-4.35-2.44-6.31-3.35l.2-.16c3-2.37,6.29-5,5.6-8.74a29,29,0,0,0-2.33-6.64M125.38,89a.75.75,0,0,0-.66.28c-.33.49.69,1.42.93,1.92a34.26,34.26,0,0,1,3,7.94c.6,3.21-4,5.87-6.95,8.55-.29.25-.73.45-.32.78,6.1,1.86,15.52,9.5,24.34,11a35.71,35.71,0,0,0,4.74.27c1.86,0,3.61-.13,4-.48,2.56-2.37,1.54-6,1.42-9.33-.11-2.9,1.61-4.82,2.72-8.56.5-1.66-.64-4.11-4-4.34-.62,0-1.21-.06-1.78-.06-2.29,0-4.21.28-6.22.28a17,17,0,0,1-7.84-1.87c-3.23-1.54-8.73-4.78-10.58-5.45a10.11,10.11,0,0,0-2.85-1Z"/><path class="cls-5" d="M68.76,76.93,61,53.64a1,1,0,0,0-1.33-.6c-2.26,1-4,1.62-5,2a1,1,0,0,0-.61,1.2l7,25.15h0a1.83,1.83,0,0,1-.6,2,47.28,47.28,0,0,0-4.85,4.22A3,3,0,0,0,55,89.66l3.82,49.52A142.76,142.76,0,0,1,58,159h70.8a142.76,142.76,0,0,1-.84-19.83l3.82-49.52a3,3,0,0,0-.66-2.11,20.84,20.84,0,0,0-5.51-4.81,1.92,1.92,0,0,1-.88-2.17l6.81-24.35a1,1,0,0,0-.61-1.2c-1-.36-2.75-1-5-2a1,1,0,0,0-1.31.59c-1.26,3.76-5.68,17.05-7.76,23.3a6.89,6.89,0,0,1-4.43,4.4C107.1,83.05,97,86.16,92.65,86.15s-14.25-3.1-19.48-4.82A7,7,0,0,1,68.76,76.93Z"/><path class="cls-4" d="M128.77,160H58a1,1,0,0,1-.75-.34,1,1,0,0,1-.24-.79,141.24,141.24,0,0,0,.84-19.66L54,89.74a3.92,3.92,0,0,1,.88-2.81,44.86,44.86,0,0,1,5-4.38.83.83,0,0,0,.27-.89l-7-25.17a2,2,0,0,1,1.22-2.4c.86-.31,2.65-1,5-2A2,2,0,0,1,62,53.32l7.75,23.29h0a6,6,0,0,0,3.77,3.78c9.21,3,16.2,4.76,19.17,4.77h0c3,0,10.09-1.74,19.41-4.78a6,6,0,0,0,3.79-3.77l7.75-23.3a2,2,0,0,1,2.65-1.19c2.17.92,3.9,1.58,5,2a2,2,0,0,1,1.23,2.4l-6.82,24.35a.93.93,0,0,0,.44,1,22.22,22.22,0,0,1,5.77,5.05,3.92,3.92,0,0,1,.88,2.81l-3.82,49.52a142.51,142.51,0,0,0,.84,19.61,1,1,0,0,1-1,1.13ZM59.1,158h68.55a147.87,147.87,0,0,1-.71-18.86l3.82-49.57a2,2,0,0,0-.44-1.41,20.24,20.24,0,0,0-5.24-4.58,2.92,2.92,0,0,1-1.34-3.29L130.56,56c-1.09-.39-2.85-1.06-5.06-2l-.31.95-7.44,22.33a8,8,0,0,1-5.06,5c-5.59,1.82-15.61,4.87-20,4.87h0c-4.35,0-14.26-3-19.79-4.87a8,8,0,0,1-5-5L60.07,54c-2.36,1-4.18,1.69-5.06,2L62.06,81.1a2.79,2.79,0,0,1-1,3,46.27,46.27,0,0,0-4.69,4.07A2,2,0,0,0,56,89.58l3.82,49.53A149.46,149.46,0,0,1,59.1,158Z"/></svg>