<svg id="图层_1" data-name="图层 1" xmlns="http://www.w3.org/2000/svg" viewBox="0 0 186 186"><defs><style>.cls-1{fill:#f5e3ea;}.cls-2{fill:#e2c9d2;}.cls-3{fill:#fff;}.cls-4{fill:#5b3b2f;}.cls-5{fill:none;stroke:#5b3b2f;stroke-linecap:round;stroke-linejoin:round;stroke-width:2px;}</style></defs><title>child_neckline传iconfount</title><path class="cls-1" d="M79.73,26S84.28,43.88,60.8,52.8,29.24,67.59,31.07,87.61s3.57,58,.89,72.32H53S56,94.9,55.6,89l7.13,70.91h60.12l6.24-71.65s4.66,55.58,4.66,71.65h21.43a261.41,261.41,0,0,1-1-62.45c3.68-33.09-7-34-27.57-43.8S107.86,39.39,107.86,26Z"/><path class="cls-2" d="M70.74,55.5c3-.3,6-.51,9-.59,1.51,0,3,0,4.53.05a21.5,21.5,0,0,1,2.25.25,4.52,4.52,0,0,1,2.1.79,4.4,4.4,0,0,0-2.12-.66,20.88,20.88,0,0,0-2.24-.13c-1.5,0-3,.08-4.5.2-3,.25-6,.62-8.93,1.08Z"/><path class="cls-2" d="M114.49,56.49c-3-.46-5.95-.83-8.94-1.08-1.49-.12-3-.2-4.49-.2a21.21,21.21,0,0,0-2.25.13A4.37,4.37,0,0,0,96.7,56a4.44,4.44,0,0,1,2.1-.79,21.21,21.21,0,0,1,2.25-.25c1.51-.08,3-.08,4.53-.05,3,.08,6,.29,9,.59Z"/><path class="cls-3" d="M53.93,67.3s3.92,26.38,5.24,50.6A162.77,162.77,0,0,1,55.83,159h75a185.54,185.54,0,0,1-4.11-41.1c.47-20.58,3.37-42.76,5.55-50.6,0,0-21.62,16-39.19,16.42C72.88,84.16,53.93,67.3,53.93,67.3Z"/><path class="cls-4" d="M130.86,160h-75a1,1,0,0,1-.78-.38,1,1,0,0,1-.19-.84A163.77,163.77,0,0,0,58.17,118C56.87,94.06,53,67.7,52.94,67.44a1,1,0,0,1,1.65-.89c.18.16,18.43,16.17,37.74,16.17h.76c17-.38,38.4-16.07,38.61-16.23a1,1,0,0,1,1.17,0,1,1,0,0,1,.39,1.09c-2.29,8.26-5,30.47-5.51,50.36a186,186,0,0,0,4.08,40.85,1,1,0,0,1-1,1.23Zm-73.79-2h72.54a190.27,190.27,0,0,1-3.86-40.13c.42-18.21,2.77-38.4,4.94-48.22-6,4.09-23,14.74-37.55,15.07-16.77.38-32.4-10.68-37.86-15,1,7.23,3.82,28.5,4.88,48.12A163.28,163.28,0,0,1,57.07,158Z"/><line class="cls-5" x1="51.65" y1="56.49" x2="53.93" y2="67.3"/><line class="cls-5" x1="134.35" y1="57.72" x2="132.3" y2="67.3"/><path class="cls-4" d="M54.92,77.12l5.84,4.67-6.28-4.06a.38.38,0,0,1,.41-.63Z"/><path class="cls-4" d="M62.49,74l3.58,6.58-4.22-6.19a.37.37,0,0,1,.09-.52.38.38,0,0,1,.53.09A.08.08,0,0,0,62.49,74Z"/><path class="cls-4" d="M74.5,105.26a21.48,21.48,0,0,0,6.64,5.39,19,19,0,0,0,8.31,2.22,19.67,19.67,0,0,0,2.17-.07,9.81,9.81,0,0,0,1.09-.08l1.07-.21a16.83,16.83,0,0,0,2.13-.47l2.08-.71a12.66,12.66,0,0,0,2-.88l2-1c1.24-.76,2.46-1.58,3.7-2.37-1.21.82-2.41,1.68-3.64,2.48l-2,1a12.56,12.56,0,0,1-2,.94l-2.08.78a19.31,19.31,0,0,1-2.15.54l-1.08.24a10.18,10.18,0,0,1-1.11.12,20.66,20.66,0,0,1-2.22.13,19.63,19.63,0,0,1-8.63-2.05c-.68-.31-1.31-.72-2-1.08S77.59,109.42,77,109a20.41,20.41,0,0,1-3.29-3.09.49.49,0,0,1,.05-.7.51.51,0,0,1,.71,0h0Z"/><path class="cls-4" d="M66.33,88.23A36.75,36.75,0,0,0,76.94,101a23.61,23.61,0,0,0,7.44,3.67,21.17,21.17,0,0,0,8.27.6,20.76,20.76,0,0,0,2.07-.34l2-.5a36.57,36.57,0,0,0,3.92-1.53,38.94,38.94,0,0,0,3.72-2c1.19-.74,2.35-1.54,3.5-2.35a79.23,79.23,0,0,0,12.23-11.64A79.1,79.1,0,0,1,108,98.73c-1.14.83-2.3,1.65-3.49,2.41a37.33,37.33,0,0,1-3.72,2,34.71,34.71,0,0,1-4,1.6l-2.06.55a21,21,0,0,1-2.1.38,21.58,21.58,0,0,1-8.5-.5,24.36,24.36,0,0,1-7.72-3.66,33.82,33.82,0,0,1-6.26-5.81,39.06,39.06,0,0,1-4.81-7.08.5.5,0,1,1,.88-.47h0Z"/><path class="cls-4" d="M108.29,90.44a38.52,38.52,0,0,0,6.62-3,42.41,42.41,0,0,0,6-4.09c1-.74,1.81-1.59,2.71-2.4s1.73-1.68,2.51-2.59a66.3,66.3,0,0,0,4.67-5.58.06.06,0,0,1,.07,0s0,0,0,.06a27.94,27.94,0,0,1-4,6.19,29.57,29.57,0,0,1-2.59,2.66c-1,.78-1.88,1.6-2.89,2.31a43.54,43.54,0,0,1-6.26,3.89,39.24,39.24,0,0,1-6.83,2.69s-.06,0-.06,0S108.27,90.44,108.29,90.44Z"/><path class="cls-4" d="M129.36,84.83,121,93.19l7.62-9a.5.5,0,0,1,.77.64Z"/><path class="cls-4" d="M115.17,81.81A46.88,46.88,0,0,1,108.8,84a52,52,0,0,1-6.67,1.3,33,33,0,0,1-6.81.32,26.1,26.1,0,0,1-6.67-1.36s0,0,0-.06,0,0,0,0c2.26.17,4.46.48,6.7.45A61.87,61.87,0,0,0,102,84.5a51.35,51.35,0,0,0,6.64-1,53,53,0,0,0,6.51-1.81s0,0,0,0a0,0,0,0,1,0,.06Z"/></svg>