<svg id="图层_1" data-name="图层 1" xmlns="http://www.w3.org/2000/svg" viewBox="0 0 186 186"><defs><style>.cls-1{fill:#f5e3ea;}.cls-2{fill:#e2c9d2;}.cls-3{fill:#fff;}.cls-4{fill:#5b3b2f;}</style></defs><title>child_neckline传iconfount</title><path class="cls-1" d="M79.55,26.06s4.58,17.86-18.87,26.81S29.18,67.72,31,87.72s3.69,58,1,72.28l21,0S56,95,55.56,89.09l7.26,70.85,60.09-.12L129,88.2s4.77,55.53,4.8,71.6l21.42-.05a261.09,261.09,0,0,1-1.13-62.4c3.61-33.08-7.1-33.95-27.64-43.73S107.68,39.38,107.66,26Z"/><path class="cls-2" d="M70.62,55.56c3-.31,6-.52,9-.61,1.51,0,3,0,4.53,0a21.21,21.21,0,0,1,2.25.25,4.51,4.51,0,0,1,2.1.78,4.4,4.4,0,0,0-2.12-.66,20.87,20.87,0,0,0-2.24-.12c-1.5,0-3,.09-4.49.21-3,.25-6,.63-8.93,1.1Z"/><path class="cls-2" d="M114.34,56.46c-3-.45-5.94-.82-8.93-1.06-1.49-.12-3-.2-4.49-.19a20.88,20.88,0,0,0-2.24.13,4.4,4.4,0,0,0-2.12.66,4.63,4.63,0,0,1,2.1-.79,21.5,21.5,0,0,1,2.25-.25c1.51-.09,3-.09,4.53-.06,3,.07,6,.28,9,.57Z"/><path class="cls-3" d="M58.48,159c2.25-12.51-2.58-63.25-3.31-70.69,9.1-3.05,15-19.91,17.91-28.14.47-1.34.84-2.39,1.13-3.11a3,3,0,0,0-.42-2.94l-.25-.32C79,58.12,88,59.66,92.88,59.65s13.91-1.59,19.3-6l-.24.32a3,3,0,0,0-.4,2.95c.33.84.77,2.12,1.32,3.73,2.82,8.31,8,23.57,16.39,27.35-.63,7-4.93,57.37-1,70.79Z"/><path class="cls-4" d="M75.41,56.19c5.61,3.27,13.15,4.47,17.47,4.46s11.85-1.24,17.45-4.53a3.76,3.76,0,0,0,.28,1.19c.33.81.78,2.15,1.3,3.69,2.8,8.24,7.88,23.2,16.28,27.61-.36,4.19-1.43,17-2.06,30.67-.89,19.13-.6,32.06.87,38.53l-33.93.07L59.63,158c1.77-14.06-2.49-59.7-3.39-69C65.37,85.09,71.16,68.61,74,60.45c.45-1.27.84-2.37,1.11-3.06a3.88,3.88,0,0,0,.28-1.2m39.84-8.68c-2.16,8.28-16.13,11.13-22.38,11.15S72.64,55.87,70.46,47.6l-1.9,1.33L73,54.68a2,2,0,0,1,.28,2c-2.1,5.26-8.67,28.43-19.19,30.88,0,0,6.21,62.22,3.13,72.43l35.86-.07,36.62-.08c-5-11.24.61-72.43.61-72.43-10-3.63-15.73-25.56-17.85-30.8a2,2,0,0,1,.27-2l4.42-5.76-1.9-1.33Z"/></svg>