<svg id="图层_1" data-name="图层 1" xmlns="http://www.w3.org/2000/svg" viewBox="0 0 186 186"><defs><style>.cls-1{fill:#f5e3ea;}.cls-2{fill:#e2c9d2;}.cls-3{fill:#fff;}.cls-4{fill:#5b3b2f;}</style></defs><title>child_neckline传iconfount</title><path class="cls-1" d="M79.76,26s4.53,17.85-18.9,26.75S29.36,67.51,31.18,87.5s3.57,57.93.89,72.19h21s3.05-64.92,2.62-70.78l7.11,70.78h60L129,88.16s4.66,55.48,4.66,71.53h21.39a260.5,260.5,0,0,1-1-62.34c3.67-33-7-33.92-27.52-43.72S107.83,39.37,107.83,26Z"/><path class="cls-2" d="M70.78,55.45c3-.3,6-.51,9-.59,1.51,0,3,0,4.52,0a21.21,21.21,0,0,1,2.25.25,4.51,4.51,0,0,1,2.1.78,4.51,4.51,0,0,0-2.12-.66,20.87,20.87,0,0,0-2.24-.12c-1.49,0-3,.08-4.48.2-3,.24-6,.62-8.92,1.08Z"/><path class="cls-2" d="M114.45,56.44c-3-.46-5.94-.84-8.92-1.08-1.49-.12-3-.21-4.49-.2a21.15,21.15,0,0,0-2.24.12,4.47,4.47,0,0,0-2.11.66,4.43,4.43,0,0,1,2.1-.78,21,21,0,0,1,2.24-.25c1.51-.09,3-.09,4.53,0,3,.08,6,.29,9,.59Z"/><path class="cls-3" d="M57.19,159a1,1,0,0,1-.75-.34,1,1,0,0,1-.23-.8c4.4-29.76-2.1-61.24-5.1-73.4a2,2,0,0,1,1.06-2.26c6.94-3.38,26.22-16,25.57-29.91l-8.57-2a1.5,1.5,0,0,1-.27-2.83c2.07-.91,5.73-2.87,7-5.79a1,1,0,0,1,1.29-.51,43.92,43.92,0,0,0,15,2.82H93A65.26,65.26,0,0,0,109,41.16a1.12,1.12,0,0,1,.31,0,1,1,0,0,1,.9.56c1.2,2.46,4.54,4.53,5.92,5.31a1.47,1.47,0,0,1,.75,1.43,1.5,1.5,0,0,1-1,1.29l-7.55,2.53C107,68.61,132,82,133.09,82.53a2,2,0,0,1,1,2.24c-3.12,12.46-9.68,44.51-3.3,73a1,1,0,0,1-.2.84,1,1,0,0,1-.78.37Z"/><path class="cls-4" d="M109.35,42.11c1.29,2.65,4.64,4.78,6.33,5.73a.5.5,0,0,1-.09.91l-8.15,2.74c-2.06,16.34,20.83,29.64,25.19,31.93a1,1,0,0,1,.5,1.11c-1.45,5.81-10.4,41.77-3.31,73.47H57.19c4.91-33.14-3.68-68-5.11-73.78a1,1,0,0,1,.53-1.12c4.53-2.21,27.6-15.7,26.07-31.61L69.4,49.35a.5.5,0,0,1-.09-.94c2.15-1,6.09-3.07,7.54-6.3A44.51,44.51,0,0,0,92.23,45H93a66.32,66.32,0,0,0,16.35-2.89m0-2a2.15,2.15,0,0,0-.61.09A64.46,64.46,0,0,1,93,43h-.73a42.85,42.85,0,0,1-14.61-2.74,1.89,1.89,0,0,0-.77-.15A2,2,0,0,0,75,41.29c-1.22,2.71-5,4.6-6.53,5.29A2.49,2.49,0,0,0,69,51.29l7.8,1.8c0,4.22-2,10.4-10.18,17.87A72,72,0,0,1,51.74,81.3a3,3,0,0,0-1.59,3.4c3,12.1,9.45,43.43,5.07,73a2,2,0,0,0,2,2.29h72.63a2,2,0,0,0,2-2.43c-6.33-28.31.2-60.17,3.3-72.55a3,3,0,0,0-1.52-3.37c-1-.55-24.87-13.26-24.23-28.69l6.9-2.32a2.49,2.49,0,0,0,.44-4.53c-2.71-1.53-4.77-3.35-5.52-4.87a2,2,0,0,0-1.79-1.12Z"/><path class="cls-4" d="M83.85,52.54l4.6.58a44.54,44.54,0,0,0,4.56.39,32.05,32.05,0,0,0,4.54-.37c1.52-.21,3.06-.41,4.6-.6a32.54,32.54,0,0,1-4.47,1.37A20.22,20.22,0,0,1,93,54.5a25.09,25.09,0,0,1-4.67-.61A29.12,29.12,0,0,1,83.85,52.54Z"/><path class="cls-4" d="M82.6,57.9c-.46,2.73-1.1,5.43-1.8,8.12s-1.52,5.33-2.42,8a69.72,69.72,0,0,1-3.14,7.72,30.22,30.22,0,0,1-4.4,7.07q.54-.9,1.08-1.77l.94-1.84c.59-1.25,1.18-2.49,1.68-3.77q1.56-3.83,2.9-7.74c.92-2.6,1.77-5.22,2.63-7.85Z"/><path class="cls-4" d="M105.6,59.35l2.53,7.91c.86,2.62,1.71,5.25,2.63,7.85s1.86,5.18,2.9,7.73c.5,1.29,1.09,2.53,1.68,3.77l.94,1.84q.54.87,1.08,1.77a30.16,30.16,0,0,1-4.4-7.06,69.88,69.88,0,0,1-3.14-7.73c-.9-2.62-1.73-5.27-2.42-8S106.06,62.09,105.6,59.35Z"/><path class="cls-4" d="M99.69,58.86c.26,1.89.57,3.76.87,5.62s.67,3.72,1.08,5.56.88,3.66,1.38,5.48,1.14,3.59,1.8,5.39a28.65,28.65,0,0,1-2.54-5.15,40.43,40.43,0,0,1-1.61-5.51A42.4,42.4,0,0,1,99.69,58.86Z"/><path class="cls-4" d="M87.53,61.56a30.26,30.26,0,0,1,0,8.5A25.29,25.29,0,0,1,85,78.2c.57-2.79,1.08-5.51,1.45-8.28S87.17,64.38,87.53,61.56Z"/><path class="cls-4" d="M93.65,60.34c.41,2.15.74,4.24,1.15,6.33.19,1,.42,2.08.65,3.12l.74,3.14a16.48,16.48,0,0,1-2.37-6.07,22.31,22.31,0,0,1-.37-3.25A14.94,14.94,0,0,1,93.65,60.34Z"/></svg>