<svg id="图层_1" data-name="图层 1" xmlns="http://www.w3.org/2000/svg" viewBox="0 0 186 186"><defs><style>.cls-1{fill:#f5e3ea;}.cls-2{fill:#e2c9d2;}.cls-3{fill:#e6ced8;}.cls-4{fill:#fff;}.cls-5{fill:#5b3b2f;}</style></defs><title>child_neckline传iconfount</title><path class="cls-1" d="M79.82,26S84.34,43.76,61,52.61,29.68,67.3,31.5,87.18,35,144.82,32.38,159H53.26s3-64.59,2.6-70.42L62.94,159h59.71l6.19-71.16s4.63,55.2,4.63,71.16h21.28a259.39,259.39,0,0,1-1-62c3.65-32.86-7-33.75-27.38-43.5S107.75,39.3,107.75,26Z"/><path class="cls-2" d="M70.89,55.3c3-.3,6-.51,9-.59,1.5,0,3,0,4.5,0A21.13,21.13,0,0,1,86.6,55a4.43,4.43,0,0,1,2.09.78,4.47,4.47,0,0,0-2.11-.66c-.73-.08-1.48-.11-2.22-.12-1.49,0-3,.08-4.47.2-3,.24-5.93.61-8.87,1.07Z"/><path class="cls-2" d="M114.34,56.28c-2.94-.46-5.9-.83-8.87-1.07-1.49-.12-3-.2-4.47-.2-.74,0-1.49,0-2.23.12a4.47,4.47,0,0,0-2.1.66A4.43,4.43,0,0,1,98.76,55a21.13,21.13,0,0,1,2.23-.25c1.5-.08,3-.08,4.5,0,3,.08,6,.29,9,.59Z"/><path class="cls-3" d="M138,57.77c-4.53-3.26-14.8-7.81-17.85-9a1,1,0,0,0-1.16.33S112.68,61.4,92.65,61.84c-19.15.42-26.38-10.57-26.38-10.57a1,1,0,0,0-1.08-.21c-2.51,1-12.9,4.82-17.16,8a1,1,0,0,0-.37,1c.64,3.54,3.88,15.79,6.45,30.72C56.94,107.11,59.92,119.14,60,128c0,7.46,0,21.46,0,21.46h68.38s-.38-5.56-.41-14.57c0-7.45,2.53-27.47,4.6-45.15a245.34,245.34,0,0,1,5.82-30.9A1,1,0,0,0,138,57.77Z"/><path class="cls-4" d="M128.28,139.18l3.82-49.49a3.07,3.07,0,0,0-.68-2.17c-1.71-2.1-6.17-6.74-12.36-6.8-7.59-.08-10.81,2.49-18.56,4.91a23.85,23.85,0,0,1-6.78,1.42,23.85,23.85,0,0,1-6.78-1.42c-7.75-2.42-11-5-18.56-4.91-6.17.06-10.62,4.67-12.34,6.78a3.15,3.15,0,0,0-.7,2.22l3.82,49.46a143.58,143.58,0,0,1-.83,19.69.12.12,0,0,0,.12.14h70.67A142.76,142.76,0,0,1,128.28,139.18Z"/><path class="cls-5" d="M129.12,160H58.45a1.14,1.14,0,0,1-.84-.38,1.27,1.27,0,0,1-.26-.88,145.08,145.08,0,0,0,.82-19.53L54.35,89.8a4.12,4.12,0,0,1,.92-2.92c1.73-2.13,6.47-7.09,13.1-7.16,5.42,0,8.72,1.21,12.85,2.81,1.72.67,3.68,1.42,6,2.15a23.44,23.44,0,0,0,6.49,1.38,23.44,23.44,0,0,0,6.49-1.38c2.33-.73,4.28-1.48,6-2.15,4.12-1.6,7.34-2.84,12.85-2.81,6.64.07,11.39,5,13.12,7.18a4,4,0,0,1,.9,2.87l-3.82,49.47a142,142,0,0,0,.84,19.63,1,1,0,0,1-.24.79A1,1,0,0,1,129.12,160Zm-69.68-2H128a152.12,152.12,0,0,1-.71-18.86v0l3.82-49.49a2.06,2.06,0,0,0-.46-1.47c-1.56-1.92-5.8-6.38-11.6-6.44-5.1,0-8,1.09-12.11,2.67-1.76.68-3.75,1.45-6.14,2.2a25.16,25.16,0,0,1-7.08,1.47,25.16,25.16,0,0,1-7.08-1.47c-2.39-.75-4.38-1.52-6.14-2.2-4.08-1.58-7.07-2.71-12.11-2.67-5.79.06-10,4.51-11.58,6.42a2.15,2.15,0,0,0-.48,1.52l3.82,49.46A148.3,148.3,0,0,1,59.44,158Z"/></svg>