<svg id="图层_1" data-name="图层 1" xmlns="http://www.w3.org/2000/svg" viewBox="0 0 186 186"><defs><style>.cls-1{fill:#f5e3ea;}.cls-2{fill:#e2c9d2;}.cls-3{fill:#fff;}.cls-4{fill:#5b3b2f;}</style></defs><title>child_neckline传iconfount</title><path class="cls-1" d="M79.14,26s4.51,17.76-18.8,26.61S29,67.3,30.81,87.18s3.55,57.64.89,71.83H52.57s3-64.59,2.61-70.42L62.25,159H122l6.19-71.16s4.63,55.2,4.63,71.16h21.28a259.69,259.69,0,0,1-1-62c3.66-32.86-7-33.75-27.38-43.5S107.07,39.3,107.07,26Z"/><path class="cls-2" d="M70.21,55.3c3-.3,6-.51,9-.59,1.5,0,3,0,4.5,0a21,21,0,0,1,2.24.25,4.47,4.47,0,0,1,2.09.78,4.47,4.47,0,0,0-2.11-.66c-.74-.08-1.48-.11-2.23-.12-1.49,0-3,.08-4.46.2-3,.24-5.94.61-8.87,1.07Z"/><path class="cls-2" d="M113.66,56.28c-2.94-.46-5.91-.83-8.88-1.07-1.48-.12-3-.2-4.46-.2-.75,0-1.49,0-2.23.12a4.4,4.4,0,0,0-2.1.66A4.44,4.44,0,0,1,98.07,55a21,21,0,0,1,2.24-.25c1.5-.08,3-.08,4.5,0,3,.08,6,.29,9,.59Z"/><path class="cls-3" d="M156.21,79.66c-8.77-4.13-21.37-6.57-29.73-6.27-14.27.51-25.64,7.89-31,11.49a4.38,4.38,0,0,1-4.86,0c-5.41-3.6-16.78-11-31-11.49-8.36-.3-21,2.14-29.73,6.27,0,0-1.83,6,1.22,17.75,0,0,12.25-5.73,23.3-.72A2.93,2.93,0,0,1,56,99.28c.22,7.32,1,34.88,1,45.08,0,5.95-.76,14.65-.76,14.65h73.38s-.78-8.7-.76-14.65c0-10.2.82-37.76,1-45.08a2.93,2.93,0,0,1,1.72-2.59c11-5,23.3.72,23.3.72C158,85.7,156.21,79.66,156.21,79.66Z"/><path class="cls-4" d="M129.69,160H56.31a1,1,0,0,1-.74-.32,1,1,0,0,1-.25-.76c0-.09.77-8.72.76-14.56,0-10.07-.8-37-1-45.05a2,2,0,0,0-1.14-1.72c-10.48-4.75-22.35.67-22.47.72a1,1,0,0,1-1.38-.65c-3.09-11.85-1.29-18-1.21-18.29a1,1,0,0,1,.53-.61c8.52-4,21.2-6.7,30.19-6.36,14.84.53,26.56,8.32,31.56,11.65a3.39,3.39,0,0,0,3.76,0c5-3.33,16.72-11.12,31.56-11.65,9-.34,21.66,2.35,30.19,6.36a1,1,0,0,1,.53.61c.08.26,1.88,6.44-1.21,18.29a1,1,0,0,1-1.38.65c-.12,0-12-5.47-22.47-.72A2,2,0,0,0,131,99.32c-.24,8-1,35-1,45,0,5.84.76,14.47.76,14.56a1,1,0,0,1-.25.76A1,1,0,0,1,129.69,160Zm-72.3-2h71.22c-.2-2.52-.69-9-.67-13.66,0-10.08.8-37.07,1-45.09a4,4,0,0,1,2.3-3.48c9.52-4.31,19.7-1,23,.27,2.15-8.9,1.35-14.23,1.05-15.69-8.27-3.78-20.3-6.27-28.84-6-14.29.52-25.68,8.09-30.54,11.33a5.38,5.38,0,0,1-6,0C85.16,82.47,73.77,74.9,59.48,74.38c-8.55-.3-20.57,2.2-28.84,6-.3,1.46-1.1,6.79,1.05,15.69,3.33-1.3,13.51-4.58,23-.27A4,4,0,0,1,57,99.26c.24,8,1,35,1,45.09C58.07,149.05,57.59,155.49,57.39,158Z"/></svg>