<svg id="图层_1" data-name="图层 1" xmlns="http://www.w3.org/2000/svg" viewBox="0 0 186 186"><defs><style>.cls-1{fill:#f5e3ea;}.cls-2{fill:#e2c9d2;}.cls-3{fill:#fff;}.cls-4{fill:#5b3b2f;}</style></defs><title>child_neckline传iconfount</title><path class="cls-1" d="M79.87,26s4.5,17.7-18.74,26.52S29.89,67.16,31.7,87s3.54,57.45.88,71.59H53.39S56.4,94.2,56,88.38L63,158.57h59.51l6.17-70.93s4.61,55,4.61,70.93h21.21a258.64,258.64,0,0,1-1-61.82c3.64-32.75-7-33.63-27.3-43.35S107.7,39.26,107.7,26Z"/><path class="cls-2" d="M71,55.2c3-.3,6-.51,9-.58,1.49,0,3,0,4.48.05a20.54,20.54,0,0,1,2.23.24,4.4,4.4,0,0,1,2.08.78A4.39,4.39,0,0,0,86.61,55a18.35,18.35,0,0,0-2.22-.12c-1.49,0-3,.07-4.45.19-3,.24-5.92.62-8.85,1.07Z"/><path class="cls-2" d="M114.27,56.18c-2.93-.45-5.89-.83-8.85-1.07-1.48-.12-3-.2-4.44-.19a18.13,18.13,0,0,0-2.22.12,4.39,4.39,0,0,0-2.1.65,4.4,4.4,0,0,1,2.08-.78,20.82,20.82,0,0,1,2.23-.24c1.49-.09,3-.09,4.48-.05,3,.07,6,.28,9,.58Z"/><path class="cls-3" d="M58.5,87.63a2.74,2.74,0,0,0-3.07,3.1c2.41,17.21,3.41,46.17,3.46,54.37a96.64,96.64,0,0,1-1,13.91h72.21s-.4-6.48-.84-12.3c-.57-7.43-1.75-34.52.33-52.2,1.75-15,6.56-30.4,7.55-35.89a1,1,0,0,0-.38-.95,62.29,62.29,0,0,0-8.39-5.25,1,1,0,0,0-1.34.43c-4.46,8-8.26,12.33-30.45,28.24C84.28,89.92,66.17,88.67,58.5,87.63Z"/><path class="cls-4" d="M130.12,160H57.91a1,1,0,0,1-.76-.35,1,1,0,0,1-.22-.8,97,97,0,0,0,1-13.75c0-9.07-1.11-37.56-3.45-54.23a3.71,3.71,0,0,1,1.06-3.16,3.67,3.67,0,0,1,3.13-1.06h0c7.22,1,25.29,2.31,37.39-6.37,22.37-16,25.87-20.17,30.17-27.91a2,2,0,0,1,2.64-.84,63.37,63.37,0,0,1,8.52,5.33,1.91,1.91,0,0,1,.78,1.93c-.31,1.73-1,4.35-1.81,7.67-1.91,7.54-4.52,17.88-5.73,28.17-2.13,18.19-.77,46.08-.32,52,.43,5.76.83,12.24.84,12.31a1,1,0,0,1-.27.74A1,1,0,0,1,130.12,160Zm-71.07-2h70c-.13-2.07-.44-6.85-.77-11.22-.46-6-1.82-34,.33-52.39,1.22-10.42,4-21.26,5.78-28.43.83-3.28,1.48-5.87,1.78-7.53A64.38,64.38,0,0,0,128,53.3c-4.49,8.06-8.07,12.32-30.77,28.6C84.49,91,65.81,89.62,58.37,88.62a1.71,1.71,0,0,0-1.47.49,1.72,1.72,0,0,0-.49,1.48c2.35,16.77,3.42,45.39,3.47,54.5A99.84,99.84,0,0,1,59.05,158Z"/></svg>