<svg id="图层_1" data-name="图层 1" xmlns="http://www.w3.org/2000/svg" viewBox="0 0 186 186"><defs><style>.cls-1{fill:#f5e3ea;}.cls-2{fill:#e2c9d2;}.cls-3{fill:#fff;}.cls-4{fill:#5b3b2f;}</style></defs><title>child_neckline传iconfount</title><path class="cls-1" d="M79.77,26S84.3,43.83,60.89,52.72,29.42,67.47,31.24,87.44s3.56,57.87.89,72.11h21s3-64.85,2.62-70.71l7.1,70.71h60L129,88.1s4.65,55.43,4.65,71.45H155a260.83,260.83,0,0,1-1-62.27c3.67-33-7-33.88-27.5-43.68s-18.7-14.24-18.7-27.6Z"/><path class="cls-2" d="M70.8,55.42c3-.3,6-.51,9-.59,1.51,0,3,0,4.52.05a21.5,21.5,0,0,1,2.25.25,4.43,4.43,0,0,1,2.09.78,4.47,4.47,0,0,0-2.11-.66c-.74-.08-1.49-.11-2.24-.12-1.49,0-3,.08-4.48.2-3,.24-6,.62-8.91,1.08Z"/><path class="cls-2" d="M114.43,56.41c-3-.46-5.93-.84-8.91-1.08-1.49-.12-3-.2-4.48-.2-.75,0-1.5,0-2.24.12a4.44,4.44,0,0,0-2.11.66,4.43,4.43,0,0,1,2.09-.78,21.21,21.21,0,0,1,2.25-.25c1.5-.09,3-.09,4.51-.05,3,.08,6,.29,9,.59Z"/><path class="cls-3" d="M58.79,159a99.17,99.17,0,0,0,.84-13c0-1.47,0-3.21,0-5.16.08-10,.2-25-2.19-38.87C55.67,91.55,52.27,76.79,50,67c-1-4.29-1.7-7.39-1.9-8.47,4.13-3.06,13.47-7.06,16.26-8.23,1.08,1.5,9.83,12.78,27.9,12.78h1c19.45-.43,25.83-11.26,26.67-12.87l1.15.46c4,1.57,13.25,5.25,17.24,8.12l-.14.58c-4.62,18.2-7.76,33.33-8.84,42.61-2,17.3-1.39,37.45-.76,45.69.34,4.4.65,9.22.78,11.31Z"/><path class="cls-4" d="M64.79,51.25h0m55.54.23.34.14c3.75,1.48,12.32,4.88,16.48,7.62-4.67,18.47-7.73,33.21-8.84,42.65-2,17.37-1.39,37.61-.76,45.88.29,3.76.56,7.83.71,10.23H59.93a99.33,99.33,0,0,0,.7-12c0-1.47,0-3.18,0-5.15.08-10,.2-25.11-2.2-39.05-1.8-10.43-5.21-25.2-7.46-35-.8-3.5-1.47-6.37-1.76-7.8,3.28-2.27,9.59-5.24,14.83-7.45,2.33,2.91,11.32,12.55,28.22,12.55h1c18-.39,25.15-9.52,27.08-12.62m-.45-2.25a1,1,0,0,0-.8.4s-5.69,12-25.87,12.47h-.93c-18.64,0-27.18-12.49-27.18-12.49A1,1,0,0,0,64,49.4c-2.54,1.06-12.22,5.19-16.51,8.38a1,1,0,0,0-.37,1c.64,3.56,6.74,28.34,9.33,43.38,2.85,16.51,2.11,35,2.16,43.87a97.18,97.18,0,0,1-1,14h72.75s-.4-6.52-.84-12.38c-.57-7.5-1.34-27.69.75-45.5,1.76-15,8.1-39.66,9-43.07a1,1,0,0,0-.38-1c-4.56-3.27-15.55-7.46-18.63-8.7a.94.94,0,0,0-.37-.07Z"/></svg>