<svg id="图层_1" data-name="图层 1" xmlns="http://www.w3.org/2000/svg" viewBox="0 0 186 186"><defs><style>.cls-1{fill:#f5e3ea;}.cls-2{fill:#e2c9d2;}.cls-3{fill:#fff;}.cls-4{fill:#5b3b2f;}</style></defs><title>child_neckline传iconfount</title><path class="cls-1" d="M79.8,26s4.5,17.7-18.74,26.52C49.83,56.79,29.87,67.63,31.63,87c1.81,19.82,3.54,57.45.89,71.59h20.8s3-64.37,2.6-70.19l7,70.19h59.51l6.17-70.93s4.62,55,4.62,70.93h21.21a258.94,258.94,0,0,1-1-61.82c3.64-32.75-7-33.63-27.29-43.35S107.64,39.26,107.64,26Z"/><path class="cls-2" d="M70.89,55.2c3-.3,6-.51,9-.58,1.5,0,3,0,4.49.05a21.1,21.1,0,0,1,2.23.24,4.44,4.44,0,0,1,2.08.78,4.46,4.46,0,0,0-2.1-.65,18.35,18.35,0,0,0-2.22-.12c-1.49,0-3,.07-4.45.19-3,.24-5.92.62-8.84,1.07Z"/><path class="cls-2" d="M114.2,56.18c-2.93-.45-5.88-.83-8.84-1.07-1.48-.12-3-.2-4.45-.19a18.24,18.24,0,0,0-2.22.12,4.39,4.39,0,0,0-2.1.65,4.4,4.4,0,0,1,2.08-.78,20.82,20.82,0,0,1,2.23-.24c1.49-.09,3-.09,4.48-.05,3,.07,6,.28,9,.58Z"/><path class="cls-3" d="M135.5,57.13a58.3,58.3,0,0,0-9-4.68,1,1,0,0,0-1.08.22l-6.43,23.58H68.47L61.23,51.91a1,1,0,0,0-1.08-.22,57.69,57.69,0,0,0-9,4.67.93.93,0,0,0-.37,1c.34,1.89,4,16.54,5,19.7-.34,1.44-1.55,15.29-1.65,21.12-.29,16.64,3.67,38.14,3.72,47a96.64,96.64,0,0,1-1,13.91h73.72a96.64,96.64,0,0,1-1-13.91c0-8.82,4-30.32,3.71-47-.1-5.83-1.3-19.68-1.65-21.12,1-3.16,3.87-17,4.22-18.94A.94.94,0,0,0,135.5,57.13Z"/><path class="cls-4" d="M130.57,160H56.85a1,1,0,0,1-.76-.35,1,1,0,0,1-.22-.8,97,97,0,0,0,1-13.75c0-3.46-.65-9-1.39-15.36-1.11-9.6-2.5-21.54-2.32-31.61.09-5.6,1.19-18.51,1.62-21-1.13-3.68-4.63-17.67-5-19.58a1.93,1.93,0,0,1,.81-2,59.48,59.48,0,0,1,9.2-4.76,2,2,0,0,1,2.17.44,1,1,0,0,1,.24.41l7,23.64h49l6.23-22.85a1,1,0,0,1,.26-.44,2,2,0,0,1,2.16-.43A58.19,58.19,0,0,1,136,56.3h0a1.91,1.91,0,0,1,.8,2c-.36,2-3.08,15.2-4.16,18.82.43,2.53,1.52,15.44,1.62,21,.17,10.07-1.21,22-2.32,31.61-.74,6.39-1.38,11.9-1.4,15.36a96.07,96.07,0,0,0,1,13.75,1,1,0,0,1-.23.8A1,1,0,0,1,130.57,160ZM58,158h71.44a98,98,0,0,1-.83-12.92c0-3.56.66-9.13,1.41-15.58,1.1-9.54,2.47-21.41,2.3-31.35-.1-5.78-1.31-19.61-1.62-20.91a1,1,0,0,1,0-.53c1-3.07,3.81-16.8,4.18-18.81a59,59,0,0,0-8.69-4.49l-6.3,23.09a1,1,0,0,1-1,.73H68.47a1,1,0,0,1-1-.71l-7.1-23.88a57.89,57.89,0,0,0-8.77,4.54C52,58.94,55.7,73.57,56.7,76.72a.87.87,0,0,1,0,.53c-.3,1.3-1.52,15.14-1.62,20.91-.17,9.94,1.2,21.81,2.31,31.35.74,6.45,1.39,12,1.41,15.58A99.84,99.84,0,0,1,58,158Z"/></svg>