<svg id="图层_1" data-name="图层 1" xmlns="http://www.w3.org/2000/svg" viewBox="0 0 186 186"><defs><style>.cls-1{fill:#f5e3ea;}.cls-2{fill:#e2c9d2;}.cls-3{fill:#fff;}.cls-4{fill:#5b3b2f;}</style></defs><title>child_neckline传iconfount</title><path class="cls-1" d="M79.77,26S84.3,43.83,60.89,52.72,29.42,67.47,31.24,87.44s3.56,57.87.89,72.12h21s3-64.85,2.62-70.72l7.1,70.72h60L129,88.1s4.65,55.43,4.65,71.46H155a260.61,260.61,0,0,1-1-62.28c3.67-33-7-33.88-27.5-43.68s-18.7-14.24-18.7-27.6Z"/><path class="cls-2" d="M70.8,55.42c3-.3,6-.51,9-.59,1.51,0,3,0,4.52.05a21.5,21.5,0,0,1,2.25.25,4.43,4.43,0,0,1,2.09.78,4.47,4.47,0,0,0-2.11-.66c-.74-.08-1.49-.11-2.24-.12-1.49,0-3,.08-4.48.2-3,.24-6,.62-8.91,1.08Z"/><path class="cls-2" d="M114.43,56.41c-3-.46-5.93-.84-8.91-1.08-1.49-.12-3-.2-4.48-.2-.75,0-1.5,0-2.24.12a4.44,4.44,0,0,0-2.11.66,4.43,4.43,0,0,1,2.09-.78,21.21,21.21,0,0,1,2.25-.25c1.5-.09,3-.08,4.51-.05,3,.08,6,.29,9,.59Z"/><path class="cls-3" d="M59.66,83.64a3.25,3.25,0,0,0-1.9,1.41,34.42,34.42,0,0,0-3,7.26l3.41,46.86A142,142,0,0,1,57.29,159h73c-1.19-8.72-1.8-14.39-2-19.4C127.84,128,130.35,93,130.35,93a1,1,0,0,0-.08-.46c-1.69-3.59-1.58-4.79-3-6.57a6.24,6.24,0,0,0-2.58-2.18,108.85,108.85,0,0,0-32-4.53C76.67,79.26,63.59,82.8,59.66,83.64Z"/><path class="cls-4" d="M131.25,160h-73a1,1,0,0,1-1-1.13,143.18,143.18,0,0,0,.84-19.67L54.38,93.37l.23-2a33.37,33.37,0,0,1,2.87-6.07L58.23,84a2.53,2.53,0,0,1,2.21-1.29h0l1.76-.4a138.11,138.11,0,0,1,31.52-4,106.25,106.25,0,0,1,31.18,4.24l.16,0a10.41,10.41,0,0,1,3.77,2.76l.06.08c1.43,1.81,1.38,2.57,3.1,6.25a2,2,0,0,1,.18,1c0,.36-2.34,35.5-1.91,46.95.18,4.82.74,10.23,2,19.3a1,1,0,0,1-1,1.13Zm-71.83-2h70.69c-1.14-8.47-1.66-13.68-1.83-18.37-.38-10,1-36.95,1.7-45a8.06,8.06,0,0,0-.91-4.49,21.42,21.42,0,0,0-2.5-3.75l-.08-.1c-.28-.37-1.15-1.62-2-1.88l-.17,0a104.12,104.12,0,0,0-30.6-4.15A136.61,136.61,0,0,0,62.65,84.2l-1.79.41h0a2.34,2.34,0,0,0-1.24.92l-.42.74a31.62,31.62,0,0,0-2.75,5.86l-.1.88,3.77,46.08a149.78,149.78,0,0,1-.7,18.92Z"/></svg>