<svg id="图层_1" data-name="图层 1" xmlns="http://www.w3.org/2000/svg" viewBox="0 0 186 186"><defs><style>.cls-1{fill:#f5e3ea;}.cls-2{fill:#e2c9d2;}.cls-3{fill:#fff;}.cls-4{fill:#5b3b2f;}</style></defs><title>child_neckline传iconfount</title><path class="cls-1" d="M79.82,26S84.34,43.76,61,52.61,29.68,67.3,31.5,87.18,35,144.82,32.38,159H53.26s3-64.59,2.6-70.42L62.94,159h59.71l6.19-71.16s4.63,55.2,4.63,71.16h21.28a259.39,259.39,0,0,1-1-62c3.65-32.86-7-33.75-27.39-43.5S107.75,39.3,107.75,26Z"/><path class="cls-2" d="M70.89,55.3c3-.3,6-.51,9-.59,1.5,0,3,0,4.5,0A21.13,21.13,0,0,1,86.6,55a4.43,4.43,0,0,1,2.09.78,4.47,4.47,0,0,0-2.11-.66c-.73-.08-1.48-.11-2.22-.12-1.49,0-3,.08-4.47.2-3,.24-5.93.61-8.87,1.07Z"/><path class="cls-2" d="M114.34,56.28c-2.94-.46-5.9-.83-8.87-1.07-1.49-.12-3-.2-4.47-.2-.74,0-1.49,0-2.23.12a4.47,4.47,0,0,0-2.1.66A4.43,4.43,0,0,1,98.76,55a21.13,21.13,0,0,1,2.23-.25c1.5-.08,3-.08,4.5,0,3,.08,6,.29,9,.59Z"/><path class="cls-3" d="M128.28,139.18l3.82-49.52a3,3,0,0,0-.66-2.11c-1.69-2.09-6.17-6.77-12.38-6.83-7.59-.08-10.81,2.49-18.56,4.91a23.85,23.85,0,0,1-6.78,1.42,23.85,23.85,0,0,1-6.78-1.42c-7.75-2.42-11-5-18.56-4.91-6.22.06-10.69,4.74-12.38,6.83a3,3,0,0,0-.66,2.11l3.82,49.52A142.76,142.76,0,0,1,58.32,159h70.8A142.76,142.76,0,0,1,128.28,139.18Z"/><path class="cls-4" d="M129.12,160H58.32a1,1,0,0,1-1-1.13,143,143,0,0,0,.84-19.66L54.35,89.74a3.92,3.92,0,0,1,.88-2.81c1.73-2.15,6.48-7.14,13.14-7.21,5.48-.06,8.72,1.21,12.85,2.81,1.73.67,3.68,1.42,6,2.15a23.44,23.44,0,0,0,6.49,1.38,23.44,23.44,0,0,0,6.49-1.38c2.33-.73,4.28-1.48,6-2.15,4.12-1.6,7.4-2.85,12.85-2.81,6.66.07,11.41,5.06,13.14,7.21a3.92,3.92,0,0,1,.88,2.81l-3.82,49.5a142,142,0,0,0,.84,19.63,1,1,0,0,1-.24.79A1,1,0,0,1,129.12,160Zm-69.68-2H128a152.12,152.12,0,0,1-.71-18.86v0l3.82-49.53a2,2,0,0,0-.44-1.41c-1.56-1.92-5.81-6.4-11.62-6.46h-.33c-4.89,0-7.79,1.12-11.78,2.67-1.76.68-3.75,1.45-6.14,2.2A25.12,25.12,0,0,1,93.72,88a25.12,25.12,0,0,1-7.08-1.46c-2.39-.75-4.38-1.52-6.14-2.2-4-1.55-6.9-2.67-11.78-2.67h-.33c-5.82.06-10.06,4.54-11.62,6.46a2,2,0,0,0-.44,1.41l3.82,49.53A148.3,148.3,0,0,1,59.44,158Z"/><path class="cls-4" d="M67.72,81.29a1,1,0,0,1-1-.72L59,54.06a1,1,0,0,1,1.91-.55L68.67,80A1,1,0,0,1,68,81.25,1.45,1.45,0,0,1,67.72,81.29Z"/><path class="cls-4" d="M121.46,81.29a1.26,1.26,0,0,1-.27,0,1,1,0,0,1-.68-1.23L128,54.59a1,1,0,1,1,1.9.56l-7.43,25.42A1,1,0,0,1,121.46,81.29Z"/></svg>