<svg id="图层_1" data-name="图层 1" xmlns="http://www.w3.org/2000/svg" viewBox="0 0 186 186"><defs><style>.cls-1{fill:#f5e3ea;}.cls-2{fill:#e2c9d2;}.cls-3{fill:#fff;}.cls-4{fill:#5b3b2f;}</style></defs><title>child_neckline传iconfount</title><path class="cls-1" d="M79.72,26s4.55,17.89-18.94,26.81S29.21,67.61,31,87.64s3.57,58.07.89,72.36H53s3-65.07,2.62-70.95l7.13,71h60.16l6.24-71.69s4.66,55.61,4.66,71.69h21.44a261.65,261.65,0,0,1-1-62.48c3.68-33.11-7-34-27.59-43.83S107.86,39.4,107.86,26Z"/><path class="cls-2" d="M70.72,55.52c3-.3,6-.51,9-.59,1.51,0,3,0,4.53,0a21.39,21.39,0,0,1,2.26.25,4.51,4.51,0,0,1,2.1.78,4.51,4.51,0,0,0-2.12-.66,18.85,18.85,0,0,0-2.25-.12c-1.5,0-3,.08-4.49.2-3,.24-6,.62-8.94,1.08Z"/><path class="cls-2" d="M114.5,56.51c-3-.46-6-.84-8.94-1.08-1.5-.12-3-.21-4.5-.2a18.57,18.57,0,0,0-2.24.12A4.48,4.48,0,0,0,96.7,56a4.47,4.47,0,0,1,2.1-.78,21.5,21.5,0,0,1,2.25-.25c1.51-.09,3-.09,4.54,0,3,.08,6,.29,9,.59Z"/><path class="cls-3" d="M58.69,159a101,101,0,0,0,.84-13c0-2,.06-4.48.14-7.3.26-9.4.62-22.28-1.58-35.08-1.79-10.36-5.51-25.84-8-36.08-1.06-4.4-1.9-7.87-2.09-9,4-3,13.13-6.91,15.83-8.05a.86.86,0,0,1,.27,0,.72.72,0,0,1,.51.21L94,80.13a1,1,0,0,0,.71.29h0a1,1,0,0,0,.72-.37l24.31-29.79,1.18.43c4,1.57,13.25,5.25,17.25,8.12-1.38,5.46-7.31,30.62-9,44.85a255.22,255.22,0,0,0-.77,44c.33,4.4.64,9.22.78,11.31Z"/><path class="cls-4" d="M120.58,50.83h0m-.49.6.47.19c3.76,1.48,12.33,4.88,16.49,7.63-1.64,6.64-7.21,30.54-8.83,44.29a257.54,257.54,0,0,0-.77,44.23c.29,3.76.56,7.83.71,10.23H59.83a101.45,101.45,0,0,0,.7-12c0-2,.06-4.46.14-7.27.26-9.45.63-22.38-1.59-35.28-1.8-10.39-5.53-25.89-8-36.14-.9-3.74-1.64-6.81-1.95-8.29,4.07-2.8,12.18-6.33,14.93-7.49l29.2,29.32a2,2,0,0,0,1.42.59h.1a2,2,0,0,0,1.45-.73l23.86-29.26m-55.85,0h0m55.54-2.21a1,1,0,0,0-.8.4L94.68,79.42,65.34,50a1.72,1.72,0,0,0-1.88-.38c-3.07,1.3-12,5.16-16.06,8.19a1,1,0,0,0-.37,1c.65,3.56,7.48,30,10.07,45C60,120.29,58.48,137.1,58.53,146a97.18,97.18,0,0,1-1,14h72.75s-.4-6.52-.85-12.38a252.07,252.07,0,0,1,.77-43.85c1.76-15,8.09-41.31,8.95-44.72a1,1,0,0,0-.39-1c-4.56-3.27-15.55-7.46-18.62-8.7a1,1,0,0,0-.37-.07Z"/></svg>