<svg id="图层_1" data-name="图层 1" xmlns="http://www.w3.org/2000/svg" viewBox="0 0 186 186"><defs><style>.cls-1{fill:#fae7ee;}.cls-2{fill:#fff;}.cls-3{fill:#5b3b2f;}.cls-4{fill:#9b9692;opacity:0;}</style></defs><path class="cls-1" d="M131.62,34.77A18.59,18.59,0,0,0,129.71,32c-5-5.76-10.65-10.85-15.53-16.7a10.67,10.67,0,0,0-1.87-1.61,6.92,6.92,0,0,0-5.76-1c-1.94.36-5.49.53-6.73-1.54a4.41,4.41,0,0,1-.52-1.93A14.09,14.09,0,0,1,99.41,6l-8.09.21a11,11,0,0,1,.12,2.93c-.19,1.9-.86,2.93-2.64,3.4-2.16.58-4.29,1.32-6.46,1.84-2.92.7-4.64,2.3-5.12,5.11a101.69,101.69,0,0,0-1,12.32c-.24,5.3-.44,10.6-.65,15.9a4,4,0,0,1-.76,2.49c-3.21,4.06-4.41,9-5.67,13.8-.68,2.63-1.25,5.28-1.94,7.9-.44,1.65-1,3.25-1.49,4.86-.46,1.43-1.26,2.69-1.73,4.1a9.58,9.58,0,0,0-.56,3,4.83,4.83,0,0,0,.83,2.83,8.46,8.46,0,0,0,1.24,1.49,4.06,4.06,0,0,0,2.35,1c.37.05,1.31.18,1.35-.4h0c0-.26-.27-.44-.5-.45a2.89,2.89,0,0,1-1.3-.45,1.55,1.55,0,0,1-.22-.12l.22,0c.39-.07,2.64-.22,2.5-.78a.49.49,0,0,0-.06-.13c-.36-.46-2.06.33-3-.14a6.28,6.28,0,0,1-.82-.44l0,0a1,1,0,0,1-.21-.19h0l.17.16-.14-.15a3.61,3.61,0,0,0,1.33.24,2,2,0,0,0,.69-.07H68c.3-.07,1.27-.29,1.28-.6h0c0-.33-1-.09-1.17-.07A3.29,3.29,0,0,1,67,85.52a4.75,4.75,0,0,1-.9-.43,2.46,2.46,0,0,1-.41-.28h0l0,0a2,2,0,0,1,0-.25,1.94,1.94,0,0,1,0-.24c0-.15,0-.31.08-.46a1.77,1.77,0,0,1,0-.2c0-.21.11-.43.17-.64l0-.08c.07-.23.15-.45.23-.67,0-.05,0-.15.1-.27l0-.06,0,0c0-.07,0-.13.07-.19a5,5,0,0,1,.43-.83c.19-.23.33-.32.44-.33a.28.28,0,0,1,.18.1.73.73,0,0,1,.05.09,1.86,1.86,0,0,1,.08.64c0,.27-.11,1.11-.13,1.95,0,.07,0,.14,0,.21a.65.65,0,0,0,0,.14c0,1,.19,1.79.8,1.65.3-.07.35-.31.34-.56s0-.3,0-.43a2.37,2.37,0,0,1,.21-.9c.24-.56.25-1,.53-1.54a6.9,6.9,0,0,0,.74-3.27h0c0-.9-.29-1.69-.33-2.49a2.93,2.93,0,0,1,.3-1.49h0c1.86-3.75,3.83-8.35,5.85-12A37.55,37.55,0,0,0,80.7,48.52c.58-4.23,2.52-11.45,2.94-15.74.53,1.63.79,6.2,1.31,7.79,2,6.2,4.42,12.23,1.42,16.53a8.3,8.3,0,0,0-.76,1.59c-2.38,5.81-6.14,8.85-5.75,15.11A123.38,123.38,0,0,0,82,89.19c1.51,7.87,3.11,15.72,4.63,23.59a41.7,41.7,0,0,1,.56,5.18,47,47,0,0,0,.49,8.46c2,10,4.46,19.78,6.93,29.61C96,161.31,97.27,166.59,96,172.1a19.46,19.46,0,0,0-.34,3.16c-.21,3.1,1.36,5.29,3.74,7a2.74,2.74,0,0,0,4-.73,6.38,6.38,0,0,0,1.21-3.81,31.59,31.59,0,0,0-1.63-9.55c-.66-2.33-.67-4.79-1.67-7.08-.48-1.1-1.1-2.62-.1-3.88,3.74-4.73.75-10,.33-15,0-.16-.18-.3-.23-.47a1.9,1.9,0,0,1-.19-.85c.44-2.73.5-5.33.9-8.09.92-6.32,1-13-.88-19.32a18.87,18.87,0,0,1,.92-13.27,120.94,120.94,0,0,0,4.4-11.84,74.67,74.67,0,0,0,3.43-16.06c.52-6.13-1.14-14.08-3.62-19.9a.09.09,0,0,1,0-.1h.11c1.35,1,3.71,3,4.87,4s2.39.45,3.75-.25a32.77,32.77,0,0,0,6-4.64c4.28-3.64,7.72-6.9,10.39-12A4.54,4.54,0,0,0,131.62,34.77ZM125.06,38c-3.47,3.06-5.35,7.31-8,10.94s-3.57,4.56-6.55,1c-1.13-1.36-2.41-3.51-4-4.65h0a4.83,4.83,0,0,0-.76-.44,1.27,1.27,0,0,1-.65-1.36c.43-2.08.76-4.19,1.31-6.23a52.3,52.3,0,0,1,2-6.77,5.24,5.24,0,0,0,.3-3.3,2,2,0,0,1,.66-2.24c.85-.61,1.62,0,2.24.47A52.54,52.54,0,0,1,116.3,29c2.7,2.72,5.62,5.2,8.48,7.75C125.19,37.14,125.71,37.43,125.06,38Z"/><path class="cls-2" d="M101,185a38.34,38.34,0,0,1-12-1.88c-1-.32-1.89-.74-2.79-1.14A16.92,16.92,0,0,0,80,180.15h-.48a16.89,16.89,0,0,0-6.89,1.94,16.78,16.78,0,0,1-5.43,1.74c-.59.05-1.15.12-1.69.19a18.8,18.8,0,0,1-2.32.2,7.39,7.39,0,0,1-1.52-.15,30.48,30.48,0,0,1-3.76-1.15c-1.09-.39-2.21-.78-3.37-1.07a19.66,19.66,0,0,0-4.37-.47,26.62,26.62,0,0,1-3-.22,33.66,33.66,0,0,0-4.1-.29,18.57,18.57,0,0,1-6.32-.89c-1.3-.5-2.92-1.4-3.25-2.84s.72-2.85,1.65-3.82c3.64-3.83,8.5-5.76,15.74-6.25,4-.27,6-2.16,6.61-6.13l.91-6.48C62,129,65.67,102.64,71.62,77.15a21.82,21.82,0,0,1,.89-2.7c.18-.49.36-1,.53-1.46.57-1.69,1.06-3.1,1.6-4.49.94-2.4,2.14-4.77,3.3-7,.45-.88.9-1.76,1.33-2.64a71.27,71.27,0,0,1,4.17-7.22c2.4-3.71,2.65-7,.85-11.48l-.23-.57c-1.75-4.3-3.56-8.75-2.21-13.39.19-.66.38-1.28.56-1.88a25.47,25.47,0,0,0,1.57-9,1.2,1.2,0,0,1,.48-1,6.09,6.09,0,0,1,3.11-1.05,3.42,3.42,0,0,1,.44,0,1.15,1.15,0,0,1,1.09.53,7.8,7.8,0,0,0,6.44,3.86,6.18,6.18,0,0,0,5.9-4.53.9.9,0,0,1,.76-.46l.62,0a10.29,10.29,0,0,1,4.65,1,.76.76,0,0,1,.34.67,19.79,19.79,0,0,0,1.08,6.66,30.49,30.49,0,0,1,.92,3.85,12.34,12.34,0,0,1-.81,4.39c-.25.83-.48,1.6-.61,2.28-.44,2.31-.94,5.07-1.22,7.93,0,.33-.07.68-.11,1-.24,2-.52,4.37.44,6.25a18.6,18.6,0,0,0,2.08,3.07,18.91,18.91,0,0,1,1.82,2.61c1.79,3.31,3.2,6,4.43,8.58,2.63,5.41,5.12,11.18,7.63,17.64,4.44,11.41,8.24,23.27,11.91,34.75l.56,1.73c.79,2.45,1.57,4.91,2.37,7.36,4.3,13.25,8.18,26.9,11.93,40.1l1.41,5c1.22,4.27,1.22,7.13,0,9s-3.92,3.09-8.47,3.74a32.22,32.22,0,0,1-4.77.41,17.82,17.82,0,0,1-3.71-.37,22.81,22.81,0,0,0-4.71-.5,20.5,20.5,0,0,0-5.16.65l-1.35.34a71.18,71.18,0,0,0-7.18,2.09,34.07,34.07,0,0,1-7.82,1.53l-2.06.25A43.12,43.12,0,0,1,101,185Z"/><path class="cls-3" d="M102.31,13.54l.44,0a9.9,9.9,0,0,1,4,.82,21.11,21.11,0,0,0,1.13,6.83,28.33,28.33,0,0,1,.89,3.72,13,13,0,0,1-.78,4c-.25.84-.49,1.64-.63,2.37-.45,2.33-1,5.11-1.23,8q0,.49-.12,1c-.24,2.08-.55,4.67.54,6.82a20.54,20.54,0,0,0,2.19,3.23,18.32,18.32,0,0,1,1.73,2.48c1.78,3.29,3.18,6,4.41,8.53,2.62,5.4,5.1,11.15,7.6,17.57,4.42,11.36,8.21,23.19,11.87,34.64l.58,1.79c.78,2.45,1.57,4.91,2.37,7.36,4.29,13.22,8.16,26.85,11.9,40l1.43,5c1.13,4,1.17,6.58.12,8.19s-3.53,2.69-7.77,3.3a31.83,31.83,0,0,1-4.63.4,16.58,16.58,0,0,1-3.51-.35,24,24,0,0,0-4.91-.52,22.1,22.1,0,0,0-5.41.68l-1.33.34a72.75,72.75,0,0,0-7.29,2.12,32.63,32.63,0,0,1-7.59,1.47l-2.08.25A41.09,41.09,0,0,1,101,184a37.23,37.23,0,0,1-11.72-1.83,29,29,0,0,1-2.7-1.11,17.68,17.68,0,0,0-6.51-1.9l-.52,0a17.46,17.46,0,0,0-7.29,2,16,16,0,0,1-5.11,1.65c-.62.05-1.19.13-1.74.2a17.38,17.38,0,0,1-2.19.19,6.06,6.06,0,0,1-1.31-.13A28.49,28.49,0,0,1,58.23,182c-1.11-.39-2.25-.79-3.46-1.09a20.63,20.63,0,0,0-4.58-.5,21.85,21.85,0,0,1-2.86-.21,36.44,36.44,0,0,0-4.23-.3,18.13,18.13,0,0,1-6-.82c-1.5-.58-2.46-1.36-2.63-2.13s.32-1.78,1.39-2.91c3.46-3.64,8.12-5.47,15.09-5.94,4.51-.31,6.9-2.53,7.53-7l.91-6.51c3.57-25.44,7.26-51.75,13.19-77.19a22.62,22.62,0,0,1,.85-2.57c.19-.5.38-1,.54-1.49.57-1.66,1-3.06,1.59-4.44.92-2.36,2.11-4.7,3.26-7,.45-.88.9-1.76,1.34-2.65a68.15,68.15,0,0,1,4.11-7.11c2.57-4,2.85-7.69.94-12.41L85,39.16c-1.76-4.33-3.42-8.43-2.17-12.73.19-.66.38-1.28.56-1.87A26.54,26.54,0,0,0,85,15.19c0-.07,0-.1.13-.21a5.19,5.19,0,0,1,2.59-.82l.31,0a1,1,0,0,1,.21,0h0l0,0a8.81,8.81,0,0,0,7.3,4.32,7.2,7.2,0,0,0,6.76-5m-.11-2a1.87,1.87,0,0,0-1.7,1.14,5.21,5.21,0,0,1-5,3.85,6.85,6.85,0,0,1-5.61-3.4,2.13,2.13,0,0,0-1.93-1,3.9,3.9,0,0,0-.58,0,7.4,7.4,0,0,0-3.62,1.28A2.18,2.18,0,0,0,83,15.25c.13,4-.94,6.66-2.09,10.62-1.51,5.19.59,10,2.47,14.62,1.55,3.82,1.6,6.91-.76,10.56a73.94,73.94,0,0,0-4.23,7.32c-1.59,3.23-3.35,6.41-4.66,9.77-.58,1.49-1.11,3-1.62,4.53S71,75.52,70.65,76.92c-6.46,27.66-10.19,55.79-14.14,83.87-.51,3.62-2.23,5-5.68,5.27-6.15.42-12,1.9-16.41,6.56-3.23,3.41-2.44,6.58,2,8.28,3.43,1.32,7.11.7,10.63,1.24,2.45.37,4.84.06,7.26.67s4.71,1.7,7.17,2.23a8.74,8.74,0,0,0,1.73.17c1.35,0,2.64-.28,4.09-.39,4.32-.34,7.82-3.68,12.24-3.68h.43c3.21.16,5.69,1.92,8.66,2.91A39,39,0,0,0,101,186a43,43,0,0,0,5.58-.36c3.39-.44,6.87-.64,10.1-1.83a82.9,82.9,0,0,1,8.43-2.4,19.79,19.79,0,0,1,4.91-.62,21.66,21.66,0,0,1,4.5.48,19,19,0,0,0,3.92.39,33.22,33.22,0,0,0,4.91-.42c9.32-1.34,11.88-4.92,9.29-14-4.29-15.09-8.51-30.21-13.35-45.12l-2.37-7.35C133,102.5,129.06,90.22,124.4,78.22c-2.34-6-4.86-11.93-7.67-17.72-1.41-2.91-2.91-5.77-4.45-8.61-1.1-2-2.87-3.65-3.89-5.66s-.42-4.65-.22-6.75c.25-2.63.7-5.24,1.21-7.83.37-1.95,1.71-5.07,1.42-7-.55-3.65-2.17-6.53-2-10.32a1.73,1.73,0,0,0-.83-1.56c-1.73-1-3.71-1.08-5.66-1.23Z"/><path class="cls-3" d="M82.58,90.17q.4,12.36.43,24.71c0,8.24,0,16.47-.14,24.71-.09,4.13-.23,8.28-.73,12.42-.26,2.07-.59,4.13-1,6.17a25,25,0,0,1-2.24,6,53.14,53.14,0,0,1-7.15,10.23,58.82,58.82,0,0,1-4.34,4.45,34.64,34.64,0,0,1-4.83,3.88A43.78,43.78,0,0,0,67,178.44a57,57,0,0,0,4-4.69,57.68,57.68,0,0,0,6.51-10.29,26.09,26.09,0,0,0,1.92-5.64c.4-2,.67-4,.88-6,.43-4.05.56-8.14.62-12.24.14-8.23.29-16.47.57-24.7S82.08,98.4,82.58,90.17Z"/><path class="cls-3" d="M121.18,108.12l15.07,71.71a1,1,0,0,1-.78,1.19,1,1,0,0,1-1.18-.78v0Z"/><path class="cls-3" d="M84.66,45.56a49.8,49.8,0,0,0,5.7,1.08,46.68,46.68,0,0,0,5.79.41,30.06,30.06,0,0,0,5.76-.4,17.4,17.4,0,0,0,5.44-1.88.1.1,0,0,1,.13,0,.08.08,0,0,1,0,.11l0,0a11.42,11.42,0,0,1-5.25,3.25,20,20,0,0,1-6.08.85c-1,0-2-.11-3-.24a24.66,24.66,0,0,1-3-.61,17.79,17.79,0,0,1-5.54-2.45h0a.1.1,0,0,1,0-.14A.1.1,0,0,1,84.66,45.56Z"/><path class="cls-3" d="M97.87,48.21c-.32,4.82-.45,9.7-.48,14.57s.1,9.74.33,14.6.59,9.73,1.11,14.58,1.22,9.68,2,14.49c-1-4.78-1.88-9.58-2.53-14.43s-1.22-9.7-1.61-14.57S96,67.69,95.89,62.8s-.18-9.78,0-14.71a1,1,0,0,1,2,.06v.06Z"/><rect class="cls-4" width="186" height="186"/></svg>