<svg id="图层_1" data-name="图层 1" xmlns="http://www.w3.org/2000/svg" viewBox="0 0 186 186"><defs><style>.cls-1{fill:#fae7ee;}.cls-2{fill:#fff;}.cls-3{fill:#5b3b2f;}.cls-4{fill:#9b9692;opacity:0;}</style></defs><path class="cls-1" d="M93.26,3a14.15,14.15,0,0,0-.11,3.25,4.55,4.55,0,0,0,.52,1.94c1.25,2.07,4.81,1.9,6.76,1.54a7,7,0,0,1,5.78,1,11.78,11.78,0,0,1,1.88,1.62c4.9,5.87,10.61,11,15.59,16.77a18.24,18.24,0,0,1,1.92,2.77,4.56,4.56,0,0,1-.19,4.72c-2.68,5.08-6.46,8.13-10.76,11.79-1.93,1.64-3,3-5.28,4.22-1.37.71-2.44,2-3.67.93s-4-3.09-5.4-4.07a.08.08,0,0,0-.13.1c2.49,5.85,4.15,13.83,3.63,20a75.22,75.22,0,0,1-3.44,16.12,118.33,118.33,0,0,1-4.42,11.88A19,19,0,0,0,95,110.87c1.89,6.31,1.81,13.06.88,19.4-.4,2.77-.46,5.38-.9,8.12a1.94,1.94,0,0,0,.19.86c0,.16.22.31.23.47.42,5,3.42,10.29-.33,15-1,1.27-.38,2.79.1,3.9,1,2.3,1,4.76,1.68,7.1a31.59,31.59,0,0,1,1.63,9.59,6.39,6.39,0,0,1-1.21,3.83,2.76,2.76,0,0,1-4.06.73c-2.39-1.7-4-3.9-3.75-7a18.75,18.75,0,0,1,.34-3.18c1.3-5.52,0-10.82-1.33-16.12-2.48-9.87-4.95-19.74-7-29.72a48.34,48.34,0,0,1-.5-8.49,40,40,0,0,0-.55-5.2C79,102.29,77.35,94.4,75.83,86.5a122.23,122.23,0,0,1-2.19-15.45,40.76,40.76,0,0,1,3.27-18.18,7.61,7.61,0,0,1,.77-1.6c3-4.32,3.1-7.34,1.07-13.57-.52-1.6-.78-6.18-1.31-7.82-.43,4.3-2.38,11.55-3,15.8a37.58,37.58,0,0,1-4.81,14.14c-2,3.68-4,8.3-5.87,12.06-.69,1.41,0,2.55,0,4a7,7,0,0,1-.75,3.28c-.28.55-.29,1-.53,1.56a2.37,2.37,0,0,0-.21.9c0,.33.16.89-.31,1-1.22.27-.71-3.35-.69-4,0,0,.08-1.75-1-.2.12,0-2.31,4.41,0,6.36l.2.1.51.29a2.93,2.93,0,0,0,1.31.45c.23,0,.52.19.5.46,0,.58-1,.44-1.35.4a4.22,4.22,0,0,1-2.37-1A8.6,8.6,0,0,1,57.92,84c-1.2-1.72-.93-3.87-.27-5.84.48-1.42,1.28-2.68,1.73-4.11.53-1.62,1.06-3.23,1.5-4.88.69-2.63,1.27-5.29,1.95-7.93,1.26-4.85,2.47-9.78,5.69-13.85a4.14,4.14,0,0,0,.77-2.5c.21-5.32.41-10.64.65-16a102.69,102.69,0,0,1,1-12.37c.48-2.82,2.21-4.43,5.14-5.13,2.18-.52,4.31-1.26,6.48-1.84,1.79-.48,2.47-1.51,2.65-3.42a10.65,10.65,0,0,0-.12-2.94ZM60.68,77.61m38.19-37A1.3,1.3,0,0,0,99.53,42c2,.9,3.51,3.55,4.83,5.13,3,3.6,3.77,2.77,6.57-1s4.59-7.9,8.08-11c.65-.57.14-.86-.28-1.23-2.87-2.56-5.8-5.05-8.52-7.78a51,51,0,0,0-4.83-3.66c-.63-.49-1.4-1.09-2.25-.48a2,2,0,0,0-.66,2.25,5.28,5.28,0,0,1-.3,3.31,54.41,54.41,0,0,0-2,6.8C99.63,36.38,99.3,38.49,98.87,40.58Z"/><path class="cls-1" d="M59.41,83.3c.21.39.67.53,1.11.75.94.47,2.64-.31,3,.15.5.66-2,.83-2.45.9"/><path class="cls-1" d="M59.41,82.11a3.53,3.53,0,0,0,1.32.71,3.32,3.32,0,0,0,1.09.12c.21,0,1.19-.26,1.17.07s-1,.53-1.28.6A1.78,1.78,0,0,1,60,83.37c-.17-.09-.63-.43-.63-.43"/><path class="cls-2" d="M77,182c-.94,0-1.82,0-2.69-.1s-1.93-.11-2.9-.15a32.39,32.39,0,0,1-6.75-.75,12.87,12.87,0,0,1-3.37-1.63,20,20,0,0,0-2.82-1.5,6.79,6.79,0,0,0-2.58-.54,10,10,0,0,0-4.12,1.15c-.48.21-1,.43-1.5.63a22.91,22.91,0,0,1-4.91,1.2,36.31,36.31,0,0,1-5.24.38c-1,0-2,0-3-.13-8.78-.7-15.21-3.56-18.59-8.26-2.82-3.91-3.49-9-2-15,4.39-17.71,12.94-33.48,21.31-48.11C47.6,92.07,59.11,75.64,70.25,59.74l2.09-3C73,55.89,73.75,55,74.47,54c1-1.25,1.93-2.51,2.94-3.74.34-.41.72-.82,1.1-1.23,1.28-1.37,2.74-2.93,2.95-5.11a7.17,7.17,0,0,0-1.39-4.59l-.39-.67a25.14,25.14,0,0,1-1.84-4.26,29,29,0,0,1-1.3-13,60.64,60.64,0,0,0,.36-7.71c0-.8,0-1.6,0-2.4a.65.65,0,0,1,.35-.57,10.64,10.64,0,0,1,3.88-.61c.43,0,.85,0,1.28-.06h0a.64.64,0,0,1,.59.34c1.56,3,3.69,4.45,6.33,4.45a9.49,9.49,0,0,0,4-1,9.64,9.64,0,0,0,3.18-2.51,3.63,3.63,0,0,1,2.68-1.22c.39,0,.78-.06,1.16-.1a7.15,7.15,0,0,1,.9-.08c.41,0,.79,0,1.12.95,0,.14.1.7.2,2.45v.21a17.29,17.29,0,0,0,.54,3.13c.16.63.34,1.26.52,1.88a22.86,22.86,0,0,1,.83,3.54c.31,2.67-.52,5.73-1.31,8.7-.32,1.16-.61,2.27-.84,3.34-.11.53-.31,1.19-.51,1.9-.83,2.84-1.87,6.38-.15,8.56a15.55,15.55,0,0,0,3.06,2.7A20.55,20.55,0,0,1,106.79,49c1.76,1.72,3.53,3.54,5.25,5.4,3.27,3.55,6.48,7.4,9.55,11.45a210,210,0,0,1,16,25c5.25,9.43,9.84,18.94,13.63,27,7.5,15.91,13.59,32.12,18.55,45.88a5.33,5.33,0,0,1-.89,5.77c-5.51,7.34-13.26,10.83-25.14,11.32l-1.49,0a68.2,68.2,0,0,1-10.69-1.09c-1.93-.3-3.92-.61-6-.84a81.67,81.67,0,0,0-9-.61c-1.26,0-2.42.05-3.56.15a30.6,30.6,0,0,0-6.23,1.16,23.54,23.54,0,0,0-2.57,1l-1.31.56a7.8,7.8,0,0,1-3,.57,8.37,8.37,0,0,1-1.58-.15,31.73,31.73,0,0,0-6-.54c-2.6,0-5.21.25-7.74.49S79.56,182,77,182Z"/><path class="cls-3" d="M101.25,11h0a1,1,0,0,1,.1.21c0,.19.09.73.17,2.28v.17a18.36,18.36,0,0,0,.57,3.31c.16.66.35,1.31.53,1.93a21.32,21.32,0,0,1,.79,3.38c.29,2.47-.51,5.44-1.28,8.32-.32,1.18-.62,2.29-.85,3.4-.1.48-.29,1.13-.49,1.82-.85,2.9-2,6.87,0,9.46a16.45,16.45,0,0,0,3.25,2.88,18.94,18.94,0,0,1,2,1.58c1.76,1.71,3.52,3.52,5.21,5.36,3.25,3.52,6.44,7.35,9.49,11.37a210.09,210.09,0,0,1,16,24.84c5.24,9.42,9.81,18.91,13.6,26.94,7.48,15.88,13.55,32.06,18.51,45.79a4.36,4.36,0,0,1-.75,4.83c-5.31,7.08-12.83,10.44-24.38,10.92-.49,0-1,0-1.46,0a68.11,68.11,0,0,1-10.53-1.08c-1.93-.3-3.93-.61-6-.84a83.16,83.16,0,0,0-9.08-.62c-1.28,0-2.48.05-3.65.15a31.88,31.88,0,0,0-6.43,1.2,23.44,23.44,0,0,0-2.69,1.06l-1.28.55a6.81,6.81,0,0,1-2.58.5,7.28,7.28,0,0,1-1.39-.14,32,32,0,0,0-6.23-.56c-2.66,0-5.29.25-7.84.49S79.51,181,77,181c-.92,0-1.77,0-2.61-.1-1-.07-2-.11-2.94-.15a31.2,31.2,0,0,1-6.54-.72,12.18,12.18,0,0,1-3.11-1.52,21.13,21.13,0,0,0-3-1.57,7.77,7.77,0,0,0-3-.61,11.07,11.07,0,0,0-4.53,1.23c-.46.21-1,.43-1.45.62a22.22,22.22,0,0,1-4.69,1.14,35.91,35.91,0,0,1-5.1.37c-1,0-2,0-3-.12-8.48-.68-14.65-3.4-17.86-7.85-2.64-3.67-3.25-8.43-1.83-14.16C21.81,140,30.32,124.28,38.66,109.7c9.79-17.09,21.28-33.5,32.4-49.38l2.06-2.94c.72-.91,1.43-1.82,2.14-2.74.95-1.23,1.93-2.5,2.92-3.72.31-.38.67-.76,1.06-1.17,1.32-1.42,3-3.18,3.22-5.7a8.24,8.24,0,0,0-1.52-5.2c-.13-.21-.26-.43-.38-.65a24.52,24.52,0,0,1-1.77-4.08,27.89,27.89,0,0,1-1.26-12.54,61.11,61.11,0,0,0,.37-7.84c0-.72,0-1.43,0-2.15a11.39,11.39,0,0,1,3.26-.43l1.08,0c2.17,3.93,5,4.77,7.1,4.77a10.46,10.46,0,0,0,4.39-1.09A10.69,10.69,0,0,0,97.26,12a2.64,2.64,0,0,1,1.94-.88,11.57,11.57,0,0,0,1.27-.11,6.56,6.56,0,0,1,.78-.07m-23.33.37h0M101.25,9c-.65,0-1.36.17-2.08.18a4.64,4.64,0,0,0-3.41,1.56A8.88,8.88,0,0,1,92.9,13a8.42,8.42,0,0,1-3.54.9Q86,13.89,83.92,10a1.65,1.65,0,0,0-1.45-.87h-.11c-1.85.12-3.75,0-5.49.74a1.65,1.65,0,0,0-1,1.47,85.14,85.14,0,0,1-.38,10,29.9,29.9,0,0,0,1.35,13.44,25.57,25.57,0,0,0,1.92,4.42c.86,1.54,1.84,2.81,1.66,4.69-.24,2.43-2.39,4-3.84,5.8-1.75,2.14-3.39,4.36-5.11,6.52-12,17.19-24.16,34.3-34.59,52.53-8.81,15.38-17.11,31-21.42,48.37C12,171.16,20.15,180.21,37,181.56c1,.09,2.08.13,3.12.13a37.24,37.24,0,0,0,5.38-.39,24.24,24.24,0,0,0,5.12-1.25c2-.76,3.46-1.72,5.27-1.72a5.83,5.83,0,0,1,2.21.46c2.17.89,4.06,2.6,6.31,3.18,3.2.82,6.56.68,9.83.93.92.07,1.84.1,2.76.1,5.23,0,10.29-1,15.43-1a30.73,30.73,0,0,1,5.85.52,8.79,8.79,0,0,0,1.77.18,8.94,8.94,0,0,0,3.34-.65c1.31-.53,2.6-1.19,3.79-1.55a30,30,0,0,1,6-1.12c1.16-.1,2.32-.14,3.48-.14a82,82,0,0,1,8.86.6c5.84.65,11,1.94,16.77,1.94.51,0,1,0,1.54,0,10.18-.42,19.39-3,25.9-11.72a6.3,6.3,0,0,0,1-6.71c-5.61-15.56-11.53-31-18.58-46-4.31-9.13-8.75-18.22-13.66-27.05a214.83,214.83,0,0,0-16.13-25.08c-3-4-6.22-7.84-9.61-11.52-1.72-1.86-3.48-3.67-5.3-5.43-1.51-1.48-3.75-2.65-5-4.27-1.8-2.28.31-7.11.85-9.63.81-3.83,2.62-8.43,2.16-12.36a44.08,44.08,0,0,0-1.37-5.55,15.57,15.57,0,0,1-.51-3,23.58,23.58,0,0,0-.27-2.93A2,2,0,0,0,101.25,9Z"/><path class="cls-1" d="M113.18,42.7s-5,10.44-8.66,4.24a14.74,14.74,0,0,0-3.3-4,21.45,21.45,0,0,0-4.62-2.73c-.25-.11-.67-.24-.9,0-.54.56.56,1.15.94,1.37a25.12,25.12,0,0,1,2.51,1.7L100,44a9.27,9.27,0,0,0-2.18-.65,8.13,8.13,0,0,0-3.07,0c-.87.36,0,.79.6.94a25,25,0,0,1,3.5,1c.22.08.46.18.7.29-.68-.12-1.43-.2-2.13-.27a9.28,9.28,0,0,0-3.24.15.44.44,0,0,0-.22.1c-.4.37.11.82.48.91,1.27.32,2.6.06,3.87.37a9.06,9.06,0,0,1,1.61.57,6.72,6.72,0,0,0-3.59.67c-.22.11-1.05.47-.66.8a.54.54,0,0,0,.23.11c1.23.35,2.47-.51,3.68-.11a3.86,3.86,0,0,1,1.39,1c.51.48,1.06.94,1.61,1.38a16.49,16.49,0,0,0,3.48,2.46c1.24.53,2.6-.23,3.54-1,0,0,10.82-8.91,11.7-10.44Z"/><path class="cls-3" d="M74.46,114.4q-4.11,15.79-7.81,31.68Q64.81,154,63.15,162c-1.06,5.31-2.1,10.67-2.62,16v0a1,1,0,0,1-1.1.9,1,1,0,0,1-.9-1.09v0c.71-5.5,1.92-10.81,3.15-16.12s2.6-10.58,4-15.85Q69.86,130.06,74.46,114.4Z"/><path class="cls-3" d="M120.82,112.66a166.62,166.62,0,0,1,7.53,15.79q3.38,8.09,6,16.47A144.21,144.21,0,0,1,138.44,162a114.09,114.09,0,0,1,1.66,17.54,1,1,0,0,1-2,0v-.07A111.12,111.12,0,0,0,137,162.22a140,140,0,0,0-3.61-17q-2.33-8.4-5.45-16.57A168.12,168.12,0,0,0,120.82,112.66Z"/><path class="cls-3" d="M93,45.74A145.38,145.38,0,0,1,105.42,58a163.74,163.74,0,0,1,11,13.65c1.76,2.34,3.35,4.79,5,7.22s3.08,5,4.35,7.63l1.92,4c.55,1.36,1.13,2.7,1.65,4.07a76.53,76.53,0,0,1,2.74,8.33.09.09,0,0,1-.06.12.1.1,0,0,1-.12,0h0c-2.6-5.24-5-10.49-7.9-15.48l-1-1.91-1.1-1.86c-.73-1.25-1.4-2.53-2.15-3.76-1.5-2.47-3-5-4.6-7.35a163.3,163.3,0,0,0-10.41-13.9A144.25,144.25,0,0,0,92.84,45.89a.11.11,0,0,1,0-.14A.12.12,0,0,1,93,45.74Z"/><path class="cls-3" d="M88.5,46Q85.35,59.33,82,72.58c-1.14,4.42-2.28,8.83-3.5,13.22s-2.43,8.79-4,13.06C75.9,94.53,76.94,90.1,78,85.68s2-8.88,3-13.33Q83.91,59,86.55,45.61a1,1,0,1,1,2,.38Z"/><path class="cls-3" d="M88.31,46.43c-2.28,3-4.41,6.17-6.46,9.38s-4,6.49-5.9,9.8C72.17,72.25,68.69,79.06,65.41,86c-1.59,3.48-3.22,6.94-4.69,10.47-.74,1.77-1.53,3.51-2.24,5.29l-2.12,5.33c-.73,1.77-1.4,3.56-2,5.36l-2,5.39c-1.28,3.61-2.47,7.25-3.72,10.87,1.17-3.65,2.28-7.31,3.48-11L54,112.3c.61-1.82,1.24-3.63,1.93-5.42l2-5.38c.67-1.8,1.42-3.56,2.13-5.35,1.39-3.57,2.95-7.07,4.47-10.59,3.14-7,6.48-13.92,10.14-20.68,1.83-3.37,3.71-6.72,5.72-10s4.06-6.52,6.38-9.68a1,1,0,0,1,1.61,1.18v0Z"/><rect class="cls-4" width="186" height="186"/></svg>