<svg id="图层_1" data-name="图层 1" xmlns="http://www.w3.org/2000/svg" viewBox="0 0 186 186"><defs><style>.cls-1{fill:#fae7ee;}.cls-2{fill:#fff;}.cls-3{fill:#5b3b2f;}.cls-4{fill:#9b9692;opacity:0;}</style></defs><path class="cls-1" d="M94.65,3a14.61,14.61,0,0,0-.11,3.3,4.63,4.63,0,0,0,.53,2c1.27,2.1,4.88,1.92,6.85,1.56a7,7,0,0,1,5.86,1,11.22,11.22,0,0,1,1.91,1.65c5,5.95,10.76,11.13,15.81,17a18.78,18.78,0,0,1,2,2.81,4.62,4.62,0,0,1-.19,4.78c-2.72,5.16-6.56,8.25-10.92,12-2,1.66-3,3.08-5.35,4.28-1.39.72-2.48,2-3.73.94s-4.09-3.13-5.47-4.13a.09.09,0,0,0-.13.11c2.53,5.93,4.21,14,3.68,20.26a75.21,75.21,0,0,1-3.49,16.34,119.26,119.26,0,0,1-4.48,12c-1.91,4.47-.3,8.93,1.08,13.51,1.92,6.4,1.84,13.24.89,19.68-.41,2.8-.46,5.44-.91,8.23a1.94,1.94,0,0,0,.19.86c.06.17.23.32.24.49.42,5.08,3.47,10.43-.34,15.25-1,1.28-.39,2.83.11,3.95,1,2.33,1,4.83,1.7,7.2a32.46,32.46,0,0,1,1.65,9.73,6.49,6.49,0,0,1-1.23,3.88,2.8,2.8,0,0,1-4.11.74c-2.43-1.73-4-4-3.81-7.11a21.43,21.43,0,0,1,.34-3.22c1.32-5.6,0-11-1.35-16.35-2.51-10-5-20-7.06-30.14a48.68,48.68,0,0,1-.49-8.61,41.08,41.08,0,0,0-.57-5.27c-1.54-8-5.19-16-6.73-24A124.13,124.13,0,0,1,74.76,72a41.35,41.35,0,0,1,3.31-18.44A8.08,8.08,0,0,1,78.85,52c3.05-4.38,3.15-7.44,1.09-13.76-.53-1.62-.8-6.27-1.33-7.93-.43,4.36-2.41,11.71-3,16a38.23,38.23,0,0,1-4.88,14.34c-2,3.73-4.06,8.42-6,12.23-.71,1.43,0,2.59,0,4.06a6.9,6.9,0,0,1-.76,3.33c-.28.55-.29,1-.53,1.57a2.42,2.42,0,0,0-.21.92c0,.33.16.9-.32,1-1.24.28-.72-3.4-.69-4,0,0,.08-1.77-1-.2.12,0-2.34,4.48,0,6.45a1.36,1.36,0,0,1,.2.11c.17.1.34.2.52.29a3,3,0,0,0,1.32.46c.24,0,.53.19.51.46,0,.59-1,.45-1.37.4a4.18,4.18,0,0,1-2.4-1,9.77,9.77,0,0,1-1.26-1.53c-1.21-1.75-.94-3.93-.27-5.92C59,77.76,59.83,76.48,60.3,75c.53-1.65,1.07-3.27,1.52-5,.7-2.67,1.28-5.36,2-8,1.27-4.92,2.49-9.92,5.76-14a4.15,4.15,0,0,0,.78-2.53c.22-5.39.42-10.79.66-16.18a103.47,103.47,0,0,1,1.07-12.55c.48-2.86,2.24-4.49,5.21-5.2,2.21-.53,4.37-1.28,6.57-1.87,1.81-.48,2.5-1.53,2.69-3.46a11,11,0,0,0-.12-3Zm-33,75.66,38.73-37.55A1.32,1.32,0,0,0,101,42.5c2,.91,3.56,3.6,4.9,5.2,3,3.65,3.82,2.81,6.66-1s4.66-8,8.2-11.13c.66-.58.13-.88-.29-1.26-2.91-2.59-5.88-5.12-8.64-7.89a54.29,54.29,0,0,0-4.9-3.71c-.63-.49-1.42-1.1-2.28-.48a2,2,0,0,0-.67,2.27,5.32,5.32,0,0,1-.31,3.37,53.67,53.67,0,0,0-2,6.89C101.11,36.85,100.78,39,100.34,41.11Z"/><path class="cls-1" d="M60.28,75.1c-.46,1.43-1.26,2.71-1.75,4.14a9.77,9.77,0,0,0-.56,3,4.85,4.85,0,0,0,.84,2.85,8.64,8.64,0,0,0,1.25,1.52,4.14,4.14,0,0,0,2.38,1c.37,0,1.32.19,1.36-.4h0c0-.27-.27-.45-.5-.46A3,3,0,0,1,62,86.36l-.22-.12.22,0c.4-.07,2.67-.22,2.53-.79a.49.49,0,0,0-.06-.13c-.36-.47-2.08.33-3-.15a5,5,0,0,1-.83-.44l0,0a1.89,1.89,0,0,1-.2-.2h0a1.37,1.37,0,0,0,.17.17l-.14-.15a3.71,3.71,0,0,0,1.34.24,2.08,2.08,0,0,0,.7-.07h.12c.3-.07,1.28-.29,1.3-.6h0c0-.34-1-.09-1.19-.08A3.32,3.32,0,0,1,61.64,84a3.66,3.66,0,0,1-.51-.21,3.11,3.11,0,0,1-.4-.22,2.56,2.56,0,0,1-.42-.28h0l0,0a2.09,2.09,0,0,1,0-.25l0-.24c0-.16,0-.31.08-.46a1.55,1.55,0,0,1,0-.21c.05-.22.1-.43.17-.65l0-.08c.07-.23.15-.45.23-.68,0-.05,0-.15.1-.27l0-.06,0,0c0-.07,0-.13.08-.19a4,4,0,0,1,.43-.85c.19-.22.34-.32.44-.32a.23.23,0,0,1,.18.09.53.53,0,0,1,.06.1,1.91,1.91,0,0,1,.08.65c0,.26-.12,1.12-.13,2v.35c0,1,.2,1.81.81,1.67.31-.07.35-.31.35-.57s0-.31,0-.43a2.37,2.37,0,0,1,.21-.91c.24-.57.25-1,.53-1.56A7.05,7.05,0,0,0,64.77,77h0c0-.91-.3-1.7-.34-2.51"/><path class="cls-1" d="M60.33,84.43c.2.39.68.54,1.12.76.95.48,2.68-.32,3,.15.51.67-2.06.84-2.48.92"/><path class="cls-1" d="M60.33,83.22a3.38,3.38,0,0,0,1.33.72,3.16,3.16,0,0,0,1.1.12c.22,0,1.22-.26,1.2.08s-1,.54-1.3.61A1.85,1.85,0,0,1,61,84.5c-.17-.09-.63-.43-.63-.43"/><path class="cls-1" d="M114.85,43.26s-5.09,10.59-8.78,4.3a14.8,14.8,0,0,0-3.35-4A21.26,21.26,0,0,0,98,40.77c-.26-.11-.68-.23-.91,0-.55.57.56,1.17,1,1.39a25.82,25.82,0,0,1,2.54,1.73c.3.22.61.45.91.69a9.14,9.14,0,0,0-2.22-.66,7.89,7.89,0,0,0-3.1,0c-.89.36,0,.8.6,1a27.21,27.21,0,0,1,3.55,1l.72.3c-.7-.12-1.45-.2-2.17-.27a9.33,9.33,0,0,0-3.29.15.44.44,0,0,0-.22.1c-.41.37.11.83.49.92,1.28.33,2.63.06,3.92.38a8.89,8.89,0,0,1,1.64.58,6.84,6.84,0,0,0-3.65.67c-.21.12-1.06.48-.66.82a.49.49,0,0,0,.23.11c1.24.35,2.51-.52,3.73-.11a3.76,3.76,0,0,1,1.41,1c.52.49,1.08,1,1.63,1.4a16.58,16.58,0,0,0,3.53,2.49c1.26.55,2.64-.22,3.6-1,0,0,11-9,11.85-10.58Z"/><path class="cls-2" d="M100.64,122.19c-1.81-.11-3.65-.11-5.43-.12a46.88,46.88,0,0,1-9.9-.71,4,4,0,0,1-2.55-2,3.11,3.11,0,0,0-1.84-1.75c-4-.93-4.12-3.28-4-7,0-.63.05-1.27,0-1.89a116.44,116.44,0,0,0-1.82-17.12c-.66-4.14-1.33-8.43-1.63-12.66-.3-13.31,1.83-24.33,6.92-35.68l.07-.17a3.8,3.8,0,0,0,.3-3.57c-3.2-5.69-3-11.77-1.67-19.73a12,12,0,0,0-.68-5.18l-.07-.25a2.27,2.27,0,0,1,1.25-2.73A7.4,7.4,0,0,1,82.38,11a.36.36,0,0,1,.24.13c2.87,3,5.4,4.35,8,4.35,2.77,0,5.52-1.62,8.66-5.1a.41.41,0,0,1,.29-.13l.5.06c.38,0,.75.09,1.13.15a1.75,1.75,0,0,1,1.2.82,1.84,1.84,0,0,1,.19,1.52c-1,3.27-.23,6.08.61,9.05.17.62.35,1.25.51,1.9a8.67,8.67,0,0,1,.15,2.74c-.09.66-.2,1.33-.3,2l-.2,1.27a31.69,31.69,0,0,0-.45,5.35,13.93,13.93,0,0,0,1.1,5.26,16.61,16.61,0,0,0,1.3,2.32,15.44,15.44,0,0,1,1.17,2.08c.27.61.55,1.22.82,1.82.55,1.21,1.12,2.46,1.6,3.7.15.4.3.8.43,1.21a59.72,59.72,0,0,1,1.89,7.13A72.71,72.71,0,0,1,112.48,73a125.4,125.4,0,0,1-1.32,16.45c-1.11,8.09-1.93,16.16-2.52,22.29-.67,7-2.29,9.12-7.9,10.4h-.1Z"/><path class="cls-3" d="M100,11h0m-.21.23.14,0c.36.05.73.09,1.08.15a.7.7,0,0,1,.51.35.81.81,0,0,1,.09.71c-1.1,3.54-.23,6.63.61,9.61.17.61.34,1.24.51,1.88a7.7,7.7,0,0,1,.12,2.35c-.09.66-.2,1.32-.3,2-.07.43-.13.86-.2,1.29a32.12,32.12,0,0,0-.46,5.51,15,15,0,0,0,1.18,5.65,18.74,18.74,0,0,0,1.37,2.44,16.29,16.29,0,0,1,1.11,1.95c.26.61.54,1.22.82,1.83.54,1.19,1.11,2.43,1.57,3.65.15.38.29.77.42,1.16a57.74,57.74,0,0,1,1.86,7A71.55,71.55,0,0,1,111.48,73a123.15,123.15,0,0,1-1.31,16.31c-1.11,8.11-1.93,16.19-2.52,22.33-.67,6.91-2.27,8.4-7,9.51-1.82-.11-3.64-.11-5.4-.12a45.27,45.27,0,0,1-9.69-.69,3,3,0,0,1-1.88-1.51,4.18,4.18,0,0,0-2.5-2.25c-3.27-.75-3.34-2.3-3.18-6,0-.63.05-1.28,0-1.93a117.89,117.89,0,0,0-1.84-17.28c-.64-4.1-1.31-8.35-1.61-12.52-.29-13.19,1.82-24.06,6.83-35.25l.08-.17c.46-1,1.23-2.73.25-4.47-3-5.43-2.86-11.33-1.55-19.07a12.83,12.83,0,0,0-.71-5.62L79.38,14a1.31,1.31,0,0,1,.68-1.54,6.34,6.34,0,0,1,2-.52c3,3,5.7,4.46,8.5,4.46,3,0,5.93-1.65,9.19-5.2m-.24-2a1.39,1.39,0,0,0-1,.46c-2.88,3.19-5.4,4.77-7.92,4.77-2.32,0-4.65-1.36-7.25-4a1.34,1.34,0,0,0-1-.43h0a8.45,8.45,0,0,0-3.09.7,3.28,3.28,0,0,0-1.81,3.92,12.08,12.08,0,0,1,.73,5C76.92,27.09,76.47,33.73,80,40c.51.92,0,1.9-.42,2.84-5.33,11.9-7.29,23.27-7,36.16.72,10,3.37,19.69,3.45,29.72,0,4-1.22,8.53,4.69,9.9.47.11.85.63,1.2,1.27a4.9,4.9,0,0,0,3.2,2.49c5.1,1.11,10.33.54,15.49.86h.08a1.45,1.45,0,0,0,.3,0c6.12-1.41,8-4,8.68-11.29s1.5-14.85,2.51-22.25a125.89,125.89,0,0,0,1.33-16.57,73.66,73.66,0,0,0-1.31-14.67,60.45,60.45,0,0,0-1.92-7.25c-.14-.42-.29-.84-.45-1.25-.73-1.89-1.62-3.72-2.43-5.56-.69-1.57-1.79-2.84-2.48-4.4a13,13,0,0,1-1-4.89,29.91,29.91,0,0,1,.44-5.17c.16-1.09.35-2.19.5-3.29a9.56,9.56,0,0,0-.17-3.11c-.94-3.71-2.26-6.78-1.14-10.41a2.8,2.8,0,0,0-2.18-3.62c-.53-.09-1.07-.15-1.61-.22Z"/><path class="cls-3" d="M79.59,38.69a44,44,0,0,0,6.23,1,36.32,36.32,0,0,0,6.25.15,53.65,53.65,0,0,0,6-1A43.76,43.76,0,0,0,104,36.94h0a.1.1,0,0,1,.14.06.12.12,0,0,1,0,.1,12.73,12.73,0,0,1-5.48,3.66,19.61,19.61,0,0,1-6.54.72,37.3,37.3,0,0,1-12.58-2.6.1.1,0,0,1,0-.14A.09.09,0,0,1,79.59,38.69Z"/><polyline class="cls-4" points="0 186 0 0 186 0 186 186"/></svg>