<svg id="图层_1" data-name="图层 1" xmlns="http://www.w3.org/2000/svg" viewBox="0 0 186 186"><defs><style>.cls-1{fill:#fae7ee;}.cls-2{fill:#fff;}.cls-3{fill:#5b3b2f;}.cls-4{fill:#9b9692;opacity:0;}</style></defs><path class="cls-1" d="M129.69,32.13a18,18,0,0,0-1.93-2.79c-5-5.84-10.79-11-15.73-16.91a11.42,11.42,0,0,0-1.89-1.64,7.06,7.06,0,0,0-5.84-1c-2,.36-5.55.54-6.81-1.55a4.54,4.54,0,0,1-.52-2A13.86,13.86,0,0,1,97.07,3l-8.19.21a10.87,10.87,0,0,1,.13,3c-.19,1.93-.88,3-2.68,3.45-2.19.58-4.33,1.33-6.54,1.86-3,.7-4.7,2.32-5.18,5.17a102.32,102.32,0,0,0-1.06,12.48c-.24,5.36-.44,10.73-.66,16.09a4.11,4.11,0,0,1-.77,2.52c-3.25,4.11-4.47,9.08-5.74,14-.68,2.65-1.27,5.34-2,8-.43,1.67-1,3.29-1.5,4.92-.47,1.44-1.27,2.72-1.75,4.15a9.5,9.5,0,0,0-.57,3,4.86,4.86,0,0,0,.84,2.86,9.11,9.11,0,0,0,1.25,1.52,4.22,4.22,0,0,0,2.39,1c.36,0,1.32.18,1.36-.41h0c0-.26-.27-.45-.51-.45a3,3,0,0,1-1.32-.46l-.21-.12.21,0c.4-.07,2.68-.22,2.54-.79a.49.49,0,0,0-.06-.13c-.36-.47-2.08.33-3-.15a5.9,5.9,0,0,1-.83-.44l0,0a1.34,1.34,0,0,1-.21-.2h0a1.37,1.37,0,0,0,.17.17l-.14-.15a3.72,3.72,0,0,0,1.35.24,2,2,0,0,0,.69-.07h.13c.3-.07,1.28-.29,1.3-.61h0c0-.34-1-.09-1.19-.08a3.41,3.41,0,0,1-1.1-.12,3.66,3.66,0,0,1-.51-.21l-.4-.22a3.93,3.93,0,0,1-.42-.29h0l0,0a2.26,2.26,0,0,0,0-.26l0-.23c0-.16.05-.31.08-.47a1.42,1.42,0,0,1,0-.2c0-.22.11-.44.17-.65l0-.08c.08-.23.15-.46.23-.68,0-.06.06-.15.1-.27l0-.07v0c0-.07.05-.13.08-.19a5.09,5.09,0,0,1,.43-.84c.2-.23.34-.32.45-.33a.28.28,0,0,1,.18.1.26.26,0,0,1,0,.09,1.91,1.91,0,0,1,.08.65c0,.27-.11,1.12-.13,2,0,.07,0,.14,0,.21v.15c0,1,.19,1.81.81,1.67.3-.07.35-.31.34-.57s0-.31,0-.43a2.37,2.37,0,0,1,.21-.91c.24-.57.25-1,.53-1.57a7.05,7.05,0,0,0,.76-3.31h0c0-.91-.3-1.7-.34-2.52a3,3,0,0,1,.3-1.5h0c1.89-3.8,3.88-8.46,5.92-12.17a37.8,37.8,0,0,0,4.85-14.26c.59-4.29,2.56-11.6,3-15.94.54,1.65.8,6.28,1.33,7.89,2,6.28,4.48,12.38,1.44,16.74a8.26,8.26,0,0,0-.78,1.61c-2.4,5.88-6.21,8.95-5.81,15.29a124.28,124.28,0,0,0,2.2,15.58c1.53,8,3.15,15.93,4.69,23.89a39.27,39.27,0,0,1,.56,5.25,47.2,47.2,0,0,0,.5,8.56c2,10.07,4.52,20,7,30,1.34,5.35,2.66,10.69,1.34,16.27a19.83,19.83,0,0,0-.34,3.19c-.21,3.14,1.38,5.36,3.79,7.08a2.79,2.79,0,0,0,4.09-.74,6.47,6.47,0,0,0,1.22-3.86,32.06,32.06,0,0,0-1.64-9.67c-.68-2.36-.68-4.85-1.7-7.17-.48-1.12-1.11-2.65-.1-3.93,3.79-4.79.76-10.11.34-15.17,0-.16-.18-.31-.24-.48a1.94,1.94,0,0,1-.19-.86c.44-2.77.5-5.4.91-8.19.94-6.4,1-13.2-.89-19.56a19.11,19.11,0,0,1,.93-13.44,118,118,0,0,0,4.45-12,75.72,75.72,0,0,0,3.48-16.25c.52-6.21-1.15-14.26-3.67-20.16a.1.1,0,0,1,0-.1h.11c1.37,1,3.76,3.05,4.92,4.08s2.43.45,3.81-.26c2.32-1.2,4.13-3,6.08-4.69,4.33-3.69,7.81-7,10.51-12.11A4.59,4.59,0,0,0,129.69,32.13Zm-6.64,3.27c-3.52,3.1-5.42,7.4-8.16,11.07s-3.61,4.62-6.62,1c-1.15-1.38-2.45-3.56-4.08-4.71h0a5.43,5.43,0,0,0-.77-.44,1.3,1.3,0,0,1-.66-1.39c.43-2.1.76-4.23,1.32-6.3a55.39,55.39,0,0,1,2-6.86,5.36,5.36,0,0,0,.31-3.34,2,2,0,0,1,.66-2.26c.86-.62,1.64,0,2.27.47a53.75,53.75,0,0,1,4.87,3.7c2.74,2.75,5.7,5.26,8.59,7.84C123.18,34.53,123.71,34.82,123.05,35.4Z"/><path class="cls-2" d="M109.37,51.51a133.38,133.38,0,0,1,6,26.89c1.2,11.06.67,22.2,1,33.3.26,10.73,2.06,21.34,4,31.87,1.45,7.89,1.54,19.16,9.45,23.67,2.59,1.48,5.23,4.69,4.17,7.86-1.15,3.45-5.91,3.93-9.08,4.29s-6.38.14-9.56.47c-7.78.79-14.6,4-22.55,2.93-5.54-.72-11.37-1.25-17.06-1.5-4.51-.19-11.2,1-14.75-2.54-3.14-3.13-2.73-6.93,1.3-8.8,5.36-2.47,8.39-6.57,10.35-12,7-19.46,8.32-39.34,4.88-59.65-.86-5-1.55-10.12-2.29-15.18l-.3-3.43-.16-6.85a.16.16,0,0,1,0-.07c.9-10,2.32-20,6.44-29.26a7.65,7.65,0,0,0,.26-5c-6.24-16.71.44-17.44-1-25.12a2.3,2.3,0,0,1,1.61-2.7c.77-.3,3.36-1,3.58.12a5.61,5.61,0,0,0,2,3.67,7.45,7.45,0,0,0,3.84,1.62c2.89.34,6.87-.66,8.49-3.28.56-.9.74-2.26,1.77-2.79.59-.31,3.52-.82,3.64.11a4.51,4.51,0,0,1-.27,1.39,18.31,18.31,0,0,0-.91,5.79c-.1,2,1.07,4.07,1.61,5.95.76,2.62-.76,5.59-.89,6.56a26.06,26.06,0,0,0-.29,7.63c.68,4.23,2.91,8.37,4.28,12.44Z"/><path class="cls-3" d="M96,184a25.57,25.57,0,0,1-3.35-.22c-5.65-.74-11.52-1.25-17-1.49-1,0-2.06,0-3.21,0-4.28.1-9.14.2-12.2-2.84a6.77,6.77,0,0,1-2.3-5.92,6.32,6.32,0,0,1,3.88-4.49c4.73-2.19,7.76-5.71,9.83-11.42,6.71-18.57,8.33-38.47,4.83-59.14-.64-3.8-1.2-7.68-1.74-11.42-.19-1.26-.37-2.53-.55-3.79l-.31-3.49-.17-6.91s0-.14,0-.18C74.59,63,76,52.78,80.25,43.13a6.71,6.71,0,0,0,.24-4.2c-4.09-10.92-2.75-15.41-1.67-19a11.9,11.9,0,0,0,.64-6.28,3.29,3.29,0,0,1,2.23-3.81c.11,0,2.71-1,4.09-.28a1.63,1.63,0,0,1,.84,1.14,4.63,4.63,0,0,0,1.61,3.09,6.39,6.39,0,0,0,3.32,1.39c2.65.32,6.18-.65,7.52-2.81a5.42,5.42,0,0,0,.39-.83,4.11,4.11,0,0,1,1.77-2.32c.57-.3,3.07-.87,4.28-.25a1.46,1.46,0,0,1,.81,1.11A5.07,5.07,0,0,1,106,12a17.88,17.88,0,0,0-.84,5.49,10.14,10.14,0,0,0,.92,3.76c.23.61.47,1.24.65,1.86.65,2.26-.13,4.65-.6,6.08a8.06,8.06,0,0,0-.26.9,25.25,25.25,0,0,0-.29,7.33,38.17,38.17,0,0,0,2.6,8c.57,1.4,1.16,2.85,1.64,4.27l.51,1.55h0a133,133,0,0,1,6.06,27.1,219.27,219.27,0,0,1,.85,22.85c0,3.45,0,7,.1,10.52.26,10.72,2.11,21.54,4,31.72.26,1.39.47,2.85.69,4.4,1,7.08,2.16,15.1,8.27,18.58,3.19,1.82,5.81,5.51,4.63,9-1.33,4-6.37,4.56-9.71,4.94l-.2,0c-1.69.2-3.4.23-5,.26s-3,.06-4.54.21a69,69,0,0,0-8.17,1.5A51.16,51.16,0,0,1,96,184Zm-21.51-3.73,1.28,0c5.5.24,11.43.76,17.14,1.51,4.85.64,9.25-.35,13.91-1.4a70.77,70.77,0,0,1,8.41-1.54c1.57-.16,3.16-.19,4.7-.22s3.26-.06,4.85-.24l.21,0c3-.34,7.11-.81,8-3.58.83-2.49-1.3-5.3-3.72-6.68-7-4-8.18-12.51-9.26-20-.22-1.53-.42-3-.67-4.32-1.88-10.25-3.75-21.17-4-32-.09-3.52-.1-7.1-.1-10.57a217.58,217.58,0,0,0-.84-22.64,131.69,131.69,0,0,0-6-26.68h0l-.51-1.54c-.46-1.37-1-2.73-1.6-4.16a40.53,40.53,0,0,1-2.72-8.44,27.34,27.34,0,0,1,.28-7.92,8,8,0,0,1,.35-1.25c.42-1.29,1.06-3.24.58-4.91-.16-.54-.37-1.11-.6-1.71a11.72,11.72,0,0,1-1-4.56,19.39,19.39,0,0,1,1-6.1,4.52,4.52,0,0,0,.16-.56,6.54,6.54,0,0,0-2.14.31c-.37.19-.59.74-.84,1.31a7,7,0,0,1-.53,1.11c-1.84,3-6.15,4.14-9.46,3.75A8.49,8.49,0,0,1,87,15.32a6.41,6.41,0,0,1-2.25-4.05,6,6,0,0,0-2.28.43c-1.2.47-1,1.31-1,1.58a13.81,13.81,0,0,1-.69,7.21c-1,3.49-2.23,7.45,1.62,17.74a8.67,8.67,0,0,1-.28,5.71c-4.15,9.38-5.51,19.45-6.37,28.94l.17,6.8.29,3.37c.18,1.2.36,2.47.55,3.73.54,3.74,1.1,7.6,1.74,11.38,3.55,21,1.9,41.25-4.93,60.15-2.23,6.17-5.68,10.15-10.87,12.55a4.34,4.34,0,0,0-2.75,3A4.87,4.87,0,0,0,61.65,178c2.45,2.45,6.86,2.35,10.75,2.26Z"/><path class="cls-3" d="M77.55,94a22.29,22.29,0,0,1,3.2,4.15c.48.72.86,1.48,1.29,2.21l1.14,2.28a57.94,57.94,0,0,1,3.4,9.51,82.91,82.91,0,0,1,2,9.84c.22,1.66.4,3.32.59,5l.34,5v-.09a11,11,0,0,1,.12,1.42l.06,1.34.1,2.67.16,5.35.26,10.7-.59-10.69-.32-5.33-.18-2.67L89,133.37c0-.42-.07-.93-.13-1.25l0-.08-.5-4.95c-.25-1.64-.48-3.28-.75-4.91a80.81,80.81,0,0,0-2.31-9.63,56.11,56.11,0,0,0-3.62-9.16l-1.16-2.15c-.44-.68-.83-1.4-1.3-2.06a21.36,21.36,0,0,0-3-3.65l-.07-.06a1,1,0,0,1,0-1.42,1,1,0,0,1,1.41,0Z"/><path class="cls-3" d="M115.76,73.56a67.05,67.05,0,0,1,.06,15.25,53.09,53.09,0,0,1-3.7,14.74c-1,2.35-2,4.63-2.92,7a34.5,34.5,0,0,0-2.17,7.13c-.86,4.93-.53,10-.26,15-.43-5-.94-10.05-.23-15.08a34.78,34.78,0,0,1,2-7.33c.86-2.38,1.83-4.7,2.69-7a52.43,52.43,0,0,0,3.14-14.52,65.2,65.2,0,0,0-.55-14.84,1,1,0,1,1,2-.3Z"/><path class="cls-3" d="M81.71,41.32a55.25,55.25,0,0,0,11.65.51,37.88,37.88,0,0,0,5.7-.76c1.91-.35,3.75-1,5.72-1.48a17.7,17.7,0,0,1-5.29,3,21.64,21.64,0,0,1-2.95.86,24.1,24.1,0,0,1-3,.4,22.64,22.64,0,0,1-6.1-.4A17.53,17.53,0,0,1,81.71,41.32Z"/><rect class="cls-4" width="186" height="186"/></svg>