<svg id="图层_1" data-name="图层 1" xmlns="http://www.w3.org/2000/svg" viewBox="0 0 186 186"><defs><style>.cls-1{fill:#fbe8ef;}.cls-2{fill:#fae7ee;}.cls-3{fill:#fff;}.cls-4{fill:#5b3b2f;}.cls-5{fill:#9b9692;opacity:0;}</style></defs><path class="cls-1" d="M64.91,173.84c2.6-.39,6-.66,8.42.53,0,2.21.25,8.76-3.33,8.63a5.45,5.45,0,0,1-4.16-2.73C64.71,178.44,64.73,175.91,64.91,173.84Z"/><path class="cls-1" d="M121.71,173.14c-2.61-.42-6-.71-8.43.57,0,2.38-.25,9.43,3.34,9.29a5.4,5.4,0,0,0,4.15-2.94C121.91,178.09,121.88,175.37,121.71,173.14Z"/><path class="cls-2" d="M100.47,85.14a74.19,74.19,0,0,0,3.43-16c.51-6.11-1.13-14-3.61-19.85,0,0,0-.07,0-.1h.11c1.35,1,3.7,3,4.85,4s2.39.44,3.75-.26a32.87,32.87,0,0,0,6-4.62c4.27-3.63,7.7-6.88,10.36-11.93a4.53,4.53,0,0,0,.19-4.68A18.22,18.22,0,0,0,123.65,29c-5-5.76-10.63-10.83-15.49-16.67a11.58,11.58,0,0,0-1.87-1.61,6.91,6.91,0,0,0-5.74-1c-1.94.36-5.48.53-6.71-1.53a4.41,4.41,0,0,1-.52-1.93A14.56,14.56,0,0,1,93.42,3l-8.06.21a10.92,10.92,0,0,1,.12,2.92c-.19,1.9-.86,2.92-2.64,3.4-2.15.57-4.27,1.31-6.44,1.83-2.91.69-4.63,2.29-5.1,5.1a101,101,0,0,0-1,12.29C70,34,69.82,39.32,69.6,44.6a4.05,4.05,0,0,1-.76,2.49c-3.2,4-4.4,8.93-5.65,13.76-.68,2.62-1.25,5.26-1.94,7.88-.43,1.64-1,3.23-1.48,4.84C59.31,75,58.52,76.25,58,77.66a9.52,9.52,0,0,0-.56,3,4.8,4.8,0,0,0,.83,2.82A9.36,9.36,0,0,0,59.54,85a4.14,4.14,0,0,0,2.36,1c.36.05,1.3.18,1.34-.4h0c0-.26-.27-.44-.5-.45a3,3,0,0,1-1.3-.44l-.21-.13.21,0c.39-.06,2.63-.22,2.49-.78a.17.17,0,0,0-.06-.12c-.35-.46-2,.32-3-.15a4.81,4.81,0,0,1-.81-.44l0,0a1.19,1.19,0,0,1-.2-.19h0a.85.85,0,0,0,.17.16l-.14-.15a3.4,3.4,0,0,0,1.32.24,2.23,2.23,0,0,0,.69-.06l.12,0c.3-.07,1.26-.28,1.28-.59h0c0-.33-1-.09-1.17-.07a3.3,3.3,0,0,1-1.08-.13,3.47,3.47,0,0,1-.5-.2c-.13-.06-.26-.14-.4-.22a3,3,0,0,1-.41-.28h0l0,0a2.18,2.18,0,0,0,0-.25l0-.24c0-.15.05-.3.08-.45a1.18,1.18,0,0,1,0-.2c0-.22.1-.44.17-.65l0-.07c.07-.23.14-.46.23-.68,0,0,0-.14.09-.26l0-.07v0c0-.07.05-.13.08-.19a4.3,4.3,0,0,1,.42-.83c.19-.23.34-.32.44-.33a.33.33,0,0,1,.18.1.26.26,0,0,1,0,.09,1.86,1.86,0,0,1,.08.64c0,.26-.11,1.1-.12,1.94v.35c0,1,.19,1.79.8,1.65.3-.07.35-.31.34-.56s0-.3,0-.43a2.28,2.28,0,0,1,.21-.89c.24-.56.25-1,.52-1.55a6.82,6.82,0,0,0,.75-3.26h0c0-.9-.3-1.68-.33-2.48a2.82,2.82,0,0,1,.3-1.48h0C66,67.7,68,63.11,70,59.46a37.32,37.32,0,0,0,4.77-14.05C75.34,41.19,77.28,34,77.7,29.7c.53,1.63.79,6.19,1.31,7.78,2,6.19,4.41,12.19,1.41,16.48a8.3,8.3,0,0,0-.76,1.59m15.92,83.29M119,34.92c-3.47,3-5.33,7.29-8,10.91s-3.56,4.54-6.53,1c-1.13-1.36-2.41-3.51-4-4.65h0a4.74,4.74,0,0,0-.75-.44A1.28,1.28,0,0,1,99,40.34c.43-2.08.76-4.18,1.31-6.21a53.74,53.74,0,0,1,2-6.76,5.21,5.21,0,0,0,.31-3.29,2,2,0,0,1,.65-2.23c.85-.61,1.61,0,2.23.47A51,51,0,0,1,110.27,26c2.7,2.71,5.61,5.19,8.46,7.73C119.14,34.06,119.66,34.35,119,34.92Z"/><path class="cls-3" d="M93.87,100.56c-1,13.13-2,25.18-2.93,38.31-.7,9.6-1.39,19.21-2,28.81-.22,3.48-1.92,5.61-5.17,5.89-8.35.74-16.68.91-24.9-1.48-4-1.18-5.12-3.62-4.34-7.71,7-37.11,14.94-74,25.39-110.27,1.7-5.87,0-13.42-1.43-18.68-1.3-4.92-.07-7.17.66-12.31a31.09,31.09,0,0,0-.58-10.77c-.57-1.81,4.63-3.09,4.89-1.77,1.19,6.17,11.28,6.11,14.94.14.67-1.1,2.34-.9,3.39-.53,1.24.43.79,2,.9,3.09.19,1.91.06,4.9.68,6.69,2.29,6.69,2.21,9,.39,13.53-1.37,3.42-.54,7.19.75,10.5,9.87,25.2,15.77,51.53,20.57,78.14,2.4,13.29,4.12,26.72,6.41,40,.78,4.53-.59,7.2-4.63,8.8a44.57,44.57,0,0,1-22.37,2.57c-4.07-.52-6.65-2.7-6.82-7.76-.94-28.64-2.55-65.18-2.57-65.18-.21,0-.64-26.84-.64-26.84S94.07,100.57,93.87,100.56Z"/><path class="cls-4" d="M74.05,175.07a54.82,54.82,0,0,1-15.46-2c-4.35-1.27-6-4.08-5-8.85C62,119.49,69.85,85.45,79,53.84c1.56-5.42.06-12.54-1.43-18.15-1-3.88-.56-6.26,0-9.27.19-1,.42-2.14.6-3.44a30.17,30.17,0,0,0-.55-10.33,2,2,0,0,1,.59-2.1,6.11,6.11,0,0,1,5-1.38,1.6,1.6,0,0,1,1.2,1.22,4.75,4.75,0,0,0,4.15,3.69,8.94,8.94,0,0,0,9-3.88c.95-1.55,3-1.51,4.58-1s1.58,2.19,1.55,3.16a6.6,6.6,0,0,0,0,.78c.06.62.09,1.36.12,2.13a17.8,17.8,0,0,0,.5,4.34c2.28,6.65,2.35,9.31.38,14.22-1,2.61-.8,5.8.75,9.76,10.61,27.09,16.38,54.8,20.62,78.33,1.31,7.23,2.43,14.62,3.52,21.76.91,6,1.85,12.21,2.9,18.28.86,5-.81,8.14-5.25,9.9a45.61,45.61,0,0,1-22.86,2.63c-4.94-.63-7.53-3.56-7.7-8.72C96,144.19,94.89,118.56,94.39,107c-.28,3.69-.57,7.31-.85,10.93-.54,6.94-1.08,13.84-1.6,21.06-.71,9.69-1.39,19.18-2,28.81-.26,4.07-2.42,6.49-6.08,6.82C80.68,174.85,77.4,175.07,74.05,175.07ZM82.28,11a4.86,4.86,0,0,0-1.84.41c-.68.29-.9.58-.92.65.88,2.72,1,8.16.62,11.16-.19,1.35-.42,2.52-.62,3.54-.58,3-1,4.94-.06,8.38,1.65,6.22,3.11,13.36,1.43,19.21C71.79,85.94,64,119.92,55.51,164.57c-.72,3.8.27,5.58,3.64,6.56,8.36,2.44,16.73,2.14,24.54,1.45,2.66-.24,4.06-1.86,4.25-5,.61-9.64,1.3-19.13,2-28.82.53-7.23,1.07-14.14,1.61-21.07.44-5.66.88-11.34,1.32-17.24l0-.19c.15-1.41.42-16.56.56-26.56a1,1,0,0,1,1-1h0a1,1,0,0,1,1,1c.16,10.15.46,25.61.61,26.64h0a14,14,0,0,1,.14,1.79l.2,4.53c.17,3.88.4,9.34.66,15.7.47,11.44,1.13,28.25,1.63,43.34.14,4.19,2,6.29,6,6.8A43.75,43.75,0,0,0,126.49,170c3.55-1.41,4.72-3.63,4-7.7-1-6.09-2-12.31-2.91-18.32-1.08-7.13-2.21-14.5-3.51-21.7-4.22-23.44-10-51-20.51-78-1.74-4.46-2-8.13-.74-11.23,1.69-4.22,1.82-6.29-.42-12.83a18.92,18.92,0,0,1-.61-4.91c0-.73-.06-1.42-.11-2a6.87,6.87,0,0,1,0-1c0-1,0-1.17-.22-1.23-.85-.3-1.92-.36-2.21.11a11,11,0,0,1-11,4.8,6.73,6.73,0,0,1-5.7-5Z"/><polygon class="cls-4" points="71.83 173.9 84.45 97.05 73.81 174.2 71.83 173.9"/><polygon class="cls-4" points="103.8 81.07 117.33 173.5 115.35 173.76 103.8 81.07"/><path class="cls-4" d="M80.58,50.39c2.27.06,4.48.07,6.68,0,1.1,0,2.2-.08,3.28-.18l1.62-.15,1.61-.22A31.51,31.51,0,0,0,100,48.25a24.9,24.9,0,0,0,5.66-3.31,13.85,13.85,0,0,1-5,4.72,21,21,0,0,1-6.6,2.17A27.35,27.35,0,0,1,87.2,52,23.86,23.86,0,0,1,80.58,50.39Z"/><path class="cls-4" d="M84.45,39.07a25.58,25.58,0,0,1,1.9,5.84A34.13,34.13,0,0,1,87,51a28.25,28.25,0,0,1-.55,6.16,21.21,21.21,0,0,1-2,5.81c.34-2,.72-4,.86-6a51.62,51.62,0,0,0,.21-6A90.8,90.8,0,0,0,84.45,39.07Z"/><path class="cls-4" d="M97.89,60.17a16.86,16.86,0,0,1-1.63-4.84,30.8,30.8,0,0,1-.6-5,39.09,39.09,0,0,1,.12-5.08,29.47,29.47,0,0,1,.85-5c.11.85.15,1.69.2,2.53s.09,1.67.12,2.51c.09,1.66.11,3.32.2,5s.15,3.31.26,5S97.66,58.48,97.89,60.17Z"/><rect class="cls-5" width="186" height="186"/></svg>