<svg id="图层_1" data-name="图层 1" xmlns="http://www.w3.org/2000/svg" viewBox="0 0 186 186"><defs><style>.cls-1{fill:#fae7ee;}.cls-2{fill:#fff;}.cls-3{fill:#5b3b2f;}.cls-4{fill:#9b9692;opacity:0;}</style></defs><path class="cls-1" d="M97.61,179.13a32.88,32.88,0,0,0-1.67-9.8c-.69-2.4-.69-4.91-1.72-7.26-.49-1.14-1.12-2.69-.1-4,3.83-4.85.77-10.25.34-15.37,0-.16-.18-.31-.24-.48a2.2,2.2,0,0,1-.2-.88c.46-2.8.52-5.47.93-8.29,1-6.49,1-13.38-.91-19.83A19.37,19.37,0,0,1,95,99.62,121.94,121.94,0,0,0,99.5,87.48,76.54,76.54,0,0,0,103,71c.53-6.29-1.16-14.45-3.71-20.42a.08.08,0,0,1,0-.1h.11c1.38,1,3.8,3.1,5,4.14s2.45.46,3.85-.26a34,34,0,0,0,6.16-4.76c4.39-3.74,7.91-7.07,10.66-12.27a4.67,4.67,0,0,0,.19-4.82,19.8,19.8,0,0,0-2-2.83c-5.09-5.91-10.93-11.13-15.94-17.13a11.81,11.81,0,0,0-1.92-1.66,7.11,7.11,0,0,0-5.91-1c-2,.37-5.62.54-6.9-1.57a4.67,4.67,0,0,1-.53-2A14.27,14.27,0,0,1,92.25,3L84,3.21a11.18,11.18,0,0,1,.13,3c-.19,2-.89,3-2.71,3.49-2.22.6-4.4,1.35-6.63,1.89-3,.71-4.76,2.35-5.25,5.24a102.78,102.78,0,0,0-1.07,12.64c-.25,5.43-.45,10.87-.67,16.31A4.17,4.17,0,0,1,67,48.34c-3.29,4.16-4.52,9.19-5.8,14.16-.7,2.69-1.29,5.41-2,8.1-.44,1.69-1,3.33-1.53,5-.47,1.46-1.28,2.76-1.77,4.21a9.75,9.75,0,0,0-.58,3.08,4.9,4.9,0,0,0,.86,2.89A8.92,8.92,0,0,0,57.4,87.3a4.21,4.21,0,0,0,2.42,1c.37.05,1.34.19,1.38-.4h0c0-.28-.27-.46-.51-.47A2.94,2.94,0,0,1,59.35,87l-.22-.12.22,0c.41-.07,2.71-.23,2.57-.8a.38.38,0,0,0-.06-.13c-.37-.48-2.11.33-3.07-.15a6.05,6.05,0,0,1-.84-.45l0,0a1,1,0,0,1-.21-.19h0a1.37,1.37,0,0,0,.17.17l-.14-.16a3.58,3.58,0,0,0,1.36.25,2.14,2.14,0,0,0,.71-.07l.13,0c.3-.07,1.29-.28,1.31-.61h0c0-.34-1-.1-1.2-.08A3.19,3.19,0,0,1,59,84.56a4.65,4.65,0,0,1-.52-.2l-.41-.23a3.13,3.13,0,0,1-.42-.29h0l0,0a2.17,2.17,0,0,1,0-.26l0-.24c0-.16,0-.32.08-.47a1.55,1.55,0,0,1,0-.21c.05-.22.11-.44.17-.66l0-.08c.07-.23.14-.46.23-.69,0,0,.05-.15.1-.27l0-.07,0,0c0-.07,0-.13.08-.19a4.61,4.61,0,0,1,.43-.86c.2-.23.35-.32.46-.33a.33.33,0,0,1,.18.1.23.23,0,0,1,.05.1,2,2,0,0,1,.09.65c0,.27-.12,1.14-.13,2a1.47,1.47,0,0,0,0,.21v.15c0,1,.2,1.83.82,1.69.31-.06.36-.31.35-.57s0-.31,0-.44a2.26,2.26,0,0,1,.22-.92,16.5,16.5,0,0,1,.54-1.59,7.21,7.21,0,0,0,.76-3.35h0c0-.93-.3-1.73-.34-2.55a3,3,0,0,1,.31-1.53h0c1.91-3.84,3.92-8.57,6-12.32a38.68,38.68,0,0,0,4.91-14.45c.59-4.35,1.69-12.79,2.12-17.19.54,1.68,1.71,7.4,2.24,9,2.08,6.36,1.3,11.65-1,18.28-.2.57.52,5.63.3,6.19-2.44,6-3.84,4.35-3.43,10.77.34,5.3.17,9.41,1.17,14.63,1.56,8.07,3.2,16.13,4.75,24.2a40.32,40.32,0,0,1,.57,5.32,49.54,49.54,0,0,0,.51,8.68c2.06,10.19,4.58,20.28,7.11,30.37,1.36,5.41,2.69,10.83,1.36,16.47a19.46,19.46,0,0,0-.34,3.25M118.56,35.83C115,39,113.08,43.32,110.3,47.05s-3.66,4.67-6.71,1c-1.16-1.4-2.48-3.61-4.14-4.78h0a5.51,5.51,0,0,0-.77-.45A1.3,1.3,0,0,1,98,41.4c.43-2.13.77-4.29,1.34-6.39a54.48,54.48,0,0,1,2-6.94,5.39,5.39,0,0,0,.31-3.39,2,2,0,0,1,.67-2.29c.88-.63,1.66,0,2.3.48a53.78,53.78,0,0,1,4.94,3.74c2.78,2.8,5.77,5.34,8.7,8C118.7,34.94,119.23,35.24,118.56,35.83Z"/><path class="cls-2" d="M94.09,182c-5.77,0-11.6-.27-17.34-.79a76.17,76.17,0,0,1-8.37-1.42A79.71,79.71,0,0,0,60,178.35c-.77-.07-1.61-.11-2.71-.11l-1.48,0H54.37a14.45,14.45,0,0,1-6.17-1c-3.7-1.75-3.3-6.15-2.73-8.61,1.06-4.64,2.42-9.3,3.74-13.81.79-2.73,1.61-5.55,2.36-8.34.69-2.57,1.27-5.2,1.83-7.75.26-1.16.51-2.32.78-3.48l4-14.13q5.91-20.9,11.79-41.8c.84-3,3.22-10.3,3.24-10.38l-.22.28c.37-.76,1.34-3.91,6-18.95a56.07,56.07,0,0,0,10.37,1,47.09,47.09,0,0,0,10-1c.84,1.41,2.52,6.8,3.1,8.67.25.83.44,1.44.53,1.67,1.77,4.79,3.51,9.68,5.2,14.41l.16.44c.72,2,1.46,4.08,2.2,6.11,1.25,3.42,2.54,7,3.73,10.45l.73,2.15c2.65,7.81,5.4,15.88,8,23.85,6.09,18.59,12.12,37.38,17.45,54,.53,1.67.6,2.81.22,3.48-.53.91-2.15,1.26-4.2,1.71l-1.22.27a174.49,174.49,0,0,1-19.08,3.32A188.9,188.9,0,0,1,94.09,182Z"/><path class="cls-3" d="M98.78,51.36c.85,1.88,2.2,6.23,2.69,7.82.3,1,.46,1.46.55,1.73,1.77,4.78,3.51,9.67,5.2,14.4l.15.44q1.09,3.06,2.22,6.12c1.24,3.41,2.52,6.94,3.71,10.43l.73,2.14c2.66,7.81,5.4,15.88,8,23.85,6.07,18.5,12.11,37.33,17.44,54,.62,1.91.4,2.52.31,2.67-.3.53-2,.9-3.54,1.24l-1.23.27a175.48,175.48,0,0,1-19,3.3,189,189,0,0,1-22,1.28c-5.74,0-11.54-.26-17.25-.79a73,73,0,0,1-8.25-1.4,81.36,81.36,0,0,0-8.45-1.45,28,28,0,0,0-2.81-.12l-1.5,0H54.37a13.2,13.2,0,0,1-5.74-.92c-2.91-1.37-2.8-4.82-2.19-7.48,1.06-4.6,2.42-9.25,3.73-13.75.79-2.73,1.61-5.56,2.37-8.36.69-2.59,1.27-5.23,1.84-7.79.25-1.14.5-2.28.76-3.42l4-14q5.92-21,11.83-42c.84-3,3.21-10.26,3.23-10.34h0c.11-.28.2-.57.29-.87l.68-2.21,2.06-6.71,2.47-8a59,59,0,0,0,9.67.8,49.48,49.48,0,0,0,9.48-.88m.85-2.23A46.25,46.25,0,0,1,89.3,50.24a53.44,53.44,0,0,1-11.06-1.11l-6,19.53h0S69.86,76,69,79.07q-7.87,28-15.8,56c-.86,3.73-1.6,7.5-2.6,11.19-2,7.41-4.39,14.72-6.11,22.19-.85,3.71-.55,7.92,3.28,9.73a15.27,15.27,0,0,0,6.6,1.11c1,0,2,0,3,0s1.76,0,2.62.11c5.65.56,11.09,2.34,16.71,2.85q8.69.8,17.43.8a191.33,191.33,0,0,0,22.19-1.29,175.77,175.77,0,0,0,19.19-3.34c4.56-1.06,7.71-1.15,5.92-6.74q-8.67-27-17.45-54c-2.85-8.69-5.8-17.35-8.75-26-1.89-5.55-4-11-5.93-16.57-1.77-5-3.53-9.93-5.36-14.86-.42-1.13-3.25-11.09-4.27-11.09Z"/><path class="cls-2" d="M87.67,45.13c-2.76,0-5.56,0-8.32-.11h0c0-.11-.08-.22-.13-.33a42.22,42.22,0,0,1-3.78-13.51c-.47-3.39-.79-6.85-1-10.28,0-.73-.06-1.45-.08-2.18,0-1,0-2-.12-2.93a4.36,4.36,0,0,1,.47-2.9,3.37,3.37,0,0,1,2.9-1.41,3.19,3.19,0,0,1,1.33.26,8.79,8.79,0,0,1,2.25,1.73,11.38,11.38,0,0,0,2.5,2,10.09,10.09,0,0,0,4.72,1.17h0a8.83,8.83,0,0,0,4.34-1.1,12.13,12.13,0,0,0,2.54-2.16c.46-.47.89-.91,1.31-1.26a5.72,5.72,0,0,1,2.57-1.49,10.27,10.27,0,0,1,1.71-.2,2,2,0,0,1,1.11.25c.06,0,.27.19.35.75a7.73,7.73,0,0,1-.08,2c0,.27-.07.53-.09.8a14,14,0,0,0,0,2.34l0,.77,0,.93c.07,1.86.14,3.78.11,5.66A56.22,56.22,0,0,1,100,40.47l-.11.35a34.27,34.27,0,0,1-1.5,4.12C94.79,45.07,91.21,45.13,87.67,45.13Z"/><path class="cls-3" d="M100.87,11.4h0a1.71,1.71,0,0,1,.45,0,.2.2,0,0,1,0,.09,7.23,7.23,0,0,1-.08,1.76c0,.27-.07.55-.1.82a15.87,15.87,0,0,0,0,2.49l0,.75,0,.95c.07,1.84.14,3.74.11,5.59A55.07,55.07,0,0,1,99,40.14l-.12.37c-.59,1.86-1,2.88-1.2,3.45-3.33.12-6.69.17-10,.17-2.55,0-5.14,0-7.7-.1a41.9,41.9,0,0,1-3.58-13c-.46-3.37-.78-6.8-.95-10.19,0-.72-.06-1.43-.08-2.15,0-1,0-2-.12-3a3.49,3.49,0,0,1,.33-2.33,2.42,2.42,0,0,1,2-.91,2.21,2.21,0,0,1,.91.17,7.77,7.77,0,0,1,2,1.54,12,12,0,0,0,2.72,2.14,11.08,11.08,0,0,0,5.19,1.29,9.81,9.81,0,0,0,4.84-1.23A12.89,12.89,0,0,0,96,14a16.41,16.41,0,0,1,1.23-1.18l.07,0a4.58,4.58,0,0,1,2-1.23,10,10,0,0,1,1.53-.18m0-2A11.74,11.74,0,0,0,99,9.61a6.57,6.57,0,0,0-3,1.71c-1.21,1-2.35,2.55-3.71,3.32a7.84,7.84,0,0,1-3.85,1,9.13,9.13,0,0,1-4.25-1.06c-1.87-1-2.86-2.83-4.8-3.73a4.24,4.24,0,0,0-1.75-.35,4.34,4.34,0,0,0-3.77,1.91,5.47,5.47,0,0,0-.6,3.47c.12,1.69.11,3.39.2,5.09.17,3.47.5,6.92,1,10.36a42.72,42.72,0,0,0,3.88,13.84c.12.24.14.55.35.71a1.18,1.18,0,0,0,.7.17q4.15.1,8.33.11,5.58,0,11.15-.21c.5,0,1.9-4.57,2.09-5.14a57.79,57.79,0,0,0,2.45-16.85c0-2.21-.07-4.43-.15-6.64a24.67,24.67,0,0,1,0-3,12.48,12.48,0,0,0,.17-3.05,2,2,0,0,0-.77-1.43,2.93,2.93,0,0,0-1.68-.43Z"/><path class="cls-3" d="M93,52.58c.61,6.51,1.44,13,2.31,19.44l2.76,19.39c.88,6.47,1.73,13,2.27,19.49a157,157,0,0,1,.57,19.64c-.53-6.53-1.3-13-2.12-19.47S97,98.15,96.09,91.68s-1.74-13-2.32-19.48A167,167,0,0,1,93,52.58Z"/><path class="cls-3" d="M85.42,108.26c.23,5.25.13,10.5-.09,15.75s-.62,10.48-1.18,15.71-1.32,10.44-2.43,15.59a75.74,75.74,0,0,1-2,7.66,25.3,25.3,0,0,1-3.4,7.13,31.24,31.24,0,0,0,2.46-7.4c.58-2.53,1-5.1,1.42-7.67s.77-5.16,1.08-7.75.64-5.18.91-7.78c.59-5.19,1.08-10.4,1.61-15.6S84.82,113.48,85.42,108.26Z"/><path class="cls-3" d="M63.82,143.59a66.52,66.52,0,0,1-1.3,8c-.56,2.63-1.27,5.23-2,7.81s-1.69,5.12-2.75,7.6a30.5,30.5,0,0,1-4,7.1c1-2.53,1.71-5.07,2.48-7.63l2.3-7.66c.8-2.55,1.59-5.1,2.45-7.64S62.77,146.09,63.82,143.59Z"/><path class="cls-3" d="M114.55,113.39c1.07,4.94,2,9.87,3,14.81s1.92,9.88,3,14.79q.74,3.7,1.53,7.38l.78,3.69c.29,1.22.56,2.44.83,3.67,1.13,4.9,2.31,9.77,3.65,14.65a101.53,101.53,0,0,1-5.16-14.26c-1.44-4.85-2.55-9.78-3.59-14.73s-1.84-9.93-2.52-14.93S114.8,118.44,114.55,113.39Z"/><path class="cls-3" d="M82.74,102.18c-.14,2.93-.41,5.82-.71,8.7s-.66,5.76-1,8.63l-1,8.59-1,8.65a45.77,45.77,0,0,1-.59-8.75,87.46,87.46,0,0,1,.62-8.73c.37-2.9.82-5.78,1.43-8.63A71.77,71.77,0,0,1,82.74,102.18Z"/><rect class="cls-4" width="186" height="186"/></svg>