<svg id="图层_1" data-name="图层 1" xmlns="http://www.w3.org/2000/svg" viewBox="0 0 186 186"><defs><style>.cls-1{fill:#fae7ee;}.cls-2{fill:#fff;}.cls-3{fill:#5b3b2f;}.cls-4{fill:#9b9692;opacity:0;}</style></defs><path class="cls-1" d="M136.29,32.07a17.32,17.32,0,0,0-1.93-2.79c-5-5.83-10.76-11-15.69-16.88a11.42,11.42,0,0,0-1.89-1.63c-1.69-1.28-3.65-1.39-5.82-1-1.95.36-5.54.53-6.79-1.55a4.41,4.41,0,0,1-.53-1.95A14.42,14.42,0,0,1,103.75,3l-8.17.21a11.22,11.22,0,0,1,.12,3c-.19,1.92-.87,3-2.67,3.44-2.18.59-4.33,1.33-6.52,1.86-3,.7-4.69,2.32-5.17,5.16a101.83,101.83,0,0,0-1.06,12.45c-.25,5.35-.45,10.71-.66,16.06a4.16,4.16,0,0,1-.77,2.51c-3.24,4.1-4.46,9.06-5.72,14-.69,2.65-1.27,5.32-2,8-.44,1.66-1,3.28-1.5,4.91-.46,1.44-1.27,2.72-1.75,4.14a9.78,9.78,0,0,0-.57,3,4.92,4.92,0,0,0,.84,2.85A9.12,9.12,0,0,0,69.43,86a4.22,4.22,0,0,0,2.38,1c.37,0,1.32.18,1.36-.4h0c0-.27-.27-.45-.5-.46a3,3,0,0,1-1.32-.45l-.22-.13.22,0c.4-.06,2.67-.22,2.53-.78a.38.38,0,0,0-.06-.13c-.36-.47-2.08.32-3-.15a7.16,7.16,0,0,1-.83-.44l0,0a1,1,0,0,1-.21-.19h0a1.37,1.37,0,0,0,.17.17L69.83,84a3.51,3.51,0,0,0,1.34.25,2.38,2.38,0,0,0,.7-.07l.12,0c.3-.07,1.28-.28,1.3-.6h0c0-.33-1-.08-1.19-.07A3.32,3.32,0,0,1,71,83.33a3.66,3.66,0,0,1-.51-.21l-.4-.22a2.42,2.42,0,0,1-.42-.29h0l0,0a2.18,2.18,0,0,0,0-.25l0-.24c0-.16,0-.31.08-.46a1.55,1.55,0,0,1,0-.21c0-.22.11-.43.17-.65l0-.08c.07-.23.15-.45.23-.68l.1-.26,0-.07v0c0-.07,0-.13.08-.19a3.91,3.91,0,0,1,.43-.84c.19-.23.34-.32.45-.33a.28.28,0,0,1,.18.1.73.73,0,0,1,0,.09,1.91,1.91,0,0,1,.08.65c0,.27-.12,1.12-.13,2v.35c0,1,.2,1.81.81,1.67.31-.07.35-.31.35-.57s0-.31,0-.43a2.37,2.37,0,0,1,.21-.91c.24-.56.25-1,.53-1.56a7,7,0,0,0,.76-3.3h0c0-.91-.3-1.71-.34-2.52a3,3,0,0,1,.3-1.5h0C76,68.54,78,63.88,80,60.19A37.94,37.94,0,0,0,84.85,46c.58-4.28,2.55-11.58,3-15.91.54,1.65.8,6.26,1.33,7.88,2,6.26,4.46,12.34,1.43,16.69a7.69,7.69,0,0,0-.77,1.61c-2.4,5.87-6.21,8.94-5.8,15.26A124,124,0,0,0,86.2,87c1.53,7.95,3.15,15.88,4.68,23.83a38.94,38.94,0,0,1,.56,5.24,47.9,47.9,0,0,0,.5,8.54c2,10,4.51,20,7,29.91,1.34,5.34,2.65,10.67,1.34,16.23A19.82,19.82,0,0,0,100,174c-.22,3.13,1.37,5.35,3.77,7.06a2.78,2.78,0,0,0,4.08-.74,6.37,6.37,0,0,0,1.22-3.85,32,32,0,0,0-1.64-9.65c-.67-2.35-.68-4.83-1.69-7.15-.48-1.11-1.11-2.65-.1-3.92,3.78-4.78.76-10.09.34-15.14,0-.16-.18-.31-.24-.47a2,2,0,0,1-.19-.86c.44-2.77.5-5.39.91-8.17.93-6.39,1-13.18-.89-19.53a19,19,0,0,1,.93-13.41,120.62,120.62,0,0,0,4.44-12A75,75,0,0,0,114.36,70c.52-6.19-1.15-14.23-3.66-20.11a.08.08,0,0,1,0-.1h.11c1.36,1,3.74,3.05,4.91,4.07s2.42.46,3.8-.25a33.27,33.27,0,0,0,6.06-4.69c4.33-3.68,7.8-7,10.5-12.08A4.57,4.57,0,0,0,136.29,32.07Zm-6.63,3.26c-3.51,3.09-5.4,7.38-8.13,11.05s-3.61,4.6-6.61,1c-1.15-1.38-2.44-3.55-4.08-4.7h0a4.83,4.83,0,0,0-.76-.44,1.29,1.29,0,0,1-.66-1.38c.43-2.1.76-4.23,1.32-6.29a52.92,52.92,0,0,1,2-6.84,5.29,5.29,0,0,0,.31-3.34,2,2,0,0,1,.66-2.25c.86-.62,1.63,0,2.26.47a50.6,50.6,0,0,1,4.87,3.69c2.73,2.74,5.68,5.25,8.57,7.82C129.8,34.46,130.32,34.75,129.66,35.33Z"/><path class="cls-2" d="M95.38,182a30,30,0,0,1-7.56-1l-1.36-.3a41.68,41.68,0,0,0-9.18-.94c-2.64,0-5.27.19-7.81.37s-5.33.39-8.14.39h-.66a37,37,0,0,1-6.22-.51c-2.94-.52-4.27-1.78-4.32-4.08-.06-2.55,1.09-4.07,3.64-4.79.55-.15,1.08-.35,1.59-.54a10.53,10.53,0,0,1,2.06-.64c6.29-1,11-4.83,14.37-11.61,7.06-14.19,12-29.41,16.77-44.13q1-3.15,2-6.3c.89-2.73-.18-5.22-1.12-7.42l-.17-.41A67.72,67.72,0,0,1,83.48,75.6c0-7.12,2.66-15,5-21.9l.27-.81c1.62-4.79,2.76-9.14.35-13.86-2-3.9-4-7.93-3.1-12.38.19-.9.41-1.77.61-2.63a34,34,0,0,0,1.17-6.65c0-.46,0-.94,0-1.41a11,11,0,0,1,.32-3.25,2,2,0,0,1,1-1.19,8.88,8.88,0,0,1,2.35-.76l.18,0a2.85,2.85,0,0,1,.57-.08c.26,0,.31,0,.75.79a10.73,10.73,0,0,0,.81,1.3,7.67,7.67,0,0,0,6,3.39,5.58,5.58,0,0,0,.7,0,8.71,8.71,0,0,0,5.08-2.68,7.92,7.92,0,0,0,1-1.53,5.67,5.67,0,0,1,.8-1.19,2.13,2.13,0,0,1,1.33-.27h.8l.61,0,.35,0c.88,0,1.16.31,1.31.58a4.42,4.42,0,0,1,.46,2.45,20.35,20.35,0,0,0,.83,6.89,18.19,18.19,0,0,1,.76,6.57,53.11,53.11,0,0,1-1.45,6.66c-.29,1.07-.57,2.14-.81,3.2-.13.54-.3,1.08-.49,1.66-.56,1.75-1.2,3.73-.33,5.92a19,19,0,0,0,2.74,5.38,24.21,24.21,0,0,1,2.09,3.67A58.3,58.3,0,0,1,119,64.13a71.31,71.31,0,0,1,.69,22.29c-3.11,26.87-2.69,55.59,1.27,87.82.37,3,.17,4.7-.65,5.71s-2.17,1.43-4.47,1.61l-1.68.15c-1.42.13-2.88.27-4.31.27h-.31a9.45,9.45,0,0,1-2.54-.26,9.94,9.94,0,0,1-1-.37,7.63,7.63,0,0,0-2.11-.62l-.62,0a13.19,13.19,0,0,0-3.61.68,12.09,12.09,0,0,1-2.86.6Z"/><path class="cls-3" d="M110.54,11.38c.33,0,.44.06.44.07a3.33,3.33,0,0,1,.33,1.86,21.48,21.48,0,0,0,.85,7.22,17.18,17.18,0,0,1,.74,6.22,50.83,50.83,0,0,1-1.42,6.53c-.28,1.06-.57,2.14-.82,3.22a16.11,16.11,0,0,1-.46,1.58c-.58,1.81-1.3,4-.33,6.54a20.11,20.11,0,0,0,2.85,5.62,22.81,22.81,0,0,1,2,3.51A57.54,57.54,0,0,1,118,64.33a69.9,69.9,0,0,1,.67,22c-3.11,27-2.7,55.76,1.28,88.06.32,2.62.18,4.2-.44,5s-1.79,1.09-3.77,1.24l-1.69.15c-1.46.14-2.84.27-4.21.27h-.3a8.6,8.6,0,0,1-2.28-.22c-.26-.08-.57-.2-.88-.33a8.54,8.54,0,0,0-2.41-.7c-.23,0-.47,0-.71,0a13.93,13.93,0,0,0-3.89.72,10.74,10.74,0,0,1-2.62.56l-1.33,0A29.15,29.15,0,0,1,88,180l-1.35-.3a42.53,42.53,0,0,0-9.4-1c-2.67,0-5.32.19-7.88.37s-5.3.39-8.07.39h-.65a36.21,36.21,0,0,1-6.06-.49c-3.17-.57-3.46-1.91-3.49-3.13-.05-2.07.82-3.2,2.92-3.8.59-.16,1.13-.37,1.66-.57a11.13,11.13,0,0,1,1.88-.59c6.62-1.08,11.56-5.06,15.09-12.15,7.1-14.25,12-29.51,16.83-44.27.68-2.1,1.36-4.19,2-6.29,1-3.09-.14-5.77-1.15-8.13l-.17-.41a66.59,66.59,0,0,1-5.76-24c0-7,2.64-14.74,5-21.59l.27-.8c1.69-5,2.88-9.57.29-14.64-1.9-3.74-3.88-7.61-3-11.71.19-.89.4-1.76.61-2.61a36.25,36.25,0,0,0,1.19-6.83c0-.48,0-1,0-1.46a10.21,10.21,0,0,1,.28-3,1,1,0,0,1,.53-.61,8.4,8.4,0,0,1,2.07-.66l.19,0,.08,0,.13.24a10.29,10.29,0,0,0,.9,1.42,8.62,8.62,0,0,0,6.82,3.79,5.51,5.51,0,0,0,.81-.05,9.53,9.53,0,0,0,5.68-3,8.41,8.41,0,0,0,1.2-1.73,6.93,6.93,0,0,1,.57-.91,3,3,0,0,1,.69-.05h.8q.36,0,.69,0h.27m-2.41,0h0m2.41-2-.43,0-.53,0h-.8a2.84,2.84,0,0,0-2,.54c-.72.66-1.2,2.06-1.88,2.75a7.67,7.67,0,0,1-4.47,2.39l-.59,0a6.75,6.75,0,0,1-5.23-3c-1-1.34-1-2.48-2.36-2.48a3.62,3.62,0,0,0-.79.1,10.41,10.41,0,0,0-2.81.92,3,3,0,0,0-1.45,1.75,20.71,20.71,0,0,0-.4,4.91c-.16,3.22-1.09,6-1.76,9.13-1,4.72,1.09,8.91,3.19,13,2.29,4.48,1.1,8.62-.41,13.09C85.39,59.75,82.49,68,82.48,75.64a68.84,68.84,0,0,0,5.92,24.79c1,2.28,2.08,4.6,1.26,7.13-5.57,17-10.75,34.19-18.77,50.29-2.83,5.68-6.94,10-13.63,11.07a35.68,35.68,0,0,0-3.76,1.21c-2.94.83-4.45,2.74-4.37,5.77.08,3.27,2.36,4.55,5.14,5a39.07,39.07,0,0,0,6.39.52h.67c5.61,0,10.66-.76,16-.76a41.13,41.13,0,0,1,9,.91c3.71.82,5.64,1.37,9.14,1.37l1.4,0c2.15-.08,4.28-1.28,6.43-1.28l.53,0a16.81,16.81,0,0,1,2.91,1,10.29,10.29,0,0,0,2.82.3h.33c2,0,4-.26,6.06-.42,5.66-.45,6.72-2.86,6-8.44-3.59-29.15-4.66-58.39-1.28-87.59a72,72,0,0,0-.7-22.6,59.21,59.21,0,0,0-3.36-11c-1.28-3.08-4-5.8-4.79-9-1-2.5.29-4.71.83-7a101,101,0,0,0,2.28-10c.59-4.75-2-8.82-1.59-13.5a5.36,5.36,0,0,0-.57-3,2.32,2.32,0,0,0-2.19-1.1Z"/><path class="cls-3" d="M120.77,68.53a209.15,209.15,0,0,1-1.83,27.15,256.91,256.91,0,0,1-5,26.78,209.44,209.44,0,0,1-8.09,26A165,165,0,0,1,94.07,173c.92-2.07,1.87-4.13,2.83-6.18.47-1,1-2,1.42-3.07l1.26-3.15c.84-2.1,1.74-4.17,2.54-6.28l2.29-6.37A268.83,268.83,0,0,0,112,122c2.15-8.76,3.92-17.62,5.38-26.53l1-6.7c.3-2.24.64-4.47.91-6.72C119.94,77.55,120.38,73.05,120.77,68.53Z"/><path class="cls-3" d="M90.91,150.16a22.2,22.2,0,0,1,.25,8.21,28.17,28.17,0,0,1-6.92,14.88,26.85,26.85,0,0,1-3,2.87,33.24,33.24,0,0,1-3.36,2.35c.86-1.08,1.83-2,2.67-3.05s1.71-2,2.44-3.15c.37-.55.78-1.07,1.13-1.62l1-1.69c.36-.54.63-1.14.95-1.72a16,16,0,0,0,.87-1.76,39.79,39.79,0,0,0,2.63-7.41A43.81,43.81,0,0,0,90.91,150.16Z"/><rect class="cls-4" width="186" height="186"/></svg>