<svg id="图层_1" data-name="图层 1" xmlns="http://www.w3.org/2000/svg" viewBox="0 0 186 186"><defs><style>.cls-1{fill:#fae7ee;}.cls-2{fill:#fff;}.cls-3{fill:#5b3b2f;}.cls-4{fill:#9b9692;opacity:0;}</style></defs><path class="cls-1" d="M131.46,32.1a17.32,17.32,0,0,0-1.93-2.79c-5-5.83-10.77-11-15.71-16.9a11.42,11.42,0,0,0-1.89-1.63,7,7,0,0,0-5.82-1c-2,.36-5.55.54-6.81-1.55a4.49,4.49,0,0,1-.52-1.95A13.86,13.86,0,0,1,98.88,3l-8.18.21a10.81,10.81,0,0,1,.13,3c-.19,1.93-.87,3-2.67,3.45C86,10.2,83.82,11,81.63,11.48c-3,.7-4.7,2.32-5.18,5.16A102.16,102.16,0,0,0,75.39,29.1c-.24,5.36-.44,10.72-.66,16.08A4.13,4.13,0,0,1,74,47.7c-3.25,4.1-4.46,9.06-5.73,14-.69,2.65-1.27,5.33-2,8-.44,1.67-1,3.28-1.5,4.92C64.3,76,63.49,77.27,63,78.7a9.5,9.5,0,0,0-.57,3,4.9,4.9,0,0,0,.84,2.85,9.2,9.2,0,0,0,1.25,1.52,4.22,4.22,0,0,0,2.39,1c.36,0,1.32.18,1.36-.41h0c0-.26-.28-.45-.51-.45a3.15,3.15,0,0,1-1.32-.45l-.21-.13.21,0c.4-.07,2.67-.22,2.53-.79a.3.3,0,0,0-.06-.13c-.36-.46-2.08.33-3-.15a5,5,0,0,1-.83-.44l0,0a1,1,0,0,1-.21-.2h0a1.29,1.29,0,0,0,.17.16l-.14-.15a3.72,3.72,0,0,0,1.35.24,2.26,2.26,0,0,0,.69-.06l.13,0c.3-.07,1.27-.29,1.29-.6h0c0-.34-1-.09-1.18-.08a3.16,3.16,0,0,1-1.1-.12,5.38,5.38,0,0,1-.51-.2L65.2,83a3.83,3.83,0,0,1-.42-.28h0l0,0c0-.08,0-.17,0-.25a1.94,1.94,0,0,1,0-.24c0-.15,0-.31.08-.46a1.55,1.55,0,0,1,0-.21c0-.21.11-.43.17-.65l0-.08c.07-.22.14-.45.22-.67,0-.06.06-.15.1-.27l0-.07v0c0-.07,0-.13.08-.19a5.09,5.09,0,0,1,.43-.84c.19-.23.34-.32.45-.33a.24.24,0,0,1,.18.1.73.73,0,0,1,0,.09,1.91,1.91,0,0,1,.08.65c0,.27-.12,1.12-.13,2v.35c0,1,.2,1.81.82,1.67.3-.06.35-.31.34-.57s0-.3,0-.43A2.09,2.09,0,0,1,68,81.3c.24-.56.25-1,.53-1.56a7,7,0,0,0,.75-3.31h0c0-.91-.3-1.7-.34-2.51a3,3,0,0,1,.31-1.51h0c1.88-3.79,3.87-8.44,5.91-12.14A37.8,37.8,0,0,0,80,46c.59-4.28,2.56-11.58,3-15.92.54,1.65.8,6.27,1.33,7.88,2,6.27,4.47,12.36,1.43,16.71a8.51,8.51,0,0,0-.77,1.61c-2.4,5.88-4,9.45-3.6,15.78a124.1,124.1,0,0,0,2.19,15.57c1.54,8,1,15.4,2.49,23.35a42.69,42.69,0,0,1,.56,5.24,48.11,48.11,0,0,0,.49,8.56c2,10.05,4.52,20,7,29.94,1.34,5.34,2.65,10.68,1.34,16.24a19,19,0,0,0-.34,3.2c-.21,3.13,1.37,5.35,3.78,7.06a2.77,2.77,0,0,0,4.08-.73,6.48,6.48,0,0,0,1.23-3.86,32.32,32.32,0,0,0-1.65-9.66c-.67-2.35-.68-4.84-1.69-7.15-.49-1.12-1.11-2.66-.1-3.93,3.78-4.78.76-10.11.34-15.15,0-.17-.19-.31-.24-.48a2.11,2.11,0,0,1-.2-.86c.45-2.77.51-5.4.92-8.18.93-6.39,1-13.19-.9-19.54a19.14,19.14,0,0,1,.94-13.43,117.62,117.62,0,0,0,4.44-12,75.54,75.54,0,0,0,3.48-16.23c.52-6.2-1.15-14.24-3.66-20.13a.08.08,0,0,1,0-.1H106c1.37,1,3.75,3,4.92,4.08s2.42.45,3.8-.26a33,33,0,0,0,6.07-4.69c4.33-3.68,7.8-7,10.51-12.09A4.59,4.59,0,0,0,131.46,32.1Zm-6.63,3.26c-3.52,3.1-5.41,7.39-8.15,11.06s-3.61,4.61-6.62,1c-1.14-1.38-2.44-3.56-4.07-4.71h0a4.93,4.93,0,0,0-.77-.44,1.29,1.29,0,0,1-.66-1.38c.43-2.11.76-4.23,1.32-6.3a55.24,55.24,0,0,1,2-6.85,5.36,5.36,0,0,0,.31-3.34,2,2,0,0,1,.66-2.25c.86-.62,1.63,0,2.26.47A50.6,50.6,0,0,1,116,26.28c2.74,2.75,5.69,5.26,8.58,7.84C125,34.49,125.48,34.79,124.83,35.36Z"/><path class="cls-2" d="M138.71,179.25c-5.9-.94-10.93.5-15.9,1.51-15.14,3.09-26.71-.54-40.91-.33-10.86.17-23.41-.41-34.28-.66a16.56,16.56,0,0,1-7.15-1.8c-2.78-1.41-4.31-3.72-3.79-6.86s2.51-5.46,5.74-5c9.59,1.26,10.95-.29,14.88-7.59,5.63-10.47,14.4-25.06,21.1-34.9,7.43-10.91,9.07-22,5.45-34.75-2-7.15-3.57-14.7-3.07-22.17a24.81,24.81,0,0,1,2.6-10.27c1.72-3.13,4.17-5.87,4.19-9.65,0-4.83-4.16-8.31-5-12.92-1.14-6.15-.56-12.74-.8-19-.08-2,.9-3,2.85-3.29,1.72-.26,3.16-1.08,4.71,1.08,3.17,4.43,7.84,3.55,11.91-.53a9.74,9.74,0,0,1,2.09-1.43,2,2,0,0,1,1-.24c1,0,2.2-.14,3,.5.59.45.25,2.33.24,3,0,1,0,1.94-.09,2.91-.28,3.32,1.75,6.3,2.13,9.55.5,4.22-.44,8.51-1.72,12.51a5.84,5.84,0,0,0,1.75,6.35c9.22,8.7,11,19.39,8.6,31.41-2.48,12.38-4.92,25.51.34,37.42,6.88,15.57,13.67,31.18,19.75,47.08,1.48,3.88,3.14,7.63,7.94,8.67,2.43.53,3.32,2.58,3.09,5s-1.86,3.48-4,3.8C143,179,140.5,179.11,138.71,179.25Z"/><path class="cls-3" d="M109.92,183c-4.59,0-9-.39-13.23-.78a139.61,139.61,0,0,0-14.77-.8c-7.83.12-16.48-.14-24.84-.39-3.25-.1-6.43-.19-9.49-.26A17.54,17.54,0,0,1,40,178.85c-3.35-1.7-4.88-4.51-4.32-7.9.66-4,3.36-6.32,6.85-5.86,9.11,1.2,10.11-.08,13.87-7.07,5.8-10.78,14.69-25.49,21.16-35,7.2-10.58,8.89-21.36,5.31-33.92-2.58-9.08-3.54-16-3.1-22.51a25.51,25.51,0,0,1,2.72-10.68c.43-.78.89-1.53,1.35-2.25,1.39-2.23,2.7-4.33,2.72-6.93,0-2.41-1.18-4.51-2.44-6.73a19.43,19.43,0,0,1-2.56-6,71.33,71.33,0,0,1-.76-13.07c0-2,0-4.06-.06-6-.06-1.71.53-3.85,3.71-4.32l.81-.15c1.42-.3,3.19-.68,4.84,1.64a5.41,5.41,0,0,0,3.93,2.52c2,.16,4.28-1,6.48-3.17a10.66,10.66,0,0,1,2.32-1.61,3,3,0,0,1,1.51-.35H105a4.65,4.65,0,0,1,3,.7c.9.69.77,2.13.67,3.3,0,.2,0,.38,0,.51v.61c0,.77,0,1.57-.09,2.37a12.86,12.86,0,0,0,1,5.17,20,20,0,0,1,1.1,4.19c.57,4.85-.74,9.7-1.77,12.92a4.88,4.88,0,0,0,1.49,5.33c8.7,8.21,11.61,18.78,8.9,32.32-2.34,11.68-5,24.91.27,36.83,6.58,14.88,13.52,30.77,19.77,47.13,1.53,4,3,7.14,7.22,8,2.73.59,4.18,2.86,3.87,6.07-.25,2.58-2,4.25-4.79,4.68-1.8.28-3.58.39-5.15.49-.6,0-1.15.07-1.65.12h-.12l-.12,0c-4.91-.79-9.27.15-13.49,1.06l-2,.43A64.22,64.22,0,0,1,109.92,183Zm-26.8-3.57c4.8,0,9.34.41,13.75.81,8.38.76,16.3,1.47,25.74-.45l2-.43c4.36-.94,8.87-1.91,14.09-1.11l1.57-.1c1.53-.1,3.26-.21,5-.47,1.93-.3,2.94-1.25,3.11-2.91s-.14-3.46-2.31-3.94c-5.57-1.21-7.35-5.88-8.66-9.28-6.23-16.31-13.16-32.18-19.73-47-5.52-12.49-2.68-26.65-.4-38,2.6-13,0-22.68-8.31-30.49a6.84,6.84,0,0,1-2-7.37c1-3.05,2.21-7.62,1.69-12.09a19,19,0,0,0-1-3.78,14.48,14.48,0,0,1-1.13-6c.06-.72.07-1.48.08-2.22v-.62c0-.16,0-.39,0-.65a7.24,7.24,0,0,0,0-1.61,3.5,3.5,0,0,0-1.67-.23h-.72a.91.91,0,0,0-.49.11,8.07,8.07,0,0,0-1.85,1.27c-2.67,2.66-5.45,4-8.06,3.74a7.37,7.37,0,0,1-5.37-3.34c-.9-1.26-1.5-1.13-2.82-.86l-.93.18c-1.52.22-2.06.84-2,2.28.08,2,.07,4.1.06,6.12a69.48,69.48,0,0,0,.73,12.7A17.83,17.83,0,0,0,85.87,39c1.33,2.35,2.71,4.78,2.69,7.72,0,3.16-1.54,5.61-3,8-.44.7-.89,1.43-1.29,2.16a23.41,23.41,0,0,0-2.47,9.85c-.43,6.26.51,13,3,21.84,3.75,13.17,2,24.48-5.59,35.58-6.43,9.45-15.28,24.09-21,34.81-4.21,7.84-6.05,9.4-15.88,8.1-3.58-.46-4.45,3.1-4.63,4.21-.42,2.54.68,4.5,3.26,5.81a15.59,15.59,0,0,0,6.72,1.7c3.06.07,6.25.17,9.5.26,8.34.25,17,.52,24.75.4Z"/><path class="cls-3" d="M62,180.68a.53.53,0,0,1-.27-.08.5.5,0,0,1-.14-.69c6.09-9.25,14.89-24.28,20-34.2,8.38-16.2,10.68-34.43,7-55.73-1.75-10.22-2.86-22.31,2.25-34.45,2.86-6.81-.06-13.31-3.58-19.91-.52-1-1.07-1.93-1.61-2.87-2.36-4.1-4.79-8.33-4.31-13.63a.49.49,0,0,1,.54-.45.5.5,0,0,1,.45.54c-.45,5,1.8,8.9,4.18,13,.55,1,1.1,1.92,1.63,2.9,3.49,6.56,6.65,13.56,3.61,20.77-5,11.9-3.91,23.81-2.18,33.89,3.7,21.53,1.37,40-7.11,56.36-5.15,10-14,25-20.08,34.28A.51.51,0,0,1,62,180.68Z"/><path class="cls-3" d="M134.08,179.46a.49.49,0,0,1-.47-.34c-2.09-6.3-4.85-15.29-7.52-24-2.39-7.78-4.65-15.14-6.44-20.63-6.22-19.06-11.37-39.72-7-61.68a21.3,21.3,0,0,0-3.71-17.1c-7.16-9.8-8.06-20.7-2.67-32.41l.18-.37c.32-.69.62-1.34.86-2a.5.5,0,0,1,.64-.29.49.49,0,0,1,.29.63c-.25.71-.58,1.41-.89,2.09l-.17.37c-5.23,11.35-4.37,21.92,2.56,31.4A22.26,22.26,0,0,1,113.6,73c-4.3,21.73.82,42.24,7,61.17,1.8,5.5,4.06,12.86,6.45,20.65,2.67,8.68,5.43,17.67,7.51,24a.49.49,0,0,1-.31.63A.45.45,0,0,1,134.08,179.46Z"/><rect class="cls-4" width="186" height="186"/></svg>