<svg id="图层_1" data-name="图层 1" xmlns="http://www.w3.org/2000/svg" viewBox="0 0 186 186"><defs><style>.cls-1{fill:#5b3b2f;}.cls-2{fill:#f4e2e9;}</style></defs><path class="cls-1" d="M83,26.79c3.4-.38,6.81-.59,10.21-.69C95,26,96.65,26,98.35,26c.85,0,1.71,0,2.56,0h.33l.25.08a1.56,1.56,0,0,1,.29.21,1.64,1.64,0,0,1,.35.56,4.84,4.84,0,0,1,.21.75A13.17,13.17,0,0,1,102.5,29c.07.87.07,1.78.09,2.59A11.81,11.81,0,0,0,102.9,34,11.28,11.28,0,0,0,105,38.46c2,2.68,5,4.48,7.91,6.14a32.7,32.7,0,0,0,4.48,2.22A18.28,18.28,0,0,0,122.07,48a23.38,23.38,0,0,0,4.87-.47,10.08,10.08,0,0,1,2.8,0,12.55,12.55,0,0,1,2.69.73,16.72,16.72,0,0,1,7.9,7.1,14.53,14.53,0,0,1,1.93,10.13l-.2,0A15.6,15.6,0,0,0,139,56.22a16.48,16.48,0,0,0-7.36-6,11.43,11.43,0,0,0-2.21-.62,10.9,10.9,0,0,0-2.29,0,25,25,0,0,1-5.29.27,21.37,21.37,0,0,1-9.54-4.33,36.18,36.18,0,0,1-7.8-6.72A15.77,15.77,0,0,1,102,34.27a14.24,14.24,0,0,1-.61-2.58c-.1-.89-.21-1.67-.37-2.5-.08-.4-.17-.8-.27-1.17a3.61,3.61,0,0,0-.16-.47c0-.05-.07-.09,0,0a.68.68,0,0,0,.16.11,1.89,1.89,0,0,0,.18.06h-.07c-.85,0-1.7,0-2.55,0-1.7,0-3.39,0-5.09-.1-3.4-.1-6.8-.31-10.2-.69Z"/><path class="cls-1" d="M100.92,27c-3.45.35-6.89.55-10.34.66-1.72.06-3.44.1-5.16.11l-1.3,0h-.58l.14,0c.34-.12.28-.18.28-.15a1.55,1.55,0,0,0-.08.15A15.38,15.38,0,0,0,83.2,30l-.57,2.49c-.19.85-.32,1.65-.56,2.57a11.18,11.18,0,0,1-2.78,4.56,28.53,28.53,0,0,1-4,3.36c-1.43,1-2.75,2.05-4.13,3.12A22.54,22.54,0,0,1,66.63,49,12.37,12.37,0,0,1,61.2,50c-1.82,0-3.52-.3-5.17-.39a10.69,10.69,0,0,0-4.59.68c-2.87,1.16-4.83,4-5.88,7.15a24.44,24.44,0,0,0-1.15,4.9A37.74,37.74,0,0,0,44,67.47h-.2A26.52,26.52,0,0,1,44.18,57a15.19,15.19,0,0,1,2.17-5,10.23,10.23,0,0,1,4.28-3.63,11.52,11.52,0,0,1,5.52-.93c1.79.09,3.5.41,5.12.49a10.6,10.6,0,0,0,4.66-.73,38.16,38.16,0,0,0,4.52-2.18c3-1.7,6.1-3.35,8.35-5.88a9,9,0,0,0,2.14-4.39c.21-1.61.32-3.41.62-5.12A11.87,11.87,0,0,1,82.28,27a3.68,3.68,0,0,1,.23-.42,1.34,1.34,0,0,1,.77-.56l.22,0h.62l1.3,0c1.72,0,3.44.05,5.16.11,3.45.11,6.89.31,10.34.66Z"/><path class="cls-1" d="M61.38,152.14a50.72,50.72,0,0,0,0-10.38c-.28-3.45-.81-6.87-1.39-10.28a97.31,97.31,0,0,0-2.4-10.09q-1.41-5-3.05-9.94C52.33,104.87,50,98.32,48,91.65a105.46,105.46,0,0,1-4.16-20.41,115.77,115.77,0,0,0,4.69,20.25c2.07,6.62,4.56,13.11,6.83,19.68a124.79,124.79,0,0,1,5.46,20.16,90.77,90.77,0,0,1,1.1,10.4A50.5,50.5,0,0,1,62,147,30.09,30.09,0,0,1,61.38,152.14Z"/><path class="cls-1" d="M141.42,67.48c0,1.81-.07,3.63-.17,5.46s-.42,3.61-.68,5.41-.68,3.58-1.06,5.35-.9,3.53-1.42,5.26l-1.78,5.15c-.64,1.7-1.27,3.39-1.84,5.11-1.19,3.41-2.2,6.89-3.17,10.37-.48,1.74-.92,3.5-1.44,5.23s-1,3.47-1.46,5.2l-1.4,5.21-1.31,5.22A136,136,0,0,0,122,151.66h-.19A71,71,0,0,1,123.63,130c.45-1.77.88-3.54,1.38-5.28l1.6-5.21c1.12-3.45,2.35-6.85,3.66-10.23s2.54-6.77,3.59-10.23,1.8-7,2.64-10.5c.4-1.75.82-3.49,1.3-5.23s.82-3.49,1.26-5.23.73-3.52,1.14-5.27.64-3.54,1-5.32Z"/><path class="cls-1" d="M73.4,65.44A20.88,20.88,0,0,1,79.21,80c0,.68-.07,1.35-.11,2a11.52,11.52,0,0,1-.26,2c-.15.66-.22,1.34-.43,2S78,87.32,77.72,88a13.22,13.22,0,0,1-.87,1.82c-.33.59-.65,1.19-1,1.76a36.28,36.28,0,0,1-2.45,3.18.07.07,0,0,1-.1,0,.05.05,0,0,1,0-.08h0c.51-1.24,1.09-2.41,1.64-3.58.23-.62.48-1.21.71-1.81a11.94,11.94,0,0,0,.67-1.81c.19-.61.39-1.22.6-1.82s.31-1.24.48-1.85a10.13,10.13,0,0,0,.39-1.88c.07-.63.19-1.26.23-1.9a20.75,20.75,0,0,0-1-7.61,19.88,19.88,0,0,0-3.7-6.82h0a.08.08,0,0,1,0-.1A.07.07,0,0,1,73.4,65.44Z"/><path class="cls-1" d="M110.36,65.55a19.9,19.9,0,0,0-3.71,6.82,20.53,20.53,0,0,0-1,7.61c0,.64.15,1.27.23,1.9a10.13,10.13,0,0,0,.39,1.88c.16.61.27,1.24.48,1.85s.41,1.21.6,1.82a13.06,13.06,0,0,0,.66,1.81c.24.6.49,1.19.72,1.81.55,1.17,1.13,2.34,1.64,3.58h0a.07.07,0,0,1,0,.1.1.1,0,0,1-.09,0,38.33,38.33,0,0,1-2.45-3.18c-.34-.57-.65-1.17-1-1.76a12.16,12.16,0,0,1-.87-1.82c-.24-.64-.47-1.27-.69-1.91s-.29-1.33-.44-2a13.78,13.78,0,0,1-.26-2c0-.68-.11-1.35-.1-2a20.91,20.91,0,0,1,5.8-14.57.08.08,0,0,1,.11,0,.07.07,0,0,1,0,.1Z"/><path class="cls-2" d="M125.06,151.87c-1.22-2.22-2.21-4.3-2.6-5-3.62-6.88-3.78-15.17-2.37-22.66.55-2.9,5.31-16.52,9.3-31.43.55-2.06,1.09-4.14,1.6-6.22-.35,1.44-11.77,7.86-14.33,9.14a55.11,55.11,0,0,1-15.72,5.28c-12.07,2-23.42-1.67-34-7.24-2.51-1.31-11.45-5.57-11.79-7.16.84,4,1.57,6.88,1.84,7.78C61,107.79,68.31,121,65.68,135.5l0,.17c-.35,1.33-4.6,17.39-9.14,22.48a.52.52,0,0,0,.4.85H89.52l-6.27-58.43s11.29,2.11,19.8,0L98.81,159H129a.51.51,0,0,0,.41-.82A67.82,67.82,0,0,1,125.06,151.87Z"/><path class="cls-1" d="M129,160H98.81a1,1,0,0,1-.73-.32,1,1,0,0,1-.26-.75L102,101.84c-6.72,1.31-14.5.39-17.56-.07l6.13,57.12a1,1,0,0,1-.25.78,1,1,0,0,1-.75.33H56.91a1.51,1.51,0,0,1-1.39-.9,1.47,1.47,0,0,1,.25-1.61c4.43-5,8.73-21.38,8.91-22.08l0-.1c1.94-10.73-1.76-21-5.34-30.84C58.19,101.24,57,97.91,56,94.61c-.31-1-1.07-4.13-1.86-7.86a1,1,0,0,1,2-.42c.58,1.08,7.45,4.55,9.71,5.69.64.32,1.18.59,1.56.8,12.53,6.56,23.15,8.83,33.42,7.14a54.55,54.55,0,0,0,15.43-5.19c3.44-1.73,13-7.27,13.83-8.58a1,1,0,0,1,1.19-.64,1,1,0,0,1,.73,1.21h0c-.49,2-1,4.12-1.6,6.24-2.31,8.64-4.87,16.82-6.74,22.79-1.3,4.13-2.32,7.4-2.54,8.56-1.13,5.94-1.64,14.58,2.26,22,.12.22.3.57.52,1,.49,1,1.23,2.47,2.08,4h0a67.84,67.84,0,0,0,4.24,6.19A1.51,1.51,0,0,1,129,160Zm-71-2H88.41l-6.13-57.08a75,75,0,0,1-15.85-6.33c-.38-.2-.9-.47-1.53-.78-3.87-2-6.47-3.36-8.15-4.46.56,2.46,1,4.1,1.16,4.68,1,3.25,2.17,6.56,3.33,9.75,3.67,10.14,7.46,20.62,5.43,31.9l-.06.24C66.17,137.62,62.33,152.08,57.93,158ZM104,101.36,99.89,158H128a60,60,0,0,1-3.82-5.65h0c-.86-1.57-1.61-3.08-2.11-4.07-.21-.43-.38-.76-.5-1-4.17-8-3.64-17.07-2.46-23.32.24-1.28,1.23-4.43,2.6-8.79,1.86-6,4.41-14.11,6.72-22.71q.42-1.56.81-3.09a131.35,131.35,0,0,1-12.14,7.17A58.25,58.25,0,0,1,104,101.36Zm26-15.08h0Z"/><line class="cls-1" x1="84.35" y1="102.54" x2="102.05" y2="114.34"/><path class="cls-1" d="M102.05,115.09a.74.74,0,0,1-.42-.13l-17.69-11.8a.74.74,0,0,1-.21-1,.75.75,0,0,1,1-.21l17.7,11.8a.76.76,0,0,1,.21,1A.77.77,0,0,1,102.05,115.09Z"/><path class="cls-1" d="M100.93,130.53a.77.77,0,0,1-.53-.21L84.8,114.87a.75.75,0,0,1,0-1.06.77.77,0,0,1,1.07,0l15.6,15.45a.75.75,0,0,1,0,1.06A.73.73,0,0,1,100.93,130.53Z"/><path class="cls-1" d="M99.66,148.07a.75.75,0,0,1-.59-.29L85.89,131a.74.74,0,0,1,.13-1,.75.75,0,0,1,1,.12l13.18,16.78a.74.74,0,0,1-.13,1A.72.72,0,0,1,99.66,148.07Z"/><line class="cls-1" x1="88.27" y1="147.32" x2="98.81" y2="159"/><path class="cls-1" d="M98.81,159.75a.76.76,0,0,1-.55-.25L87.71,147.82a.75.75,0,1,1,1.12-1l10.54,11.67a.75.75,0,0,1-.05,1.06A.78.78,0,0,1,98.81,159.75Z"/><line class="cls-1" x1="99.66" y1="147.32" x2="89.12" y2="159"/><path class="cls-1" d="M89.12,159.75a.78.78,0,0,1-.51-.2.75.75,0,0,1,0-1.06L99.1,146.82a.76.76,0,0,1,1.06-.06.75.75,0,0,1,.06,1.06L89.67,159.5A.75.75,0,0,1,89.12,159.75Z"/><path class="cls-1" d="M85.33,114.08a.75.75,0,0,1-.42-1.38l17.7-11.8a.76.76,0,0,1,1,.21.74.74,0,0,1-.21,1L85.74,114A.69.69,0,0,1,85.33,114.08Z"/><path class="cls-1" d="M86.39,130.53a.78.78,0,0,1-.55-.23.75.75,0,0,1,0-1.06l15.51-14.68a.75.75,0,1,1,1,1.09L86.9,130.33A.76.76,0,0,1,86.39,130.53Z"/><path class="cls-1" d="M88.27,148.07a.74.74,0,0,1-.44-.14.76.76,0,0,1-.17-1.05l12.53-17.53a.75.75,0,1,1,1.22.87L88.88,147.76A.77.77,0,0,1,88.27,148.07Z"/></svg>