<svg id="图层_1" data-name="图层 1" xmlns="http://www.w3.org/2000/svg" viewBox="0 0 186 186"><defs><style>.cls-1{fill:#5b3b2f;}.cls-2{fill:#f4e2e9;}</style></defs><path class="cls-1" d="M73.37,65.53a21,21,0,0,1,5.81,14.6c0,.68-.07,1.36-.11,2a11.52,11.52,0,0,1-.26,2c-.15.66-.22,1.35-.43,2s-.46,1.28-.69,1.92a13.92,13.92,0,0,1-.87,1.83c-.33.59-.65,1.18-1,1.76a36.39,36.39,0,0,1-2.46,3.18.07.07,0,0,1-.12-.08h0c.51-1.24,1.09-2.42,1.65-3.59.22-.61.47-1.21.71-1.81a11.94,11.94,0,0,0,.67-1.81q.28-.91.6-1.83c.21-.6.31-1.24.48-1.85A10.13,10.13,0,0,0,77.75,82c.08-.64.19-1.27.23-1.91a20.39,20.39,0,0,0-1-7.62,19.9,19.9,0,0,0-3.71-6.84h0a.07.07,0,0,1,0-.1A.09.09,0,0,1,73.37,65.53Z"/><path class="cls-1" d="M110.4,65.64a19.76,19.76,0,0,0-3.72,6.84,20.8,20.8,0,0,0-1,7.62c0,.64.16,1.27.23,1.91a11,11,0,0,0,.4,1.88c.16.61.27,1.25.48,1.85s.41,1.22.6,1.83a11.94,11.94,0,0,0,.67,1.81c.23.6.49,1.2.71,1.81.56,1.17,1.14,2.35,1.65,3.59h0a.07.07,0,0,1,0,.1.1.1,0,0,1-.09,0,38.33,38.33,0,0,1-2.45-3.18c-.34-.58-.66-1.17-1-1.76A12.75,12.75,0,0,1,106,88.1q-.36-1-.69-1.92c-.21-.64-.29-1.33-.44-2a13.78,13.78,0,0,1-.26-2c0-.68-.11-1.36-.11-2a21,21,0,0,1,5.82-14.6.08.08,0,0,1,.11,0,.07.07,0,0,1,0,.1Z"/><path class="cls-2" d="M136.61,51.42A18.28,18.28,0,0,0,126.94,48c-3.59-.17-5.75.52-9.1-1-3.19-1.48-6.48-2.66-9.3-4.83s-6-5.44-6.09-9.31c0-.76.32-.42,0-1.14,0,0-5-.78-5.56-.74a20.56,20.56,0,0,1-7-.4c-1.86-.5-5.33.5-7.26.3-.75,1.86-.26,2.67-.91,4.49a13.58,13.58,0,0,1-3.29,4.9c-5.87,5.86-12,8.88-20.24,8.17-6.61-.58-10.39,2.11-12.77,8-2,5.1-1.42,9.58-1,14.77.5,6.07,1.16,12,3.06,17.79A1.85,1.85,0,0,0,48.22,90c2,1.16,6.36,1.14,9,.32.7-.22,1.66-.5,1.47.21-1,3.73,1.12,8.74,2.07,12.26,1.38,5.12,3.13,10,4.86,15,2.5,7.24,3.24,14.38.71,21.71-2.47,7.13-6.88,13.36-10,20.2h.35a.5.5,0,0,0,.44.26l10,0H129.5a.48.48,0,0,0,.43-.26h.69c-5.58-6.16-11-13-13.33-21.12-3.86-13.08,4.18-27.18,6.81-39.84.64-3,2.06-6.79,1.88-9.94a.89.89,0,0,1,.32-.79,1.41,1.41,0,0,1,.64-.19,28.8,28.8,0,0,0,11.64-3.49c.95-.53,1.33-3.44,1.53-4.39.39-1.75.77-3.51,1.11-5.28a58.32,58.32,0,0,0,1.17-9C142.56,60.22,141.38,54.92,136.61,51.42Zm-21.2,49.24a45.43,45.43,0,0,1-10.17,14.08c-3,2.75-7.83,7.17-12,7.64s-7.69-3.63-10.47-6.12a64.87,64.87,0,0,1-9.44-10C68.56,99.8,66.2,91.57,69,83.75A63,63,0,0,1,89.37,55.39c2.42-1.94,4.13-2,6.79.13,9.32,7.49,15.18,17.37,19.66,28A19.8,19.8,0,0,1,115.41,100.66Z"/><path class="cls-1" d="M57.8,159.68a1.52,1.52,0,0,1-1.31-.75,1.51,1.51,0,0,1,0-1.51c1.67-3,7.28-13.08,9.32-19,2.45-7.06,1.89-14.53-1.73-23.52a92.61,92.61,0,0,1-3.69-11.79c-.19-.75-.45-1.6-.73-2.5-1-3.32-2.28-7.45-1.39-10.69a1,1,0,0,1,1.93.53c-.74,2.68.44,6.5,1.38,9.58.28.93.55,1.8.75,2.58a92.52,92.52,0,0,0,3.6,11.54c3.82,9.46,4.38,17.38,1.77,24.92-2,5.63-7,14.9-9.06,18.58l69.31,0c-3-3.74-10.07-13.08-12-19.5-2.76-9.33.38-19,3.42-28.34a112.24,112.24,0,0,0,3.27-11.39c.19-.91.44-1.85.71-2.85a23.36,23.36,0,0,0,1.12-6.69,1,1,0,0,1,.94-1.05,1,1,0,0,1,1.06.94,24.33,24.33,0,0,1-1.19,7.31c-.26,1-.5,1.89-.68,2.75a112,112,0,0,1-3.33,11.6c-2.94,9-6,18.42-3.41,27.16,1.94,6.58,9.87,16.66,12.25,19.6a1.51,1.51,0,0,1-1.18,2.46Z"/><path class="cls-1" d="M83,26.8c3.41-.38,6.82-.59,10.24-.7C95,26,96.66,26,98.37,26c.85,0,1.7,0,2.56,0h.19l.14,0a.73.73,0,0,1,.25.08.9.9,0,0,1,.29.2,1.57,1.57,0,0,1,.36.57,4.3,4.3,0,0,1,.21.75,13.36,13.36,0,0,1,.16,1.35c.06.86.07,1.78.08,2.59a13.25,13.25,0,0,0,.31,2.43A11.42,11.42,0,0,0,105,38.49c2,2.69,5,4.49,7.93,6.15a32.78,32.78,0,0,0,4.48,2.23,19,19,0,0,0,4.69,1.21A23.44,23.44,0,0,0,127,47.6a11,11,0,0,1,2.81,0,12.5,12.5,0,0,1,2.7.74,16.66,16.66,0,0,1,7.92,7.12,14.53,14.53,0,0,1,1.92,10.15l-.19,0a15.62,15.62,0,0,0-3.07-9.27,16.55,16.55,0,0,0-7.36-6,8.9,8.9,0,0,0-4.52-.65,23.75,23.75,0,0,1-5.3.27,21.39,21.39,0,0,1-9.56-4.33,36.37,36.37,0,0,1-7.81-6.74A15.54,15.54,0,0,1,102,34.29a13.27,13.27,0,0,1-.61-2.58c-.11-.89-.22-1.68-.38-2.5-.07-.41-.17-.81-.27-1.18a3.41,3.41,0,0,0-.16-.46c0-.05-.07-.09,0,0a.68.68,0,0,0,.16.11.93.93,0,0,0,.18.06h-.07c-.85,0-1.7,0-2.55,0-1.7,0-3.41,0-5.11-.1-3.41-.11-6.81-.31-10.22-.7Z"/><path class="cls-1" d="M100.94,27c-3.46.35-6.91.56-10.36.67-1.73.06-3.45.1-5.18.11l-1.29,0h-.59l.15,0c.34-.12.28-.19.28-.16a1.55,1.55,0,0,0-.08.15,16.85,16.85,0,0,0-.68,2.28l-.57,2.49c-.2.86-.32,1.65-.57,2.58a11.19,11.19,0,0,1-2.79,4.57,28.53,28.53,0,0,1-4,3.36c-1.43,1-2.76,2.07-4.14,3.14A22.17,22.17,0,0,1,66.58,49a12.31,12.31,0,0,1-5.44,1.07c-1.83,0-3.53-.3-5.18-.39a10.71,10.71,0,0,0-4.6.68c-2.87,1.16-4.84,4-5.89,7.15a25.19,25.19,0,0,0-1.16,4.92,37.86,37.86,0,0,0-.38,5.12l-.2,0a26.86,26.86,0,0,1,.34-10.48,15.58,15.58,0,0,1,2.18-5,10.31,10.31,0,0,1,4.29-3.65,11.67,11.67,0,0,1,5.53-.92c1.8.08,3.51.4,5.13.49a10.48,10.48,0,0,0,4.67-.74,39.08,39.08,0,0,0,4.54-2.17c3-1.71,6.11-3.36,8.37-5.89a9.15,9.15,0,0,0,2.13-4.4c.21-1.61.32-3.42.63-5.14A11.32,11.32,0,0,1,82.25,27a2.72,2.72,0,0,1,.24-.42,1.3,1.3,0,0,1,.77-.57l.22,0h.63l1.29,0c1.73,0,3.45.05,5.18.11,3.45.11,6.9.32,10.36.67Z"/><path class="cls-1" d="M141.53,67.58c0,1.73-.05,3.47-.14,5.21s-.37,3.45-.61,5.17-.62,3.42-1,5.12-.83,3.37-1.33,5L136.78,93c-.61,1.62-1.21,3.24-1.75,4.88-1.13,3.27-2.08,6.59-3,9.91s-1.81,6.67-2.8,10l-1.39,5c-.42,1.66-.88,3.31-1.34,5a174.8,174.8,0,0,0-4.36,20.12h-.2a75.69,75.69,0,0,1,2.5-20.64c.46-1.67.9-3.35,1.4-5l1.59-5c.56-1.64,1.11-3.27,1.7-4.9s1.24-3.23,1.86-4.84c1.25-3.22,2.44-6.46,3.42-9.76s1.67-6.7,2.45-10q.33-1.48.69-3c.16-.67.34-1.35.52-2,.39-1.66.76-3.33,1.18-5s.69-3.35,1.09-5,.61-3.38,1-5.08Z"/><path class="cls-1" d="M101.79,31.66a2.92,2.92,0,0,0-1.18-.12l-1.2,0c-.81,0-1.61,0-2.42,0-1.6,0-3.21-.08-4.82-.19s-3.2-.29-4.8-.39-3.2-.11-4.83-.19A30.08,30.08,0,0,1,87.36,30C89,29.91,90.63,30,92.24,30a39.34,39.34,0,0,1,4.84.32,22.3,22.3,0,0,1,2.42.43c.4.09.79.21,1.19.33A2.44,2.44,0,0,1,101.79,31.66Z"/><path class="cls-1" d="M139.27,82.33a.61.61,0,0,1,.36.58,2.15,2.15,0,0,1-.12.65,5.11,5.11,0,0,1-.57,1.06,8.78,8.78,0,0,1-1.59,1.63,12.89,12.89,0,0,1-3.92,2.09,19.75,19.75,0,0,1-2.15.51,14.7,14.7,0,0,1-2.2.15,10.07,10.07,0,0,1-4.28-.94h0a.08.08,0,0,1,0-.1.09.09,0,0,1,.07,0,20.32,20.32,0,0,0,8.16-1,18,18,0,0,0,3.76-1.67A11.11,11.11,0,0,0,138.4,84a4.39,4.39,0,0,0,.68-.75c.18-.26.35-.64.1-.83a.07.07,0,0,1,0-.1.08.08,0,0,1,.07,0Z"/><path class="cls-1" d="M47.28,90.69q-1.24-4.45-2.13-9a86,86,0,0,1-1.42-10.36q.78,5.18,2.05,10.23c.71,2.83,1.54,5.64,2.43,8.43.16.52.33,1,.5,1.55,2.17,6.6,4.63,13.09,7,19.66a114.19,114.19,0,0,1,5.46,20.27,83.64,83.64,0,0,1,1,10.48,51.29,51.29,0,0,1-.09,5.26,28.36,28.36,0,0,1-.75,5.19A53.58,53.58,0,0,0,61,142c-.37-3.44-.9-6.86-1.53-10.26a179.19,179.19,0,0,0-5.47-20"/><path class="cls-1" d="M137.64,84.7c.17-.67.34-1.35.52-2,.39-1.66.77-3.33,1.19-5s.69-3.35,1.08-5,.61-3.38,1-5.08l.2,0c0,1.73-.05,3.47-.14,5.21s-.37,3.45-.61,5.17-.62,3.42-1,5.12"/><path class="cls-1" d="M47.28,90.69,47,89.51c-.68-2.58-1.28-5.19-1.8-7.81a86,86,0,0,1-1.42-10.36q.78,5.18,2.05,10.23c.65,2.61,1.41,5.19,2.21,7.76.07.22.15.44.22.67"/><path class="cls-1" d="M48,89.34a3.29,3.29,0,0,0,1.31.58q.69.19,1.38.33a16.15,16.15,0,0,0,2.75.29,13.06,13.06,0,0,0,2.71-.28,18.6,18.6,0,0,0,2.76-.92,5.76,5.76,0,0,1-2.37,2,7.13,7.13,0,0,1-3.12.68,8,8,0,0,1-3.09-.68,6.61,6.61,0,0,1-1.36-.79A2.39,2.39,0,0,1,48,89.34Z"/><path class="cls-1" d="M91.93,122.81c-3.56,0-6.59-2.86-9.06-5.19-.44-.4-.85-.8-1.26-1.16a65.75,65.75,0,0,1-9.54-10.06C66.64,99,65,90.48,67.64,83.15a63.67,63.67,0,0,1,20.62-28.7c2.77-2.21,4.86-2.18,7.73.13,8.23,6.61,14.55,15.61,19.89,28.34a20.61,20.61,0,0,1-.42,17.7h0a46.37,46.37,0,0,1-10.35,14.31c-4.08,3.81-8.41,7.39-12.44,7.84A6.23,6.23,0,0,1,91.93,122.81ZM92,54.32a4.63,4.63,0,0,0-2.82,1.3,62.15,62.15,0,0,0-20.15,28c-2.44,6.86-.9,14.83,4.23,21.87a65.12,65.12,0,0,0,9.34,9.83c.41.36.83.77,1.28,1.18,2.53,2.39,5.39,5.11,8.6,4.75,4.1-.46,9.16-5.18,11.59-7.44a45,45,0,0,0,10-13.85h0a19,19,0,0,0,.4-16.49C109.26,71,103.08,62.2,95.06,55.75A5,5,0,0,0,92,54.32Z"/></svg>