<svg id="图层_1" data-name="图层 1" xmlns="http://www.w3.org/2000/svg" viewBox="0 0 186 186"><defs><style>.cls-1{fill:#5b3b2f;}.cls-2{fill:#e2c9d2;}.cls-3{fill:#f4e2e9;}</style></defs><path class="cls-1" d="M83,26.8c3.43-.38,6.86-.59,10.3-.7C95,26,96.68,26,98.39,26c.86,0,1.72,0,2.58,0h.19l.14,0a.88.88,0,0,1,.26.08,1.21,1.21,0,0,1,.29.2,1.51,1.51,0,0,1,.35.57,4.65,4.65,0,0,1,.21.76,10.77,10.77,0,0,1,.16,1.35c.07.87.07,1.79.09,2.6a13.35,13.35,0,0,0,.31,2.45,11.52,11.52,0,0,0,2.13,4.48c2.05,2.71,5,4.52,8,6.19A33.18,33.18,0,0,0,117.58,47a18.59,18.59,0,0,0,4.71,1.22,23.71,23.71,0,0,0,4.9-.48,10.23,10.23,0,0,1,2.82,0,12.52,12.52,0,0,1,2.72.74,16.83,16.83,0,0,1,8,7.16,14.61,14.61,0,0,1,1.94,10.2l-.2,0a15.76,15.76,0,0,0-3.08-9.33,16.64,16.64,0,0,0-7.41-6,10.93,10.93,0,0,0-2.23-.62,11.06,11.06,0,0,0-2.31,0,23.93,23.93,0,0,1-5.32.27,21.45,21.45,0,0,1-9.61-4.35,36.53,36.53,0,0,1-7.86-6.77,15.86,15.86,0,0,1-2.55-4.61,14.27,14.27,0,0,1-.62-2.6c-.1-.89-.21-1.68-.37-2.51-.08-.41-.17-.81-.28-1.18a1.83,1.83,0,0,0-.16-.47c0-.05-.07-.09,0,0a.68.68,0,0,0,.16.11l.18.06h-.07c-.85,0-1.71,0-2.57,0-1.71,0-3.42,0-5.13-.1-3.42-.11-6.85-.31-10.28-.7Z"/><path class="cls-1" d="M101,27c-3.47.35-6.94.56-10.41.67-1.74.06-3.47.1-5.21.11l-1.3,0h-.59l.14,0c.34-.12.29-.19.29-.15a.75.75,0,0,0-.08.14,15.78,15.78,0,0,0-.69,2.3l-.57,2.5c-.2.86-.32,1.66-.57,2.59a11.36,11.36,0,0,1-2.8,4.6,30.24,30.24,0,0,1-4,3.38c-1.44,1-2.78,2.07-4.17,3.15a22.13,22.13,0,0,1-4.54,2.84A12.51,12.51,0,0,1,61,50.2c-1.85,0-3.56-.31-5.22-.39a10.53,10.53,0,0,0-4.62.68c-2.89,1.16-4.86,4-5.92,7.2a24.17,24.17,0,0,0-1.16,4.94,38.31,38.31,0,0,0-.39,5.15l-.2,0a26.93,26.93,0,0,1,.35-10.53,15.49,15.49,0,0,1,2.19-5,10.46,10.46,0,0,1,4.31-3.66,11.8,11.8,0,0,1,5.56-.93c1.81.09,3.53.41,5.16.5a10.62,10.62,0,0,0,4.7-.74,41.11,41.11,0,0,0,4.55-2.19c3-1.72,6.15-3.37,8.42-5.92a9.28,9.28,0,0,0,2.15-4.43c.21-1.62.32-3.44.63-5.16A12,12,0,0,1,82.2,27a2.59,2.59,0,0,1,.23-.42A1.34,1.34,0,0,1,83.2,26l.23,0h.63l1.3,0c1.74,0,3.47.05,5.21.11,3.47.11,6.94.32,10.41.67Z"/><path class="cls-1" d="M61.14,153.09a54.2,54.2,0,0,0-.33-10.43c-.37-3.46-.91-6.9-1.54-10.31a180.73,180.73,0,0,0-5.5-20.1c-2.09-6.66-4.5-13.25-6.4-20Q45.9,87.17,44.9,82a85,85,0,0,1-1.44-10.42q.78,5.2,2.06,10.28c.84,3.39,1.86,6.73,2.94,10,2.19,6.63,4.66,13.16,7.06,19.76A114.68,114.68,0,0,1,61,132.05a82.59,82.59,0,0,1,1,10.53,51.88,51.88,0,0,1-.09,5.29A28.69,28.69,0,0,1,61.14,153.09Z"/><path class="cls-1" d="M141.79,67.8c0,1.82-.08,3.66-.18,5.49s-.41,3.64-.68,5.46-.68,3.6-1.07,5.39-.9,3.55-1.43,5.3l-1.8,5.18c-.64,1.71-1.27,3.42-1.85,5.15-1.2,3.44-2.21,6.94-3.19,10.45-.48,1.76-.93,3.52-1.45,5.27s-1,3.5-1.48,5.24l-1.4,5.25-1.32,5.26a138.11,138.11,0,0,0-3.77,21.37H122a71.86,71.86,0,0,1,1.89-21.86c.45-1.77.88-3.56,1.39-5.32l1.61-5.24c1.13-3.48,2.37-6.91,3.69-10.31s2.56-6.82,3.61-10.31,1.82-7,2.66-10.57c.41-1.77.83-3.53,1.32-5.27s.82-3.52,1.27-5.28.73-3.54,1.15-5.31.64-3.57,1-5.36Z"/><path class="cls-2" d="M73.26,65.74A21.06,21.06,0,0,1,79.1,80.42c0,.68-.07,1.36-.11,2a11.74,11.74,0,0,1-.26,2c-.15.66-.23,1.35-.44,2s-.46,1.29-.7,1.92a11.06,11.06,0,0,1-.87,1.84c-.33.6-.65,1.2-1,1.78a38.59,38.59,0,0,1-2.46,3.19.07.07,0,0,1-.11,0,.08.08,0,0,1,0-.08h0c.52-1.25,1.1-2.43,1.66-3.61.23-.62.48-1.22.72-1.82a12.05,12.05,0,0,0,.67-1.82c.2-.62.39-1.23.61-1.84s.31-1.24.48-1.86a10.41,10.41,0,0,0,.39-1.89c.08-.64.2-1.28.24-1.92a20.87,20.87,0,0,0-1-7.67,19.94,19.94,0,0,0-3.74-6.87h0a.06.06,0,0,1,0-.1A.07.07,0,0,1,73.26,65.74Z"/><path class="cls-2" d="M110.49,65.85a19.94,19.94,0,0,0-3.74,6.87,20.65,20.65,0,0,0-1,7.67c0,.64.15,1.28.23,1.92a10.41,10.41,0,0,0,.39,1.89c.17.62.27,1.25.49,1.86s.4,1.22.6,1.84a12.05,12.05,0,0,0,.67,1.82c.24.6.49,1.2.72,1.82.56,1.18,1.14,2.36,1.66,3.61h0a.07.07,0,0,1,0,.1.09.09,0,0,1-.09,0A38.59,38.59,0,0,1,107.91,92c-.34-.58-.66-1.18-1-1.78a11.06,11.06,0,0,1-.87-1.84c-.24-.63-.48-1.28-.7-1.92s-.29-1.34-.44-2a11.74,11.74,0,0,1-.26-2c0-.68-.11-1.36-.11-2a21.06,21.06,0,0,1,5.84-14.68.08.08,0,0,1,.11,0,.07.07,0,0,1,0,.1Z"/><path class="cls-3" d="M128.51,48.7a5.2,5.2,0,0,1,4.78,4.76c.58,6.5,1.21,20.34-2,33.52-4.23,17.3-10.35,34.6-11,37.93-1.43,7.55-1.26,15.9,2.38,22.83.39.75,1.4,2.84,2.62,5.08,1,1.79,2.84,4.94,3.7,6.4a.51.51,0,0,1-.44.78H56.64a.51.51,0,0,1-.4-.85c4.56-5.13,8.84-21.28,9.2-22.65a1.16,1.16,0,0,0,0-.18c2.64-14.66-4.71-27.92-8.8-41.48-.28-.91-1-3.85-1.86-7.84-2.42-11.37-.3-29.93.56-36.37a2.16,2.16,0,0,1,2.5-1.84,19.6,19.6,0,0,0,5.87.1,19.69,19.69,0,0,0,8.54-4.15,1.61,1.61,0,0,1,2.27.18,24.89,24.89,0,0,0,17.55,8.73c7.06.28,14.28-1.83,17.9-7.92a1.63,1.63,0,0,1,2.31-.57c1.09.73,5.38,4,10.53,3.6A37.6,37.6,0,0,1,128.51,48.7Z"/><path class="cls-1" d="M128.56,161H56.64a1.51,1.51,0,0,1-1.39-.9,1.48,1.48,0,0,1,.24-1.62c4.48-5,8.8-21.53,9-22.23l0-.1c2-10.83-1.77-21.13-5.38-31.09-1.17-3.25-2.39-6.61-3.39-9.94-.31-1-1.07-4.14-1.88-7.91-2.41-11.35-.42-29.45.55-36.71a3.12,3.12,0,0,1,1.23-2.11A3.19,3.19,0,0,1,58,47.8a18.45,18.45,0,0,0,5.55.1A18.56,18.56,0,0,0,71.66,44a2.62,2.62,0,0,1,3.66.3,23.76,23.76,0,0,0,16.83,8.39c7.79.31,14-2.39,17-7.43A2.71,2.71,0,0,1,110.88,44a2.51,2.51,0,0,1,2,.37l.3.2c1.42,1,5.18,3.58,9.6,3.23a40.82,40.82,0,0,1,5.81-.06h0a6.18,6.18,0,0,1,5.71,5.67c.62,7,1.17,20.69-2,33.85-2.67,10.92-6.13,22-8.41,29.25-1.31,4.16-2.34,7.45-2.56,8.63-1.13,6-1.65,14.68,2.29,22.18.12.23.29.58.51,1,.5,1,1.25,2.49,2.1,4,1,1.82,2.91,5.06,3.68,6.36a1.52,1.52,0,0,1-1.3,2.3Zm-70.91-2h70.06c-.92-1.55-2.44-4.13-3.29-5.7s-1.62-3.1-2.12-4.1c-.22-.43-.39-.77-.51-1-4.2-8-3.67-17.19-2.48-23.49.25-1.29,1.24-4.46,2.62-8.85,2.28-7.27,5.72-18.26,8.37-29.13,3.15-12.87,2.6-26.32,2-33.19a4.22,4.22,0,0,0-3.87-3.86,38.26,38.26,0,0,0-5.51.07c-5.11.4-9.46-2.6-10.88-3.58l-.28-.19a.58.58,0,0,0-.44-.08.69.69,0,0,0-.45.34c-3.39,5.68-10.23,8.73-18.8,8.4A25.76,25.76,0,0,1,73.8,45.57a.62.62,0,0,0-.87-.06,20.66,20.66,0,0,1-9,4.37,20.72,20.72,0,0,1-6.2-.1,1.16,1.16,0,0,0-.9.22,1.12,1.12,0,0,0-.45.77c-.74,5.58-3,24.67-.57,36,.89,4.17,1.6,7,1.83,7.76,1,3.27,2.2,6.61,3.36,9.83,3.7,10.21,7.52,20.76,5.47,32.12,0,.08,0,.16,0,.25C66,138.47,62.09,153.05,57.65,159Z"/></svg>