<svg id="图层_1" data-name="图层 1" xmlns="http://www.w3.org/2000/svg" viewBox="0 0 186 186"><defs><style>.cls-1{fill:#5b3b2f;}.cls-2{fill:#f4e2e9;}.cls-3{fill:#f2f2f2;}</style></defs><path class="cls-1" d="M83,26.8c3.43-.38,6.86-.59,10.3-.7C95,26,96.68,26,98.39,26c.86,0,1.72,0,2.58,0h.19l.14,0a.88.88,0,0,1,.26.08,1.21,1.21,0,0,1,.29.2,1.51,1.51,0,0,1,.35.57,4.65,4.65,0,0,1,.21.76,10.77,10.77,0,0,1,.16,1.35c.07.87.07,1.79.09,2.6a13.35,13.35,0,0,0,.31,2.45,11.52,11.52,0,0,0,2.13,4.48c2.05,2.71,5,4.52,8,6.19A33.18,33.18,0,0,0,117.58,47a18.59,18.59,0,0,0,4.71,1.22,23.71,23.71,0,0,0,4.9-.48,10.23,10.23,0,0,1,2.82,0,12.52,12.52,0,0,1,2.72.74,16.83,16.83,0,0,1,8,7.16,14.61,14.61,0,0,1,1.94,10.2l-.2,0a15.76,15.76,0,0,0-3.08-9.33,16.64,16.64,0,0,0-7.41-6,10.93,10.93,0,0,0-2.23-.62,11.06,11.06,0,0,0-2.31,0,23.93,23.93,0,0,1-5.32.27,21.45,21.45,0,0,1-9.61-4.35,36.53,36.53,0,0,1-7.86-6.77,15.86,15.86,0,0,1-2.55-4.61,14.27,14.27,0,0,1-.62-2.6c-.1-.89-.21-1.68-.37-2.51-.08-.41-.17-.81-.28-1.18a1.83,1.83,0,0,0-.16-.47c0-.05-.07-.09,0,0a.68.68,0,0,0,.16.11l.18.06h-.07c-.85,0-1.71,0-2.57,0-1.71,0-3.42,0-5.13-.1-3.42-.11-6.85-.31-10.28-.7Z"/><path class="cls-1" d="M101,27c-3.47.35-6.94.56-10.41.67-1.74.06-3.47.1-5.21.11l-1.3,0h-.59l.14,0c.34-.12.29-.19.29-.15a.75.75,0,0,0-.08.14,15.78,15.78,0,0,0-.69,2.3l-.57,2.5c-.2.86-.32,1.66-.57,2.59a11.36,11.36,0,0,1-2.8,4.6,30.24,30.24,0,0,1-4,3.38c-1.44,1-2.78,2.07-4.17,3.15a22.13,22.13,0,0,1-4.54,2.84A12.51,12.51,0,0,1,61,50.2c-1.85,0-3.56-.31-5.22-.39a10.53,10.53,0,0,0-4.62.68c-2.89,1.16-4.86,4-5.92,7.2a24.17,24.17,0,0,0-1.16,4.94,38.31,38.31,0,0,0-.39,5.15l-.2,0a26.93,26.93,0,0,1,.35-10.53,15.49,15.49,0,0,1,2.19-5,10.46,10.46,0,0,1,4.31-3.66,11.8,11.8,0,0,1,5.56-.93c1.81.09,3.53.41,5.16.5a10.62,10.62,0,0,0,4.7-.74,41.11,41.11,0,0,0,4.55-2.19c3-1.72,6.15-3.37,8.42-5.92a9.28,9.28,0,0,0,2.15-4.43c.21-1.62.32-3.44.63-5.16A12,12,0,0,1,82.2,27a2.59,2.59,0,0,1,.23-.42A1.34,1.34,0,0,1,83.2,26l.23,0h.63l1.3,0c1.74,0,3.47.05,5.21.11,3.47.11,6.94.32,10.41.67Z"/><path class="cls-1" d="M61.14,153.09a54.2,54.2,0,0,0-.33-10.43c-.37-3.46-.91-6.9-1.54-10.31a180.73,180.73,0,0,0-5.5-20.1c-2.09-6.66-4.5-13.25-6.4-20Q45.9,87.17,44.9,82a85,85,0,0,1-1.44-10.42q.78,5.2,2.06,10.28c.84,3.39,1.86,6.72,2.94,10,2.19,6.63,4.66,13.16,7.06,19.76A114.68,114.68,0,0,1,61,132.05a82.59,82.59,0,0,1,1,10.53,51.88,51.88,0,0,1-.09,5.29A28.69,28.69,0,0,1,61.14,153.09Z"/><path class="cls-1" d="M141.79,67.8c0,1.82-.08,3.66-.18,5.49s-.41,3.64-.68,5.46-.68,3.6-1.07,5.39-.9,3.55-1.43,5.3l-1.8,5.18c-.64,1.71-1.27,3.42-1.85,5.15-1.2,3.44-2.21,6.94-3.19,10.45-.48,1.76-.93,3.52-1.45,5.27s-1,3.5-1.48,5.24l-1.4,5.25-1.32,5.26a138.11,138.11,0,0,0-3.77,21.37H122a71.86,71.86,0,0,1,1.89-21.86c.45-1.77.88-3.56,1.39-5.32l1.61-5.24c1.13-3.48,2.37-6.91,3.69-10.31s2.56-6.82,3.61-10.31,1.82-7,2.66-10.57c.41-1.77.83-3.53,1.32-5.27s.82-3.52,1.27-5.28.73-3.54,1.15-5.31.64-3.57,1-5.36Z"/><path class="cls-1" d="M73.26,65.74A21.06,21.06,0,0,1,79.1,80.42c0,.68-.07,1.36-.11,2a11.74,11.74,0,0,1-.26,2c-.15.66-.23,1.35-.44,2s-.46,1.29-.7,1.92a11.06,11.06,0,0,1-.87,1.84c-.33.6-.65,1.2-1,1.78a38.59,38.59,0,0,1-2.46,3.19.07.07,0,0,1-.11,0,.08.08,0,0,1,0-.08h0c.52-1.25,1.1-2.43,1.66-3.61.23-.62.48-1.22.72-1.82a12.05,12.05,0,0,0,.67-1.82c.2-.62.39-1.23.61-1.84s.31-1.24.48-1.86a10.41,10.41,0,0,0,.39-1.89c.08-.64.2-1.28.24-1.92a20.87,20.87,0,0,0-1-7.67,19.94,19.94,0,0,0-3.74-6.87h0a.06.06,0,0,1,0-.1A.07.07,0,0,1,73.26,65.74Z"/><path class="cls-1" d="M110.49,65.85a19.94,19.94,0,0,0-3.74,6.87,20.65,20.65,0,0,0-1,7.67c0,.64.15,1.28.23,1.92a10.41,10.41,0,0,0,.39,1.89c.17.62.27,1.25.49,1.86s.4,1.22.6,1.84a12.05,12.05,0,0,0,.67,1.82c.24.6.49,1.2.72,1.82.56,1.18,1.14,2.36,1.66,3.61h0a.07.07,0,0,1,0,.1.09.09,0,0,1-.09,0A38.59,38.59,0,0,1,107.91,92c-.34-.58-.66-1.18-1-1.78a11.06,11.06,0,0,1-.87-1.84c-.24-.63-.48-1.28-.7-1.92s-.29-1.34-.44-2a11.74,11.74,0,0,1-.26-2c0-.68-.11-1.36-.11-2a21.06,21.06,0,0,1,5.84-14.68.08.08,0,0,1,.11,0,.07.07,0,0,1,0,.1Z"/><path class="cls-2" d="M131.28,87q-.78,3.15-1.61,6.26c-4,15-8.82,28.75-9.37,31.67-1.43,7.55-1.26,15.9,2.38,22.83.39.75,1.4,2.84,2.62,5.08a67.43,67.43,0,0,0,4.36,6.35.52.52,0,0,1-.42.83H56.64a.51.51,0,0,1-.4-.85c4.57-5.14,8.85-21.31,9.2-22.66a.94.94,0,0,0,0-.16c2.65-14.67-4.71-27.92-8.8-41.49-.28-.91-1-3.85-1.86-7.84.35,1.6,9.36,5.89,11.88,7.22,10.71,5.6,22.14,9.29,34.3,7.29a55.78,55.78,0,0,0,15.83-5.32C119.41,94.9,130.92,88.43,131.28,87Z"/><path class="cls-1" d="M129.24,161H56.64a1.51,1.51,0,0,1-1.39-.9,1.48,1.48,0,0,1,.24-1.62c4.47-5,8.8-21.54,9-22.24,2-10.92-1.75-21.22-5.36-31.18-1.17-3.25-2.39-6.61-3.39-9.94-.31-1-1.07-4.14-1.88-7.91A1,1,0,0,1,54.61,86a1,1,0,0,1,1.19.77c.58,1.09,7.51,4.59,9.79,5.74.64.32,1.19.59,1.58.8,12.62,6.61,23.32,8.89,33.67,7.19a55,55,0,0,0,15.55-5.22c3.47-1.75,13.06-7.33,13.94-8.65a1,1,0,0,1,1.92.57c-.49,2-1,4.1-1.61,6.28-2.34,8.72-4.92,17-6.81,23-1.3,4.16-2.33,7.44-2.55,8.61-1.13,6-1.65,14.69,2.29,22.19.12.23.29.58.51,1,.5,1,1.25,2.49,2.1,4a68.09,68.09,0,0,0,4.28,6.23,1.52,1.52,0,0,1-1.22,2.43Zm-71.59-2h70.63a60.53,60.53,0,0,1-3.86-5.7c-.86-1.58-1.62-3.1-2.13-4.1-.21-.43-.38-.77-.5-1-4.2-8-3.67-17.19-2.48-23.49.25-1.29,1.24-4.46,2.61-8.84,1.88-6,4.46-14.22,6.78-22.89.29-1.07.56-2.11.82-3.14a135.14,135.14,0,0,1-12.24,7.24,57.06,57.06,0,0,1-16.12,5.41c-10.79,1.77-21.89-.57-34.92-7.4l-1.55-.79c-3.91-2-6.53-3.39-8.22-4.49.56,2.49,1,4.15,1.16,4.73,1,3.27,2.2,6.6,3.36,9.82,3.7,10.22,7.52,20.78,5.47,32.13a2,2,0,0,1,0,.24C66,138.46,62.08,153.05,57.65,159ZM130.3,86.74Z"/><path class="cls-3" d="M130.93,89.09c.79-.43,1.65.52,2.09,1.06a10.44,10.44,0,0,1,1.16,1.65,1.5,1.5,0,0,1-.79,2c-.44.26-1.28.46-1.66.06a4.37,4.37,0,0,1-.69-1.36c-.29-.73-1-2.45-.37-3.16A1.21,1.21,0,0,1,130.93,89.09Z"/><path class="cls-1" d="M132.36,94.78a1.57,1.57,0,0,1-1.17-.45,4,4,0,0,1-.76-1.38l-.13-.34c-.41-1-1.16-2.82-.17-3.84a1.9,1.9,0,0,1,.43-.33h0c.93-.51,1.95-.1,3,1.24a9.71,9.71,0,0,1,1.24,1.78,2.2,2.2,0,0,1-1.07,2.93A2.82,2.82,0,0,1,132.36,94.78Zm-1.07-5-.08.06c-.09.1-.23.51.48,2.24l.14.36a3.14,3.14,0,0,0,.44.88,1.33,1.33,0,0,0,.73-.19c.08,0,.76-.47.51-.95a8.87,8.87,0,0,0-1.07-1.52C131.6,89.6,131.31,89.74,131.29,89.75Z"/></svg>