<svg id="图层_1" data-name="图层 1" xmlns="http://www.w3.org/2000/svg" viewBox="0 0 186 186"><defs><style>.cls-1{fill:#5a3a2e;}.cls-2{fill:#59392d;}.cls-3{fill:#f2e0e5;}</style></defs><path class="cls-1" d="M82.91,15.86c0,2.23-.11,4.45-.17,6.68s-.17,4.45-.26,6.67v.29l-.26.13a40.91,40.91,0,0,1-6,2.33c-2,.64-4,1.27-6.06,1.84C66.1,35,62,36,57.92,37c-.52.13-1,.25-1.58.36-.22,0-.15,0-.26,0l-.34.14-.71.3c-1,.41-1.88.86-2.79,1.36A36.5,36.5,0,0,0,47,42.53a21.55,21.55,0,0,0-4.38,4.36,11.06,11.06,0,0,0-2.19,5.75,10.66,10.66,0,0,1,1.7-6.08,20.24,20.24,0,0,1,4.22-4.82,35.85,35.85,0,0,1,5.26-3.66c.93-.53,1.88-1,2.85-1.48l.74-.34.38-.16.29-.09.22,0c.44-.09,1-.25,1.49-.37q6.11-1.55,12.19-3.19c2-.56,4.06-1.1,6.07-1.69a46.4,46.4,0,0,0,5.86-2l-.27.42c.22-2.21.43-4.43.69-6.64S82.61,18.07,82.91,15.86Z"/><path class="cls-2" d="M53.25,99.66a103.28,103.28,0,0,1,.45-13.51c.23-2.25.52-4.48.83-6.71s.71-4.46.89-6.69h.15a36.49,36.49,0,0,1,.13,6.84c-.1,2.25-.32,4.48-.51,6.7l-.35,3.33c-.16,1.11-.23,2.22-.41,3.33-.25,2.22-.61,4.44-1,6.71Z"/><path class="cls-2" d="M40.75,52.64l-1.25,24-1.39,24H38c-.18-2-.19-4-.29-6l0-6c0-4,.18-8,.37-12s.5-8,1-12l.68-6c.32-2,.56-4,1-6Z"/><path class="cls-2" d="M149.89,98.24,148.1,74.1,146.46,50h.15c.43,2,.7,4,1,6l.78,6c.52,4,.84,8,1.16,12s.5,8,.56,12.09l.07,6.06c-.06,2,0,4-.19,6.08Z"/><path class="cls-2" d="M131.45,73.5c.21,2.17.7,4.33,1.07,6.5s.77,4.33,1.11,6.5a89.32,89.32,0,0,1,1.12,13.16h-.15c-.49-2.2-1-4.33-1.35-6.48s-.75-4.3-1.1-6.45-.61-4.33-.79-6.53a31.21,31.21,0,0,1-.06-6.7Z"/><path class="cls-2" d="M73,39.88c3-.3,6-.5,9-.58,1.51,0,3,0,4.52.05a18.72,18.72,0,0,1,2.24.25,4.51,4.51,0,0,1,2.1.78,4.37,4.37,0,0,0-2.11-.66,18.68,18.68,0,0,0-2.24-.12c-1.5,0-3,.08-4.48.2-3,.24-6,.61-8.91,1.07Z"/><path class="cls-2" d="M115.22,39.88l.28,0h0c.44.06-.73-.34-.17.93l0,0-.07,0-.57-.1-1.16-.19-2.33-.35c-1.56-.21-3.12-.39-4.69-.53s-3.13-.22-4.71-.21a18.27,18.27,0,0,0-2.34.15,4.55,4.55,0,0,0-2.21.74,4.73,4.73,0,0,1,2.19-.87,20.79,20.79,0,0,1,2.36-.27,46.84,46.84,0,0,1,4.74,0c1.58,0,3.16.15,4.74.28l2.36.22,1.19.13.59.08a1,1,0,0,1,.22,0l0,0c.57,1.28-.61.87-.17.94h-.22l-.31,0Z"/><path class="cls-1" d="M134.43,99.66a47.2,47.2,0,0,0,.58,4.87l.81,4.83,1.75,9.66c.6,3.22,1.16,6.44,1.66,9.68.25,1.63.49,3.24.61,4.92a18.92,18.92,0,0,1-.36,5c-.37,1.69-1.18,3.17-1.64,4.66a33.34,33.34,0,0,0-.78,4.73q-.54,4.84-.86,9.74c0,.81-.1,1.62-.12,2.43a4.25,4.25,0,0,0,0,1c0,.15.07.12,0,.09s-.06,0-.07,0,0,0,.1,0a4.16,4.16,0,0,0,1.49-1.36,7.45,7.45,0,0,0,.78-2.06c.43-1.55.77-3.15,1.2-4.75a10.54,10.54,0,0,1,.9-2.5A2.58,2.58,0,0,1,141,150a1.64,1.64,0,0,1,1-.39,1.69,1.69,0,0,1,1,.32,2.76,2.76,0,0,1,.61.62l.13.17v.23c0,1.67-.06,3.32-.16,5,0,.83-.11,1.67-.22,2.51a12.4,12.4,0,0,1-.55,2.59,12,12,0,0,1-1.33,2.27c-.48.69-1,1.37-1.48,2-1,1.33-2.05,2.61-3.12,3.89l.17-.47a1.61,1.61,0,0,0,.11.72s-.08,0,0,0a.94.94,0,0,0,.31-.09,7.59,7.59,0,0,0,1.76-1.36c1.07-1.13,2.18-2.42,3.26-3.64,2.16-2.48,4.35-5,6.31-7.54l.35-.49c.09-.16.15-.3.24-.45a6.16,6.16,0,0,0,.35-1,16.22,16.22,0,0,0,.37-2.35c.17-1.61.23-3.25.29-4.89l.32-9.89c.1-3.29.36-6.61.57-9.88s.16-6.57,0-9.85-.4-6.57-.73-9.85-.8-6.55-.87-9.86c.07,1.65.32,3.28.55,4.92l.68,4.9c.43,3.27.8,6.55,1,9.85a88.86,88.86,0,0,1,.18,9.93c-.15,3.31-.34,6.58-.39,9.87l-.13,9.9c0,1.65-.1,3.31-.25,5a18.68,18.68,0,0,1-.39,2.53,7.23,7.23,0,0,1-.43,1.29c-.11.22-.22.45-.34.64l-.37.53c-2,2.68-4.18,5.16-6.33,7.67-1.11,1.25-2.13,2.47-3.32,3.74a8.47,8.47,0,0,1-2.15,1.64,2.3,2.3,0,0,1-.87.23,1.35,1.35,0,0,1-1.12-.49,2.53,2.53,0,0,1-.45-1.64l0-.24.18-.22c1-1.26,2.07-2.55,3.05-3.85.5-.65,1-1.31,1.43-2a11.62,11.62,0,0,0,1.17-2,11,11,0,0,0,.47-2.23c.11-.79.17-1.6.23-2.42.11-1.62.17-3.26.18-4.89l.12.4c-.12-.18-.4-.35-.39-.31s0,0-.12.05a1.76,1.76,0,0,0-.24.31,10.21,10.21,0,0,0-.75,2.1c-.42,1.56-.77,3.16-1.22,4.76a8.48,8.48,0,0,1-1,2.48,6.21,6.21,0,0,1-.9,1,3.67,3.67,0,0,1-1.25.82,1.85,1.85,0,0,1-.5.1,1.32,1.32,0,0,1-.65-.17,1.41,1.41,0,0,1-.62-.93,5.66,5.66,0,0,1,0-1.4c0-.83.09-1.65.14-2.47.24-3.28.52-6.54,1-9.8a34.14,34.14,0,0,1,.91-4.94c.55-1.62,1.35-3,1.71-4.55a18.2,18.2,0,0,0,.41-4.73c-.08-1.59-.29-3.22-.5-4.83-.44-3.24-1-6.47-1.44-9.7l-1.46-9.71A86.61,86.61,0,0,1,134.43,99.66Z"/><path class="cls-1" d="M53.09,99.72a86.36,86.36,0,0,1-1,9.76l-1.45,9.71c-.48,3.23-1,6.46-1.44,9.7-.22,1.61-.43,3.24-.51,4.83a17.75,17.75,0,0,0,.42,4.73c.35,1.52,1.16,2.93,1.7,4.55a32.88,32.88,0,0,1,.92,4.94c.42,3.26.7,6.52.94,9.8.06.82.11,1.64.15,2.47a5.73,5.73,0,0,1-.05,1.4,1.39,1.39,0,0,1-.61.93,1.34,1.34,0,0,1-.65.17,1.77,1.77,0,0,1-.5-.1,3.82,3.82,0,0,1-1.26-.82,6.71,6.71,0,0,1-.9-1,8.17,8.17,0,0,1-1-2.48c-.45-1.6-.8-3.2-1.23-4.76a10.21,10.21,0,0,0-.75-2.1,1.39,1.39,0,0,0-.24-.31.26.26,0,0,0-.11-.05s-.28.13-.4.31l.13-.4c0,1.63.07,3.27.17,4.9.06.81.13,1.62.23,2.41a11.68,11.68,0,0,0,.47,2.23,12.31,12.31,0,0,0,1.17,2c.46.66.94,1.32,1.43,2,1,1.3,2,2.59,3,3.85l.18.22v.24a2.61,2.61,0,0,1-.46,1.64,1.33,1.33,0,0,1-1.12.49,2.25,2.25,0,0,1-.86-.23A8.53,8.53,0,0,1,47.3,169c-1.19-1.27-2.21-2.49-3.31-3.74-2.16-2.51-4.32-5-6.33-7.67l-.37-.53c-.12-.19-.23-.42-.35-.64a8.08,8.08,0,0,1-.42-1.29,17.23,17.23,0,0,1-.39-2.53c-.16-1.67-.23-3.33-.26-5l-.13-9.9c0-3.29-.24-6.56-.39-9.87a91.32,91.32,0,0,1,.18-9.93c.24-3.3.6-6.58,1-9.85l.68-4.9c.22-1.64.48-3.27.55-4.92-.07,3.31-.57,6.58-.87,9.86s-.6,6.56-.73,9.85-.16,6.57,0,9.85.47,6.59.58,9.88l.31,9.89c.06,1.64.13,3.28.29,4.89a17.72,17.72,0,0,0,.38,2.35,5.39,5.39,0,0,0,.35,1c.08.15.14.29.24.45l.34.49c2,2.58,4.15,5.06,6.31,7.54,1.08,1.22,2.19,2.51,3.27,3.64a7.55,7.55,0,0,0,1.75,1.36,1.05,1.05,0,0,0,.32.09c.06,0,0,0,0,0a1.56,1.56,0,0,0,.12-.72l.17.47c-1.07-1.28-2.11-2.56-3.12-3.88-.51-.66-1-1.34-1.48-2a11.52,11.52,0,0,1-1.34-2.27,12.4,12.4,0,0,1-.55-2.59c-.1-.84-.16-1.68-.22-2.51-.1-1.67-.15-3.32-.15-5v-.23l.12-.17a2.61,2.61,0,0,1,.62-.62,1.65,1.65,0,0,1,1-.32,1.61,1.61,0,0,1,1,.39,2.87,2.87,0,0,1,.54.64,11,11,0,0,1,.9,2.5c.43,1.6.77,3.2,1.19,4.75a7.45,7.45,0,0,0,.79,2.06,4.06,4.06,0,0,0,1.48,1.36c.06,0,.07,0,.1,0s0,0-.07,0,0,.06,0-.09a5.57,5.57,0,0,0,0-1c0-.81-.08-1.62-.13-2.43q-.32-4.89-.86-9.74a34.84,34.84,0,0,0-.77-4.73c-.47-1.49-1.28-3-1.65-4.66a18.92,18.92,0,0,1-.35-5c.11-1.68.36-3.29.61-4.92.5-3.24,1.06-6.46,1.65-9.68l1.75-9.66.81-4.83A44.6,44.6,0,0,0,53.09,99.72Z"/><path class="cls-2" d="M146.29,50a8.21,8.21,0,0,0-2.2-4.69,21.08,21.08,0,0,0-4-3.44,38.93,38.93,0,0,0-4.5-2.75A31,31,0,0,0,130.82,37l-.17-.09c.08.05,0,0-.06,0l-.17-.06-.35-.12-.75-.22-1.52-.41c-1-.26-2.07-.49-3.12-.8-2.06-.6-4.09-1.25-6.12-1.93q-6.07-2-12.09-4.19L106,29l0-.48c-.32-4.2-.58-8.4-.85-12.6l.62.57-11.43-.23-5.71-.17c-1.9-.06-3.81-.13-5.71-.22,1.9-.09,3.81-.16,5.71-.22l5.71-.17,11.43-.23h.57l0,.58c.37,4.2.74,8.39,1.07,12.59l-.49-.63L119,32c2,.67,4,1.38,6,2,1,.32,2,.56,3.06.86.52.14,1,.29,1.55.46l.78.26.39.15.21.09a2.61,2.61,0,0,1,.29.16l-.17-.09a33.55,33.55,0,0,1,4.9,2.36,39.67,39.67,0,0,1,4.48,3A21.58,21.58,0,0,1,144.4,45,7.91,7.91,0,0,1,146.29,50Z"/><path class="cls-3" d="M132.72,154.62s-4.31-38.8-4.08-53.12c0-1.65.24-7.34.29-8.27.14-2.57.37-5.38.85-10.62.06-.68.38-5.67,2.52-7.63.66-.6,3.7,45.21,4.93,44.94,5.11-1.15,17.8,2.08,17.21-3.5-.38-3.53-4-42-4.09-44.73a180.64,180.64,0,0,0-1.75-19.57c-.1-.45-1-5.62-4.75-8.74-4.53-3.81-19-8.75-22.17-10.07-1.24-.53-2.52-.34-2.8.07h0c-13,18.31-29.49,19.41-44,2.67L73.06,34a2.66,2.66,0,0,0-2.26-.87c-4.8,1.29-11.28,2.36-18.49,6.26C47.16,42.13,41.94,46.81,41,51.12c-1.17,5.19-2.6,19.82-2.58,19.95l-.16,5.26c-.67,10.25-2.59,36.14-2.95,40.05-.58,6.18,9.22,1.5,16.5,3.12,1.58.35,3-45.51,3.39-45a16.07,16.07,0,0,1,2.13,4.57A66.07,66.07,0,0,1,59,87c.45,3.25.77,7,.83,8.87.46,13-2.64,58.79-2.64,58.79Z"/><path class="cls-2" d="M132.72,155.62H57.16a1,1,0,0,1-1-1.06c0-.46,3.09-45.92,2.64-58.7-.06-1.81-.39-5.59-.82-8.77a66.72,66.72,0,0,0-1.65-7.77A10.14,10.14,0,0,0,55.89,78c-.11,2-.25,4.83-.39,7.7-1.4,28.66-2,33.77-3,34.57a1.21,1.21,0,0,1-.9.21,27.94,27.94,0,0,0-8.37,0c-3.45.32-6.42.6-8-1a3.82,3.82,0,0,1-.94-3.21c.37-4,2.31-30.19,2.95-40L37.39,71h0C37.48,69.21,39,55.52,40,50.91c1.14-5.07,7.1-9.87,11.85-12.45A62,62,0,0,1,67.6,32.85c1-.25,2-.49,2.94-.73a3.59,3.59,0,0,1,3.27,1.17l1.83,2.11c6.81,7.86,14.26,11.81,21.49,11.48,7.42-.36,14.66-5.23,20.94-14.07.59-.9,2.39-1.1,4-.42.63.26,1.76.69,3.18,1.23,5.81,2.19,15.52,5.86,19.24,9s4.81,7.89,5.08,9.29a180.18,180.18,0,0,1,1.78,19.76c.07,2.56,3.68,40.89,4.08,44.65a3.37,3.37,0,0,1-.85,2.78c-1.86,2-6.11,1.82-10.61,1.65a30,30,0,0,0-6.52.15,1.1,1.1,0,0,1-.86-.18c-.81-.6-1.26-2.91-3.45-28.06-.5-5.8-1-11.73-1.38-14.94a18.86,18.86,0,0,0-1,4.86v.13c-.49,5.46-.71,8.13-.84,10.58-.05.86-.27,6.57-.29,8.24-.23,14.09,4,52.61,4.07,53a1,1,0,0,1-.25.78A1,1,0,0,1,132.72,155.62Zm-74.5-2H131.6c-.7-6.46-4.17-39.28-4-52.14,0-1.64.24-7.29.29-8.31.14-2.48.35-5.17.85-10.65V82.4c.33-3.94,1.31-6.77,2.84-8.16a1.06,1.06,0,0,1,1.05-.2c.86.34.88.35,2.45,18.43.82,9.37,2,23.16,2.71,26.33a39.25,39.25,0,0,1,6.2-.06c3.5.14,7.84.31,9.08-1a1.43,1.43,0,0,0,.32-1.21c-.37-3.48-4-42-4.09-44.81a172.93,172.93,0,0,0-1.74-19.39c-.25-1.28-1.28-5.55-4.41-8.18-3.45-2.91-13.34-6.64-18.65-8.65-1.45-.55-2.59-1-3.26-1.26a2.59,2.59,0,0,0-1.65-.18C113,43.37,105.25,48.49,97.23,48.87s-15.87-3.82-23.1-12.16L72.3,34.6a1.74,1.74,0,0,0-1.24-.55c-.93.25-1.93.49-3,.75a60.06,60.06,0,0,0-15.29,5.42c-4.73,2.56-9.92,7-10.84,11.12-1.14,5-2.51,19.07-2.56,19.74v0l-.16,5.26c-.66,10.15-2.58,36-3,40.11-.1,1.14.24,1.49.36,1.6.89.89,3.68.63,6.37.37a32.81,32.81,0,0,1,8.23-.06C52.08,114.68,53,96,53.5,85.6c.58-11.84.58-11.84,1.39-12.07a1,1,0,0,1,1.1.4,17.25,17.25,0,0,1,2.28,4.88,71,71,0,0,1,1.69,8c.46,3.37.78,7.13.84,9C61.22,107.57,58.69,146.65,58.22,153.62ZM119.59,34.07Zm.13-.14,0,0Z"/></svg>