<svg id="图层_1" data-name="图层 1" xmlns="http://www.w3.org/2000/svg" viewBox="0 0 186 186"><defs><style>.cls-1{fill:#f0dfe3;}.cls-2{fill:#5a3a2e;}.cls-3{fill:#fff;}</style></defs><path class="cls-1" d="M56.77,125.88c-5.3-1-10.38-2.46-15-5.38-2.3-1.47-5.34-3.86-6.14-6.62s.62-6.08-.37-9A18.76,18.76,0,0,0,30.46,98L51.21,65,69.63,72.7Z"/><path class="cls-2" d="M56.77,126.88l-.19,0c-4.72-.91-10.24-2.28-15.33-5.52-2.51-1.59-5.69-4.13-6.57-7.18a12.86,12.86,0,0,1-.18-4.7,10.45,10.45,0,0,0-.18-4.27,18,18,0,0,0-4.57-6.52,1,1,0,0,1-.14-1.24l20.76-33a1,1,0,0,1,1.23-.39L70,71.78a1,1,0,0,1,.59,1.16L57.74,126.11A1,1,0,0,1,56.77,126.88ZM31.72,97.82a18.67,18.67,0,0,1,4.49,6.73,12.23,12.23,0,0,1,.29,5.09,10.86,10.86,0,0,0,.1,4c.75,2.58,3.9,4.9,5.72,6.05A40,40,0,0,0,56,124.71L68.46,73.3,51.61,66.24Z"/><path class="cls-1" d="M154.86,98.11c-3.57,2.77-4,7.19-5.75,11.06a25.82,25.82,0,0,1-8.42,10.76c-5.62,3.9-12.09,2.29-17.66,6.92L119.77,68l27,16.69Z"/><path class="cls-2" d="M123,127.85a1.14,1.14,0,0,1-.4-.08,1,1,0,0,1-.6-.87L118.77,68a1,1,0,0,1,1.53-.9l26.94,16.69a1,1,0,0,1,.33.33l8.15,13.43a1,1,0,0,1-.24,1.31c-2.32,1.8-3.2,4.41-4.15,7.18-.39,1.15-.79,2.34-1.31,3.5a26.78,26.78,0,0,1-8.76,11.17c-2.81,2-5.78,2.59-8.66,3.22-3.17.7-6.16,1.35-8.93,3.65A1,1,0,0,1,123,127.85Zm-2.15-58L123.93,125a23.83,23.83,0,0,1,8.25-2.94c2.81-.61,5.46-1.19,7.94-2.91a24.93,24.93,0,0,0,8.08-10.35c.47-1.07.86-2.22,1.24-3.32.91-2.68,1.85-5.43,4.13-7.54L146,85.4Z"/><path class="cls-2" d="M80.63,15.74c0,2.23-.11,4.45-.17,6.68s-.17,4.45-.26,6.67v.29l-.26.13a39,39,0,0,1-6,2.33c-2,.64-4,1.27-6.06,1.84-9.55,2.65-21.16,4.6-27.54,13.09a11.05,11.05,0,0,0-2.19,5.75,10.65,10.65,0,0,1,1.7-6.08c2.73-4.22,8.37-7.17,12.91-9.24,5.15-2.35,9.32-3.35,14.73-4.87,2-.56,4.06-1.1,6.07-1.69a45,45,0,0,0,5.86-2l-.27.42c.22-2.21.43-4.43.69-6.64S80.33,18,80.63,15.74Z"/><path class="cls-2" d="M70.72,39.76c3-.3,6-.5,9-.58,1.51,0,3,0,4.52,0a21,21,0,0,1,2.24.25,4.51,4.51,0,0,1,2.1.78,4.47,4.47,0,0,0-2.11-.66,20.87,20.87,0,0,0-2.24-.12c-1.5,0-3,.08-4.48.2-3,.24-6,.61-8.91,1.07Z"/><path class="cls-2" d="M112.94,39.76h.28c.44.06-.73-.34-.17.93H113l-.57-.1-1.16-.19-2.33-.35c-1.56-.21-3.12-.39-4.69-.53s-3.13-.22-4.71-.21a18.38,18.38,0,0,0-2.34.15A4.58,4.58,0,0,0,95,40.2a4.75,4.75,0,0,1,2.19-.87,23.35,23.35,0,0,1,2.36-.27,46.84,46.84,0,0,1,4.74,0c1.58,0,3.16.15,4.74.28l2.36.22,1.19.13.59.08h.22c.57,1.28-.61.87-.17.94h-.53Z"/><path class="cls-2" d="M144.62,51a15,15,0,0,0-6.16-8,47,47,0,0,0-7.46-4c-2.59-1.2-6.87-3.59-9.6-4.38-2.06-.6-3.09-.62-5.12-1.3q-6.07-2-12.09-4.19l-.47-.18V28.4c-.32-4.2-.58-8.4-.85-12.6l.62.57-11.43-.23L86.35,16c-1.9-.06-3.81-.13-5.71-.22,1.9-.09,3.81-.16,5.71-.22l5.71-.17,11.43-.23h.57v.58c.37,4.2.74,8.39,1.07,12.59l-.49-.63,12.08,4.21c4.92,1.72,10.58,4.18,15.39,6.34,4.58,2.05,9.63,5,11.68,9.83A12.52,12.52,0,0,1,144.62,51Z"/><path class="cls-3" d="M54,36.85a4.14,4.14,0,0,0-1.24.35c-4.61,2-15,7.71-15,15.72L35.48,98.11c0,2-3.23,18.21-2.27,31.74s0,24.2,1.91,27.05,9.56,11.39,9.56,11.39,3.82,4.28,3.82.72c0,0-4.78-5.7-5.74-7.84s-.95-10-.95-10a1.06,1.06,0,0,1,1.91,0c1,1.42,1.91,7.83,2.87,9.25s2.86,2.85,2.86.71-1-14.95-1.91-17.8-2.09-4.23-2.09-9.21,5.9-32.55,5.71-37.53c-.45-11.79,2.17-24.78,2.17-26.91"/><path class="cls-2" d="M38.47,52.52l-1.25,24-1.39,24h-.11c-.18-2-.19-4-.29-6v-6c0-4,.18-8,.37-12s.5-8,1-12l.68-6c.32-2,.56-4,1-6Z"/><path class="cls-2" d="M51,99.54A105.12,105.12,0,0,1,51.42,86c.23-2.25.52-4.48.83-6.71s.71-4.46.89-6.69h.15a36.35,36.35,0,0,1,.13,6.84c-.1,2.26-.32,4.48-.51,6.7l-.35,3.33c-.16,1.11-.23,2.22-.41,3.33-.25,2.22-.61,4.44-1,6.71Z"/><path class="cls-2" d="M50.81,99.6a86.29,86.29,0,0,1-1,9.76l-1.45,9.71c-.48,3.23-1,6.46-1.44,9.7-.22,1.61-.43,3.24-.51,4.83a17.9,17.9,0,0,0,.42,4.73c.35,1.52,1.16,2.93,1.7,4.55a33.3,33.3,0,0,1,.92,4.94c.42,3.26.7,6.52.94,9.8.06.82.11,1.64.15,2.47a6,6,0,0,1,0,1.4,1.39,1.39,0,0,1-.61.93,1.34,1.34,0,0,1-.65.17,1.71,1.71,0,0,1-.5-.1,3.61,3.61,0,0,1-1.26-.82,6.62,6.62,0,0,1-.9-1,8.13,8.13,0,0,1-1-2.48c-.45-1.6-.8-3.2-1.23-4.75a10,10,0,0,0-.75-2.11,1.72,1.72,0,0,0-.24-.31l-.11-.05a1.14,1.14,0,0,0-.4.31l.13-.4c0,1.63.07,3.27.17,4.9.06.81.13,1.62.23,2.41a11.2,11.2,0,0,0,.47,2.23,12,12,0,0,0,1.17,2c.46.66.94,1.32,1.43,2,1,1.3,2,2.59,3,3.85l.18.22v.24a2.58,2.58,0,0,1-.46,1.64,1.31,1.31,0,0,1-1.12.49,2.16,2.16,0,0,1-.86-.23A8.47,8.47,0,0,1,45,168.88c-1.19-1.27-2.21-2.49-3.31-3.74-2.16-2.51-4.32-5-6.33-7.67l-.37-.53c-.12-.19-.23-.42-.35-.64a7.2,7.2,0,0,1-.42-1.29,17.76,17.76,0,0,1-.39-2.53c-.16-1.67-.23-3.33-.26-5l-.13-9.9c0-3.29-.24-6.56-.39-9.87a91.41,91.41,0,0,1,.18-9.93c.24-3.3.6-6.58,1-9.85l.68-4.9c.22-1.64.48-3.27.55-4.92-.07,3.31-.57,6.58-.87,9.86s-.6,6.56-.73,9.85-.16,6.57,0,9.85.47,6.59.58,9.88l.31,9.89c.06,1.64.13,3.28.29,4.89a16.92,16.92,0,0,0,.38,2.35,4.94,4.94,0,0,0,.35,1c.08.15.14.29.24.45l.34.49c2,2.58,4.15,5.06,6.31,7.54,1.08,1.22,2.19,2.52,3.27,3.64a7.22,7.22,0,0,0,1.75,1.36.9.9,0,0,0,.32.09h0a1.46,1.46,0,0,0,.12-.72l.17.47c-1.07-1.28-2.11-2.56-3.12-3.88-.51-.66-1-1.34-1.48-2a11.49,11.49,0,0,1-1.34-2.27,12.71,12.71,0,0,1-.55-2.59c-.1-.84-.16-1.68-.22-2.51-.1-1.67-.15-3.32-.15-5v-.23l.12-.17a2.61,2.61,0,0,1,.62-.62,1.7,1.7,0,0,1,1-.32,1.66,1.66,0,0,1,1,.39,3.28,3.28,0,0,1,.54.64,11.33,11.33,0,0,1,.9,2.5c.43,1.6.77,3.2,1.19,4.75a7.45,7.45,0,0,0,.79,2.06,4,4,0,0,0,1.48,1.36h0c-.07,0,0,.06,0-.09a5.57,5.57,0,0,0,0-1c0-.81-.08-1.62-.13-2.43-.21-3.26-.5-6.5-.86-9.74a34.53,34.53,0,0,0-.77-4.73c-.47-1.49-1.28-3-1.65-4.66a19,19,0,0,1-.35-5c.11-1.68.36-3.29.61-4.92.5-3.24,1.06-6.46,1.65-9.68l1.75-9.66.81-4.83A42.35,42.35,0,0,0,50.81,99.6Z"/><path class="cls-3" d="M128.64,73.09c0,2.14,3.38,16.5,3.3,26.16,0,5,4.95,29.61,4.95,34.59s-1.12,6-2.08,8.84-1.91,15.66-1.91,17.8,1.91.71,2.87-.71,1.91-7.83,2.86-9.26a1.07,1.07,0,0,1,1.92,0s0,7.83-1,10-5.74,7.83-5.74,7.83c0,3.56,3.83-.71,3.83-.71s7.64-8.54,9.56-11.39.95-13.53,1.91-27.06-1.91-27.05-1.91-31.33L143.8,49.54c0-6.41-11.94-12.46-15.29-13.53,0,0-.48-.35-4.78-1.42"/><path class="cls-2" d="M147.61,98.12,145.82,74l-1.64-24.1h.15c.43,2,.7,4,1,6l.78,6c.52,4,.84,8,1.16,12s.5,8,.56,12.09L147.9,92c-.06,2,0,4-.19,6.08Z"/><path class="cls-2" d="M129.17,73.38c.21,2.17.7,4.33,1.07,6.5s.77,4.33,1.11,6.5a89.43,89.43,0,0,1,1.12,13.16h-.15c-.49-2.2-1-4.33-1.35-6.48s-.75-4.3-1.1-6.45-.61-4.33-.79-6.53a31.26,31.26,0,0,1-.06-6.7Z"/><path class="cls-2" d="M132.15,99.54a46.55,46.55,0,0,0,.58,4.87l.81,4.83,1.75,9.66c.6,3.22,1.16,6.44,1.66,9.68.25,1.63.49,3.24.61,4.92a19,19,0,0,1-.36,5c-.37,1.69-1.18,3.17-1.64,4.66a34.56,34.56,0,0,0-.78,4.73q-.54,4.85-.86,9.74c0,.81-.1,1.62-.12,2.43a4.18,4.18,0,0,0,0,1c0,.15.07.12,0,.09s-.06,0-.07,0h.1a4.14,4.14,0,0,0,1.49-1.36,7.43,7.43,0,0,0,.78-2.06c.43-1.55.77-3.15,1.2-4.75a10.84,10.84,0,0,1,.9-2.5,3,3,0,0,1,.52-.6,1.72,1.72,0,0,1,1-.39,1.7,1.7,0,0,1,1,.32,3,3,0,0,1,.61.62l.13.17v.23c0,1.67-.06,3.32-.16,5a19.49,19.49,0,0,1-.22,2.51,12.07,12.07,0,0,1-.55,2.59,11.44,11.44,0,0,1-1.33,2.27c-.48.69-1,1.37-1.48,2-1,1.33-2.05,2.61-3.12,3.89l.17-.47a1.58,1.58,0,0,0,.11.72h0a.85.85,0,0,0,.31-.09,7.47,7.47,0,0,0,1.76-1.36c1.07-1.13,2.18-2.42,3.26-3.64,2.16-2.48,4.35-5,6.31-7.54l.35-.49c.09-.16.15-.3.24-.45a5.64,5.64,0,0,0,.35-1,15.53,15.53,0,0,0,.37-2.35c.17-1.61.23-3.25.29-4.89l.32-9.89c.1-3.29.36-6.61.57-9.88a87.48,87.48,0,0,0,0-9.85c-.16-3.28-.4-6.57-.73-9.85s-.8-6.55-.87-9.86c.07,1.65.32,3.28.55,4.92l.68,4.9c.43,3.27.8,6.55,1,9.85a86.61,86.61,0,0,1,.18,9.93c-.15,3.31-.34,6.58-.39,9.87l-.13,9.9c0,1.65-.1,3.31-.25,5a18,18,0,0,1-.39,2.53,7,7,0,0,1-.43,1.29c-.11.22-.22.45-.34.64l-.37.53c-2,2.68-4.18,5.16-6.33,7.67-1.11,1.25-2.13,2.47-3.32,3.74a8.18,8.18,0,0,1-2.15,1.64,2.21,2.21,0,0,1-.87.23,1.31,1.31,0,0,1-1.12-.49,2.55,2.55,0,0,1-.45-1.64v-.24l.18-.22c1-1.26,2.07-2.55,3-3.85.5-.65,1-1.31,1.43-2a10.79,10.79,0,0,0,1.17-2,11.2,11.2,0,0,0,.47-2.23c.11-.79.17-1.6.23-2.42.11-1.62.17-3.26.18-4.89l.12.4c-.12-.18-.4-.35-.39-.31s0,0-.12.05a2.34,2.34,0,0,0-.24.31,9.93,9.93,0,0,0-.75,2.1c-.42,1.56-.77,3.16-1.22,4.76a8.5,8.5,0,0,1-1,2.48,5.7,5.7,0,0,1-.9,1,3.57,3.57,0,0,1-1.25.82,1.71,1.71,0,0,1-.5.1,1.24,1.24,0,0,1-.65-.17,1.38,1.38,0,0,1-.62-.93,5.47,5.47,0,0,1,0-1.4c0-.83.09-1.65.14-2.47.24-3.28.52-6.54,1-9.8a34.88,34.88,0,0,1,.91-4.94c.55-1.62,1.35-3,1.71-4.55a18.32,18.32,0,0,0,.41-4.73c-.08-1.59-.29-3.22-.5-4.83-.44-3.24-1-6.47-1.44-9.7l-1.46-9.71A86.9,86.9,0,0,1,132.15,99.54Z"/><path class="cls-1" d="M115.4,34.16a7.57,7.57,0,0,1-.88.91c-4.92,5.84-9.14,10.41-17,12.11a22.76,22.76,0,0,1-15.12-2.1c-5.1-2.63-7.68-7.55-12.22-10.76-1.71-1.21-3.71-.89-5.63-.45-8.6,2-24.26,7.91-26.7,17.25Q34.24,74,30.63,96.88a1.15,1.15,0,0,0,.95,1.32,8,8,0,0,0,4.07-.31c2.41-.88,4.23-3,7.58-7A10,10,0,0,1,45,89.1c1.43-1,2.9-1.27,4.93-2.4,1.6-.89,3.75-2.6,5.09-8.12,0,0,2-1.75,1.76,4.55C56.69,83,54,154.62,54,154.62h75.56s-8.26-54.23-1.59-74.3c0,0,1.75,6.13,10.8,8A13.18,13.18,0,0,1,145,91.42c1.2,1.09,2.74,2.42,4.52,3.84a15.46,15.46,0,0,0,5.32,2.85c2.14.72-1.42-11.49-1.77-12.79a238.38,238.38,0,0,1-6.3-28.55A22.1,22.1,0,0,0,139.69,43c-4.53-3.91-10.6-5.36-15.92-7.83C121.55,34.13,117,31.64,115.4,34.16Z"/><path class="cls-2" d="M129.59,155.62H54a1,1,0,0,1-.72-.3,1,1,0,0,1-.28-.73s.66-17.87,1.34-35.74c.33-8.94.67-17.87.93-24.58.13-3.35.24-6.15.32-8.1.07-1.61.11-2.53.18-3.08h0a14.42,14.42,0,0,0-.12-3c-1.43,4.84-3.53,6.55-5.24,7.51a21.88,21.88,0,0,1-2.53,1.16,9.68,9.68,0,0,0-2.29,1.17,6.67,6.67,0,0,0-1.3,1.3l-.29.36c-3.45,4.06-5.35,6.29-8,7.26a9,9,0,0,1-4.57.35,2.14,2.14,0,0,1-1.78-2.45L36.86,51C39.43,41,55.33,35,64.32,32.89c2-.46,4.38-.84,6.42.61a35.42,35.42,0,0,1,5.32,4.94,25.57,25.57,0,0,0,6.78,5.75,21.66,21.66,0,0,0,14.45,2c7.44-1.6,11.35-5.7,16.47-11.77a5.1,5.1,0,0,1,.46-.47,2,2,0,0,0,.33-.32h0c1.89-3.06,6.55-.85,9,.34l.6.28c1.57.73,3.25,1.39,4.87,2,3.93,1.53,8,3.12,11.28,6a23.09,23.09,0,0,1,7.44,14.4,235.88,235.88,0,0,0,6.27,28.42l.09.33c3.36,11.93,2.4,12.84,1.82,13.39a1.36,1.36,0,0,1-1.42.29,16.49,16.49,0,0,1-5.62-3c-1.58-1.26-3.12-2.56-4.57-3.87a12.14,12.14,0,0,0-5.75-2.92c-5.89-1.19-8.88-4.1-10.33-6.23-5.23,21.24,2.23,70.94,2.31,71.45a1,1,0,0,1-.23.81A1,1,0,0,1,129.59,155.62Zm-74.52-2h73.36c-1.18-8.15-7.59-54.93-1.38-73.61a1,1,0,0,1,1-.69,1,1,0,0,1,.94.73c.07.22,1.75,5.57,10,7.24a14.18,14.18,0,0,1,6.69,3.39c1.42,1.28,2.93,2.56,4.48,3.8a13.77,13.77,0,0,0,4.38,2.46c0-1-.28-3.72-2.33-11l-.1-.34a237.89,237.89,0,0,1-6.32-28.66A21,21,0,0,0,139,43.75c-3-2.63-6.93-4.15-10.69-5.62-1.66-.64-3.37-1.31-5-2.06l-.62-.29c-1.93-.92-5.53-2.64-6.48-1.1h0a3.31,3.31,0,0,1-.69.77,3.44,3.44,0,0,0-.27.27c-5.22,6.19-9.54,10.7-17.57,12.44A23.66,23.66,0,0,1,81.93,46a27.32,27.32,0,0,1-7.33-6.15,33.47,33.47,0,0,0-5-4.68c-1.38-1-3.07-.69-4.82-.29-8,1.82-23.64,7.62-26,16.54L31.61,97a.16.16,0,0,0,.12.17A7.16,7.16,0,0,0,35.31,97c2.16-.79,3.93-2.88,7.16-6.67l.28-.34A8.81,8.81,0,0,1,44.4,88.3a11.63,11.63,0,0,1,2.73-1.41,19.64,19.64,0,0,0,2.31-1.06c1.49-.83,3.37-2.44,4.6-7.48a.94.94,0,0,1,.32-.52,1.83,1.83,0,0,1,2-.31c1.15.56,1.6,2.3,1.45,5.65a.38.38,0,0,1,0,.1C57.64,84.92,56,129.33,55.07,153.62Z"/></svg>