<svg id="图层_1" data-name="图层 1" xmlns="http://www.w3.org/2000/svg" viewBox="0 0 186 186"><defs><style>.cls-1{fill:#5b3b2f;}.cls-2{fill:#999692;}.cls-3{fill:#58392d;}.cls-4{fill:#f1e0e5;}</style></defs><path class="cls-1" d="M81,15.74c0,2.23-.11,4.45-.17,6.68s-.17,4.45-.26,6.67v.29l-.26.13a39,39,0,0,1-6,2.33c-2,.64-4,1.27-6.06,1.84-4.06,1.2-8.16,2.2-12.24,3.2-.52.13-1,.25-1.58.36h-.26l-.34.14-.71.3A26.71,26.71,0,0,0,50.35,39a38,38,0,0,0-5.24,3.37,22.07,22.07,0,0,0-4.38,4.36,11.23,11.23,0,0,0-2.19,5.75,10.73,10.73,0,0,1,1.7-6.08,20.66,20.66,0,0,1,4.22-4.82A37.19,37.19,0,0,1,49.72,38c.93-.53,1.88-1,2.85-1.48l.74-.34.38-.16.29-.09h.22c.44-.09,1-.25,1.49-.37Q61.81,34,67.88,32.33c2-.56,4.06-1.1,6.07-1.69a44.46,44.46,0,0,0,5.86-2l-.27.42c.22-2.21.43-4.43.69-6.64S80.72,18,81,15.74Z"/><path class="cls-2" d="M51.36,99.54A105.12,105.12,0,0,1,51.81,86c.23-2.25.52-4.48.83-6.71s.71-4.46.89-6.69h.15a35.53,35.53,0,0,1,.13,6.84c-.1,2.26-.32,4.48-.51,6.7L53,89.5c-.16,1.11-.23,2.22-.41,3.33-.25,2.22-.61,4.44-1,6.71Z"/><path class="cls-1" d="M38.86,52.52l-1.25,24-1.39,24h-.11c-.18-2-.19-4-.29-6v-6c0-4,.18-8,.37-12s.5-8,1-12l.68-6c.32-2,.56-4,1-6Z"/><path class="cls-1" d="M148,98.12,146.21,74l-1.64-24.1h.15c.43,2,.7,4,1,6l.78,6c.52,4,.84,8,1.16,12s.5,8,.56,12.09l.07,6.06c-.06,2,0,4-.19,6.08Z"/><path class="cls-3" d="M129.56,73.38c.21,2.17.7,4.33,1.07,6.5s.77,4.33,1.11,6.5a88.09,88.09,0,0,1,1.12,13.16h-.15c-.49-2.2-1-4.33-1.35-6.48s-.75-4.3-1.1-6.45-.61-4.33-.79-6.53a31.26,31.26,0,0,1-.06-6.7Z"/><path class="cls-1" d="M71.11,39.76c3-.3,6-.5,9-.58,1.51,0,3,0,4.52,0a20.74,20.74,0,0,1,2.24.25,4.51,4.51,0,0,1,2.1.78,4.47,4.47,0,0,0-2.11-.66,20.87,20.87,0,0,0-2.24-.12c-1.5,0-3,.08-4.48.2-3,.24-6,.61-8.91,1.07Z"/><path class="cls-1" d="M113.33,39.76h.28c.44.06-.73-.34-.17.93h-.07l-.57-.1-1.16-.19-2.33-.35c-1.56-.21-3.12-.39-4.69-.53s-3.13-.22-4.71-.21a18.38,18.38,0,0,0-2.34.15,4.62,4.62,0,0,0-2.21.74,4.75,4.75,0,0,1,2.19-.87,23.68,23.68,0,0,1,2.36-.27,46.84,46.84,0,0,1,4.74,0c1.58,0,3.16.15,4.74.28l2.36.22,1.19.13.59.08h.22c.57,1.28-.61.87-.17.94h-.53Z"/><path class="cls-1" d="M132.54,99.54c.11,1.64.31,3.26.58,4.87l.81,4.83,1.75,9.66c.6,3.22,1.16,6.44,1.66,9.68.25,1.63.49,3.24.61,4.92a18.23,18.23,0,0,1-.36,5c-.37,1.69-1.18,3.17-1.64,4.66a34.56,34.56,0,0,0-.78,4.73c-.36,3.23-.64,6.48-.86,9.74,0,.81-.1,1.62-.12,2.43a5.57,5.57,0,0,0,0,1c0,.15.07.12,0,.09s-.06,0-.07,0h.1a4,4,0,0,0,1.49-1.36,6.85,6.85,0,0,0,.78-2.06c.43-1.55.77-3.15,1.2-4.75a11.33,11.33,0,0,1,.9-2.5,3.3,3.3,0,0,1,.52-.6,1.75,1.75,0,0,1,1-.39,1.7,1.7,0,0,1,1,.32,2.75,2.75,0,0,1,.61.62l.13.17v.23c0,1.67-.06,3.32-.16,5a19.49,19.49,0,0,1-.22,2.51,12.07,12.07,0,0,1-.55,2.59,11,11,0,0,1-1.33,2.27c-.48.69-1,1.37-1.48,2-1,1.33-2.05,2.61-3.12,3.89l.17-.47a1.73,1.73,0,0,0,.11.72h0a.8.8,0,0,0,.31-.09,7.27,7.27,0,0,0,1.76-1.36c1.07-1.13,2.18-2.42,3.26-3.64,2.16-2.48,4.35-5,6.31-7.54l.35-.49c.09-.16.15-.3.24-.45a4.94,4.94,0,0,0,.35-1,14.37,14.37,0,0,0,.37-2.35c.17-1.61.23-3.25.29-4.89l.32-9.89c.1-3.29.36-6.61.57-9.88a87.48,87.48,0,0,0,0-9.85c-.16-3.28-.4-6.57-.73-9.85s-.8-6.55-.87-9.86c.07,1.65.32,3.28.55,4.92L149,108c.43,3.27.8,6.55,1,9.85a86.61,86.61,0,0,1,.18,9.93c-.15,3.31-.34,6.58-.39,9.87l-.13,9.9c0,1.65-.1,3.31-.25,5a18,18,0,0,1-.39,2.53,6.31,6.31,0,0,1-.43,1.29c-.11.22-.22.45-.34.64l-.37.53c-2,2.68-4.18,5.16-6.33,7.67-1.11,1.25-2.13,2.47-3.32,3.74a8.18,8.18,0,0,1-2.15,1.64,2.16,2.16,0,0,1-.87.23,1.32,1.32,0,0,1-1.12-.49,2.55,2.55,0,0,1-.45-1.64v-.24l.18-.22c1-1.26,2.07-2.55,3.05-3.85.5-.65,1-1.31,1.43-2a10.79,10.79,0,0,0,1.17-2,10,10,0,0,0,.47-2.23c.11-.79.17-1.6.23-2.42.11-1.62.17-3.26.18-4.89l.12.4c-.12-.18-.4-.35-.39-.31s0,0-.12.05a2.34,2.34,0,0,0-.24.31,11.18,11.18,0,0,0-.75,2.1c-.42,1.56-.77,3.16-1.22,4.76a8.23,8.23,0,0,1-1,2.48,5.7,5.7,0,0,1-.9,1,3.48,3.48,0,0,1-1.25.82,1.65,1.65,0,0,1-.5.1,1.26,1.26,0,0,1-.65-.17,1.41,1.41,0,0,1-.62-.93,6.55,6.55,0,0,1,0-1.4c0-.83.09-1.65.14-2.47.24-3.28.52-6.54,1-9.8a36.35,36.35,0,0,1,.91-4.94c.55-1.62,1.35-3,1.71-4.55a17.48,17.48,0,0,0,.41-4.73c-.08-1.59-.29-3.22-.5-4.83-.44-3.24-1-6.47-1.44-9.7l-1.46-9.71A89.27,89.27,0,0,1,132.54,99.54Z"/><path class="cls-1" d="M51.2,99.6a84,84,0,0,1-1,9.76l-1.45,9.71c-.48,3.23-1,6.46-1.44,9.7-.22,1.61-.43,3.24-.51,4.83a17.9,17.9,0,0,0,.42,4.73c.35,1.52,1.16,2.93,1.7,4.55a32.06,32.06,0,0,1,.92,4.94c.42,3.26.7,6.52.94,9.8.06.82.11,1.64.15,2.47a5,5,0,0,1,0,1.4,1.35,1.35,0,0,1-.61.93,1.31,1.31,0,0,1-.65.17,1.78,1.78,0,0,1-.5-.1,3.71,3.71,0,0,1-1.26-.82,6.62,6.62,0,0,1-.9-1,8.39,8.39,0,0,1-1-2.48c-.45-1.6-.8-3.2-1.23-4.75a10,10,0,0,0-.75-2.11,1.36,1.36,0,0,0-.24-.31l-.11-.05a1.14,1.14,0,0,0-.4.31l.13-.4c0,1.63.07,3.27.17,4.9.06.81.13,1.62.23,2.41a12.81,12.81,0,0,0,.47,2.23,12,12,0,0,0,1.17,2c.46.66.94,1.32,1.43,2,1,1.3,2,2.59,3,3.85l.18.22v.24a2.52,2.52,0,0,1-.46,1.64,1.3,1.3,0,0,1-1.12.49,2.2,2.2,0,0,1-.86-.23,8.47,8.47,0,0,1-2.16-1.75c-1.19-1.27-2.21-2.49-3.31-3.74-2.16-2.51-4.32-5-6.33-7.67l-.37-.53c-.12-.19-.23-.42-.35-.64a9.26,9.26,0,0,1-.42-1.29,17.76,17.76,0,0,1-.39-2.53c-.16-1.67-.23-3.33-.26-5l-.13-9.9c0-3.29-.24-6.56-.39-9.87a91.41,91.41,0,0,1,.18-9.93c.24-3.3.6-6.58,1-9.85l.68-4.9c.22-1.64.48-3.27.55-4.92-.07,3.31-.57,6.58-.87,9.86s-.6,6.56-.73,9.85-.16,6.57,0,9.85.47,6.59.58,9.88l.31,9.89c.06,1.64.13,3.28.29,4.89a20.54,20.54,0,0,0,.38,2.35,6.56,6.56,0,0,0,.35,1c.08.15.14.29.24.45l.34.49c2,2.58,4.15,5.06,6.31,7.54,1.08,1.22,2.19,2.52,3.27,3.64a7.63,7.63,0,0,0,1.75,1.36,1,1,0,0,0,.32.09h0a1.46,1.46,0,0,0,.12-.72l.17.47c-1.07-1.28-2.11-2.56-3.12-3.88-.51-.66-1-1.34-1.48-2a11.49,11.49,0,0,1-1.34-2.27,12.71,12.71,0,0,1-.55-2.59c-.1-.84-.16-1.68-.22-2.51-.1-1.67-.15-3.32-.15-5v-.23l.12-.17a2.61,2.61,0,0,1,.62-.62,1.72,1.72,0,0,1,1-.32,1.64,1.64,0,0,1,1,.39,3,3,0,0,1,.54.64,10.84,10.84,0,0,1,.9,2.5c.43,1.6.77,3.2,1.19,4.75a7.45,7.45,0,0,0,.79,2.06,4.19,4.19,0,0,0,1.48,1.36h0c-.07,0,0,.06,0-.09a5.57,5.57,0,0,0,0-1c0-.81-.08-1.62-.13-2.43-.21-3.26-.5-6.5-.86-9.74a33.06,33.06,0,0,0-.77-4.73c-.47-1.49-1.28-3-1.65-4.66a19.48,19.48,0,0,1-.35-5c.11-1.68.36-3.29.61-4.92.5-3.24,1.06-6.46,1.65-9.68l1.75-9.66.81-4.83A42.35,42.35,0,0,0,51.2,99.6Z"/><path class="cls-1" d="M144.4,49.88a8.18,8.18,0,0,0-2.2-4.69,20.89,20.89,0,0,0-4-3.44A40.37,40.37,0,0,0,133.7,39a30.38,30.38,0,0,0-4.77-2.12l-.17-.09c.08.05,0,0-.06,0l-.17-.06-.35-.12-.75-.22L125.91,36c-1-.26-2.07-.49-3.12-.8-2.06-.6-4.09-1.25-6.12-1.93q-6.06-2-12.09-4.19l-.47-.18V28.4c-.32-4.2-.58-8.4-.85-12.6l.62.57-11.43-.23L86.74,16c-1.9-.06-3.81-.13-5.71-.22,1.9-.09,3.81-.16,5.71-.22l5.71-.17,11.43-.23h.57v.58c.37,4.2.74,8.39,1.07,12.59l-.49-.63,12.08,4.21c2,.67,4,1.38,6,2,1,.32,2,.56,3.06.86.52.14,1,.29,1.55.46l.78.26.39.15.21.09a2.69,2.69,0,0,1,.29.16l-.17-.09a34.53,34.53,0,0,1,4.9,2.36,39.75,39.75,0,0,1,4.48,3,21.37,21.37,0,0,1,3.91,3.75A7.87,7.87,0,0,1,144.4,49.88Z"/><path class="cls-4" d="M127.05,116.45,130,154.62l-74.32.09,1-38.78c1.13-35.69-2-38.89-2.92-39.07a.2.2,0,0,0-.24.21c0,2.19-.39,22.33-1.39,31.31-.38,3.34-2.31,1.86-2.32,1.85A35.29,35.29,0,0,1,42.66,103c-2-3-1.72-5.69-1.57-9.14A10.71,10.71,0,0,0,38.5,86.5c-3.44-4-3.93-8.2-3.33-13.3,1.11-9.36,1.41-23.4,8.9-30.29,6.1-5.61,14.75-8.33,22.72-9.92A5.56,5.56,0,0,1,72,34.72c6.2,6.87,13.4,13.62,23.33,13A23.9,23.9,0,0,0,108,42.73a30.15,30.15,0,0,0,5-4.79c1.73-2.09,2.33-4.69,5.28-4.94,2.47-.22,4.61,1,6.82,2,9,3.62,18.09,5.75,21,18.18,2.08,8.85,3,17.93,5.31,26.73,1,3.68-2.44,5.78-4.36,8.2-2.2,2.78-1,6.43-.95,9.64.16,5.19-3.16,6.63-6.87,9.44a11.09,11.09,0,0,0-3.46,4.62,1.2,1.2,0,0,1-2.29-.35l-3.6-33.3a.38.38,0,0,0-.76,0L128,86.64A139.54,139.54,0,0,0,127.05,116.45Z"/><path class="cls-1" d="M55.67,155.71a1,1,0,0,1-.71-.3,1,1,0,0,1-.29-.72l1-38.78c.72-22.87-.33-32-1.22-35.71-.14,6.52-.52,21-1.34,28.29-.18,1.63-.76,2.63-1.72,3a2.44,2.44,0,0,1-2.29-.51,35.18,35.18,0,0,1-7.29-7.4c-2-3.07-1.91-5.83-1.76-9l0-.69a9.68,9.68,0,0,0-2.35-6.66c-4-4.73-4.09-9.56-3.56-14.07.15-1.28.29-2.65.43-4.08.91-9.19,2-20.63,8.78-26.83C48.56,37.42,56.15,34.09,66.6,32a6.58,6.58,0,0,1,6.15,2c5.82,6.45,12.86,13.29,22.53,12.63a22.82,22.82,0,0,0,12.12-4.75,28.87,28.87,0,0,0,4.83-4.63,14.85,14.85,0,0,0,1.17-1.68c1-1.59,2.17-3.39,4.8-3.62a12,12,0,0,1,6,1.47c.43.19.86.38,1.3.55,1,.4,2,.77,2.92,1.14,7.85,3,16,6.15,18.69,17.74,1,4.08,1.69,8.27,2.39,12.31.83,4.75,1.69,9.67,2.92,14.4.87,3.36-1.33,5.64-3.09,7.47-.53.55-1,1.07-1.45,1.6-1.43,1.81-1.19,4.14-.93,6.6.08.79.16,1.6.19,2.39.15,4.94-2.66,7-5.64,9.09-.53.37-1.07.76-1.62,1.18a10.07,10.07,0,0,0-3.15,4.22,2.2,2.2,0,0,1-4.21-.64l-3.06-28.35L129,86.78a138.23,138.23,0,0,0-.9,29.6L131,154.55a1,1,0,0,1-1,1.07l-74.32.09Zm-2-79.86a1,1,0,0,1,.24,0C57.25,76.54,58.5,90,57.68,116l-1,37.75,72.21-.08-2.85-37.1h0a140.18,140.18,0,0,1,.91-30L128.15,78a1.36,1.36,0,0,1,1.37-1.2h0A1.39,1.39,0,0,1,130.9,78l3.59,33.31a.18.18,0,0,0,.17.17.19.19,0,0,0,.22-.12,11.9,11.9,0,0,1,3.77-5c.57-.43,1.12-.83,1.66-1.22,3-2.12,4.93-3.53,4.81-7.39,0-.72-.1-1.46-.18-2.25-.28-2.63-.59-5.61,1.35-8,.48-.61,1-1.18,1.57-1.74,1.72-1.78,3.19-3.31,2.6-5.59-1.25-4.81-2.11-9.76-2.94-14.55-.7-4-1.43-8.18-2.37-12.2-2.49-10.57-9.43-13.24-17.47-16.33l-3-1.15-1.36-.58a10.55,10.55,0,0,0-5-1.31c-1.57.14-2.24,1.07-3.28,2.71a19.55,19.55,0,0,1-1.32,1.88,31.26,31.26,0,0,1-5.16,5,24.73,24.73,0,0,1-13.2,5.14c-10.59.7-18-6.48-24.14-13.28A4.59,4.59,0,0,0,67,34c-10.08,2-17.35,5.18-22.25,9.68-6.17,5.68-7.26,16.69-8.14,25.54-.14,1.45-.28,2.83-.43,4.13-.56,4.69-.24,8.62,3.09,12.54a11.64,11.64,0,0,1,2.82,8l0,.7c-.13,3.09-.23,5.32,1.44,7.84a34,34,0,0,0,7,7,.67.67,0,0,0,.3.1s.26-.21.38-1.3c1-8.93,1.35-28.95,1.39-31.2a1.22,1.22,0,0,1,.45-.94A1.17,1.17,0,0,1,53.72,75.85Z"/></svg>