<svg id="图层_1" data-name="图层 1" xmlns="http://www.w3.org/2000/svg" viewBox="0 0 186 186"><defs><style>.cls-1{fill:#5a3a2e;}.cls-2{fill:#59392d;}.cls-3{fill:#f2e0e5;}.cls-4{fill:#58392d;}</style></defs><path class="cls-1" d="M84.59,15.86c0,2.23-.1,4.45-.16,6.68s-.17,4.45-.27,6.67v.29l-.25.13a40.91,40.91,0,0,1-6,2.33c-2,.64-4,1.27-6.06,1.84Q65.76,35.54,59.61,37c-.53.13-1,.25-1.59.36-.21,0-.14,0-.25,0l-.35.14-.71.3c-.94.41-1.88.86-2.79,1.36a37.07,37.07,0,0,0-5.24,3.32,21.5,21.5,0,0,0-4.37,4.36,11,11,0,0,0-2.19,5.75,10.65,10.65,0,0,1,1.69-6.08A20.28,20.28,0,0,1,48,41.74a35.85,35.85,0,0,1,5.26-3.66c.93-.53,1.88-1,2.85-1.48l.73-.34.39-.16.29-.09.22,0c.44-.09,1-.25,1.49-.37q6.1-1.55,12.19-3.19c2-.56,4.05-1.1,6.06-1.69a45.34,45.34,0,0,0,5.86-2l-.27.42c.23-2.21.44-4.43.7-6.64S84.3,18.07,84.59,15.86Z"/><path class="cls-2" d="M54.94,99.66a101.57,101.57,0,0,1,.45-13.51c.23-2.25.52-4.48.83-6.71s.71-4.46.89-6.69h.15a36.49,36.49,0,0,1,.13,6.84c-.1,2.25-.32,4.48-.51,6.7l-.35,3.33c-.16,1.11-.23,2.22-.41,3.33-.26,2.22-.61,4.44-1,6.71Z"/><path class="cls-2" d="M42.43,52.64l-1.24,24-1.39,24h-.15c-.18-2-.19-4-.29-6l0-6c0-4,.17-8,.36-12s.5-8,1-12l.69-6c.32-2,.55-4,1-6Z"/><path class="cls-2" d="M151.58,98.24,149.79,74.1,148.14,50h.15c.44,2,.7,4,1.06,6l.78,6c.52,4,.84,8,1.15,12s.51,8,.56,12.09l.08,6.06c-.07,2,0,4-.19,6.08Z"/><path class="cls-2" d="M133.13,73.5c.21,2.17.71,4.33,1.08,6.5s.77,4.33,1.11,6.5a89.31,89.31,0,0,1,1.11,13.16h-.15c-.48-2.2-1-4.33-1.34-6.48s-.75-4.3-1.1-6.45-.61-4.33-.8-6.53a32.56,32.56,0,0,1-.06-6.7Z"/><path class="cls-2" d="M74.64,39.88c3-.3,6-.5,9-.58,1.5,0,3,0,4.51.05a18.88,18.88,0,0,1,2.25.25,4.43,4.43,0,0,1,2.09.78,4.33,4.33,0,0,0-2.11-.66,18.57,18.57,0,0,0-2.24-.12c-1.49,0-3,.08-4.48.2-3,.24-6,.61-8.91,1.07Z"/><path class="cls-2" d="M116.9,39.88l.28,0h0c.45.06-.73-.34-.17.93l0,0-.07,0-.57-.1-1.16-.19L113,40.23c-1.55-.21-3.12-.39-4.68-.53s-3.14-.22-4.71-.21a18.54,18.54,0,0,0-2.35.15,4.51,4.51,0,0,0-2.2.74,4.74,4.74,0,0,1,2.18-.87,20.79,20.79,0,0,1,2.36-.27,47,47,0,0,1,4.75,0c1.58,0,3.16.15,4.74.28l2.36.22,1.18.13.6.08a1.12,1.12,0,0,1,.22,0l0,0c.56,1.28-.61.87-.17.94h-.23l-.3,0Z"/><path class="cls-1" d="M136.12,99.66a44.6,44.6,0,0,0,.58,4.87l.81,4.83,1.75,9.66c.59,3.22,1.15,6.44,1.65,9.68.25,1.63.5,3.24.61,4.92a18.92,18.92,0,0,1-.35,5c-.37,1.69-1.18,3.17-1.65,4.66a34.84,34.84,0,0,0-.77,4.73q-.54,4.84-.86,9.74c0,.81-.1,1.62-.13,2.43a5.57,5.57,0,0,0,0,1c0,.15.07.12,0,.09s-.06,0-.07,0,0,0,.1,0a4.06,4.06,0,0,0,1.48-1.36,7.45,7.45,0,0,0,.79-2.06c.42-1.55.76-3.15,1.19-4.75a11,11,0,0,1,.9-2.5,2.87,2.87,0,0,1,.54-.64,1.61,1.61,0,0,1,1-.39,1.65,1.65,0,0,1,1,.32,2.61,2.61,0,0,1,.62.62l.12.17v.23c0,1.67-.05,3.32-.15,5-.06.83-.12,1.67-.22,2.51a12.4,12.4,0,0,1-.55,2.59,11.52,11.52,0,0,1-1.34,2.27c-.48.69-1,1.37-1.48,2-1,1.33-2,2.61-3.12,3.89l.17-.47a1.56,1.56,0,0,0,.12.72s-.09,0,0,0a1.05,1.05,0,0,0,.32-.09,7.55,7.55,0,0,0,1.75-1.36c1.08-1.13,2.19-2.42,3.27-3.64,2.16-2.48,4.35-5,6.31-7.54l.34-.49c.1-.16.16-.3.24-.45a5.39,5.39,0,0,0,.35-1,17.72,17.72,0,0,0,.38-2.35c.16-1.61.23-3.25.29-4.89l.31-9.89c.11-3.29.37-6.61.58-9.88s.16-6.57,0-9.85-.39-6.57-.73-9.85-.8-6.55-.87-9.86c.07,1.65.33,3.28.55,4.92l.68,4.9c.44,3.27.8,6.55,1,9.85a91.32,91.32,0,0,1,.18,9.93c-.15,3.31-.35,6.58-.39,9.87l-.13,9.9c0,1.65-.1,3.31-.26,5a17.23,17.23,0,0,1-.39,2.53,8.08,8.08,0,0,1-.42,1.29c-.12.22-.23.45-.35.64l-.37.53c-2,2.68-4.17,5.16-6.33,7.67-1.1,1.25-2.12,2.47-3.31,3.74a8.53,8.53,0,0,1-2.16,1.64,2.25,2.25,0,0,1-.86.23,1.33,1.33,0,0,1-1.12-.49,2.61,2.61,0,0,1-.46-1.64v-.24l.18-.22c1-1.26,2.06-2.55,3.05-3.85.49-.65,1-1.31,1.43-2a12.31,12.31,0,0,0,1.17-2,11.68,11.68,0,0,0,.47-2.23c.1-.79.17-1.6.23-2.42.1-1.62.16-3.26.18-4.89l.12.4c-.12-.18-.4-.35-.4-.31a.26.26,0,0,0-.11.05,1.39,1.39,0,0,0-.24.31,10.21,10.21,0,0,0-.75,2.1c-.43,1.56-.78,3.16-1.23,4.76a8.17,8.17,0,0,1-1,2.48,6.71,6.71,0,0,1-.9,1,3.72,3.72,0,0,1-1.26.82,1.77,1.77,0,0,1-.5.1,1.34,1.34,0,0,1-.65-.17,1.39,1.39,0,0,1-.61-.93,5.73,5.73,0,0,1,0-1.4c0-.83.09-1.65.15-2.47.24-3.28.52-6.54.94-9.8a32.88,32.88,0,0,1,.92-4.94c.54-1.62,1.35-3,1.7-4.55a17.78,17.78,0,0,0,.42-4.73c-.08-1.59-.29-3.22-.51-4.83-.44-3.24-1-6.47-1.44-9.7l-1.45-9.71A86.61,86.61,0,0,1,136.12,99.66Z"/><path class="cls-1" d="M54.78,99.72a86.36,86.36,0,0,1-1,9.76l-1.46,9.71c-.48,3.23-1,6.46-1.44,9.7-.21,1.61-.42,3.24-.5,4.83a18.17,18.17,0,0,0,.41,4.73c.36,1.52,1.16,2.93,1.71,4.55a34.14,34.14,0,0,1,.91,4.94c.43,3.26.71,6.52,1,9.8,0,.82.11,1.64.14,2.47a5.66,5.66,0,0,1,0,1.4,1.41,1.41,0,0,1-.62.93,1.32,1.32,0,0,1-.65.17,1.85,1.85,0,0,1-.5-.1,3.67,3.67,0,0,1-1.25-.82,6.21,6.21,0,0,1-.9-1,8.48,8.48,0,0,1-1-2.48c-.45-1.6-.8-3.2-1.22-4.76a10.21,10.21,0,0,0-.75-2.1,1.76,1.76,0,0,0-.24-.31c-.08-.05-.11-.05-.12-.05s-.27.13-.39.31l.12-.4c0,1.63.07,3.27.18,4.9.06.81.12,1.62.23,2.41a11,11,0,0,0,.47,2.23,11.62,11.62,0,0,0,1.17,2c.45.66.93,1.32,1.43,2,1,1.3,2,2.59,3.05,3.85l.18.22,0,.24a2.53,2.53,0,0,1-.45,1.64,1.35,1.35,0,0,1-1.12.49,2.3,2.3,0,0,1-.87-.23A8.47,8.47,0,0,1,49,169c-1.19-1.27-2.21-2.49-3.32-3.74-2.15-2.51-4.31-5-6.33-7.67L39,157.1c-.12-.19-.23-.42-.34-.64a7.23,7.23,0,0,1-.43-1.29,18.68,18.68,0,0,1-.39-2.53c-.15-1.67-.22-3.33-.25-5l-.13-9.9c0-3.29-.24-6.56-.39-9.87a88.86,88.86,0,0,1,.18-9.93c.23-3.3.6-6.58,1-9.85l.68-4.9c.23-1.64.48-3.27.55-4.92-.07,3.31-.56,6.58-.87,9.86s-.6,6.56-.73,9.85-.15,6.57,0,9.85.47,6.59.57,9.88l.32,9.89c.06,1.64.12,3.28.29,4.89a16.22,16.22,0,0,0,.37,2.35,6.16,6.16,0,0,0,.35,1c.09.15.15.29.24.45l.35.49c2,2.58,4.15,5.06,6.31,7.54,1.08,1.22,2.19,2.51,3.26,3.64a7.59,7.59,0,0,0,1.76,1.36.94.94,0,0,0,.31.09c.06,0,0,0,0,0a1.61,1.61,0,0,0,.11-.72l.17.47c-1.07-1.28-2.1-2.56-3.12-3.88-.5-.66-1-1.34-1.48-2a12,12,0,0,1-1.33-2.27,12.4,12.4,0,0,1-.55-2.59c-.11-.84-.17-1.68-.22-2.51-.1-1.67-.15-3.32-.16-5v-.23l.13-.17a2.76,2.76,0,0,1,.61-.62,1.69,1.69,0,0,1,1-.32,1.64,1.64,0,0,1,1,.39,2.58,2.58,0,0,1,.53.64,10.54,10.54,0,0,1,.9,2.5c.43,1.6.77,3.2,1.2,4.75A7.45,7.45,0,0,0,51.6,160a4.16,4.16,0,0,0,1.49,1.36c.06,0,.07,0,.1,0s0,0-.07,0,0,.06,0-.09a4.25,4.25,0,0,0,0-1c0-.81-.07-1.62-.12-2.43q-.32-4.89-.86-9.74a33.34,33.34,0,0,0-.78-4.73c-.46-1.49-1.27-3-1.64-4.66a18.92,18.92,0,0,1-.36-5c.12-1.68.36-3.29.61-4.92.5-3.24,1.06-6.46,1.66-9.68l1.75-9.66.81-4.83A47.2,47.2,0,0,0,54.78,99.72Z"/><path class="cls-2" d="M148,50a8.16,8.16,0,0,0-2.21-4.69,21,21,0,0,0-4-3.44,38.93,38.93,0,0,0-4.5-2.75A31.41,31.41,0,0,0,132.51,37l-.17-.09c.08.05,0,0-.07,0l-.16-.06-.36-.12-.74-.22-1.53-.41c-1-.26-2.07-.49-3.11-.8-2.07-.6-4.1-1.25-6.12-1.93q-6.07-2-12.09-4.19l-.45-.16,0-.48c-.31-4.2-.57-8.4-.84-12.6l.62.57L96,16.25l-5.71-.17C88.4,16,86.5,16,84.59,15.86c1.91-.09,3.81-.16,5.72-.22L96,15.47l11.43-.23H108l.06.58c.36,4.2.74,8.39,1.06,12.59l-.48-.63L120.71,32c2,.67,4,1.38,6,2,1,.32,2,.56,3.06.86.52.14,1,.29,1.56.46l.77.26.4.15.2.09c.09.05.1,0,.3.16l-.17-.09a33.44,33.44,0,0,1,4.89,2.36,39.79,39.79,0,0,1,4.49,3,21.58,21.58,0,0,1,3.84,3.8A8,8,0,0,1,148,50Z"/><path class="cls-3" d="M133.57,154.62s-4.31-38.8-4.08-53.12c0-1.65.24-7.37.29-8.27.14-2.57.37-5.38.85-10.62.06-.68.38-5.67,2.52-7.63.66-.6,5.85,61.54,6.83,62.74,1.61,2,8.52-1.83,13.54.68,4.5,2.25-2.25-64-2.32-66.71a178,178,0,0,0-1.76-19.57c-.09-.45-1-5.62-4.75-8.74-4.52-3.81-19-8.75-22.16-10.07-1.24-.53-2.53-.34-2.8.07h0c-13,18.31-29.49,19.41-44,2.67L73.91,34a2.66,2.66,0,0,0-2.26-.87c-4.8,1.29-11.28,2.36-18.49,6.26C48,42.13,42.79,46.81,41.82,51.12c-1.17,5.19-1.91,16.56-2.28,20.38l-.74,8.71c-.66,10.26-5,59.71-1.42,58.1,3.18-1.43,12.88,1.35,14.12-.48S55.67,74,56,74.5a16.07,16.07,0,0,1,2.13,4.57A66.07,66.07,0,0,1,59.82,87c.44,3.25.77,7,.83,8.87.46,13-2.64,58.79-2.64,58.79Z"/><path class="cls-4" d="M133.57,155.62H58a1,1,0,0,1-.73-.31,1,1,0,0,1-.27-.75c0-.46,3.09-45.92,2.64-58.7-.06-1.82-.39-5.6-.82-8.77a67.59,67.59,0,0,0-1.65-7.77,11.93,11.93,0,0,0-.47-1.38c-.21,3.35-.53,8.9-.86,14.66-2,34.38-2.75,44.66-3.52,45.79-.93,1.37-3.33,1.21-7.5.8-2.69-.26-5.74-.55-7,0a1.35,1.35,0,0,1-1.36-.12c-2.17-1.52-2-14.65.87-52,.22-3,.4-5.39.5-6.92l.74-8.73c.08-.8.17-1.91.28-3.22.43-5.22,1.08-13.11,2-17.29C42,45.84,47.93,41,52.69,38.46a62,62,0,0,1,15.76-5.61c1-.25,2-.49,2.94-.73a3.59,3.59,0,0,1,3.27,1.17l1.83,2.11C83.3,43.26,90.74,47.21,98,46.88c7.42-.36,14.66-5.23,20.94-14.07.59-.9,2.39-1.1,4-.42.63.26,1.75.69,3.18,1.23,5.8,2.19,15.52,5.86,19.24,9s4.81,7.89,5.08,9.29a180.18,180.18,0,0,1,1.78,19.76c0,.42.22,2.75.51,6,4.37,49.16,3.88,60.17,1.82,61.58a1.44,1.44,0,0,1-1.46.08c-2.47-1.24-5.64-.74-8.19-.33s-4.58.72-5.67-.61c-.57-.69-1.09-4.85-4-34.75-1-10-2-21.14-2.62-25.9a18.41,18.41,0,0,0-1,4.87v.13c-.49,5.43-.7,8.1-.84,10.58-.05,1-.27,6.62-.29,8.24-.23,14.09,4,52.61,4.07,53a1,1,0,0,1-1,1.11Zm-74.49-2h73.37c-.7-6.45-4.17-39.28-4-52.14,0-1.62.24-7.34.29-8.31.14-2.51.35-5.2.85-10.65V82.4c.33-3.94,1.31-6.77,2.84-8.16a1,1,0,0,1,1-.2c.9.35.92.36,3.71,29.37,1.36,14.12,3,31.62,3.61,33.75.51.33,2.28.05,3.73-.18,2.69-.42,6-.95,8.94.31,1.36-3.33.42-23.33-2.8-59.48-.33-3.79-.49-5.64-.51-6.1a172.93,172.93,0,0,0-1.74-19.39c-.25-1.28-1.28-5.55-4.41-8.18-3.45-2.91-13.34-6.64-18.66-8.65-1.44-.55-2.59-1-3.25-1.26a2.59,2.59,0,0,0-1.65-.18c-6.65,9.32-14.39,14.44-22.41,14.82S82.21,45.05,75,36.71L73.15,34.6a1.76,1.76,0,0,0-1.24-.55c-.93.25-1.93.49-3,.75a60.06,60.06,0,0,0-15.29,5.42c-4.73,2.56-9.92,7-10.85,11.12s-1.58,12.17-2,17c-.11,1.32-.2,2.43-.27,3.23l-.74,8.7c-.1,1.52-.28,3.93-.51,6.92-.86,11.42-3.42,45.46-1.79,50,1.85-.55,4.72-.27,7.52,0,1.87.18,5,.48,5.63.08.8-2.6,2.3-29,3.2-44.79.29-5.09.55-9.59.75-12.83.37-5.91.37-5.91,1.14-6.13a1,1,0,0,1,1.1.4,17.13,17.13,0,0,1,2.28,4.88,71,71,0,0,1,1.69,8c.46,3.35.78,7.13.84,9C62.07,107.57,59.54,146.64,59.08,153.62ZM120.57,33.93l0,0Z"/></svg>