<svg id="图层_1" data-name="图层 1" xmlns="http://www.w3.org/2000/svg" viewBox="0 0 186 186"><defs><style>.cls-1{fill:#5b3b2f;}.cls-2{fill:#f4e2e9;}</style></defs><path class="cls-1" d="M123,157.57c0-5.81.08-11.61.16-17.42s.31-11.61.61-17.41c.16-2.91.32-5.82.65-8.73s.71-5.77,1.09-8.65c.79-5.76,1.65-11.5,2.5-17.24l1.26-8.5.71,8.56c1,11.88,1.85,23.76,2.54,35.65q.53,8.92.88,17.85c.16,6,.4,11.92.23,17.88-.29-5.95-.72-11.89-1.22-17.82L131,123.94l-3-35.59,2,.07-2.61,17.2c-.43,2.86-.86,5.73-1.23,8.6s-.59,5.73-.83,8.62c-.43,5.77-.81,11.56-1.18,17.35Z"/><path class="cls-1" d="M53.26,159.56c0-5.89.21-11.77.31-17.66L54,124.26l.52-17.64.26-8.82c0-2.91.16-5.92.07-8.72l-.23-6.92,2.16,6.53c1.83,5.53,3.58,11.07,5.16,16.69.77,2.81,1.52,5.63,2.1,8.52a43.8,43.8,0,0,1,.78,8.81c.09,5.84-.16,11.65-.45,17.46s-.69,11.61-1.24,17.4c.1-5.81.26-11.62.28-17.43s.09-11.61-.13-17.38a47,47,0,0,0-.93-8.51c-.62-2.79-1.4-5.58-2.21-8.36-1.63-5.55-3.39-11.08-5.24-16.57l1.93-.39c.1,3.08,0,6-.11,8.93l-.31,8.82c-.27,5.88-.51,11.76-.85,17.64s-.67,11.75-1.05,17.62S53.76,153.69,53.26,159.56Z"/><path class="cls-1" d="M79.87,26.3a17.13,17.13,0,0,1,.52,5.39,24.82,24.82,0,0,1-.28,2.72l-.3,1.34-.16.68-.21.65a22.78,22.78,0,0,1-5.88,9.26l-1,.95a7.46,7.46,0,0,1-1,.9l-2.23,1.64c-.77.52-1.59.93-2.38,1.41l-1.2.68c-.4.23-.83.39-1.24.59-3.36,1.58-6.71,2.7-10,4.14a87.57,87.57,0,0,0-9.63,4.57,30.54,30.54,0,0,0-8.23,6.39,20,20,0,0,0-4.43,9.32,46.78,46.78,0,0,0-.71,10.67,41.29,41.29,0,0,1-.26-10.83,18.68,18.68,0,0,1,.53-2.7,17.32,17.32,0,0,1,.86-2.64l.55-1.28a11.24,11.24,0,0,1,.69-1.22l.72-1.2c.27-.38.57-.74.85-1.1a30.32,30.32,0,0,1,8.49-7,84.33,84.33,0,0,1,9.8-4.77c3.31-1.41,6.79-2.58,10-4,.4-.17.82-.32,1.21-.52L66,49.65c.77-.43,1.57-.81,2.3-1.28l2.16-1.49a6.81,6.81,0,0,0,1-.81l1-.85a22.7,22.7,0,0,0,6-8.46l.26-.61.2-.63.4-1.26a23.5,23.5,0,0,0,.49-2.61A20,20,0,0,0,79.87,26.3Z"/><path class="cls-1" d="M31.46,87.6c.92,6,1.59,11.93,2.07,17.93s.8,12,1,18,.19,12-.07,18.06a97.61,97.61,0,0,1-2.09,17.95c.27-3,.48-6,.49-9s.06-6,0-9q-.09-9-.36-18l-.55-18C31.77,99.62,31.61,93.62,31.46,87.6Z"/><path class="cls-1" d="M153.94,97.42a111.15,111.15,0,0,0,.32-11.82,39.85,39.85,0,0,0-1.83-11.5,19,19,0,0,0-6.5-9.19,49.5,49.5,0,0,0-10.11-5.71c-3.56-1.66-7.21-3.23-10.78-5a70.76,70.76,0,0,1-10.41-6A22.17,22.17,0,0,1,110.14,44a13.87,13.87,0,0,1-2.66-5.68,28.65,28.65,0,0,1-.48-6.08c0-2,.09-4,.12-5.94l.74.74-7-.13-7-.16c-4.66-.15-9.32-.24-14-.45,4.67-.2,9.33-.3,14-.44l7-.17,7-.12h.72v.74c0,2,0,4,.06,5.92a28.07,28.07,0,0,0,.55,5.71c.8,3.67,3.45,6.51,6.57,8.73a72.05,72.05,0,0,0,10.14,5.78c3.52,1.76,7.13,3.34,10.72,5A51.16,51.16,0,0,1,147,63.6a20.32,20.32,0,0,1,6.7,10.09A38.21,38.21,0,0,1,155,85.59,89.68,89.68,0,0,1,153.94,97.42Z"/><path class="cls-1" d="M154.94,159.56a127.59,127.59,0,0,1-2.42-15.43c-.28-2.59-.45-5.19-.63-7.79s-.24-5.2-.29-7.8,0-5.21,0-7.82.15-5.21.39-7.8a134.47,134.47,0,0,1,1.93-15.5c-.1,5.21-.34,10.38-.38,15.56s-.08,10.35,0,15.52.25,10.34.47,15.52S154.59,154.36,154.94,159.56Z"/><path class="cls-1" d="M70.92,55.65c3-.29,6-.5,9-.58,1.5,0,3,0,4.5,0a21.5,21.5,0,0,1,2.25.25,4.51,4.51,0,0,1,2.09.78,4.37,4.37,0,0,0-2.11-.66,18.52,18.52,0,0,0-2.23-.12c-1.5,0-3,.08-4.48.2-3,.24-5.94.61-8.88,1.07Z"/><path class="cls-1" d="M114.45,56.64c-2.94-.46-5.91-.83-8.89-1.07-1.48-.12-3-.21-4.47-.2a18.52,18.52,0,0,0-2.23.12,4.37,4.37,0,0,0-2.11.66,4.47,4.47,0,0,1,2.09-.78,21,21,0,0,1,2.24-.25c1.5-.09,3-.09,4.51,0,3,.08,6,.29,9,.58Z"/><path class="cls-2" d="M128.71,159.13c-.07-3.67.19-2.92,0-10.53-.53-17.12-1.84-25.7.76-43.84,2-13.67,1.62-27.34-1.89-27.34-5.5,0-66.8.69-70.46.69-2.08,0-2.16,14.83-.75,26.65,2,16.64,1.37,33.33,1.42,42.21v12.16Z"/><path class="cls-1" d="M72.91,160.13H57.75a1,1,0,0,1-1-1V147c0-1.67,0-3.62,0-5.8.07-9.1.17-22.85-1.44-36.29-1.14-9.57-1.59-24.77.58-27.22a1.52,1.52,0,0,1,1.17-.55c1.63,0,15.1-.14,29.35-.29,17.82-.19,38-.4,41.09-.4a2.34,2.34,0,0,1,1.93,1c2.9,3.34,2.54,16.62,1,27.53-2,14.18-1.66,22.36-1.15,33.69.14,3.11.28,6.32.4,10,.14,4.71.1,6.24.06,7.59,0,.83,0,1.56,0,3a1,1,0,0,1-.29.72,1,1,0,0,1-.71.29H72.91Zm-14.16-2h69c0-.83,0-1.41,0-2,0-1.32.08-2.82-.06-7.47-.11-3.64-.26-6.85-.4-9.95-.52-11.44-.89-19.7,1.17-34.06,1.75-12.2,1.53-23.6-.5-25.95-.24-.27-.36-.25-.42-.25-3.07,0-23.25.21-41.07.4-14.29.15-26.71.28-29.12.29-1,1.7-1.46,13.37,0,25.53,1.62,13.57,1.52,27.4,1.45,36.54,0,2.17,0,4.12,0,5.79Z"/></svg>