<svg id="图层_1" data-name="图层 1" xmlns="http://www.w3.org/2000/svg" viewBox="0 0 186 186"><defs><style>.cls-1{fill:#999692;}.cls-2{fill:#9a9692;}.cls-3{fill:#f2f2f2;}</style></defs><path class="cls-1" d="M82.28,78.23c-.09,1.75-.21,3.5-.39,5.25a34.84,34.84,0,0,1-1.44,7.9,14.08,14.08,0,0,1-4.51,6.67L76,98a2.81,2.81,0,0,1-.53.52l-.5.41-1,.79c-.67.52-1.36,1-2,1.53l1.85-1.77.92-.89.45-.45.37-.39,0-.08h0a14.21,14.21,0,0,0,3.93-6.54,42.88,42.88,0,0,0,1.35-7.71l.57-5.72S82.32,77.33,82.28,78.23Z"/><path class="cls-1" d="M104.68,77.92l.55,5.45a42.88,42.88,0,0,0,1.35,7.71,14.21,14.21,0,0,0,3.93,6.54h0l.06.08a5.34,5.34,0,0,0,.37.39l.45.45.91.89,1.86,1.77c-.7-.49-1.38-1-2.06-1.53l-1-.79-.5-.41a2.8,2.8,0,0,1-.52-.52l.07.09a14,14,0,0,1-4.51-6.67,35.42,35.42,0,0,1-1.45-7.9c-.19-1.94-.32-3.89-.41-5.83"/><path class="cls-2" d="M129.89,88.61q1.49,17.79,2.54,35.57.52,8.9.88,17.81c.16,5.95.4,11.9.23,17.83-.29-5.93-.72-11.85-1.21-17.77l-1.45-17.78-3-35.51,2,.07L127.27,106c-.42,2.86-.85,5.72-1.22,8.57s-.6,5.72-.83,8.61c-.43,5.76-.81,11.54-1.18,17.31l-1.12,17.36c0-5.8.09-11.59.17-17.38s.3-11.58.61-17.37c.17-2.9.33-5.8.65-8.71s.71-5.76,1.09-8.64c.78-5.74,1.64-11.47,2.49-17.2"/><path class="cls-2" d="M56.94,89.14c1.82,5.51,3.59,11,5.15,16.65.77,2.81,1.52,5.62,2.1,8.5a43.94,43.94,0,0,1,.77,8.79c.09,5.83-.16,11.63-.44,17.42s-.7,11.58-1.23,17.36c.09-5.8.25-11.59.27-17.39s.09-11.58-.13-17.34a46.65,46.65,0,0,0-.93-8.49c-.61-2.79-1.39-5.57-2.2-8.34-1.63-5.54-3.39-11.07-5.23-16.53L57,89.36c.1,3.07,0,5.94-.1,8.9l-.32,8.81c-.26,5.86-.51,11.73-.84,17.6s-.67,11.72-1,17.59-.84,11.72-1.34,17.56c0-5.86.22-11.73.31-17.61l.47-17.61.51-17.6L55,98.23c0-2.9.16-5.91.07-8.71"/><path class="cls-2" d="M79.91,26.86a17.1,17.1,0,0,1,.52,5.38c-.05.91-.14,1.82-.28,2.72l-.3,1.33-.16.68-.21.65a22.83,22.83,0,0,1-5.87,9.24l-1,1a7.75,7.75,0,0,1-1,.89l-2.23,1.64c-.76.52-1.57.93-2.36,1.4l-1.19.69c-.4.23-.84.39-1.25.58-3.35,1.58-6.7,2.69-10,4.14a83.83,83.83,0,0,0-9.63,4.56,30.47,30.47,0,0,0-8.21,6.37,20.09,20.09,0,0,0-4.43,9.31A46.73,46.73,0,0,0,31.59,88a41.27,41.27,0,0,1-.25-10.82,20.27,20.27,0,0,1,.57-2.68,17.2,17.2,0,0,1,.86-2.63l.55-1.28A9.67,9.67,0,0,1,34,69.4l.67-1.22c.28-.38.57-.74.86-1.1a30.38,30.38,0,0,1,8.46-7,84.14,84.14,0,0,1,9.78-4.77c3.31-1.4,6.78-2.57,9.95-4,.4-.17.82-.32,1.2-.52l1.16-.62c.77-.43,1.56-.81,2.29-1.28l2.16-1.49a6.5,6.5,0,0,0,1-.8l1-.85a23,23,0,0,0,6-8.44l.26-.62.19-.62.4-1.26a25.86,25.86,0,0,0,.49-2.6A20.31,20.31,0,0,0,79.91,26.86Z"/><path class="cls-2" d="M31.6,88q1.36,8.91,2.07,17.9c.48,6,.79,12,1,18s.19,12-.07,18a96.13,96.13,0,0,1-2.1,17.89c.28-3,.49-6,.5-9s.06-6,0-9q-.09-9-.37-17.94l-.54-18C31.91,100,31.75,94,31.6,88Z"/><path class="cls-2" d="M153.82,97.83A113.31,113.31,0,0,0,154.1,86a40,40,0,0,0-1.82-11.48,20.14,20.14,0,0,0-2.56-5.07,19.3,19.3,0,0,0-3.93-4.09,48.94,48.94,0,0,0-10.09-5.7c-3.55-1.66-7.19-3.22-10.75-5a68.42,68.42,0,0,1-10.39-6,22.69,22.69,0,0,1-4.49-4.21,14.14,14.14,0,0,1-2.65-5.67,28.75,28.75,0,0,1-.47-6.07c0-2,.09-4,.12-5.92l.73.73-7-.13-7-.16c-4.66-.15-9.31-.24-14-.45,4.65-.2,9.3-.29,14-.44l7-.16,7-.13h.72v.75c0,2,0,4,.06,5.9a28,28,0,0,0,.55,5.7c.8,3.66,3.45,6.49,6.55,8.71a72.88,72.88,0,0,0,10.13,5.77c3.5,1.74,7.11,3.32,10.69,5A50.56,50.56,0,0,1,146.84,64a20.21,20.21,0,0,1,6.68,10,38.15,38.15,0,0,1,1.34,11.88A89.89,89.89,0,0,1,153.82,97.83Z"/><path class="cls-2" d="M154.81,159.82a126.62,126.62,0,0,1-2.41-15.39c-.28-2.58-.44-5.17-.63-7.76s-.24-5.2-.29-7.79,0-5.2,0-7.81.16-5.19.39-7.78a133.79,133.79,0,0,1,1.93-15.46c-.11,5.2-.35,10.35-.39,15.52s-.08,10.33,0,15.49.25,10.32.48,15.48S154.46,154.65,154.81,159.82Z"/><path class="cls-3" d="M52.78,87.15s10.74,50.6,4.29,71.8h71.54s-3.82-42,2.25-71.8l-7,3.11a78.49,78.49,0,0,1-64.16,0Z"/><path class="cls-1" d="M128.61,159.94H57.07a1,1,0,0,1-.8-.4,1,1,0,0,1-.15-.88c6.31-20.71-4.2-70.8-4.31-71.31a1,1,0,0,1,.34-1,1,1,0,0,1,1-.13l7,3.12a77.62,77.62,0,0,0,63.35,0l7-3.12a1,1,0,0,1,1,.13,1,1,0,0,1,.35,1c-6,29.3-2.27,71.1-2.23,71.52a1,1,0,0,1-1,1.08Zm-70.23-2h69.15c-.52-6.64-3-42.38,2-69.13l-5.22,2.34a79.6,79.6,0,0,1-65,0l-5.2-2.33C55,93,56.89,103.24,58.33,115,60.72,134.47,60.74,148.92,58.38,158Z"/><path class="cls-1" d="M93.42,56.35A30.72,30.72,0,0,1,74,49.66c-.2-.17-.36-.31-.53-.43l-.22-.17c-.28-.23-.4-.32-1.86-1.32a1,1,0,0,1,1.13-1.65c1.51,1,1.65,1.13,2,1.38l.21.16.55.44c9.91,8.17,25.56,8.4,35.67.56.47-.37,1-.74,1.57-1.17l1.32-1A1,1,0,1,1,115,48.12c-.49.37-.93.68-1.33,1-.58.42-1.07.77-1.52,1.12A30.52,30.52,0,0,1,93.42,56.35Z"/><path class="cls-1" d="M82.79,79.37a3,3,0,0,1-1.94-.68,5.12,5.12,0,0,1-1.66-4.43,13.85,13.85,0,0,1,2.63-6,55.28,55.28,0,0,1,7-8.08c.93-.92,1.88-1.81,2.82-2.66l.19-.16c1.15-1,1.54-1.37,1.67-1.51a1,1,0,0,1,.87-.52h0a1,1,0,0,1,1,1,37.75,37.75,0,0,1-3.8,15.38,16.33,16.33,0,0,1-4.22,5.47C86.46,77.88,84.63,79.37,82.79,79.37ZM93.2,58.78l-.14.12-.15.13c-.92.83-1.84,1.71-2.75,2.61a52.37,52.37,0,0,0-6.71,7.77,12.17,12.17,0,0,0-2.3,5.07,3.19,3.19,0,0,0,.93,2.67c1,.78,2.72-.46,4-1.47a14.18,14.18,0,0,0,3.7-4.82A37.16,37.16,0,0,0,93.2,58.78Zm.13-2.43Zm0,0Z"/><path class="cls-1" d="M106.13,79.37c-1.84,0-3.67-1.49-4.49-2.16a16.21,16.21,0,0,1-4.22-5.47,37.93,37.93,0,0,1-3.81-15.38,1,1,0,0,1,1-1h0a1,1,0,0,1,.87.52c.13.14.51.51,1.67,1.51l.19.16c.93.85,1.88,1.74,2.81,2.66a55.29,55.29,0,0,1,7,8.08,13.73,13.73,0,0,1,2.62,5.94,5.15,5.15,0,0,1-1.65,4.44A3,3,0,0,1,106.13,79.37ZM95.72,58.78a36.92,36.92,0,0,0,3.47,12.08,14.28,14.28,0,0,0,3.69,4.82c1.23,1,3,2.25,4,1.47a3.16,3.16,0,0,0,.94-2.67,12.2,12.2,0,0,0-2.31-5.07,52.94,52.94,0,0,0-6.7-7.77c-.91-.9-1.84-1.78-2.75-2.61l-.16-.13Zm-.13-2.43Zm0,0"/><path class="cls-1" d="M94.41,56.37c.24,2.13.24,4.25.35,6.38s0,4.25-.06,6.36-.19,4.24-.31,6.35-.36,4.22-.57,6.33S93.3,86,93,88.1s-.68,4.2-1.16,6.28-.95,4.15-1.6,6.21l-.51,1.52c-.18.51-.4,1-.59,1.51a12.22,12.22,0,0,1-.65,1.49l-.81,1.41a.11.11,0,0,1-.14,0,.11.11,0,0,1,0-.12,20.9,20.9,0,0,0,1-3c.13-.51.28-1,.4-1.53l.32-1.55c.22-1,.41-2.06.58-3.11s.36-2.07.5-3.12c.63-4.17,1.11-8.37,1.57-12.56,1-8.39,1.72-16.81,2.36-25.23a.1.1,0,0,1,.1-.09.11.11,0,0,1,.09.09Z"/><path class="cls-1" d="M95.38,56.36c.42,2,.63,4,1,6s.48,4,.64,6,.3,4,.45,6l.27,6,.11,6c0,2,0,4,0,6s-.1,4-.19,6-.24,4-.28,6v0a.09.09,0,0,1-.1.1.11.11,0,0,1-.09-.08c-.35-2-.41-4-.57-6l-.32-6-.49-12q-.33-12.06-.55-24.12a.11.11,0,0,1,.1-.1.09.09,0,0,1,.09.08Z"/></svg>