<svg id="图层_1" data-name="图层 1" xmlns="http://www.w3.org/2000/svg" viewBox="0 0 186 186"><defs><style>.cls-1{fill:#999692;}.cls-2{fill:#f2f2f2;}</style></defs><path class="cls-1" d="M82.34,66.39q0,3.85-.13,7.7c-.08,2.57-.22,5.14-.47,7.7a34.32,34.32,0,0,1-1.4,7.65A13.6,13.6,0,0,1,76,95.9l.07-.09a3,3,0,0,1-.51.51l-.49.39-1,.77c-.66.51-1.32,1-2,1.48l1.79-1.71.89-.86.43-.44a3.63,3.63,0,0,0,.36-.38l0-.07h0a13.85,13.85,0,0,0,3.81-6.34,42,42,0,0,0,1.3-7.46l.76-7.64C81.73,71.5,82,68.94,82.34,66.39Z"/><path class="cls-1" d="M102.72,66.39c.36,2.55.61,5.11.85,7.66l.76,7.64a41.15,41.15,0,0,0,1.31,7.46,13.75,13.75,0,0,0,3.8,6.34h0l.05.07a5.18,5.18,0,0,0,.36.38l.43.44.89.86L113,99c-.68-.48-1.34-1-2-1.48l-1-.77-.49-.39a2.69,2.69,0,0,1-.5-.51l.06.09a13.58,13.58,0,0,1-4.36-6.46,34.32,34.32,0,0,1-1.4-7.65c-.26-2.56-.4-5.13-.48-7.7S102.72,69,102.72,66.39Z"/><path class="cls-1" d="M122.19,136.89c.08-5.61.29-11.24.59-16.85.16-2.81.31-5.63.62-8.45s.69-5.59,1.06-8.38c.76-5.57,1.6-11.12,2.42-16.68l1.23-8.22.68,8.29q1.43,17.24,2.45,34.49.51,8.64.86,17.28c.15,5.77.39,11.54.22,17.3-.28-5.76-.7-11.5-1.17-17.24l-1.41-17.25-2.92-34.45,2,.07-2.53,16.65c-.41,2.77-.83,5.55-1.18,8.32s-.59,5.55-.81,8.34c-.42,5.59-.79,11.19-1.15,16.8"/><path class="cls-1" d="M54.54,155.67c.05-5.69.21-11.39.3-17.09l.46-17.08.49-17.07.3-8.51c0-2.81.16-5.73.07-8.45l-.22-6.69L58,87.1c1.76,5.36,3.47,10.69,5,16.16.75,2.72,1.48,5.45,2,8.25a43.41,43.41,0,0,1,.75,8.52c.08,5.65-.16,11.27-.43,16.9s-.68,11.23-1.2,16.83c.09-5.62.25-11.24.27-16.86s.08-11.24-.13-16.83a45.46,45.46,0,0,0-.9-8.22c-.6-2.71-1.35-5.41-2.14-8.1C59.71,98.38,58,93,56.21,87.72l1.83-.4c.09,3,0,5.76-.1,8.63l-.31,8.55c-.26,5.69-.5,11.38-.82,17.07s-.65,11.37-1,17.06S55,150,54.54,155.67Z"/><path class="cls-1" d="M80.3,26.7a16.39,16.39,0,0,1,.51,5.22,26.27,26.27,0,0,1-.28,2.64l-.29,1.29-.15.65-.21.63a22.05,22.05,0,0,1-5.69,9l-1,.92a7.94,7.94,0,0,1-1,.87l-2.17,1.58c-.74.51-1.52.9-2.29,1.36l-1.16.67c-.39.22-.8.38-1.2.56-3.26,1.54-6.5,2.62-9.72,4a78.78,78.78,0,0,0-9.33,4.43,29.36,29.36,0,0,0-8,6.17,19.52,19.52,0,0,0-4.29,9A45.15,45.15,0,0,0,33.44,86a39.36,39.36,0,0,1-.24-10.51,17.82,17.82,0,0,1,.55-2.59,17.26,17.26,0,0,1,.83-2.55l.53-1.25A11.37,11.37,0,0,1,35.78,68l.65-1.18c.27-.37.55-.72.84-1.07a29.35,29.35,0,0,1,8.2-6.8A81.49,81.49,0,0,1,55,54.29c3.21-1.36,6.57-2.5,9.65-3.89.39-.16.8-.31,1.17-.5l1.11-.6c.75-.41,1.52-.78,2.23-1.24l2.1-1.45a8,8,0,0,0,1-.77l1-.83A22.13,22.13,0,0,0,79,36.82l.25-.59.19-.6.39-1.23a23.79,23.79,0,0,0,.47-2.52A19.12,19.12,0,0,0,80.3,26.7Z"/><path class="cls-1" d="M33.13,86q1.4,8.63,2.16,17.34c.52,5.81.87,11.65,1.13,17.43s.29,11.65.09,17.49a93.07,93.07,0,0,1-1.87,17.37c.25-2.91.42-5.83.4-8.7s0-5.82-.08-8.74q-.16-8.74-.51-17.39l-.69-17.42C33.54,97.68,33.33,91.87,33.13,86Z"/><path class="cls-1" d="M152,95.54a112.16,112.16,0,0,0,.28-11.45A39.28,39.28,0,0,0,150.5,73,19.84,19.84,0,0,0,148,68a18.87,18.87,0,0,0-3.82-4,47.61,47.61,0,0,0-9.78-5.53c-3.45-1.61-7-3.12-10.43-4.85a67.36,67.36,0,0,1-10.08-5.83,22.21,22.21,0,0,1-4.35-4.09,13.63,13.63,0,0,1-2.57-5.5,27,27,0,0,1-.46-5.89c0-1.94.09-3.84.12-5.74l.71.71-6.8-.13-6.8-.15c-4.52-.15-9-.23-13.55-.44,4.52-.19,9-.28,13.55-.43l6.8-.15,6.8-.13h.7v.73c0,1.94,0,3.84,0,5.72a27,27,0,0,0,.54,5.53c.77,3.56,3.34,6.29,6.35,8.45a70.06,70.06,0,0,0,9.82,5.6c3.4,1.69,6.9,3.22,10.38,4.85a49.37,49.37,0,0,1,10,5.94,19.53,19.53,0,0,1,6.48,9.71A36.77,36.77,0,0,1,153,84,87.84,87.84,0,0,1,152,95.54Z"/><path class="cls-1" d="M153,155.67a123.61,123.61,0,0,1-2.35-14.93c-.27-2.51-.42-5-.61-7.53s-.23-5-.28-7.56,0-5,0-7.57.16-5,.38-7.55a130,130,0,0,1,1.87-15c-.1,5-.34,10-.37,15s-.08,10,0,15,.24,10,.46,15S152.62,150.65,153,155.67Z"/><path class="cls-2" d="M105.39,122a42,42,0,0,1-9.81,6c-.59.27-3.59,2-4.21,1.74-6.16-2.39-12.73-6.27-17-11.47-8.48-10.4-3.7-27.39,3.43-37.06.9-1.22,13-15.11,14.82-13.66C109,80.6,126.7,104.15,105.39,122Zm25.68-33a126.06,126.06,0,0,1,1.65-17.66c.46-3.27,4.05-10.95,2.08-14a2.48,2.48,0,0,0-1-.85c-5.94-2.88-12.95-5.75-18.95-8.62a4.28,4.28,0,0,0-1.92-.57,4.68,4.68,0,0,0-2.51,1.27C100.23,56.43,84.6,56.2,74.67,48c-.17-.15-.35-.3-.54-.44a3,3,0,0,0-1.68-.75,4,4,0,0,0-2.31,1c-4.23,3-11.84,6.24-16.8,7.71-4.51,1.34-3.91,1.59-3.11,6.48,1.37,8.37,4.41,16.31,4.39,24.91a150.82,150.82,0,0,1-1.42,15.31,13.28,13.28,0,0,0,.16,4.49C55,114.59,60.54,141,63.67,155.17a2.47,2.47,0,0,0,2.69,2.45,210.53,210.53,0,0,0,53.38-.42c3.69-11.41,10.45-38,12.86-47.67a16.3,16.3,0,0,0,.21-7A90.71,90.71,0,0,1,131.07,89Z"/><path class="cls-1" d="M72.36,47.79a3.5,3.5,0,0,0-1.67.82C66.28,51.72,58.6,55,53.61,56.45c-1.36.4-2.61.8-2.87,1.23s-.05,1.38.2,2.77c.07.42.16.89.24,1.4.48,2.94,1.18,5.88,1.86,8.73,1.26,5.25,2.56,10.68,2.54,16.34a148,148,0,0,1-1.43,15.43,12.75,12.75,0,0,0,.15,4.18c1.62,7.76,7.16,34.19,10.3,48.43a2.67,2.67,0,0,0,.53,1.32,2.7,2.7,0,0,0,1.34.39,209.48,209.48,0,0,0,52.54-.34c3.66-11.5,10-36.63,12.66-47a15.15,15.15,0,0,0,.19-6.53A90.68,90.68,0,0,1,130.11,89h0a121.24,121.24,0,0,1,1.55-17l.11-.79a30.86,30.86,0,0,1,1.06-4.05c1-3.18,2.3-7.54,1.16-9.3a1.48,1.48,0,0,0-.65-.51c-3-1.46-6.41-3-9.68-4.41-3.11-1.37-6.33-2.8-9.26-4.2a3.72,3.72,0,0,0-1.48-.48,3.74,3.74,0,0,0-1.85,1l-.1.07c-10.46,8.13-26.68,7.89-36.91-.54l-.51-.42a2.22,2.22,0,0,0-1.14-.55Zm19.16,83a1.26,1.26,0,0,1-.49-.09c-4.26-1.65-12.17-5.38-17.38-11.77-4-4.94-5.53-11.7-4.34-19.55a43.55,43.55,0,0,1,7.75-18.68c.1-.14,11.42-13.66,15-14.14a1.58,1.58,0,0,1,1.2.3c20.47,16.35,22.83,30.63,22.89,36,.09,7.5-3.32,14.2-10.13,19.91h0a43.25,43.25,0,0,1-10,6.15l-.62.31C93.23,130.31,92.2,130.74,91.52,130.74Zm.2-1.88Zm.48-60.43c-2.2.48-12,11.17-13.59,13.36-6.46,8.75-11.8,25.67-3.47,35.88,4.88,6,12.34,9.53,16.45,11.14a19.22,19.22,0,0,0,2.87-1.31l.72-.36a40.85,40.85,0,0,0,9.59-5.88h0c6.36-5.32,9.53-11.51,9.45-18.41C114,87.23,97.52,72.71,92.2,68.43Zm-.81,91.65a211.52,211.52,0,0,1-25.15-1.5,3.4,3.4,0,0,1-3.51-3.2c-3.15-14.26-8.69-40.7-10.31-48.46a14.19,14.19,0,0,1-.17-4.82,148,148,0,0,0,1.41-15.18c0-5.44-1.26-10.75-2.48-15.89-.69-2.89-1.4-5.86-1.9-8.87-.08-.5-.16-1-.23-1.37-.71-4-.48-4.85,4-6.18C58,53.15,65.49,49.92,69.58,47a4.84,4.84,0,0,1,2.92-1.17,4,4,0,0,1,2.22,1l.54.44c9.59,7.9,24.75,8.12,34.54.52l.09-.07a5.27,5.27,0,0,1,3-1.4,5.36,5.36,0,0,1,2.37.66c2.9,1.4,6.11,2.81,9.21,4.19,3.28,1.45,6.68,3,9.74,4.43a3.37,3.37,0,0,1,1.43,1.2c1.61,2.51.26,7-.94,10.9a29.67,29.67,0,0,0-1,3.76l-.11.79A119.72,119.72,0,0,0,132,89h0a91.09,91.09,0,0,0,1.72,13.42,17.08,17.08,0,0,1-.22,7.36c-2.66,10.6-9.23,36.47-12.88,47.74a1,1,0,0,1-.78.65A210.39,210.39,0,0,1,91.39,160.08Z"/></svg>