<svg id="图层_1" data-name="图层 1" xmlns="http://www.w3.org/2000/svg" viewBox="0 0 186 186"><defs><style>.cls-1{fill:#9a9692;}.cls-2{fill:#999692;}.cls-3{fill:#fff;}.cls-4{fill:#f2f2f2;}</style></defs><path class="cls-1" d="M129.89,88.61q1.49,17.79,2.54,35.57.52,8.9.88,17.81c.16,5.95.4,11.9.23,17.83-.29-5.93-.72-11.85-1.21-17.77l-1.45-17.78-3-35.51,2,.07L127.27,106c-.42,2.86-.85,5.72-1.22,8.57s-.6,5.72-.83,8.61c-.43,5.76-.81,11.54-1.18,17.31l-1.12,17.36c0-5.8.09-11.59.17-17.38s.3-11.58.61-17.37c.17-2.9.33-5.8.65-8.71s.71-5.76,1.09-8.64c.78-5.74,1.64-11.47,2.49-17.2"/><path class="cls-1" d="M56.94,89.14c1.82,5.51,3.59,11,5.15,16.65.77,2.81,1.52,5.62,2.1,8.5a43.94,43.94,0,0,1,.77,8.79c.09,5.83-.16,11.63-.44,17.42s-.7,11.58-1.23,17.36c.09-5.8.25-11.59.27-17.39s.09-11.58-.13-17.34a46.65,46.65,0,0,0-.93-8.49c-.61-2.79-1.39-5.57-2.2-8.34-1.63-5.54-3.39-11.07-5.23-16.53L57,89.36c.1,3.07,0,5.94-.1,8.9l-.32,8.81c-.26,5.86-.51,11.73-.84,17.6s-.67,11.72-1,17.59-.84,11.72-1.34,17.56c0-5.86.22-11.73.31-17.61l.47-17.61.51-17.6L55,98.23c0-2.9.16-5.91.07-8.71"/><path class="cls-1" d="M79.91,26.86a17.1,17.1,0,0,1,.52,5.38c-.05.91-.14,1.82-.28,2.72l-.3,1.33-.16.68-.21.65a22.83,22.83,0,0,1-5.87,9.24l-1,1a7.75,7.75,0,0,1-1,.89l-2.23,1.64c-.76.52-1.57.93-2.36,1.4l-1.19.69c-.4.23-.84.39-1.25.58-3.35,1.58-6.7,2.69-10,4.14a83.83,83.83,0,0,0-9.63,4.56,30.47,30.47,0,0,0-8.21,6.37,20.09,20.09,0,0,0-4.43,9.31A46.73,46.73,0,0,0,31.59,88a41.27,41.27,0,0,1-.25-10.82,20.27,20.27,0,0,1,.57-2.68,17.2,17.2,0,0,1,.86-2.63l.55-1.28A9.67,9.67,0,0,1,34,69.4l.67-1.22c.28-.38.57-.74.86-1.1a30.38,30.38,0,0,1,8.46-7,84.14,84.14,0,0,1,9.78-4.77c3.31-1.4,6.78-2.57,9.95-4,.4-.17.82-.32,1.2-.52l1.16-.62c.77-.43,1.56-.81,2.29-1.28l2.16-1.49a6.5,6.5,0,0,0,1-.8l1-.85a23,23,0,0,0,6-8.44l.26-.62.19-.62.4-1.26a25.86,25.86,0,0,0,.49-2.6A20.31,20.31,0,0,0,79.91,26.86Z"/><path class="cls-1" d="M31.6,88q1.36,8.91,2.07,17.9c.48,6,.79,12,1,18s.19,12-.07,18a96.13,96.13,0,0,1-2.1,17.89c.28-3,.49-6,.5-9s.06-6,0-9q-.09-9-.37-17.94l-.54-18C31.91,100,31.75,94,31.6,88Z"/><path class="cls-1" d="M153.82,97.83A113.31,113.31,0,0,0,154.1,86a40,40,0,0,0-1.82-11.48,20.14,20.14,0,0,0-2.56-5.07,19.3,19.3,0,0,0-3.93-4.09,48.94,48.94,0,0,0-10.09-5.7c-3.55-1.66-7.19-3.22-10.75-5a68.42,68.42,0,0,1-10.39-6,22.69,22.69,0,0,1-4.49-4.21,14.14,14.14,0,0,1-2.65-5.67,28.75,28.75,0,0,1-.47-6.07c0-2,.09-4,.12-5.92l.73.73-7-.13-7-.16c-4.66-.15-9.31-.24-14-.45,4.65-.2,9.3-.29,14-.44l7-.16,7-.13h.72v.75c0,2,0,4,.06,5.9a28,28,0,0,0,.55,5.7c.8,3.66,3.45,6.49,6.55,8.71a72.88,72.88,0,0,0,10.13,5.77c3.5,1.74,7.11,3.32,10.69,5A50.56,50.56,0,0,1,146.84,64a20.21,20.21,0,0,1,6.68,10,38.15,38.15,0,0,1,1.34,11.88A89.89,89.89,0,0,1,153.82,97.83Z"/><path class="cls-1" d="M154.81,159.82a126.62,126.62,0,0,1-2.41-15.39c-.28-2.58-.44-5.17-.63-7.76s-.24-5.2-.29-7.79,0-5.2,0-7.81.16-5.19.39-7.78a133.79,133.79,0,0,1,1.93-15.46c-.11,5.2-.35,10.35-.39,15.52s-.08,10.33,0,15.49.25,10.32.48,15.48S154.46,154.65,154.81,159.82Z"/><path class="cls-2" d="M82.44,68q0,4-.13,7.94c-.08,2.65-.23,5.3-.49,8a35.79,35.79,0,0,1-1.44,7.89,14.08,14.08,0,0,1-4.51,6.67l.07-.09a3.16,3.16,0,0,1-.52.52l-.5.4-1,.8c-.68.52-1.36,1-2.06,1.53l1.85-1.77.92-.89.45-.45.37-.39,0-.08h0a14.21,14.21,0,0,0,3.93-6.54,42.62,42.62,0,0,0,1.35-7.7l.78-7.88C81.82,73.28,82.08,70.64,82.44,68Z"/><path class="cls-2" d="M103.48,68c.37,2.62.63,5.26.87,7.9l.79,7.88a42.62,42.62,0,0,0,1.35,7.7A14.21,14.21,0,0,0,110.42,98h0l.06.08a5.34,5.34,0,0,0,.37.39l.45.45.91.89,1.85,1.77c-.69-.5-1.37-1-2-1.53l-1-.8-.5-.4a3.16,3.16,0,0,1-.52-.52l.07.09a14.08,14.08,0,0,1-4.51-6.67,35.23,35.23,0,0,1-1.45-7.89c-.26-2.65-.41-5.3-.48-8S103.48,70.67,103.48,68Z"/><path class="cls-3" d="M68.75,48.22a21.21,21.21,0,0,0-2,1.34c-.75.39-1,.9-.44,1.53l50.76,56.76,4.43-1-51-58.5A1.45,1.45,0,0,0,68.75,48.22Z"/><path class="cls-2" d="M117.12,108.84a1,1,0,0,1-.74-.33L65.62,51.75a1.83,1.83,0,0,1-.53-1.59,2.09,2.09,0,0,1,1.17-1.44,17.42,17.42,0,0,1,2.07-1.4h0a2.36,2.36,0,0,1,3,.37l51,58.51a1,1,0,0,1,.19,1,1,1,0,0,1-.72.66l-4.43,1A.78.78,0,0,1,117.12,108.84Zm-50-58.35,50.31,56.27,2.24-.51L69.8,49c-.09-.09-.43,0-.62.12h0a17.67,17.67,0,0,0-1.78,1.23l-.14.08Zm1.59-2.27h0Z"/><path class="cls-3" d="M118.52,48.55c1.41.15,4.06,2.07,2.61,3.64-7.5,8.16-55.66,57.37-55.66,57.37l-3.73-3.15L116.66,49.3A2.19,2.19,0,0,1,118.52,48.55Z"/><path class="cls-2" d="M65.47,110.56a1,1,0,0,1-.64-.24l-3.73-3.16a1,1,0,0,1-.35-.7,1,1,0,0,1,.28-.74L116,48.61a3.12,3.12,0,0,1,2.68-1,5,5,0,0,1,3.75,2.77,2.38,2.38,0,0,1-.52,2.54c-7.42,8.07-55.2,56.9-55.68,57.39A1,1,0,0,1,65.47,110.56Zm-2.28-4.23,2.22,1.88c5.76-5.89,48.06-49.15,55-56.69a.41.41,0,0,0,.12-.49,3.17,3.17,0,0,0-2.11-1.5h0a1.17,1.17,0,0,0-1,.46Z"/><path class="cls-4" d="M52.54,87.15s10.74,50.6,4.28,71.8h71.55s-3.82-42,2.24-71.8l-7,3.11a78.47,78.47,0,0,1-64.15,0Z"/><path class="cls-2" d="M128.37,159.94H56.82a1,1,0,0,1-.79-.4,1,1,0,0,1-.16-.88c6.31-20.71-4.2-70.8-4.3-71.31a1,1,0,0,1,.34-1,1,1,0,0,1,1-.13l7,3.12a77.62,77.62,0,0,0,63.35,0l7-3.12a1,1,0,0,1,1.38,1.1c-6,29.3-2.27,71.1-2.23,71.52a1,1,0,0,1-1,1.08Zm-70.24-2h69.16c-.53-6.64-3-42.38,2-69.13l-5.21,2.34a79.6,79.6,0,0,1-65,0l-5.2-2.33c.82,4.11,2.75,14.4,4.2,26.14C60.48,134.47,60.5,148.92,58.13,158Z"/></svg>