<svg id="图层_1" data-name="图层 1" xmlns="http://www.w3.org/2000/svg" viewBox="0 0 186 186"><defs><style>.cls-1{fill:#f5e3ea;}.cls-2{fill:#e2c9d2;}.cls-3{fill:#fff;}.cls-4{fill:#5b3b2f;}</style></defs><path class="cls-1" d="M82.3,26.9h18.08c.59,0,1.58,3,1.6,3.5.39,7.7,4,10.91,11.24,15.51A20.64,20.64,0,0,0,121,49c2.81.43,5.53-.85,8.39-.26,7.2,1.5,14,8.84,13.13,15.87l-1.64,9.12c-5,28.76-18.85,49.88-18.85,78.36l-60.75-.65c1-7.94-1.48-20.26-3-26.78-1.65-7.22-3.58-11.5-6-18.48-2.29-6.54-1.9-7.31-5.68-20-1-3.46-1.44-3.94-1.93-7.51s-.85-10.4-1-13.89c-.16-4.12.34-8.37,2.6-12,2-3.1,5.29-4.37,8.86-4.19s6.37,1.08,9.89-.26c2.83-1.08,4.61-2.6,7.17-4.06,4.3-2.45,9-5.74,9.92-9.92.17-.74-.29-7.47.66-7.47h17.43"/><path class="cls-2" d="M73.36,65.53a20.91,20.91,0,0,1,5.82,14.6c0,.68-.07,1.36-.11,2a11.52,11.52,0,0,1-.26,2c-.15.66-.22,1.35-.43,2s-.46,1.28-.7,1.92a11.77,11.77,0,0,1-.87,1.83c-.32.59-.64,1.18-1,1.76a36.39,36.39,0,0,1-2.46,3.18.08.08,0,0,1-.1,0,.07.07,0,0,1,0-.09h0c.51-1.24,1.09-2.42,1.65-3.59.22-.61.47-1.21.71-1.81a11.94,11.94,0,0,0,.67-1.81q.28-.91.6-1.83c.21-.6.31-1.24.48-1.85A10.13,10.13,0,0,0,77.75,82c.08-.64.19-1.27.23-1.91a20.39,20.39,0,0,0-1-7.62,19.9,19.9,0,0,0-3.71-6.84h0a.07.07,0,0,1,.11-.1Z"/><path class="cls-2" d="M110.4,65.64a19.76,19.76,0,0,0-3.72,6.84,20.8,20.8,0,0,0-1,7.62c0,.64.16,1.27.23,1.91a11,11,0,0,0,.4,1.88c.16.61.27,1.25.48,1.85s.41,1.22.6,1.83a11.94,11.94,0,0,0,.67,1.81c.23.6.48,1.2.71,1.81.56,1.17,1.13,2.35,1.65,3.59h0a.08.08,0,0,1,0,.1.1.1,0,0,1-.09,0,38.33,38.33,0,0,1-2.45-3.18c-.34-.58-.66-1.17-1-1.76A12.75,12.75,0,0,1,106,88.1q-.36-1-.69-1.92c-.21-.64-.29-1.33-.44-2a11.52,11.52,0,0,1-.26-2c0-.68-.11-1.36-.11-2a21,21,0,0,1,5.82-14.6.08.08,0,0,1,.11,0,.08.08,0,0,1,0,.1Z"/><path class="cls-3" d="M136.61,51.42A18.28,18.28,0,0,0,126.94,48c-3.59-.17-5.75.52-9.1-1-3.19-1.48-6.48-2.66-9.3-4.83s-6-5.44-6.09-9.31c0-.76.32-.42,0-1.14,0,0-5-.78-5.56-.74a20.56,20.56,0,0,1-7-.4c-1.86-.5-5.33.5-7.26.3-.75,1.86-.26,2.67-.91,4.49a13.61,13.61,0,0,1-3.3,4.9c-5.86,5.86-12,8.88-20.23,8.17-6.61-.58-10.39,2.11-12.77,8-2,5.1-1.42,9.58-1,14.77.5,6.07,1.16,12,3.06,17.79A1.85,1.85,0,0,0,48.22,90c2,1.16,6.36,1.14,9,.32.7-.22,1.66-.5,1.47.21-1,3.73,1.12,8.74,2.07,12.26,1.38,5.12,3.13,10,4.86,15,2.5,7.24,3.24,14.38.71,21.71-2.47,7.13-6.88,13.36-10,20.2h.35a.5.5,0,0,0,.44.26l10,0H129.5a.49.49,0,0,0,.43-.26h.69c-5.58-6.16-11-13-13.33-21.12-3.86-13.08,4.17-27.18,6.81-39.84.64-3,2.06-6.79,1.88-9.94a.89.89,0,0,1,.32-.79,1.41,1.41,0,0,1,.64-.19,28.75,28.75,0,0,0,11.63-3.49c1-.53,1.34-3.44,1.54-4.39.39-1.75.77-3.51,1.11-5.28a58.32,58.32,0,0,0,1.17-9C142.56,60.22,141.38,54.92,136.61,51.42Zm-21.2,49.24a45.43,45.43,0,0,1-10.17,14.08c-3,2.75-7.83,7.17-12,7.64s-7.69-3.63-10.47-6.12a64.87,64.87,0,0,1-9.44-10C68.56,99.8,66.19,91.57,69,83.75A63,63,0,0,1,89.37,55.39c2.42-1.94,4.13-2,6.79.13,9.32,7.49,15.18,17.37,19.66,28A19.8,19.8,0,0,1,115.41,100.66Z"/><path class="cls-4" d="M101.79,31.66a2.92,2.92,0,0,0-1.18-.12l-1.21,0c-.8,0-1.6,0-2.41,0-1.6,0-3.21-.08-4.82-.19s-3.2-.29-4.8-.39-3.2-.11-4.83-.19A30.08,30.08,0,0,1,87.36,30C89,29.91,90.63,30,92.24,30a39.34,39.34,0,0,1,4.84.32,22.3,22.3,0,0,1,2.42.43c.4.09.79.21,1.19.33A2.44,2.44,0,0,1,101.79,31.66Z"/><path class="cls-4" d="M48,89.34a3.32,3.32,0,0,0,1.3.58c.47.13.93.24,1.39.33a16.15,16.15,0,0,0,2.75.29,13.13,13.13,0,0,0,2.71-.28,18.6,18.6,0,0,0,2.76-.92,5.76,5.76,0,0,1-2.37,2,7.13,7.13,0,0,1-3.12.68,8,8,0,0,1-3.09-.68,6.61,6.61,0,0,1-1.36-.79A2.39,2.39,0,0,1,48,89.34Z"/><path class="cls-4" d="M139.27,82.33a.61.61,0,0,1,.36.58,2.15,2.15,0,0,1-.12.65,4.71,4.71,0,0,1-.58,1.06,8.43,8.43,0,0,1-1.58,1.63,12.89,12.89,0,0,1-3.92,2.09,19.75,19.75,0,0,1-2.15.51,14.7,14.7,0,0,1-2.2.15,10.07,10.07,0,0,1-4.28-.94h0a.07.07,0,0,1,0-.1.08.08,0,0,1,.07,0,20.32,20.32,0,0,0,8.16-1,18,18,0,0,0,3.76-1.67A10.54,10.54,0,0,0,138.39,84a4.07,4.07,0,0,0,.69-.75c.17-.26.35-.64.1-.83a.07.07,0,0,1,0-.1.08.08,0,0,1,.07,0Z"/><path class="cls-4" d="M61.31,152.41A53.58,53.58,0,0,0,61,142c-.37-3.44-.9-6.86-1.54-10.26a177,177,0,0,0-5.46-20c-2.08-6.63-4.48-13.19-6.36-19.91q-1.47-5-2.47-10.19a86,86,0,0,1-1.42-10.36q.78,5.18,2.05,10.23c.84,3.36,1.85,6.68,2.93,10,2.17,6.6,4.63,13.09,7,19.66a114.19,114.19,0,0,1,5.46,20.27,83.64,83.64,0,0,1,1,10.48,51.29,51.29,0,0,1-.09,5.26A28.36,28.36,0,0,1,61.31,152.41Z"/><path class="cls-4" d="M92.05,124c-3.56,0-6.59-2.86-9.06-5.19l-1.26-1.16a66.29,66.29,0,0,1-9.55-10.06c-5.42-7.44-7-15.92-4.42-23.26A63.62,63.62,0,0,1,88.38,55.64c2.77-2.21,4.86-2.18,7.73.13,8.23,6.61,14.55,15.61,19.89,28.34a20.61,20.61,0,0,1-.42,17.7,46.53,46.53,0,0,1-10.35,14.31c-4.08,3.81-8.41,7.39-12.44,7.84A6.23,6.23,0,0,1,92.05,124Zm.09-68.49a4.63,4.63,0,0,0-2.82,1.3,62.15,62.15,0,0,0-20.15,28c-2.44,6.86-.9,14.83,4.23,21.87a65.09,65.09,0,0,0,9.33,9.83c.41.36.84.77,1.28,1.18,2.54,2.39,5.43,5.11,8.61,4.75,4.1-.46,9.16-5.18,11.59-7.44a45.13,45.13,0,0,0,10-13.85h0a19,19,0,0,0,.4-16.49C109.37,72.2,103.2,63.38,95.17,56.94A5,5,0,0,0,92.14,55.51Z"/><path class="cls-4" d="M83,26.8c3.41-.38,6.82-.59,10.24-.7C95,26,96.66,26,98.37,26c.85,0,1.7,0,2.55,0h.2l.14,0a.73.73,0,0,1,.25.08.9.9,0,0,1,.29.2,1.57,1.57,0,0,1,.36.57,4.3,4.3,0,0,1,.21.75,10.93,10.93,0,0,1,.15,1.35c.07.86.08,1.78.09,2.59a13.25,13.25,0,0,0,.31,2.43A11.28,11.28,0,0,0,105,38.49c2,2.69,5,4.49,7.93,6.15a32.78,32.78,0,0,0,4.48,2.23,18.84,18.84,0,0,0,4.69,1.21A23.5,23.5,0,0,0,127,47.6a11,11,0,0,1,2.81,0,12.5,12.5,0,0,1,2.7.74,16.63,16.63,0,0,1,7.91,7.12,14.48,14.48,0,0,1,1.93,10.15l-.2,0a15.55,15.55,0,0,0-3.06-9.27,16.52,16.52,0,0,0-7.37-6,8.85,8.85,0,0,0-4.51-.65,23.75,23.75,0,0,1-5.3.27,21.39,21.39,0,0,1-9.56-4.33,36.37,36.37,0,0,1-7.81-6.74A15.54,15.54,0,0,1,102,34.29a14.06,14.06,0,0,1-.62-2.58c-.1-.89-.21-1.68-.37-2.5-.08-.41-.17-.81-.27-1.18a3.41,3.41,0,0,0-.16-.46c0-.05-.07-.09,0,0a.68.68,0,0,0,.16.11,1.07,1.07,0,0,0,.17.06h-.06c-.85,0-1.7,0-2.55,0-1.71,0-3.41,0-5.11-.1-3.41-.11-6.81-.31-10.22-.7Z"/><path class="cls-4" d="M100.93,27c-3.45.35-6.9.56-10.35.67-1.73.06-3.45.1-5.18.11l-1.29,0h-.59l.15,0c.33-.12.28-.19.28-.16a1.55,1.55,0,0,0-.08.15,15.53,15.53,0,0,0-.68,2.28l-.57,2.49c-.2.86-.32,1.65-.57,2.58a11.19,11.19,0,0,1-2.79,4.57,29.11,29.11,0,0,1-4,3.36c-1.43,1-2.76,2.07-4.15,3.14A21.83,21.83,0,0,1,66.58,49a12.31,12.31,0,0,1-5.44,1.07c-1.83,0-3.53-.3-5.19-.39a10.69,10.69,0,0,0-4.59.68c-2.87,1.16-4.84,4-5.89,7.15a25.19,25.19,0,0,0-1.16,4.92,37.86,37.86,0,0,0-.38,5.12l-.2,0a26.67,26.67,0,0,1,.34-10.48,15.58,15.58,0,0,1,2.18-5,10.31,10.31,0,0,1,4.29-3.65,11.67,11.67,0,0,1,5.53-.92c1.8.08,3.51.4,5.13.49a10.48,10.48,0,0,0,4.67-.74,39.88,39.88,0,0,0,4.54-2.17c3-1.71,6.11-3.36,8.36-5.89a9.08,9.08,0,0,0,2.14-4.4c.21-1.61.32-3.42.62-5.14A11.87,11.87,0,0,1,82.25,27a2.72,2.72,0,0,1,.24-.42,1.3,1.3,0,0,1,.77-.57l.22,0h.63l1.29,0c1.73,0,3.45.05,5.18.11,3.45.11,6.9.32,10.35.67Z"/><path class="cls-4" d="M141.52,67.58c0,1.73,0,3.47-.13,5.21s-.37,3.45-.61,5.17-.62,3.42-1,5.12-.83,3.37-1.33,5L136.77,93c-.6,1.62-1.2,3.24-1.74,4.88-1.13,3.27-2.08,6.59-3,9.91s-1.81,6.67-2.8,10l-1.39,5c-.42,1.66-.88,3.31-1.34,5a177,177,0,0,0-4.37,20.12h-.19a75.3,75.3,0,0,1,2.5-20.64c.46-1.67.89-3.35,1.4-5l1.59-5c.56-1.64,1.11-3.27,1.7-4.9s1.24-3.23,1.86-4.84c1.25-3.22,2.44-6.46,3.42-9.76s1.67-6.7,2.44-10c.38-1.67.77-3.34,1.22-5s.76-3.33,1.18-5,.69-3.35,1.08-5,.62-3.38,1-5.08Z"/><path class="cls-4" d="M57.8,159.68a1.52,1.52,0,0,1-1.31-.75,1.49,1.49,0,0,1,0-1.51c1.67-3,7.28-13.08,9.32-19,2.45-7.06,1.89-14.53-1.74-23.52a94.12,94.12,0,0,1-3.68-11.79c-.19-.75-.45-1.6-.73-2.5-1-3.32-2.28-7.45-1.4-10.69a1,1,0,0,1,1.94.53c-.74,2.68.43,6.5,1.38,9.58.28.93.55,1.8.75,2.58a92.52,92.52,0,0,0,3.6,11.54c3.82,9.46,4.38,17.38,1.77,24.92-2,5.63-7,14.9-9.06,18.58l69.31,0c-3-3.74-10.07-13.08-12-19.5-2.75-9.33.39-19,3.43-28.34a112.24,112.24,0,0,0,3.27-11.39c.19-.91.44-1.85.7-2.85a23,23,0,0,0,1.13-6.69,1,1,0,0,1,.94-1.05,1,1,0,0,1,1.06.94,24.33,24.33,0,0,1-1.19,7.31c-.26,1-.5,1.89-.68,2.75a112,112,0,0,1-3.33,11.6c-2.94,9-6,18.42-3.41,27.16,1.94,6.58,9.86,16.66,12.25,19.6a1.51,1.51,0,0,1-1.18,2.46Z"/></svg>