<svg id="图层_1" data-name="图层 1" xmlns="http://www.w3.org/2000/svg" viewBox="0 0 186 186"><defs><style>.cls-1{fill:#f5e3ea;}.cls-2{fill:#5b3b2f;}.cls-3{fill:#e2c9d2;}.cls-4{fill:#fff;}</style></defs><path class="cls-1" d="M82.32,26.89h18c.59,0,1.58,3,1.6,3.5.39,7.68,4,10.89,11.21,15.47a20.47,20.47,0,0,0,7.8,3.06c2.81.43,5.52-.84,8.37-.25,7.19,1.5,14,8.82,13.11,15.84l-1.64,9.09C135.86,102.31,122,123.38,122,151.81l-60.63-.65c1-7.92-1.47-20.22-3-26.73-1.65-7.21-3.57-11.48-6-18.44-2.29-6.53-1.91-7.3-5.68-19.94-1-3.45-1.43-3.93-1.92-7.5s-.85-10.38-1-13.85c-.16-4.12.34-8.36,2.59-12,2-3.09,5.28-4.36,8.85-4.18s6.35,1.08,9.87-.26c2.82-1.08,4.6-2.6,7.15-4,4.29-2.45,9-5.73,9.9-9.9.17-.74-.28-7.46.66-7.46h17.39"/><path class="cls-2" d="M83,26.79c3.4-.38,6.81-.59,10.21-.69C95,26,96.65,26,98.35,26c.85,0,1.71,0,2.56,0h.33a1.05,1.05,0,0,1,.25.08,1.33,1.33,0,0,1,.64.77,4.84,4.84,0,0,1,.21.75A13.36,13.36,0,0,1,102.5,29c.07.86.07,1.77.09,2.58A13.25,13.25,0,0,0,102.9,34,11.28,11.28,0,0,0,105,38.46c2,2.68,5,4.48,7.91,6.14a31.59,31.59,0,0,0,4.48,2.22A18.38,18.38,0,0,0,122.07,48a23.32,23.32,0,0,0,4.87-.47,10.08,10.08,0,0,1,2.8,0,12.24,12.24,0,0,1,2.69.73,16.64,16.64,0,0,1,7.9,7.11,14.45,14.45,0,0,1,1.93,10.12l-.2,0A15.51,15.51,0,0,0,139,56.23a16.5,16.5,0,0,0-7.35-6,11,11,0,0,0-2.22-.62,10.9,10.9,0,0,0-2.29,0,24.3,24.3,0,0,1-5.29.26,21.35,21.35,0,0,1-9.54-4.32,36.74,36.74,0,0,1-7.8-6.72A15.82,15.82,0,0,1,102,34.27a13.27,13.27,0,0,1-.61-2.58c-.11-.89-.21-1.67-.37-2.5-.08-.4-.17-.8-.27-1.17a3,3,0,0,0-.16-.46c0-.06-.07-.09,0,0a.8.8,0,0,0,.34.16h-.07c-.85,0-1.7,0-2.55,0-1.7,0-3.39,0-5.09-.1-3.4-.11-6.8-.32-10.2-.7Z"/><path class="cls-2" d="M100.92,27c-3.45.35-6.89.55-10.34.67-1.72.05-3.44.09-5.16.11H83.54l.14,0c.34-.11.28-.18.28-.15a1.55,1.55,0,0,0-.08.15A15.53,15.53,0,0,0,83.2,30l-.57,2.48c-.19.86-.32,1.65-.56,2.57a11.28,11.28,0,0,1-2.78,4.57,29.76,29.76,0,0,1-4,3.35c-1.43,1-2.76,2.06-4.14,3.13A22,22,0,0,1,66.63,49,12.23,12.23,0,0,1,61.2,50c-1.82,0-3.52-.3-5.17-.39a10.69,10.69,0,0,0-4.59.68c-2.87,1.16-4.83,4-5.88,7.15a24.54,24.54,0,0,0-1.15,4.91A36.17,36.17,0,0,0,44,67.47l-.2,0A26.52,26.52,0,0,1,44.18,57a15.24,15.24,0,0,1,2.17-5,10.31,10.31,0,0,1,4.28-3.63,11.76,11.76,0,0,1,5.52-.93c1.79.09,3.5.41,5.12.5a10.61,10.61,0,0,0,4.66-.74,38.07,38.07,0,0,0,4.52-2.17c3-1.71,6.1-3.35,8.35-5.88a9.08,9.08,0,0,0,2.14-4.4c.21-1.6.32-3.41.62-5.12A11.87,11.87,0,0,1,82.28,27a2.93,2.93,0,0,1,.23-.41,1.3,1.3,0,0,1,.77-.56.78.78,0,0,1,.22,0h.62l1.3,0c1.72,0,3.44.05,5.16.11,3.45.11,6.89.31,10.34.66Z"/><path class="cls-2" d="M61.37,152.15a54.31,54.31,0,0,0-.32-10.36c-.37-3.43-.9-6.84-1.53-10.23a178.64,178.64,0,0,0-5.46-20C52,105,49.59,98.46,47.71,91.75c-1-3.35-1.79-6.75-2.46-10.17a85.78,85.78,0,0,1-1.42-10.33c.52,3.43,1.2,6.84,2,10.2s1.85,6.67,2.92,10C51,98,53.42,104.48,55.8,111a114.6,114.6,0,0,1,5.45,20.23,83.51,83.51,0,0,1,1,10.45,51,51,0,0,1-.09,5.25A28.24,28.24,0,0,1,61.37,152.15Z"/><path class="cls-2" d="M141.42,67.49c0,1.81-.07,3.63-.17,5.45s-.41,3.62-.68,5.42-.67,3.57-1.06,5.35-.89,3.52-1.42,5.26l-1.78,5.14c-.64,1.7-1.27,3.4-1.84,5.12-1.19,3.41-2.19,6.88-3.17,10.37-.48,1.74-.92,3.49-1.44,5.22s-1,3.48-1.46,5.21l-1.4,5.21-1.31,5.22A136,136,0,0,0,122,151.67h-.2a71.13,71.13,0,0,1,1.87-21.7c.45-1.76.88-3.53,1.38-5.28l1.6-5.2c1.12-3.45,2.35-6.86,3.66-10.23s2.54-6.77,3.59-10.23,1.8-7,2.64-10.5c.4-1.75.82-3.5,1.3-5.23s.82-3.5,1.26-5.24.73-3.51,1.14-5.27.64-3.54,1-5.32Z"/><path class="cls-3" d="M73.4,65.45A20.92,20.92,0,0,1,79.21,80c0,.67-.08,1.35-.11,2a13.65,13.65,0,0,1-.26,2c-.15.66-.23,1.35-.44,2S78,87.33,77.71,88a11.35,11.35,0,0,1-.87,1.83c-.33.59-.64,1.18-1,1.76a38.17,38.17,0,0,1-2.45,3.17.07.07,0,0,1-.1,0,.07.07,0,0,1,0-.09h0c.51-1.24,1.09-2.42,1.64-3.59.23-.61.48-1.21.72-1.81a14.41,14.41,0,0,0,.67-1.8c.19-.61.38-1.22.59-1.83s.32-1.23.48-1.85a10.73,10.73,0,0,0,.4-1.87c.07-.63.19-1.27.22-1.91a20.45,20.45,0,0,0-1-7.6,19.86,19.86,0,0,0-3.71-6.83h0a.09.09,0,0,1,0-.11A.08.08,0,0,1,73.4,65.45Z"/><path class="cls-3" d="M110.36,65.55a19.86,19.86,0,0,0-3.71,6.83,20.67,20.67,0,0,0-1,7.6c0,.64.16,1.28.23,1.91a10.73,10.73,0,0,0,.4,1.87c.16.62.26,1.25.48,1.85s.4,1.22.59,1.83a11.82,11.82,0,0,0,.67,1.8c.24.6.49,1.2.71,1.81.56,1.17,1.14,2.35,1.65,3.59h0a.07.07,0,0,1,0,.1.06.06,0,0,1-.08,0,36.13,36.13,0,0,1-2.45-3.17c-.34-.58-.66-1.17-1-1.76A12.21,12.21,0,0,1,106,88c-.24-.63-.48-1.27-.69-1.91a19.07,19.07,0,0,1-.44-2,11.41,11.41,0,0,1-.26-2c0-.68-.11-1.36-.11-2a21,21,0,0,1,5.8-14.57.08.08,0,0,1,.11,0,.07.07,0,0,1,0,.1Z"/><path class="cls-2" d="M57.65,49c.08,4.32.24,8.64.45,12.95s.43,8.62.74,12.91.9,8.57,1.24,12.84a85.13,85.13,0,0,0,1.81,12.71h0a.1.1,0,0,1-.18.07c-.25-.48-.5-1-.73-1.47a12.56,12.56,0,0,1-.64-1.52,31.74,31.74,0,0,1-1-3.15c-.26-1.06-.53-2.12-.73-3.19L58.1,88a117.67,117.67,0,0,1-.84-13q-.18-6.49-.15-13t.34-13a.09.09,0,0,1,.1-.09A.1.1,0,0,1,57.65,49Z"/><path class="cls-2" d="M126.89,49c.21,4.49.31,9,.36,13.48s-.09,9-.27,13.49a105.36,105.36,0,0,1-1.14,13.49,44,44,0,0,1-3.89,13,.1.1,0,0,1-.19-.07,106.33,106.33,0,0,0,2.12-13.2c.47-4.43,1.15-8.85,1.51-13.31s.67-8.93.86-13.41.39-9,.44-13.46a.09.09,0,0,1,.1-.09A.11.11,0,0,1,126.89,49Z"/><path class="cls-2" d="M65.91,48.27c1.73,5.85,3.74,11.61,5.93,17.3s4.55,11.3,7.22,16.75a153.75,153.75,0,0,0,9,15.74c3.33,5,7,9.84,11.87,13.55a.11.11,0,0,1,0,.14.11.11,0,0,1-.13,0l-2-1.14-1.91-1.32a42.21,42.21,0,0,1-3.49-3.06,53.93,53.93,0,0,1-6-7.08A94.77,94.77,0,0,1,77.62,83c-2.51-5.6-4.73-11.31-6.71-17.1s-3.72-11.65-5.19-17.58a.11.11,0,0,1,.07-.12A.1.1,0,0,1,65.91,48.27Z"/><path class="cls-2" d="M121.07,49c-1.42,5.71-3.14,11.33-5,16.91s-4.12,11-6.58,16.4c-1.24,2.68-2.55,5.33-4,7.94-.74,1.28-1.45,2.58-2.25,3.83s-1.65,2.47-2.51,3.69a50.73,50.73,0,0,1-5.88,6.72,40.56,40.56,0,0,1-3.41,2.88c-.62.42-1.23.85-1.85,1.25s-1.29.74-1.94,1.09a.11.11,0,0,1-.14,0,.12.12,0,0,1,0-.13A55.15,55.15,0,0,0,99.11,96.57a142.65,142.65,0,0,0,8.9-15c2.63-5.22,5-10.59,7.09-16.06s4.1-11,5.78-16.61a.09.09,0,0,1,.12-.07A.1.1,0,0,1,121.07,49Z"/><path class="cls-4" d="M129.72,87.82a.52.52,0,0,1,.82.54c-.37,1.47-.75,2.93-1.14,4.39-4,14.91-8.76,28.52-9.31,31.43-1.41,7.49-1.25,15.78,2.37,22.66.39.74,1.38,2.81,2.6,5a69.82,69.82,0,0,0,4.32,6.31.51.51,0,0,1-.41.82H56.9a.52.52,0,0,1-.39-.85c4.54-5.1,8.8-21.18,9.14-22.49l0-.16C68.31,121,61,107.8,56.94,94.32c-.22-.75-.77-2.93-1.44-5.95a.52.52,0,0,1,.82-.52c2.59,1.94,8.6,4.82,10.58,5.86,10.62,5.56,22,9.23,34,7.24a55.42,55.42,0,0,0,15.72-5.28A120.6,120.6,0,0,0,129.72,87.82Z"/><path class="cls-2" d="M129,160H56.9a1.53,1.53,0,0,1-1.38-.89,1.49,1.49,0,0,1,.25-1.61c4.44-5,8.73-21.38,8.91-22.08,2-10.83-1.74-21.06-5.32-30.95C58.19,101.25,57,97.92,56,94.61c-.23-.77-.79-3-1.46-6a1.51,1.51,0,0,1,2.38-1.53,74.54,74.54,0,0,0,8.89,5l1.56.8c12.53,6.56,23.15,8.83,33.42,7.14a54.34,54.34,0,0,0,15.43-5.19A120.94,120.94,0,0,0,129.12,87h0a1.47,1.47,0,0,1,1.74-.07,1.49,1.49,0,0,1,.64,1.63c-.37,1.48-.75,3-1.14,4.4-2.32,8.65-4.88,16.82-6.75,22.79-1.3,4.14-2.32,7.4-2.54,8.57-1.12,5.94-1.64,14.58,2.27,22l.51,1c.5,1,1.24,2.47,2.08,4a68.4,68.4,0,0,0,4.25,6.18A1.51,1.51,0,0,1,129,160Zm-71.06-2H128a59.55,59.55,0,0,1-3.83-5.65c-.86-1.57-1.61-3.08-2.11-4.07-.22-.43-.38-.77-.5-1-4.18-7.94-3.64-17.06-2.46-23.31.24-1.28,1.23-4.43,2.59-8.79,1.87-6,4.42-14.11,6.73-22.71l.81-3.09a138.45,138.45,0,0,1-12.15,7.16,56.22,56.22,0,0,1-16,5.37c-10.71,1.76-21.73-.57-34.66-7.34l-1.54-.78c-2.26-1.14-5.83-3-8.16-4.46.54,2.36,1,4.05,1.16,4.69,1,3.25,2.17,6.56,3.33,9.75,3.67,10.14,7.47,20.62,5.43,31.9,0,.07,0,.15,0,.22C66.16,137.63,62.31,152.11,57.91,158Z"/></svg>