<svg id="图层_1" data-name="图层 1" xmlns="http://www.w3.org/2000/svg" viewBox="0 0 186 186"><defs><style>.cls-1{fill:none;}.cls-2{fill:#f5e3ea;}.cls-3{fill:#5b3b2f;}.cls-4{fill:#e2c9d2;}.cls-5{fill:#fff;}</style></defs><rect class="cls-1" width="186" height="186"/><path class="cls-2" d="M82.32,26.89h18c.59,0,1.58,3,1.6,3.5.39,7.68,4,10.89,11.21,15.47a20.47,20.47,0,0,0,7.8,3.06c2.81.43,5.52-.84,8.38-.25,7.18,1.5,14,8.82,13.1,15.84l-1.64,9.1c-4.95,28.7-18.81,49.77-18.81,78.2l-60.63-.65c1-7.92-1.47-20.22-3-26.73-1.65-7.21-3.57-11.48-6-18.44-2.29-6.53-1.9-7.3-5.68-19.94-1-3.45-1.43-3.93-1.92-7.5s-.85-10.38-1-13.85c-.16-4.12.34-8.36,2.59-12,2-3.09,5.29-4.36,8.85-4.18s6.35,1.08,9.87-.26c2.83-1.08,4.6-2.6,7.15-4,4.3-2.45,9-5.73,9.9-9.9.17-.74-.28-7.46.66-7.46h17.39"/><path class="cls-3" d="M83,26.79c3.4-.38,6.81-.58,10.21-.69C95,26,96.65,26,98.35,26c.85,0,1.71,0,2.56,0h.33a1,1,0,0,1,.25.09,1,1,0,0,1,.29.2,1.57,1.57,0,0,1,.35.56,4.84,4.84,0,0,1,.21.75A11,11,0,0,1,102.5,29c.07.86.07,1.77.09,2.58A13.25,13.25,0,0,0,102.9,34,11.35,11.35,0,0,0,105,38.46c2,2.68,5,4.48,7.91,6.14a31.59,31.59,0,0,0,4.48,2.22A18,18,0,0,0,122.07,48a23.32,23.32,0,0,0,4.87-.47,10.09,10.09,0,0,1,2.8,0,12.24,12.24,0,0,1,2.69.73,16.64,16.64,0,0,1,7.9,7.11,14.45,14.45,0,0,1,1.93,10.12l-.2,0A15.51,15.51,0,0,0,139,56.23a16.5,16.5,0,0,0-7.35-6,11,11,0,0,0-2.22-.62,10.9,10.9,0,0,0-2.29,0,24.3,24.3,0,0,1-5.29.26,21.24,21.24,0,0,1-9.54-4.32,36.18,36.18,0,0,1-7.8-6.72A15.82,15.82,0,0,1,102,34.27a13.27,13.27,0,0,1-.61-2.58c-.11-.89-.21-1.67-.37-2.5-.08-.4-.17-.8-.27-1.17a3.41,3.41,0,0,0-.16-.46s-.07-.09,0,0a.68.68,0,0,0,.16.11.78.78,0,0,0,.18,0h-.07c-.85,0-1.7,0-2.55,0-1.69,0-3.39,0-5.09-.1-3.4-.11-6.8-.31-10.2-.7Z"/><path class="cls-3" d="M100.92,27c-3.45.35-6.89.56-10.34.67-1.72.06-3.44.1-5.16.11l-1.29,0h-.45c.34-.12.28-.19.29-.16a1.13,1.13,0,0,0-.09.15A16.85,16.85,0,0,0,83.2,30l-.57,2.48c-.19.86-.31,1.65-.56,2.57a11.21,11.21,0,0,1-2.78,4.57,28.46,28.46,0,0,1-4,3.35c-1.42,1-2.75,2.06-4.13,3.13A22.06,22.06,0,0,1,66.63,49,12.24,12.24,0,0,1,61.2,50c-1.82,0-3.52-.3-5.17-.39a10.69,10.69,0,0,0-4.59.68c-2.87,1.15-4.83,4-5.87,7.14a23.89,23.89,0,0,0-1.16,4.91A37.71,37.71,0,0,0,44,67.47l-.2,0A26.7,26.7,0,0,1,44.17,57a15.48,15.48,0,0,1,2.18-5,10.31,10.31,0,0,1,4.28-3.63,11.64,11.64,0,0,1,5.52-.93c1.79.09,3.5.41,5.12.49a10.6,10.6,0,0,0,4.66-.73,39.72,39.72,0,0,0,4.52-2.18c3-1.7,6.1-3.34,8.35-5.87a9.08,9.08,0,0,0,2.14-4.4c.21-1.6.32-3.41.62-5.12A11.87,11.87,0,0,1,82.28,27a2.59,2.59,0,0,1,.23-.42,1.34,1.34,0,0,1,.77-.56l.22,0h.63l1.29,0c1.72,0,3.44.05,5.16.11,3.45.11,6.89.31,10.34.66Z"/><path class="cls-3" d="M61.37,152.15a54.31,54.31,0,0,0-.32-10.36c-.37-3.43-.9-6.84-1.53-10.23a178.64,178.64,0,0,0-5.46-20C52,105,49.59,98.46,47.71,91.75c-1-3.35-1.79-6.75-2.46-10.17a85.78,85.78,0,0,1-1.42-10.33c.52,3.43,1.2,6.84,2,10.2s1.85,6.67,2.92,10C51,98,53.42,104.48,55.8,111a114.6,114.6,0,0,1,5.45,20.23,83.5,83.5,0,0,1,1,10.46,50.9,50.9,0,0,1-.09,5.24A27.41,27.41,0,0,1,61.37,152.15Z"/><path class="cls-3" d="M141.42,67.49c0,1.81-.07,3.63-.17,5.45s-.41,3.62-.68,5.42-.67,3.57-1.06,5.35-.89,3.52-1.42,5.26l-1.78,5.14c-.64,1.7-1.27,3.4-1.84,5.12-1.19,3.41-2.19,6.88-3.16,10.37-.49,1.74-.93,3.49-1.44,5.22s-1,3.48-1.47,5.21l-1.4,5.21-1.31,5.22A136,136,0,0,0,122,151.67h-.2a71.13,71.13,0,0,1,1.87-21.7c.45-1.76.88-3.53,1.38-5.28l1.6-5.2c1.12-3.45,2.35-6.86,3.66-10.23s2.55-6.77,3.59-10.23,1.8-7,2.64-10.5c.4-1.75.82-3.5,1.3-5.23s.82-3.5,1.26-5.24.73-3.51,1.14-5.27.64-3.54,1-5.32Z"/><path class="cls-4" d="M73.4,65.45A20.92,20.92,0,0,1,79.21,80c0,.67-.08,1.35-.11,2a13.48,13.48,0,0,1-.26,2c-.15.66-.23,1.35-.44,2S78,87.33,77.71,88a11.35,11.35,0,0,1-.87,1.83c-.33.59-.64,1.18-1,1.76a38.17,38.17,0,0,1-2.45,3.17.07.07,0,0,1-.1,0,.06.06,0,0,1,0-.08h0c.51-1.24,1.09-2.41,1.64-3.59.23-.61.48-1.21.72-1.81a13,13,0,0,0,.67-1.8c.19-.61.38-1.22.59-1.83s.32-1.23.48-1.85a10.73,10.73,0,0,0,.4-1.87c.07-.63.19-1.27.23-1.91a20.7,20.7,0,0,0-1-7.6,19.86,19.86,0,0,0-3.71-6.83h0a.09.09,0,0,1,0-.11A.08.08,0,0,1,73.4,65.45Z"/><path class="cls-4" d="M110.36,65.55a19.86,19.86,0,0,0-3.71,6.83,20.7,20.7,0,0,0-1,7.6c0,.64.16,1.28.23,1.91a10.73,10.73,0,0,0,.4,1.87c.16.62.26,1.25.48,1.85s.4,1.22.59,1.83a11.82,11.82,0,0,0,.67,1.8c.24.6.49,1.2.71,1.81.56,1.18,1.14,2.35,1.65,3.59h0a.07.07,0,0,1,0,.1.05.05,0,0,1-.08,0,36.13,36.13,0,0,1-2.45-3.17c-.34-.58-.66-1.17-1-1.76A12.21,12.21,0,0,1,106,88c-.24-.63-.47-1.27-.69-1.91s-.29-1.33-.44-2a11.29,11.29,0,0,1-.26-2c0-.68-.11-1.36-.11-2a21,21,0,0,1,5.8-14.57.08.08,0,0,1,.11,0,.07.07,0,0,1,0,.1Z"/><path class="cls-5" d="M125.06,151.88c-1.22-2.23-2.21-4.3-2.6-5-3.62-6.88-3.78-15.17-2.37-22.66,1.66-8.77,5.26-17,7.87-25.51,2.79-9.09,3.82-18.57,4.93-28,.56-4.71,1.24-9.38,2-14.06.47-3.13.88-5.85-2.68-7.18-3.23-1.2-5.22.42-5.64,3.7C124.3,70.94,121,90,107.67,103.35c-5.19,6.08-13.41,10.37-15,11.14a.54.54,0,0,1-.57-.07c-.53-.44-1.53-1.48-1.63-1.58-1.74-1.63-3.43-3.32-5.07-5A126.53,126.53,0,0,1,71.22,90c-6.85-10.47-12-22.18-11.95-34.9,0-2.69,0-6.33-3.29-6.88-2.83-.48-5.55,2.38-5.33,5.13C51.77,67.1,52.94,81,57,94.33,61,107.82,68.34,121,65.67,135.59v0c-.1.39-4.46,17.27-9.14,22.54a.52.52,0,0,0,.4.86h71.2a.52.52,0,0,0,.42-.81C127.39,156.59,126.14,153.86,125.06,151.88Z"/><path class="cls-3" d="M127.73,158.78h0ZM57.91,158h69.31c-.67-1.07-1.34-2.39-2-3.67-.36-.7-.7-1.38-1-2h0c-.86-1.57-1.61-3.08-2.11-4.07-.22-.43-.38-.77-.5-1-4.17-7.94-3.64-17.06-2.46-23.31a119.3,119.3,0,0,1,5-17.12c1-2.78,2-5.65,2.85-8.49,2.63-8.56,3.7-17.64,4.73-26.42l.17-1.38c.61-5.13,1.36-10.23,2-14.09.51-3.41.64-5.09-2.05-6.1a3.24,3.24,0,0,0-2.85,0,3.92,3.92,0,0,0-1.45,2.9c-2.29,18.3-5.66,37.29-19.14,50.77-5.25,6.16-13.59,10.51-15.21,11.32a1.49,1.49,0,0,1-1.64-.19c-.46-.37-1.15-1.07-1.52-1.45l-.17-.17c-1.67-1.57-3.34-3.23-5.1-5.09a128,128,0,0,1-14.34-18C62.16,78,58.2,66.35,58.28,55.06c0-3.1-.15-5.51-2.47-5.89a3.34,3.34,0,0,0-2.81,1,3.94,3.94,0,0,0-1.36,3.11C52.73,66.72,53.86,80.65,57.9,94c1,3.25,2.17,6.56,3.33,9.75,3.68,10.17,7.48,20.68,5.41,32a.43.43,0,0,1,0,.11C66.45,136.54,62.48,151.89,57.91,158Zm70.21,2H56.92a1.51,1.51,0,0,1-1.38-.9,1.47,1.47,0,0,1,.24-1.61c4.52-5.1,8.88-22,8.92-22.12,2-10.73-1.75-21-5.34-30.9C58.2,101.25,57,97.92,56,94.61,51.9,81,50.71,66.35,49.66,53.4a5.9,5.9,0,0,1,2-4.73,5.37,5.37,0,0,1,4.49-1.46c4.17.7,4.14,5.18,4.12,7.86C60.19,66,64,77.2,72.05,89.43a126.74,126.74,0,0,0,14.12,17.68c1.74,1.82,3.38,3.46,5,5l.22.23c.24.25.76.77,1.14,1.12,2.07-1.06,9.55-5.13,14.35-10.75C120,89.61,123.29,71,125.54,53a5.63,5.63,0,0,1,2.4-4.35,5.05,5.05,0,0,1,4.57-.15c4.32,1.61,3.78,5.14,3.31,8.26-.58,3.85-1.33,8.92-1.94,14l-.16,1.38c-1.05,8.87-2.13,18-4.81,26.77-.89,2.88-1.9,5.77-2.87,8.57a118.35,118.35,0,0,0-5,16.83c-1.12,5.94-1.64,14.58,2.27,22l.51,1c.5,1,1.24,2.47,2.08,4h0c.34.62.69,1.31,1.06,2a35,35,0,0,0,2.36,4.19,1.51,1.51,0,0,1,.11,1.56A1.49,1.49,0,0,1,128.12,160Z"/></svg>