<svg t="1671695885533" class="icon" viewBox="0 0 1024 1024" version="1.1" xmlns="http://www.w3.org/2000/svg" p-id="7700"
  width="200" height="200">
  <path
    d="M489.714 388.365c0 56.246-45.635 101.881-101.881 101.881h-251.51c-56.245-0.531-101.881-46.166-101.881-101.881v-252.043c0-56.245 45.635-101.882 101.881-101.882h251.51c56.245 0 101.881 45.636 101.881 101.882v252.043zM431.342 136.323c0-23.881-19.099-42.983-42.978-42.983h-252.043c-23.879 0-42.982 19.103-42.982 42.983v252.042c0 23.881 19.103 42.978 42.982 42.978h251.51c23.879 0 42.982-19.098 42.982-42.978v-252.042h0.527zM151.711 269.506c-7.959 0-14.857-6.366-14.857-14.858v-26.53c0-40.858 27.057-76.407 64.731-76.407h91.802c7.954 0 14.855 6.367 14.855 14.858 0 7.956-6.368 14.858-14.855 14.858h-91.801c-22.816 0-35.018 25.468-35.018 47.222v26.533c0 7.959-6.371 14.325-14.858 14.325v0 0zM146.402 319.915c-3.713 0-7.428-1.589-10.611-4.241-2.652-2.658-4.246-6.901-4.246-10.619 0-3.714 1.595-7.429 4.246-10.612 5.302-5.301 15.389-5.301 20.691 0 2.658 2.658 4.247 6.37 4.247 10.612 0 3.715-1.589 7.43-4.247 10.085-2.653 3.184-6.366 4.773-10.080 4.773v0 0zM989.557 388.365c0 56.246-45.635 101.881-101.879 101.881h-252.045c-56.246 0-101.879-45.634-101.879-101.881v-252.043c0-56.245 45.633-101.882 101.879-101.882h252.044c56.244 0 101.879 45.636 101.879 101.882v252.043h0.001zM930.656 136.323c0-23.881-19.099-42.983-42.978-42.983h-252.045c-23.877 0-42.983 19.103-42.983 42.983v252.042c0 23.881 19.106 42.978 42.983 42.978h252.044c23.879 0 42.978-19.098 42.978-42.978v-252.042h0.001zM489.714 887.679c0 56.243-45.635 101.878-101.881 101.878h-251.51c-56.245 0-101.881-45.635-101.881-101.878v-252.045c0-56.246 45.635-101.881 101.881-101.881h251.51c56.245 0 101.881 45.634 101.881 101.881v252.045zM431.342 635.635c0-23.881-19.099-42.983-42.978-42.983h-252.043c-23.879 0-42.982 19.103-42.982 42.983v252.045c0 23.878 19.103 42.977 42.982 42.977h251.51c23.879 0 42.982-19.099 42.982-42.977v-252.045h0.527zM989.557 887.679c0 56.243-45.635 101.878-101.879 101.878h-252.045c-56.246 0-101.879-45.635-101.879-101.878v-252.045c0-56.246 45.633-101.881 101.879-101.881h252.044c56.244 0 101.879 45.634 101.879 101.881v252.045h0.001zM930.656 635.635c0-23.881-19.099-42.983-42.978-42.983h-252.045c-23.877 0-42.983 19.103-42.983 42.983v252.045c0 23.878 19.106 42.977 42.983 42.977h252.044c23.879 0 42.978-19.099 42.978-42.977v-252.045h0.001zM930.656 635.635z"
    fill="#272636" p-id="7701"></path>
</svg>