<?xml version="1.0" standalone="no"?><!DOCTYPE svg PUBLIC "-//W3C//DTD SVG 1.1//EN" "http://www.w3.org/Graphics/SVG/1.1/DTD/svg11.dtd"><svg class="icon" width="200px" height="147.87px" viewBox="0 0 1385 1024" version="1.1" xmlns="http://www.w3.org/2000/svg"><path fill="#333333" d="M689.551244 958.933248a26.197929 26.197929 0 0 1-24.828103-27.396528V93.031757a24.999331 24.999331 0 1 1 49.656205 0v837.991279A26.197929 26.197929 0 0 1 689.551244 958.933248zM403.771218 1012.014019a213.179228 213.179228 0 0 1-132.017015-380.469272 2.739653 2.739653 0 0 0 1.027369-2.910881 2.910881 2.910881 0 0 0-2.397196-2.05474A308.210932 308.210932 0 1 1 616.436761 320.594162v478.240629A213.350456 213.350456 0 0 1 403.771218 1012.014019zM308.22583 63.238034a256.842443 256.842443 0 0 0-31.848463 512.657517 53.252 53.252 0 0 1 45.375498 39.211279 53.936913 53.936913 0 0 1-18.492656 56.676566A161.981968 161.981968 0 1 0 565.068273 798.834791V320.594162A256.842443 256.842443 0 0 0 308.22583 63.238034zM755.474137 395.420927v-80.819755c0-7.705273 0-15.924231 1.02737-23.629505a23.11582 23.11582 0 0 1 9.246328-17.122829 24.14319 24.14319 0 0 1 17.978971-6.164219 26.711614 26.711614 0 0 1 17.12283 8.561415 27.567756 27.567756 0 0 1 5.99299 18.492656c0 6.677904-1.02737 13.355807-1.02737 20.03371v80.819756a24.999331 24.999331 0 0 1-24.999331 25.170559 25.341788 25.341788 0 0 1-25.341788-25.341788zM755.474137 600.894882v-102.736977a25.341788 25.341788 0 0 1 25.684245-25.17056 24.999331 24.999331 0 0 1 24.999331 25.17056v102.736977a24.999331 24.999331 0 0 1-24.999331 25.170559 25.341788 25.341788 0 0 1-25.684245-25.170559zM781.158382 833.422907a23.800733 23.800733 0 0 1-25.17056-22.430907v-107.702597a25.341788 25.341788 0 1 1 51.368489 0v102.736977a27.738984 27.738984 0 0 1-26.197929 27.396527zM784.240491 183.440298a317.970945 317.970945 0 0 1 63.012013-91.093454 25.513016 25.513016 0 0 1 35.786713 0 24.999331 24.999331 0 0 1 0 35.786714 255.815073 255.815073 0 0 0-53.251999 76.36782 25.170559 25.170559 0 0 1-23.11582 14.725633 26.026701 26.026701 0 0 1-10.616155-2.054739 24.999331 24.999331 0 0 1-11.814752-33.731974zM907.524864 968.693261a23.458276 23.458276 0 0 1-2.05474 19.520025 25.341788 25.341788 0 0 1-22.08845 13.698264 23.800733 23.800733 0 0 1-11.814752-3.082109 215.747652 215.747652 0 0 1-83.901865-78.251331 25.170559 25.170559 0 0 1 8.218958-34.24566 24.14319 24.14319 0 0 1 18.835113-3.082109 25.684244 25.684244 0 0 1 15.924231 11.301068 164.72162 164.72162 0 0 0 64.553067 59.929903 25.170559 25.170559 0 0 1 12.328438 14.211949zM958.893352 74.367873a24.999331 24.999331 0 0 1-34.245659-12.328437 26.197929 26.197929 0 0 1 12.328438-34.245659A312.491639 312.491639 0 0 1 1045.363642 0.054793a25.684244 25.684244 0 0 1 27.225299 23.11582 26.026701 26.026701 0 0 1-5.650534 18.321428 26.026701 26.026701 0 0 1-17.12283 8.732643A263.520347 263.520347 0 0 0 958.893352 74.367873zM1100.327924 952.769029a25.855473 25.855473 0 0 1-7.191588 35.444257 213.521684 213.521684 0 0 1-109.243653 35.273029h-1.027369a25.855473 25.855473 0 0 1-25.513016-24.656874 24.828103 24.828103 0 0 1 6.677903-17.12283 26.197929 26.197929 0 0 1 17.978971-8.732643 162.495652 162.495652 0 0 0 83.38818-27.225299 24.314418 24.314418 0 0 1 19.006341-3.938251 23.287048 23.287048 0 0 1 15.924231 10.958611zM1131.491474 721.268374a25.170559 25.170559 0 0 1-20.547395-10.787383 166.947588 166.947588 0 0 0-34.245659-35.786714 54.108141 54.108141 0 0 1-21.061081-42.978302 74.655537 74.655537 0 0 1 2.05474-14.383177 53.765685 53.765685 0 0 1 9.760013-19.520025 25.170559 25.170559 0 0 1 45.033041 13.355807 23.971961 23.971961 0 0 1-5.136848 18.492656 6.506675 6.506675 0 0 0 0 4.96562 237.664874 237.664874 0 0 1 44.1769 46.745325 22.602135 22.602135 0 0 1 4.109479 18.835112 24.656875 24.656875 0 0 1-10.273698 17.12283 25.513016 25.513016 0 0 1-13.869492 3.938251zM1385.594265 349.874201a318.313401 318.313401 0 0 1-31.848463 106.503999 25.513016 25.513016 0 0 1-22.430907 13.869492 23.458276 23.458276 0 0 1-11.814752-2.568424 25.341788 25.341788 0 0 1-11.301068-34.245659A262.492977 262.492977 0 0 0 1335.595602 344.223667a25.170559 25.170559 0 0 1 9.588785-17.12283 23.971961 23.971961 0 0 1 18.492656-5.136848 25.170559 25.170559 0 0 1 21.917222 27.910212zM1126.86831 47.142574a27.738984 27.738984 0 0 1-2.568424-19.348797 25.170559 25.170559 0 0 1 12.328437-14.896862A23.800733 23.800733 0 0 1 1156.148349 10.328491a316.42989 316.42989 0 0 1 99.826096 48.115151 25.513016 25.513016 0 0 1-14.896862 46.060411 24.828103 24.828103 0 0 1-14.896861-5.136849 273.965273 273.965273 0 0 0-83.901865-40.409877 23.629505 23.629505 0 0 1-15.410547-11.814753zM1190.907693 789.417235v17.12283a208.727292 208.727292 0 0 1-22.602135 95.716617 24.656875 24.656875 0 0 1-22.430907 14.383177 27.910212 27.910212 0 0 1-11.301068-2.568425 25.855473 25.855473 0 0 1-11.301067-34.245659 164.72162 164.72162 0 0 0 17.12283-73.628167 98.969955 98.969955 0 0 0 0-12.328437 25.684244 25.684244 0 0 1 23.971961-27.567756 24.656875 24.656875 0 0 1 26.540386 23.11582zM1291.247474 166.488696a24.656875 24.656875 0 0 1-4.109479-18.835112 25.341788 25.341788 0 0 1 10.787382-17.12283 25.341788 25.341788 0 0 1 35.444258 6.677904A329.956925 329.956925 0 0 1 1378.402676 239.774407a25.513016 25.513016 0 0 1-18.492656 30.821093 25.855473 25.855473 0 0 1-6.164218 1.02737 25.170559 25.170559 0 0 1-24.485647-19.520026 275.506327 275.506327 0 0 0-38.012681-85.614148zM1288.165365 509.801429a25.170559 25.170559 0 0 1-1.02737 35.786713 315.916205 315.916205 0 0 1-93.148193 60.443589 29.964952 29.964952 0 0 1-9.760013 2.054739 25.684244 25.684244 0 0 1-23.458276-35.273029 24.485646 24.485646 0 0 1 13.698263-13.355807 273.965273 273.965273 0 0 0 77.908875-51.368488 25.513016 25.513016 0 0 1 35.786714 1.712283z"  /></svg>