<?xml version="1.0" standalone="no"?><!DOCTYPE svg PUBLIC "-//W3C//DTD SVG 1.1//EN" "http://www.w3.org/Graphics/SVG/1.1/DTD/svg11.dtd"><svg class="icon" width="200px" height="159.88px" viewBox="0 0 1281 1024" version="1.1" xmlns="http://www.w3.org/2000/svg"><path fill="#333333" d="M385.141994 391.831739a27.712126 27.712126 0 0 1-13.761804-3.581839l-45.998358-26.581019a41.285412 41.285412 0 0 1-22.433626-36.19543V154.299232a27.523608 27.523608 0 0 1 27.523608-27.523608 27.523608 27.523608 0 0 1 25.638429 17.720679l169.666077 97.840771a41.850966 41.850966 0 0 1 22.622143 36.195429 27.712126 27.712126 0 0 1-27.523608 27.523608 27.712126 27.712126 0 0 1-25.638429-17.909197L358.18394 208.969412v107.832218L398.903798 339.989327a27.523608 27.523608 0 0 1-13.761804 51.276858z"  /><path fill="#333333" d="M305.398938 766.605251a70.317163 70.317163 0 0 1-34.875805-8.671822L23.376215 615.225407A41.850966 41.850966 0 0 1 0 579.029977a41.47393 41.47393 0 0 1 22.433626-35.818394l455.270639-263.925008-152.699469-88.22636a40.908376 40.908376 0 0 1-21.679554-43.547626 50.145752 50.145752 0 0 1 47.317983-37.326537L1213.300966 0.657173a73.710484 73.710484 0 0 1 44.678734 8.106268 40.531341 40.531341 0 0 1 20.171411 49.957234L1093.403605 558.48153A47.506501 47.506501 0 0 1 1063.052229 585.062549a75.407145 75.407145 0 0 1-60.137198-4.524429L829.478597 481.566242a21.302519 21.302519 0 0 0-14.515875 0L340.274743 757.744911a68.620502 68.620502 0 0 1-34.875805 8.86034z m-234.516222-188.517863l227.164025 131.962504a18.851786 18.851786 0 0 0 14.515876 0L788.004667 434.248258a73.710484 73.710484 0 0 1 69.75161 0l172.682362 99.72595a21.302519 21.302519 0 0 0 12.442179 0.942589l177.583827-479.02389-834.945615 105.381486 140.634326 81.062681a42.228001 42.228001 0 0 1 22.622143 36.006911 41.850966 41.850966 0 0 1-22.433626 36.006912zM1230.456092 57.212532L1244.217896 33.270764z"  /><path fill="#333333" d="M303.136724 1023.932134h-4.712947a37.703573 37.703573 0 0 1-4.524429 0h-4.524428l-5.089983-1.319625-6.786643-3.958876a51.653894 51.653894 0 0 1-7.91775-3.958875l-247.146918-145.158754A42.039483 42.039483 0 0 1 0 833.152056V576.013691a27.523608 27.523608 0 0 1 28.277679-27.523608A27.712126 27.712126 0 0 1 56.555359 576.202209v248.466543l242.056936 142.330987-3.016286 28.089162 5.655536-27.146573h4.901464l8.294786 26.958055-5.089982-27.33509h1.885179l475.44205-281.834206a72.579377 72.579377 0 0 1 35.064323-8.860339 69.563091 69.563091 0 0 1 33.179144 7.91775l202.468184 85.210074 3.393322 1.696661-3.016286 28.089161 3.016286-15.081429V773.580412h4.524429v2.450732l1.319625 25.261393V773.580412h5.467018l150.81429-407.387102v-301.628581a27.712126 27.712126 0 0 1 0-13.007733 27.712126 27.712126 0 0 1 27.712126-24.69584 27.712126 27.712126 0 0 1 27.712126 27.712126v315.767421a34.310251 34.310251 0 0 1 0 6.032571c0 1.508143-1.319625 4.901464-1.885179 6.409608l-153.830576 414.739298a32.61359 32.61359 0 0 1-2.63925 5.844054 59.571645 59.571645 0 0 1-3.393322 5.089982 42.605037 42.605037 0 0 1-4.712946 5.2785 54.293145 54.293145 0 0 1-8.106268 6.22109l-2.073697 1.131107a58.440538 58.440538 0 0 1-10.745518 4.712947 68.80902 68.80902 0 0 1-9.425893 2.450732H1070.215908a39.211716 39.211716 0 0 1-4.712946 0h-13.950322l-5.2785-1.319625-6.22109-2.073697a47.695019 47.695019 0 0 1-6.221089-3.016286L832.117847 735.876839l-2.63925-2.262214a18.851786 18.851786 0 0 0-6.975161-1.319625 13.19625 13.19625 0 0 0-6.786643 1.319625L339.332153 1014.883276a70.882716 70.882716 0 0 1-12.065143 5.467018 66.16977 66.16977 0 0 1-9.237375 2.262215h-15.269947zM55.424252 833.152056z"  /></svg>