<?xml version="1.0" standalone="no"?><!DOCTYPE svg PUBLIC "-//W3C//DTD SVG 1.1//EN" "http://www.w3.org/Graphics/SVG/1.1/DTD/svg11.dtd"><svg class="icon" width="200px" height="175.79px" viewBox="0 0 1165 1024" version="1.1" xmlns="http://www.w3.org/2000/svg"><path fill="#333333" d="M1111.430491 1024H54.431858a54.431858 54.431858 0 0 1-47.117577-81.477687L535.813597 27.216609A53.921559 53.921559 0 0 1 582.931174 0.00068 53.751459 53.751459 0 0 1 629.368353 27.216609l529.009615 915.305704a54.431858 54.431858 0 0 1-46.947477 81.477687zM582.931174 51.030547a3.231892 3.231892 0 0 0-3.061792 1.700995L51.029866 968.037246a3.74219 3.74219 0 0 0 0 3.401992 3.401991 3.401991 0 0 0 3.061792 1.700995h1057.338833a3.061792 3.061792 0 0 0 2.891692-1.700995 2.891692 2.891692 0 0 0 0-3.401992L585.822867 52.561443a3.231892 3.231892 0 0 0-2.891693-1.530896z m-25.004634-11.226571z"  /><path fill="#333333" d="M375.579817 727.346377a25.344834 25.344834 0 0 1-21.092345-11.226571 25.685033 25.685033 0 0 1 6.803982-35.380707l204.119466-138.290939V322.169237a25.514933 25.514933 0 1 1 51.029866 0v233.716788a25.344834 25.344834 0 0 1-11.056471 21.092345L389.868179 722.923788a26.195331 26.195331 0 0 1-14.288362 4.422589z"  /><path fill="#333333" d="M790.112432 727.346377a26.195331 26.195331 0 0 1-14.968761-4.932888l-199.866977-145.945418a25.514933 25.514933 0 0 1 29.937522-41.164092l199.866977 145.945418a25.514933 25.514933 0 0 1-14.968761 46.09698z"  /></svg>