<svg t="1671518683282" class="icon" viewBox="0 0 1024 1024" version="1.1" xmlns="http://www.w3.org/2000/svg" p-id="1675"
  width="48" height="48">

  <title>ppt</title>
  <path
    d="M810.666667 896h-277.333334v-42.666667h256v-128h42.666667v149.333334c0 12.8-8.533333 21.333333-21.333333 21.333333zM832 298.666667h-42.666667V170.666667h-256V128H810.666667c12.8 0 21.333333 8.533333 21.333333 21.333333V298.666667z"
    p-id="1676" fill="#707070"></path>
  <path
    d="M533.333333 960h-8.533333l-320-115.2c-8.533333-4.266667-12.8-12.8-12.8-21.333333V725.333333h42.666667v85.333334l277.333333 98.133333v-179.2h42.666667V938.666667c0 8.533333-4.266667 12.8-8.533334 17.066666-4.266667 4.266667-8.533333 4.266667-12.8 4.266667zM554.666667 298.666667h-42.666667V115.2L234.666667 213.333333v85.333334h-42.666667V200.533333c0-8.533333 4.266667-17.066667 12.8-21.333333l320-115.2c8.533333-4.266667 12.8 0 21.333333 4.266667 4.266667 4.266667 8.533333 8.533333 8.533334 17.066666v213.333334z"
    p-id="1677" fill="#707070"></path>
  <path
    d="M896 746.666667H128c-34.133333 0-64-29.866667-64-64V341.333333c0-34.133333 29.866667-64 64-64h768c34.133333 0 64 29.866667 64 64v341.333334c0 34.133333-29.866667 64-64 64zM128 320c-12.8 0-21.333333 8.533333-21.333333 21.333333v341.333334c0 12.8 8.533333 21.333333 21.333333 21.333333h768c12.8 0 21.333333-8.533333 21.333333-21.333333V341.333333c0-12.8-8.533333-21.333333-21.333333-21.333333H128z"
    p-id="1678" fill="#707070"></path>
  <path
    d="M192 405.333333h42.666667v213.333334h-42.666667zM426.666667 405.333333h42.666666v213.333334h-42.666666zM725.333333 426.666667h42.666667v170.666666h-42.666667z"
    p-id="1679" fill="#707070"></path>
  <path
    d="M682.666667 405.333333h128v42.666667h-128zM277.333333 554.666667H213.333333v-42.666667h64c25.6 0 42.666667-17.066667 42.666667-42.666667s-17.066667-42.666667-42.666667-42.666666H213.333333V384h64c46.933333 0 85.333333 38.4 85.333334 85.333333s-38.4 85.333333-85.333334 85.333334zM512 554.666667h-64v-42.666667H512c25.6 0 42.666667-17.066667 42.666667-42.666667s-17.066667-42.666667-42.666667-42.666666h-64V384H512c46.933333 0 85.333333 38.4 85.333333 85.333333s-38.4 85.333333-85.333333 85.333334z"
    p-id="1680" fill="#707070"></path>
</svg>