<svg t="1671528939487" class="icon" viewBox="0 0 1024 1024" version="1.1" xmlns="http://www.w3.org/2000/svg" p-id="1254"
  width="200" height="200">
  <path
    d="M1003.402012 0h-982.904014C9.199102 0 0 9.199102 0 20.497998v798.62201c0 11.298897 9.199102 20.497998 20.497998 20.497998h982.904014c11.298897 0 20.497998-9.199102 20.497998-20.497998V20.497998c0-11.298897-9.199102-20.497998-20.497998-20.497998z"
    fill="#3F6AFF" p-id="1255"></path>
  <path d="M61.394004 61.394004h901.012011v655.336003H61.394004z" fill="#FFE900" p-id="1256"></path>
  <path
    d="M266.174006 225.278h491.452007v430.058002H266.174006zM798.62201 942.008007H225.278c-11.298897 0-20.497998 9.199102-20.497998 20.497998v40.995997c0 11.298897 9.199102 20.497998 20.497998 20.497998h573.34401c11.298897 0 20.497998-9.199102 20.497998-20.497998v-40.995997c0-11.398887-9.199102-20.497998-20.497998-20.497998z"
    fill="#3F6AFF" p-id="1257"></path>
  <path d="M880.514012 778.124011h40.995997v61.394005h-40.995997z" fill="#FFE900" p-id="1258"></path>
  <path d="M409.560004 839.618006h204.780002v102.390001H409.560004z" fill="#3F6AFF" p-id="1259"></path>
  <path d="M61.394004 655.336002h901.012011v61.394005H61.394004zM61.394004 61.394004h901.012011v122.888H61.394004z"
    fill="#333333" p-id="1260"></path>
  <path d="M81.892003 675.73401h40.995996v20.497999h-40.995996z" fill="#FFE900" p-id="1261"></path>
  <path d="M921.510009 61.394004h20.497998v20.497999h-20.497998z" fill="#3F6AFF" p-id="1262"></path>
  <path d="M61.394004 143.385997h20.497999v511.950005H61.394004zM942.008007 143.385997h20.497998v511.950005h-20.497998z"
    fill="#333333" p-id="1263"></path>
  <path
    d="M81.892003 81.892003h20.497998v20.497998H81.892003zM81.892003 122.887999h860.116004v61.394005H81.892003zM122.887999 81.892003h61.394005v40.995996h-61.394005zM204.780002 81.892003h20.497998v20.497998h-20.497998zM245.775998 81.892003h20.497999v20.497998h-20.497999zM286.672005 81.892003h20.497998v20.497998h-20.497998zM327.668001 81.892003h20.497998v20.497998h-20.497998zM368.564007 81.892003h20.497999v20.497998h-20.497999zM409.560004 81.892003h20.497998v20.497998h-20.497998z"
    fill="#3F6AFF" p-id="1264"></path>
  <path
    d="M327.668001 286.672005h368.564008v20.497998H327.668001zM327.668001 327.668001h245.775999v20.497998H327.668001zM327.668001 368.564007h143.385998v20.497999H327.668001zM327.668001 450.556h20.497998v20.497999h-20.497998zM327.668001 409.560004h245.775999v20.497998H327.668001z"
    fill="#FFE900" p-id="1265"></path>
</svg>