<svg id="图层_1" data-name="图层 1" xmlns="http://www.w3.org/2000/svg" viewBox="0 0 186 186"><defs><style>.cls-1{fill:#5b3b2f;}.cls-2{fill:#e4cbd4;}.cls-3{fill:#f4e2e9;}</style></defs><path class="cls-1" d="M55.54,74.73A5.7,5.7,0,0,1,58.77,78a12.75,12.75,0,0,1,.92,4.56,33.3,33.3,0,0,1-1.2,9.12,40.1,40.1,0,0,0-1.79,8.88,11.59,11.59,0,0,0,2.68,8.34,14.74,14.74,0,0,0,7.52,4.49,21.9,21.9,0,0,0,8.83.38,16.3,16.3,0,0,0,8-3.51,12.12,12.12,0,0,0,3.94-7.8h.1a11.75,11.75,0,0,1-3.51,8.36,16.24,16.24,0,0,1-8.36,4,21.15,21.15,0,0,1-9.26-.52A14.47,14.47,0,0,1,59,109.21a12.25,12.25,0,0,1-2.07-4.13,16.07,16.07,0,0,1-.54-4.57,47.51,47.51,0,0,1,1.34-9.06,43,43,0,0,0,1.23-8.92,12.92,12.92,0,0,0-.64-4.38,5.72,5.72,0,0,0-2.78-3.33Z"/><path class="cls-1" d="M128,74.81a12,12,0,0,0-2.74,8.29A48.13,48.13,0,0,0,126.88,92a35.66,35.66,0,0,1,1.19,9.09,14.73,14.73,0,0,1-3.22,8.51A15,15,0,0,1,117,114.4a22.08,22.08,0,0,1-9.26.42,16.66,16.66,0,0,1-8.36-4A10.41,10.41,0,0,1,96.76,107a9.74,9.74,0,0,1-.57-4.56h.1a9.89,9.89,0,0,0,.93,4.35,10.4,10.4,0,0,0,2.71,3.46,16.74,16.74,0,0,0,8,3.53,22.68,22.68,0,0,0,8.84-.28,15.34,15.34,0,0,0,7.65-4.29,11.43,11.43,0,0,0,2.38-3.77,13,13,0,0,0,.92-4.39c0-3-.85-6-1.66-8.87a36.65,36.65,0,0,1-1.62-9q0-.59.06-1.17a6.46,6.46,0,0,1,.15-1.16l.25-1.15c.1-.37.26-.73.39-1.1a9.65,9.65,0,0,1,1.1-2.05,19.12,19.12,0,0,1,1.49-1.75Z"/><path class="cls-1" d="M102.75,58.94a9.33,9.33,0,0,1,6.33-3.66,17.59,17.59,0,0,1,7.49.52c2.45.75,4.61,2,6.91,2.71a6.25,6.25,0,0,0,3.35.21,4.58,4.58,0,0,0,2.51-1.91h0a.75.75,0,0,1,1.23.87l0,0A6,6,0,0,1,127.13,60a7.51,7.51,0,0,1-4-.41c-2.43-.86-4.53-2.26-6.8-3.07a17.11,17.11,0,0,0-7.21-.87A9.15,9.15,0,0,0,102.75,58.94Z"/><path class="cls-2" d="M80.29,59.48a15.35,15.35,0,0,0-14.15-2.93c-2.35.75-4.51,2.16-7,3.08a10.71,10.71,0,0,1-3.94.82A6,6,0,0,1,51.32,59h0a.75.75,0,0,1-.07-1.06.76.76,0,0,1,1.06-.07l0,0a4.6,4.6,0,0,0,3,1.3,9.59,9.59,0,0,0,3.5-.57c2.36-.75,4.58-2.06,7.12-2.74A15.74,15.74,0,0,1,80.29,59.48Z"/><path class="cls-1" d="M92.73,58.94a2.77,2.77,0,0,1-.39,1.65A2.81,2.81,0,0,1,91,61.78a2.78,2.78,0,0,1-1.8,0,3.49,3.49,0,0,1-.79-.34,4.3,4.3,0,0,1-.65-.55c.29,0,.55.05.81.08s.51,0,.75,0a3.52,3.52,0,0,0,1.32-.21A5.3,5.3,0,0,0,92.73,58.94Z"/><path class="cls-1" d="M86.23,41.42l.56,5.06c.09.84.21,1.67.35,2.51a15.18,15.18,0,0,0,.59,2.46,8.52,8.52,0,0,1-1-2.38,18.17,18.17,0,0,1-.47-2.53c-.09-.85-.16-1.7-.17-2.56A19.93,19.93,0,0,1,86.23,41.42Z"/><path class="cls-1" d="M96.24,39.42A46.85,46.85,0,0,1,95.15,45c-.24.92-.49,1.84-.8,2.75a14.2,14.2,0,0,1-1.11,2.64c.29-.91.51-1.83.74-2.75l.69-2.77C95.15,43.07,95.63,41.23,96.24,39.42Z"/><path class="cls-1" d="M82.93,26.8a147.37,147.37,0,0,1,15-.79c.62,0,1.24,0,1.87,0h1.52l.2.05a1.67,1.67,0,0,1,.27.14,1.33,1.33,0,0,1,.27.28,1.67,1.67,0,0,1,.21.38,7.6,7.6,0,0,1,.38,2.06c.05.64.07,1.27.08,1.91a12,12,0,0,0,1.86,6.9,18,18,0,0,0,5.29,5.05c1,.68,2.09,1.31,3.17,1.93s2.16,1.23,3.26,1.72a23.72,23.72,0,0,0,3.37,1.27c.57.16,1.15.3,1.73.41a5.77,5.77,0,0,0,1.69.12c1.11-.09,2.29-.23,3.58-.25a7.39,7.39,0,0,1,3.86.82l-.05.2a32.3,32.3,0,0,0-3.58.81,10.76,10.76,0,0,1-3.86.44,19.13,19.13,0,0,1-7.43-2.5c-1.12-.64-2.14-1.39-3.17-2.09s-2.05-1.45-3-2.23A25.08,25.08,0,0,1,104,38.12,14.76,14.76,0,0,1,101.39,31c-.08-.6-.18-1.21-.29-1.8a8.23,8.23,0,0,0-.42-1.59s0-.06,0,0a.51.51,0,0,0,.11.11.74.74,0,0,0,.18.09.32.32,0,0,0,.14,0H99.75c-.63,0-1.25,0-1.87,0A146.94,146.94,0,0,1,82.93,27Z"/><path class="cls-1" d="M101,27c-4.8.5-9.61.68-14.41.77l-1.8,0H83.47c-.13,0,.17,0,.22-.05a.39.39,0,0,0,.16-.1c.05,0,0,0,0,0a7,7,0,0,0-.5,1.41c-.16.56-.29,1.13-.42,1.71-.27,1.15-.51,2.32-.76,3.49a10,10,0,0,1-1.41,3.51,20,20,0,0,1-5.23,5.11c-2,1.38-3.82,2.9-5.8,4.36a20,20,0,0,1-3.21,1.89A10.06,10.06,0,0,1,59,50a32,32,0,0,1-3.51-1v-.2a17.9,17.9,0,0,1,3.67-.39c1.19,0,2.32-.06,3.4-.18a11.09,11.09,0,0,0,3.21-.71C66.88,47,67.93,46.51,69,46s2.09-1.13,3.13-1.74,2.08-1.22,3.06-1.89a14,14,0,0,0,4.86-5,8.77,8.77,0,0,0,.9-3.27c.1-1.2.23-2.4.4-3.61.1-.6.21-1.21.34-1.82.07-.31.15-.61.25-.93a4.36,4.36,0,0,1,.45-1,1.73,1.73,0,0,1,.3-.37,1.52,1.52,0,0,1,.35-.22,1.63,1.63,0,0,1,.45-.08h1.35l1.8,0c4.8.09,9.61.27,14.41.77Z"/><path class="cls-1" d="M43.29,71.76A141.13,141.13,0,0,0,48.52,92.1c2.19,6.65,4.68,13.2,6.93,19.88a124.12,124.12,0,0,1,5.29,20.52,91.14,91.14,0,0,1,1,10.55c.06,1.77,0,3.54,0,5.3a28.78,28.78,0,0,1-.66,5.24,50.3,50.3,0,0,0-.18-10.48c-.36-3.48-.89-6.94-1.54-10.36a162.89,162.89,0,0,0-5.74-20.14l-3.42-10C49,99.31,48,96,47,92.56A92,92,0,0,1,43.29,71.76Z"/><path class="cls-1" d="M142,68c0,1.79-.07,3.59-.16,5.39s-.41,3.57-.65,5.35-.68,3.53-1.05,5.29-.9,3.48-1.42,5.2l-1.78,5.08c-.64,1.67-1.28,3.34-1.85,5-1.2,3.37-2.21,6.8-3.19,10.23-.48,1.72-.93,3.45-1.45,5.16s-1,3.43-1.47,5.13l-1.4,5.14c-.42,1.73-.87,3.44-1.31,5.15a133.88,133.88,0,0,0-3.69,20.95h-.2a69.73,69.73,0,0,1,1.81-21.44c.45-1.74.88-3.49,1.38-5.22l1.61-5.13c1.12-3.41,2.36-6.76,3.68-10.09s2.56-6.67,3.61-10.08,1.81-6.91,2.65-10.36q.58-2.59,1.29-5.16c.4-1.73.81-3.45,1.25-5.17s.72-3.47,1.13-5.21.63-3.5,1-5.25Z"/><path class="cls-3" d="M45.62,85.7c-1-6.34-2.91-12.67-3-19.16-.11-7.1,1.89-16.85,10.11-18.3,7.82-1.39,13.52,3.95,19.77,7.73a57.65,57.65,0,0,0,13.08,5.9c13,3.94,29.83,3.87,33,2,.74-.43.28-3.86.3-4.59a51.44,51.44,0,0,1,.44-5.95c.7-5,5.27-5.48,9.28-5.48,11,0,17,12,14,26-1,4.72-2.49,9.36-3.86,14s-5.56,6.87-8.62,10.18c-2.1,2.29-2.7,5.41-4.17,8.07-1.63,2.94-4.28,5.18-5.81,8.24-3.36,6.68-5.08,14.57-3.24,22,1.88,7.63,6.4,14.32,11,20.55.3.41.65.81.94,1.22a.52.52,0,0,1-.42.82H57.21a.51.51,0,0,1-.45-.77c4.79-8.4,9.93-17.51,10.78-27.27.43-5,0-10.3-2.2-14.88s-6.92-7-8.38-11.82c-.75-2.46-.64-3.44-2.51-5.06A42.78,42.78,0,0,1,50,95.34,18.88,18.88,0,0,1,45.62,85.7Z"/><path class="cls-1" d="M130.76,160H54.6l1.1-1.94c4.92-8.61,10-17.52,10.84-27.18.49-5.65-.21-10.48-2.1-14.36a20.83,20.83,0,0,0-3.75-4.93c-1.88-2-3.82-4.13-4.69-7-.16-.51-.28-1-.38-1.36A5,5,0,0,0,53.79,100c-.49-.42-1-.82-1.49-1.21a22.65,22.65,0,0,1-3-2.73,19.84,19.84,0,0,1-4.63-10.15h0c-.32-2-.74-4-1.15-6a72.49,72.49,0,0,1-1.88-13.3c-.06-4.06.53-17.46,10.93-19.3,6.72-1.19,11.92,2.26,17,5.6,1.15.76,2.33,1.55,3.51,2.26a57.16,57.16,0,0,0,12.86,5.81c12.69,3.84,28.77,3.8,32.09,2.17a13.76,13.76,0,0,0,0-2.87c0-.43,0-.77,0-1a51.53,51.53,0,0,1,.45-6.06c.89-6.35,7.46-6.35,10.27-6.35a14,14,0,0,1,11.25,5.4c4.17,5.16,5.57,13.33,3.74,21.85-.83,3.89-2,7.77-3.11,11.52-.25.86-.51,1.71-.76,2.56-1,3.5-3.54,5.72-6,7.87-1,.87-2,1.76-2.86,2.71a15.13,15.13,0,0,0-2.61,4.74,27.29,27.29,0,0,1-1.43,3.13,27.88,27.88,0,0,1-2.86,4,23.36,23.36,0,0,0-2.93,4.2c-3.64,7.25-4.76,14.83-3.16,21.33,1.91,7.71,6.6,14.47,10.85,20.2l.38.48a6.72,6.72,0,0,1,1.14,1.81ZM58,158h69.45l-.34-.44c-4.36-5.89-9.19-12.84-11.18-20.91-1.72-7-.55-15,3.31-22.71a25.82,25.82,0,0,1,3.16-4.56,25.76,25.76,0,0,0,2.67-3.72,26.09,26.09,0,0,0,1.33-2.92,16.82,16.82,0,0,1,3-5.33,38.5,38.5,0,0,1,3-2.86c2.32-2,4.51-4,5.38-6.93.25-.86.51-1.72.76-2.57,1.11-3.72,2.26-7.56,3.08-11.37,1.7-7.94.45-15.48-3.34-20.17a12.14,12.14,0,0,0-9.7-4.65c-4.58,0-7.75.78-8.29,4.62a52.1,52.1,0,0,0-.43,5.83c0,.15,0,.43,0,.77.16,2.35.2,4.07-.84,4.66-3.55,2.07-20.83,2-33.83-1.91a58.91,58.91,0,0,1-13.31-6c-1.22-.74-2.42-1.54-3.59-2.31-4.91-3.26-9.56-6.35-15.49-5.3-8.84,1.56-9.33,13.64-9.27,17.3a70.67,70.67,0,0,0,1.83,12.93c.41,2,.84,4,1.17,6.09a17.86,17.86,0,0,0,4.15,9.14,20.14,20.14,0,0,0,2.78,2.49c.53.41,1.05.83,1.56,1.27a7,7,0,0,1,2.45,4.24c.11.38.22.81.36,1.29.75,2.47,2.45,4.31,4.25,6.26a23,23,0,0,1,4.08,5.41c2.05,4.21,2.82,9.39,2.3,15.41C67.69,140.73,62.67,149.87,58,158Z"/></svg>