<svg id="图层_1" data-name="图层 1" xmlns="http://www.w3.org/2000/svg" viewBox="0 0 186 186"><defs><style>.cls-1{fill:#5b3b2f;}.cls-2{fill:#e4cbd4;}.cls-3{fill:#f4e2e9;}</style></defs><path class="cls-1" d="M102.58,58.32a9.26,9.26,0,0,1,6.24-3.61,17.23,17.23,0,0,1,7.38.52c2.41.74,4.55,2,6.81,2.67a6.25,6.25,0,0,0,3.3.2,4.48,4.48,0,0,0,2.47-1.88h0a.74.74,0,0,1,1.21.85l0,0a5.87,5.87,0,0,1-3.38,2.27,7.27,7.27,0,0,1-3.92-.41c-2.4-.84-4.46-2.21-6.7-3a16.8,16.8,0,0,0-7.11-.85A9,9,0,0,0,102.58,58.32Z"/><path class="cls-1" d="M80.45,58.85A15.12,15.12,0,0,0,66.51,56c-2.31.74-4.43,2.13-6.84,3a10.8,10.8,0,0,1-3.88.81,5.92,5.92,0,0,1-3.87-1.47h0a.75.75,0,0,1-.06-1,.73.73,0,0,1,1-.06l0,0a4.55,4.55,0,0,0,2.93,1.28A9.38,9.38,0,0,0,59.3,58c2.32-.73,4.51-2,7-2.7A15.48,15.48,0,0,1,80.45,58.85Z"/><path class="cls-2" d="M92.72,58.32a2.83,2.83,0,0,1-.39,1.62,2.64,2.64,0,0,1-3.13,1.23,3.83,3.83,0,0,1-.77-.34,4.81,4.81,0,0,1-.64-.54c.28,0,.54.05.8.08s.5.05.74,0a3.36,3.36,0,0,0,1.29-.21A5.17,5.17,0,0,0,92.72,58.32Z"/><path class="cls-1" d="M86.31,41.06l.55,5c.09.83.21,1.65.34,2.47a15.93,15.93,0,0,0,.59,2.43,7.92,7.92,0,0,1-1-2.35,17.59,17.59,0,0,1-.46-2.49,23.68,23.68,0,0,1-.16-2.52A19.31,19.31,0,0,1,86.31,41.06Z"/><path class="cls-1" d="M96.17,39.08a43,43,0,0,1-1.07,5.54c-.24.91-.48,1.82-.79,2.71a13.53,13.53,0,0,1-1.1,2.6c.3-.89.51-1.8.74-2.71l.67-2.72C95.1,42.68,95.57,40.87,96.17,39.08Z"/><path class="cls-1" d="M83.06,26.65c3.39-.38,6.79-.58,10.18-.69,1.7-.06,3.4-.07,5.09-.1.85,0,1.7,0,2.55,0h.19l.14,0a.73.73,0,0,1,.25.08,1.21,1.21,0,0,1,.29.2,1.74,1.74,0,0,1,.35.56,4.56,4.56,0,0,1,.21.75,12.77,12.77,0,0,1,.15,1.34c.07.86.08,1.77.09,2.57a13.25,13.25,0,0,0,.31,2.43A11.41,11.41,0,0,0,105,38.28c2,2.67,5,4.47,7.88,6.12a34.28,34.28,0,0,0,4.46,2.22,18.29,18.29,0,0,0,4.66,1.2,23.14,23.14,0,0,0,4.85-.47,10,10,0,0,1,2.79,0,12.55,12.55,0,0,1,2.69.73,16.65,16.65,0,0,1,7.87,7.08,14.46,14.46,0,0,1,1.92,10.09l-.2,0a15.52,15.52,0,0,0-3-9.23A16.42,16.42,0,0,0,131.52,50a11.29,11.29,0,0,0-2.2-.61,10.88,10.88,0,0,0-2.29,0,24.08,24.08,0,0,1-5.27.27,21.14,21.14,0,0,1-9.5-4.31,36.25,36.25,0,0,1-7.78-6.69A15.74,15.74,0,0,1,102,34.1a13.94,13.94,0,0,1-.61-2.57c-.1-.88-.21-1.66-.37-2.49-.07-.4-.17-.8-.27-1.16a2.55,2.55,0,0,0-.16-.47c0-.05-.07-.09,0,0a.68.68,0,0,0,.16.11,1.07,1.07,0,0,0,.17.06h-.06c-.85,0-1.7,0-2.54,0-1.7,0-3.39,0-5.08-.1-3.39-.1-6.78-.31-10.17-.69Z"/><path class="cls-1" d="M100.89,26.85c-3.43.35-6.87.55-10.3.66-1.71.06-3.43.1-5.15.11l-1.28,0h-.59l.14,0c.34-.12.28-.19.28-.15l-.08.14a17.6,17.6,0,0,0-.68,2.27l-.56,2.48c-.2.85-.32,1.64-.56,2.56a11.25,11.25,0,0,1-2.78,4.55,28.23,28.23,0,0,1-4,3.34c-1.42,1-2.74,2-4.12,3.12a21.88,21.88,0,0,1-4.49,2.8,12.31,12.31,0,0,1-5.41,1.06c-1.82,0-3.51-.3-5.15-.38a10.47,10.47,0,0,0-4.58.67c-2.86,1.15-4.81,4-5.85,7.12a24.53,24.53,0,0,0-1.16,4.89,39.25,39.25,0,0,0-.38,5.1l-.19,0a26.55,26.55,0,0,1,.34-10.42,15.45,15.45,0,0,1,2.17-4.95,10.36,10.36,0,0,1,4.26-3.62,11.69,11.69,0,0,1,5.5-.92c1.79.09,3.49.41,5.11.49A10.49,10.49,0,0,0,66,47.06a38.7,38.7,0,0,0,4.51-2.17c3-1.7,6.08-3.33,8.32-5.86A9,9,0,0,0,81,34.65c.21-1.6.32-3.4.62-5.1a11.79,11.79,0,0,1,.72-2.68,2.17,2.17,0,0,1,.23-.41,1.26,1.26,0,0,1,.76-.56.83.83,0,0,1,.22,0h.63l1.28,0c1.72,0,3.44.05,5.15.11,3.43.11,6.87.31,10.3.66Z"/><path class="cls-1" d="M44,71a136.9,136.9,0,0,0,5.16,20c2.15,6.56,4.61,13,6.83,19.6a122.11,122.11,0,0,1,5.21,20.21,88.56,88.56,0,0,1,1,10.4c.06,1.74,0,3.48,0,5.22a28.9,28.9,0,0,1-.65,5.16,49.55,49.55,0,0,0-.17-10.33c-.36-3.42-.88-6.83-1.52-10.21a159.67,159.67,0,0,0-5.66-19.83l-3.37-9.81c-1.09-3.29-2.17-6.6-3.11-9.94A91.22,91.22,0,0,1,44,71Z"/><path class="cls-1" d="M141.26,67.21c0,1.76-.08,3.53-.16,5.3s-.4,3.52-.65,5.28-.66,3.48-1,5.21-.89,3.43-1.39,5.12l-1.76,5c-.63,1.65-1.26,3.3-1.82,5-1.18,3.31-2.18,6.69-3.14,10.07-.48,1.7-.92,3.4-1.43,5.08s-.95,3.38-1.45,5.06l-1.38,5.06c-.41,1.7-.86,3.39-1.29,5.08a131.09,131.09,0,0,0-3.63,20.64h-.2A68.37,68.37,0,0,1,123.71,128c.45-1.71.87-3.43,1.36-5.14l1.58-5.06c1.11-3.35,2.33-6.66,3.63-9.93s2.53-6.57,3.56-9.93,1.78-6.81,2.61-10.21q.57-2.57,1.27-5.09c.4-1.7.8-3.4,1.23-5.09s.71-3.42,1.11-5.13.62-3.45,1-5.18Z"/><path class="cls-3" d="M127.44,96.29a14.63,14.63,0,0,1-.65,6.16,39.73,39.73,0,0,1-5,9.26,30.74,30.74,0,0,0-4.21,8.44c-2.89,7.8-2,16.58,1.54,24A54.1,54.1,0,0,0,126,154.89c.31.39,1.83,2.07,2.78,3.12a.52.52,0,0,1-.39.86H61.25c-.83,0-2.26,0-3.19,0a.51.51,0,0,1-.43-.78c1.6-2.67,6.9-11.7,8.58-17.42,1.88-6.41,2.43-13.33.49-19.79-2.69-8.94-10.31-16.13-8.65-26,.62-3.73,1.91-7.36,2.11-11.14.29-5.52-1.77-10.8-4.27-15.62-2.38-4.62-4.9-9.37-8.52-13.16a1.09,1.09,0,0,1-.2-1.21c.53-1.09,1.64-3.09,2.87-2.47,2,1,3.83,2.31,5.92,3.18a43.58,43.58,0,0,0,6.79,2.16c13.55,3.22,28.09,3.15,41.83,1.38a192.62,192.62,0,0,0,31-6.81c.71-.21,1-.42,1.52.16a5,5,0,0,1,1,1.57c.5,1.23-1.32,2.83-2,3.64a38.25,38.25,0,0,0-2.64,4,108.93,108.93,0,0,0-5.33,9.86c-1.89,4-3.64,8.23-3.39,12.64C125,87.74,127,91.86,127.44,96.29Z"/><path class="cls-1" d="M128.36,159.86H61.25c-.84,0-2.27,0-3.21,0a1.51,1.51,0,0,1-1.26-2.29c1.57-2.61,6.83-11.58,8.48-17.18,2-6.9,2.19-13.55.49-19.22a49.84,49.84,0,0,0-4-8.85c-2.85-5.36-5.81-10.9-4.68-17.63.24-1.45.58-2.89.91-4.28a36.92,36.92,0,0,0,1.18-6.75c.3-5.7-2.06-11.07-4.15-15.12s-4.7-9.1-8.36-12.93a2,2,0,0,1-.37-2.32c.85-1.75,1.69-2.72,2.63-3a2,2,0,0,1,1.57.11c.87.43,1.69.91,2.49,1.38a27.26,27.26,0,0,0,3.37,1.78A44.33,44.33,0,0,0,63,55.59c12.14,2.88,26.1,3.34,41.48,1.36a191.76,191.76,0,0,0,30.8-6.78l.25-.08a1.87,1.87,0,0,1,2.26.5A6.08,6.08,0,0,1,139,52.47c.65,1.57-.74,3.12-1.65,4.14l-.44.49A38.57,38.57,0,0,0,134.3,61,110.81,110.81,0,0,0,129,70.77c-1.72,3.62-3.54,7.85-3.29,12.15a33.9,33.9,0,0,0,1.39,7,38.71,38.71,0,0,1,1.32,6.23h0a15.65,15.65,0,0,1-.7,6.57,40.74,40.74,0,0,1-5.07,9.5,29.78,29.78,0,0,0-4.11,8.23c-2.65,7.14-2.1,15.61,1.51,23.25a53,53,0,0,0,6.68,10.53c.23.28,1.28,1.45,2.74,3.07a1.52,1.52,0,0,1,.26,1.63A1.51,1.51,0,0,1,128.36,159.86Zm-69.46-2,2.35,0h66c-.81-.89-1.83-2-2.09-2.37a54.82,54.82,0,0,1-6.94-10.92c-3.83-8.12-4.4-17.15-1.57-24.79a31.77,31.77,0,0,1,4.31-8.64,38.2,38.2,0,0,0,4.85-9,13.63,13.63,0,0,0,.6-5.76h0a35.57,35.57,0,0,0-1.26-5.9A35.76,35.76,0,0,1,123.74,83c-.27-4.77,1.65-9.27,3.48-13.12,1.56-3.28,3.37-6.62,5.38-9.95a39,39,0,0,1,2.71-4.08l.52-.6c.36-.4,1.47-1.64,1.3-2.05a4.37,4.37,0,0,0-.79-1.27s0,0,0,0a1.15,1.15,0,0,0-.17.06l-.3.09a193.35,193.35,0,0,1-31.12,6.85c-15.61,2-29.81,1.54-42.19-1.4a44.92,44.92,0,0,1-6.94-2.21A30,30,0,0,1,52,53.41C51.2,53,50.4,52.5,49.6,52.1c0,0-.6.1-1.54,2,3.88,4.13,6.56,9.31,8.72,13.48s4.69,10,4.37,16.13a39.74,39.74,0,0,1-1.24,7.11c-.32,1.36-.65,2.76-.88,4.15-1,6.06,1.65,11.07,4.47,16.37a51.32,51.32,0,0,1,4.15,9.21c1.81,6,1.65,13.07-.49,20.34C65.58,146.3,60.87,154.54,58.9,157.85Z"/></svg>