<svg id="图层_1" data-name="图层 1" xmlns="http://www.w3.org/2000/svg" viewBox="0 0 186 186"><defs><style>.cls-1{fill:#5b3b2f;}.cls-2{fill:#f4e2e9;}</style></defs><path class="cls-1" d="M102.45,58a9,9,0,0,1,6.14-3.55,16.93,16.93,0,0,1,7.28.51c2.37.72,4.48,2,6.71,2.63a6.17,6.17,0,0,0,3.25.2,4.43,4.43,0,0,0,2.43-1.85h0a.72.72,0,0,1,1-.18.74.74,0,0,1,.18,1l0,0A5.73,5.73,0,0,1,126.11,59a7.24,7.24,0,0,1-3.86-.4c-2.37-.83-4.4-2.19-6.6-3a16.49,16.49,0,0,0-7-.84A8.88,8.88,0,0,0,102.45,58Z"/><path class="cls-1" d="M80.64,58.5A14.91,14.91,0,0,0,66.9,55.66c-2.28.73-4.37,2.1-6.74,3a10.35,10.35,0,0,1-3.82.8A5.81,5.81,0,0,1,52.52,58h0a.73.73,0,1,1,1-1.09l0,0a4.53,4.53,0,0,0,2.9,1.26,9.3,9.3,0,0,0,3.4-.56c2.29-.72,4.44-2,6.91-2.66A15.28,15.28,0,0,1,80.64,58.5Z"/><path class="cls-1" d="M92.73,58a2.74,2.74,0,0,1-.39,1.6A2.67,2.67,0,0,1,91,60.74a2.7,2.7,0,0,1-1.75,0,4.06,4.06,0,0,1-.77-.33,5.35,5.35,0,0,1-.63-.53,4.8,4.8,0,0,1,.79.08c.26,0,.5,0,.73,0a3.31,3.31,0,0,0,1.28-.21A5.14,5.14,0,0,0,92.73,58Z"/><path class="cls-1" d="M86.41,41,87,45.88c.09.82.21,1.63.34,2.44a15.37,15.37,0,0,0,.57,2.39,8.32,8.32,0,0,1-.94-2.31,17.16,17.16,0,0,1-.45-2.46,22.78,22.78,0,0,1-.16-2.48A18.85,18.85,0,0,1,86.41,41Z"/><path class="cls-1" d="M96.13,39a43.71,43.71,0,0,1-1.06,5.45c-.23.9-.48,1.79-.78,2.67a13.19,13.19,0,0,1-1.08,2.57c.29-.88.5-1.78.72-2.67l.67-2.69C95.07,42.58,95.54,40.79,96.13,39Z"/><path class="cls-1" d="M83.21,26.78c3.34-.38,6.69-.58,10-.68,1.67-.07,3.35-.07,5-.1.83,0,1.67,0,2.51,0h.32a1.05,1.05,0,0,1,.25.08,1.2,1.2,0,0,1,.28.2,1.72,1.72,0,0,1,.35.55,4.36,4.36,0,0,1,.2.74,12.81,12.81,0,0,1,.16,1.32c.07.85.07,1.74.09,2.54a12.12,12.12,0,0,0,.3,2.39,11.13,11.13,0,0,0,2.08,4.36c2,2.64,4.89,4.41,7.77,6A31.44,31.44,0,0,0,117,46.45a18.07,18.07,0,0,0,4.59,1.19,23.13,23.13,0,0,0,4.78-.46,10.11,10.11,0,0,1,2.75,0,12.61,12.61,0,0,1,2.65.72,16.42,16.42,0,0,1,7.75,7,14.18,14.18,0,0,1,1.9,9.94l-.19,0a15.37,15.37,0,0,0-3-9.1A16.28,16.28,0,0,0,131,49.82a11.31,11.31,0,0,0-2.18-.61,10.52,10.52,0,0,0-2.25,0,24,24,0,0,1-5.19.26A20.88,20.88,0,0,1,112,45.2a35.4,35.4,0,0,1-7.66-6.59,15.42,15.42,0,0,1-2.49-4.49,13.61,13.61,0,0,1-.6-2.54c-.1-.87-.21-1.64-.36-2.45-.08-.39-.17-.79-.27-1.15a2.76,2.76,0,0,0-.15-.46c0-.05-.07-.08,0,0a.68.68,0,0,0,.16.11,1.07,1.07,0,0,0,.17.06h.09s0,0,0,0h-.15c-.84,0-1.67,0-2.51,0-1.67,0-3.34,0-5-.1-3.33-.1-6.67-.3-10-.68Z"/><path class="cls-1" d="M100.78,27c-3.39.35-6.77.54-10.15.65-1.69.06-3.38.1-5.08.11l-1.26,0h-.58l.14,0c.33-.11.28-.18.28-.15a.75.75,0,0,0-.08.14A14.53,14.53,0,0,0,83.38,30l-.56,2.44c-.19.84-.31,1.62-.55,2.53a11.15,11.15,0,0,1-2.74,4.48,28.06,28.06,0,0,1-3.94,3.29c-1.4,1-2.71,2-4.06,3.07a21.33,21.33,0,0,1-4.43,2.77,12,12,0,0,1-5.32,1c-1.8,0-3.47-.29-5.09-.38a10.5,10.5,0,0,0-4.51.67c-2.81,1.13-4.74,3.94-5.77,7a24.23,24.23,0,0,0-1.13,4.81,36.43,36.43,0,0,0-.37,5h-.2a26.13,26.13,0,0,1,.34-10.26,15.14,15.14,0,0,1,2.14-4.88A10.15,10.15,0,0,1,51.39,48a11.46,11.46,0,0,1,5.42-.9c1.76.08,3.44.39,5,.48a10.53,10.53,0,0,0,4.58-.72,37.55,37.55,0,0,0,4.44-2.14c2.92-1.67,6-3.29,8.2-5.77a8.93,8.93,0,0,0,2.1-4.32c.2-1.58.31-3.35.61-5a11.92,11.92,0,0,1,.7-2.64c.06-.12.13-.25.23-.41a1.35,1.35,0,0,1,.75-.55l.22,0h.62l1.26,0c1.7,0,3.39.05,5.08.11,3.38.11,6.76.3,10.15.65Z"/><path class="cls-1" d="M44.72,70.43A135.79,135.79,0,0,0,49.8,90.17c2.12,6.46,4.54,12.82,6.73,19.31a121.11,121.11,0,0,1,5.14,19.92,90.39,90.39,0,0,1,.95,10.25c.06,1.71,0,3.43,0,5.14a28,28,0,0,1-.64,5.09,49.49,49.49,0,0,0-.17-10.18c-.35-3.37-.86-6.73-1.5-10.06A156.21,156.21,0,0,0,54.7,110.1l-3.32-9.68c-1.08-3.24-2.14-6.49-3.07-9.79A89.67,89.67,0,0,1,44.72,70.43Z"/><path class="cls-1" d="M140.56,66.74c0,1.74-.07,3.48-.15,5.23s-.4,3.47-.64,5.2-.66,3.43-1,5.14-.88,3.37-1.38,5l-1.73,4.93c-.62,1.62-1.24,3.25-1.79,4.89-1.16,3.27-2.15,6.6-3.1,9.93-.47,1.67-.9,3.35-1.41,5s-.93,3.33-1.43,5l-1.36,5c-.4,1.68-.84,3.34-1.27,5a129.45,129.45,0,0,0-3.57,20.33h-.2a67.32,67.32,0,0,1,1.76-20.82c.43-1.69.85-3.38,1.33-5.06l1.56-5c1.09-3.3,2.3-6.56,3.58-9.79s2.49-6.47,3.51-9.78,1.75-6.71,2.57-10.06c.38-1.69.79-3.36,1.25-5s.79-3.35,1.22-5,.7-3.37,1.09-5,.61-3.4,1-5.1Z"/><path class="cls-1" d="M56.62,73.31a5.6,5.6,0,0,1,3.13,3.13,12.32,12.32,0,0,1,.89,4.43,32.56,32.56,0,0,1-1.16,8.86,38.9,38.9,0,0,0-1.74,8.62,11.24,11.24,0,0,0,2.6,8.1,14.28,14.28,0,0,0,7.31,4.36,21,21,0,0,0,8.57.36,15.69,15.69,0,0,0,7.77-3.4,11.73,11.73,0,0,0,3.83-7.57h.09a11.43,11.43,0,0,1-3.4,8.12,15.9,15.9,0,0,1-8.12,3.87,20.69,20.69,0,0,1-9-.51,14.09,14.09,0,0,1-7.47-4.9,12,12,0,0,1-2-4,15.51,15.51,0,0,1-.52-4.44,44.94,44.94,0,0,1,1.3-8.8,42.49,42.49,0,0,0,1.2-8.65,13,13,0,0,0-.62-4.26,5.63,5.63,0,0,0-2.7-3.23Z"/><path class="cls-1" d="M126.93,73.39a11.66,11.66,0,0,0-2.67,8,47.68,47.68,0,0,0,1.61,8.6A34.58,34.58,0,0,1,127,98.87a14.29,14.29,0,0,1-3.14,8.26,14.55,14.55,0,0,1-7.6,4.7,21.3,21.3,0,0,1-9,.4,16.2,16.2,0,0,1-8.11-3.87,10.32,10.32,0,0,1-2.57-3.73,9.48,9.48,0,0,1-.55-4.43h.1a9.65,9.65,0,0,0,.9,4.22,10,10,0,0,0,2.63,3.36,16.21,16.21,0,0,0,7.78,3.42,22,22,0,0,0,8.59-.27,14.79,14.79,0,0,0,7.42-4.16,11.11,11.11,0,0,0,2.3-3.66,12.49,12.49,0,0,0,.9-4.26,30.46,30.46,0,0,0-1.61-8.62,36,36,0,0,1-1.58-8.79c0-.37,0-.75.07-1.13a6.13,6.13,0,0,1,.14-1.13l.24-1.11c.1-.36.26-.71.39-1.07a8.78,8.78,0,0,1,1.06-2,15.84,15.84,0,0,1,1.45-1.7Z"/><path class="cls-1" d="M100.34,84.16c-1.07,3.55-3.82,12-9.16,9.84-3.24-1.33-6.22-6.39-6.34-9.8,0,.23,1.76,1.32,2,1.52.63.5,1.26,1,1.93,1.42,1.32.86,2.83,2.11,4.5,2.08a5,5,0,0,0,3-1.37c.82-.69,1.59-1.4,2.43-2.06C99.18,85.46,100.34,84.76,100.34,84.16Z"/><path class="cls-2" d="M50.71,112.31a.17.17,0,0,1-.15-.06c-.35-.37-.46-1.49-.34-3.33a66,66,0,0,0-.06-9.33c-.11-1.5-.28-3-.5-4.5a6,6,0,0,0-.15-.65,9.72,9.72,0,0,1-.44-2.17l.62-.2c.88-.28,1.84-.5,2.86-.73,2.8-.65,6-1.38,8-3.64l0,0a33.84,33.84,0,0,1-1.06,5.6c-.25,1-.51,2.1-.72,3.17a13.18,13.18,0,0,0,.68,6.25c.06.19.24.63.6,1.46.26.61.7,1.63.92,2.22a.71.71,0,0,0-.14.29c-.19.75-1.08,1.26-1.87,1.7a76.86,76.86,0,0,1-7.91,3.79A.89.89,0,0,1,50.71,112.31Z"/><path class="cls-1" d="M61.17,88h0M59.6,89.48c-.21,1.22-.5,2.43-.81,3.69-.26,1-.53,2.12-.74,3.21a13.79,13.79,0,0,0,.7,6.6c.07.22.22.57.63,1.54.22.5.57,1.31.79,1.88,0,.06,0,.11-.05.16-.11.45-.89.89-1.54,1.26A72.86,72.86,0,0,1,51,111.46a9.62,9.62,0,0,1-.06-2.49v-.08a66.32,66.32,0,0,0-.06-9.35c-.11-1.51-.28-3-.5-4.56,0-.18-.09-.38-.18-.73s-.26-1-.35-1.47h0c.85-.27,1.8-.49,2.8-.72a18.89,18.89,0,0,0,6.89-2.57m-9.8,2.77h0M60.52,86.8c-.14,0-.29.09-.48.32-2.46,2.94-7.15,3.16-10.57,4.26l-.86.27c-.73.21.27,3.1.33,3.54.22,1.48.38,3,.5,4.46a64.84,64.84,0,0,1,.05,9.14c-.06,1.06-.31,4.25,1.22,4.25a1.64,1.64,0,0,0,.63-.14,77.38,77.38,0,0,0,8-3.81c.88-.5,2-1.11,2.24-2.17,0-.06.18-.08.28-.12s-1.54-3.79-1.67-4.24a12.51,12.51,0,0,1-.67-5.9c.6-3.08,1.64-6,1.82-9.2-.27-.17-.47-.66-.78-.66Z"/><path class="cls-2" d="M135,110c-2.29-2.13-7.21-3.38-10.85-4.3l-1.08-.28c.22-.48.46-1,.7-1.45,1.16-2.34,2.37-4.77,2.06-7.49a59.68,59.68,0,0,0-1.54-7.66c0-.06,0-.11,0-.17a35.46,35.46,0,0,0,4.65,2c1.42.43,2.87.82,4.27,1.2,1,.26,1.94.52,2.89.79a1.19,1.19,0,0,1,.72.4c.06.11.12.38-.08,1.06a33,33,0,0,0-1.33,8.67c0,.75,0,1.51,0,2.25A13.17,13.17,0,0,1,135,110Z"/><path class="cls-1" d="M125.71,90.45a29.59,29.59,0,0,0,2.93,1.18c1.43.43,2.89.83,4.3,1.21q1.44.38,2.88.78h0l-.06.24a34,34,0,0,0-1.37,8.93c0,.78,0,1.56,0,2.31a20.41,20.41,0,0,1,0,3.24c-2.67-1.71-6.77-2.75-9.94-3.56l.18-.36c1.17-2.36,2.5-5,2.16-8a50.21,50.21,0,0,0-1.11-5.94m-2.48-3.57c-.15,0-.27.08-.33.31-.14.49.34,1.34.46,1.82a61.82,61.82,0,0,1,1.53,7.59c.34,3.11-1.59,6-2.83,8.76-.12.26-.31.48-.12.78,3.28.92,10.27,2.29,12.63,4.81.27.29.48.43.65.43s.38-.23.56-.66c1.06-2.47.52-5.27.59-7.87a31.5,31.5,0,0,1,1.28-8.41c.42-1.41.15-2.27-1.3-2.68-2.37-.68-4.78-1.27-7.15-2a31.89,31.89,0,0,1-4.74-2.12c-.23-.14-.84-.77-1.23-.77Z"/><path class="cls-2" d="M68.6,159H57.83a1.45,1.45,0,0,1-1.3-.81,1.47,1.47,0,0,1,.14-1.55,48.84,48.84,0,0,0,2.95-4.9c2.87-5.51,5.7-11.46,7-17.6,1.65-8.09,1.77-12.64-4-22.28l-.85-1.4c-3.73-6.12-7.94-13-3.5-21.27l.14-.26a19.76,19.76,0,0,1,1.54-2.54,12.5,12.5,0,0,1,3.57-3.17,8.87,8.87,0,0,0,.24-1.43,43.37,43.37,0,0,0-.17-5.46c-.38-5.17-.82-10.4-1.31-15.58-.07-.7-.12-1.4-.18-2.11-.27-3.48-.56-7.07-2.26-10.06a1.15,1.15,0,0,1-.06-.91,1,1,0,0,1,.64-.61,4.48,4.48,0,0,1,1.44-.22,12.28,12.28,0,0,1,5.56,1.83c.88.51,1.17,1.87,1.46,4.53,0,.33.06.6.09.74l1.39,7.51c.93,5,1.85,10,2.8,15l.17.88c.19.93.4,2,.54,3.07h.23a16.71,16.71,0,0,1,12,4.88,25.37,25.37,0,0,1,6.6,9.6l.08.21c.2-.55.43-1.09.67-1.6a26,26,0,0,1,8.8-10.31,16.32,16.32,0,0,1,9.3-2.77,17.85,17.85,0,0,1,3.1.26c1.07-7.23,2.12-14.83,3.2-23.18,0-.29.06-.89.08-1.58.16-4.69.48-7,1.92-7.62a17.34,17.34,0,0,1,6.73-1.21h.72a1.16,1.16,0,0,1,.88.5,1,1,0,0,1,0,1,26.49,26.49,0,0,0-1.85,8.06c-.1.76-.19,1.5-.3,2.22-.62,4.19-1,8-1.25,11.64a93.1,93.1,0,0,0,0,11.33c.1,1.59.24,3.16.42,4.68,0,.3.08.59.11.88a13.1,13.1,0,0,1,1.59,3.44,20.52,20.52,0,0,1,1,8.91c-.65,4.13-3.09,7.62-5.44,11l-.63.9a29.8,29.8,0,0,0-4,7.35c-2.83,8.54-2.34,17.41,1.29,23.75,1.53,2.66,3,5.07,4.51,7.36s2.92,4.29,4.51,6.37a2.23,2.23,0,0,1,.52,1.62,1,1,0,0,1-1,.9h-59Z"/><path class="cls-1" d="M61.81,47.83a11.44,11.44,0,0,1,5.08,1.7c.77.45.94,3.87,1.08,4.61q.69,3.75,1.39,7.5c.92,5,1.85,10,2.79,15,.22,1.16.56,2.67.74,4.19,0,.19,0,.39,0,.58q.56,0,1.11,0A15.81,15.81,0,0,1,85.32,86a24.69,24.69,0,0,1,6.37,9.23,17.5,17.5,0,0,1,.64,2.36.31.31,0,0,0,.31.25.3.3,0,0,0,.3-.24,18.61,18.61,0,0,1,1.29-3.67A25,25,0,0,1,102.69,84a15.5,15.5,0,0,1,8.76-2.6,17.06,17.06,0,0,1,3.91.45c1.21-8.06,2.31-16.13,3.35-24.22.19-1.4,0-7.83,1.41-8.43a16.53,16.53,0,0,1,6.36-1.13h.7a.08.08,0,0,1,.07.11c-1.54,3.14-1.74,7.15-2.25,10.56-.58,3.9-1,7.81-1.26,11.74a92.91,92.91,0,0,0,0,11.44c.1,1.58.24,3.16.43,4.74,0,.37.09.74.14,1.11a12.37,12.37,0,0,1,1.59,3.36,19.51,19.51,0,0,1,1,8.49c-.67,4.26-3.37,7.83-5.91,11.49a30.61,30.61,0,0,0-4.17,7.61c-2.58,7.78-2.79,17.28,1.37,24.53,1.44,2.51,2.95,5,4.54,7.42q2.16,3.29,4.55,6.42a1.29,1.29,0,0,1,.32,1H57.84a.5.5,0,0,1-.39-.81,47.93,47.93,0,0,0,3-5c2.94-5.65,5.76-11.58,7.05-17.85,1.72-8.44,1.7-13.26-4.13-23-3.93-6.55-8.83-13.38-4.32-21.71A20.61,20.61,0,0,1,60.68,87a11.7,11.7,0,0,1,3.65-3.13,12.67,12.67,0,0,0,.35-2,46,46,0,0,0-.17-5.63q-.57-7.78-1.31-15.56c-.41-4.24-.4-8.76-2.56-12.56a.08.08,0,0,1,0-.12,3.52,3.52,0,0,1,1.13-.17m0-1.94h0a5.65,5.65,0,0,0-1.73.26,2,2,0,0,0-1.26,1.19A2,2,0,0,0,59,49.08c1.59,2.8,1.85,6.13,2.13,9.65.06.72.11,1.43.18,2.13.49,5.15.93,10.37,1.31,15.52v.06a41.81,41.81,0,0,1,.17,5.32,5.57,5.57,0,0,1-.13.87,13.41,13.41,0,0,0-3.49,3.19,21.92,21.92,0,0,0-1.63,2.69l-.12.23c-4.72,8.72-.34,15.9,3.52,22.24.28.47.57.94.84,1.4,5.61,9.35,5.5,13.76,3.89,21.59-1.23,6-4,11.89-6.86,17.35a47.53,47.53,0,0,1-2.86,4.75A2.44,2.44,0,0,0,57.83,160h69.73a1.94,1.94,0,0,0,1.94-1.79,3.19,3.19,0,0,0-.72-2.29c-1.57-2.06-3.07-4.18-4.47-6.31-1.5-2.29-3-4.68-4.47-7.32-3.5-6.09-4-14.68-1.22-23a29.32,29.32,0,0,1,3.93-7.11l.63-.9c2.42-3.47,4.91-7,5.6-11.4a21.27,21.27,0,0,0-1-9.34,13.78,13.78,0,0,0-1.58-3.5c0-.22-.06-.43-.08-.65-.18-1.51-.32-3.07-.42-4.63a93.16,93.16,0,0,1,0-11.21c.22-3.61.62-7.39,1.24-11.56.11-.72.21-1.48.3-2.24.35-2.74.7-5.56,1.77-7.76a2,2,0,0,0-.08-1.93,2,2,0,0,0-1.68-1h-.75a18.27,18.27,0,0,0-7.1,1.29c-2.11.87-2.37,3.93-2.52,8.48,0,.62,0,1.26-.07,1.49-1,8-2,15.28-3.06,22.21a19.38,19.38,0,0,0-2.28-.14,17.3,17.3,0,0,0-9.85,3,26.68,26.68,0,0,0-8.9,10.24,28.3,28.3,0,0,0-6-8,17.63,17.63,0,0,0-12-5.15c-.13-.81-.28-1.58-.43-2.29-.06-.3-.12-.6-.17-.87q-1.41-7.48-2.79-15L70.84,59l-1-5.2c0-.14,0-.38-.08-.68-.28-2.58-.59-4.47-1.93-5.26a13.37,13.37,0,0,0-6.06-2Z"/></svg>