<svg id="图层_1" data-name="图层 1" xmlns="http://www.w3.org/2000/svg" viewBox="0 0 186 186"><defs><style>.cls-1{fill:#5b3b2f;}.cls-2{fill:#f4e2e9;}</style></defs><path class="cls-1" d="M102.66,58.7a9.26,9.26,0,0,1,6.28-3.64,17.68,17.68,0,0,1,7.44.52c2.43.75,4.58,2,6.86,2.69a6.24,6.24,0,0,0,3.32.21,4.56,4.56,0,0,0,2.49-1.9h0a.74.74,0,0,1,1-.19.75.75,0,0,1,.19,1l0,0a5.94,5.94,0,0,1-3.41,2.29,7.38,7.38,0,0,1-3.95-.41c-2.42-.85-4.49-2.24-6.75-3.05a17,17,0,0,0-7.16-.86A9.1,9.1,0,0,0,102.66,58.7Z"/><path class="cls-1" d="M80.36,59.23a15.24,15.24,0,0,0-14-2.91c-2.33.75-4.47,2.15-6.9,3.06a10.74,10.74,0,0,1-3.9.82,6,6,0,0,1-3.91-1.48v0a.74.74,0,1,1,1-1.11l0,0a4.56,4.56,0,0,0,3,1.29,9.52,9.52,0,0,0,3.48-.57c2.34-.74,4.54-2,7.06-2.72A15.59,15.59,0,0,1,80.36,59.23Z"/><path class="cls-1" d="M92.72,58.7a2.84,2.84,0,0,1-.4,1.64A2.73,2.73,0,0,1,91,61.51a2.69,2.69,0,0,1-1.79.06,4,4,0,0,1-.79-.34,4.81,4.81,0,0,1-.64-.54,6.79,6.79,0,0,1,.81.07c.26,0,.5.05.74,0a3.47,3.47,0,0,0,1.31-.21A5.21,5.21,0,0,0,92.72,58.7Z"/><path class="cls-1" d="M86.26,41.31l.56,5c.09.83.21,1.66.34,2.49a16.05,16.05,0,0,0,.59,2.44,8.09,8.09,0,0,1-1-2.36,18.17,18.17,0,0,1-.47-2.51,24.05,24.05,0,0,1-.16-2.54A19.55,19.55,0,0,1,86.26,41.31Z"/><path class="cls-1" d="M96.2,39.32a45.8,45.8,0,0,1-1.08,5.58c-.24.91-.49,1.83-.8,2.72a14.47,14.47,0,0,1-1.1,2.63c.29-.9.5-1.82.74-2.73l.68-2.75C95.11,43,95.59,41.12,96.2,39.32Z"/><path class="cls-1" d="M83,26.8c3.42-.39,6.84-.59,10.26-.7C95,26,96.67,26,98.38,26c.85,0,1.71,0,2.56,0h.33a1.31,1.31,0,0,1,.26.09,1,1,0,0,1,.28.2,1.64,1.64,0,0,1,.36.56,4.65,4.65,0,0,1,.21.76,13,13,0,0,1,.16,1.35c.07.86.07,1.78.09,2.59a11.81,11.81,0,0,0,.31,2.44,11.38,11.38,0,0,0,2.12,4.47c2,2.69,5,4.5,8,6.17a33.48,33.48,0,0,0,4.49,2.23,18.42,18.42,0,0,0,4.69,1.21,23.57,23.57,0,0,0,4.89-.47,10.55,10.55,0,0,1,2.81,0,12.5,12.5,0,0,1,2.7.74,16.75,16.75,0,0,1,7.93,7.13,14.54,14.54,0,0,1,1.94,10.17l-.2,0a15.6,15.6,0,0,0-3.06-9.29,16.55,16.55,0,0,0-7.39-6,10.84,10.84,0,0,0-2.22-.62,11,11,0,0,0-2.3,0A23.87,23.87,0,0,1,122,50a21.37,21.37,0,0,1-9.58-4.34,36.71,36.71,0,0,1-7.83-6.74A15.72,15.72,0,0,1,102,34.3a13.55,13.55,0,0,1-.61-2.59c-.11-.89-.22-1.68-.38-2.51-.07-.4-.17-.8-.27-1.17a2.31,2.31,0,0,0-.16-.47s-.07-.09,0,0a.68.68,0,0,0,.16.11.58.58,0,0,0,.17,0h-.06c-.86,0-1.71,0-2.56,0-1.71,0-3.41,0-5.12-.1-3.41-.11-6.82-.31-10.24-.7Z"/><path class="cls-1" d="M101,27c-3.46.36-6.92.56-10.37.67-1.73.06-3.46.1-5.19.11l-1.3,0H83.5l.15,0c.33-.12.28-.19.28-.15a.75.75,0,0,0-.08.14,16,16,0,0,0-.69,2.29l-.57,2.5c-.19.85-.32,1.65-.56,2.58a11.29,11.29,0,0,1-2.8,4.58,28.69,28.69,0,0,1-4,3.37c-1.43,1-2.76,2.06-4.15,3.14A22.41,22.41,0,0,1,66.52,49a12.28,12.28,0,0,1-5.44,1.07c-1.84,0-3.54-.3-5.2-.39a10.65,10.65,0,0,0-4.61.68c-2.88,1.16-4.84,4-5.9,7.18a24.47,24.47,0,0,0-1.15,4.92,36.59,36.59,0,0,0-.39,5.14h-.2A26.91,26.91,0,0,1,44,57.16a15.49,15.49,0,0,1,2.19-5,10.29,10.29,0,0,1,4.29-3.64A11.58,11.58,0,0,1,56,47.6c1.8.09,3.52.4,5.14.49a10.53,10.53,0,0,0,4.68-.74,39.31,39.31,0,0,0,4.55-2.18c3-1.71,6.12-3.36,8.38-5.9a9.11,9.11,0,0,0,2.14-4.41c.21-1.62.32-3.43.63-5.15a12.08,12.08,0,0,1,.72-2.7,2.54,2.54,0,0,1,.23-.41,1.34,1.34,0,0,1,.77-.57l.22,0h.63l1.3,0c1.73,0,3.46.05,5.19.11,3.45.11,6.91.31,10.37.67Z"/><path class="cls-1" d="M43.64,71.42a139.05,139.05,0,0,0,5.19,20.19c2.17,6.6,4.65,13.1,6.88,19.73A124.33,124.33,0,0,1,61,131.71a89.71,89.71,0,0,1,1,10.48c.06,1.75.05,3.5,0,5.25a29.34,29.34,0,0,1-.65,5.21,50.3,50.3,0,0,0-.18-10.41c-.35-3.45-.88-6.88-1.53-10.28a160.49,160.49,0,0,0-5.7-20l-3.39-9.88c-1.1-3.32-2.19-6.64-3.14-10A91.78,91.78,0,0,1,43.64,71.42Z"/><path class="cls-1" d="M141.62,67.65c0,1.78-.07,3.56-.16,5.35s-.4,3.54-.65,5.31-.67,3.51-1,5.25-.89,3.46-1.4,5.16l-1.78,5c-.63,1.66-1.26,3.32-1.83,5-1.19,3.34-2.19,6.74-3.17,10.15-.48,1.71-.92,3.43-1.44,5.12s-1,3.41-1.46,5.1l-1.39,5.1c-.41,1.71-.85,3.41-1.3,5.11a133.19,133.19,0,0,0-3.65,20.79h-.2a68.72,68.72,0,0,1,1.79-21.28c.45-1.73.88-3.46,1.37-5.17l1.6-5.1c1.11-3.38,2.34-6.71,3.65-10s2.55-6.62,3.59-10,1.79-6.86,2.62-10.28q.58-2.58,1.29-5.13c.4-1.71.8-3.42,1.24-5.13s.71-3.45,1.12-5.17.62-3.47,1-5.21Z"/><path class="cls-2" d="M57.41,159c1.44-2.82,4.75-9.49,6.26-13.56,3.13-8.45,6.68-18,2-27.62-.76-1.54-1.73-3.25-2.76-5-2-3.49-4.27-7.46-5.12-10.67-.93-3.5-.08-6.82.82-10.35a45.56,45.56,0,0,0,1.23-5.94c.77-6.6-.59-13-1.92-19.12-.36-1.66-.72-3.32-1-5-.07-.37-.5-2.34-1-4.68-.6-2.74-1.45-6.62-1.78-8.24a7.05,7.05,0,0,1,2-.27,11.23,11.23,0,0,1,3.62.64,5.17,5.17,0,0,1,1.74,1A9.62,9.62,0,0,1,63.65,54a24.43,24.43,0,0,0,2.66,4.71C70,64.22,74.6,70.28,81,73.78a22.29,22.29,0,0,0,8.46,2.65c.65.06,1.32.09,2,.09,12.68,0,20.76-11.32,27.89-21.31,1.5-2.09,2.91-4.08,4.31-5.87a2.14,2.14,0,0,1,1.69-.83c1.84,0,4,.09,5.19.2-1.33,2.28-3.09,6.43-3.18,8.89,0,.78,0,1.66-.08,2.62a106.56,106.56,0,0,1-.9,13.14,16.3,16.3,0,0,1-1,3.39,12.6,12.6,0,0,0-1,4.7A37.21,37.21,0,0,0,125.7,91c1,4.36,2,8.87.7,13-1,3.12-2.57,5.25-4.55,7.94-1,1.37-2.14,2.91-3.3,4.76-10.43,16.52,4.8,36.62,9.55,42.22l-11.64,0C99,158.92,65.2,159,57.41,159Z"/><path class="cls-1" d="M125.33,47.52v2c1.36,0,2.6.06,3.57.1-1.15,2.31-2.48,5.64-2.56,8,0,.78-.06,1.67-.08,2.63a107.64,107.64,0,0,1-.88,13,17,17,0,0,1-.94,3.21,13.44,13.44,0,0,0-1.08,5,38.34,38.34,0,0,0,1.36,9.84c1,4.42,2,8.6.72,12.49-1,3-2.47,5-4.4,7.65-1,1.38-2.16,2.94-3.34,4.81-9.93,15.73,2.46,34.41,8.28,41.76l-9.52,0c-16.46,0-47.93.06-57.44.08,1.71-3.43,4.27-8.7,5.57-12.23,3-8.2,6.83-18.42,1.91-28.4-.77-1.57-1.75-3.28-2.79-5.1-2-3.44-4.2-7.35-5-10.43-.87-3.25-.08-6.31.82-9.85a46.67,46.67,0,0,0,1.26-6.08c.79-6.76-.6-13.21-1.94-19.44-.35-1.63-.71-3.32-1-5-.07-.37-.41-1.94-1-4.69-.5-2.29-1.18-5.38-1.58-7.27a7.69,7.69,0,0,1,.85,0,10,10,0,0,1,3.28.58,4.1,4.1,0,0,1,1.41.8,8.87,8.87,0,0,1,2,3.44,25.16,25.16,0,0,0,2.75,4.91l0,.06c3.71,5.57,8.4,11.75,15,15.35a23.34,23.34,0,0,0,8.84,2.77c.69.06,1.39.09,2.07.09,13.19,0,21.79-12,28.7-21.72,1.49-2.09,2.9-4.06,4.29-5.84a1.15,1.15,0,0,1,.9-.45v-2m0,0a3.13,3.13,0,0,0-2.47,1.21c-8,10.2-16.62,26.79-31.42,26.79-.62,0-1.24,0-1.88-.08a21.06,21.06,0,0,1-8.07-2.54c-6.11-3.33-10.52-9-14.31-14.7a23.65,23.65,0,0,1-2.6-4.58,10.52,10.52,0,0,0-2.5-4.22A6.09,6.09,0,0,0,60,48.21a12.34,12.34,0,0,0-3.94-.69,7.59,7.59,0,0,0-3.16.62c-.07,0,2.76,12.75,3,13.74,1.51,7.91,3.9,15.64,2.94,23.81-.69,5.86-3.54,11-2,16.67,1.32,5,5.68,11.29,8,15.9,4.4,8.93,1.32,17.9-2,26.83-1.63,4.4-5.37,11.81-6.58,14.17a.51.51,0,0,0,.46.74h0c5.9,0,41.72-.08,59.85-.08l12.69,0h0a.51.51,0,0,0,.38-.84c-3.9-4.41-20.75-25.08-10.16-41.85,3.36-5.32,6.36-8,8-12.93,2.4-7.46-2.28-15.47-2-22.85.16-3.86,1.29-4.11,2-8,.77-4.19.84-11.64,1-15.9.08-2.42,2-6.83,3.28-8.83a.65.65,0,0,0-.41-1,58.46,58.46,0,0,0-5.84-.28Z"/><path class="cls-1" d="M119.36,71.42a27.25,27.25,0,0,1-9,10.15A40.83,40.83,0,0,1,98,87.31c-1.12.27-2.22.59-3.34.82l-3.39.53c-.56.08-1.12.2-1.69.25L87.82,89q-1.71.12-3.42.21c-2.28,0-4.55-.1-6.83-.18-2.26-.28-4.52-.52-6.76-.82,2.27.08,4.53.22,6.79.33s4.52,0,6.77-.1a62.1,62.1,0,0,0,13.31-2.12A42,42,0,0,0,109.94,81a32.62,32.62,0,0,0,2.72-2L114,77.89c.42-.38.81-.79,1.22-1.18A24.73,24.73,0,0,0,119.36,71.42Z"/><path class="cls-1" d="M114.94,80.17c-1,3.32-3.45,6-6,8.21a37.35,37.35,0,0,1-8.77,5.44c-.39.18-.78.37-1.17.54l-1.2.47-2.4.94c-1.64.51-3.27,1.07-4.93,1.5s-3.33.82-5,1.15-3.38.57-5.07.8c1.65-.45,3.31-.85,5-1.27s3.27-1,4.9-1.41L95,94.89l2.35-1,1.18-.48c.38-.17.76-.36,1.14-.54L102,91.83l2.21-1.23a41.09,41.09,0,0,0,4.21-2.81,26.09,26.09,0,0,0,3.72-3.41A14.4,14.4,0,0,0,114.94,80.17Z"/><path class="cls-1" d="M112.72,88.92a17,17,0,0,1-4.16,6.83,27.78,27.78,0,0,1-6.38,4.93,38.56,38.56,0,0,1-7.36,3.24c-1.29.38-2.58.72-3.87,1.06s-2.63.5-4,.7c1.27-.42,2.55-.78,3.82-1.17s2.5-.85,3.74-1.31a52.83,52.83,0,0,0,7.13-3.38A34.13,34.13,0,0,0,108,95.21a24.34,24.34,0,0,0,2.63-2.92A15.07,15.07,0,0,0,112.72,88.92Z"/><path class="cls-1" d="M119.36,110.05a12.54,12.54,0,0,1-1.75,2.57,17.59,17.59,0,0,1-2.23,2.17,15.34,15.34,0,0,1-5.43,3c.81-.66,1.64-1.23,2.44-1.86s1.59-1.23,2.36-1.88C116.32,112.76,117.8,111.42,119.36,110.05Z"/><path class="cls-1" d="M62.89,107.89a46.71,46.71,0,0,0,3.79,3.23c.65.5,1.32,1,2,1.42s1.4.87,2.12,1.36a9.76,9.76,0,0,1-4.73-2,11,11,0,0,1-1.87-1.8A7.34,7.34,0,0,1,62.89,107.89Z"/><path class="cls-1" d="M57.55,51.26c.15,1.62.4,3.2.67,4.77s.63,3.12,1.06,4.65a39.88,39.88,0,0,0,1.53,4.51,45.13,45.13,0,0,0,2.08,4.33,18,18,0,0,1-2.78-4A22.82,22.82,0,0,1,58.33,61,24.43,24.43,0,0,1,57.55,51.26Z"/><path class="cls-1" d="M61.68,54a21.93,21.93,0,0,0,.43,2.88,15.83,15.83,0,0,0,.82,2.69,24.16,24.16,0,0,0,1.28,2.54c.48.84,1,1.67,1.51,2.51a9.19,9.19,0,0,1-2.15-2.07A11.32,11.32,0,0,1,62,59.92a9.57,9.57,0,0,1-.68-3A7.7,7.7,0,0,1,61.68,54Z"/><path class="cls-1" d="M69.7,73.53c.77.89,1.54,1.75,2.33,2.59s1.6,1.64,2.46,2.37a21.49,21.49,0,0,0,2.73,2,16.1,16.1,0,0,0,3.14,1.36,8.06,8.06,0,0,1-3.5-.67,13,13,0,0,1-3-1.94,16.16,16.16,0,0,1-2.4-2.63A13,13,0,0,1,69.7,73.53Z"/><path class="cls-1" d="M66.85,77.07c.71,1,1.27,2,1.9,2.94.3.48.63.92,1,1.39s.7.88,1.1,1.37a4.94,4.94,0,0,1-2.89-2.22,7.21,7.21,0,0,1-.79-1.66A5.06,5.06,0,0,1,66.85,77.07Z"/><path class="cls-1" d="M125,51.26c-1.66,2.9-3.42,5.68-5.1,8.52q-1.27,2.1-2.43,4.28a26,26,0,0,0-2,4.51,14.79,14.79,0,0,1,1.3-4.84A36,36,0,0,1,119,59.27,47,47,0,0,1,125,51.26Z"/><path class="cls-1" d="M127.4,49.59a56.29,56.29,0,0,1-2.24,5.94c-.85,1.93-1.7,3.84-2.75,5.71a24.71,24.71,0,0,1,1.84-6.1A26.72,26.72,0,0,1,127.4,49.59Z"/><path class="cls-1" d="M111.54,67.35a12.05,12.05,0,0,1-3.5,5,18.15,18.15,0,0,1-5.29,3.18,23.75,23.75,0,0,1-6,1.45c-1,.11-2,.14-3.06.18s-2-.08-3-.17c1-.13,2-.21,3-.31l3-.46c1-.26,2-.36,2.91-.68l1.43-.41,1.39-.53a21.32,21.32,0,0,0,5.16-2.85A15.32,15.32,0,0,0,111.54,67.35Z"/></svg>