<svg id="图层_1" data-name="图层 1" xmlns="http://www.w3.org/2000/svg" viewBox="0 0 186 186"><defs><style>.cls-1{fill:#5b3b2f;}.cls-2{fill:#f4e2e9;}</style></defs><path class="cls-1" d="M102.61,58.55a9.25,9.25,0,0,1,6.26-3.62,17.48,17.48,0,0,1,7.4.52c2.42.74,4.56,2,6.84,2.68a6.15,6.15,0,0,0,3.3.2,4.47,4.47,0,0,0,2.48-1.88h0a.73.73,0,0,1,1-.18.75.75,0,0,1,.18,1l0,0a5.88,5.88,0,0,1-3.39,2.28,7.3,7.3,0,0,1-3.93-.4c-2.41-.85-4.47-2.23-6.72-3a16.74,16.74,0,0,0-7.13-.86A9.07,9.07,0,0,0,102.61,58.55Z"/><path class="cls-1" d="M80.42,59.08a15.15,15.15,0,0,0-14-2.89c-2.32.74-4.44,2.13-6.86,3a10.44,10.44,0,0,1-3.89.81,6,6,0,0,1-3.88-1.47l0,0a.74.74,0,0,1-.06-1,.73.73,0,0,1,1-.06l0,0a4.55,4.55,0,0,0,2.95,1.28,9.63,9.63,0,0,0,3.47-.56c2.33-.74,4.52-2,7-2.72A15.56,15.56,0,0,1,80.42,59.08Z"/><path class="cls-1" d="M92.72,58.55a2.86,2.86,0,0,1-.39,1.63A2.72,2.72,0,0,1,91,61.35a2.76,2.76,0,0,1-1.79.06,4.18,4.18,0,0,1-.78-.34,5.54,5.54,0,0,1-.64-.54,6.37,6.37,0,0,1,.8.08c.26,0,.51,0,.75,0a3.41,3.41,0,0,0,1.3-.21A5.27,5.27,0,0,0,92.72,58.55Z"/><path class="cls-1" d="M86.29,41.23l.55,5c.09.83.21,1.65.35,2.47a14.91,14.91,0,0,0,.58,2.44,8.35,8.35,0,0,1-1-2.36,17.76,17.76,0,0,1-.47-2.5,23.68,23.68,0,0,1-.16-2.52A19.62,19.62,0,0,1,86.29,41.23Z"/><path class="cls-1" d="M96.18,39.26a45.67,45.67,0,0,1-1.07,5.55c-.24.91-.49,1.82-.79,2.72a13.93,13.93,0,0,1-1.11,2.61c.3-.9.51-1.81.74-2.72l.68-2.73C95.1,42.87,95.58,41.05,96.18,39.26Z"/><path class="cls-1" d="M83,26.79c3.41-.38,6.81-.59,10.22-.69,1.7-.07,3.4-.07,5.1-.1.85,0,1.7,0,2.55,0h.34a1.47,1.47,0,0,1,.25.08,1.19,1.19,0,0,1,.28.21,1.31,1.31,0,0,1,.35.56,4.3,4.3,0,0,1,.21.75,10.62,10.62,0,0,1,.16,1.34c.07.86.08,1.77.09,2.58a13.25,13.25,0,0,0,.31,2.43A11.24,11.24,0,0,0,105,38.45c2,2.68,5,4.48,7.91,6.14a32,32,0,0,0,4.47,2.22A18,18,0,0,0,122.06,48a23.32,23.32,0,0,0,4.87-.47,10.41,10.41,0,0,1,2.79,0,12.5,12.5,0,0,1,2.7.74,16.62,16.62,0,0,1,7.89,7.09,14.5,14.5,0,0,1,1.93,10.12l-.2,0a15.56,15.56,0,0,0-3-9.25,16.53,16.53,0,0,0-7.36-6,8.85,8.85,0,0,0-4.51-.65,24.21,24.21,0,0,1-5.28.27,21.26,21.26,0,0,1-9.53-4.32,36.17,36.17,0,0,1-7.8-6.71A15.82,15.82,0,0,1,102,34.26a14,14,0,0,1-.61-2.58c-.1-.88-.21-1.67-.37-2.49-.08-.41-.17-.81-.27-1.17a3.15,3.15,0,0,0-.16-.47c0-.05-.07-.09,0,0a.85.85,0,0,0,.16.11l.18.06h-.07c-.85,0-1.7,0-2.55,0-1.69,0-3.39,0-5.09-.1-3.4-.1-6.8-.3-10.2-.68Z"/><path class="cls-1" d="M100.92,27c-3.45.34-6.89.55-10.33.66-1.73.06-3.45.09-5.17.11H83.54a.39.39,0,0,0,.15,0c.33-.11.27-.18.28-.15a1.13,1.13,0,0,0-.09.15A16.85,16.85,0,0,0,83.2,30l-.57,2.48c-.19.86-.31,1.65-.56,2.57a11.18,11.18,0,0,1-2.78,4.56,29,29,0,0,1-4,3.36c-1.43,1-2.76,2-4.14,3.12a21.72,21.72,0,0,1-4.5,2.81A12.21,12.21,0,0,1,61.22,50c-1.83,0-3.52-.3-5.17-.38a10.58,10.58,0,0,0-4.6.67c-2.86,1.16-4.82,4-5.87,7.15a24.38,24.38,0,0,0-1.15,4.91,37.71,37.71,0,0,0-.38,5.11h-.2A26.66,26.66,0,0,1,44.2,57a15.43,15.43,0,0,1,2.18-5,10.21,10.21,0,0,1,4.27-3.63,11.74,11.74,0,0,1,5.51-.93c1.8.09,3.5.41,5.12.49a10.55,10.55,0,0,0,4.66-.73,39.05,39.05,0,0,0,4.53-2.18c3-1.7,6.09-3.34,8.34-5.87A9.08,9.08,0,0,0,81,34.81c.21-1.6.32-3.41.62-5.12A11.79,11.79,0,0,1,82.29,27a2.59,2.59,0,0,1,.23-.42,1.34,1.34,0,0,1,.76-.56l.23,0h.62l1.29,0c1.72,0,3.44.05,5.17.11,3.44.11,6.88.31,10.33.66Z"/><path class="cls-1" d="M43.85,71.22A139,139,0,0,0,49,91.31c2.15,6.58,4.62,13,6.84,19.66a120.88,120.88,0,0,1,5.23,20.27,91.29,91.29,0,0,1,1,10.43c.06,1.74,0,3.49,0,5.23a29.12,29.12,0,0,1-.65,5.19,49.81,49.81,0,0,0-.18-10.36c-.35-3.44-.87-6.86-1.52-10.25A158.88,158.88,0,0,0,54,111.59l-3.38-9.84c-1.09-3.3-2.18-6.62-3.12-10A91.77,91.77,0,0,1,43.85,71.22Z"/><path class="cls-1" d="M141.4,67.46c0,1.82-.07,3.66-.18,5.48s-.41,3.64-.68,5.45-.68,3.59-1.07,5.38-.9,3.54-1.43,5.28l-1.78,5.18c-.64,1.7-1.27,3.41-1.85,5.14-1.19,3.43-2.2,6.92-3.17,10.42-.49,1.76-.93,3.52-1.45,5.26s-.95,3.49-1.47,5.23l-1.4,5.24-1.32,5.25a136.27,136.27,0,0,0-3.75,21.32h-.2a71.86,71.86,0,0,1,1.9-21.81c.46-1.77.88-3.55,1.39-5.3l1.6-5.23c1.12-3.47,2.36-6.9,3.67-10.29s2.55-6.81,3.59-10.29,1.81-7,2.66-10.55c.41-1.77.83-3.52,1.31-5.26s.82-3.52,1.27-5.27.73-3.53,1.14-5.29.64-3.56,1-5.35Z"/><path class="cls-1" d="M92.91,98l-1,4.65a10.7,10.7,0,0,1-.54-1.15,11.19,11.19,0,0,1-.32-1.57,13.09,13.09,0,0,1,.09-3.42,40.27,40.27,0,0,0,.11-9.69c-.19-1.4-.57-2.76-.82-4.14a10.07,10.07,0,0,1-.31-3.1A2.32,2.32,0,0,1,92,77.81c.6-.18,1.72-.6,2,.6a11.38,11.38,0,0,1-.14,3.24c-.23,2.19-.66,4.3-.92,6.47a43,43,0,0,0-.33,5.21A26.61,26.61,0,0,0,92.72,96,7.08,7.08,0,0,1,92.91,98Z"/><path class="cls-2" d="M56.74,159H92.47l34.66-.07s-10.83-15.37-12.51-24c-1.39-7.12-.38-13.38,3.78-19.42,3-4.32,6.63-8.39,8-13.44,1.53-5.44.28-11.21-.61-16.79-1.22-7.68-1.79-15.52-3.91-23-1.66-5.9-5.65-16.6-11.38-19.72a27,27,0,0,1-4-2.84c-.81-.65-1.33-1.67-2.41-2l-.23.21A10.32,10.32,0,0,0,105.5,41c3.44,5.81,1.94,13.63.78,19.88-1.37,7.36-2.5,15.2-6,21.92a92.48,92.48,0,0,1-5.06,7.78,25.64,25.64,0,0,0-2.19,4c-.47,1.13-.73,2.35-1.24,3.41-.9-4.31-1.54-6.48-3.87-9.26C78.09,77,72.83,54.44,79,40.07c.16-.36.34-.71.5-1.06,0-.21,0-.43,0-.64-.13-.43-3.18,1.44-3.37,1.57a19.47,19.47,0,0,0-5.47,6C63.72,58,59.87,72.39,58,86.17c-.54,4.07-1.22,8.41-.76,12.49.81,7.08,5,11.62,7.92,17.81s3,13.24,1,19.79C63.74,144.4,56.74,159,56.74,159Z"/><path class="cls-1" d="M92.47,160H56.74a1,1,0,0,1-.89-1.41c.07-.15,7-14.64,9.39-22.62a26.92,26.92,0,0,0-.94-19.09c-.9-1.92-1.95-3.71-3-5.45-2.29-3.92-4.46-7.62-5-12.66a48.17,48.17,0,0,1,.62-11.67L57.06,86c2.1-15.85,6.39-29.52,12.75-40.63a20.36,20.36,0,0,1,5.74-6.26s3.09-2.14,4.21-1.77a1.15,1.15,0,0,1,.68.7.89.89,0,0,1,0,.32l0,.64a1,1,0,0,1-.1.39l-.18.39c-.11.21-.21.42-.3.64-6.2,14.48-.33,36.75,8.81,47.67A15.43,15.43,0,0,1,92,94.56c0-.11.09-.22.13-.32a26.18,26.18,0,0,1,2.27-4.19c.58-.88,1.19-1.75,1.79-2.62a44.72,44.72,0,0,0,3.22-5.07c3-5.84,4.24-12.61,5.42-19.15.16-.84.31-1.68.46-2.5l0-.19c1.12-6,2.52-13.57-.7-19l-.4-.64A8.29,8.29,0,0,1,103,38.09a1,1,0,0,1,.28-.9l.22-.22a1,1,0,0,1,1-.24,4.64,4.64,0,0,1,2.11,1.51,5.82,5.82,0,0,0,.65.66A27.07,27.07,0,0,0,111,41.64c6.71,3.65,10.77,16.47,11.85,20.31a116.49,116.49,0,0,1,3,16.26c.3,2.26.61,4.61,1,6.9l.3,1.81c.84,5.08,1.72,10.34.29,15.39-1.15,4.1-3.69,7.56-6.14,10.9-.69.94-1.39,1.89-2.05,2.85-3.86,5.59-5,11.52-3.63,18.66,1.63,8.36,12.25,23.5,12.36,23.65a1,1,0,0,1-.8,1.55Zm-34.18-2H92.47l32.79-.08c-2.8-4.15-10.21-15.62-11.61-22.85-1.5-7.69-.24-14.1,3.94-20.17.67-1,1.38-1.93,2.08-2.89,2.35-3.2,4.78-6.51,5.83-10.26,1.31-4.63.47-9.67-.33-14.53q-.17-.93-.3-1.83c-.37-2.32-.68-4.67-1-7a113.65,113.65,0,0,0-2.9-16c-2.12-7.53-6.1-16.51-10.9-19.12a24.48,24.48,0,0,1-3.47-2.4c3.26,6,1.83,13.7.67,19.92l0,.18q-.23,1.23-.45,2.49c-1.22,6.69-2.47,13.6-5.62,19.71a47.41,47.41,0,0,1-3.35,5.29c-.59.85-1.19,1.7-1.75,2.57A23.55,23.55,0,0,0,94,95c-.19.47-.35,1-.5,1.44a16.08,16.08,0,0,1-.77,2,1,1,0,0,1-1,.55,1,1,0,0,1-.85-.78C90,94,89.39,92,87.19,89.39c-9.64-11.51-15.61-34-9.25-49.38-.54.3-1,.6-1.25.74a18.51,18.51,0,0,0-5.17,5.64C65.29,57.27,61.09,70.7,59,86.3l-.14,1.07a45.94,45.94,0,0,0-.62,11.17c.53,4.63,2.6,8.16,4.78,11.9,1,1.77,2.11,3.6,3,5.61a28.85,28.85,0,0,1,1,20.49C65.11,143.27,60.11,154.15,58.29,158Z"/></svg>