<svg id="图层_1" data-name="图层 1" xmlns="http://www.w3.org/2000/svg" viewBox="0 0 186 186"><defs><style>.cls-1{fill:#5b3b2f;}.cls-2{fill:#f4e2e9;}</style></defs><path class="cls-1" d="M102.73,58.94a9.33,9.33,0,0,1,6.33-3.66,17.59,17.59,0,0,1,7.49.52c2.45.75,4.61,2,6.91,2.71a6.2,6.2,0,0,0,3.34.2,4.49,4.49,0,0,0,2.51-1.9h0a.75.75,0,0,1,1.23.86l0,0A6,6,0,0,1,127.1,60a7.39,7.39,0,0,1-4-.41c-2.44-.85-4.53-2.25-6.8-3.07a17,17,0,0,0-7.21-.86A9.12,9.12,0,0,0,102.73,58.94Z"/><path class="cls-1" d="M80.27,59.47a15.34,15.34,0,0,0-14.15-2.92c-2.34.74-4.5,2.16-6.94,3.08a10.91,10.91,0,0,1-3.94.82A6,6,0,0,1,51.31,59l0,0a.76.76,0,0,1-.06-1.06.75.75,0,0,1,1.06-.06l0,0a4.6,4.6,0,0,0,3,1.3,9.62,9.62,0,0,0,3.5-.57c2.36-.75,4.58-2.06,7.12-2.75A15.72,15.72,0,0,1,80.27,59.47Z"/><path class="cls-1" d="M92.72,58.94a2.85,2.85,0,0,1-.4,1.65,2.71,2.71,0,0,1-3.17,1.24,4,4,0,0,1-.79-.35,5.64,5.64,0,0,1-.65-.54,6.54,6.54,0,0,1,.81.08c.26,0,.51,0,.75,0a3.49,3.49,0,0,0,1.32-.22A5.35,5.35,0,0,0,92.72,58.94Z"/><path class="cls-1" d="M86.21,41.42l.56,5.06c.1.91.23,1.83.39,2.73a16.26,16.26,0,0,0,.55,2.24,8.19,8.19,0,0,1-.94-2.29,15.19,15.19,0,0,1-.45-2.23,24.24,24.24,0,0,1-.21-3A19.86,19.86,0,0,1,86.21,41.42Z"/><path class="cls-1" d="M96.22,39.41A44.27,44.27,0,0,1,95.13,45c-.24.93-.49,1.85-.8,2.75a14.29,14.29,0,0,1-1.11,2.65c.3-.91.51-1.83.74-2.75l.69-2.77C95.13,43.07,95.61,41.23,96.22,39.41Z"/><path class="cls-1" d="M82.92,26.8c3.44-.38,6.88-.59,10.33-.7C95,26,96.69,26,98.42,26c.86,0,1.72,0,2.58,0h.2l.14,0a.92.92,0,0,1,.25.08,1.21,1.21,0,0,1,.29.2,1.57,1.57,0,0,1,.36.57,4.65,4.65,0,0,1,.21.76,13.22,13.22,0,0,1,.16,1.36c.07.87.07,1.79.09,2.61A12.74,12.74,0,0,0,103,34.1a11.55,11.55,0,0,0,2.14,4.5c2.06,2.71,5,4.53,8,6.21a33.47,33.47,0,0,0,4.53,2.25,18.25,18.25,0,0,0,4.72,1.22,23.32,23.32,0,0,0,4.93-.47,10.69,10.69,0,0,1,2.83,0,12.28,12.28,0,0,1,2.72.75,16.8,16.8,0,0,1,8,7.18A14.67,14.67,0,0,1,142.82,66l-.2,0a15.71,15.71,0,0,0-3.09-9.36,16.68,16.68,0,0,0-7.43-6,12,12,0,0,0-2.24-.63,11.2,11.2,0,0,0-2.32,0,25.49,25.49,0,0,1-5.35.27,21.59,21.59,0,0,1-9.64-4.37,36.55,36.55,0,0,1-7.89-6.8,15.71,15.71,0,0,1-2.56-4.62,13.59,13.59,0,0,1-.62-2.61c-.11-.89-.22-1.69-.38-2.52-.07-.41-.17-.82-.27-1.19a3.61,3.61,0,0,0-.16-.47c0-.05-.07-.09,0,0a.68.68,0,0,0,.16.11l.18.06H101c-.86,0-1.72,0-2.58,0-1.72,0-3.44,0-5.16-.1-3.44-.11-6.87-.31-10.31-.7Z"/><path class="cls-1" d="M101,27c-3.48.36-7,.56-10.45.67-1.74.06-3.49.1-5.23.11l-1.3,0h-.6l.15,0c.34-.12.28-.19.28-.15a1.55,1.55,0,0,0-.08.15,15.78,15.78,0,0,0-.69,2.3l-.57,2.51c-.2.87-.32,1.67-.57,2.6a11.3,11.3,0,0,1-2.82,4.62,29.08,29.08,0,0,1-4.06,3.39c-1.44,1-2.78,2.08-4.18,3.16a21.89,21.89,0,0,1-4.56,2.85,12.34,12.34,0,0,1-5.48,1.07c-1.85,0-3.57-.3-5.24-.39a10.75,10.75,0,0,0-4.64.69c-2.9,1.17-4.88,4.06-5.94,7.23a24.22,24.22,0,0,0-1.17,5,38.61,38.61,0,0,0-.39,5.17h-.2a26.89,26.89,0,0,1,.36-10.56,15.41,15.41,0,0,1,2.2-5,10.38,10.38,0,0,1,4.32-3.67,11.76,11.76,0,0,1,5.58-.93c1.81.09,3.54.4,5.18.49a10.66,10.66,0,0,0,4.71-.74,39.1,39.1,0,0,0,4.58-2.2c3-1.73,6.17-3.39,8.45-6a9.16,9.16,0,0,0,2.16-4.44c.21-1.63.32-3.45.63-5.18A12.09,12.09,0,0,1,82.16,27a2.72,2.72,0,0,1,.24-.42,1.3,1.3,0,0,1,.77-.57l.22,0H84l1.3,0c1.74,0,3.49.05,5.23.11,3.48.11,7,.32,10.45.67Z"/><path class="cls-1" d="M43.28,71.76a141.34,141.34,0,0,0,5.23,20.33c2.19,6.64,4.68,13.19,6.93,19.88a123.75,123.75,0,0,1,5.29,20.51,91.14,91.14,0,0,1,1,10.55c.06,1.77,0,3.54,0,5.3a29.69,29.69,0,0,1-.66,5.24,51,51,0,0,0-.18-10.48c-.36-3.48-.89-6.94-1.54-10.36a162.25,162.25,0,0,0-5.74-20.13l-3.42-10C49,99.3,47.94,96,47,92.55A92,92,0,0,1,43.28,71.76Z"/><path class="cls-1" d="M142,68c0,1.8-.07,3.59-.15,5.39s-.41,3.57-.66,5.36-.68,3.53-1,5.28-.9,3.48-1.41,5.2l-1.79,5.07c-.64,1.68-1.27,3.35-1.85,5-1.19,3.37-2.2,6.79-3.18,10.23-.49,1.72-.93,3.45-1.45,5.15s-1,3.43-1.48,5.13l-1.4,5.15c-.41,1.72-.86,3.43-1.3,5.15A133.76,133.76,0,0,0,122.56,151h-.2a69.17,69.17,0,0,1,1.81-21.44c.45-1.74.88-3.48,1.37-5.21l1.61-5.14c1.12-3.4,2.37-6.76,3.69-10.08s2.56-6.67,3.61-10.08,1.8-6.91,2.64-10.36c.4-1.73.82-3.45,1.3-5.16s.81-3.45,1.25-5.17.72-3.47,1.12-5.21.63-3.49,1-5.25Z"/><path class="cls-2" d="M127.1,159c-7.06-.07-14.57-.13-22-.13H87.66c-13.43,0-28.18,0-28.18,0l-.79,0c2.06-4.1,8-16.14,10-23.42a24.33,24.33,0,0,0-.16-13.34,35.36,35.36,0,0,0-3.86-9.56,31,31,0,0,0-2.49-3.44,26.75,26.75,0,0,1-2.7-3.84,13,13,0,0,1-1.47-6.42,29.51,29.51,0,0,1,1.51-7.61c.41-1.44.84-2.93,1.14-4.43a21.15,21.15,0,0,0,.42-6,18.5,18.5,0,0,0-.56-3.17,9.86,9.86,0,0,0-.45-1.09,7.65,7.65,0,0,1-.51-1.31c.06-1,.22-1.93.38-3s.35-2.14.42-3.24l.1-1.59c.16-2.3.32-4.69.26-7.07v-.12a1.94,1.94,0,0,0,0-.77,3,3,0,0,0,0-1.29,15.51,15.51,0,0,0-1.45-7l-.21-.46a3.2,3.2,0,0,1-.36-1.1,1.44,1.44,0,0,1,.56-.08,8.38,8.38,0,0,1,1.41.18,8.9,8.9,0,0,0,1.48.18h.54c1.1,0,1.3.1,1.92,1.61.15.36.29.71.42,1.07a15.3,15.3,0,0,0,1.86,3.73,53.26,53.26,0,0,0,5.38,6.14,52.31,52.31,0,0,0,12.94,9.25,65,65,0,0,0,19.17,5.87l1,.15a73.38,73.38,0,0,0,11.34,1.18,24.39,24.39,0,0,0,6.55-.79,3.29,3.29,0,0,1,.49,0h.31c0,.28-.14.66-.2.9a5.87,5.87,0,0,0-.22,1.22,16.92,16.92,0,0,0,.34,3.55c.29,1.51.73,3,1.15,4.44.34,1.16.66,2.26.91,3.37,1.07,4.7,1.1,9.22.08,12.08-1.35,3.78-2.34,4.78-3.58,6a18.94,18.94,0,0,0-3.81,5.25,33.51,33.51,0,0,0,1.15,32.64c1.38,2.28,2.83,4.49,4.31,6.75.84,1.28,2.27,3.31,3.27,4.73Z"/><path class="cls-1" d="M60.13,50.58l.36.06a9.2,9.2,0,0,0,1.65.21h.55a2.72,2.72,0,0,1,.52,0,4.19,4.19,0,0,1,.48,1c.14.34.27.69.41,1a15.71,15.71,0,0,0,2,4A53.41,53.41,0,0,0,84.76,72.52a65.38,65.38,0,0,0,19.47,6l1,.16a75,75,0,0,0,11.5,1.19,26,26,0,0,0,6.05-.63,4.3,4.3,0,0,0-.12.92,17,17,0,0,0,.36,3.76c.3,1.56.74,3.07,1.17,4.53.33,1.15.65,2.23.9,3.31,1,4.53,1.07,8.84.11,11.52-1.28,3.57-2.2,4.5-3.35,5.68a20.09,20.09,0,0,0-4,5.49A34.47,34.47,0,0,0,119.06,148c1.36,2.28,2.83,4.51,4.33,6.79.56.85,1.38,2,2.16,3.16-6.56-.06-13.49-.11-20.39-.11h-3.72c-3.83,0-8.71,0-13.77,0-11.57,0-24.12,0-27.38,0,2.49-5,7.52-15.53,9.41-22.18a25.25,25.25,0,0,0-.17-13.86,36.59,36.59,0,0,0-4-9.83l0-.08A35.36,35.36,0,0,0,63,108.45a24.61,24.61,0,0,1-2.6-3.69,12,12,0,0,1-1.36-5.93,28.87,28.87,0,0,1,1.47-7.35c.42-1.46.85-3,1.16-4.52a22,22,0,0,0,.44-6.3,18.66,18.66,0,0,0-.6-3.36,8.69,8.69,0,0,0-.5-1.24c-.12-.27-.33-.73-.41-1,.07-.89.21-1.79.36-2.74s.35-2.18.43-3.32c0-.53.07-1.06.1-1.59.16-2.33.33-4.74.26-7.13v-.07a3.56,3.56,0,0,0,0-.83,3.83,3.83,0,0,0,0-1.35,16.56,16.56,0,0,0-1.53-7.3l-.07-.18m-.87-2.11a1.88,1.88,0,0,0-1.25.38c-.75.67,0,1.92.33,2.64a14.39,14.39,0,0,1,1.37,6.71,1.83,1.83,0,0,1-.08,1.28c.22.26.12.56.13.85.08,2.87-.18,5.71-.36,8.57-.13,2.1-.67,4.15-.8,6.25,0,.6.83,2.09,1,2.68a16,16,0,0,1,.53,3,20.14,20.14,0,0,1-.4,5.74c-.82,4.08-2.58,8-2.67,12.22a14,14,0,0,0,1.59,6.91c1.41,2.63,3.62,4.71,5.18,7.26l0,.06a35.2,35.2,0,0,1,3.74,9.32,23.17,23.17,0,0,1,.17,12.79c-2.15,7.6-8.7,20.73-10.32,23.93a.52.52,0,0,0,.44.75l1.59.05s14.75,0,28.19,0h17.49c7.31,0,14.62.06,21.93.13h2.34s-3-4.2-4.37-6.28-2.92-4.44-4.29-6.71a32.33,32.33,0,0,1-1.12-31.67c3.33-6.34,4.87-4.23,7.44-11.42,1.32-3.68.82-8.84,0-12.64-.58-2.57-1.55-5.15-2.06-7.77a16,16,0,0,1-.32-3.34c0-.66.65-2.23.36-2.79-.14-.29-.73-.38-1.25-.38a3.27,3.27,0,0,0-.75.08,23.94,23.94,0,0,1-6.29.75,81.65,81.65,0,0,1-12.21-1.32,63.34,63.34,0,0,1-18.87-5.78,51.41,51.41,0,0,1-18-15.09,20.61,20.61,0,0,1-2.15-4.58c-.72-1.73-1.21-2.23-2.85-2.23h-.55c-.78,0-1.92-.37-2.88-.37Z"/></svg>