<svg id="图层_1" data-name="图层 1" xmlns="http://www.w3.org/2000/svg" viewBox="0 0 186 186"><defs><style>.cls-1{fill:#5b3b2f;}.cls-2{fill:#f4e2e9;}</style></defs><path class="cls-1" d="M102.54,58.32a9.18,9.18,0,0,1,6.21-3.6,17.25,17.25,0,0,1,7.35.52c2.4.73,4.53,2,6.78,2.65a6.19,6.19,0,0,0,3.28.21,4.5,4.5,0,0,0,2.46-1.88h0a.73.73,0,0,1,1-.18.75.75,0,0,1,.18,1l0,0a5.91,5.91,0,0,1-3.36,2.27,7.32,7.32,0,0,1-3.91-.41c-2.39-.84-4.44-2.21-6.67-3a16.66,16.66,0,0,0-7.08-.85A9,9,0,0,0,102.54,58.32Z"/><path class="cls-1" d="M80.51,58.84a15.14,15.14,0,0,0-13.91-3c-2.33.73-4.46,2.1-6.84,3a10.46,10.46,0,0,1-3.79.77,5.69,5.69,0,0,1-3.71-1.44h0a.5.5,0,0,1,.66-.74h0A4.72,4.72,0,0,0,56,58.72a9.57,9.57,0,0,0,3.51-.6c2.33-.76,4.49-2.06,6.95-2.74A15.36,15.36,0,0,1,80.51,58.84Z"/><path class="cls-1" d="M92.72,58.32a2.74,2.74,0,0,1-.39,1.61A2.66,2.66,0,0,1,91,61.1a2.69,2.69,0,0,1-1.77,0,3.54,3.54,0,0,1-.77-.34,4.1,4.1,0,0,1-.64-.53,6.37,6.37,0,0,1,.8.08c.26,0,.5,0,.73,0a3.49,3.49,0,0,0,1.29-.22A5.15,5.15,0,0,0,92.72,58.32Z"/><path class="cls-1" d="M86.34,41.13l.55,5c.09.83.21,1.64.34,2.46A16.06,16.06,0,0,0,87.81,51a8.23,8.23,0,0,1-1-2.34,17.46,17.46,0,0,1-.46-2.48,23.33,23.33,0,0,1-.16-2.51A19.09,19.09,0,0,1,86.34,41.13Z"/><path class="cls-1" d="M96.16,39.16a43,43,0,0,1-1.07,5.52c-.23.9-.48,1.8-.78,2.69a13.53,13.53,0,0,1-1.1,2.6c.3-.89.5-1.8.73-2.7l.68-2.72C95.09,42.75,95.56,40.94,96.16,39.16Z"/><path class="cls-1" d="M83.11,26.79c3.38-.38,6.75-.59,10.13-.69,1.69-.07,3.38-.07,5.07-.1.85,0,1.69,0,2.54,0h.33a1.47,1.47,0,0,1,.25.08,1,1,0,0,1,.28.21,1.35,1.35,0,0,1,.35.55,4.84,4.84,0,0,1,.21.75,13,13,0,0,1,.16,1.33c.07.86.07,1.77.09,2.57a12.22,12.22,0,0,0,.3,2.41,11.24,11.24,0,0,0,2.1,4.41c2,2.66,4.94,4.45,7.85,6.1a33.29,33.29,0,0,0,4.44,2.2,18,18,0,0,0,4.64,1.2,23,23,0,0,0,4.83-.47,10.26,10.26,0,0,1,2.77,0,12.31,12.31,0,0,1,2.68.73,16.5,16.5,0,0,1,7.83,7,14.39,14.39,0,0,1,1.92,10l-.2,0a15.5,15.5,0,0,0-3-9.19,16.4,16.4,0,0,0-7.3-5.92,11.4,11.4,0,0,0-2.19-.61,10.79,10.79,0,0,0-2.28,0,23.84,23.84,0,0,1-5.24.27,21.26,21.26,0,0,1-9.47-4.29,36.19,36.19,0,0,1-7.74-6.67,15.79,15.79,0,0,1-2.51-4.53,14,14,0,0,1-.6-2.56c-.11-.88-.22-1.66-.37-2.48-.08-.4-.17-.8-.27-1.16a3.61,3.61,0,0,0-.16-.47c0-.05-.07-.08,0,0a.61.61,0,0,0,.16.11l.18.06h-.07c-.84,0-1.68,0-2.53,0-1.68,0-3.37,0-5-.1-3.37-.1-6.75-.3-10.12-.68Z"/><path class="cls-1" d="M100.86,27c-3.42.34-6.84.55-10.26.66-1.7.06-3.41.09-5.12.11H83.62a.36.36,0,0,0,.14,0c.33-.11.28-.18.28-.15a.63.63,0,0,0-.08.15A14.87,14.87,0,0,0,83.28,30l-.56,2.46c-.2.85-.32,1.64-.56,2.55a11.2,11.2,0,0,1-2.76,4.53,28.56,28.56,0,0,1-4,3.33c-1.42,1-2.74,2-4.11,3.1a22.17,22.17,0,0,1-4.47,2.8,12.31,12.31,0,0,1-5.38,1c-1.82,0-3.5-.3-5.14-.39a10.49,10.49,0,0,0-4.55.68c-2.85,1.14-4.79,4-5.83,7.09a24.59,24.59,0,0,0-1.15,4.86,38.94,38.94,0,0,0-.38,5.08h-.19a26.31,26.31,0,0,1,.34-10.37,15.11,15.11,0,0,1,2.16-4.93A10.19,10.19,0,0,1,51,48.26a11.72,11.72,0,0,1,5.48-.92c1.78.09,3.47.4,5.08.49a10.4,10.4,0,0,0,4.62-.73A37.52,37.52,0,0,0,70.63,45c3-1.7,6.05-3.33,8.29-5.84A9,9,0,0,0,81,34.75c.2-1.59.31-3.38.61-5.08A12.35,12.35,0,0,1,82.36,27c.06-.12.13-.25.23-.41a1.34,1.34,0,0,1,.76-.56l.23,0h.62l1.28,0c1.71,0,3.42.05,5.12.11,3.42.11,6.84.31,10.26.66Z"/><path class="cls-1" d="M44.22,70.89a137.28,137.28,0,0,0,5.14,19.94c2.14,6.53,4.59,13,6.8,19.51a122.54,122.54,0,0,1,5.19,20.12,90,90,0,0,1,1,10.36c.06,1.73,0,3.46,0,5.19a28.79,28.79,0,0,1-.65,5.15,49.14,49.14,0,0,0-.17-10.29c-.35-3.41-.87-6.8-1.52-10.16A158.35,158.35,0,0,0,54.3,111L51,101.19c-1.09-3.27-2.16-6.56-3.1-9.89A91,91,0,0,1,44.22,70.89Z"/><path class="cls-1" d="M141,67.16c0,1.81-.07,3.63-.17,5.44s-.41,3.61-.68,5.41-.67,3.56-1.06,5.34-.89,3.51-1.42,5.24l-1.77,5.14c-.64,1.69-1.26,3.39-1.83,5.1-1.18,3.41-2.19,6.87-3.15,10.35-.48,1.74-.92,3.49-1.44,5.21s-.94,3.47-1.45,5.2l-1.4,5.2L125.36,130a136.79,136.79,0,0,0-3.73,21.16h-.19a71.15,71.15,0,0,1,1.88-21.65c.45-1.75.87-3.52,1.37-5.26l1.6-5.2c1.11-3.44,2.34-6.84,3.64-10.21s2.53-6.76,3.57-10.21,1.79-7,2.63-10.47c.41-1.75.82-3.5,1.3-5.22s.82-3.49,1.26-5.23.73-3.5,1.14-5.25.63-3.54,1-5.31Z"/><path class="cls-2" d="M116.35,136.5a40.12,40.12,0,0,1-1.2-7.27c-.51-7.7,3.3-13.21,7.09-19.56,1.08-1.81,2.13-3.63,3.13-5.48a16.17,16.17,0,0,0,1.83-5.57c1.07-8.4-3.45-16.18-4.74-24.28-1.32-8.27-3.14-15.15-1.54-23.58.09-.47.51-1-.11-1.31s-2.84-1.53-3.51-1.28l-.08,0a.86.86,0,0,0-.23.43c-.1.32-2,4.94-2.71,7.33-3.21,10.38-11,21.44-23.19,21.52C79.21,77.58,69.42,67,66.9,55.94a24.89,24.89,0,0,1-.46-6.44c0-.24,0-.48,0-.72s.15-.53-.25-.4c-.92.29-1.81.71-2.7,1.08-.46.19-.92.37-1.4.52s-.77.18-.79.66c0,.27,0,.54-.05.8,0,.54,0,1.08,0,1.62,0,1.08,0,2.15-.06,3.23C60.66,64,61,72,60,79.69s-4.42,15.74-2.13,23.53c1.24,4.22,4,7.77,6.3,11.46a25,25,0,0,1,3.64,9.37c1,6.06-.55,12.19-2.75,17.82-1.07,2.72-2.33,5.37-3.66,8-.37.73-3.27,6.36-4.33,8.42a.51.51,0,0,0,.46.75H92.63c10.11,0,30.92,0,35.75-.06a.51.51,0,0,0,.41-.82C126.46,155,118.08,143.16,116.35,136.5Z"/><path class="cls-1" d="M92.63,160H57.56a1.51,1.51,0,0,1-1.34-2.19c1.06-2.06,4-7.68,4.33-8.41,1.59-3.13,2.71-5.57,3.62-7.89,2.6-6.64,3.48-12.3,2.7-17.31a23.79,23.79,0,0,0-3.51-9c-.5-.81-1-1.61-1.55-2.41A35.28,35.28,0,0,1,57,103.5c-1.67-5.67-.42-11.39.78-16.93.51-2.31,1-4.7,1.31-7,.55-4.57.67-9.31.79-13.9.08-3.11.16-6.33.37-9.45.06-.84.06-1.68.07-2.57v-.6c0-.55,0-1.1,0-1.66l0-.39,0-.39a1.64,1.64,0,0,1,1.37-1.54l.11,0c.48-.15.95-.34,1.31-.49l.67-.29c.68-.29,1.38-.59,2.11-.82a1.17,1.17,0,0,1,1.19.18,1.23,1.23,0,0,1,.35,1.18,7.25,7.25,0,0,0,0,.73,24.49,24.49,0,0,0,.43,6.19C70.19,66,79.46,76.51,91,76.51h.12c11.69-.07,19.16-10.81,22.26-20.82.55-1.79,1.7-4.74,2.32-6.33.21-.54.36-.91.39-1a1.66,1.66,0,0,1,.54-.88,1.39,1.39,0,0,1,.37-.22c.79-.3,1.84.11,3.76,1.06a4.61,4.61,0,0,0,.48.23c.59.26,1.21.84.76,2.18a1.11,1.11,0,0,0-.07.22c-1.3,6.85-.3,12.57.85,19.19.23,1.32.47,2.67.69,4.06a64,64,0,0,0,2.25,8.65c1.57,5.09,3.21,10.36,2.5,15.91a17,17,0,0,1-1.94,5.9c-.94,1.74-2,3.55-3.15,5.52l-1,1.6c-3.46,5.72-6.44,10.65-6,17.4a38.7,38.7,0,0,0,1.16,7.08c1.68,6.45,9.83,17.94,12.29,21.3a1.5,1.5,0,0,1-1.21,2.39C123.55,160,102.74,160,92.63,160Zm-34.3-2h34.3c9.56,0,28.69-.05,34.82-.06-3-4.16-10.41-14.87-12.06-21.23a41.66,41.66,0,0,1-1.22-7.44c-.49-7.37,2.79-12.8,6.27-18.55l1-1.59c1.16-2,2.18-3.73,3.1-5.44a15,15,0,0,0,1.72-5.22c.65-5.12-.84-10-2.43-15.08a64.89,64.89,0,0,1-2.31-8.92c-.22-1.38-.45-2.72-.68-4-1.14-6.53-2.22-12.7-.85-19.89a1.9,1.9,0,0,1,.11-.39l-.22-.11a19.58,19.58,0,0,0-2-.89c-.08.21-.19.51-.34.88-.61,1.57-1.75,4.49-2.28,6.2C111.92,67,103.85,78.4,91.09,78.48H91c-9.7,0-21.74-7.8-25-22.32a25.38,25.38,0,0,1-.49-6.44l-.84.36-.69.29c-.4.16-.92.38-1.48.55l-.12,0c0,.07,0,.14,0,.21l0,.32c0,.52,0,1,0,1.57v.59c0,.89,0,1.8-.07,2.71-.21,3.07-.29,6.27-.37,9.36-.12,4.64-.24,9.43-.8,14.09-.29,2.39-.82,4.83-1.34,7.19-1.15,5.29-2.34,10.76-.82,15.94.92,3.15,2.8,6,4.61,8.77.53.81,1.06,1.63,1.57,2.45a26.07,26.07,0,0,1,3.79,9.74c.83,5.36-.09,11.36-2.82,18.33a88.38,88.38,0,0,1-3.69,8.06C62,151,59.58,155.61,58.33,158Z"/></svg>