<svg id="图层_1" data-name="图层 1" xmlns="http://www.w3.org/2000/svg" viewBox="0 0 186 186"><defs><style>.cls-1{fill:#5b3b2f;}.cls-2{fill:#f4e2e9;}</style></defs><path class="cls-1" d="M102.65,58.68A9.26,9.26,0,0,1,108.93,55a17.62,17.62,0,0,1,7.43.52c2.43.75,4.58,2,6.86,2.69a6.24,6.24,0,0,0,3.32.21A4.59,4.59,0,0,0,129,56.57h0a.74.74,0,0,1,1-.18.73.73,0,0,1,.18,1l0,0a5.92,5.92,0,0,1-3.4,2.29,7.47,7.47,0,0,1-4-.41c-2.41-.85-4.49-2.24-6.74-3a17,17,0,0,0-7.16-.86A9.1,9.1,0,0,0,102.65,58.68Z"/><path class="cls-1" d="M80.37,59.21a15.23,15.23,0,0,0-14-2.9c-2.32.74-4.46,2.14-6.89,3a10.66,10.66,0,0,1-3.9.82,6,6,0,0,1-3.9-1.48l0,0a.74.74,0,0,1-.06-1,.73.73,0,0,1,1-.06l0,0a4.61,4.61,0,0,0,3,1.29,9.52,9.52,0,0,0,3.48-.57c2.34-.74,4.54-2,7.06-2.72A15.58,15.58,0,0,1,80.37,59.21Z"/><path class="cls-1" d="M92.72,58.68a2.79,2.79,0,0,1-.4,1.63A2.66,2.66,0,0,1,91,61.49a2.82,2.82,0,0,1-1.79.06,3.94,3.94,0,0,1-.78-.35,4.14,4.14,0,0,1-.65-.54c.29,0,.55.05.81.08s.5,0,.74,0a3.47,3.47,0,0,0,1.31-.21A5.29,5.29,0,0,0,92.72,58.68Z"/><path class="cls-1" d="M86.26,41.3l.56,5c.09.83.21,1.66.35,2.48a15.28,15.28,0,0,0,.58,2.45,8.43,8.43,0,0,1-1-2.37,16.31,16.31,0,0,1-.46-2.51,23.88,23.88,0,0,1-.17-2.53A21.49,21.49,0,0,1,86.26,41.3Z"/><path class="cls-1" d="M96.2,39.31a47.23,47.23,0,0,1-1.08,5.57c-.24.92-.49,1.83-.8,2.73a14.37,14.37,0,0,1-1.1,2.62c.29-.9.5-1.81.73-2.73l.69-2.74C95.11,42.93,95.59,41.11,96.2,39.31Z"/><path class="cls-1" d="M83,26.79c3.41-.38,6.83-.58,10.25-.69C95,26,96.66,26,98.37,26c.86,0,1.71,0,2.57,0h.33a1,1,0,0,1,.25.09,1.21,1.21,0,0,1,.29.2,1.57,1.57,0,0,1,.35.56,4.65,4.65,0,0,1,.21.76,10.56,10.56,0,0,1,.16,1.35c.07.86.07,1.78.09,2.59a13.47,13.47,0,0,0,.31,2.44,11.42,11.42,0,0,0,2.12,4.46c2,2.69,5,4.5,7.94,6.16a32.31,32.31,0,0,0,4.49,2.23,18.55,18.55,0,0,0,4.69,1.22,23.62,23.62,0,0,0,4.89-.48,10.49,10.49,0,0,1,2.8,0,12.59,12.59,0,0,1,2.71.74,16.71,16.71,0,0,1,7.92,7.12,14.57,14.57,0,0,1,1.94,10.16l-.2,0a15.67,15.67,0,0,0-3.06-9.29,16.65,16.65,0,0,0-7.38-6,11.68,11.68,0,0,0-2.22-.61,10.35,10.35,0,0,0-2.3,0A24.49,24.49,0,0,1,122,50a21.38,21.38,0,0,1-9.57-4.34,36.71,36.71,0,0,1-7.83-6.74A16,16,0,0,1,102,34.3a15.24,15.24,0,0,1-.61-2.59c-.1-.89-.21-1.68-.37-2.51-.08-.4-.17-.81-.27-1.17a3.15,3.15,0,0,0-.16-.47s-.07-.09,0,0a.68.68,0,0,0,.16.11.78.78,0,0,0,.18,0h-.07c-.85,0-1.7,0-2.56,0-1.7,0-3.41,0-5.11-.1-3.41-.11-6.82-.31-10.23-.7Z"/><path class="cls-1" d="M101,27c-3.46.35-6.92.56-10.37.67-1.73.06-3.46.1-5.19.11l-1.29,0h-.45c.34-.12.28-.19.28-.16a1.55,1.55,0,0,0-.08.15,16.06,16.06,0,0,0-.68,2.29l-.57,2.49c-.2.86-.32,1.65-.57,2.58a11.16,11.16,0,0,1-2.79,4.58,29.19,29.19,0,0,1-4,3.37c-1.44,1-2.77,2.06-4.16,3.13A22.21,22.21,0,0,1,66.54,49a12.41,12.41,0,0,1-5.44,1.06c-1.84,0-3.54-.3-5.19-.39a10.76,10.76,0,0,0-4.61.68c-2.88,1.16-4.85,4-5.9,7.18a24.47,24.47,0,0,0-1.15,4.92,37.89,37.89,0,0,0-.39,5.13h-.19A26.67,26.67,0,0,1,44,57.14a15.34,15.34,0,0,1,2.19-5,10.31,10.31,0,0,1,4.29-3.65A11.8,11.8,0,0,1,56,47.58c1.8.09,3.52.41,5.14.5a10.53,10.53,0,0,0,4.68-.74,39.18,39.18,0,0,0,4.54-2.18c3-1.71,6.12-3.36,8.38-5.9a9.11,9.11,0,0,0,2.14-4.41c.21-1.61.32-3.42.63-5.14a12.08,12.08,0,0,1,.72-2.7,2.17,2.17,0,0,1,.23-.41,1.27,1.27,0,0,1,.76-.57l.23,0h.63l1.29,0c1.73,0,3.46.05,5.19.11,3.45.11,6.91.31,10.37.66Z"/><path class="cls-1" d="M43.67,71.39a139.26,139.26,0,0,0,5.19,20.18c2.17,6.59,4.64,13.09,6.88,19.72A124.07,124.07,0,0,1,61,131.64a89.74,89.74,0,0,1,1,10.47c.06,1.75,0,3.51,0,5.26a29.23,29.23,0,0,1-.65,5.2,50.21,50.21,0,0,0-.18-10.4c-.35-3.45-.88-6.88-1.53-10.28a159.66,159.66,0,0,0-5.69-20L50.48,102c-1.1-3.31-2.19-6.64-3.14-10A91.79,91.79,0,0,1,43.67,71.39Z"/><path class="cls-1" d="M141.59,67.62c0,1.78-.07,3.56-.16,5.35s-.4,3.54-.65,5.31-.67,3.5-1,5.25-.89,3.45-1.4,5.15l-1.77,5c-.64,1.66-1.27,3.32-1.84,5-1.18,3.34-2.19,6.73-3.16,10.14-.48,1.71-.92,3.42-1.44,5.11s-.95,3.41-1.46,5.1l-1.39,5.1c-.41,1.71-.86,3.41-1.3,5.11a132.66,132.66,0,0,0-3.65,20.78h-.2a68.94,68.94,0,0,1,1.79-21.27c.45-1.73.88-3.46,1.37-5.18l1.59-5.09c1.12-3.38,2.35-6.71,3.66-10s2.54-6.62,3.58-10,1.79-6.86,2.62-10.28c.4-1.72.82-3.43,1.29-5.13s.8-3.42,1.24-5.12.71-3.45,1.12-5.17.62-3.47,1-5.21Z"/><path class="cls-1" d="M55.83,74.34a5.66,5.66,0,0,1,3.2,3.2,12.61,12.61,0,0,1,.91,4.52,33.25,33.25,0,0,1-1.19,9.06A40,40,0,0,0,57,99.92a11.51,11.51,0,0,0,2.67,8.28,14.57,14.57,0,0,0,7.46,4.45,21.51,21.51,0,0,0,8.75.37,16.06,16.06,0,0,0,8-3.48,12,12,0,0,0,3.9-7.73h.1a11.67,11.67,0,0,1-3.48,8.3,16.14,16.14,0,0,1-8.29,4,21.08,21.08,0,0,1-9.18-.52,14.42,14.42,0,0,1-7.64-5,12.25,12.25,0,0,1-2.05-4.1,15.74,15.74,0,0,1-.53-4.53,46.88,46.88,0,0,1,1.32-9,42.88,42.88,0,0,0,1.23-8.84,12.75,12.75,0,0,0-.64-4.35,5.71,5.71,0,0,0-2.75-3.3Z"/><path class="cls-1" d="M127.67,74.42a11.84,11.84,0,0,0-2.73,8.22,47.23,47.23,0,0,0,1.65,8.79,35.55,35.55,0,0,1,1.18,9,14.59,14.59,0,0,1-3.2,8.44,14.88,14.88,0,0,1-7.76,4.8,21.59,21.59,0,0,1-9.19.41,16.54,16.54,0,0,1-8.29-4,10.53,10.53,0,0,1-2.62-3.81,9.59,9.59,0,0,1-.56-4.52h.1a9.88,9.88,0,0,0,.92,4.31,10.33,10.33,0,0,0,2.68,3.43,16.63,16.63,0,0,0,8,3.5,22.57,22.57,0,0,0,8.78-.27,15.13,15.13,0,0,0,7.58-4.26,11.41,11.41,0,0,0,2.36-3.74,12.72,12.72,0,0,0,.91-4.35c0-3-.84-5.91-1.64-8.8a36.09,36.09,0,0,1-1.61-9c0-.39,0-.78.06-1.16a5.58,5.58,0,0,1,.15-1.15l.24-1.14c.1-.37.27-.73.4-1.09a9.64,9.64,0,0,1,1.08-2,19.12,19.12,0,0,1,1.48-1.74Z"/><path class="cls-2" d="M118.66,144c-3.76-7.5-5.14-16.15-1.37-24,2.7-5.58,7.54-10,9.72-15.78,3.36-9-2.65-16.06-2.46-24.86,0-.75.06-1.49.11-2.23.17-2.82.09-5.63.35-8.44.22-2.39.56-4.77,1-7.14.17-1,1.91-11.75,2.5-13a.07.07,0,0,0-.06-.11,17.45,17.45,0,0,0-7.22,1.15c-.28.12-.69,3.86-.79,4.46-.3,1.84-.62,3.66-.89,5.5-.5,3.39-.87,6.78-1.2,10.19C118,73,117.26,76.2,117,79.34a1.69,1.69,0,0,1-.22,1c0,.13,0,.27-.07.41.08.47,0,.82-.6.75a4.85,4.85,0,0,0-.66,0q-23,0-46,0c-.77,0-1.22-.11-1.14-1-.86-5.12-1.44-10.28-2.55-15.36-.52-2.39-.91-4.81-1.35-7.22l-.21-1.32c-.31-1.72-.6-3.45-.94-5.17-.09-.48,0-1-.47-1.4-1.63-.95-4.42-2.19-6.34-1.57a.1.1,0,0,0,0,.13c.57,1,1.84,11.24,1.95,12.08C59,65.15,60,69.57,60.14,74.09c.08,3.14,1,6,.62,9.09-.41,3.6-1.79,7.13-2.43,10.7-.79,4.4-.89,9.11,1.06,13.13,1.86,3.85,5.38,6.61,7.25,10.46A26.8,26.8,0,0,1,68.75,131C68,141.1,62.92,150.5,57.44,158.77l-.14.22,2.28-.07,2.74,0,21,0c6.17,0,12.34,0,18.51,0,8.38,0,16.76,0,25.13.12h1.51s-1-1.46-1.48-2.09A88.81,88.81,0,0,1,118.66,144Z"/><path class="cls-1" d="M127.63,160H127c-7.61-.07-16.46-.14-25.11-.12H83.35l-21,0-5,.11-.86-1.54.14-.22C61.37,151,66.94,141.45,67.76,131c.28-3.49.15-8.58-2-13a26.65,26.65,0,0,0-3.49-5,28.73,28.73,0,0,1-3.76-5.44c-1.77-3.66-2.14-8.15-1.14-13.73.28-1.58.71-3.17,1.12-4.7a41.5,41.5,0,0,0,1.3-5.94,21.19,21.19,0,0,0-.26-5.2,34,34,0,0,1-.36-3.76,66.88,66.88,0,0,0-1-8.94c-.24-1.42-.48-2.9-.67-4.36l0-.34c-1.23-9.61-1.69-11.16-1.8-11.4a1,1,0,0,1-.06-.9l.66-.64c2.49-.81,5.83.88,7.15,1.65l.12.08A2.27,2.27,0,0,1,64.25,51a2.51,2.51,0,0,0,0,.27c.24,1.25.46,2.5.68,3.76l.47,2.77c.13.72.27,1.47.4,2.23.29,1.62.59,3.3.94,4.92.74,3.37,1.25,6.81,1.74,10.14.27,1.76.53,3.52.82,5.28v.15h.15q19.16,0,38.31,0h8l0-.33.16-.39a1.61,1.61,0,0,0,0-.39c.13-1.83.42-3.59.69-5.29.23-1.42.47-2.89.61-4.32.3-3,.67-6.62,1.2-10.23.21-1.38.44-2.75.67-4.12l.23-1.4c0-.13.06-.41.11-.76.47-3.69.61-4.19,1.29-4.46a18.65,18.65,0,0,1,7.61-1.23l.9.53a1.08,1.08,0,0,1,0,1c-.14.3-.66,2.1-2.33,12.17l-.08.51c-.46,2.7-.77,4.95-1,7.07-.15,1.57-.18,3.19-.22,4.75,0,1.2-.06,2.43-.13,3.66-.05.73-.09,1.46-.11,2.19a33.19,33.19,0,0,0,1.74,9.76c1.37,4.81,2.78,9.78.66,15.43a39.15,39.15,0,0,1-5.35,9,46.2,46.2,0,0,0-4.4,6.89c-3.23,6.69-2.75,14.89,1.36,23.09h0a88.33,88.33,0,0,0,8.27,12.72c.48.65,1.5,2.12,1.5,2.12l-.81,1.56Zm-22.16-2.11c7.33,0,14.66.06,21.12.12l-.36-.5a89.45,89.45,0,0,1-8.46-13c-4.39-8.77-4.87-17.59-1.37-24.84a48.61,48.61,0,0,1,4.59-7.2,36.91,36.91,0,0,0,5.09-8.5c1.89-5,.63-9.48-.71-14.19a34.61,34.61,0,0,1-1.81-10.35c0-.75.06-1.51.11-2.26.07-1.19.1-2.41.13-3.59,0-1.59.07-3.24.22-4.88.2-2.17.51-4.47,1-7.22l.08-.5c1.13-6.78,1.75-9.92,2.11-11.43a15.67,15.67,0,0,0-5.23.94c-.16.7-.37,2.34-.45,3-.06.39-.09.69-.12.84l-.23,1.4c-.23,1.36-.46,2.72-.66,4.08-.53,3.57-.9,7.13-1.19,10.14-.15,1.48-.39,3-.63,4.43-.27,1.66-.54,3.38-.67,5a2.73,2.73,0,0,1-.26,1.25l0,.08a1.6,1.6,0,0,1-.36,1.31,1.49,1.49,0,0,1-1.35.41H107.8q-19.14,0-38.3,0a2.17,2.17,0,0,1-1.71-.56,1.83,1.83,0,0,1-.43-1.36c-.28-1.73-.54-3.46-.8-5.2-.49-3.29-1-6.7-1.71-10-.37-1.67-.67-3.36-1-5-.14-.75-.27-1.5-.41-2.24L63,55.35c-.22-1.24-.44-2.48-.68-3.72a3.4,3.4,0,0,1-.06-.46,2.49,2.49,0,0,0-.05-.34,10.48,10.48,0,0,0-4.52-1.53c.3,1.33.79,4.24,1.65,10.92l0,.33c.19,1.43.42,2.89.66,4.3a67.94,67.94,0,0,1,1.07,9.21,34.15,34.15,0,0,0,.34,3.55,22.25,22.25,0,0,1,.27,5.69,41.85,41.85,0,0,1-1.35,6.23c-.4,1.49-.82,3-1.09,4.53-.92,5.15-.6,9.24,1,12.51a25.89,25.89,0,0,0,3.51,5.05A28.49,28.49,0,0,1,67.53,117c2.36,4.86,2.51,10.33,2.21,14.07-.8,10.28-5.9,19.62-10.57,26.83l3.14-.06h0l21,0h22.12ZM57.32,48.1h0Z"/></svg>