<svg id="图层_1" data-name="图层 1" xmlns="http://www.w3.org/2000/svg" viewBox="0 0 186 186"><defs><style>.cls-1{fill:#5b3b2f;}.cls-2{fill:#f4e2e9;}</style></defs><path class="cls-1" d="M102.66,58.7a9.26,9.26,0,0,1,6.28-3.64,17.51,17.51,0,0,1,7.44.52c2.43.75,4.58,2,6.86,2.69a6.24,6.24,0,0,0,3.32.21,4.56,4.56,0,0,0,2.49-1.9h0a.75.75,0,0,1,1-.19.74.74,0,0,1,.18,1v0a5.94,5.94,0,0,1-3.41,2.29,7.47,7.47,0,0,1-3.95-.41c-2.42-.85-4.49-2.24-6.75-3.05a17,17,0,0,0-7.16-.86A9.1,9.1,0,0,0,102.66,58.7Z"/><path class="cls-1" d="M80.36,59.23a15.24,15.24,0,0,0-14-2.91c-2.33.75-4.47,2.15-6.9,3.06a10.74,10.74,0,0,1-3.9.82,6,6,0,0,1-3.91-1.48v0a.74.74,0,1,1,1-1.11l0,0a4.56,4.56,0,0,0,3,1.29,9.52,9.52,0,0,0,3.48-.57c2.34-.74,4.54-2,7.06-2.72A15.59,15.59,0,0,1,80.36,59.23Z"/><path class="cls-1" d="M92.72,58.7a2.79,2.79,0,0,1-.4,1.63A2.7,2.7,0,0,1,91,61.51a2.76,2.76,0,0,1-1.79.06,3.52,3.52,0,0,1-.79-.35,4.1,4.1,0,0,1-.64-.53,6.79,6.79,0,0,1,.81.07c.26,0,.5.05.74,0a3.47,3.47,0,0,0,1.31-.21A5.29,5.29,0,0,0,92.72,58.7Z"/><path class="cls-1" d="M86.26,41.31l.56,5c.09.83.21,1.66.34,2.49a16.05,16.05,0,0,0,.59,2.44,8.09,8.09,0,0,1-1-2.36,18.17,18.17,0,0,1-.47-2.51,24.05,24.05,0,0,1-.16-2.54A19.55,19.55,0,0,1,86.26,41.31Z"/><path class="cls-1" d="M96.2,39.32a46.18,46.18,0,0,1-1.08,5.58c-.24.91-.49,1.83-.8,2.72a14.47,14.47,0,0,1-1.1,2.63c.29-.9.5-1.82.74-2.73l.68-2.75C95.11,43,95.59,41.12,96.2,39.32Z"/><path class="cls-1" d="M83,26.8c3.42-.39,6.84-.59,10.26-.7C95,26,96.67,26,98.38,26c.85,0,1.71,0,2.56,0h.33a1.31,1.31,0,0,1,.26.09,1,1,0,0,1,.28.2,1.64,1.64,0,0,1,.36.56,4.65,4.65,0,0,1,.21.76,13,13,0,0,1,.16,1.35c.07.86.07,1.78.09,2.59a11.81,11.81,0,0,0,.31,2.44,11.38,11.38,0,0,0,2.12,4.47c2,2.69,5,4.5,7.94,6.17a34.19,34.19,0,0,0,4.5,2.23,18.42,18.42,0,0,0,4.69,1.21,23.57,23.57,0,0,0,4.89-.47,10.55,10.55,0,0,1,2.81,0,12.5,12.5,0,0,1,2.7.74,16.75,16.75,0,0,1,7.93,7.13,14.59,14.59,0,0,1,1.94,10.17l-.2,0a15.6,15.6,0,0,0-3.06-9.29,16.55,16.55,0,0,0-7.39-6,10.84,10.84,0,0,0-2.22-.62,11,11,0,0,0-2.3,0A23.87,23.87,0,0,1,122,50a21.37,21.37,0,0,1-9.58-4.34,36.71,36.71,0,0,1-7.83-6.74A15.72,15.72,0,0,1,102,34.3a13.55,13.55,0,0,1-.61-2.59c-.11-.89-.22-1.68-.38-2.51-.07-.4-.17-.8-.27-1.17a2.31,2.31,0,0,0-.16-.47s-.07-.09,0,0a.68.68,0,0,0,.16.11.58.58,0,0,0,.17,0h-.06c-.86,0-1.71,0-2.56,0-1.71,0-3.41,0-5.12-.1-3.41-.11-6.82-.31-10.24-.7Z"/><path class="cls-1" d="M101,27c-3.46.36-6.92.56-10.37.67-1.73.06-3.46.1-5.19.11l-1.3,0H83.5l.15,0c.33-.12.28-.19.28-.15a.75.75,0,0,0-.08.14,16,16,0,0,0-.69,2.29l-.57,2.5c-.19.85-.32,1.65-.56,2.58a11.29,11.29,0,0,1-2.8,4.58,28.69,28.69,0,0,1-4,3.37c-1.43,1-2.76,2.06-4.15,3.13A22,22,0,0,1,66.52,49a12.28,12.28,0,0,1-5.44,1.07c-1.84,0-3.54-.31-5.2-.39a10.65,10.65,0,0,0-4.61.68c-2.88,1.16-4.84,4-5.9,7.17a24.73,24.73,0,0,0-1.15,4.93,38.14,38.14,0,0,0-.39,5.13l-.2,0A26.91,26.91,0,0,1,44,57.16a15.49,15.49,0,0,1,2.19-5,10.29,10.29,0,0,1,4.29-3.64A11.6,11.6,0,0,1,56,47.6c1.8.09,3.52.4,5.14.49a10.53,10.53,0,0,0,4.68-.74,39.31,39.31,0,0,0,4.55-2.18c3-1.71,6.12-3.36,8.38-5.9a9.11,9.11,0,0,0,2.14-4.41c.21-1.62.32-3.43.63-5.15a12.08,12.08,0,0,1,.72-2.7,3.63,3.63,0,0,1,.23-.41,1.34,1.34,0,0,1,.77-.57l.22,0h.63l1.3,0c1.73,0,3.46.05,5.19.11,3.45.11,6.91.31,10.37.67Z"/><path class="cls-1" d="M43.64,71.42a139.05,139.05,0,0,0,5.19,20.19c2.17,6.6,4.65,13.1,6.88,19.73A124.33,124.33,0,0,1,61,131.71a89.74,89.74,0,0,1,1,10.47c.06,1.76.05,3.51,0,5.26a29.46,29.46,0,0,1-.65,5.21,50.3,50.3,0,0,0-.18-10.41c-.35-3.45-.88-6.88-1.53-10.29a160.34,160.34,0,0,0-5.7-20l-3.39-9.88c-1.1-3.32-2.19-6.65-3.14-10A92,92,0,0,1,43.64,71.42Z"/><path class="cls-1" d="M141.62,67.65c0,1.83-.08,3.67-.18,5.51s-.42,3.65-.69,5.46-.68,3.61-1.07,5.41-.91,3.55-1.44,5.31l-1.79,5.19c-.64,1.72-1.28,3.43-1.85,5.16-1.2,3.45-2.21,7-3.19,10.48-.49,1.76-.93,3.53-1.45,5.27s-1,3.52-1.48,5.26L127.07,126l-1.32,5.28A137.44,137.44,0,0,0,122,152.65h-.19a72.1,72.1,0,0,1,1.9-21.9c.46-1.78.89-3.57,1.39-5.33l1.62-5.26c1.12-3.48,2.36-6.92,3.68-10.33S132.93,103,134,99.5s1.82-7.07,2.67-10.6c.41-1.77.83-3.54,1.32-5.29s.82-3.52,1.27-5.28.73-3.55,1.15-5.32.64-3.58,1-5.38Z"/><path class="cls-1" d="M56.32,73a5.67,5.67,0,0,1,3.2,3.19,12.4,12.4,0,0,1,.91,4.52,33.1,33.1,0,0,1-1.19,9,39.87,39.87,0,0,0-1.78,8.79,11.48,11.48,0,0,0,2.68,8.26,14.69,14.69,0,0,0,7.46,4.43,21.7,21.7,0,0,0,8.75.37,16.23,16.23,0,0,0,7.94-3.47,12,12,0,0,0,3.91-7.72h.1a11.65,11.65,0,0,1-3.49,8.29,16.19,16.19,0,0,1-8.28,3.94,21.19,21.19,0,0,1-9.17-.51,14.41,14.41,0,0,1-7.64-5A12.09,12.09,0,0,1,57.66,103a16.12,16.12,0,0,1-.54-4.52,46.57,46.57,0,0,1,1.33-9,42.19,42.19,0,0,0,1.22-8.84A12.88,12.88,0,0,0,59,76.37a5.73,5.73,0,0,0-2.76-3.3Z"/><path class="cls-1" d="M126.73,74.05a11.58,11.58,0,0,0-2.65,8,46.18,46.18,0,0,0,1.6,8.54,34.09,34.09,0,0,1,1.15,8.76,14.15,14.15,0,0,1-3.11,8.2,14.49,14.49,0,0,1-7.55,4.66,21.18,21.18,0,0,1-8.93.4,16.08,16.08,0,0,1-8-3.84,10.11,10.11,0,0,1-2.55-3.71,9.3,9.3,0,0,1-.55-4.39h.1a9.54,9.54,0,0,0,3.5,7.52,16.14,16.14,0,0,0,7.73,3.4,21.64,21.64,0,0,0,8.52-.27,14.76,14.76,0,0,0,7.38-4.12,11.06,11.06,0,0,0,2.29-3.64,12.26,12.26,0,0,0,.89-4.23,30.31,30.31,0,0,0-1.59-8.55,35,35,0,0,1-1.57-8.72c0-.38,0-.76.06-1.13a5.38,5.38,0,0,1,.15-1.12l.23-1.1c.1-.36.26-.71.38-1.06a8.9,8.9,0,0,1,1.06-2A16.67,16.67,0,0,1,126.66,74Z"/><path class="cls-2" d="M57.36,159a.51.51,0,0,1-.45-.78c.48-.79,1-1.7,1.65-2.68,2.84-4.55,6.36-10.22,7.37-13.64,2.15-7.32,2.32-14.41.49-20.5a48.3,48.3,0,0,0-4.06-8.94A52.41,52.41,0,0,1,58.8,105a24.33,24.33,0,0,1-1-11.54A29.92,29.92,0,0,1,59,88.84c.82-2.57,1.67-5.22,1.47-7.86a3.48,3.48,0,0,1,.84-2.44L64.29,75a1.38,1.38,0,0,1,1-.48h53.19a1.34,1.34,0,0,1,.52.1c.26.16,1.33,1.32,3.48,4.62a8.75,8.75,0,0,1,.89,4.06c0,.65.08,1.32.17,2s.26,1.57.42,2.36.35,1.73.54,2.6c1.18,5.51,2.29,10.72-.37,15.62-1,1.81-2.09,3.54-3.16,5.21a50.14,50.14,0,0,0-5.17,9.59c-2.86,7.69-2.28,16.79,1.58,25a55.16,55.16,0,0,0,7,11,3.65,3.65,0,0,0,.34.4,1.21,1.21,0,0,1-.9,2Z"/><path class="cls-1" d="M118.52,75.52h0a29.86,29.86,0,0,1,3.14,4.27,8,8,0,0,1,.72,3.58c0,.67.09,1.36.19,2s.25,1.51.42,2.41.36,1.74.55,2.62c1.14,5.33,2.21,10.36-.28,14.94-1,1.77-2.06,3.49-3.12,5.15a50.87,50.87,0,0,0-5.27,9.78c-2.94,7.93-2.35,17.31,1.62,25.73a56.74,56.74,0,0,0,7.11,11.21c.11.13.33.39.67.77H58.2l1.21-1.94c2.86-4.61,6.43-10.34,7.47-13.89,2.21-7.51,2.37-14.79.49-21.06A48.84,48.84,0,0,0,63.23,112a51.07,51.07,0,0,1-3.49-7.35,23.35,23.35,0,0,1-.94-11.06A29.27,29.27,0,0,1,60,89.14c.85-2.65,1.73-5.4,1.51-8.23a2.51,2.51,0,0,1,.62-1.74l2.93-3.52a.39.39,0,0,1,.29-.13h53.18m0-2H65.34a2.37,2.37,0,0,0-1.82.85L60.59,77.9a4.51,4.51,0,0,0-1.07,3.16c.3,4-2.1,8.3-2.69,12.22a25.39,25.39,0,0,0,1,12c2,5.71,5.86,10.56,7.61,16.39,2,6.51,1.4,13.48-.5,19.93-1.33,4.55-7.64,13.77-9.8,17.59a.53.53,0,0,0,.46.79h72a.52.52,0,0,0,.39-.86c-1-1-2.49-2.75-2.81-3.15a54.16,54.16,0,0,1-6.86-10.81c-3.54-7.49-4.47-16.33-1.55-24.19,2-5.46,5.52-9.62,8.27-14.67,3.29-6,1.17-12.58-.07-18.89-.15-.78-.29-1.55-.4-2.32-.31-2,0-4.61-1.21-6.4-1-1.5-3.11-4.65-3.94-5a2.33,2.33,0,0,0-.9-.18Z"/></svg>