<svg id="图层_1" data-name="图层 1" xmlns="http://www.w3.org/2000/svg" viewBox="0 0 186 186"><defs><style>.cls-1{fill:#5b3b2f;}.cls-2{fill:#f4e2e9;}</style></defs><path class="cls-1" d="M102.58,58.43a9.17,9.17,0,0,1,6.23-3.6,17.38,17.38,0,0,1,7.38.51c2.41.74,4.54,2,6.81,2.67a6.11,6.11,0,0,0,3.29.2,4.5,4.5,0,0,0,2.47-1.87h0a.74.74,0,0,1,1.21.85v0a5.89,5.89,0,0,1-3.38,2.28,7.36,7.36,0,0,1-3.92-.41c-2.4-.84-4.46-2.22-6.69-3a17,17,0,0,0-7.11-.86A9.06,9.06,0,0,0,102.58,58.43Z"/><path class="cls-1" d="M80.46,59a15.09,15.09,0,0,0-13.93-2.88c-2.31.74-4.43,2.13-6.84,3a10.29,10.29,0,0,1-3.87.81A5.92,5.92,0,0,1,52,58.45h0a.75.75,0,0,1-.06-1,.74.74,0,0,1,1-.06l0,0a4.5,4.5,0,0,0,2.93,1.28,9.52,9.52,0,0,0,3.45-.56c2.33-.74,4.51-2,7-2.7A15.47,15.47,0,0,1,80.46,59Z"/><path class="cls-1" d="M92.72,58.43a2.8,2.8,0,0,1-.39,1.63,2.63,2.63,0,0,1-3.12,1.22,2.92,2.92,0,0,1-1.42-.88c.29,0,.55.05.8.08s.5.05.74,0a3.38,3.38,0,0,0,1.3-.21A5.21,5.21,0,0,0,92.72,58.43Z"/><path class="cls-1" d="M86.31,41.18l.56,5c.09.83.2,1.65.34,2.47a14.8,14.8,0,0,0,.58,2.43,8.17,8.17,0,0,1-1-2.35,16.28,16.28,0,0,1-.46-2.49,23.7,23.7,0,0,1-.17-2.52A21.24,21.24,0,0,1,86.31,41.18Z"/><path class="cls-1" d="M96.17,39.21a43.19,43.19,0,0,1-1.07,5.53c-.24.91-.48,1.82-.79,2.71a12.93,12.93,0,0,1-1.1,2.6c.3-.89.51-1.8.74-2.71l.67-2.72C95.1,42.81,95.57,41,96.17,39.21Z"/><path class="cls-1" d="M83.07,26.79c3.39-.38,6.78-.59,10.17-.69,1.7-.07,3.4-.07,5.09-.1.85,0,1.7,0,2.55,0h.33a1.47,1.47,0,0,1,.25.08,1.19,1.19,0,0,1,.28.21,1.31,1.31,0,0,1,.35.56,4.47,4.47,0,0,1,.21.74c.09.47.12.91.16,1.34.07.86.07,1.77.09,2.58a13.25,13.25,0,0,0,.31,2.42,11.38,11.38,0,0,0,2.1,4.43c2,2.67,5,4.46,7.88,6.11a34.28,34.28,0,0,0,4.46,2.22,18.08,18.08,0,0,0,4.66,1.2,23.11,23.11,0,0,0,4.84-.47,10.41,10.41,0,0,1,2.79,0,12.31,12.31,0,0,1,2.68.73,16.68,16.68,0,0,1,7.87,7.07,14.46,14.46,0,0,1,1.92,10.09l-.2,0a15.47,15.47,0,0,0-3-9.22,16.45,16.45,0,0,0-7.32-6,11.58,11.58,0,0,0-2.21-.61,10.79,10.79,0,0,0-2.28,0,24.06,24.06,0,0,1-5.26.27,21.14,21.14,0,0,1-9.5-4.31,35.42,35.42,0,0,1-7.77-6.69A15.33,15.33,0,0,1,102,34.23a13.18,13.18,0,0,1-.61-2.57c-.11-.88-.21-1.66-.37-2.48q-.12-.62-.27-1.17a3,3,0,0,0-.16-.46c0-.06-.07-.09,0,0a.85.85,0,0,0,.16.11l.18.06h-.07c-.84,0-1.69,0-2.54,0-1.69,0-3.38,0-5.07-.1-3.39-.1-6.77-.3-10.16-.68Z"/><path class="cls-1" d="M100.89,27c-3.43.34-6.86.55-10.29.66-1.72.06-3.44.09-5.15.11H83.58a.32.32,0,0,0,.14,0c.33-.11.28-.18.28-.15a1.55,1.55,0,0,0-.08.15A16.69,16.69,0,0,0,83.24,30l-.56,2.47c-.2.85-.32,1.64-.56,2.56a11.41,11.41,0,0,1-2.77,4.55,29.4,29.4,0,0,1-4,3.34c-1.42,1-2.75,2.05-4.12,3.11a21.88,21.88,0,0,1-4.49,2.8,12.27,12.27,0,0,1-5.4,1.06c-1.82,0-3.51-.3-5.16-.38a10.45,10.45,0,0,0-4.57.67c-2.86,1.15-4.81,4-5.85,7.12a24.25,24.25,0,0,0-1.15,4.88,37.57,37.57,0,0,0-.38,5.1H44a26.64,26.64,0,0,1,.35-10.4A15.14,15.14,0,0,1,46.55,52a10.27,10.27,0,0,1,4.25-3.62,11.82,11.82,0,0,1,5.5-.92c1.79.09,3.49.41,5.1.49A10.49,10.49,0,0,0,66,47.18,38.7,38.7,0,0,0,70.55,45c3-1.69,6.07-3.33,8.31-5.85A9,9,0,0,0,81,34.78c.21-1.6.32-3.39.62-5.1A11.58,11.58,0,0,1,82.33,27a2.59,2.59,0,0,1,.23-.42,1.3,1.3,0,0,1,.76-.56l.22,0h.62l1.29,0c1.71,0,3.43.05,5.15.11,3.43.11,6.86.31,10.29.66Z"/><path class="cls-1" d="M44,71.06a138.68,138.68,0,0,0,5.15,20c2.15,6.54,4.61,13,6.82,19.57a122.53,122.53,0,0,1,5.22,20.2,90.77,90.77,0,0,1,1,10.39q.09,2.61,0,5.22a28.79,28.79,0,0,1-.65,5.16,50.13,50.13,0,0,0-.18-10.32c-.35-3.42-.87-6.83-1.52-10.2a157.29,157.29,0,0,0-5.65-19.82l-3.37-9.81c-1.09-3.29-2.17-6.59-3.11-9.93A91.7,91.7,0,0,1,44,71.06Z"/><path class="cls-1" d="M141.22,67.31c0,1.82-.07,3.64-.17,5.46s-.42,3.62-.69,5.43-.67,3.58-1.06,5.36-.9,3.52-1.42,5.26L136.1,94c-.64,1.7-1.27,3.4-1.84,5.12-1.18,3.42-2.19,6.9-3.16,10.39-.48,1.74-.93,3.5-1.44,5.23s-.95,3.48-1.47,5.21l-1.39,5.23-1.32,5.23a136.5,136.5,0,0,0-3.74,21.23h-.2a71.3,71.3,0,0,1,1.9-21.72c.45-1.76.87-3.54,1.37-5.29l1.61-5.21c1.11-3.46,2.34-6.87,3.65-10.25s2.54-6.78,3.58-10.25,1.8-7,2.64-10.51c.41-1.76.83-3.51,1.31-5.24s.82-3.5,1.26-5.25.73-3.51,1.15-5.27.63-3.55,1-5.33Z"/><path class="cls-1" d="M84.18,80.65s8.87,12.81,15.77,0c.33,0-8.23,17.37-8.23,17.37Z"/><path class="cls-1" d="M56.62,72.6a5.59,5.59,0,0,1,3.17,3.17,12.36,12.36,0,0,1,.91,4.48,32.86,32.86,0,0,1-1.18,9,38.78,38.78,0,0,0-1.77,8.73,11.42,11.42,0,0,0,2.66,8.19,14.52,14.52,0,0,0,7.4,4.39,21.52,21.52,0,0,0,8.68.36,16,16,0,0,0,7.87-3.44,11.92,11.92,0,0,0,3.88-7.65h.09A11.53,11.53,0,0,1,84.88,108a16,16,0,0,1-8.22,3.91,20.88,20.88,0,0,1-9.1-.51A14.3,14.3,0,0,1,60,106.47a11.86,11.86,0,0,1-2-4.06,15.8,15.8,0,0,1-.54-4.48A46.73,46.73,0,0,1,58.72,89a41.45,41.45,0,0,0,1.22-8.76,12.7,12.7,0,0,0-.63-4.3,5.62,5.62,0,0,0-2.73-3.27Z"/><path class="cls-1" d="M126.46,73.67a11.42,11.42,0,0,0-2.63,7.92,45.59,45.59,0,0,0,1.59,8.47,34.37,34.37,0,0,1,1.14,8.69,14.08,14.08,0,0,1-3.09,8.13,14.34,14.34,0,0,1-7.49,4.63,21,21,0,0,1-8.85.39,15.93,15.93,0,0,1-8-3.81,10.15,10.15,0,0,1-2.53-3.68,9.39,9.39,0,0,1-.55-4.35h.1a9.45,9.45,0,0,0,3.48,7.47,16,16,0,0,0,7.66,3.37,21.71,21.71,0,0,0,8.46-.27,14.61,14.61,0,0,0,7.31-4.09,10.9,10.9,0,0,0,2.28-3.61,12.26,12.26,0,0,0,.88-4.19,30.11,30.11,0,0,0-1.58-8.48,34.91,34.91,0,0,1-1.56-8.66c0-.37,0-.74.06-1.11a5.82,5.82,0,0,1,.15-1.11l.23-1.1c.1-.36.26-.7.38-1a9.25,9.25,0,0,1,1-2,17.49,17.49,0,0,1,1.43-1.67Z"/><path class="cls-2" d="M93.89,92.83a.56.56,0,0,1-1.08,0,19.36,19.36,0,0,0-4.06-8.19c-5.07-6.16-10.5-7.71-15.19-7.35-8.44.64-13.89,4.87-15.44,15.55a25.27,25.27,0,0,0,1,12c2,5.66,5.81,10.48,7.54,16.25,1.94,6.46,1.39,13.37-.48,19.77-1.68,5.72-7,14.75-8.58,17.41a.51.51,0,0,0,.43.78c.93,0,2.36,0,3.19,0h67.07a.51.51,0,0,0,.38-.85c-1-1-2.46-2.73-2.78-3.12a54.27,54.27,0,0,1-6.8-10.72c-3.51-7.44-4.43-16.2-1.54-24a30.82,30.82,0,0,1,4.21-8.43c3.47-5.24,5.7-8.66,5.76-15.44.06-5.35-1.3-11.42-5.25-15.36-4.85-4.83-12.89-4.63-18.65-1.6C98.14,82.37,95.7,87.3,93.89,92.83Z"/><path class="cls-1" d="M128.31,160H61.24c-.84,0-2.28,0-3.21,0a1.49,1.49,0,0,1-1.28-.78,1.47,1.47,0,0,1,0-1.49c1.57-2.62,6.83-11.59,8.47-17.19,2-6.89,2.19-13.53.49-19.2a46.35,46.35,0,0,0-3.88-8.51,55,55,0,0,1-3.65-7.7,26.15,26.15,0,0,1-1.06-12.43c1.51-10.45,6.7-15.66,16.33-16.4,6-.46,11.44,2.14,16,7.72a20.37,20.37,0,0,1,3.9,7.2c1.74-4.9,4.26-9.68,9.77-12.57,5.69-3,14.31-3.69,19.81,1.78,4.91,4.89,5.58,12.17,5.54,16.07-.07,7.12-2.53,10.83-5.93,16a30.2,30.2,0,0,0-4.11,8.23c-2.64,7.13-2.09,15.6,1.51,23.24a53.15,53.15,0,0,0,6.68,10.52c.13.16.66.77,2.74,3.08a1.49,1.49,0,0,1,.26,1.61A1.5,1.5,0,0,1,128.31,160Zm-69.43-2,2.36,0h66c-1.19-1.31-1.89-2.11-2.1-2.37a54.59,54.59,0,0,1-6.93-10.92c-3.83-8.11-4.4-17.14-1.57-24.76a31.6,31.6,0,0,1,4.3-8.64c3.34-5,5.55-8.36,5.61-14.9.06-6.11-1.75-11.45-5-14.65-4.57-4.56-12.26-4.17-17.49-1.43-5.39,2.83-7.64,7.81-9.27,12.77h0a1.52,1.52,0,0,1-1.55,1.06A1.5,1.5,0,0,1,91.85,93,18.41,18.41,0,0,0,88,85.23c-4.16-5.06-9-7.41-14.36-7-8.67.66-13.15,5.2-14.53,14.71a24.27,24.27,0,0,0,1,11.49,53.18,53.18,0,0,0,3.53,7.43,47.55,47.55,0,0,1,4,8.87c1.81,6,1.64,13.07-.49,20.33C65.56,146.45,60.85,154.69,58.88,158Zm35-65.17h0Z"/></svg>