<svg id="图层_1" data-name="图层 1" xmlns="http://www.w3.org/2000/svg" viewBox="0 0 186 186"><defs><style>.cls-1{fill:#5b3b2f;}.cls-2{fill:#f4e2e9;}</style></defs><path class="cls-1" d="M102.57,58.4a9.19,9.19,0,0,1,6.22-3.61,17.51,17.51,0,0,1,7.37.52c2.41.74,4.54,2,6.8,2.66a6.12,6.12,0,0,0,3.29.21,4.5,4.5,0,0,0,2.46-1.88h0a.74.74,0,0,1,1.21.85l0,0a5.9,5.9,0,0,1-3.37,2.27,7.36,7.36,0,0,1-3.92-.41c-2.39-.84-4.45-2.21-6.68-3a16.91,16.91,0,0,0-7.1-.85A9,9,0,0,0,102.57,58.4Z"/><path class="cls-1" d="M80.48,58.92A15.13,15.13,0,0,0,66.56,56c-2.3.74-4.42,2.13-6.83,3a10.49,10.49,0,0,1-3.87.8A5.93,5.93,0,0,1,52,58.42v0a.74.74,0,0,1,1-1.11l0,0a4.51,4.51,0,0,0,2.94,1.27A9.47,9.47,0,0,0,59.36,58c2.32-.73,4.5-2,7-2.7A15.5,15.5,0,0,1,80.48,58.92Z"/><path class="cls-1" d="M92.72,58.4A2.75,2.75,0,0,1,92.33,60,2.71,2.71,0,0,1,91,61.19a2.79,2.79,0,0,1-1.78.05,3.83,3.83,0,0,1-.77-.34,4.74,4.74,0,0,1-.64-.53,6.62,6.62,0,0,1,.8.07c.25,0,.5.05.73,0a3.38,3.38,0,0,0,1.3-.21A5.26,5.26,0,0,0,92.72,58.4Z"/><path class="cls-1" d="M86.32,41.16l.55,5c.09.83.21,1.65.35,2.47A14.93,14.93,0,0,0,87.8,51a8,8,0,0,1-1-2.34,17.89,17.89,0,0,1-.47-2.49c-.09-.84-.15-1.68-.16-2.52A21.24,21.24,0,0,1,86.32,41.16Z"/><path class="cls-1" d="M96.17,39.2a46.78,46.78,0,0,1-1.07,5.52c-.24.91-.49,1.81-.79,2.71a14.08,14.08,0,0,1-1.1,2.6c.3-.9.51-1.8.74-2.71l.67-2.72C95.09,42.79,95.57,41,96.17,39.2Z"/><path class="cls-1" d="M86.4,108.8s4.93,5.91,8.87-1c.32,0-5,14-5,14Z"/><path class="cls-1" d="M83.08,26.79c3.39-.38,6.78-.59,10.16-.69,1.7-.07,3.39-.07,5.09-.1.84,0,1.69,0,2.54,0h.33a1.47,1.47,0,0,1,.25.08,1.19,1.19,0,0,1,.28.21,1.35,1.35,0,0,1,.35.55,4.84,4.84,0,0,1,.21.75,12.85,12.85,0,0,1,.16,1.34c.07.86.07,1.77.09,2.57a12.43,12.43,0,0,0,.31,2.42,11.28,11.28,0,0,0,2.1,4.42c2,2.67,5,4.46,7.87,6.11a32.3,32.3,0,0,0,4.45,2.21,18.55,18.55,0,0,0,4.65,1.21,23.74,23.74,0,0,0,4.84-.47,10.4,10.4,0,0,1,2.79,0,12.23,12.23,0,0,1,2.67.74,16.54,16.54,0,0,1,7.86,7.06A14.37,14.37,0,0,1,142,65.3l-.2,0a15.47,15.47,0,0,0-3-9.21,16.36,16.36,0,0,0-7.32-5.94,10.67,10.67,0,0,0-2.2-.62,10.81,10.81,0,0,0-2.28,0,24.69,24.69,0,0,1-5.26.26,21.13,21.13,0,0,1-9.49-4.3,36.06,36.06,0,0,1-7.76-6.68A15.74,15.74,0,0,1,102,34.23a13.53,13.53,0,0,1-.61-2.57c-.11-.88-.21-1.66-.37-2.49-.08-.4-.17-.8-.27-1.16a3.61,3.61,0,0,0-.16-.47c0-.05-.07-.08,0,0a.85.85,0,0,0,.16.11l.18.06h-.07c-.84,0-1.69,0-2.53,0-1.69,0-3.38,0-5.07-.1-3.38-.1-6.76-.3-10.15-.68Z"/><path class="cls-1" d="M100.88,27c-3.43.34-6.86.55-10.28.66-1.71.06-3.43.09-5.14.11H83.59a.32.32,0,0,0,.14,0c.34-.11.28-.18.28-.15a1.55,1.55,0,0,0-.08.15A17,17,0,0,0,83.25,30l-.56,2.48c-.19.84-.32,1.63-.56,2.55a11.08,11.08,0,0,1-2.77,4.54,28.72,28.72,0,0,1-4,3.34c-1.42,1-2.74,2-4.12,3.11a22,22,0,0,1-4.48,2.8,12.24,12.24,0,0,1-5.4,1.06c-1.81,0-3.5-.3-5.14-.39a10.75,10.75,0,0,0-4.57.67c-2.85,1.16-4.8,4-5.84,7.11a23.59,23.59,0,0,0-1.15,4.88,37.54,37.54,0,0,0-.38,5.09l-.2,0a26.45,26.45,0,0,1,.35-10.4,15.38,15.38,0,0,1,2.16-4.94,10.17,10.17,0,0,1,4.25-3.61,11.51,11.51,0,0,1,5.49-.92c1.79.09,3.49.4,5.1.49a10.59,10.59,0,0,0,4.63-.73A38.7,38.7,0,0,0,70.58,45c3-1.69,6.06-3.33,8.3-5.84A9.19,9.19,0,0,0,81,34.78c.2-1.6.31-3.4.62-5.1A11.25,11.25,0,0,1,82.34,27a3,3,0,0,1,.23-.41,1.3,1.3,0,0,1,.76-.56l.22,0h.62l1.29,0c1.71,0,3.43.05,5.14.11,3.42.11,6.85.31,10.28.66Z"/><path class="cls-1" d="M44.09,71a138.12,138.12,0,0,0,5.16,20c2.14,6.54,4.6,13,6.81,19.55a122.25,122.25,0,0,1,5.2,20.18,88,88,0,0,1,1,10.38c.06,1.73,0,3.47,0,5.21a28.9,28.9,0,0,1-.65,5.16,49.32,49.32,0,0,0-.17-10.31c-.35-3.43-.88-6.83-1.52-10.2a159,159,0,0,0-5.64-19.79l-3.37-9.8c-1.09-3.28-2.16-6.58-3.1-9.92A91.34,91.34,0,0,1,44.09,71Z"/><path class="cls-1" d="M141.17,67.27c0,1.76-.07,3.52-.16,5.29s-.4,3.52-.64,5.27-.67,3.47-1,5.2-.89,3.42-1.39,5.11l-1.76,5c-.63,1.65-1.25,3.29-1.82,5-1.17,3.31-2.17,6.68-3.13,10.06-.48,1.69-.92,3.39-1.43,5.06s-.94,3.38-1.45,5.05L127,123.32c-.41,1.69-.85,3.38-1.29,5.07A131.61,131.61,0,0,0,122.08,149h-.2a68.37,68.37,0,0,1,1.77-21.08c.45-1.71.87-3.43,1.36-5.13l1.58-5c1.1-3.35,2.32-6.65,3.62-9.92s2.52-6.56,3.56-9.91,1.77-6.79,2.59-10.19c.39-1.71.81-3.4,1.28-5.08s.79-3.39,1.23-5.08.71-3.42,1.11-5.12.61-3.44,1-5.17Z"/><path class="cls-1" d="M88.63,99.44a9.47,9.47,0,0,1-.51,4.43,10.89,10.89,0,0,1-2.46,3.83,17.06,17.06,0,0,1-7.92,4.43,20.53,20.53,0,0,1-9.13.39A15.06,15.06,0,0,1,64.2,111a13,13,0,0,1-2-1.34c-.3-.26-.6-.53-.88-.82s-.28-.29-.4-.45l-.2-.23-.05-.06s0,0,0-.1a3.33,3.33,0,0,1,.6-.65,4.73,4.73,0,0,1,.76-.43c.08,0,.08,0,.1,0l0,0,.16.18c.1.13.23.25.34.37s.48.45.74.67a10.57,10.57,0,0,0,1.68,1.1A14.79,14.79,0,0,0,69,110.6a20.75,20.75,0,0,0,8.34-.14,17.58,17.58,0,0,0,7.56-3.58A10.39,10.39,0,0,0,88.63,99.44Z"/><path class="cls-1" d="M95.27,99.94a23.59,23.59,0,0,0,4.5,6.1,16.46,16.46,0,0,0,6.19,3.8,16.68,16.68,0,0,0,3.57.75,9.5,9.5,0,0,0,1.85.16h1.87a13.25,13.25,0,0,0,1.88-.16l1.9-.2c1.25-.24,2.51-.51,3.83-.69-1.16.59-2.37,1.11-3.59,1.63a33.65,33.65,0,0,1-3.87,1,18,18,0,0,1-8.07-.57,15,15,0,0,1-6.68-4.62c-.44-.52-.82-1.08-1.21-1.63s-.68-1.15-1-1.76A13.76,13.76,0,0,1,95.27,99.94Z"/><path class="cls-2" d="M124.39,49.14a.54.54,0,0,1,.49.67,47,47,0,0,0-.32,6.66,70.22,70.22,0,0,0,.43,8.21,39.76,39.76,0,0,0,1.71,7.84l.07.19c.06.19.13.39.2.58a1.48,1.48,0,0,1,.18.48c0,.16-.16.2-.27.28a5.9,5.9,0,0,0-2,3.07c-1.33,4.19-.54,9,.82,13.12,1.77,5.32,1.74,11.52-1.23,16.42-1.54,2.54-3.71,4.63-5.25,7.21-4.59,7.73-6.41,17.43-2.4,25.45A97.12,97.12,0,0,0,129,158.17a.51.51,0,0,1-.39.84H56.8a.51.51,0,0,1-.44-.77c1.79-3,10.53-14.4,12.24-29.75.47-4.29-.85-8.62-2.65-12.46s-4.35-6.71-6.46-10.18c-3.44-5.64-2-13.09,0-18.95s1.42-9.07-1.16-12.8L58,73.62a.82.82,0,0,1-.17-.6c.3-2.45,2.15-17.77,1.39-22.95a.5.5,0,0,1,.62-.56c1.81.46,2.7.07,3.09,2.22,1.11,6,3.74,12,5.93,17.73q3.54,9.18,7.85,18C79,92.15,80.92,97,83.17,101.63c1,2,2.51,5.4,3.37,7.49q2,4.74,3.8,9.52c.73-1.94,1.69-3.81,2.56-5.7,2.13-4.25,4-8.66,6-13q1.93-4.2,3.88-8.39l4.1-8.85,4.08-8.8q1.92-4.12,3.83-8.26l3.35-7.19c1.17-2.53,2.35-5.06,3.51-7.59.34-.74.55-1.31,1.35-1.59A3.84,3.84,0,0,1,124.39,49.14Z"/><path class="cls-1" d="M128.57,160H56.79a1.5,1.5,0,0,1-1.29-2.26c.24-.39.59-.93,1-1.6,2.88-4.37,9.63-14.61,11.09-27.76.39-3.52-.45-7.42-2.56-11.94a43.12,43.12,0,0,0-3.86-6.25c-.86-1.23-1.75-2.5-2.56-3.83-2.9-4.77-2.94-11.24-.09-19.77,1.75-5.27,1.49-8.28-1-11.93l-.32-.45a1.78,1.78,0,0,1-.36-1.31c.22-1.79,2.15-17.59,1.39-22.7a1.49,1.49,0,0,1,.47-1.31,1.51,1.51,0,0,1,1.37-.33c.34.08.65.14.93.19,1.44.25,2.49.59,2.89,2.81.91,4.91,2.87,9.88,4.76,14.67l1.12,2.87c2.32,6,4.95,12.07,7.82,18,1.16,2.38,2.25,4.83,3.3,7.2s2.08,4.65,3.18,6.93,2.56,5.53,3.39,7.54c1,2.54,2,4.93,2.93,7.26.31-.68.63-1.36.94-2,.23-.48.46-1,.68-1.45,1.42-2.84,2.74-5.78,4-8.61q1-2.19,2-4.37l19.23-41.49c1.18-2.53,2.35-5.05,3.51-7.59l.07-.15a3.08,3.08,0,0,1,1.87-2,4.58,4.58,0,0,1,1.75-.21h0a1.51,1.51,0,0,1,1.13.6,1.48,1.48,0,0,1,.27,1.27,35.08,35.08,0,0,0-.3,6.26v.19a70.73,70.73,0,0,0,.43,8.09,39,39,0,0,0,1.67,7.64l.06.18c.06.19.13.37.2.55a1.92,1.92,0,0,1,.23.83,1.2,1.2,0,0,1-.66,1.07,4.86,4.86,0,0,0-1.62,2.58c-1.35,4.26-.3,9.15.82,12.51,2,6.18,1.57,12.47-1.33,17.24a36.28,36.28,0,0,1-2.64,3.63,31.74,31.74,0,0,0-2.6,3.57c-5,8.37-5.86,17.53-2.37,24.51a96.42,96.42,0,0,0,12,18.68,1.49,1.49,0,0,1-1.15,2.44Zm-70.92-2h69.91A99.4,99.4,0,0,1,116,139.76c-3.79-7.58-2.88-17.45,2.44-26.4a34.69,34.69,0,0,1,2.75-3.79,34,34,0,0,0,2.51-3.42c2.59-4.28,3-10,1.13-15.6-1.2-3.63-2.33-9-.82-13.72a7,7,0,0,1,2-3.34c-.06-.15-.11-.31-.17-.46l-.07-.21a42,42,0,0,1-1.75-8,70.18,70.18,0,0,1-.44-8.32v-.18a49,49,0,0,1,.25-6.16,1.93,1.93,0,0,0-.5.11c-.32.1-.4.24-.7.9l-.07.16q-1.76,3.8-3.52,7.59L99.79,100.38q-1,2.16-2,4.35c-1.29,2.85-2.61,5.8-4,8.65-.21.47-.45,1-.68,1.45-.64,1.35-1.31,2.75-1.83,4.16a1,1,0,0,1-.92.64h0a1,1,0,0,1-.92-.63c-1.16-3-2.4-6.15-3.79-9.5-.82-2-2.32-5.32-3.34-7.44-1.12-2.31-2.18-4.69-3.21-7S77,90.28,75.81,87.93c-2.9-6-5.55-12.05-7.89-18.12L66.8,67c-1.92-4.89-3.91-9.94-4.85-15-.2-1-.24-1-1.3-1.22l-.39-.07c.54,5.72-1.09,19.46-1.46,22.45l.33.46c2.88,4.16,3.23,7.87,1.29,13.68-2.65,8-2.68,13.88-.09,18.13.78,1.27,1.64,2.52,2.48,3.72a43.13,43.13,0,0,1,4,6.55c2.28,4.85,3.17,9.1,2.74,13-1.51,13.62-8.44,24.13-11.4,28.63Zm66.69-107.9Zm-.42-.54Z"/></svg>