<svg id="图层_1" data-name="图层 1" xmlns="http://www.w3.org/2000/svg" viewBox="0 0 186 186"><defs><style>.cls-1{fill:#9b9692;}.cls-2{fill:#f2f2f2;}</style></defs><path class="cls-1" d="M89.51,183.25a3.07,3.07,0,0,1-1.82-.63c-2.75-2-4-4.32-3.8-7.18l0-.59a15.47,15.47,0,0,1,.3-2.61c1.28-5.49,0-10.78-1.31-15.9-2.26-9.06-4.81-19.33-6.86-29.54a35.36,35.36,0,0,1-.47-6.62c0-.62,0-1.24,0-1.87,0-1.47-2.87-14-3.1-15.18L73,103c.23,1.23,3.08,13.78,3.11,15.27,0,.63,0,1.25,0,1.88a33.39,33.39,0,0,0,.46,6.52c2,10.2,4.59,20.46,6.85,29.52,1.29,5.17,2.62,10.53,1.31,16.14a15.08,15.08,0,0,0-.29,2.52l0,.59c-.17,2.68,1,4.88,3.6,6.75a2.46,2.46,0,0,0,3.65-.68,6.2,6.2,0,0,0,1.15-3.65,31.61,31.61,0,0,0-1.6-9.46,26.4,26.4,0,0,1-.59-2.86,17.52,17.52,0,0,0-1-4.16c-.44-1-1.18-2.72-.07-4.14,2.6-3.32,1.83-6.84,1-10.57a30.64,30.64,0,0,1-.73-4.19,1.15,1.15,0,0,0-.08-.15,1.15,1.15,0,0,1-.14-.27,1.34,1.34,0,0,0-.07-.18,1.61,1.61,0,0,1-.13-.78c.23-1.44.35-2.87.48-4.25.11-1.23.22-2.52.41-3.82,1-7.25.76-13.7-.87-19.17l-.29-1c-1.23-4.07,1-10,2.76-14.11l.45.2c-1.69,4-4,9.59-2.73,13.77l.29,1c1.64,5.54,1.94,12.06.88,19.38-.19,1.29-.3,2.57-.41,3.8-.13,1.39-.25,2.82-.49,4.27a1.3,1.3,0,0,0,.12.54c0,.07,0,.13.07.2a1.15,1.15,0,0,0,.08.15.83.83,0,0,1,.16.38,31.48,31.48,0,0,0,.72,4.12c.81,3.68,1.65,7.48-1.1,11-.85,1.09-.4,2.39.13,3.63a18.32,18.32,0,0,1,1.09,4.28,25,25,0,0,0,.57,2.81,32,32,0,0,1,1.62,9.6A6.63,6.63,0,0,1,92,181.84,3.15,3.15,0,0,1,89.51,183.25Z"/><path class="cls-1" d="M88.91,159.32c-1.26-4.08-1.42-8.57-1.57-12.91l0-1.12c0-1-.07-2-.1-3.08a126.19,126.19,0,0,0-.92-13.54c-.32-2.29-.84-4.62-1.34-6.86a68.92,68.92,0,0,1-1.59-9.15c-.28-3.53-.44-7.22-.49-11.28h.5c0,4,.2,7.73.48,11.25a68.18,68.18,0,0,0,1.59,9.08c.5,2.26,1,4.59,1.34,6.9a127.47,127.47,0,0,1,.92,13.59c0,1,.07,2.06.11,3.08l0,1.12c.15,4.31.31,8.76,1.55,12.78Z"/><path class="cls-1" d="M90.67,99.09A122.46,122.46,0,0,0,95.11,87a75.86,75.86,0,0,0,3.46-16.34c.48-5.79-1-13.91-3.64-20.2a.34.34,0,0,1,.1-.4l.06,0h.17l.18,0c1.51,1.11,4.16,3.44,4.94,4.13,1.09,1,2.14.42,3.46-.26l.06,0a23.76,23.76,0,0,0,4.77-3.59l1.26-1.11c4.08-3.5,7.68-6.83,10.45-12.13.93-1.78,1-3.18.2-4.56a19,19,0,0,0-1.91-2.78c-2.36-2.77-4.94-5.43-7.43-8-2.79-2.89-5.68-5.88-8.29-9a9.45,9.45,0,0,0-1.6-1.41l-.25-.19c-1.44-1.11-3.23-1.41-5.64-1-2.63.5-5.88.31-7.07-1.68a4.87,4.87,0,0,1-.56-2.08,15.07,15.07,0,0,1,.07-3.07l-7.6.2a11.23,11.23,0,0,1,.08,2.77c-.21,2.13-1,3.2-2.86,3.69-.92.25-1.85.54-2.75.81-1.24.37-2.51.76-3.79,1.07-3,.71-4.54,2.31-5,5a100.33,100.33,0,0,0-1,12.05l0,.5c-.19,4.1-.35,8.2-.51,12.3l-.15,3.93a4.44,4.44,0,0,1-.83,2.69c-3.11,4-4.36,8.83-5.56,13.53l-.12.47L56.14,69l-.25-.06.24.07c-.19.61-.36,1.34-.52,2a21.15,21.15,0,0,1-.74,2.67q-.37,1-.78,2c-.51,1.3-1,2.65-1.48,4-.8,2.41-.72,4.26.24,5.66a9,9,0,0,0,1.2,1.47,3.94,3.94,0,0,0,2.23,1c.23,0,.81.11,1,0a.17.17,0,0,0,.05-.12.14.14,0,0,0,0-.09.41.41,0,0,0-.22-.1,3.08,3.08,0,0,1-1.41-.48,3.61,3.61,0,0,1-.39-.22l-.23-.13a2.69,2.69,0,0,1-1.11-1.73,6.59,6.59,0,0,1,.31-3.36l0-.14a4.29,4.29,0,0,1,1-1.89c.28-.27.54-.36.76-.26s.35.42.32.92a3.61,3.61,0,0,1,0,.39c-.06.71-.26,2.88.21,3.3a.2.2,0,0,0,.2,0c.13,0,.16-.1.13-.51,0-.09,0-.17,0-.23a2.66,2.66,0,0,1,.23-1,5.34,5.34,0,0,0,.22-.68,4,4,0,0,1,.31-.9,6.49,6.49,0,0,0,.59-3.83,8.77,8.77,0,0,1,.91-5.56c1.18-2.2,2.27-4.49,3.33-6.7.59-1.23,1.19-2.48,1.81-3.72h0l.2-.37c.35-.68.69-1.37,1-2A37.1,37.1,0,0,0,69,46.39c.58-4.3,1.67-12.74,2.09-17.1l.12-1.21.37,1.16c.27.84.7,2.7,1.11,4.5s.84,3.68,1.1,4.49c2.15,6.65,2.81,12.19.65,18.4a10.06,10.06,0,0,0-.26,2.84,4.45,4.45,0,0,1-1.12,3.29c-.85,2.1-.78,3.24-1.35,4.17-1,1.62-1.48,2.37-1.22,6.43.09,1.54-.64,3-.59,4.37a64.83,64.83,0,0,0,1,10.17Q72,94,73.23,100.09c.78,4,.29,4.06-.49.1S71.14,92.06,70.37,88a64.89,64.89,0,0,1-1-10.25c0-1.39.68-2.83.59-4.36-.27-4.23.25-5.06,1.29-6.73.56-.91.48-2,1.31-4.09.1-.25,1.2-1.86,1.09-3A6.51,6.51,0,0,1,74,56.47c2.13-6.12,1.45-11.57-.66-18.08-.26-.83-.69-2.71-1.11-4.53-.26-1.13-.52-2.28-.75-3.18C71,35.27,70,42.56,69.51,46.46a38.6,38.6,0,0,1-4.67,14.09c-.69,1.37-1.34,2.74-2,4.09-1.06,2.22-2.16,4.51-3.35,6.72a8.4,8.4,0,0,0-.85,5.27A6.86,6.86,0,0,1,58,80.74a4.24,4.24,0,0,0-.28.8,4.5,4.5,0,0,1-.24.74,1.9,1.9,0,0,0-.18.81,1.21,1.21,0,0,0,0,.19,1.78,1.78,0,0,1,0,.6c.42-.06.76-.07.94.1a.37.37,0,0,1,.13.3c0,.31-.41.54-.8.7.52-.07,1-.08,1.17.21a.48.48,0,0,1,.09.5c-.19.44-1,.61-2.4.77l-.29,0a.83.83,0,0,1-.18,0,2.68,2.68,0,0,0,1.13.39.83.83,0,0,1,.58.26.63.63,0,0,1,.17.46.65.65,0,0,1-.23.48,2,2,0,0,1-1.38.17,4.43,4.43,0,0,1-2.52-1.11,9.45,9.45,0,0,1-1.27-1.56c-1.06-1.53-1.16-3.53-.3-6.1.44-1.31,1-2.67,1.49-4,.26-.67.53-1.34.78-2a23.34,23.34,0,0,0,.71-2.6c.17-.71.34-1.44.53-2.06l1.74-7.16C58.61,57,59.87,52,63.05,48a4,4,0,0,0,.72-2.39l.15-3.93c.16-4.1.32-8.2.51-12.31l0-.49a101.83,101.83,0,0,1,1-12.12c.49-2.89,2.24-4.67,5.37-5.42,1.26-.31,2.54-.69,3.76-1.06.91-.28,1.84-.56,2.77-.81C79,9,79.69,8.12,79.88,6.19a11.2,11.2,0,0,0-.12-2.93L79.71,3l8.77-.22,0,.29a14.32,14.32,0,0,0-.11,3.26,4.64,4.64,0,0,0,.49,1.86c1.37,2.29,5.7,1.61,6.55,1.45,2.56-.48,4.47-.14,6,1.05l.26.2a9.47,9.47,0,0,1,1.67,1.49c2.61,3.15,5.49,6.13,8.27,9,2.5,2.59,5.08,5.26,7.45,8.05a18.2,18.2,0,0,1,2,2.85,4.88,4.88,0,0,1-.18,5c-2.82,5.39-6.46,8.75-10.57,12.29L109,50.69a24,24,0,0,1-4.87,3.66l-.06,0c-1.38.71-2.67,1.39-4,.19s-3.21-2.79-4.43-3.74c2.58,6.36,3.93,14.1,3.45,19.89a75.85,75.85,0,0,1-3.49,16.45,121.62,121.62,0,0,1-4.45,12.11C89.19,103.86,88.68,103.77,90.67,99.09ZM54.43,84.58a1.5,1.5,0,0,0,.31.79,1.38,1.38,0,0,0,1.31.63l.33,0c1.6-.19,1.93-.37,2-.47-.11-.1-.67,0-1,0a3.49,3.49,0,0,1-1.93-.1A4,4,0,0,1,54.43,84.58Zm.11-1a1.36,1.36,0,0,0,.72.9l.07,0a1.61,1.61,0,0,0,1.44.19,3.66,3.66,0,0,0,.95-.35,3.25,3.25,0,0,0-.53.06l-.23,0a3.35,3.35,0,0,1-1.17-.13A4.32,4.32,0,0,1,54.54,83.57Zm-.11-.75h0a5.52,5.52,0,0,0,1.49,1,8.21,8.21,0,0,1-.13-3.36,3.18,3.18,0,0,0,0-.36,1.08,1.08,0,0,0,0-.43,2.37,2.37,0,0,0-.2.16,4,4,0,0,0-.81,1.67l0,.14A7.78,7.78,0,0,0,54.43,82.82Zm48-32.37c-.88,0-1.79-.69-3.23-2.44-.34-.41-.68-.87-1-1.36a14.89,14.89,0,0,0-3-3.35l-.11-.08a4.33,4.33,0,0,0-.64-.36,1.55,1.55,0,0,1-.81-1.64c.14-.68.26-1.33.38-2,.28-1.46.56-3,1-4.43.17-.62.32-1.24.48-1.85a34.55,34.55,0,0,1,1.53-5.1,5.2,5.2,0,0,0,.3-3.21A2.25,2.25,0,0,1,98,22.1c1-.73,1.91,0,2.57.49s1.12.83,1.75,1.27a22.11,22.11,0,0,1,3.15,2.48c2.13,2.16,4.43,4.2,6.66,6.19L114,34.24l.15.12c.26.23.53.46.54.81a1,1,0,0,1-.4.71h0A31.15,31.15,0,0,0,108.83,43c-.83,1.32-1.68,2.69-2.63,4-1.61,2.18-2.57,3.42-3.73,3.45ZM95.53,43a15.73,15.73,0,0,1,3,3.4c.35.48.69.94,1,1.34,1.32,1.59,2.15,2.25,2.85,2.25h0c.93,0,1.88-1.25,3.35-3.24.93-1.26,1.78-2.62,2.6-3.93A32,32,0,0,1,114,35.5h0c.14-.14.23-.25.22-.33s-.19-.28-.36-.42l-.15-.13-1.91-1.71c-2.24-2-4.54-4-6.69-6.22A22.13,22.13,0,0,0,102,24.27c-.63-.44-1.22-.86-1.77-1.28-.73-.58-1.3-.95-2-.48a1.76,1.76,0,0,0-.57,2,5.63,5.63,0,0,1-.32,3.53,35.21,35.21,0,0,0-1.51,5c-.15.62-.31,1.24-.47,1.86-.39,1.44-.67,2.94-1,4.39-.12.65-.24,1.3-.37,2s.28,1,.52,1.12a4.88,4.88,0,0,1,.8.47Z"/><path class="cls-2" d="M107.17,172a6.52,6.52,0,0,1-4.24-1.39c-1-.78-2.67-1.18-5-1.18a22.35,22.35,0,0,0-2.79.18l-24.76-.22a12.44,12.44,0,0,1-4.43-1,4.18,4.18,0,0,1-1.43-1.69,3,3,0,0,0-2.73-2,5.82,5.82,0,0,0-1.68.32,6.45,6.45,0,0,1-.84.21,21.93,21.93,0,0,1-3.82.36c-5.5,0-9.12-2.48-10.76-7.36-.76-2.26-.18-4.31.59-6.56,5.86-17.17,11.12-34.83,16.2-51.91q2.77-9.33,5.58-18.65l.09-.32c1.55-5.18,5.32-17.66,6.9-21.7,3.76-9.61,2.11-15.58-.39-24.63l-.59-2.13c-.79-2.93-.37-6.32,0-9.59.52-4.23,1-8.23-.93-11.36a2.85,2.85,0,0,1,.22-.49,11.53,11.53,0,0,1,3.08-1q.3,0,.63,0c.55,0,.68.11.68.11A9.52,9.52,0,0,0,85,15,8.68,8.68,0,0,0,92.85,10a.74.74,0,0,1,.56-.43l.33,0c.38,0,.91-.07,1.46-.07a3.35,3.35,0,0,1,2,.38,1.16,1.16,0,0,1,.32.48,34.82,34.82,0,0,1,2,15,40,40,0,0,1-1,5.88l-.28,1.23a20.71,20.71,0,0,0,.1,8.42c.35,2.34,17.73,48.78,24.18,65.56,5.93,15.45,9.89,26,14.75,41.7,1.2,3.88,2.62,7.83,3.86,11.31a5.62,5.62,0,0,1,.16,4.37c-.56,1.19-1.79,2.1-3.76,2.8-2.76,1-8.26,1.53-12.27,1.94-1.31.13-2.49.26-3.44.37a31.58,31.58,0,0,0-6.38,1.38c-1.09.33-2.34.71-4.27,1.15A18,18,0,0,1,107.17,172Z"/><path class="cls-1" d="M93.75,10.39h0m1.45,0a3.71,3.71,0,0,1,1.35.16.11.11,0,0,0,0,.06,33.91,33.91,0,0,1,1.93,14.6,38.89,38.89,0,0,1-1,5.73c-.09.41-.18.82-.28,1.24A22.07,22.07,0,0,0,97.32,41c.39,2.58,18.54,50.94,24.24,65.77,5.92,15.42,9.87,25.91,14.73,41.63,1.2,3.91,2.62,7.87,3.87,11.36a4.78,4.78,0,0,1,.2,3.6,5.25,5.25,0,0,1-3.19,2.28c-2.66.94-8.08,1.49-12,1.9-1.28.13-2.49.25-3.45.37a32.84,32.84,0,0,0-6.55,1.41c-1.08.33-2.31.7-4.21,1.14a16.87,16.87,0,0,1-3.74.55,5.63,5.63,0,0,1-3.63-1.18c-1.19-.93-3-1.39-5.57-1.39a24.11,24.11,0,0,0-2.85.18l-24.64-.22a12.12,12.12,0,0,1-3.93-.79,3.23,3.23,0,0,1-1.09-1.29,3.92,3.92,0,0,0-3.63-2.55,6.71,6.71,0,0,0-2,.36c-.27.08-.53.15-.74.19a21.73,21.73,0,0,1-3.64.34c-5.09,0-8.3-2.18-9.81-6.68-.66-2-.15-3.77.58-5.92,5.87-17.18,11.13-34.84,16.21-51.93,1.82-6.12,3.7-12.45,5.59-18.66l.11-.39c3.26-10.9,5.75-18.76,6.85-21.55,3.89-9.92,2.11-16.35-.35-25.26-.19-.69-.39-1.4-.59-2.14-.75-2.73-.34-6,.06-9.2.49-3.95,1-8-.7-11.36a20.59,20.59,0,0,1,2.24-.64l.47,0h0A10.46,10.46,0,0,0,85,16a9.66,9.66,0,0,0,8.67-5.51h.13c.39,0,.88-.07,1.38-.07m0-2c-.75,0-1.46.07-1.86.1A1.68,1.68,0,0,0,92,9.5,7.69,7.69,0,0,1,85,14,8.57,8.57,0,0,1,77.68,9.5a1.65,1.65,0,0,0-1.53-.59c-.27,0-.54,0-.79,0-1.65.39-3.44.85-3.81,1.55-.23.44-.49,1-.24,1.37,3.35,5.21-1,13.9.84,20.79,2.74,10.07,4.94,16.11,1,26.14-1.89,4.82-6.83,21.47-7,22.09C59,104.44,52.33,128.13,44.37,151.42c-.81,2.37-1.45,4.63-.59,7.2,1.77,5.26,5.77,8,11.71,8a22.88,22.88,0,0,0,4-.37,15.35,15.35,0,0,1,2.35-.52c.67,0,1.3.31,1.83,1.42a5.12,5.12,0,0,0,1.78,2.08c1.38.92,5,1.13,5,1.13l24.83.22a21.25,21.25,0,0,1,2.73-.18c1.54,0,3.36.19,4.34,1a7.59,7.59,0,0,0,4.86,1.61,19,19,0,0,0,4.19-.6c5-1.16,5.47-1.88,10.56-2.51,3.94-.5,12.14-1,15.91-2.37,4.19-1.48,5.76-4.12,4.21-8.45-1.33-3.74-2.67-7.48-3.84-11.27-4.89-15.81-8.83-26.28-14.78-41.76C116.6,88.29,99.62,42.86,99.3,40.7a19.84,19.84,0,0,1-.11-8.05,52.5,52.5,0,0,0,1.32-7.25A35.85,35.85,0,0,0,98.44,9.93,2.06,2.06,0,0,0,97.82,9a4.38,4.38,0,0,0-2.62-.61Z"/><polygon class="cls-1" points="68.13 116.11 48.43 163.26 46.6 162.46 68.13 116.11"/><polygon class="cls-1" points="84.72 85.9 81.28 170.54 79.28 170.44 84.72 85.9"/><polygon class="cls-1" points="111.36 112.08 126.91 168.64 124.97 169.14 111.36 112.08"/><path class="cls-1" d="M76.67,49.25c1.86.42,3.67.79,5.46,1.06a26.76,26.76,0,0,0,5.33.31,13.64,13.64,0,0,0,5-1.16,14.38,14.38,0,0,0,4.31-3.23,9,9,0,0,1-3.53,4.59,11.16,11.16,0,0,1-5.68,1.79,16.3,16.3,0,0,1-5.79-.79A16.49,16.49,0,0,1,76.67,49.25Z"/></svg>