<svg id="图层_1" data-name="图层 1" xmlns="http://www.w3.org/2000/svg" viewBox="0 0 186 186"><defs><style>.cls-1{fill:#fff;}.cls-2{fill:#9b9692;}.cls-3{fill:#f2f2f2;}</style></defs><path class="cls-1" d="M106.57,3.26H99.33a1.67,1.67,0,0,0-1.58,1.11c-.3.85-.65,2.52-.8,2.7C95.87,8.41,94,8.18,92.5,8.36c-1.94.22-4,.51-5.56,1.83a11.92,11.92,0,0,0-3.27,5.39c-1,3-1.24,6.45-1.76,9.58-.3,1.77-.57,3.53-.86,5.3a29,29,0,0,0-.76,5,4,4,0,0,0,1.22,3,5.23,5.23,0,0,0,2.41,1c2.1.44,4.37.54,6.24-.68,1.67-1.08,1.91-3.48-.55-3.53-1.56,0-4.07.57-4.11-1.57,0-1.32.9-2.81,1.52-3.91,1.32-2.34,3-4.44,4.5-6.63a1.66,1.66,0,0,1,1.56-.73L115,24.58c.86.09,2.92-2.6,3.37-3.14a15.83,15.83,0,0,0,3.25-7c.53-2.76.31-4.3-2.65-5-3.24-.77-7.21-.68-10.18-2.26a.87.87,0,0,1-.44-.38,1,1,0,0,1-.06-.38c0-.55-.07-1.11-.07-1.66A1.69,1.69,0,0,0,106.57,3.26Z"/><path class="cls-2" d="M86.45,40.09a15.12,15.12,0,0,1-2.14-.16,6.9,6.9,0,0,1-2.12-.67,4.49,4.49,0,0,1-2.32-4.84c.33-1.86.63-3.76.92-5.6.2-1.22.39-2.43.6-3.65.15-.9.28-1.82.4-2.75a42,42,0,0,1,1.39-7,12.11,12.11,0,0,1,3.39-5.57c1.67-1.44,4-1.72,5.78-1.92.33,0,.67-.06,1-.08,1.24-.07,2.53-.14,3.33-1.13A9.62,9.62,0,0,0,97,5.61c.14-.54.3-1.15.45-1.58a2,2,0,0,1,1.84-1.29h7.34a2,2,0,0,1,1.93,1.69c0,.35,0,.67,0,1s0,.49,0,.73a.64.64,0,0,0,0,.29.7.7,0,0,0,.33.27,19.89,19.89,0,0,0,6.64,1.66,35,35,0,0,1,3.64.61c3.13.74,3.43,2.45,2.87,5.36a16.32,16.32,0,0,1-3.35,7.27l-.18.22c-1.26,1.56-2.65,3.15-3.46,3.06L92.94,22.6a1.47,1.47,0,0,0-1.35.63c-.43.62-.87,1.23-1.31,1.84A54.15,54.15,0,0,0,87,29.94l-.19.33a7.77,7.77,0,0,0-1.32,3.51,1.29,1.29,0,0,0,.36,1c.53.49,1.63.44,2.6.39.34,0,.67,0,1,0a1.94,1.94,0,0,1,2,1.25,2.68,2.68,0,0,1-1.34,2.79A6.57,6.57,0,0,1,86.45,40.09ZM99.31,3.24a1.47,1.47,0,0,0-1.37,1c-.14.41-.3,1-.44,1.54A4.43,4.43,0,0,1,97.09,7c-.94,1.16-2.4,1.25-3.69,1.32-.34,0-.68,0-1,.08-1.67.19-4,.46-5.5,1.8a11.78,11.78,0,0,0-3.24,5.35,40.37,40.37,0,0,0-1.37,6.92c-.13.93-.26,1.86-.41,2.77-.2,1.21-.4,2.42-.59,3.64-.29,1.84-.6,3.74-.93,5.61a4,4,0,0,0,2,4.31,6.53,6.53,0,0,0,2,.61c2.46.35,4.25.13,5.49-.68A2.21,2.21,0,0,0,91,36.52c-.15-.56-.71-.87-1.56-.89-.29,0-.6,0-.93,0-1.07.06-2.28.11-3-.53A1.76,1.76,0,0,1,85,33.79,8.06,8.06,0,0,1,86.42,30l.18-.32a54.53,54.53,0,0,1,3.27-4.92c.44-.61.88-1.21,1.3-1.83A2,2,0,0,1,93,22.1l22.25,2.28c.29,0,1.06-.44,3-2.88l.18-.22a15.79,15.79,0,0,0,3.25-7c.53-2.78.29-4.13-2.5-4.79-1.13-.26-2.32-.42-3.59-.59a20.5,20.5,0,0,1-6.81-1.72,1.16,1.16,0,0,1-.55-.5,1.21,1.21,0,0,1-.08-.48c0-.24,0-.48,0-.72s0-.65,0-1a1.44,1.44,0,0,0-1.43-1.22Z"/><path class="cls-3" d="M125.81,182.26a40.14,40.14,0,0,1-9.53-1.62l-2.42-.6a29.62,29.62,0,0,0-7-.77,76.09,76.09,0,0,0-9.58.81l-2.44.3a114.16,114.16,0,0,1-13.37.67c-2.88,0-5.82-.06-8.67-.12s-5.8-.12-8.69-.12c-2.63,0-4.95.05-7.1.15l-2.06.1c-3.6.18-7.32.37-11,.37a61.28,61.28,0,0,1-15.58-1.7,3.66,3.66,0,0,1-2.17-1.39c-1.38-2.12.64-5.72,2.63-7,2.61-1.72,5.2-3.12,7.71-4.46,5.78-3.1,11.23-6,15.84-12.37,5-6.88,8.54-15.43,10.5-25.41,1.67-8.54,2-17.53,2.37-26.23C65.94,86.69,66.6,70,75.78,55.92a48,48,0,0,1,6.76-8.34c.64-.6,1.37-1.17,2.13-1.77,2.34-1.83,5-3.91,5-7.5A47.44,47.44,0,0,0,89,30.66a41.35,41.35,0,0,1-.72-8.31c.17-3.73,2.92-5.32,9.19-5.32,1.12,0,2.2,0,3.25.09l1.6.06a49.55,49.55,0,0,1,9,1.07l.44.09c3.85.81,5.61,1.18,6.25,5A13.8,13.8,0,0,1,115.18,34c-1.14,1.42-2.07,2.46-2.9,3.37-2.62,2.87-3.81,4.18-4.28,10.32a1.1,1.1,0,0,0,.08.48c.1.23,10.2,23.39,13.53,30.69,1.61,3.55,7.64,16.63,14.06,30.6,7.56,16.43,15.38,33.42,17.74,38.6a124,124,0,0,1,5.69,16c.18.61.35,1.14.5,1.62.84,2.59,1,3.13-.69,5.42-.45.59-3.85,1.69-7.46,2.86-4.94,1.59-11.69,3.77-20.22,7.28a14,14,0,0,1-5.42,1Z"/><path class="cls-2" d="M97.43,18c1.1,0,2.17,0,3.21.09l1.62.06a48.67,48.67,0,0,1,8.8,1.05l.44.09c3.89.82,4.94,1,5.47,4.18a12.81,12.81,0,0,1-2.57,9.84c-1.12,1.39-2,2.41-2.86,3.31-2.88,3.16-4.06,4.69-4.54,10.93a2,2,0,0,0,.17,1c.1.23,10.2,23.4,13.53,30.7C122.32,82.8,128.4,96,134.84,110c7.53,16.35,15.31,33.26,17.66,38.42a123.41,123.41,0,0,1,5.64,15.92c.18.62.36,1.16.51,1.65.78,2.41.85,2.63-.49,4.44-.69.53-3.9,1.57-7,2.57-4.95,1.6-11.73,3.79-20.29,7.31a13,13,0,0,1-5,.94,39.08,39.08,0,0,1-9.28-1.59l-2.44-.61a31.06,31.06,0,0,0-7.21-.79,77.68,77.68,0,0,0-9.71.82l-2.43.3a112.13,112.13,0,0,1-13.24.66c-2.88,0-5.81-.06-8.65-.12s-5.82-.12-8.72-.12c-2.64,0-5,.05-7.15.15l-2,.1c-3.59.18-7.31.37-10.94.37a60.23,60.23,0,0,1-15.33-1.67,2.66,2.66,0,0,1-1.58-1c-1-1.56.71-4.58,2.34-5.65,2.57-1.69,5.15-3.08,7.63-4.41,5.88-3.16,11.44-6.14,16.18-12.66,5.1-7,8.68-15.68,10.67-25.81,1.68-8.61,2-17.64,2.39-26.38.67-16.75,1.3-32.57,10.33-46.41a46,46,0,0,1,6.62-8.16,25.06,25.06,0,0,1,2.05-1.72c2.39-1.87,5.37-4.19,5.42-8.27a47.85,47.85,0,0,0-.77-7.81,41.3,41.3,0,0,1-.71-8.12c.11-2.26,1.18-4.36,8.2-4.36m0-2c-4.8,0-9.94.83-10.19,6.27s1.53,10.72,1.47,16c0,4.17-4.19,6-6.86,8.57a48.43,48.43,0,0,0-6.91,8.52c-14.29,21.91-8.24,49.14-13,73.49-1.74,8.87-5,17.68-10.32,25-6.46,8.87-14.65,10.88-23.31,16.58-2.35,1.55-4.67,5.7-2.91,8.42a4.63,4.63,0,0,0,2.75,1.8A62.62,62.62,0,0,0,44,182.43c4.37,0,8.75-.26,13.09-.47,2.34-.11,4.69-.15,7-.15,5.77,0,11.58.24,17.37.24A113.89,113.89,0,0,0,95,181.37a103.6,103.6,0,0,1,11.91-1.1,28.91,28.91,0,0,1,6.75.74c4,.94,8.09,2.25,12.18,2.25a14.92,14.92,0,0,0,5.8-1.09c16.53-6.8,26.8-8.72,28.1-10.46,2.37-3.19,1.51-4,.35-7.93a125.94,125.94,0,0,0-5.74-16.18c-4.4-9.67-28.32-61.55-31.8-69.19C119.16,71,109,47.73,109,47.73c.58-7.66,2.19-7.18,7-13.15a14.85,14.85,0,0,0,3-11.41c-.78-4.65-3.26-5-7.47-5.9a51.26,51.26,0,0,0-9.16-1.09c-1.41,0-3.12-.15-4.88-.15Z"/><path class="cls-2" d="M124.09,181.81l-.16,0a.75.75,0,0,1-.57-.89c6.59-30.4-17.9-103.52-18.18-104.34a.75.75,0,1,1,1.42-.48c.07.21,4.32,12.57,10.31,36.7,8.06,32.46,10.72,55.49,7.91,68.44A.74.74,0,0,1,124.09,181.81Z"/><path class="cls-2" d="M79,181.76a.8.8,0,0,1-.3-.06.75.75,0,0,1-.39-1c8.42-19.25,13.91-79,14-79.58a.75.75,0,0,1,1.5.13c-.23,2.47-5.57,60.57-14.08,80.05A.76.76,0,0,1,79,181.76Z"/><path class="cls-2" d="M72.3,129.39a.75.75,0,0,1-.72-.78c1.78-50.77,12.16-74.15,20.47-84.82a29.73,29.73,0,0,1,3.47-3.93c.36-.33,1.42-1.51,2-.85s-.19,1.17-1.32,2.46a43.79,43.79,0,0,0-3,3.58C85.13,55.6,74.83,78.73,73.08,128.67A.76.76,0,0,1,72.3,129.39Z"/><path class="cls-1" d="M104.33,71c-.11.72-.21,1.45-.29,2.18,0,.3-.32,1.47.2,1.54.32.05.45-.31.54-.55.58-1.52,1-3.1,1.41-4.66,0-.16.09-.56.3-.54.85.07,0,5.31,0,5.76,0-.1,0,.7.62,0,0,0,1-4.35.82-5.77a24.9,24.9,0,0,1,0-3.56c0-1.72,1-3.3-.13-5.36l-1.62-9.16c-.51-2-.64-4.11-1.07-6.14-.5-2.34-1.37-4.82-1.35-7.24,0-4.24,4.48-6.52,7.44-8.64,8.07-5.78,7.47-7.39,9.89-12.08l-7.41-1.7c-.57-.13-4.49,5.62-4.92,6.16-2.72,3.4-5.44,6.74-8.39,9.9a8.84,8.84,0,0,0-1.31,9.62c.16,0,5.51,20.59,5.52,20.64a8,8,0,0,1-.58.9,11.31,11.31,0,0,0-1,3.26c-.09.5-.15,1-.2,1.5a5.76,5.76,0,0,1-.69,2.22,5.06,5.06,0,0,0-.73,2.13c0,.11,0,.26.13.26a.16.16,0,0,0,.11,0,3.6,3.6,0,0,0,.86-1.31A6.67,6.67,0,0,1,103.58,69c.18-.16.07.31.06.36-.08.41-.21.82-.32,1.22a12.15,12.15,0,0,0-.6,3.1.55.55,0,0,0,0,.25.2.2,0,0,0,.2.13.21.21,0,0,0,.15-.07c.3-.28.3-.74.44-1.1a10.58,10.58,0,0,1,.69-1.34c.23-.43.33-.91.55-1.34"/><path class="cls-1" d="M108,65c.18.62.29,1,.52,1.61s.57,1.08.82,1.65c0,.1.08.25,0,.31a.26.26,0,0,1-.15,0,1.92,1.92,0,0,1-1.25-.6l-.89-.94Z"/><path class="cls-2" d="M102.87,74.47a.39.39,0,0,1-.28-.11c-.26-.23-.28-.89,0-2,.11-.49.25-1,.39-1.44s.21-.76.31-1.14a5.15,5.15,0,0,0-.61.86l-.07.13c-.38.77-.68,1.25-1,1.31a.42.42,0,0,1-.35-.12c-.27-.28-.11-.85.07-1.36l0-.07a8.59,8.59,0,0,1,.55-1.2,5.4,5.4,0,0,0,.66-2.13c.06-.54.12-1,.2-1.51a11.77,11.77,0,0,1,1-3.34,2.53,2.53,0,0,1,.21-.3c.09-.13.27-.38.34-.5l0-.11C101.8,52,99.09,41.77,98.82,41.1l0,0a9.1,9.1,0,0,1,1.36-9.89c2.95-3.16,5.65-6.48,8.38-9.89.13-.17,1.19-2,2.31-3.93,1.22-2.13,2.61-4.53,3.61-6.18A4.8,4.8,0,0,1,119,9.12a3.6,3.6,0,0,1,3.2,2.42,5.09,5.09,0,0,1,0,2.79,23.7,23.7,0,0,1-4.85,9.49c-1.85,2.39-4.76,4.57-7.33,6.49l-1,.76-.08.06c-2.18,1.65-4.9,3.7-4.92,6.57a20.78,20.78,0,0,0,.86,5.18c.17.68.34,1.35.48,2,.2.91.33,1.86.46,2.77.16,1.11.33,2.26.6,3.36L108,60.16a5.39,5.39,0,0,1,.34,3.89l-.07.4a.26.26,0,0,1-.29.21.25.25,0,0,1-.21-.29l.08-.41a4.93,4.93,0,0,0-.31-3.6.19.19,0,0,1,0-.08l-1.62-9.16a32.53,32.53,0,0,1-.61-3.39c-.13-.91-.26-1.84-.46-2.74-.14-.65-.3-1.32-.47-2a21,21,0,0,1-.88-5.31c0-3.11,3-5.33,5.12-7l.08-.06,1-.76c2.54-1.9,5.42-4.06,7.23-6.39a23.23,23.23,0,0,0,4.76-9.3,4.7,4.7,0,0,0,.07-2.52A3.13,3.13,0,0,0,119,9.62a4.3,4.3,0,0,0-4.09,1.8c-1,1.65-2.39,4.06-3.61,6.18-1.4,2.42-2.2,3.8-2.35,4-2.74,3.42-5.44,6.75-8.41,9.92a8.61,8.61,0,0,0-1.26,9.35l0,0c.33.68,1.25,4,5.53,20.47l.05.18c0,.16,0,.27-.44.84-.08.11-.15.2-.17.24a10.75,10.75,0,0,0-1,3.19c-.08.47-.15,1-.2,1.48a5.87,5.87,0,0,1-.72,2.32,7,7,0,0,0-.51,1.12l0,.07a3.29,3.29,0,0,0-.19.74,3.93,3.93,0,0,0,.56-1l.08-.15A5.75,5.75,0,0,1,103.33,69a.34.34,0,0,1,.46,0,.32.32,0,0,1,.08.3c-.11.62-.29,1.22-.45,1.8s-.28.94-.38,1.41a4.11,4.11,0,0,0-.14,1.43.29.29,0,0,0,.07-.1,6.35,6.35,0,0,0,.32-.8,8.33,8.33,0,0,1,.39-.93c.21-.43.4-.88.59-1.31l.22-.52a.25.25,0,0,1,.33-.13.24.24,0,0,1,.13.33l-.22.51c-.19.45-.38.91-.61,1.35a7.55,7.55,0,0,0-.36.87,7.53,7.53,0,0,1-.34.85.67.67,0,0,1-.38.38A.41.41,0,0,1,102.87,74.47Z"/><path class="cls-2" d="M106.64,75.46h-.1c-.12,0-.28-.13-.36-.44a.28.28,0,0,1,0-.09v0l0-.19c.55-3.93.36-4.94.25-5.2l0,.17,0,.11-.23.83c-.35,1.28-.71,2.6-1.19,3.86-.1.26-.29.78-.81.71a.59.59,0,0,1-.37-.22,2.11,2.11,0,0,1-.07-1.43,1.49,1.49,0,0,0,0-.17l.06-.52c0-.37.07-.64.15-1.16a.24.24,0,0,1,.28-.21.24.24,0,0,1,.21.28c-.07.52-.1.78-.14,1.15l-.06.52a.89.89,0,0,1,0,.19c0,.24-.14.87,0,1.05s.21-.11.3-.36c.48-1.25.83-2.56,1.18-3.82l.25-.92c0-.21.13-.68.54-.63a.43.43,0,0,1,.33.18c.26.32.52,1.25-.09,5.66l0,.14v0l.13-.12v0a22.36,22.36,0,0,0,.79-5.57,6,6,0,0,1-.07-1,.25.25,0,0,1,.25-.25h0a.25.25,0,0,1,.25.25,6.36,6.36,0,0,0,.06.92,24.46,24.46,0,0,1-.79,5.75l0,.1s0,.07-.06.11A.88.88,0,0,1,106.64,75.46Z"/><path class="cls-2" d="M109.07,69.05a2.22,2.22,0,0,1-1.38-.66.25.25,0,0,1,0-.35.24.24,0,0,1,.35,0,1.86,1.86,0,0,0,1,.54h0c-.11-.24-.23-.47-.36-.7a7.26,7.26,0,0,1-.47-1,6.3,6.3,0,0,1-.31-1.53c0-.31-.07-.6-.12-.89a.24.24,0,0,1,.19-.29.26.26,0,0,1,.3.19c.06.31.1.63.13.93a5.86,5.86,0,0,0,.28,1.42,6.21,6.21,0,0,0,.44.9c.13.24.27.48.38.73a.49.49,0,0,1-.1.62.44.44,0,0,1-.29.09Z"/></svg>