<svg id="图层_1" data-name="图层 1" xmlns="http://www.w3.org/2000/svg" viewBox="0 0 186 186"><defs><style>.cls-1{fill:#fff;}.cls-2{fill:#9a9692;}.cls-3{fill:#f2f2f2;}.cls-4{fill:#9b9692;}</style></defs><path class="cls-1" d="M109.53,2.88H98.71c-.35,2-.52,3.8-2.6,4.65-1.68.69-3.57.52-5.27,1.16a13.61,13.61,0,0,0-7.29,7.55,73.2,73.2,0,0,1-3.7,6.51c-2.09,3.67-4.78,7.32-6.5,11.16C71.48,38.1,75.7,40.8,78.52,43c.62.48,8,6.43,7.88,6.56l3.15-4.65-4.32-3.61c-1.33-1.1-5.86-3.82-5.86-5.62a2.47,2.47,0,0,1,.87-1.64c2-2,3.89-4.11,5.8-6.18.46-.5,3.15-4.19,3.81-4.13l29.44,2.48s6.61-7.14,1.95-13.44a6.61,6.61,0,0,0-2.25-2,10.81,10.81,0,0,0-3.33-1.11c-1.47-.26-2.93,0-4.4-.22a2.35,2.35,0,0,1-1-.36C109.34,8.48,109.73,2.88,109.53,2.88Z"/><path class="cls-2" d="M86.19,49.69h0ZM98.92,3.38l0,.22C98.57,5.44,98.26,7.18,96.2,8a11.59,11.59,0,0,1-2.76.62,11.33,11.33,0,0,0-2.51.53c-3.84,1.46-6,4.84-7.16,7.42a39,39,0,0,1-2.47,4.47c-.42.69-.84,1.38-1.23,2.07-.75,1.31-1.59,2.64-2.4,3.93a60.06,60.06,0,0,0-4.09,7.2c-1.62,3.64,1.53,6.06,4.31,8.2l.79.61c.3.24,2.27,1.83,4.2,3.42C85,48.22,86,49,86.38,49.44c.31-.48,1.05-1.58,2.84-4.22l-4.15-3.46c-.3-.24-.76-.57-1.3-1-2-1.4-4.65-3.33-4.65-4.85a2.63,2.63,0,0,1,.95-1.82c1.48-1.44,2.9-3,4.27-4.51L85.86,28c.1-.11.33-.4.62-.77,1.83-2.32,2.85-3.48,3.4-3.44l29.31,2.47c.72-.84,6-7.34,1.85-13a6.18,6.18,0,0,0-2.17-1.91,10.62,10.62,0,0,0-3.25-1.08,11.78,11.78,0,0,0-2.29-.13,15.09,15.09,0,0,1-2.11-.09,2.56,2.56,0,0,1-1.14-.41c-.65-.47-.71-2.55-.73-5,0-.46,0-.93,0-1.16ZM86.15,50.65v-.74c-.62-.66-7-5.82-7.78-6.45l-.79-.6c-2.78-2.14-6.24-4.81-4.45-8.8a58.68,58.68,0,0,1,4.11-7.26c.81-1.29,1.65-2.62,2.39-3.92.4-.69.82-1.38,1.25-2.08a39.66,39.66,0,0,0,2.44-4.41c1.18-2.67,3.43-6.17,7.44-7.68a11.91,11.91,0,0,1,2.62-.57A10.82,10.82,0,0,0,96,7.55c1.81-.73,2.07-2.26,2.38-4l.12-.64h11c.31,0,.31.15.32,1.66,0,1.28,0,4.27.53,4.62a1.91,1.91,0,0,0,.91.32,14,14,0,0,0,2,.09,12.86,12.86,0,0,1,2.38.13,11.34,11.34,0,0,1,3.4,1.14,6.8,6.8,0,0,1,2.33,2.05c4.73,6.4-1.9,13.69-2,13.76l-.08.09L89.83,24.25c-.44.05-2.27,2.37-3,3.24-.31.39-.55.69-.66.81L84.71,30c-1.37,1.52-2.8,3.09-4.29,4.54a2.18,2.18,0,0,0-.8,1.46c0,1.26,2.78,3.26,4.45,4.45.54.39,1,.72,1.32,1l4.5,3.75-.13.19L86.62,50h0Z"/><path class="cls-3" d="M94.34,182.12c-.33,0-.65,0-1,0l-1.14,0a12.16,12.16,0,0,1-4.36-.58c-.06,0-.12-.18-.21-.39a2.07,2.07,0,0,0-2-1.53h-.6c-1.79,0-3.56.19-5.28.36-1.17.12-2.39.25-3.58.31-1.78.09-3.62.11-5.39.13-1.16,0-2.31,0-3.46.06h-.49c-4.1.11-8.33.23-12.5.3-1.32,0-2.63.07-3.94.12-1.67.06-3.41.13-5.09.13a34.63,34.63,0,0,1-8.93-1,3.62,3.62,0,0,1-2.18-1.4c-1.39-2.13.64-5.76,2.64-7.08a58.23,58.23,0,0,1,8.62-4.17c7.35-3.12,16.5-7,22.72-14.84,6.91-8.69,7.41-23,7.94-38.06.14-4.1.29-8.34.57-12.47.62-9,.66-18.18.7-27,0-2.64,0-5.28,0-7.92,0-4.44.39-10.19,2.71-15.27a20.69,20.69,0,0,1,5.2-7,16,16,0,0,1,2-1.41c1.84-1.16,3.93-2.47,4.42-4.92a12.52,12.52,0,0,0-.62-5.67l-.39-1.44c-.9-3.43-1.83-7-1-10.37a6.47,6.47,0,0,1,1.58-3.09c2.06-2.05,5.62-2.31,8.48-2.31,1.1,0,2.19,0,3.19.08l1.59.06a50.22,50.22,0,0,1,9,1.08l.44.09c3.88.82,5.65,1.19,6.3,5a13.9,13.9,0,0,1-2.79,10.69,40.45,40.45,0,0,0-8.8,21.9c-.66,8.64,3.09,16.86,6.39,24.12,1,2.22,2.07,4.43,3.11,6.64,2.54,5.35,5.16,10.87,7.2,16.49q1.86,5.13,3.68,10.27c1.23,3.47,2.57,7.12,4.37,11.84,1.16,3,2.3,6.16,3.39,9.18,2.51,6.89,5.1,14,8.19,20.81A124.14,124.14,0,0,1,150.85,170c.25.84.51,1.57.74,2.21.86,2.39,1.12,3.11-.78,4.72-4.13,3.5-12.8,3.77-15.35,3.77h0l-1.32,0c-2.83-.09-5.76-.37-8.6-.65-3.49-.35-7.09-.7-10.65-.7a39.67,39.67,0,0,0-7.44.64c-1.26.24-2.51.52-3.75.8A43.12,43.12,0,0,1,94.34,182.12Z"/><path class="cls-4" d="M99.83,16.53c1.08,0,2.13,0,3.15.08l1.61.06a49.12,49.12,0,0,1,8.85,1.06l.44.09c3.92.82,5,1.05,5.51,4.22a12.85,12.85,0,0,1-2.58,9.9,41.35,41.35,0,0,0-9,22.45c-.68,8.89,3.12,17.24,6.47,24.6,1,2.24,2.09,4.49,3.12,6.67,2.53,5.32,5.14,10.82,7.16,16.39,1.27,3.52,2.51,7,3.68,10.26,1.22,3.45,2.61,7.22,4.38,11.87,1.15,3,2.29,6.14,3.38,9.16,2.52,6.91,5.12,14.06,8.22,20.89a123.38,123.38,0,0,1,5.68,16c.25.87.52,1.61.76,2.27.83,2.32.88,2.46-.49,3.61-2.61,2.22-8.11,3.54-14.71,3.54l-1.27,0c-2.8-.08-5.72-.37-8.54-.65-3.51-.34-7.14-.7-10.75-.7a40,40,0,0,0-7.63.66c-1.28.24-2.55.53-3.78.8a41.72,41.72,0,0,1-9.14,1.37c-.31,0-.62,0-.93,0l-1.17,0a15,15,0,0,1-3.67-.36,3,3,0,0,0-2.88-2.14h-.63a52,52,0,0,0-5.38.37c-1.21.12-2.36.24-3.53.3-1.76.09-3.59.11-5.35.13q-1.74,0-3.48.06l-.6,0c-4.06.11-8.25.22-12.38.29-1.33,0-2.66.07-4,.12-1.66.06-3.38.13-5.05.13a33.58,33.58,0,0,1-8.68-.94,2.7,2.7,0,0,1-1.59-1c-1-1.57.71-4.62,2.35-5.69a56.59,56.59,0,0,1,8.46-4.09c7.46-3.16,16.74-7.1,23.12-15.13,7.11-9,7.61-23.38,8.15-38.65.14-4.1.29-8.33.57-12.44.62-9,.66-18.23.7-27.12,0-2.64,0-5.28,0-7.91,0-4.34.38-10,2.62-14.86A19.67,19.67,0,0,1,86,45.49a15.19,15.19,0,0,1,1.9-1.31c1.91-1.2,4.28-2.7,4.86-5.58a13.06,13.06,0,0,0-.64-6.12c-.07-.26-.14-.51-.2-.77L91.76,31c-.87-3.31-1.77-6.73-1-9.88a5.54,5.54,0,0,1,1.32-2.61c1.82-1.81,5.31-2,7.77-2m0-2c-3.4,0-7,.41-9.18,2.61A7.4,7.4,0,0,0,88.8,20.7c-.93,3.86.23,7.79,1.2,11.52.5,1.9,1.22,4,.82,6-.59,2.93-4.09,4-6.11,5.77a21.78,21.78,0,0,0-5.44,7.35C77,56.23,76.51,61.68,76.46,67c-.12,11.64.05,23.3-.75,34.91-1.3,19,.29,39.18-8.29,50-8.92,11.23-24.07,14.16-31.11,18.8-2.37,1.56-4.71,5.73-2.93,8.46A4.69,4.69,0,0,0,36.15,181a36.24,36.24,0,0,0,9.18,1c3,0,6-.2,9.05-.25,4.33-.07,8.66-.19,13-.31,3-.08,5.93,0,8.88-.19s5.86-.67,8.81-.67h.58c1.28,0,.85,1.33,1.76,1.81,1.5.77,4.25.64,5.91.72.34,0,.69,0,1,0,4.52,0,8.87-1.37,13.29-2.21a39.33,39.33,0,0,1,7.26-.62c6.4,0,12.9,1.16,19.22,1.35l1.34,0c5.16,0,12.29-.86,16-4,3-2.58,1.52-4,.35-8A125.48,125.48,0,0,0,146,153.4c-4.42-9.72-7.75-20-11.55-29.93-1.5-3.93-3-7.86-4.37-11.82q-1.81-5.15-3.68-10.28c-2.89-8-6.83-15.51-10.34-23.21-3.38-7.42-6.94-15.26-6.3-23.62a39.69,39.69,0,0,1,8.58-21.35,15,15,0,0,0,3-11.49c-.79-4.68-3.28-5-7.52-5.93a51,51,0,0,0-9.21-1.1c-1.42,0-3.09-.14-4.81-.14Z"/><path class="cls-4" d="M89.05,182.14H89a.77.77,0,0,1-.67-.83,138.09,138.09,0,0,0,.33-29.08l0-.73c-.5-7.06-.73-14.26-1-21.23-.06-1.81-.11-3.62-.17-5.42-.1-3-.21-5.95-.32-8.93-.6-16.42-1.23-33.41-.49-50.17.24-5.59.68-11,3.24-15.75.43-.8.92-1.58,1.4-2.33a20.31,20.31,0,0,0,2.11-3.9c1.8-4.93.3-12-4.34-20.34a.75.75,0,1,1,1.31-.73c4.92,8.89,6.42,16.15,4.44,21.58a22.24,22.24,0,0,1-2.25,4.2c-.47.72-.94,1.48-1.35,2.23-2.41,4.47-2.82,9.7-3.06,15.11-.73,16.69-.11,33.65.49,50.05.11,3,.21,5.95.32,8.92.06,1.81.11,3.62.17,5.43.22,6.95.44,14.15,1,21.18l0,.72a139.4,139.4,0,0,1-.34,29.35A.75.75,0,0,1,89.05,182.14Z"/><path class="cls-4" d="M126.32,181.1a.74.74,0,0,1-.71-.52c-4.67-14.4-6.74-27-8.93-40.35-2.88-17.53-5.85-35.66-15-60.57l-.12-.33c-2.35-6.43-4.79-13.08-5.12-20-.27-5.75,2-11,4.17-16.16.92-2.16,1.87-4.39,2.61-6.62,2.08-6.2,2.3-10.09,2.42-20.5a.72.72,0,0,1,.76-.74.74.74,0,0,1,.74.76c-.13,10.59-.35,14.55-2.49,21-.77,2.3-1.73,4.55-2.66,6.74-2.21,5.19-4.3,10.09-4.05,15.5.32,6.72,2.71,13.26,5,19.59l.12.33c9.17,25,12.16,43.24,15,60.84,2.18,13.29,4.24,25.83,8.87,40.13a.75.75,0,0,1-.48.94A.93.93,0,0,1,126.32,181.1Z"/><path class="cls-1" d="M134.81,47.61c-.15-.33-.31-.7-.63-.81a13.32,13.32,0,0,1-3-1.59c-1.31-.75-2.68-.36-4-.07l1-.59a6.43,6.43,0,0,1,2.13-.74,6.5,6.5,0,0,0,1.59-.32c.44-.2.76-.38.55-.9-.15-.36-.34-.46-.64-.42-.76.11-1.53.2-2.29.27a4.68,4.68,0,0,0-1.92.39c-.47.27-.89.62-1.36.89-.79.45-1.41.71-1.8,1.59a25.92,25.92,0,0,1-2.9,4.52,1.25,1.25,0,0,1-1.37.54l-4.49-3.65-9.12-7.83c-1.23-1.06-1.18-1.92,0-3.09,4.26-4.19,10.17-12,14-16.66a4,4,0,1,0-6.4-4.74L101.3,32.82A16.82,16.82,0,0,0,99.19,36c-1,2.48.68,3.93,2.53,5.3,5.37,4,9.82,7.76,14.85,12.15,3.17,2.76,7.33,1.52,9.62-1.65a4.29,4.29,0,0,1,1.45-1.26,2.09,2.09,0,0,1,1.85-.16c.63.28,1.34,1.75,2.11,1a5.31,5.31,0,0,0-.58-.9,4.13,4.13,0,0,0-1.08-1.16,4.31,4.31,0,0,0-1.56-.23,5.65,5.65,0,0,1-1.47-.3l1.19-.07,1.66-.7c1.08.46,4,1.42,4.34.56a.24.24,0,0,0,0-.22h.12C134.62,48.34,135.08,48.18,134.81,47.61Z"/><path class="cls-4" d="M127.25,49.12h0a.25.25,0,0,1-.25-.25.25.25,0,0,1,.24-.25,6,6,0,0,0,2.51-.89.26.26,0,0,1,.34.1.25.25,0,0,1-.09.34A6.44,6.44,0,0,1,127.25,49.12Z"/><path class="cls-4" d="M120.32,55.08a6,6,0,0,1-4-1.57c-4.59-4-9.16-7.91-14.67-12C99.77,40.14,98.05,38.58,99,36A19,19,0,0,1,101,32.61l.26-.39,13.23-18.55a4.19,4.19,0,1,1,6.72,5c-1.08,1.3-2.4,3-3.79,4.73a163.19,163.19,0,0,1-10.71,12.7,2,2,0,0,0-.82,1.43,1.84,1.84,0,0,0,.81,1.25l9,7.74,4.4,3.57a1,1,0,0,0,1-.46l.37-.49A22.56,22.56,0,0,0,124,45.2a3.14,3.14,0,0,1,1.62-1.54l.26-.14c.23-.13.44-.28.66-.43a8.18,8.18,0,0,1,.69-.45,3.88,3.88,0,0,1,1.69-.4l.31,0c.71-.07,1.45-.16,2.24-.26l.17,0c.24-.05.69-.15.88.32.27.64-.23,1.22-.81,1.49a3.38,3.38,0,0,1-1.15.27l-.48.07a7,7,0,0,0-1.73.53A4.1,4.1,0,0,1,131,45l.76.48A8.78,8.78,0,0,0,134,46.54a1.74,1.74,0,0,1,1,.77.76.76,0,0,1,0,.73,1.25,1.25,0,0,1-1.06.51.26.26,0,0,1-.24-.26.25.25,0,0,1,.25-.24h0a.86.86,0,0,0,.62-.28.24.24,0,0,0,0-.25,1.28,1.28,0,0,0-.74-.51,9.51,9.51,0,0,1-2.26-1.13,7.24,7.24,0,0,0-.73-.46,4.69,4.69,0,0,0-3.52-.1l-.3.06a.27.27,0,0,1-.29-.15.26.26,0,0,1,.11-.31l1-.58a6.57,6.57,0,0,1,2.19-.76l.52-.07a3.49,3.49,0,0,0,1-.23c.26-.12.72-.46.56-.84,0-.08,0-.09-.3,0l-.22,0c-.8.11-1.54.2-2.27.26l-.31,0a3.5,3.5,0,0,0-1.49.33c-.22.13-.44.28-.65.43s-.45.31-.69.45l-.27.15a2.62,2.62,0,0,0-1.4,1.3,22.58,22.58,0,0,1-2.54,4l-.36.49a1.46,1.46,0,0,1-1.63.62.2.2,0,0,1-.08,0l-4.44-3.6-9-7.75a2.27,2.27,0,0,1-1-1.61,2.52,2.52,0,0,1,1-1.81A162.22,162.22,0,0,0,117,23.08c1.4-1.76,2.72-3.43,3.79-4.74A3.69,3.69,0,1,0,114.88,14L101.4,32.89a18.31,18.31,0,0,0-1.89,3.28c-.87,2.27.58,3.58,2.42,4.94,5.53,4.09,10.1,8,14.69,12A5.54,5.54,0,0,0,121,54.55a7.06,7.06,0,0,0,4.81-3,4.61,4.61,0,0,1,1.51-1.33,2.33,2.33,0,0,1,2.06-.16,2.76,2.76,0,0,1,.7.58c.47.48.71.67,1,.57a5.31,5.31,0,0,0-.44-.65,3,3,0,0,1-.27-.35,2.28,2.28,0,0,0-.72-.73,2.18,2.18,0,0,0-1-.18c-.15,0-.31,0-.46,0a5.8,5.8,0,0,1-1.51-.31.26.26,0,0,1-.14-.33.25.25,0,0,1,.32-.14,5.49,5.49,0,0,0,1.38.29l.43,0a2.72,2.72,0,0,1,1.21.23,2.68,2.68,0,0,1,.89.88l.25.33a5.34,5.34,0,0,1,.6.92.26.26,0,0,1-.05.3c-.69.67-1.36,0-1.8-.47a2.26,2.26,0,0,0-.55-.48,1.83,1.83,0,0,0-1.61.15,4,4,0,0,0-1.35,1.18A7.54,7.54,0,0,1,121,55,5.48,5.48,0,0,1,120.32,55.08Z"/><path class="cls-4" d="M132.91,49.25a7.4,7.4,0,0,1-3-1h0a.26.26,0,0,1-.34-.1.26.26,0,0,1,.1-.34l.13-.07a.24.24,0,0,1,.23,0c2.14,1.11,3,1.08,3.29,1a.41.41,0,0,0,.27-.27c0-.09-.39-.24-.52-.28l-.26-.11a3.13,3.13,0,0,0-.51-.23,3.37,3.37,0,0,1-.64-.28c-.13-.08-.26-.18-.38-.27a1.64,1.64,0,0,0-.6-.35,3.37,3.37,0,0,0-1.81.24,1.75,1.75,0,0,1-1.64-.12.25.25,0,0,1-.12-.34.26.26,0,0,1,.34-.11,1.28,1.28,0,0,0,1.24.1,3.93,3.93,0,0,1,2.09-.26,2,2,0,0,1,.8.44,3.29,3.29,0,0,0,.33.23,3.88,3.88,0,0,0,.56.26,3.38,3.38,0,0,1,.58.25l.2.08c.3.12.67.26.8.54a.48.48,0,0,1,0,.39.94.94,0,0,1-.56.56A1.55,1.55,0,0,1,132.91,49.25Z"/></svg>