<svg id="图层_1" data-name="图层 1" xmlns="http://www.w3.org/2000/svg" viewBox="0 0 186 186"><defs><style>.cls-1{fill:#9b9692;}.cls-2{fill:#f2f2f2;}.cls-3{fill:#5b3b2f;}</style></defs><path class="cls-1" d="M104.57,183.54a3.11,3.11,0,0,1-1.81-.63c-2.75-2-4-4.32-3.8-7.19l0-.58a14.3,14.3,0,0,1,.3-2.61c1.28-5.49,0-10.78-1.31-15.9-2.26-9.06-4.81-19.33-6.86-29.55a34.38,34.38,0,0,1-.47-6.61c0-.62,0-1.25,0-1.87,0-1.47-2.88-14-3.11-15.18l.49-.1c.23,1.23,3.08,13.77,3.11,15.27,0,.63,0,1.25,0,1.88a34.85,34.85,0,0,0,.46,6.51c2,10.21,4.6,20.47,6.86,29.52,1.28,5.18,2.62,10.54,1.31,16.15a15,15,0,0,0-.29,2.51l0,.6c-.18,2.67,1,4.88,3.59,6.75a2.48,2.48,0,0,0,3.66-.68,6.12,6.12,0,0,0,1.14-3.65,31.91,31.91,0,0,0-1.59-9.46,24.21,24.21,0,0,1-.59-2.86,18.12,18.12,0,0,0-1.06-4.17c-.43-1-1.17-2.71-.06-4.13,2.6-3.32,1.83-6.84,1-10.57a33.86,33.86,0,0,1-.73-4.2.53.53,0,0,0-.08-.14,1.71,1.71,0,0,1-.14-.27c0-.06,0-.12-.06-.19a1.72,1.72,0,0,1-.14-.78c.23-1.43.36-2.86.48-4.24s.23-2.52.42-3.82c1-7.25.76-13.7-.87-19.17l-.29-1c-1.23-4.08,1-10,2.75-14.11l.46.2c-1.69,4-4,9.59-2.74,13.76l.29,1c1.65,5.53,2,12.06.88,19.38-.18,1.29-.3,2.56-.41,3.8-.12,1.39-.25,2.82-.48,4.27a1.33,1.33,0,0,0,.12.54c0,.06,0,.13.07.2a.41.41,0,0,0,.08.14.87.87,0,0,1,.15.38,33.11,33.11,0,0,0,.73,4.13c.81,3.68,1.65,7.48-1.1,11-.86,1.09-.41,2.39.13,3.62a18,18,0,0,1,1.08,4.28,27.47,27.47,0,0,0,.58,2.81,32.12,32.12,0,0,1,1.62,9.61,6.63,6.63,0,0,1-1.25,3.94A3.16,3.16,0,0,1,104.57,183.54Z"/><path class="cls-1" d="M104,159.6c-1.26-4.07-1.42-8.56-1.58-12.91l0-1.11c0-1-.07-2.06-.1-3.08a128.65,128.65,0,0,0-.92-13.54c-.32-2.29-.84-4.62-1.34-6.87a66.8,66.8,0,0,1-1.59-9.15c-.29-3.52-.45-7.21-.49-11.28h.5c0,4,.2,7.73.48,11.24a67.6,67.6,0,0,0,1.58,9.08c.5,2.26,1,4.6,1.35,6.91a127.29,127.29,0,0,1,.92,13.59c0,1,.07,2.05.11,3.08l0,1.12c.15,4.31.31,8.76,1.55,12.78Z"/><path class="cls-2" d="M68.46,161.71S86.72,149.66,83,142.65c-9.07-17.14-3.86-18.45-2-19.63,4.72-3.07,12.43-3.07,7.2-14.35-.73-1.58-3.48-3-2.12-4.33,2-2-.1,4.44,8.06-1,6.58-4.39,16.13-1,16.13,0,0,1.32-4.51,2.65-6.52,7.69-1.14,2.84,2.24,5,6.41,14.71,2.1,4.9,2.13,8.21-6,14.37-1.45,1.1-.12,3.36,1.51,4.19,3.58,1.82,5.93,5.5,6.69,9.82.48,2.73-.16,5.82-.21,8.6-.12,7.9,3.23,13.77,11.39,16.42,6.32,2.06,12.07.58,18.51.73,7.43.18,15.79,1,22.91-1.65a5,5,0,0,0,1.71-1c1.68-1.58-.09-6.12-1.82-7.16-4.67-2.79-9.86-2.73-14.93-4.88-5.44-2.3-7.77-2.89-11.44-7.59-3.31-4.24-9.06-13.33-10.85-18.42C120,117.76,114.65,95.08,116.39,72.4,117,65,113.61,58.62,111,51.84c-2.07-5.39-5.55-11-6-16.85-.31-4-26.91-12.16-25-5.25,2.76,10.13,4.76,15.87,2,26.87C76.43,79.14,74.85,92,67.34,110.82c-7,17.6-18.82,37.88-32.47,51.15a23.18,23.18,0,0,1-8.1,5.54c-2.47.91-7.24,1.25-7.27,4.37-.06,5.52,5,6.39,10.5,5.73,3.84-.45,5.61.64,7.71,1.32,5,1.63,10.52-.35,15.7-.18,4.75.16,8.8.77,12.55-3.3s2.48-12.27,2.25-17.56"/><path class="cls-3" d="M83.28,48.6a44.34,44.34,0,0,0,6.23,1.07,37.37,37.37,0,0,0,6.25.17,53.8,53.8,0,0,0,6-1A43.6,43.6,0,0,0,107.7,47h0a.1.1,0,0,1,.13.06s0,.08,0,.1a12.64,12.64,0,0,1-5.49,3.64,19.68,19.68,0,0,1-6.55.69,38.19,38.19,0,0,1-6.42-.79,37.88,37.88,0,0,1-6.14-1.87.1.1,0,0,1-.06-.13A.11.11,0,0,1,83.28,48.6Z"/><path class="cls-1" d="M41.64,180.4a13.7,13.7,0,0,1-2.54-.22,20.87,20.87,0,0,1-3-.87,11.25,11.25,0,0,0-4.48-.91c-.6.06-1.18.16-1.74.25a11.4,11.4,0,0,1-4.36.12c-1.88-.37-5.48-1.65-7-4.09a4.29,4.29,0,0,1-.58-3.42c.69-2.76,2.84-3,4.58-3.29a9.82,9.82,0,0,0,2.09-.43c2.26-.83,5.27-3.08,9-6.67,15.91-15.49,26.66-32,32.87-50.37C69.06,102.58,71.05,95.15,73,88c1.25-4.69,2.55-9.54,4-14.49a1,1,0,0,1,1.92.57c-1.47,4.92-2.76,9.76-4,14.43C73,95.7,71,103.16,68.29,111.14,62,129.85,51.06,146.58,34.92,162.3c-4,3.85-7.11,6.17-9.67,7.11a11.86,11.86,0,0,1-2.51.55c-1.77.24-2.56.4-2.91,1.78a2.29,2.29,0,0,0,.33,1.87c1.1,1.74,4,2.87,5.73,3.2a9.46,9.46,0,0,0,3.64-.13c.6-.1,1.21-.21,1.89-.27a12.78,12.78,0,0,1,5.31,1,20,20,0,0,0,2.72.8,21.46,21.46,0,0,0,7.24-.38,26.31,26.31,0,0,1,7-.51c.79.08,1.58.2,2.37.33,3.3.51,6.15,1,8.48-1.58,3.44-3.74,3.18-9.61,3-14.33a1,1,0,1,1,2-.09c.23,5.09.51,11.42-3.5,15.77-3,3.32-6.71,2.75-10.26,2.2-.75-.12-1.51-.23-2.27-.31a24.34,24.34,0,0,0-6.42.49A32.81,32.81,0,0,1,41.64,180.4Z"/><path class="cls-1" d="M67.33,161.42c-.11-3.93.06-7.76.11-11.63l.23-11.6L68.11,115l.55,23.18.27,11.59c.12,3.86.11,7.76.4,11.55a1,1,0,1,1-2,.16v-.07Z"/><path class="cls-1" d="M69.21,162.38a1,1,0,0,1-.77-.37,1,1,0,0,1,.14-1.41c1.15-.94,2.38-1.84,3.68-2.8,3.08-2.26,6.27-4.6,8.24-7.49,2.62-3.83,1.77-6.7-.7-10.66A29.48,29.48,0,0,1,77.44,135a1,1,0,0,1,1.86-.75,27.22,27.22,0,0,0,2.19,4.35c2.79,4.45,3.87,8.16.66,12.85-2.16,3.17-5.49,5.61-8.71,8-1.27.93-2.48,1.82-3.59,2.73A1,1,0,0,1,69.21,162.38Z"/><path class="cls-1" d="M75.36,105.94a80.09,80.09,0,0,0,.16,8.49c.16,2.82.46,5.64.89,8.42s1.16,5.49,1.71,8.21a59.92,59.92,0,0,0,2.27,8.09.1.1,0,0,1-.06.13.11.11,0,0,1-.11,0,20.26,20.26,0,0,1-4-7.68A39.41,39.41,0,0,1,74.82,123c-.24-2.86-.33-5.73-.3-8.58a69.66,69.66,0,0,1,.64-8.54.1.1,0,0,1,.12-.08A.1.1,0,0,1,75.36,105.94Z"/><path class="cls-1" d="M78.37,135.61a1,1,0,0,1-1-.85,20,20,0,0,1,.19-7.19,10.13,10.13,0,0,1,2.69-5.27,10.74,10.74,0,0,1,4.32-2.24c2-.68,3.63-1.21,4.23-3.37,1.07-3.83-1.18-7.15-3.36-10.36-.58-.86-1.18-1.74-1.7-2.62a1,1,0,0,1,.17-1.24,1,1,0,0,1,1.25-.1,8.57,8.57,0,0,0,4.66,1.06c1.89,0,3.61-1,5.42-2,.81-.47,1.65-1,2.5-1.34a1,1,0,0,1,.82,1.83c-.76.34-1.52.78-2.32,1.24-2,1.13-4,2.29-6.44,2.27a15.69,15.69,0,0,1-2.71-.24v0c2.32,3.42,4.94,7.3,3.63,12-.89,3.18-3.35,4-5.53,4.73a8.85,8.85,0,0,0-3.56,1.78A8.16,8.16,0,0,0,79.52,128a18,18,0,0,0-.16,6.46,1,1,0,0,1-.84,1.13Z"/><path class="cls-1" d="M77.18,132.13a54.4,54.4,0,0,1,.11-8.18c.19-2.7.79-5.36,1.21-8l1.31-8,1.4-8a.1.1,0,0,1,.12-.08.11.11,0,0,1,.08.11L80.8,108l-.71,8.1c-.25,2.7-.33,5.42-.81,8.09a54.47,54.47,0,0,1-1.9,8,.1.1,0,0,1-.13.06A.1.1,0,0,1,77.18,132.13Z"/><path class="cls-1" d="M154,181.46c-2.25,0-4.51-.16-6.72-.31-1.75-.12-3.56-.25-5.3-.29s-3.37,0-5.15,0c-4.95.1-10.08.2-14.89-1.36-7.26-2.36-11-9.1-10.85-19.51,0-.86.06-1.72.11-2.58a23.3,23.3,0,0,0-.09-5.55c-.65-3.67-3.4-5.32-7.21-7.26a2.79,2.79,0,0,1-1.54-2.56,3.94,3.94,0,0,1,2-3.44c5.57-3,9-6.33,9.81-9.66a5.67,5.67,0,0,0-.46-4.3,1,1,0,0,1,1.66-1.11,7.52,7.52,0,0,1,.75,5.83c-1,4-4.61,7.66-10.81,11a2,2,0,0,0-1,1.66.83.83,0,0,0,.44.8c3.3,1.67,7.41,3.75,8.28,8.69a25.33,25.33,0,0,1,.12,6c-.05.83-.1,1.66-.11,2.49-.15,9.58,3,15.49,9.47,17.58,4.49,1.45,9.45,1.36,14.23,1.26,1.73,0,3.51-.07,5.23,0s3.63.17,5.4.3c4.46.31,9.07.63,13.41-.39l.14,0c3.07-.72,5-1.28,5.27-3.63s-2-5-4.29-6.07a23.46,23.46,0,0,0-6.68-1.65c-1.36-.21-2.78-.42-4.15-.76-9.84-2.43-17.63-10.92-23.84-26a158.09,158.09,0,0,1-11-43.2,1,1,0,0,1,2-.22,156.14,156.14,0,0,0,10.9,42.66c5.95,14.4,13.29,22.5,22.47,24.77,1.28.32,2.65.52,4,.72a25.44,25.44,0,0,1,7.24,1.83c3,1.41,5.83,4.84,5.41,8.13-.49,3.84-4,4.66-6.79,5.32l-.14,0A31.51,31.51,0,0,1,154,181.46Z"/><path class="cls-1" d="M113.77,131.76a1,1,0,0,1-.88-1.47,7.78,7.78,0,0,0,.9-3.7c0-3.1-1.74-4.3-4.12-6a27.36,27.36,0,0,1-2.84-2.21,9.38,9.38,0,0,1-3-8.4,7.46,7.46,0,0,1,4.72-5.69l.57-.22a4.86,4.86,0,0,0,1-.44,1,1,0,0,1,1.06,1.7,7.47,7.47,0,0,1-1.37.62l-.5.19a5.52,5.52,0,0,0-3.51,4.19,7.35,7.35,0,0,0,2.39,6.58,24.49,24.49,0,0,0,2.63,2c2.42,1.7,4.93,3.46,5,7.59a9.64,9.64,0,0,1-1.14,4.65A1,1,0,0,1,113.77,131.76Z"/><path class="cls-1" d="M106.48,105.53a11.41,11.41,0,0,0-2.89,7.8c.13,3.23,2.18,5.47,3.16,8.41,1,3.17.46,7.09.47,10.39,0,.84-.56,4.44.2,5.05.3.25,4.5-3.09,4.82-3.24.87-.44,2.12-2.65,2.53-3.51a7.39,7.39,0,0,0-.24-6.31c-2-4-6.94-5.53-8.61-9.65-1.73-4.28.67-7.06,4.28-9.17C111.33,104.63,107.77,104,106.48,105.53Z"/><path class="cls-1" d="M116.48,108.44a15.48,15.48,0,0,0-2.34,6.63,21.9,21.9,0,0,0,.49,7c1,4.62,2.81,9,3.63,13.74a42.62,42.62,0,0,1,.45,14.3,26.29,26.29,0,0,1-5.88,13.24h0a1,1,0,0,1-1.51-1.31l0,0a24.58,24.58,0,0,0,6.12-12.12,41.56,41.56,0,0,0,.28-14c-.72-4.65-2.46-9.11-3.37-13.78a22,22,0,0,1-.36-7.1A15.58,15.58,0,0,1,116.48,108.44Z"/><path class="cls-1" d="M110.2,105.3c2,2.4,3.74,4.9,5.57,7.36q1.37,1.84,2.74,3.68c.94,1.2,1.87,2.42,2.86,3.61a30.6,30.6,0,0,1-6.4-6.7A45.76,45.76,0,0,1,110.2,105.3Z"/><path class="cls-1" d="M97.87,98a117.89,117.89,0,0,0,4.41-12,74.56,74.56,0,0,0,3.43-16.2c.48-5.74-1-13.79-3.61-20a.34.34,0,0,1,.1-.4l.06,0h.17l.18.05c1.5,1.1,4.13,3.41,4.9,4.09,1.08,1,2.12.43,3.43-.26l.06,0a23.64,23.64,0,0,0,4.73-3.56l1.25-1.1c4-3.47,7.61-6.77,10.36-12,.92-1.76,1-3.15.19-4.52a17.88,17.88,0,0,0-1.89-2.75c-2.34-2.75-4.9-5.4-7.36-7.95-2.77-2.87-5.63-5.83-8.23-9a9.25,9.25,0,0,0-1.58-1.4l-.25-.19c-1.43-1.1-3.2-1.4-5.59-1-2.61.49-5.83.31-7-1.66A5,5,0,0,1,95.07,6a14.1,14.1,0,0,1,.06-3l-7.53.19a11.59,11.59,0,0,1,.08,2.75c-.21,2.11-1,3.18-2.84,3.67-.91.24-1.84.52-2.73.79-1.22.38-2.49.76-3.76,1.07-2.92.7-4.49,2.28-4.94,5a98.66,98.66,0,0,0-1,12l0,.48c-.19,4.07-.34,8.14-.5,12.21L71.71,45a4.43,4.43,0,0,1-.83,2.66C67.8,51.56,66.56,56.38,65.36,61l-.11.46-1.61,6.65-.24-.06.23.07c-.18.61-.35,1.32-.51,2a23,23,0,0,1-.73,2.64c-.25.66-.51,1.32-.78,2-.51,1.29-1,2.63-1.47,3.92-.79,2.39-.71,4.22.24,5.61a9.29,9.29,0,0,0,1.19,1.46,3.9,3.9,0,0,0,2.21,1c.23,0,.81.11,1-.05a.12.12,0,0,0,0-.12.08.08,0,0,0,0-.08.32.32,0,0,0-.22-.1,3.2,3.2,0,0,1-1.41-.48l-.38-.22-.23-.13a2.66,2.66,0,0,1-1.1-1.71,6.52,6.52,0,0,1,.31-3.34l0-.14a4.2,4.2,0,0,1,.94-1.87c.28-.27.54-.35.75-.25s.35.41.32.91a3.65,3.65,0,0,1,0,.38c-.06.71-.25,2.86.21,3.27a.21.21,0,0,0,.19,0c.13,0,.17-.11.13-.52,0-.08,0-.16,0-.22a2.56,2.56,0,0,1,.23-1,4.31,4.31,0,0,0,.21-.67,4.19,4.19,0,0,1,.32-.89,6.43,6.43,0,0,0,.57-3.79,8.84,8.84,0,0,1,.9-5.52c1.18-2.18,2.26-4.45,3.31-6.64.58-1.22,1.18-2.46,1.79-3.69h0l.2-.37c.33-.68.68-1.35,1-2A36.48,36.48,0,0,0,76.4,45.73c.58-4.26,1.66-12.63,2.08-16.95l.12-1.2L79,28.73c.27.83.69,2.68,1.1,4.46s.83,3.65,1.09,4.45c2.13,6.59,4.15,12.3,2,18.46a10.35,10.35,0,0,0-.25,2.82,4.4,4.4,0,0,1-1.11,3.25c-.85,2.09-.78,3.22-1.35,4.14-1,1.61-1.46,2.34-1.2,6.37.09,1.53-.63,3-.58,4.34.12,3.31-1.12,6.23-.42,9.87q1.16,6,2.35,12.09c.77,3.93.28,4-.49.09S78.52,91,77.75,87c-.7-3.68.54-6.62.41-9.95,0-1.38.68-2.81.58-4.33-.26-4.18.25-5,1.28-6.67.56-.9.48-2,1.31-4.06.09-.24,1.18-1.84,1.08-3a6.44,6.44,0,0,1,.28-3c2.11-6.07.08-11.69-2-18.14-.27-.83-.69-2.69-1.1-4.49-.26-1.12-.52-2.26-.74-3.15-.49,4.54-1.42,11.78-2,15.64a38.22,38.22,0,0,1-4.62,14c-.68,1.35-1.33,2.71-2,4-1,2.2-2.14,4.47-3.32,6.66a8.19,8.19,0,0,0-.84,5.23,6.9,6.9,0,0,1-.63,4.07,3.56,3.56,0,0,0-.28.79,5.57,5.57,0,0,1-.23.74,2,2,0,0,0-.19.8,1.21,1.21,0,0,0,0,.19,1.79,1.79,0,0,1,0,.6c.42-.07.75-.08.94.09a.37.37,0,0,1,.12.3c0,.31-.4.54-.79.69.52-.06.94-.07,1.16.22a.48.48,0,0,1,.09.49c-.19.43-1,.61-2.38.77l-.29,0a.68.68,0,0,1-.17,0,2.59,2.59,0,0,0,1.12.39.78.78,0,0,1,.57.26.62.62,0,0,1,.17.46.61.61,0,0,1-.23.46,1.89,1.89,0,0,1-1.37.17,4.33,4.33,0,0,1-2.49-1.09A9.83,9.83,0,0,1,60,84.62c-1-1.52-1.15-3.5-.3-6.05.44-1.3,1-2.64,1.48-3.94.26-.67.53-1.34.77-2a21,21,0,0,0,.71-2.58c.17-.7.34-1.42.53-2l1.72-7.1c1.21-4.72,2.46-9.59,5.61-13.61a3.92,3.92,0,0,0,.72-2.37l.15-3.89q.24-6.11.5-12.21l0-.49a99.85,99.85,0,0,1,1-12c.48-2.87,2.22-4.63,5.32-5.38,1.25-.3,2.51-.69,3.73-1.06.9-.27,1.82-.55,2.74-.8,1.61-.44,2.28-1.31,2.47-3.23A11,11,0,0,0,87.06,3l0-.28,8.7-.23,0,.29A14.06,14.06,0,0,0,95.56,6a4.4,4.4,0,0,0,.49,1.85c1.35,2.26,5.64,1.59,6.49,1.43,2.53-.47,4.43-.14,6,1.05l.25.19A10.23,10.23,0,0,1,110.44,12c2.58,3.12,5.43,6.08,8.19,8.94,2.48,2.56,5,5.21,7.39,8A17.75,17.75,0,0,1,128,31.72a4.83,4.83,0,0,1-.18,5c-2.79,5.34-6.4,8.68-10.48,12.18-.42.36-.83.73-1.24,1.1a24.92,24.92,0,0,1-4.83,3.63l-.06,0c-1.37.71-2.65,1.38-4,.19s-3.18-2.77-4.4-3.71c2.57,6.31,3.91,14,3.43,19.72a75.5,75.5,0,0,1-3.46,16.31,118.79,118.79,0,0,1-4.42,12C96.41,102.71,95.91,102.63,97.87,98ZM62,83.6a1.46,1.46,0,0,0,.3.78,1.39,1.39,0,0,0,1.3.63l.33,0c1.58-.19,1.91-.37,2-.47-.1-.1-.66,0-1,0a3.41,3.41,0,0,1-1.91-.1A4,4,0,0,1,62,83.6Zm.11-1a1.33,1.33,0,0,0,.71.89l.07,0a1.56,1.56,0,0,0,1.43.2,4.14,4.14,0,0,0,.94-.35,3.11,3.11,0,0,0-.52.06l-.24,0a3.32,3.32,0,0,1-1.16-.13A4.32,4.32,0,0,1,62.06,82.6Zm-.12-.75h0a5.32,5.32,0,0,0,1.48,1,8.08,8.08,0,0,1-.13-3.33c0-.16,0-.29,0-.36a.84.84,0,0,0,0-.43,1.4,1.4,0,0,0-.19.16,3.93,3.93,0,0,0-.81,1.65l0,.14A9.45,9.45,0,0,0,61.94,81.85Zm47.59-32.1c-.87,0-1.78-.68-3.21-2.41-.33-.4-.66-.87-1-1.35a15.12,15.12,0,0,0-3-3.32l-.11-.08a4.27,4.27,0,0,0-.63-.36,1.51,1.51,0,0,1-.8-1.62c.13-.68.25-1.33.37-2,.28-1.45.56-2.94,1-4.39.16-.61.31-1.23.46-1.84a35.18,35.18,0,0,1,1.53-5,5.12,5.12,0,0,0,.29-3.19,2.23,2.23,0,0,1,.75-2.52c1-.73,1.9,0,2.55.48s1.11.83,1.73,1.26a21.71,21.71,0,0,1,3.12,2.46c2.12,2.14,4.4,4.17,6.6,6.14l1.9,1.69.15.13c.26.22.53.45.53.79a1,1,0,0,1-.39.71h0a31.16,31.16,0,0,0-5.45,7.1c-.82,1.31-1.66,2.66-2.6,3.93-1.6,2.16-2.55,3.38-3.7,3.41Zm-6.83-7.43a15.91,15.91,0,0,1,3,3.37c.35.48.69.94,1,1.33,1.3,1.58,2.12,2.23,2.82,2.23h0c.92,0,1.86-1.23,3.32-3.21.93-1.25,1.77-2.6,2.58-3.9A31.72,31.72,0,0,1,121,34.93h0c.14-.13.22-.24.22-.32s-.19-.28-.35-.42l-.16-.13-1.89-1.7c-2.22-2-4.51-4-6.63-6.16a21.82,21.82,0,0,0-3.06-2.4c-.62-.44-1.21-.85-1.75-1.27-.73-.58-1.29-1-1.95-.47a1.74,1.74,0,0,0-.56,2,5.57,5.57,0,0,1-.32,3.51,34.49,34.49,0,0,0-1.49,5l-.47,1.85c-.39,1.43-.67,2.92-.94,4.36-.12.64-.24,1.29-.37,1.93s.28,1,.51,1.11a4.17,4.17,0,0,1,.8.46Z"/><path class="cls-2" d="M86.5,104.3c-4,0-4.18-.3-5.85-4l-.08-.17c-3-6.46-3.31-13.92-3.25-21,.05-5.32,1.66-10.52,3.22-15.55.61-2,1.23-4,1.76-6,2.19-8.28.8-15.23-2-23.12-1.73-4.95-1-10.67,0-16.1a11.83,11.83,0,0,0-.66-5.18L79.59,13a2.28,2.28,0,0,1,1.27-2.72,7.28,7.28,0,0,1,2.72-.61.36.36,0,0,1,.24.13c2.88,3,5.42,4.39,8,4.39,2.76,0,5.52-1.61,8.67-5.06a.41.41,0,0,1,.29-.13l.51.06c.38.05.75.09,1.12.16a1.71,1.71,0,0,1,1.2.82,1.85,1.85,0,0,1,.19,1.52c-.85,2.69,0,5,.77,7.14.24.68.49,1.37.69,2.07.75,2.65.24,5.52-.26,8.29-.12.7-.24,1.4-.35,2.09-.9,6,1.95,12.29,4.94,18.22l.85,1.66a70,70,0,0,1,3.94,8.62,78.88,78.88,0,0,1,4,19.7c.47,6.38-.34,17.88-1,19.27-2.51,5.26-12.29,5.71-22.08,5.71l-5.64,0H86.5Z"/><path class="cls-1" d="M101.23,9.77h0M101,10h.14c.37.05.73.09,1.09.15a.73.73,0,0,1,.51.36.86.86,0,0,1,.09.7c-.95,3,0,5.54.77,7.78.25.69.49,1.34.67,2,.69,2.43.22,5.07-.27,7.85-.13.71-.25,1.41-.36,2.11-1,6.28,2,12.74,5,18.82l.84,1.67A68.55,68.55,0,0,1,113.43,60a77.24,77.24,0,0,1,4,19.45c.44,6-.31,17.24-.91,18.76-2.25,4.74-11.7,5.13-21.18,5.13H86.5c-3.4,0-3.4,0-4.94-3.37l-.08-.18c-2.88-6.28-3.22-13.61-3.16-20.59C78.37,74,79.89,69.09,81.5,63.9c.61-2,1.24-4,1.77-6,2.25-8.53.84-15.65-2-23.71-1.65-4.72-.89-10.29,0-15.59A12.87,12.87,0,0,0,80.63,13l-.07-.25a1.27,1.27,0,0,1,.69-1.53,6.57,6.57,0,0,1,2-.51c3,3.07,5.72,4.5,8.53,4.5,3,0,5.92-1.64,9.2-5.15m-.24-2a1.4,1.4,0,0,0-1,.45c-2.89,3.16-5.41,4.73-7.93,4.73-2.34,0-4.67-1.36-7.27-4.07a1.33,1.33,0,0,0-1-.44h0a8.44,8.44,0,0,0-3.09.69,3.28,3.28,0,0,0-1.84,3.91,12.07,12.07,0,0,1,.71,5c-.93,5.34-1.79,11.34,0,16.6,2.72,7.74,4.07,14.51,2,22.53-1.9,7.2-5,14.23-5,21.78-.06,7.19.28,14.76,3.34,21.44,1.79,3.92,2.09,4.72,6.84,4.72h.59l2.61,0,5.63,0c10.25,0,20.22-.46,23-6.28.85-1.77,1.54-13.85,1.1-19.77a80,80,0,0,0-4.09-20,90.12,90.12,0,0,0-4.84-10.41c-2.94-5.82-5.71-11.9-4.85-17.62.54-3.54,1.59-7.24.58-10.81-.83-2.94-2.45-5.49-1.46-8.63a2.82,2.82,0,0,0-2.18-3.63c-.53-.09-1.07-.15-1.61-.22Z"/></svg>