<svg id="图层_1" data-name="图层 1" xmlns="http://www.w3.org/2000/svg" viewBox="0 0 186 186"><defs><style>.cls-1{fill:#9b9692;}.cls-2{fill:#f2f2f2;}</style></defs><path class="cls-1" d="M103.72,183.32a3.11,3.11,0,0,1-1.81-.63c-2.75-2-4-4.33-3.8-7.19l0-.59a14.29,14.29,0,0,1,.3-2.6c1.28-5.49,0-10.79-1.31-15.91-2.26-9.06-4.81-19.33-6.86-29.54a34.38,34.38,0,0,1-.47-6.61c0-.63,0-1.25,0-1.87,0-1.47-2.88-14-3.11-15.19l.49-.09c.23,1.22,3.08,13.77,3.11,15.27,0,.62,0,1.25,0,1.87a34.9,34.9,0,0,0,.46,6.52c2,10.2,4.6,20.47,6.86,29.52,1.28,5.18,2.62,10.53,1.31,16.14a15.08,15.08,0,0,0-.29,2.52l0,.59c-.18,2.68,1,4.89,3.59,6.75a2.48,2.48,0,0,0,3.66-.67A6.16,6.16,0,0,0,107,178a31.85,31.85,0,0,0-1.59-9.45,24.37,24.37,0,0,1-.59-2.87,18.17,18.17,0,0,0-1.06-4.16c-.43-1-1.17-2.72-.06-4.13,2.6-3.32,1.83-6.85,1-10.58a33.71,33.71,0,0,1-.73-4.19.56.56,0,0,0-.08-.15,1.13,1.13,0,0,1-.14-.27,1.27,1.27,0,0,0-.06-.18,1.72,1.72,0,0,1-.14-.78c.23-1.43.36-2.86.48-4.24s.23-2.52.42-3.82c1-7.26.76-13.71-.87-19.17l-.29-1c-1.23-4.08,1-10,2.76-14.11l.45.19c-1.69,4-4,9.6-2.74,13.77l.29,1c1.65,5.53,1.95,12.05.88,19.38-.18,1.29-.3,2.56-.41,3.79-.12,1.39-.25,2.83-.48,4.28a1.29,1.29,0,0,0,.12.53c0,.07,0,.14.07.2a.44.44,0,0,0,.08.15.87.87,0,0,1,.15.38,33.77,33.77,0,0,0,.73,4.13c.81,3.67,1.65,7.48-1.1,11-.86,1.09-.41,2.38.13,3.62a17.93,17.93,0,0,1,1.08,4.28,27.47,27.47,0,0,0,.58,2.81,32.06,32.06,0,0,1,1.62,9.6,6.64,6.64,0,0,1-1.25,3.95A3.16,3.16,0,0,1,103.72,183.32Z"/><path class="cls-1" d="M103.13,159.38c-1.26-4.08-1.42-8.57-1.58-12.91l0-1.11c0-1-.07-2.06-.1-3.09a128.64,128.64,0,0,0-.92-13.53c-.32-2.3-.84-4.62-1.34-6.87a66.8,66.8,0,0,1-1.59-9.15c-.29-3.53-.45-7.22-.49-11.28h.5c0,4,.2,7.72.48,11.24a68.15,68.15,0,0,0,1.58,9.08c.51,2.26,1,4.6,1.35,6.91a127.12,127.12,0,0,1,.92,13.59c0,1,.07,2.05.11,3.08l0,1.11c.15,4.31.31,8.77,1.55,12.78Z"/><path class="cls-1" d="M97,98.28a119.59,119.59,0,0,0,4.41-12,74.51,74.51,0,0,0,3.43-16.21c.48-5.75-1-13.8-3.61-20a.34.34,0,0,1,.1-.4l.06,0h.17l.17,0c1.51,1.11,4.14,3.42,4.91,4.1,1.09,1,2.12.42,3.43-.26l.06,0a23.85,23.85,0,0,0,4.74-3.57l1.25-1.1c4-3.47,7.62-6.78,10.37-12,.92-1.76,1-3.15.19-4.52a18,18,0,0,0-1.89-2.76c-2.35-2.75-4.9-5.39-7.37-7.95-2.77-2.87-5.64-5.84-8.23-9a9.65,9.65,0,0,0-1.58-1.4l-.26-.19c-1.43-1.1-3.2-1.4-5.59-1-2.62.49-5.83.31-7-1.67a4.83,4.83,0,0,1-.56-2.06,14.19,14.19,0,0,1,.07-3l-7.55.19a11.16,11.16,0,0,1,.08,2.76c-.2,2.11-1,3.18-2.84,3.66-.91.25-1.83.53-2.73.8-1.22.38-2.49.76-3.76,1.07-2.93.7-4.5,2.28-5,5a101.06,101.06,0,0,0-1,12l0,.49q-.27,6.11-.5,12.21l-.15,3.9A4.43,4.43,0,0,1,70,47.88c-3.08,3.94-4.32,8.77-5.52,13.43l-.12.47-1.61,6.64-.24,0,.24.07c-.19.6-.35,1.32-.52,2a23,23,0,0,1-.73,2.64c-.25.66-.51,1.32-.77,2-.51,1.3-1,2.64-1.47,3.93-.8,2.39-.72,4.22.24,5.61a7.94,7.94,0,0,0,1.19,1.46,3.78,3.78,0,0,0,2.2,1c.24,0,.81.11,1,0a.14.14,0,0,0,0-.11.11.11,0,0,0,0-.09.3.3,0,0,0-.22-.1,3.08,3.08,0,0,1-1.4-.48L61.92,86l-.22-.13a2.72,2.72,0,0,1-1.11-1.71,6.52,6.52,0,0,1,.31-3.34l0-.14a4.42,4.42,0,0,1,.94-1.87c.29-.27.54-.36.76-.26s.34.41.32.92c0,.08,0,.21,0,.38-.06.71-.26,2.86.21,3.27a.21.21,0,0,0,.19,0c.13,0,.16-.11.13-.52a1.85,1.85,0,0,1,0-.23,2.55,2.55,0,0,1,.23-1,6.41,6.41,0,0,0,.21-.67,4.12,4.12,0,0,1,.31-.89,6.39,6.39,0,0,0,.58-3.8,8.77,8.77,0,0,1,.9-5.52c1.17-2.18,2.26-4.45,3.31-6.65.58-1.22,1.18-2.46,1.79-3.69h0l.2-.37c.34-.68.68-1.35,1-2A36.79,36.79,0,0,0,75.55,46c.58-4.26,1.66-12.64,2.08-17l.11-1.2L78.11,29c.27.83.69,2.68,1.1,4.47s.83,3.65,1.09,4.45c2.14,6.6,2.8,12.1.65,18.27A9.81,9.81,0,0,0,80.69,59a4.41,4.41,0,0,1-1.11,3.26c-.85,2.09-.78,3.23-1.35,4.14-1,1.61-1.46,2.35-1.2,6.38.09,1.53-.64,3-.58,4.34a62.54,62.54,0,0,0,.94,10.09q1.15,6.06,2.35,12.1c.77,3.93.28,4-.49.1s-1.58-8.07-2.35-12.1a63.76,63.76,0,0,1-1-10.17c0-1.38.67-2.81.58-4.33-.27-4.19.25-5,1.28-6.68.56-.9.48-2,1.31-4.06.09-.24,1.18-1.84,1.08-3a6.52,6.52,0,0,1,.28-3c2.11-6.07,1.44-11.48-.65-17.94-.27-.82-.69-2.69-1.11-4.5-.25-1.11-.51-2.25-.73-3.15C77.5,35,76.57,42.19,76,46.06a38.29,38.29,0,0,1-4.63,14c-.68,1.35-1.33,2.71-2,4-1,2.2-2.14,4.48-3.32,6.67A8.27,8.27,0,0,0,65.27,76a6.79,6.79,0,0,1-.62,4.07,3.82,3.82,0,0,0-.28.8,4.5,4.5,0,0,1-.24.74,2,2,0,0,0-.19.8,1.37,1.37,0,0,0,0,.19,1.79,1.79,0,0,1,0,.6c.42-.07.75-.08.93.09a.38.38,0,0,1,.13.3c0,.31-.41.54-.79.69.51-.06.94-.07,1.16.22a.47.47,0,0,1,.08.49c-.18.43-1,.61-2.37.77l-.29,0a.44.44,0,0,1-.18,0,2.63,2.63,0,0,0,1.13.39.78.78,0,0,1,.57.26.62.62,0,0,1,.17.46.7.7,0,0,1-.24.47,1.87,1.87,0,0,1-1.36.16,4.33,4.33,0,0,1-2.5-1.09,8.84,8.84,0,0,1-1.26-1.55c-1.06-1.52-1.15-3.5-.3-6,.43-1.31,1-2.65,1.48-4,.26-.67.52-1.33.77-2a22.92,22.92,0,0,0,.71-2.58c.16-.7.33-1.42.52-2L64,61.19c1.21-4.72,2.46-9.59,5.61-13.62a3.92,3.92,0,0,0,.72-2.37l.15-3.9q.24-6.11.5-12.21l0-.49a100.15,100.15,0,0,1,1-12c.48-2.87,2.22-4.63,5.33-5.38,1.25-.3,2.51-.69,3.73-1.06.9-.27,1.82-.55,2.75-.8C85.48,8.89,86.15,8,86.34,6.1a10.64,10.64,0,0,0-.13-2.91l0-.28,8.7-.23,0,.3a13.42,13.42,0,0,0-.1,3.22,4.38,4.38,0,0,0,.48,1.85c1.35,2.27,5.65,1.6,6.5,1.44,2.53-.47,4.43-.14,6,1l.26.19a10.16,10.16,0,0,1,1.66,1.48c2.58,3.12,5.44,6.08,8.2,9,2.48,2.56,5,5.21,7.4,8A18.43,18.43,0,0,1,127.15,32a4.83,4.83,0,0,1-.18,5c-2.8,5.35-6.4,8.69-10.49,12.19-.42.36-.83.73-1.24,1.1a24.21,24.21,0,0,1-4.84,3.63l-.06,0c-1.36.71-2.65,1.38-4,.2s-3.18-2.77-4.4-3.72c2.57,6.32,3.91,14,3.43,19.74a75.58,75.58,0,0,1-3.46,16.32,121.43,121.43,0,0,1-4.42,12C95.57,103,95.07,102.94,97,98.28Zm-36-14.39a1.47,1.47,0,0,0,.31.78,1.36,1.36,0,0,0,1.3.63l.32,0c1.59-.19,1.92-.37,2-.47a2.41,2.41,0,0,0-1,0,3.55,3.55,0,0,1-1.92-.09A4.5,4.5,0,0,1,61.08,83.89Zm.11-1a1.34,1.34,0,0,0,.72.89l.07,0a1.58,1.58,0,0,0,1.43.19,4.34,4.34,0,0,0,.94-.35,3.25,3.25,0,0,0-.53.06l-.23,0a3.29,3.29,0,0,1-1.16-.13A4.37,4.37,0,0,1,61.19,82.89Zm-.11-.75h0a5.28,5.28,0,0,0,1.47,1,8.12,8.12,0,0,1-.13-3.34,3.18,3.18,0,0,0,0-.36,1.15,1.15,0,0,0,0-.43s-.08,0-.2.16a3.9,3.9,0,0,0-.8,1.66l-.05.14A11.11,11.11,0,0,0,61.08,82.14ZM108.71,50c-.88,0-1.79-.69-3.21-2.42-.33-.4-.67-.87-1-1.35a15,15,0,0,0-3-3.33l-.11-.07a4.85,4.85,0,0,0-.63-.36,1.54,1.54,0,0,1-.81-1.63c.14-.68.26-1.32.38-2,.27-1.45.56-2.95,1-4.4.16-.61.31-1.23.46-1.84a35.18,35.18,0,0,1,1.53-5,5.13,5.13,0,0,0,.29-3.19,2.24,2.24,0,0,1,.75-2.53c1-.73,1.9,0,2.55.48s1.11.83,1.73,1.26a22.53,22.53,0,0,1,3.13,2.46c2.11,2.14,4.4,4.18,6.61,6.14l1.9,1.7.14.13c.26.22.53.45.53.79a.92.92,0,0,1-.39.71h0a31.44,31.44,0,0,0-5.45,7.1c-.82,1.31-1.67,2.67-2.6,3.94-1.6,2.16-2.56,3.39-3.71,3.42Zm-6.84-7.44a15.67,15.67,0,0,1,3,3.37c.35.48.69.94,1,1.33,1.3,1.58,2.13,2.24,2.83,2.24h0c.92,0,1.86-1.23,3.32-3.21.92-1.25,1.77-2.6,2.58-3.91a31.72,31.72,0,0,1,5.54-7.21h0c.15-.13.23-.24.23-.32s-.19-.28-.36-.42l-.15-.13-1.9-1.7c-2.22-2-4.51-4-6.63-6.17a22.42,22.42,0,0,0-3.06-2.4c-.63-.44-1.22-.85-1.76-1.27-.73-.58-1.29-.95-2-.47a1.75,1.75,0,0,0-.56,2,5.54,5.54,0,0,1-.32,3.5,35,35,0,0,0-1.49,5l-.47,1.85c-.39,1.43-.67,2.92-.94,4.36-.12.64-.25,1.29-.38,1.93s.28,1,.52,1.11a4.88,4.88,0,0,1,.8.47Z"/><path class="cls-2" d="M105,35.25c0-3.3,1.22-7.56,1.12-11s-2-8-2-12c0-1.61-.44-1.69-1.65-2.26a2,2,0,0,0-2.42.6c-1.81,2.29-5.85,5.65-8.89,5.65a12,12,0,0,1-9-5c-.42-.66-1.22-1-3,0-.85.48-1.27,1.05-1,2,2.07,7.17-.49,16.37,2.07,23.89a30,30,0,0,1,.62,18.28c-3.44,13-8.51,25.77-12.65,38.58-1.93,5.95,5.19,5.6,9.24,5.09a.81.81,0,0,1,.87.5c.52,1.29,2.9,4.16,13.79,3.39h9.64a9.11,9.11,0,0,0,4.9-1.42,13,13,0,0,1,6.86-2.46,11.07,11.07,0,0,0,5-1.65l3.56-2.27a2.4,2.4,0,0,0,0-.33c-3.42-10-6.53-19.74-9.92-29.75C108.81,55.42,105.11,51.17,105,35.25Z"/><path class="cls-1" d="M88.7,104.15c-8,0-10.5-2.39-11.23-4-5,.63-8.22.08-9.69-1.7-1-1.17-1.14-2.75-.5-4.7,1.47-4.56,3.09-9.19,4.65-13.66,2.84-8.12,5.77-16.52,8-24.86a28.88,28.88,0,0,0-.59-17.71c-1.41-4.12-1.34-8.66-1.27-13.06.06-3.92.12-7.62-.82-10.88a2.56,2.56,0,0,1,1.47-3.14c2.5-1.4,3.73-.59,4.32.33a11,11,0,0,0,8.14,4.53c2.57,0,6.36-3.06,8.11-5.27a3,3,0,0,1,3.62-.88l.23.1a2.74,2.74,0,0,1,2,3.06,27.85,27.85,0,0,0,1,6.28,29.11,29.11,0,0,1,1,5.65,33.68,33.68,0,0,1-.58,6,33.9,33.9,0,0,0-.54,5.05h0c.09,11.92,2.21,17.16,4.65,23.23.79,2,1.6,4,2.4,6.34,1.55,4.59,3,9.13,4.55,13.66,1.73,5.25,3.52,10.68,5.36,16.09a2.18,2.18,0,0,1,.11.59,1,1,0,0,1-.46.9L119,98.32a12.16,12.16,0,0,1-5.42,1.81,11.91,11.91,0,0,0-6.26,2.2l-.15.1a10.09,10.09,0,0,1-5.44,1.58h-9.6C90.91,104.1,89.75,104.15,88.7,104.15Zm-11.12-6a1.82,1.82,0,0,1,1.69,1.13c.24.6,2,3.53,12.78,2.77h9.72a8.15,8.15,0,0,0,4.37-1.27l.15-.09a13.76,13.76,0,0,1,7.15-2.51,10.06,10.06,0,0,0,4.52-1.5l3-1.88c-1.79-5.24-3.53-10.53-5.22-15.66-1.5-4.53-3-9.06-4.55-13.65-.77-2.3-1.58-4.3-2.35-6.23-2.53-6.26-4.7-11.67-4.8-24h0a35.9,35.9,0,0,1,.56-5.38,32.28,32.28,0,0,0,.56-5.6,27.94,27.94,0,0,0-.92-5.25,29.67,29.67,0,0,1-1.07-6.74c0-.86,0-.86-.84-1.24l-.23-.11a1,1,0,0,0-1.21.31c-2,2.5-6.3,6-9.68,6a13.07,13.07,0,0,1-9.82-5.45c-.23-.36-1,0-1.66.33s-.61.55-.52.85c1,3.54,1,7.57.89,11.46-.07,4.23-.13,8.6,1.16,12.39a31.22,31.22,0,0,1,.64,18.86c-2.23,8.41-5.18,16.85-8,25-1.56,4.46-3.17,9.08-4.64,13.61a2.91,2.91,0,0,0,.14,2.81c.69.83,2.64,1.67,8,1Z"/><path class="cls-1" d="M82.24,49.09A23,23,0,0,0,88.09,51a23.29,23.29,0,0,0,6,.46,39.08,39.08,0,0,0,5.92-1c1-.15,2-.46,3-.66s2-.56,3-.74h0a.1.1,0,0,1,.12.08.12.12,0,0,1,0,.1,15.47,15.47,0,0,1-5.59,3.15,17.25,17.25,0,0,1-6.43.64A24.33,24.33,0,0,1,87.84,52a22,22,0,0,1-5.71-2.71.1.1,0,0,1,0-.14.11.11,0,0,1,.13,0Z"/><path class="cls-1" d="M87.17,65.13,78.43,99.4a1,1,0,0,1-1.94-.49s0,0,0-.06Z"/><path class="cls-1" d="M94.15,65.13l-1,37.94a1,1,0,0,1-2,0V103Z"/><path class="cls-1" d="M103.62,67.62l7.4,32a1,1,0,0,1-2,.45s0,0,0,0Z"/><path class="cls-1" d="M108.1,66.13l10.35,31.63a1,1,0,1,1-1.9.62.08.08,0,0,0,0,0Z"/></svg>