<svg id="图层_1" data-name="图层 1" xmlns="http://www.w3.org/2000/svg" viewBox="0 0 186 186"><defs><style>.cls-1{fill:#fff;}.cls-2{fill:#9a9692;}.cls-3{fill:#f2f2f2;}.cls-4{fill:#9b9692;}</style></defs><path class="cls-1" d="M95.42,2.88H84.61c-.36,2-.52,3.8-2.61,4.65-1.67.69-3.57.52-5.26,1.16C73.3,10,70.9,13,69.44,16.24a70.79,70.79,0,0,1-3.7,6.51c-2.09,3.67-4.78,7.32-6.49,11.16C57.37,38.1,61.6,40.8,64.42,43c.61.48,8,6.43,7.88,6.56l3.15-4.65-4.33-3.61c-1.32-1.1-5.86-3.82-5.85-5.62a2.39,2.39,0,0,1,.87-1.64c2-2,3.88-4.11,5.8-6.18.45-.5,3.14-4.19,3.81-4.13l29.43,2.48s6.61-7.14,2-13.44a6.61,6.61,0,0,0-2.25-2,11,11,0,0,0-3.33-1.11c-1.48-.26-2.94,0-4.41-.22a2.27,2.27,0,0,1-1-.36C95.24,8.48,95.63,2.88,95.42,2.88Z"/><path class="cls-2" d="M72.09,49.69h0ZM84.82,3.38l0,.22C84.46,5.44,84.16,7.18,82.1,8a11.59,11.59,0,0,1-2.76.62,11.22,11.22,0,0,0-2.51.53c-3.85,1.46-6,4.84-7.16,7.42a39,39,0,0,1-2.47,4.47c-.42.69-.85,1.38-1.24,2.07-.75,1.31-1.59,2.64-2.4,3.93a58.64,58.64,0,0,0-4.08,7.2c-1.63,3.64,1.52,6.06,4.31,8.2l.78.61c.3.24,2.28,1.83,4.21,3.42,2.11,1.73,3.07,2.53,3.49,2.95.31-.48,1.06-1.58,2.85-4.22L71,41.76c-.29-.24-.75-.57-1.29-1C67.7,39.4,65,37.47,65,36A2.62,2.62,0,0,1,66,34.13c1.49-1.44,2.91-3,4.28-4.51.5-.56,1-1.11,1.51-1.66.11-.11.33-.4.63-.77,1.82-2.32,2.85-3.48,3.39-3.44l29.31,2.47c.73-.84,6.06-7.34,1.86-13a6.36,6.36,0,0,0-2.17-1.91,10.69,10.69,0,0,0-3.26-1.08,11.64,11.64,0,0,0-2.28-.13A15,15,0,0,1,97.12,10,2.52,2.52,0,0,1,96,9.57c-.65-.47-.72-2.55-.73-5,0-.46,0-.93,0-1.16ZM72,50.65v-.74c-.61-.66-7-5.82-7.78-6.45l-.78-.6c-2.78-2.14-6.25-4.81-4.46-8.8a58.75,58.75,0,0,1,4.12-7.26c.81-1.29,1.64-2.62,2.39-3.92.39-.69.82-1.38,1.24-2.08a39.66,39.66,0,0,0,2.44-4.41c1.18-2.67,3.43-6.17,7.44-7.68a12,12,0,0,1,2.62-.57,10.8,10.8,0,0,0,2.64-.59c1.8-.73,2.07-2.26,2.38-4l.11-.64h11c.32,0,.32.15.33,1.66,0,1.28,0,4.27.52,4.62a2,2,0,0,0,.92.32,13.8,13.8,0,0,0,2,.09,12.76,12.76,0,0,1,2.38.13A11.4,11.4,0,0,1,105,10.84a6.8,6.8,0,0,1,2.33,2.05c4.72,6.4-1.9,13.69-2,13.76l-.08.09L75.73,24.25c-.44.05-2.27,2.37-3,3.24-.3.39-.54.69-.65.81L70.61,30c-1.38,1.52-2.8,3.09-4.3,4.54A2.17,2.17,0,0,0,65.52,36c0,1.26,2.78,3.26,4.44,4.45.55.39,1,.72,1.32,1l4.5,3.75-.12.19L72.51,50h0Z"/><path class="cls-3" d="M86.76,182.19a39.72,39.72,0,0,1-7.23-.91l-1.22-.23a23.56,23.56,0,0,1-9.2-3.43,9.67,9.67,0,0,0-5.58-1.86,15.18,15.18,0,0,0-2.68.26,46,46,0,0,1-7.74.8c-3.37,0-5.53-.68-6.08-1.92-.45-1,.18-2.66,1.65-4.26,9.84-10.73,10.39-19.4,12.43-51.65.32-5,.67-10.49,1.09-16.69.62-9,.66-18.06.69-26.87,0-2.62,0-5.23,0-7.84.05-4.4.39-10.11,2.7-15.14a20.49,20.49,0,0,1,5.15-7,14.86,14.86,0,0,1,2-1.39c1.83-1.15,3.9-2.46,4.39-4.9a12.32,12.32,0,0,0-.62-5.62l-.39-1.44c-.89-3.4-1.82-6.92-1-10.28a6.4,6.4,0,0,1,1.57-3.06c2.06-2.06,5.79-2.29,8.41-2.29,1.09,0,2.17,0,3.16.08l1.58.06a50.34,50.34,0,0,1,9,1.07L100,18c2.4.44,4.47.83,5.32,3a7.3,7.3,0,0,1,.18,4L105.35,26c-.43,2.75-.8,5.12-2.6,7.36l-.47.59c-3.79,4.74-6.54,8.16-7.06,14.95-.46,5.86.41,12.33,2.74,20.35a184.82,184.82,0,0,0,7.48,19.9c1.77,4.2,3.59,8.54,5.15,12.83,9.18,25.28,13.4,39.18,15.92,47.48,3.84,12.62,3.94,12.81,11.3,20.16.71.72,1.52,1.77,1.25,2.68s-1.44,2.25-7,3.44a21.76,21.76,0,0,1-4.65.51h0c-.85,0-1.6,0-2.32-.09s-1.26-.08-1.86-.08a9,9,0,0,0-4.3,1c-3.2,1.6-6,2.66-9,2.66h-.43c-1.14,0-2.35-.13-3.63-.22-1.81-.13-3.68-.26-5.5-.26a23.64,23.64,0,0,0-3.43.21,13.54,13.54,0,0,0-3.62,1.21,17.17,17.17,0,0,1-2.33.91A15.74,15.74,0,0,1,86.76,182.19Z"/><path class="cls-4" d="M85.14,17.51c1.07,0,2.11,0,3.12.08l1.59.06a49.36,49.36,0,0,1,8.79,1.05l1.21.23c2.5.47,4,.81,4.57,2.36a6.38,6.38,0,0,1,.13,3.43c-.07.39-.13.79-.19,1.17-.43,2.71-.76,4.85-2.39,6.89l-.47.59c-3.91,4.87-6.73,8.39-7.28,15.5-.47,6,.42,12.55,2.78,20.7a184.47,184.47,0,0,0,7.52,20c1.76,4.18,3.58,8.51,5.13,12.79,9.17,25.24,13.38,39.13,15.9,47.42,3.88,12.74,4,13,11.55,20.58.8.8,1.08,1.42,1,1.68,0,.06-.51,1.53-6.22,2.75a20.46,20.46,0,0,1-4.44.49c-.82,0-1.56,0-2.27-.09s-1.28-.08-1.92-.08a10.1,10.1,0,0,0-4.75,1.1c-3.16,1.58-5.7,2.56-8.56,2.56h-.39c-1.13,0-2.33-.13-3.61-.22-1.82-.13-3.71-.26-5.56-.26a27.23,27.23,0,0,0-3.57.21,14.53,14.53,0,0,0-3.88,1.3,19,19,0,0,1-2.2.86,14.54,14.54,0,0,1-4,.52,39.88,39.88,0,0,1-7-.89l-1.23-.23a22.79,22.79,0,0,1-8.87-3.31,10.59,10.59,0,0,0-6.09-2,16.1,16.1,0,0,0-2.85.28,45.1,45.1,0,0,1-7.57.78c-3.38,0-4.89-.71-5.16-1.32s.19-1.8,1.47-3.19c10.07-11,10.63-19.73,12.69-52.26.31-4.92.67-10.49,1.09-16.68.62-9,.66-18.1.69-26.91,0-2.62,0-5.24,0-7.86.05-4.3.38-9.87,2.61-14.74a19.42,19.42,0,0,1,4.9-6.62,15.8,15.8,0,0,1,1.87-1.3c1.9-1.19,4.26-2.68,4.84-5.54a12.88,12.88,0,0,0-.64-6.08c-.07-.26-.14-.51-.2-.76l-.18-.67c-.86-3.28-1.76-6.68-1-9.79a5.46,5.46,0,0,1,1.31-2.59c1.8-1.8,5.26-2,7.7-2m0-2c-3.37,0-6.94.41-9.12,2.59a7.32,7.32,0,0,0-1.83,3.53c-.92,3.84.23,7.73,1.19,11.43.5,1.89,1.21,4,.82,5.95-.59,2.9-4.06,4-6.07,5.73A21.57,21.57,0,0,0,64.73,52C62.5,56.89,62,62.3,61.94,67.58c-.11,11.55.06,23.13-.73,34.65C58,148.83,59,157.89,47.94,170c-3,3.28-3.78,7.86,5.17,7.86A46.43,46.43,0,0,0,61,177a14.43,14.43,0,0,1,2.5-.25c4.85,0,5,3.52,14.61,5.28a49.11,49.11,0,0,0,8.62,1.15,16.57,16.57,0,0,0,4.51-.6c2-.54,3.85-1.82,5.82-2.09a23.26,23.26,0,0,1,3.29-.2c3.05,0,6.3.39,9.1.48h.46c3.42,0,6.4-1.24,9.45-2.77a8.17,8.17,0,0,1,3.86-.89c1.24,0,2.53.17,4.19.17a22.64,22.64,0,0,0,4.86-.53c8.23-1.77,9.32-4.69,6.21-7.8-12.07-12.08-4-4-27-67.28-4-10.9-9.37-21.51-12.61-32.67-1.86-6.41-3.23-13.28-2.71-20s3.29-10,7.33-15c2.21-2.77,2.42-5.64,3-9a8.37,8.37,0,0,0-.24-4.5c-1.23-3.08-4.45-3.22-7.23-3.81a51.15,51.15,0,0,0-9.14-1.09c-1.41,0-3.06-.14-4.77-.14Z"/><path class="cls-4" d="M74.34,180.24h-.08a.77.77,0,0,1-.67-.83,136,136,0,0,0,.33-28.71l0-.7c-.5-7-.73-14.06-.94-20.93l-.18-5.37c-.1-3-.21-5.89-.31-8.83-.6-16.2-1.22-32.95-.49-49.48.25-5.52.68-10.86,3.22-15.55.43-.79.92-1.55,1.39-2.29a19.91,19.91,0,0,0,2.09-3.86c1.79-4.86.29-11.79-4.31-20a.75.75,0,0,1,.29-1,.73.73,0,0,1,1,.29c4.89,8.78,6.38,15.94,4.41,21.3a21.48,21.48,0,0,1-2.24,4.15c-.46.71-.93,1.45-1.33,2.2-2.39,4.4-2.8,9.56-3,14.9-.73,16.46-.11,33.18.48,49.35.11,3,.22,5.89.32,8.84l.18,5.38c.21,6.85.44,13.94.94,20.86l0,.71a137,137,0,0,1-.33,29A.76.76,0,0,1,74.34,180.24Z"/><path class="cls-4" d="M112.77,179.64a.75.75,0,0,1-.71-.52c-4.63-14.21-6.68-26.65-8.86-39.81-2.85-17.3-5.81-35.19-14.86-59.77l-.12-.32c-2.34-6.35-4.75-12.92-5.08-19.78-.27-5.73,1.79-10.63,4-15.81.86-2,1.74-4.15,2.47-6.3,2-6,2.56-10.09,2.69-20.6A.75.75,0,0,1,93,16h0a.76.76,0,0,1,.74.76c-.13,10.58-.7,14.91-2.77,21.06-.74,2.2-1.64,4.33-2.51,6.4-2.11,5-4.1,9.77-3.85,15.16.31,6.63,2.69,13.09,5,19.33l.12.32c9.1,24.71,12.06,42.67,14.93,60,2.17,13.11,4.21,25.49,8.81,39.6a.75.75,0,0,1-.48.94A.67.67,0,0,1,112.77,179.64Z"/><path class="cls-1" d="M121,47.61c-.15-.33-.32-.7-.63-.81a13.32,13.32,0,0,1-3-1.59c-1.31-.75-2.68-.36-4-.07l1-.59a6.48,6.48,0,0,1,2.14-.74,6.6,6.6,0,0,0,1.59-.32c.43-.2.76-.38.55-.9-.15-.36-.34-.46-.65-.42q-1.14.16-2.28.27a4.65,4.65,0,0,0-1.92.39c-.47.27-.89.62-1.36.89-.79.45-1.41.71-1.8,1.59a26,26,0,0,1-2.91,4.52,1.23,1.23,0,0,1-1.36.54l-4.49-3.65-9.12-7.83c-1.23-1.06-1.18-1.92,0-3.09,4.26-4.19,8.84-11.6,12.64-16.21a4,4,0,1,0-6.4-4.73l-11.45,18A16.35,16.35,0,0,0,85.35,36c-.95,2.48.68,3.93,2.53,5.3,5.37,4,9.82,7.76,14.85,12.15,3.17,2.76,7.33,1.52,9.62-1.65a4.29,4.29,0,0,1,1.45-1.26,2.09,2.09,0,0,1,1.85-.16c.63.28,1.33,1.75,2.1,1a5.26,5.26,0,0,0-.57-.9,4.13,4.13,0,0,0-1.08-1.16,4.31,4.31,0,0,0-1.56-.23,5.65,5.65,0,0,1-1.47-.3l1.19-.07,2-.45c1.09.47,3.66,1.17,4,.31a.24.24,0,0,0,0-.22h.12C120.78,48.34,121.24,48.18,121,47.61Z"/><path class="cls-4" d="M113.52,49.2h0a.25.25,0,0,1-.25-.25.25.25,0,0,1,.25-.25,6,6,0,0,0,2.51-.89.26.26,0,0,1,.34.1.25.25,0,0,1-.1.34A6.36,6.36,0,0,1,113.52,49.2Z"/><path class="cls-4" d="M106.6,55.17a6.05,6.05,0,0,1-4-1.58c-4.58-4-9.15-7.91-14.66-12-1.86-1.37-3.58-2.93-2.59-5.52a18.36,18.36,0,0,1,1.94-3.38l.26-.39L100,13a4.19,4.19,0,1,1,6.72,5c-1.48,1.8-3.28,4.37-5.18,7.09-2.94,4.2-6,8.55-8.54,11.07a2.12,2.12,0,0,0-.82,1.43A1.9,1.9,0,0,0,93,38.85l9,7.74,4.39,3.57a1,1,0,0,0,1-.45l.36-.5a22,22,0,0,0,2.49-3.93,3.14,3.14,0,0,1,1.62-1.54l.26-.14c.22-.13.44-.28.65-.43s.45-.31.69-.45a4,4,0,0,1,1.7-.4l.3,0c.71-.07,1.45-.15,2.25-.26l.17,0c.24,0,.68-.15.88.32a1.23,1.23,0,0,1-.81,1.49,3.44,3.44,0,0,1-1.15.27l-.49.07a7,7,0,0,0-1.72.53,4.1,4.1,0,0,1,2.73.38c.3.18.53.33.75.48a8.73,8.73,0,0,0,2.16,1.08,1.71,1.71,0,0,1,1,.77.71.71,0,0,1,0,.73,1.31,1.31,0,0,1-1,.51h0a.25.25,0,0,1,0-.5h0a.86.86,0,0,0,.62-.28.24.24,0,0,0,0-.25,1.32,1.32,0,0,0-.74-.51A9.3,9.3,0,0,1,117.8,46c-.22-.15-.44-.29-.73-.46a4.74,4.74,0,0,0-3.52-.1l-.3.06a.25.25,0,0,1-.29-.15.27.27,0,0,1,.1-.31l1-.58a6.57,6.57,0,0,1,2.19-.76l.52-.07a3.5,3.5,0,0,0,1-.23c.27-.12.73-.46.57-.84,0-.07,0-.09-.31,0l-.21,0c-.81.11-1.55.2-2.27.27l-.32,0a3.32,3.32,0,0,0-1.48.34,5.54,5.54,0,0,0-.65.42,7.4,7.4,0,0,1-.69.45l-.27.15a2.68,2.68,0,0,0-1.41,1.3,21.9,21.9,0,0,1-2.53,4l-.37.5a1.44,1.44,0,0,1-1.62.62.12.12,0,0,1-.08,0L101.65,47l-9-7.75a2.32,2.32,0,0,1-1-1.61,2.52,2.52,0,0,1,1-1.81c2.52-2.48,5.55-6.81,8.48-11,1.91-2.73,3.71-5.3,5.21-7.12a3.69,3.69,0,0,0-3.13-6,3.65,3.65,0,0,0-2.79,1.64L87.67,33a18.31,18.31,0,0,0-1.89,3.28c-.86,2.27.59,3.58,2.42,4.94,5.53,4.1,10.11,8,14.7,12a5.54,5.54,0,0,0,4.34,1.41,7,7,0,0,0,4.8-3,4.82,4.82,0,0,1,1.51-1.33,2.37,2.37,0,0,1,2.06-.16,2.63,2.63,0,0,1,.71.58c.47.48.71.68.94.57a3.72,3.72,0,0,0-.44-.65l-.27-.35a2.16,2.16,0,0,0-.71-.73,2.2,2.2,0,0,0-1-.18c-.16,0-.31,0-.46,0a5.72,5.72,0,0,1-1.51-.31.26.26,0,0,1-.14-.33.25.25,0,0,1,.32-.14,5.09,5.09,0,0,0,1.38.29l.42,0a2.76,2.76,0,0,1,1.22.23A2.88,2.88,0,0,1,117,50l.25.33a5.34,5.34,0,0,1,.6.92.26.26,0,0,1,0,.3c-.69.68-1.36,0-1.8-.47a3.05,3.05,0,0,0-.55-.48,1.89,1.89,0,0,0-1.62.15,4.11,4.11,0,0,0-1.34,1.18,7.59,7.59,0,0,1-5.15,3.21C107.06,55.15,106.83,55.17,106.6,55.17Z"/><path class="cls-4" d="M119.18,49.33a7.52,7.52,0,0,1-3-1h0a.25.25,0,0,1-.24-.44l.12-.07a.25.25,0,0,1,.24,0c2.14,1.11,3,1.08,3.29,1a.43.43,0,0,0,.27-.27c0-.09-.4-.23-.52-.28l-.26-.11a2.61,2.61,0,0,0-.51-.22,4.3,4.3,0,0,1-.64-.29c-.13-.08-.26-.18-.39-.27a1.53,1.53,0,0,0-.59-.35,3.43,3.43,0,0,0-1.82.24,1.76,1.76,0,0,1-1.64-.12.26.26,0,0,1-.11-.34.25.25,0,0,1,.33-.11,1.28,1.28,0,0,0,1.24.1,4,4,0,0,1,2.1-.26,2.08,2.08,0,0,1,.8.44,2.19,2.19,0,0,0,.33.23,3.44,3.44,0,0,0,.56.26,3.75,3.75,0,0,1,.58.25l.2.08c.3.12.67.26.8.55a.48.48,0,0,1,0,.39.94.94,0,0,1-.57.55A1.51,1.51,0,0,1,119.18,49.33Z"/></svg>