<svg id="图层_1" data-name="图层 1" xmlns="http://www.w3.org/2000/svg" viewBox="0 0 186 186"><defs><style>.cls-1{fill:#fff;}.cls-2{fill:#9b9692;}.cls-3{fill:#f2f2f2;}</style></defs><path class="cls-1" d="M110.86,20l-1.13,4.15a1.67,1.67,0,0,0-1.55.73c-1.52,2.18-3.17,4.27-4.48,6.6-.61,1.1-1.54,2.58-1.51,3.9,0,2.12,7.75,1.61,9.31,1.64,2.45.05,2.2,2.44.54,3.52s-7.58,1.32-9.33,1.07a18.72,18.72,0,0,1-3.45-1.08A4.17,4.17,0,0,1,97.12,36c.53-3,1-6.06,1.49-9.08s.77-6.52,1.75-9.54A11.89,11.89,0,0,1,103.62,12c2.93-2.54,7.85-1.15,10.45-4.36,1-1.26.6-2.9.78-4.4l8,.06c-.58,1.24,0,4.51.9,5.59.72.86,3.18,1.61,5.36,2,2,.4,4.45,2.85,4.52,4.91.16,4.33-1,10.21-4,11.26C129.53,27.23,110.86,20,110.86,20Z"/><path class="cls-2" d="M104.18,42.07a14.84,14.84,0,0,1-1.72-.08,19.5,19.5,0,0,1-3.54-1.11,4.47,4.47,0,0,1-2.3-4.79c.33-1.82.63-3.68.91-5.49.2-1.21.39-2.42.59-3.63.15-.89.28-1.8.41-2.71a39.61,39.61,0,0,1,1.37-6.92,12,12,0,0,1,3.34-5.51,10.38,10.38,0,0,1,5-1.9c2.11-.4,4.09-.77,5.45-2.44a4.43,4.43,0,0,0,.68-2.92,12.73,12.73,0,0,1,0-1.38l0-.22,8.69.06-.17.35c-.54,1.15,0,4.31.87,5.36.57.67,2.63,1.44,5.25,2,2.16.43,5,2.93,5,5.13a16.44,16.44,0,0,1-4.41,11.55c-.14.15-.23.23-18.9-7l-1.11,4.11-.21,0a1.44,1.44,0,0,0-1.33.62c-.43.62-.86,1.22-1.29,1.82a50.19,50.19,0,0,0-3.2,4.81l-.19.32a7.7,7.7,0,0,0-1.3,3.47c0,1.57,5.86,1.46,8.06,1.42.45,0,.82,0,1,0a1.92,1.92,0,0,1,2,1.23A2.68,2.68,0,0,1,112,40.87C110.73,41.7,106.73,42.07,104.18,42.07Zm10.75-38.6c0,.36,0,.73,0,1.1a4.87,4.87,0,0,1-.8,3.23c-1.46,1.82-3.63,2.23-5.73,2.62-1.8.34-3.5.66-4.8,1.79a11.67,11.67,0,0,0-3.2,5.28A40.59,40.59,0,0,0,99,24.33c-.13.92-.25,1.83-.4,2.72-.21,1.21-.4,2.42-.59,3.63-.29,1.81-.59,3.67-.91,5.5a4,4,0,0,0,2,4.25,18.88,18.88,0,0,0,3.39,1.06c1.7.24,7.69,0,9.21-1a2.2,2.2,0,0,0,1.12-2.2c-.16-.55-.7-.86-1.54-.87-.23,0-.58,0-1,0-4.43.08-8.54-.09-8.57-1.91a7.92,7.92,0,0,1,1.37-3.72l.18-.33a53.21,53.21,0,0,1,3.23-4.86c.43-.59.86-1.19,1.28-1.8a1.94,1.94,0,0,1,1.58-.85l1.16-4.25.26.1c7,2.73,17.48,6.78,18.72,7.16a15.91,15.91,0,0,0,4.16-11.07c-.07-1.94-2.67-4.27-4.64-4.66-1.05-.21-4.56-1-5.53-2.13a8,8,0,0,1-1.07-5.55Z"/><path class="cls-3" d="M124.53,177.33a36,36,0,0,1-6.66-.85l-1.12-.21a21.67,21.67,0,0,1-8.48-3.22,8.84,8.84,0,0,0-5.19-1.76,13.88,13.88,0,0,0-2.49.25,41.47,41.47,0,0,1-7.13.75c-3.07,0-5-.62-5.54-1.75-.43-.95.15-2.48,1.5-4,4.62-5.12,4.29-10.4,3.83-17.7-.63-9.87-1.48-23.38,8.59-46.23,2-4.54,6.06-18.61,10.36-33.51,5.24-18.13,12.29-42.57,15-46.79,0,1.8-1.18,6.38-2,9.56A69.2,69.2,0,0,0,123,42.08c-.43,5.55,3,12.07,5.7,17.31.74,1.42,1.44,2.76,2,4C134.31,71,137.18,79,140,86.76q1,2.76,2,5.54c9.68,26.63,18.37,48.29,27.34,68.16.21.47.5,1,.82,1.64a32.4,32.4,0,0,1,1.5,3.13,5.89,5.89,0,0,1,.58,3.15c-.39,1.8-3.32,2.41-5.26,2.81l-.56.12a19.57,19.57,0,0,1-4.28.48h0c-.79,0-1.48,0-2.15-.09s-1.16-.07-1.71-.07a8.28,8.28,0,0,0-4,1c-2.94,1.49-5.48,2.49-8.28,2.49h-.39c-1,0-2.17-.12-3.35-.21-1.67-.12-3.4-.24-5.08-.24a23.23,23.23,0,0,0-3.18.19,12.79,12.79,0,0,0-3.37,1.15,15.33,15.33,0,0,1-2.14.85A14.06,14.06,0,0,1,124.53,177.33Z"/><path class="cls-2" d="M128.37,22.52h0m-5.18,13.29A41.55,41.55,0,0,0,122,42c-.45,5.84,3,12.5,5.81,17.85.73,1.41,1.43,2.74,2,3.95,3.56,7.56,6.42,15.55,9.18,23.28.67,1.85,1.33,3.71,2,5.56,9.69,26.65,18.39,48.33,27.37,68.23.23.5.53,1.08.85,1.69.49.94,1.05,2,1.46,3a4.84,4.84,0,0,1,.53,2.58c-.25,1.16-3,1.74-4.49,2.05l-.57.12a18.89,18.89,0,0,1-4.07.46c-.75,0-1.43-.05-2.08-.09s-1.19-.08-1.78-.08a9.36,9.36,0,0,0-4.47,1.06c-2.9,1.47-5.22,2.39-7.83,2.39h-.35c-1,0-2.15-.11-3.32-.2-1.69-.12-3.44-.25-5.15-.25a23.48,23.48,0,0,0-3.32.21,12.81,12.81,0,0,0-3.64,1.23,15.41,15.41,0,0,1-2,.8,13.25,13.25,0,0,1-3.62.48,35.35,35.35,0,0,1-6.47-.84l-1.13-.21a20.64,20.64,0,0,1-8.14-3.09,9.82,9.82,0,0,0-5.71-1.9,14.9,14.9,0,0,0-2.67.26,40.49,40.49,0,0,1-7,.74c-3.25,0-4.44-.73-4.63-1.16s.19-1.64,1.33-2.91c4.9-5.44,4.54-11.17,4.08-18.44-.62-9.76-1.46-23.13,8.51-45.76,2-4.6,5.91-18.06,10.41-33.64,3-10.32,6.85-23.72,10-33.58m4.24-15c-3.88,0-21.55,70.14-26.5,81.37-17.65,40.06-2,52.32-12.24,63.67-2.78,3.08-3.5,7.39,4.77,7.39a42.81,42.81,0,0,0,7.31-.77,13.22,13.22,0,0,1,2.31-.24c4.47,0,4.58,3.32,13.48,5a44.63,44.63,0,0,0,8,1.08,15.09,15.09,0,0,0,4.16-.56c1.82-.52,3.55-1.72,5.38-2a21.3,21.3,0,0,1,3-.19c2.81,0,5.82.37,8.4.45h.42c3.16,0,5.91-1.17,8.73-2.61a7.42,7.42,0,0,1,3.57-.84c1.14,0,2.33.17,3.86.17a20.35,20.35,0,0,0,4.49-.51c2.12-.46,6-1.05,6.58-3.69a6.67,6.67,0,0,0-.63-3.73c-.71-1.81-1.8-3.62-2.33-4.81-10.07-22.3-19-45.1-27.32-68.09-3.56-9.79-6.81-19.58-11.25-29-2.72-5.81-8.13-14.1-7.62-20.8.49-6.35,6.26-21.22,3.42-21.29Z"/><path class="cls-2" d="M143.27,175.63h-.1a1,1,0,0,1-.89-1.09c3.7-38.76-20.81-125.41-21-126.28a1,1,0,0,1,1.91-.55c.25.88,24.85,87.89,21.12,127A1,1,0,0,1,143.27,175.63Z"/><path class="cls-3" d="M128.25,20.61a38.48,38.48,0,0,0-7.12-2.44,9.74,9.74,0,0,0-11.59,12l2.62,9.91,11.28,12.38,3.16-7.33a53,53,0,0,1,5.5-7.89C137.61,30.61,135.28,23.81,128.25,20.61Z"/><path class="cls-2" d="M123.44,53.47a1,1,0,0,1-.73-.32L111.43,40.76a.91.91,0,0,1-.22-.41l-2.63-9.91a10.72,10.72,0,0,1,2.74-10.33,10.47,10.47,0,0,1,10.05-2.9,40.87,40.87,0,0,1,7.29,2.49c3.9,1.78,6.48,4.62,7.25,8s-.29,6.88-3,10.21a51.27,51.27,0,0,0-5.37,7.7l-3.14,7.28a1,1,0,0,1-.75.59ZM113.06,39.61l10.08,11.07,2.55-5.92a.36.36,0,0,1,0-.09,53.86,53.86,0,0,1,5.61-8c2.35-2.84,3.26-5.78,2.64-8.5s-2.81-5.11-6.14-6.62h0a38.06,38.06,0,0,0-6.94-2.38,8.51,8.51,0,0,0-8.16,2.36,8.76,8.76,0,0,0-2.24,8.44Z"/><path class="cls-2" d="M105.36,172.31a.92.92,0,0,1-.36-.07,1,1,0,0,1-.56-1.29c3.85-9.66,1.22-47.81,1.2-48.19a1,1,0,0,1,2-.14c.11,1.59,2.69,39-1.33,49.07A1,1,0,0,1,105.36,172.31Z"/><path class="cls-3" d="M123,43.66C116,113,88.57,171.93,86.14,177a9,9,0,0,0-.37,1c-1.28,4.25-5.22,4.08-6.54,3.9a5.5,5.5,0,0,0-1-.07c-1.27,0-4.42.06-6.51.06a5.53,5.53,0,0,1-2.76-.7,4.71,4.71,0,0,0-3.85-.08,11.3,11.3,0,0,1-3.86.69c-3.06,0-8.44-.07-11.9-.06a13.28,13.28,0,0,1-5.22-.95,8.94,8.94,0,0,0-6.8-.17,14.21,14.21,0,0,1-6.4.83c-7.84-.7-11.39-1.23-12.9-1.46a5.63,5.63,0,0,1-2.95-1.31c-3.85-3.49,1.93-8.25,1.93-8.62L19,168c17.1-19.11,37.45-40.85,52.39-61.69,13-18.23,30.06-39.43,33.14-62.16A83.23,83.23,0,0,0,104.33,21a3.25,3.25,0,0,1,3-3.73c4.78-.32,13.69-.22,22.21,3.61"/><path class="cls-2" d="M80.29,183A8.52,8.52,0,0,1,79.1,183a6.9,6.9,0,0,0-.85-.06l-6.52.06a6.5,6.5,0,0,1-3.26-.83,3.78,3.78,0,0,0-3,0,13.06,13.06,0,0,1-4.2.74c-3,0-8.41-.06-11.89-.05H49.3a14.17,14.17,0,0,1-5.54-1,8,8,0,0,0-6.06-.15,15.44,15.44,0,0,1-6.85.9c-8-.73-11.61-1.27-13-1.47a6.59,6.59,0,0,1-3.46-1.57c-3.89-3.51.07-8,1.37-9.42l.32-.35a1,1,0,0,1,.16-.25l2-2.18L26.63,158c14.72-16.31,31.41-34.8,43.93-52.27,1.39-1.94,2.82-3.91,4.27-5.9C87,83,100.8,64,103.53,44a83.27,83.27,0,0,0-.18-22.84,4.25,4.25,0,0,1,.9-3.31,4.18,4.18,0,0,1,3-1.55C112,16,121.15,16,129.93,20a1,1,0,0,1,.5,1.31,1,1,0,0,1-1.32.5C120.73,18,111.9,18,107.38,18.25a2.21,2.21,0,0,0-1.59.82,2.25,2.25,0,0,0-.47,1.77,84.9,84.9,0,0,1,.18,23.39C102.71,64.81,88.75,84,76.44,100.94c-1.45,2-2.88,4-4.26,5.89-12.59,17.57-29.31,36.11-44.07,52.46q-4.29,4.74-8.39,9.32l-1.86,2.07a5.83,5.83,0,0,1-.57.71c-2,2.19-3.67,4.69-1.53,6.62a4.65,4.65,0,0,0,2.43,1.07c1.33.2,4.87.74,12.84,1.45a13.24,13.24,0,0,0,6-.77,9.91,9.91,0,0,1,7.54.18,11.84,11.84,0,0,0,4.82.88c3.48,0,9,0,11.92.05a10.4,10.4,0,0,0,3.52-.63,5.58,5.58,0,0,1,4.68.16,4.77,4.77,0,0,0,2.41.56c2.08,0,5.1,0,6.34-.06a7.86,7.86,0,0,1,1.15.08c1.61.22,4.45.11,5.45-3.2a7.07,7.07,0,0,1,.43-1.17c3-6.38,29.87-64.36,36.74-133a1,1,0,0,1,1.09-.89,1,1,0,0,1,.89,1.08c-6.91,69-33.88,127.3-36.93,133.72a6.68,6.68,0,0,0-.32.88A6.26,6.26,0,0,1,80.29,183ZM16,170.12h0Zm0,0Z"/><path class="cls-2" d="M60.44,182.37a1,1,0,0,1-.62-.22,1,1,0,0,1-.16-1.4c47.83-60.11,56.48-136.54,56.56-137.3a1,1,0,1,1,2,.21c-.08.77-8.8,77.77-57,138.33A1,1,0,0,1,60.44,182.37Z"/><path class="cls-2" d="M46.23,182.37a1,1,0,0,1-.77-1.62c24.74-30.73,42.31-64.64,42.48-65a1,1,0,0,1,1.77.91C89.53,117,71.88,151.11,47,182A1,1,0,0,1,46.23,182.37Z"/><path class="cls-1" d="M134.42,61.26a5.75,5.75,0,0,1-.52,1.25c-.5.93-1.41,2.85-1.41,2.85l-2-4.07s.7-.85.58-1.2a5.64,5.64,0,0,0-1-1.37c-.48-.63-1-1.25-1.5-1.85-1-1.18-2.1-2.32-3.19-3.43-.86-.86-1.75-1.69-2.59-2.57a23.79,23.79,0,0,0-2.53-2.68l-.14-.13a30,30,0,0,1-2.35-3,9.79,9.79,0,0,0-.63-.91c-.52-.86-1.26-1.46-1.25-2.54a6.2,6.2,0,0,1,.5-2.1l1.38-3.74c1.42-3.84,1.89-8,3.24-11.82.45-1.29,1-2.53,1.45-3.85,1.14-3.58,4-11.22,9.21-7.73a5.94,5.94,0,0,1,2.43,4.55c.26,4.15-2.87,8.42-4.66,12-2,4-4,8.08-6,12.17a1.4,1.4,0,0,0-.17.56,1.35,1.35,0,0,0,.21.63c1.18,2.23,2.78,4.18,4.13,6.29l4.44,6.94a25.52,25.52,0,0,1,1.93,3.21A3.68,3.68,0,0,1,134.42,61.26Z"/><path class="cls-2" d="M132.53,65.93l-2.26-4.72.1-.12a2.4,2.4,0,0,0,.55-1,3.41,3.41,0,0,0-.66-.95l-.29-.35c-.48-.63-1-1.25-1.5-1.85-.9-1-1.92-2.13-3.2-3.43l-1.09-1.09c-.51-.49-1-1-1.51-1.5-.29-.3-.57-.63-.86-1a11.24,11.24,0,0,0-1.66-1.71,1.14,1.14,0,0,1-.17-.15,33.42,33.42,0,0,1-2.17-2.76l-.22-.33a3.24,3.24,0,0,0-.35-.53c-.1-.13-.2-.26-.29-.4s-.29-.44-.44-.64a3.3,3.3,0,0,1-.86-2,6.77,6.77,0,0,1,.53-2.19l1.39-3.77a53.26,53.26,0,0,0,1.7-6.14,54,54,0,0,1,1.55-5.73c.2-.59.43-1.17.66-1.73s.56-1.42.79-2.14c1.62-5,3.49-7.87,5.72-8.64a4.31,4.31,0,0,1,3.93.73,6.18,6.18,0,0,1,2.54,4.77c.22,3.33-1.7,6.74-3.39,9.75-.47.84-.92,1.64-1.32,2.42-1.82,3.62-4,7.9-6,12.23a.8.8,0,0,0,0,1,38,38,0,0,0,2.56,4c.53.76,1.08,1.54,1.59,2.33l4.46,7c.15.23.31.46.46.7a19,19,0,0,1,1.5,2.55,3.91,3.91,0,0,1,.34,2.79h0a5.66,5.66,0,0,1-.54,1.32c-.5.92-1.4,2.83-1.41,2.85Zm-1.67-4.65,1.67,3.49c.31-.64.85-1.76,1.2-2.41a5.19,5.19,0,0,0,.5-1.21h0a3.37,3.37,0,0,0-.32-2.45,17.81,17.81,0,0,0-1.46-2.49L132,55.5l-4.47-7c-.5-.78-1-1.56-1.57-2.31a37.08,37.08,0,0,1-2.59-4,1.58,1.58,0,0,1-.24-.75,1.6,1.6,0,0,1,.19-.66c2-4.33,4.17-8.62,6-12.25.4-.78.85-1.59,1.33-2.44,1.66-2.94,3.53-6.28,3.33-9.47a5.68,5.68,0,0,0-2.33-4.38,3.83,3.83,0,0,0-3.49-.68c-2,.71-3.86,3.51-5.4,8.32-.24.74-.53,1.47-.81,2.17s-.45,1.13-.65,1.71a54.38,54.38,0,0,0-1.54,5.69A51.3,51.3,0,0,1,118,35.63l-1.39,3.77a6.31,6.31,0,0,0-.5,2,2.81,2.81,0,0,0,.76,1.74c.16.22.32.44.47.68a2.9,2.9,0,0,0,.25.36,2.75,2.75,0,0,1,.39.59l.2.28a32.66,32.66,0,0,0,2.13,2.71l.1.1a11.3,11.3,0,0,1,1.74,1.78c.28.32.56.65.84.94.49.51,1,1,1.5,1.5l1.1,1.08c1.29,1.31,2.31,2.41,3.22,3.47.51.6,1,1.22,1.52,1.86.08.11.18.22.27.33a3.78,3.78,0,0,1,.75,1.13C131.52,60.34,131.12,60.94,130.86,61.28Z"/></svg>