<svg id="图层_1" data-name="图层 1" xmlns="http://www.w3.org/2000/svg" viewBox="0 0 186 186"><defs><style>.cls-1{fill:#f5e3ea;}.cls-2{fill:#e4cbd4;}.cls-3{fill:#5b3b2f;}.cls-4{fill:#fff;}</style></defs><path class="cls-1" d="M82.36,26.89h18c.58,0,1.57,3,1.59,3.48.39,7.65,3.94,10.85,11.17,15.42a20.47,20.47,0,0,0,7.78,3.05c2.79.43,5.5-.84,8.34-.25,7.16,1.49,13.95,8.79,13.06,15.78l-1.63,9.07c-4.94,28.61-18.75,49.61-18.75,77.93l-60.42-.65c1-7.89-1.47-20.15-3-26.63-1.64-7.18-3.56-11.44-6-18.38-2.28-6.5-1.9-7.27-5.66-19.87-1-3.43-1.43-3.92-1.91-7.47S44.11,68,44,64.56c-.16-4.1.33-8.33,2.58-11.91,1.94-3.09,5.27-4.35,8.82-4.17s6.33,1.07,9.84-.26c2.81-1.07,4.58-2.59,7.12-4,4.28-2.43,9-5.71,9.87-9.86.16-.74-.29-7.43.65-7.43h17.34"/><path class="cls-2" d="M102.58,58.46a9.18,9.18,0,0,1,6.24-3.61,17.38,17.38,0,0,1,7.38.51c2.41.74,4.55,2,6.81,2.67a6.16,6.16,0,0,0,3.3.21,4.53,4.53,0,0,0,2.47-1.88h0a.73.73,0,0,1,1-.18.75.75,0,0,1,.18,1l0,0a5.89,5.89,0,0,1-3.38,2.28,7.36,7.36,0,0,1-3.92-.41c-2.4-.84-4.46-2.22-6.7-3a17,17,0,0,0-7.11-.86A9,9,0,0,0,102.58,58.46Z"/><path class="cls-2" d="M80.45,59A15.11,15.11,0,0,0,66.51,56.1c-2.31.74-4.43,2.13-6.84,3a10.8,10.8,0,0,1-3.88.81,5.88,5.88,0,0,1-3.87-1.48h0a.74.74,0,0,1-.06-1,.73.73,0,0,1,1-.07l0,0a4.45,4.45,0,0,0,2.93,1.28,9.58,9.58,0,0,0,3.46-.56c2.32-.74,4.51-2,7-2.7A15.48,15.48,0,0,1,80.45,59Z"/><path class="cls-2" d="M92.72,58.46a2.83,2.83,0,0,1-.39,1.62A2.72,2.72,0,0,1,91,61.25a2.79,2.79,0,0,1-1.78.06,3.85,3.85,0,0,1-.77-.35,4.1,4.1,0,0,1-.64-.53,6.77,6.77,0,0,1,.8.08c.25,0,.5,0,.74,0a3.36,3.36,0,0,0,1.29-.22A5.07,5.07,0,0,0,92.72,58.46Z"/><path class="cls-2" d="M86.31,41.19l.55,5c.09.83.21,1.65.34,2.47a15.81,15.81,0,0,0,.59,2.42,8,8,0,0,1-1-2.34,17.86,17.86,0,0,1-.46-2.49,23.68,23.68,0,0,1-.16-2.52A19.39,19.39,0,0,1,86.31,41.19Z"/><path class="cls-2" d="M96.17,39.22a43.68,43.68,0,0,1-1.07,5.54c-.24.9-.48,1.81-.79,2.7a13.89,13.89,0,0,1-1.1,2.61c.3-.89.51-1.8.74-2.71l.67-2.73C95.1,42.82,95.57,41,96.17,39.22Z"/><path class="cls-3" d="M83.06,26.79c3.39-.38,6.79-.59,10.18-.69,1.7-.07,3.4-.07,5.09-.1.85,0,1.7,0,2.55,0h.33a1.05,1.05,0,0,1,.25.08,1.33,1.33,0,0,1,.64.77,4.3,4.3,0,0,1,.21.75,12.89,12.89,0,0,1,.15,1.33c.07.86.08,1.77.09,2.58a13.25,13.25,0,0,0,.31,2.42A11.27,11.27,0,0,0,105,38.41c2,2.68,5,4.47,7.88,6.13a33,33,0,0,0,4.46,2.21A18.74,18.74,0,0,0,122,48a23.83,23.83,0,0,0,4.85-.47,10.4,10.4,0,0,1,2.79,0,12.57,12.57,0,0,1,2.69.74,16.63,16.63,0,0,1,7.87,7.07,14.48,14.48,0,0,1,1.92,10.09l-.2,0a15.48,15.48,0,0,0-3-9.23,16.42,16.42,0,0,0-7.33-5.95,11.33,11.33,0,0,0-2.2-.62,10.9,10.9,0,0,0-2.29,0,24.72,24.72,0,0,1-5.27.27,21.24,21.24,0,0,1-9.5-4.31,36,36,0,0,1-7.78-6.7A15.69,15.69,0,0,1,102,34.24a14.13,14.13,0,0,1-.61-2.57c-.1-.89-.21-1.67-.37-2.49-.07-.4-.17-.8-.27-1.17a2.42,2.42,0,0,0-.16-.46c0-.05-.07-.09,0,0a.76.76,0,0,0,.16.1.56.56,0,0,0,.17.06h-.06c-.85,0-1.7,0-2.54,0-1.7,0-3.39,0-5.08-.1-3.39-.1-6.78-.3-10.17-.68Z"/><path class="cls-3" d="M100.89,27c-3.43.35-6.87.55-10.3.66-1.71.06-3.43.09-5.15.11l-1.28,0h-.59a.32.32,0,0,0,.14,0c.34-.11.28-.18.28-.15a1.55,1.55,0,0,0-.08.15A16.69,16.69,0,0,0,83.23,30l-.56,2.48c-.2.85-.32,1.64-.56,2.56a11.38,11.38,0,0,1-2.78,4.55,28.23,28.23,0,0,1-4,3.34c-1.42,1-2.74,2-4.12,3.12a22.32,22.32,0,0,1-4.49,2.8,12.31,12.31,0,0,1-5.41,1.06c-1.82,0-3.51-.3-5.15-.39a10.62,10.62,0,0,0-4.58.68c-2.86,1.15-4.81,4-5.85,7.12a24.2,24.2,0,0,0-1.16,4.89,39.25,39.25,0,0,0-.38,5.1H44a26.51,26.51,0,0,1,.34-10.41,15.36,15.36,0,0,1,2.17-5,10.36,10.36,0,0,1,4.26-3.62,11.57,11.57,0,0,1,5.5-.92c1.79.09,3.49.4,5.11.49A10.63,10.63,0,0,0,66,47.2,40.39,40.39,0,0,0,70.53,45c3-1.7,6.08-3.34,8.32-5.86A9,9,0,0,0,81,34.79c.21-1.6.32-3.4.62-5.11A11.72,11.72,0,0,1,82.32,27a2.59,2.59,0,0,1,.23-.42,1.3,1.3,0,0,1,.76-.56l.22,0h.63l1.28,0c1.72,0,3.44.05,5.15.11,3.43.11,6.87.31,10.3.66Z"/><path class="cls-3" d="M44,71.09a137.22,137.22,0,0,0,5.16,20c2.15,6.55,4.61,13,6.83,19.59a122.47,122.47,0,0,1,5.21,20.22,88.19,88.19,0,0,1,1,10.39c.06,1.74,0,3.49,0,5.22a28.9,28.9,0,0,1-.65,5.17,49.53,49.53,0,0,0-.17-10.33c-.36-3.43-.88-6.83-1.52-10.21a159.18,159.18,0,0,0-5.66-19.83l-3.37-9.82c-1.09-3.29-2.17-6.59-3.11-9.94A91,91,0,0,1,44,71.09Z"/><path class="cls-3" d="M141.26,67.34c0,1.77-.08,3.54-.16,5.31s-.4,3.52-.65,5.28-.66,3.47-1,5.21-.89,3.42-1.39,5.12l-1.76,5c-.63,1.65-1.26,3.29-1.82,5-1.18,3.32-2.18,6.69-3.14,10.08-.48,1.69-.92,3.4-1.43,5.08s-.95,3.38-1.45,5.05l-1.38,5.07c-.41,1.7-.86,3.39-1.29,5.08a131,131,0,0,0-3.63,20.63h-.2a68.3,68.3,0,0,1,1.78-21.12c.45-1.72.87-3.44,1.36-5.14l1.58-5.06c1.11-3.35,2.33-6.66,3.63-9.93s2.53-6.58,3.56-9.94,1.78-6.8,2.61-10.21c.38-1.7.8-3.4,1.27-5.08s.8-3.4,1.23-5.1.71-3.42,1.11-5.13.62-3.44,1-5.17Z"/><path class="cls-4" d="M127.44,96.42a14.62,14.62,0,0,1-.65,6.16,39.59,39.59,0,0,1-5,9.27,30.74,30.74,0,0,0-4.21,8.44c-2.89,7.8-2,16.57,1.54,24A54.1,54.1,0,0,0,126,155c.31.39,1.83,2.07,2.78,3.12a.52.52,0,0,1-.39.86H61.25c-.83,0-2.26,0-3.19,0a.52.52,0,0,1-.43-.79c1.6-2.66,6.9-11.69,8.58-17.42,1.88-6.4,2.43-13.32.49-19.78C64,112,56.39,104.84,58.05,95c.62-3.73,1.91-7.36,2.11-11.14.29-5.53-1.77-10.81-4.27-15.63C53.51,63.56,51,58.81,47.37,55a1.08,1.08,0,0,1-.2-1.21c.53-1.09,1.64-3.08,2.87-2.47,2,1,3.83,2.32,5.92,3.19a44.67,44.67,0,0,0,6.79,2.16c13.55,3.22,28.09,3.15,41.83,1.38a194.8,194.8,0,0,0,31-6.81c.71-.22,1-.42,1.52.15a5.2,5.2,0,0,1,1,1.58c.5,1.23-1.32,2.83-2,3.64a39.2,39.2,0,0,0-2.64,4,109.1,109.1,0,0,0-5.33,9.87c-1.89,4-3.64,8.23-3.39,12.63C125,87.88,127,92,127.44,96.42Z"/><path class="cls-3" d="M128.36,160H61.25c-.84,0-2.27,0-3.21,0a1.51,1.51,0,0,1-1.26-2.29c1.57-2.61,6.83-11.58,8.48-17.19,2-6.9,2.19-13.54.49-19.21a49.84,49.84,0,0,0-4-8.85c-2.85-5.36-5.81-10.91-4.68-17.63.24-1.45.58-2.89.91-4.28a37.17,37.17,0,0,0,1.18-6.76c.3-5.69-2.06-11.07-4.15-15.11s-4.7-9.1-8.36-12.93a2.06,2.06,0,0,1-.37-2.33c.85-1.75,1.69-2.71,2.63-3a2,2,0,0,1,1.57.1c.87.44,1.69.92,2.49,1.39a27.17,27.17,0,0,0,3.37,1.77A42.14,42.14,0,0,0,63,55.72c12.14,2.89,26.1,3.35,41.48,1.36a191.68,191.68,0,0,0,30.8-6.77l.25-.08a1.87,1.87,0,0,1,2.26.49A6.12,6.12,0,0,1,139,52.61c.65,1.57-.74,3.11-1.65,4.13l-.44.5a38.57,38.57,0,0,0-2.57,3.89A109.27,109.27,0,0,0,129,70.9c-1.72,3.63-3.54,7.85-3.29,12.15a33.77,33.77,0,0,0,1.39,7,39.06,39.06,0,0,1,1.32,6.24h0a15.58,15.58,0,0,1-.7,6.56,40.6,40.6,0,0,1-5.07,9.51,29.65,29.65,0,0,0-4.11,8.23c-2.65,7.13-2.1,15.61,1.51,23.25a52.7,52.7,0,0,0,6.68,10.52c.23.28,1.28,1.46,2.74,3.08a1.51,1.51,0,0,1-1.12,2.52ZM58.9,158l2.35,0h66c-.81-.89-1.83-2-2.09-2.36a54.88,54.88,0,0,1-6.94-10.93c-3.83-8.12-4.4-17.15-1.57-24.78A31.63,31.63,0,0,1,121,111.3a38.25,38.25,0,0,0,4.85-9,13.58,13.58,0,0,0,.6-5.75h0a35.36,35.36,0,0,0-1.26-5.9,35.89,35.89,0,0,1-1.45-7.45c-.27-4.77,1.65-9.27,3.48-13.12,1.56-3.28,3.37-6.63,5.38-9.95A38,38,0,0,1,135.31,56c.14-.17.32-.38.52-.6.36-.41,1.47-1.64,1.3-2.06a4.18,4.18,0,0,0-.79-1.26l0,0-.17,0-.3.1a194.35,194.35,0,0,1-31.12,6.84c-15.61,2-29.81,1.54-42.19-1.4a44.93,44.93,0,0,1-6.94-2.2A30,30,0,0,1,52,53.55c-.77-.45-1.57-.92-2.37-1.32,0,0-.6.1-1.54,2,3.88,4.13,6.56,9.31,8.72,13.48s4.69,10,4.37,16.13A39.63,39.63,0,0,1,59.91,91c-.32,1.36-.65,2.77-.88,4.15-1,6.07,1.65,11.07,4.47,16.38a51.23,51.23,0,0,1,4.15,9.2c1.81,6,1.65,13.08-.49,20.35C65.58,146.44,60.87,154.67,58.9,158Z"/></svg>