<svg id="图层_1" data-name="图层 1" xmlns="http://www.w3.org/2000/svg" viewBox="0 0 186 186"><defs><style>.cls-1{fill:#f5e3ea;}.cls-2{fill:#e4cbd4;}.cls-3{fill:#5b3b2f;}.cls-4{fill:#fff;}</style></defs><path class="cls-1" d="M82.52,26.87h17.71c.58,0,1.55,3,1.57,3.44.38,7.54,3.89,10.69,11,15.19a20.31,20.31,0,0,0,7.66,3c2.76.42,5.42-.83,8.22-.25,7.06,1.47,13.76,8.66,12.87,15.56L140,72.75c-4.86,28.19-18.47,48.88-18.47,76.8l-59.54-.64c1-7.78-1.45-19.86-2.92-26.25-1.62-7.07-3.51-11.27-5.91-18.11-2.24-6.41-1.86-7.16-5.57-19.58-1-3.39-1.4-3.86-1.88-7.36s-.84-10.2-1-13.61c-.16-4,.33-8.21,2.55-11.74,1.91-3,5.19-4.28,8.69-4.11s6.24,1.06,9.69-.26c2.77-1,4.52-2.54,7-4,4.22-2.4,8.82-5.63,9.73-9.72.16-.73-.28-7.33.64-7.33h17.08"/><path class="cls-2" d="M102.44,58a9.09,9.09,0,0,1,6.15-3.55,16.93,16.93,0,0,1,7.28.51c2.37.72,4.47,2,6.71,2.63a6.13,6.13,0,0,0,3.24.2,4.45,4.45,0,0,0,2.44-1.85h0a.72.72,0,0,1,1-.18.74.74,0,0,1,.18,1l0,0A5.79,5.79,0,0,1,126.11,59a7.24,7.24,0,0,1-3.86-.4c-2.37-.83-4.4-2.19-6.6-3a16.51,16.51,0,0,0-7-.84A8.92,8.92,0,0,0,102.44,58Z"/><path class="cls-2" d="M80.64,58.5A14.91,14.91,0,0,0,66.9,55.66c-2.28.73-4.37,2.1-6.75,3a10.27,10.27,0,0,1-3.82.8A5.85,5.85,0,0,1,52.51,58h0a.73.73,0,1,1,1-1.09l0,0a4.48,4.48,0,0,0,2.89,1.26,9.31,9.31,0,0,0,3.41-.56c2.29-.72,4.44-2,6.91-2.66A15.28,15.28,0,0,1,80.64,58.5Z"/><path class="cls-2" d="M92.72,58a2.74,2.74,0,0,1-.38,1.6,2.6,2.6,0,0,1-3.08,1.21,4.06,4.06,0,0,1-.77-.33,5.35,5.35,0,0,1-.63-.53,4.8,4.8,0,0,1,.79.08c.25,0,.5,0,.73,0a3.31,3.31,0,0,0,1.28-.21A5.06,5.06,0,0,0,92.72,58Z"/><path class="cls-2" d="M86.4,41,87,45.88c.09.82.2,1.63.34,2.44a15.37,15.37,0,0,0,.57,2.39,8,8,0,0,1-.94-2.31,17.16,17.16,0,0,1-.45-2.46,20.52,20.52,0,0,1-.16-2.48A20.73,20.73,0,0,1,86.4,41Z"/><path class="cls-2" d="M96.13,39a45.61,45.61,0,0,1-1.06,5.45c-.24.9-.48,1.79-.78,2.67a13.19,13.19,0,0,1-1.08,2.57c.29-.88.5-1.78.72-2.67l.67-2.69C95.06,42.58,95.54,40.79,96.13,39Z"/><path class="cls-3" d="M83.21,26.78c3.34-.38,6.68-.58,10-.68,1.67-.07,3.34-.07,5-.1.83,0,1.67,0,2.5,0h.33a1.23,1.23,0,0,1,.25.08,1.2,1.2,0,0,1,.28.2,1.72,1.72,0,0,1,.35.55,5.55,5.55,0,0,1,.2.74,12.81,12.81,0,0,1,.16,1.32c.06.85.07,1.74.08,2.54a12.93,12.93,0,0,0,.31,2.39,11.11,11.11,0,0,0,2.07,4.36c2,2.64,4.9,4.41,7.78,6A31.44,31.44,0,0,0,117,46.45a18.07,18.07,0,0,0,4.59,1.19,23.13,23.13,0,0,0,4.78-.46,10.1,10.1,0,0,1,2.75,0,12.52,12.52,0,0,1,2.64.72,16.4,16.4,0,0,1,7.76,7,14.23,14.23,0,0,1,1.9,9.94l-.2,0a15.29,15.29,0,0,0-3-9.1A16.25,16.25,0,0,0,131,49.82a11,11,0,0,0-2.17-.61,10.53,10.53,0,0,0-2.25,0,24.1,24.1,0,0,1-5.19.26A20.83,20.83,0,0,1,112,45.2a35.16,35.16,0,0,1-7.66-6.59,15.42,15.42,0,0,1-2.49-4.49,13.61,13.61,0,0,1-.6-2.54c-.1-.87-.21-1.64-.36-2.45-.08-.39-.17-.79-.27-1.15a2.7,2.7,0,0,0-.16-.46c0-.05-.07-.08,0,0a.82.82,0,0,0,.15.11,1.89,1.89,0,0,0,.18.06h.09s0,0,0,0h-.16c-.83,0-1.67,0-2.5,0-1.67,0-3.34,0-5-.1-3.33-.1-6.67-.3-10-.68Z"/><path class="cls-3" d="M100.77,27c-3.38.35-6.76.54-10.14.65-1.69.06-3.39.1-5.08.11l-1.27,0h-.57l.14,0c.33-.11.27-.18.28-.15s0,.08-.09.14A17.14,17.14,0,0,0,83.37,30l-.55,2.44c-.19.84-.31,1.62-.56,2.53a11,11,0,0,1-2.73,4.48,28.64,28.64,0,0,1-3.94,3.29c-1.4,1-2.71,2-4.06,3.07a21.33,21.33,0,0,1-4.43,2.77,12.06,12.06,0,0,1-5.33,1c-1.79,0-3.46-.29-5.08-.38a10.5,10.5,0,0,0-4.51.67c-2.82,1.13-4.74,3.94-5.77,7a24.23,24.23,0,0,0-1.13,4.81,36.43,36.43,0,0,0-.38,5h-.19a26.13,26.13,0,0,1,.34-10.26,15.14,15.14,0,0,1,2.14-4.88A10.15,10.15,0,0,1,51.39,48a11.44,11.44,0,0,1,5.42-.9c1.76.08,3.44.39,5,.48a10.46,10.46,0,0,0,4.57-.72,37.67,37.67,0,0,0,4.45-2.14c2.91-1.67,6-3.29,8.2-5.77a8.93,8.93,0,0,0,2.1-4.32c.2-1.58.31-3.35.61-5a11.4,11.4,0,0,1,.7-2.64c.06-.12.13-.25.23-.41a1.27,1.27,0,0,1,.75-.55l.22,0h.61l1.27,0c1.69,0,3.39.05,5.08.11,3.38.11,6.76.3,10.14.65Z"/><path class="cls-3" d="M44.71,70.43A135.82,135.82,0,0,0,49.8,90.17c2.12,6.46,4.54,12.82,6.72,19.31a120.12,120.12,0,0,1,5.14,19.92,88.16,88.16,0,0,1,1,10.25c.06,1.71,0,3.43,0,5.14a28.92,28.92,0,0,1-.64,5.09,49.49,49.49,0,0,0-.17-10.18c-.35-3.37-.86-6.73-1.5-10.06A156.21,156.21,0,0,0,54.7,110.1l-3.32-9.68c-1.08-3.24-2.14-6.49-3.07-9.79A90.25,90.25,0,0,1,44.71,70.43Z"/><path class="cls-3" d="M140.55,66.74c0,1.74-.07,3.48-.15,5.23s-.4,3.47-.64,5.2-.65,3.43-1,5.14-.88,3.37-1.38,5l-1.73,4.93c-.62,1.62-1.24,3.25-1.79,4.89-1.16,3.27-2.15,6.6-3.1,9.93-.47,1.67-.91,3.35-1.41,5s-.93,3.33-1.43,5l-1.36,5c-.4,1.68-.84,3.34-1.27,5a130.63,130.63,0,0,0-3.58,20.33h-.19a67.62,67.62,0,0,1,1.75-20.82c.44-1.69.86-3.38,1.34-5.06l1.56-5c1.09-3.3,2.3-6.56,3.58-9.79s2.49-6.47,3.51-9.78,1.75-6.71,2.56-10.06c.39-1.69.8-3.36,1.26-5s.79-3.35,1.22-5,.69-3.37,1.09-5,.61-3.4,1-5.1Z"/><path class="cls-2" d="M56.61,73.31a5.59,5.59,0,0,1,3.14,3.13,12.54,12.54,0,0,1,.89,4.43,32.56,32.56,0,0,1-1.16,8.86,39.5,39.5,0,0,0-1.75,8.62,11.29,11.29,0,0,0,2.61,8.1,14.29,14.29,0,0,0,7.3,4.36,21,21,0,0,0,8.57.36,15.68,15.68,0,0,0,7.78-3.4,11.72,11.72,0,0,0,3.82-7.57h.1a11.44,11.44,0,0,1-3.41,8.12,15.83,15.83,0,0,1-8.11,3.87,20.69,20.69,0,0,1-9-.51,14.09,14.09,0,0,1-7.47-4.9,11.82,11.82,0,0,1-2-4,15.51,15.51,0,0,1-.52-4.44,45.69,45.69,0,0,1,1.29-8.8,41.14,41.14,0,0,0,1.2-8.65,12.71,12.71,0,0,0-.62-4.26,5.59,5.59,0,0,0-2.7-3.23Z"/><path class="cls-2" d="M126.93,73.39a11.66,11.66,0,0,0-2.67,8,46.82,46.82,0,0,0,1.61,8.6A34.58,34.58,0,0,1,127,98.87a14.21,14.21,0,0,1-3.13,8.26,14.59,14.59,0,0,1-7.6,4.7,21.3,21.3,0,0,1-9,.4,16.16,16.16,0,0,1-8.11-3.87,10.2,10.2,0,0,1-2.57-3.73,9.48,9.48,0,0,1-.55-4.43h.09a9.8,9.8,0,0,0,.91,4.22,10.13,10.13,0,0,0,2.62,3.36,16.29,16.29,0,0,0,7.79,3.42,21.94,21.94,0,0,0,8.58-.27,14.82,14.82,0,0,0,7.43-4.16,11.11,11.11,0,0,0,2.3-3.66,12.49,12.49,0,0,0,.9-4.26,30.46,30.46,0,0,0-1.61-8.62,35.49,35.49,0,0,1-1.58-8.79c0-.37,0-.75.07-1.13a5.38,5.38,0,0,1,.14-1.13l.24-1.11c.1-.36.26-.71.38-1.07a9.23,9.23,0,0,1,1.07-2,14.78,14.78,0,0,1,1.45-1.7Z"/><path class="cls-2" d="M100.34,84.16c-1.08,3.55-3.82,12-9.16,9.84-3.24-1.33-6.23-6.39-6.34-9.8,0,.23,1.76,1.32,2,1.52.63.5,1.26,1,1.93,1.42,1.32.86,2.83,2.11,4.49,2.08a5.05,5.05,0,0,0,3.06-1.37c.82-.69,1.59-1.4,2.43-2.06C99.18,85.46,100.34,84.76,100.34,84.16Z"/><path class="cls-4" d="M50.71,112.31a.16.16,0,0,1-.15-.06c-.35-.37-.46-1.49-.35-3.33a64.5,64.5,0,0,0-.05-9.33c-.11-1.5-.28-3-.5-4.5a4.72,4.72,0,0,0-.16-.65,9.49,9.49,0,0,1-.43-2.17l.62-.2c.87-.28,1.83-.5,2.85-.73,2.81-.65,6-1.38,8-3.64l0,0a34.9,34.9,0,0,1-1.06,5.6c-.25,1-.52,2.1-.72,3.17a13.06,13.06,0,0,0,.68,6.25c0,.19.24.63.6,1.46.26.61.7,1.63.92,2.22a.71.71,0,0,0-.14.29c-.19.75-1.08,1.26-1.87,1.7a77.86,77.86,0,0,1-7.91,3.79A.89.89,0,0,1,50.71,112.31Z"/><path class="cls-3" d="M61.17,88h0M59.6,89.48c-.21,1.22-.51,2.43-.82,3.69-.25,1-.52,2.12-.73,3.21a13.79,13.79,0,0,0,.7,6.6,16.13,16.13,0,0,0,.63,1.54c.22.5.56,1.31.79,1.88a1.42,1.42,0,0,0-.05.16c-.11.45-.89.89-1.54,1.26A73.84,73.84,0,0,1,51,111.46a9.15,9.15,0,0,1-.06-2.49v-.08a66.32,66.32,0,0,0-.06-9.35c-.12-1.51-.29-3-.51-4.56a6.12,6.12,0,0,0-.17-.73c-.08-.27-.26-1-.36-1.47h.06c.85-.27,1.79-.49,2.8-.72a19,19,0,0,0,6.89-2.57m-9.8,2.77h0M60.51,86.8c-.13,0-.28.09-.47.32-2.46,2.94-7.15,3.16-10.57,4.26l-.86.27c-.73.21.27,3.1.33,3.54.22,1.48.38,3,.49,4.46a63.37,63.37,0,0,1,.06,9.14c-.07,1.06-.31,4.25,1.22,4.25a1.56,1.56,0,0,0,.62-.14,76.56,76.56,0,0,0,8-3.81c.88-.5,2-1.11,2.24-2.17,0-.06.18-.08.28-.12s-1.54-3.79-1.67-4.24a12.51,12.51,0,0,1-.67-5.9c.6-3.08,1.64-6,1.82-9.2-.27-.17-.47-.66-.79-.66Z"/><path class="cls-4" d="M135,110c-2.28-2.13-7.21-3.38-10.84-4.3l-1.09-.28c.23-.48.47-1,.71-1.45,1.16-2.34,2.36-4.77,2.06-7.49a59.68,59.68,0,0,0-1.54-7.66c0-.06,0-.11,0-.17a34.88,34.88,0,0,0,4.65,2c1.42.43,2.87.82,4.27,1.2l2.89.79a1.23,1.23,0,0,1,.72.4c.06.11.12.38-.09,1.06a33,33,0,0,0-1.32,8.67c0,.75,0,1.51,0,2.25A13,13,0,0,1,135,110Z"/><path class="cls-3" d="M125.71,90.45a29.59,29.59,0,0,0,2.93,1.18c1.43.43,2.89.83,4.3,1.21q1.44.38,2.88.78h0c0,.07,0,.15-.07.24a34,34,0,0,0-1.36,8.93c0,.78,0,1.56,0,2.31a20.37,20.37,0,0,1-.05,3.24c-2.67-1.71-6.76-2.75-9.93-3.56l.18-.36c1.17-2.36,2.49-5,2.16-8a50.21,50.21,0,0,0-1.11-5.94m-2.49-3.57c-.14,0-.26.08-.32.31-.14.49.34,1.34.45,1.82a58.29,58.29,0,0,1,1.53,7.59c.35,3.11-1.58,6-2.83,8.76-.11.26-.3.48-.11.78,3.28.92,10.27,2.29,12.63,4.81.27.29.47.43.64.43s.39-.23.57-.66c1.06-2.47.52-5.27.58-7.87a32.32,32.32,0,0,1,1.28-8.41c.43-1.41.16-2.27-1.29-2.68-2.37-.68-4.78-1.27-7.15-2a32,32,0,0,1-4.75-2.12c-.22-.14-.83-.77-1.23-.77Z"/><path class="cls-4" d="M68.6,159H57.83a1.43,1.43,0,0,1-1.3-.81,1.45,1.45,0,0,1,.14-1.55,50.85,50.85,0,0,0,2.95-4.9c2.87-5.51,5.7-11.46,6.95-17.6,1.66-8.09,1.78-12.64-4-22.28l-.86-1.4c-3.72-6.12-7.94-13-3.49-21.27l.13-.26a19.85,19.85,0,0,1,1.55-2.54,12.37,12.37,0,0,1,3.57-3.17,8.87,8.87,0,0,0,.24-1.43,43.37,43.37,0,0,0-.17-5.46c-.38-5.17-.82-10.4-1.31-15.58-.07-.7-.13-1.4-.18-2.11-.28-3.48-.56-7.07-2.26-10.06a1.2,1.2,0,0,1-.07-.91,1.06,1.06,0,0,1,.65-.61,4.44,4.44,0,0,1,1.44-.22,12.37,12.37,0,0,1,5.56,1.83c.88.51,1.17,1.87,1.46,4.53,0,.33.06.6.09.74l1.39,7.51q1.38,7.5,2.8,15l.17.88c.18.93.39,2,.54,3.07h.23A16.71,16.71,0,0,1,86,85.29a25.29,25.29,0,0,1,6.61,9.6,1.8,1.8,0,0,0,.08.21,16.3,16.3,0,0,1,.67-1.6,26,26,0,0,1,8.79-10.31,16.35,16.35,0,0,1,9.31-2.77,17.85,17.85,0,0,1,3.1.26c1.07-7.23,2.12-14.83,3.2-23.18,0-.29.06-.89.08-1.58.15-4.69.48-7,1.91-7.62a17.39,17.39,0,0,1,6.74-1.21h.72a1.13,1.13,0,0,1,.87.5,1,1,0,0,1,0,1c-1.14,2.34-1.5,5.25-1.85,8.06-.1.76-.19,1.5-.3,2.22-.63,4.19-1,8-1.25,11.64a93.1,93.1,0,0,0,0,11.33c.1,1.59.24,3.16.42,4.68,0,.3.07.59.11.88a13.43,13.43,0,0,1,1.59,3.44,20.37,20.37,0,0,1,1,8.91c-.64,4.13-3.08,7.62-5.43,11l-.63.9a29.8,29.8,0,0,0-4,7.35c-2.83,8.54-2.34,17.41,1.29,23.75,1.53,2.66,3,5.07,4.51,7.36s2.92,4.29,4.51,6.37a2.28,2.28,0,0,1,.52,1.62,1,1,0,0,1-1,.9h-59Z"/><path class="cls-3" d="M61.81,47.83a11.35,11.35,0,0,1,5.07,1.7c.78.45,1,3.87,1.08,4.61q.71,3.75,1.39,7.5c.93,5,1.86,10,2.8,15,.22,1.16.56,2.67.74,4.19,0,.19,0,.39,0,.58q.56,0,1.11,0A15.81,15.81,0,0,1,85.32,86a24.81,24.81,0,0,1,6.37,9.23,17.5,17.5,0,0,1,.64,2.36.31.31,0,0,0,.31.25.3.3,0,0,0,.3-.24,18.61,18.61,0,0,1,1.29-3.67A25,25,0,0,1,102.69,84a15.46,15.46,0,0,1,8.76-2.6,17.12,17.12,0,0,1,3.91.45q1.8-12.09,3.35-24.22c.18-1.4,0-7.83,1.41-8.43a16.53,16.53,0,0,1,6.36-1.13h.69a.07.07,0,0,1,.07.11c-1.53,3.14-1.73,7.15-2.24,10.56-.58,3.9-1,7.81-1.26,11.74a92.91,92.91,0,0,0,0,11.44c.1,1.58.24,3.16.43,4.74,0,.37.09.74.14,1.11a12.37,12.37,0,0,1,1.59,3.36,19.36,19.36,0,0,1,.94,8.49c-.66,4.26-3.36,7.83-5.9,11.49a30.61,30.61,0,0,0-4.17,7.61c-2.58,7.78-2.79,17.28,1.37,24.53,1.44,2.51,2.95,5,4.54,7.42q2.16,3.29,4.54,6.42a1.26,1.26,0,0,1,.33,1H57.83a.5.5,0,0,1-.38-.81,47.93,47.93,0,0,0,3-5c2.94-5.65,5.76-11.58,7.05-17.85,1.72-8.44,1.7-13.26-4.13-23-3.93-6.55-8.83-13.38-4.33-21.71A20.68,20.68,0,0,1,60.68,87a11.7,11.7,0,0,1,3.65-3.13,12.67,12.67,0,0,0,.35-2,46,46,0,0,0-.17-5.63q-.57-7.78-1.32-15.56c-.4-4.24-.4-8.76-2.55-12.56a.08.08,0,0,1,0-.12,3.47,3.47,0,0,1,1.13-.17m0-1.94h0a5.65,5.65,0,0,0-1.73.26A2,2,0,0,0,59,49.08c1.59,2.8,1.85,6.13,2.13,9.65q.08,1.08.18,2.13c.49,5.15.93,10.37,1.31,15.52v.06a43.74,43.74,0,0,1,.17,5.32,7.09,7.09,0,0,1-.13.87,13.09,13.09,0,0,0-3.49,3.19,20.75,20.75,0,0,0-1.63,2.69l-.13.23c-4.71,8.72-.33,15.9,3.52,22.24l.85,1.4c5.61,9.35,5.49,13.76,3.89,21.59-1.23,6-4,11.89-6.86,17.35a49.92,49.92,0,0,1-2.87,4.75,2.46,2.46,0,0,0-.24,2.57A2.43,2.43,0,0,0,57.83,160h69.73a1.94,1.94,0,0,0,1.94-1.79,3.19,3.19,0,0,0-.72-2.29c-1.57-2.06-3.07-4.18-4.47-6.31-1.5-2.29-3-4.68-4.48-7.32-3.5-6.09-4-14.68-1.21-23a29,29,0,0,1,3.93-7.11l.63-.9c2.42-3.47,4.91-7,5.59-11.4a21.28,21.28,0,0,0-1-9.34,14.14,14.14,0,0,0-1.58-3.5c0-.22-.06-.43-.08-.65-.18-1.51-.32-3.07-.42-4.63a93.16,93.16,0,0,1,0-11.21c.21-3.61.62-7.39,1.24-11.56.11-.72.2-1.48.3-2.24A25.51,25.51,0,0,1,129,49a2,2,0,0,0-1.76-2.91h-.75a18.27,18.27,0,0,0-7.1,1.29c-2.11.87-2.37,3.93-2.52,8.48,0,.62,0,1.26-.08,1.49-1,8-2,15.28-3,22.21a19.38,19.38,0,0,0-2.28-.14,17.35,17.35,0,0,0-9.86,3A26.74,26.74,0,0,0,92.7,92.63a28.3,28.3,0,0,0-6-8,17.63,17.63,0,0,0-12-5.15c-.13-.81-.29-1.58-.43-2.29-.06-.3-.12-.6-.17-.87q-1.41-7.48-2.79-15L70.84,59l-1-5.2c0-.14,0-.38-.08-.68-.29-2.58-.59-4.47-1.93-5.26a13.37,13.37,0,0,0-6.06-2Z"/></svg>