<svg id="图层_1" data-name="图层 1" xmlns="http://www.w3.org/2000/svg" viewBox="0 0 186 186"><defs><style>.cls-1{fill:#5b3b2f;}.cls-2{fill:#f5e3ea;}.cls-3{fill:#e4cbd4;}.cls-4{fill:#fff;}</style></defs><path class="cls-1" d="M103.92,36.42s6.88,2.63,6.74,7.18C110.66,43.6,104.05,38.21,103.92,36.42Z"/><path class="cls-1" d="M81,36.42s-4,2.66-5,5.4A10.34,10.34,0,0,0,81,36.42Z"/><path class="cls-2" d="M82.62,26.89h18.11c.59,0,1.58,3,1.6,3.51.39,7.71,4,10.94,11.26,15.54A20.79,20.79,0,0,0,121.42,49c2.82.43,5.54-.85,8.41-.25,7.21,1.5,14.06,8.85,13.15,15.9l-1.64,9.13c-5,28.82-18.88,50-18.88,78.52l-60.87-.66c1-8-1.49-20.3-3-26.83-1.66-7.24-3.6-11.52-6-18.51-2.29-6.56-1.91-7.33-5.7-20-1-3.46-1.43-4-1.92-7.53s-.86-10.42-1-13.91c-.16-4.14.34-8.39,2.61-12,2-3.11,5.3-4.38,8.88-4.2s6.38,1.08,9.91-.27c2.83-1.08,4.62-2.6,7.18-4.06,4.31-2.46,9-5.75,9.94-9.94.16-.74-.29-7.49.66-7.49h17.46"/><path class="cls-3" d="M103,58.7a9.31,9.31,0,0,1,6.29-3.64,17.47,17.47,0,0,1,7.43.52c2.43.75,4.58,2,6.87,2.69a6.19,6.19,0,0,0,3.31.21,4.49,4.49,0,0,0,2.49-1.9h0a.76.76,0,0,1,1-.18.74.74,0,0,1,.18,1l0,0a5.92,5.92,0,0,1-3.4,2.29,7.47,7.47,0,0,1-4-.41c-2.42-.85-4.5-2.24-6.75-3.05a17.05,17.05,0,0,0-7.16-.86A9.1,9.1,0,0,0,103,58.7Z"/><path class="cls-3" d="M80.7,59.23a15.25,15.25,0,0,0-14-2.91c-2.33.75-4.46,2.15-6.89,3.06a10.75,10.75,0,0,1-3.91.82A6,6,0,0,1,52,58.72l0,0a.75.75,0,0,1-.06-1.05.73.73,0,0,1,1.05-.06l0,0a4.56,4.56,0,0,0,3,1.29,9.52,9.52,0,0,0,3.48-.57c2.34-.74,4.54-2,7.06-2.72A15.6,15.6,0,0,1,80.7,59.23Z"/><path class="cls-3" d="M93.06,58.7a2.79,2.79,0,0,1-.4,1.63,2.74,2.74,0,0,1-1.35,1.18,2.79,2.79,0,0,1-1.8.06,3.65,3.65,0,0,1-.78-.35,4.1,4.1,0,0,1-.64-.53,6.44,6.44,0,0,1,.8.07c.26,0,.51.05.75,0a3.38,3.38,0,0,0,1.3-.21A5.31,5.31,0,0,0,93.06,58.7Z"/><path class="cls-3" d="M86.6,41.31l.55,5c.09.83.21,1.66.35,2.49a15,15,0,0,0,.59,2.44,8.09,8.09,0,0,1-1-2.36,16.79,16.79,0,0,1-.47-2.51,24.05,24.05,0,0,1-.16-2.54A19.55,19.55,0,0,1,86.6,41.31Z"/><path class="cls-3" d="M96.53,39.32a45.62,45.62,0,0,1-1.07,5.57c-.25.92-.49,1.84-.8,2.73a13.83,13.83,0,0,1-1.11,2.63c.3-.9.51-1.82.74-2.73L95,44.77C95.45,43,95.93,41.12,96.53,39.32Z"/><path class="cls-1" d="M83.33,26.8c3.41-.39,6.83-.59,10.25-.7C95.29,26,97,26,98.71,26c.86,0,1.71,0,2.57,0h.33a1,1,0,0,1,.25.09.9.9,0,0,1,.29.2,1.43,1.43,0,0,1,.35.56,3.82,3.82,0,0,1,.21.76,10.77,10.77,0,0,1,.16,1.35c.07.86.08,1.78.09,2.59a13.35,13.35,0,0,0,.31,2.44,11.54,11.54,0,0,0,2.13,4.47c2,2.69,5,4.5,7.94,6.17a34.7,34.7,0,0,0,4.49,2.23,18.49,18.49,0,0,0,4.7,1.21,23.57,23.57,0,0,0,4.89-.47,10.48,10.48,0,0,1,2.8,0,12.59,12.59,0,0,1,2.71.74,16.75,16.75,0,0,1,7.93,7.13,14.53,14.53,0,0,1,1.93,10.17l-.19,0a15.67,15.67,0,0,0-3.07-9.3,16.57,16.57,0,0,0-7.38-6,9,9,0,0,0-4.53-.65,23.75,23.75,0,0,1-5.3.27,21.37,21.37,0,0,1-9.58-4.34,36.23,36.23,0,0,1-7.83-6.74,15.72,15.72,0,0,1-2.54-4.59,14.37,14.37,0,0,1-.62-2.59c-.1-.89-.21-1.68-.37-2.51-.08-.4-.17-.8-.27-1.17a3.15,3.15,0,0,0-.16-.47s-.07-.09,0,0a.68.68,0,0,0,.16.11.78.78,0,0,0,.18,0h-.07c-.85,0-1.7,0-2.56,0-1.7,0-3.41,0-5.11-.1-3.42-.11-6.83-.31-10.24-.7Z"/><path class="cls-1" d="M101.29,27c-3.46.36-6.92.56-10.38.67-1.73.06-3.46.1-5.19.11l-1.29,0h-.59l.14,0c.34-.12.28-.19.29-.15s0,.08-.09.14a17.47,17.47,0,0,0-.68,2.29l-.57,2.5c-.2.85-.32,1.65-.57,2.58a11.16,11.16,0,0,1-2.79,4.58,28.69,28.69,0,0,1-4,3.37c-1.43,1-2.77,2.06-4.15,3.13A22,22,0,0,1,66.86,49a12.31,12.31,0,0,1-5.44,1.07c-1.84,0-3.54-.31-5.2-.39a10.48,10.48,0,0,0-4.61.68c-2.88,1.16-4.85,4-5.9,7.17a24.75,24.75,0,0,0-1.16,4.93,38,38,0,0,0-.38,5.13l-.2,0a26.72,26.72,0,0,1,.35-10.49,15.49,15.49,0,0,1,2.19-5,10.29,10.29,0,0,1,4.29-3.64,11.58,11.58,0,0,1,5.54-.93c1.8.09,3.51.4,5.14.49a10.53,10.53,0,0,0,4.68-.74,39.18,39.18,0,0,0,4.54-2.18c3-1.71,6.12-3.36,8.39-5.9a9.11,9.11,0,0,0,2.14-4.41c.21-1.62.32-3.43.63-5.15a12.08,12.08,0,0,1,.72-2.7,2.54,2.54,0,0,1,.23-.41,1.3,1.3,0,0,1,.77-.57l.22,0h.63l1.29,0c1.73,0,3.46.05,5.19.11,3.46.11,6.92.31,10.38.67Z"/><path class="cls-1" d="M44,71.42a140.38,140.38,0,0,0,5.2,20.19c2.17,6.6,4.65,13.1,6.88,19.73a123.3,123.3,0,0,1,5.25,20.37,92,92,0,0,1,1,10.47c.06,1.75,0,3.51,0,5.26a29.46,29.46,0,0,1-.65,5.21,50.29,50.29,0,0,0-.18-10.41c-.36-3.45-.88-6.89-1.53-10.29a159.86,159.86,0,0,0-5.7-20l-3.39-9.88c-1.1-3.32-2.19-6.65-3.14-10A92.56,92.56,0,0,1,44,71.42Z"/><path class="cls-1" d="M142,67.65c0,1.78-.07,3.56-.15,5.35s-.41,3.54-.65,5.31-.67,3.51-1,5.25-.9,3.45-1.41,5.16l-1.77,5c-.64,1.66-1.26,3.32-1.83,5-1.19,3.34-2.2,6.74-3.17,10.15-.48,1.71-.92,3.43-1.44,5.12s-1,3.4-1.46,5.09l-1.39,5.11c-.41,1.71-.86,3.41-1.3,5.11a133,133,0,0,0-3.66,20.79h-.19a68.72,68.72,0,0,1,1.79-21.28c.45-1.73.88-3.46,1.36-5.18l1.6-5.09c1.12-3.38,2.35-6.72,3.66-10s2.54-6.63,3.58-10,1.79-6.86,2.63-10.29c.39-1.72.81-3.42,1.29-5.12s.8-3.43,1.24-5.13.71-3.45,1.11-5.17.63-3.47,1-5.22Z"/><path class="cls-4" d="M123.54,48.74a17.45,17.45,0,0,1,4.85-.71,16.66,16.66,0,0,1,8.37,2.66c2.49,1.77,5.55,5.94,5.34,9.27a.48.48,0,0,1-.3.41C133.7,64,124,72.44,124.07,82c0,4.76,2.23,9.16,2.61,13.87.59,7.2-3.87,12.48-7.53,18.17A28.69,28.69,0,0,0,115,135.68c1.83,8.26,7.23,15.17,12.08,22.1.2.29.4.68.2,1a.91.91,0,0,1-.77.26H57.78a.51.51,0,0,1-.46-.76c6.36-11.67,15.27-26.65,8.73-40.1-3.47-7.14-9.11-13-8.75-21.45.16-3.91,1.58-7.64,2.29-11.48,2-11-6.91-19.74-15.27-25.41a1,1,0,0,1-.38-1.15c1.09-3,6-14.3,18.19-9.43a.53.53,0,0,0,.39,0l1.8.06L64,47.45s-.73-1.57,2-2.59c0,0,2.92-2.59,5-4.85,1.69-1.81,3-3.58,5.17-4.86,2.65-1.61,6.11-2.85,5.33-.19a2.54,2.54,0,0,1-1.09,1.38,19,19,0,0,0-3,2.13l-1.11,1.17s-3.16,3.53,3.32,14.21L89.57,73.7s3,10.13,5.47,3.41l5.26-10.9,10.58-22s1.65-5.82-6.54-7.71c0,0-.94-.68.19-1.33a3.27,3.27,0,0,1,2.13-.33l1.23.21a14.34,14.34,0,0,1,8.45,5.92s4,4.37,6.21,5.61Z"/><path class="cls-1" d="M126.52,160H57.78a1.51,1.51,0,0,1-1.31-.75,1.5,1.5,0,0,1,0-1.49l.93-1.7c6.14-11.2,13.78-25.14,7.78-37.49-1-2-2.1-3.86-3.21-5.7C59,108.05,56,103.06,56.3,96.64a37,37,0,0,1,1.37-7.54c.34-1.33.69-2.71.94-4.07,2-10.52-7-19.07-14.83-24.4A2,2,0,0,1,43,58.29c.83-2.29,3.31-7.89,8.51-10.23,3.21-1.44,6.85-1.38,10.84.19l.19,0,1.8.06a1,1,0,0,1-.06,2l-1.65-.05a1.48,1.48,0,0,1-.88-.09c-3.52-1.41-6.69-1.5-9.42-.27-4.51,2-6.72,7-7.45,9.09,12,8.14,17.37,17.27,15.67,26.43-.26,1.42-.62,2.83-1,4.2a35,35,0,0,0-1.31,7.14c-.25,5.81,2.48,10.33,5.36,15.11,1.13,1.88,2.3,3.82,3.3,5.86C73.4,131,65.48,145.41,59.12,157l-.55,1H126l-1.41-2c-4.39-6.19-8.92-12.6-10.58-20.12a29.52,29.52,0,0,1,4.28-22.42c.53-.83,1.08-1.65,1.63-2.46,3.19-4.77,6.21-9.27,5.74-15.09a35.15,35.15,0,0,0-1.25-6.15A31.39,31.39,0,0,1,123.08,82c-.09-9.68,9.24-18.35,18-22.39,0-2.73-2.55-6.4-4.93-8.09-2-1.4-4.4-2.16-7.87-2.48a10.56,10.56,0,0,0-3.3.41l-1.29.29a1,1,0,0,1-.37-2c.41-.07.81-.17,1.22-.26a12.17,12.17,0,0,1,3.91-.46,17.73,17.73,0,0,1,8.85,2.84c2.46,1.75,6,6.17,5.76,10.11a1.51,1.51,0,0,1-.9,1.3C133.62,65.14,125,73.48,125.06,82a30.39,30.39,0,0,0,1.3,7.3,36.52,36.52,0,0,1,1.31,6.5c.53,6.51-2.83,11.51-6.07,16.35-.54.81-1.08,1.62-1.61,2.44a27.53,27.53,0,0,0-4,20.92c1.58,7.12,6,13.36,10.26,19.39l1.66,2.36a1.73,1.73,0,0,1,.21,2.1A1.83,1.83,0,0,1,126.52,160Z"/><path class="cls-1" d="M93.18,81C91.9,81,91.31,79.7,91,79l-.08-.17Q89.52,76,88.09,73.08q-1.66-3.36-3.34-6.72l-8.57-17.3c-1.13-1.88-4.38-8.61,2.83-13a5.44,5.44,0,0,1,1.56-.63A1,1,0,0,1,81,37.39a3.34,3.34,0,0,0-1,.39c-2.27,1.38-5.57,4.55-2.12,10.33l8.61,17.36c1.12,2.24,2.23,4.49,3.34,6.73.95,1.92,1.89,3.85,2.83,5.77l.09.21c.06.13.19.4.31.6.18-.29.37-.7.47-.9s.17-.37.23-.47l14.84-30.82.48-1c1-2,1.55-3,.32-4.83a8.67,8.67,0,0,0-5.07-3.33,1.11,1.11,0,0,1-.54-.3,1,1,0,0,1,.78-1.78,1.08,1.08,0,0,1,.43.2,10.8,10.8,0,0,1,6,4.09c1.88,2.76.87,4.74-.19,6.85-.15.29-.31.6-.46.92L95.56,78.33c-.08.14-.13.26-.2.4-.47,1-1.07,2.26-2.17,2.26Zm11-43.65h0Zm.58-1.81Z"/><path class="cls-1" d="M90.94,77.62A1,1,0,0,1,90,77l-.31-.71c-1.63-3.82-3.16-7.42-6.8-9.08-3.42-1.55-5.66.27-8.69,3.22h0c-.12.13-.3.3-.55.54a2.82,2.82,0,0,1-2.46.76,2.73,2.73,0,0,1-2-1.52c-3.25-6.68-5.39-18-6.16-22.6a2.82,2.82,0,0,1,1.42-2.93,23,23,0,0,0,5.65-5.16c2.94-3.34,6-6.8,11.07-6.69a1,1,0,0,1,1,1,1,1,0,0,1-1,1c-4.18-.12-6.77,2.88-9.54,6a24.47,24.47,0,0,1-6.17,5.59.82.82,0,0,0-.43.86c.59,3.5,2.76,15.43,6,22.06a.77.77,0,0,0,.59.43.85.85,0,0,0,.74-.22l.54-.54h0c2.67-2.6,6-5.84,10.9-3.61,4.35,2,6.11,6.11,7.81,10.11l.3.71a1,1,0,0,1-.52,1.3A.92.92,0,0,1,90.94,77.62Z"/><path class="cls-1" d="M95.61,76.93a.91.91,0,0,1-.39-.08,1,1,0,0,1-.52-1.31c1.83-4.27,3.91-9.11,9.28-10.22,4.34-.89,8.15,2.24,10.65,4.67l.55.54a.84.84,0,0,0,.74.22.77.77,0,0,0,.59-.43c3.22-6.62,5.4-18.56,6-22.07a.81.81,0,0,0-.43-.85A24.52,24.52,0,0,1,116,42c-2-2.21-3.87-4.29-6.45-5.4a12.15,12.15,0,0,0-5.67-1,1,1,0,0,1-1-.93,1,1,0,0,1,.93-1.06,14.32,14.32,0,0,1,6.58,1.13c3,1.29,5.09,3.63,7.13,5.9a22.81,22.81,0,0,0,5.59,5,2.83,2.83,0,0,1,1.43,2.92c-.77,4.58-2.92,15.94-6.16,22.61a2.79,2.79,0,0,1-2,1.52A2.88,2.88,0,0,1,113.8,72l-.56-.54c-2.17-2.11-5.45-4.85-8.86-4.14-4.35.89-6.13,5-7.86,9.06A1,1,0,0,1,95.61,76.93Z"/></svg>