<svg id="图层_1" data-name="图层 1" xmlns="http://www.w3.org/2000/svg" viewBox="0 0 186 186"><defs><style>.cls-1{fill:#f5e3ea;}.cls-2{fill:#e4cbd4;}.cls-3{fill:#5b3b2f;}.cls-4{fill:#fff;}</style></defs><path class="cls-1" d="M82.28,26.89h18.11c.59,0,1.58,3,1.61,3.51.39,7.71,4,10.94,11.25,15.54A20.61,20.61,0,0,0,121.09,49c2.81.43,5.54-.85,8.4-.25,7.22,1.5,14.06,8.85,13.16,15.9L141,73.79c-5,28.82-18.88,50-18.88,78.52l-60.87-.65c1-7.95-1.49-20.3-3-26.84-1.66-7.23-3.6-11.52-6.05-18.51-2.29-6.55-1.91-7.33-5.7-20-1-3.46-1.43-4-1.92-7.53s-.86-10.42-1-13.91c-.16-4.14.34-8.39,2.61-12,1.95-3.11,5.3-4.38,8.88-4.2s6.38,1.08,9.91-.27c2.83-1.08,4.62-2.6,7.18-4.06,4.31-2.46,9-5.75,9.94-9.94.16-.74-.29-7.49.66-7.49h17.46"/><path class="cls-2" d="M102.66,58.7a9.26,9.26,0,0,1,6.28-3.64,17.68,17.68,0,0,1,7.44.52c2.43.75,4.57,2,6.86,2.69a6.23,6.23,0,0,0,3.32.21,4.56,4.56,0,0,0,2.49-1.9h0a.75.75,0,0,1,1-.19.74.74,0,0,1,.18,1v0a6,6,0,0,1-3.41,2.29,7.38,7.38,0,0,1-3.95-.41c-2.42-.85-4.49-2.24-6.75-3.05a17,17,0,0,0-7.16-.86A9.08,9.08,0,0,0,102.66,58.7Z"/><path class="cls-2" d="M80.36,59.23a15.25,15.25,0,0,0-14-2.91c-2.33.75-4.46,2.15-6.89,3.06a10.75,10.75,0,0,1-3.91.82,6,6,0,0,1-3.9-1.48l0,0a.75.75,0,0,1-.06-1.05.73.73,0,0,1,1-.06l0,0a4.56,4.56,0,0,0,3,1.29,9.52,9.52,0,0,0,3.48-.57c2.34-.74,4.54-2,7.06-2.72A15.6,15.6,0,0,1,80.36,59.23Z"/><path class="cls-2" d="M92.72,58.7a2.84,2.84,0,0,1-.4,1.64A2.77,2.77,0,0,1,91,61.51a2.72,2.72,0,0,1-1.8.06,4.18,4.18,0,0,1-.78-.34,4.81,4.81,0,0,1-.64-.54,6.44,6.44,0,0,1,.8.07c.26,0,.51.05.75,0a3.38,3.38,0,0,0,1.3-.21A5.23,5.23,0,0,0,92.72,58.7Z"/><path class="cls-2" d="M86.26,41.31l.55,5c.09.83.21,1.66.35,2.49a15,15,0,0,0,.59,2.44,8.09,8.09,0,0,1-1-2.36,16.79,16.79,0,0,1-.47-2.51,24.05,24.05,0,0,1-.16-2.54A19.55,19.55,0,0,1,86.26,41.31Z"/><path class="cls-2" d="M96.2,39.32a47.79,47.79,0,0,1-1.08,5.58c-.25.91-.49,1.83-.8,2.72a13.83,13.83,0,0,1-1.11,2.63c.3-.9.51-1.82.74-2.73l.69-2.75C95.11,43,95.59,41.12,96.2,39.32Z"/><path class="cls-3" d="M83,26.8c3.41-.39,6.83-.59,10.25-.7C95,26,96.66,26,98.37,26c.86,0,1.71,0,2.57,0h.33a1,1,0,0,1,.25.09.9.9,0,0,1,.29.2,1.64,1.64,0,0,1,.36.56,3.74,3.74,0,0,1,.2.76,13.11,13.11,0,0,1,.17,1.35c.06.86.07,1.78.08,2.59a12.55,12.55,0,0,0,.32,2.44,11.38,11.38,0,0,0,2.12,4.47c2,2.69,5,4.5,7.94,6.17a34.19,34.19,0,0,0,4.5,2.23,18.42,18.42,0,0,0,4.69,1.21,23.57,23.57,0,0,0,4.89-.47,10.55,10.55,0,0,1,2.81,0,12.5,12.5,0,0,1,2.7.74,16.75,16.75,0,0,1,7.93,7.13,14.59,14.59,0,0,1,1.94,10.17l-.2,0a15.67,15.67,0,0,0-3.06-9.29,16.61,16.61,0,0,0-7.39-6,8.92,8.92,0,0,0-4.53-.65A23.75,23.75,0,0,1,122,50a21.37,21.37,0,0,1-9.58-4.34,36.47,36.47,0,0,1-7.83-6.74A15.72,15.72,0,0,1,102,34.3a14.37,14.37,0,0,1-.62-2.59c-.1-.89-.21-1.68-.37-2.51-.08-.4-.17-.8-.27-1.17a3.15,3.15,0,0,0-.16-.47s-.07-.09,0,0,.1.08.16.11a.78.78,0,0,0,.18,0h-.06c-.86,0-1.71,0-2.56,0-1.71,0-3.42,0-5.12-.1-3.41-.11-6.83-.31-10.24-.7Z"/><path class="cls-3" d="M101,27c-3.46.36-6.92.56-10.38.67-1.73.06-3.46.1-5.18.11l-1.3,0H83.5l.15,0c.33-.12.28-.19.28-.15s-.05.08-.09.14a17.47,17.47,0,0,0-.68,2.29l-.57,2.5c-.2.85-.32,1.65-.57,2.58a11.16,11.16,0,0,1-2.79,4.58,28.69,28.69,0,0,1-4,3.37c-1.43,1-2.77,2.06-4.15,3.14A22.41,22.41,0,0,1,66.52,49a12.28,12.28,0,0,1-5.44,1.07c-1.84,0-3.54-.3-5.2-.39a10.63,10.63,0,0,0-4.61.68c-2.88,1.16-4.85,4-5.9,7.18a24.49,24.49,0,0,0-1.16,4.92,38.16,38.16,0,0,0-.38,5.14h-.2A26.72,26.72,0,0,1,44,57.16a15.49,15.49,0,0,1,2.19-5,10.29,10.29,0,0,1,4.29-3.64A11.58,11.58,0,0,1,56,47.6c1.8.09,3.51.4,5.14.49a10.53,10.53,0,0,0,4.68-.74,39.18,39.18,0,0,0,4.54-2.18c3-1.71,6.13-3.36,8.39-5.9a9.11,9.11,0,0,0,2.14-4.41c.21-1.62.32-3.43.63-5.15a12.08,12.08,0,0,1,.72-2.7,2.54,2.54,0,0,1,.23-.41,1.34,1.34,0,0,1,.77-.57l.22,0h.63l1.3,0c1.72,0,3.45.05,5.18.11,3.46.11,6.92.31,10.38.67Z"/><path class="cls-3" d="M43.63,71.42a140.38,140.38,0,0,0,5.2,20.19c2.17,6.6,4.65,13.1,6.88,19.73A123.3,123.3,0,0,1,61,131.71a91.94,91.94,0,0,1,1,10.48c.06,1.75,0,3.5,0,5.25a29.34,29.34,0,0,1-.65,5.21,50.3,50.3,0,0,0-.18-10.41c-.36-3.45-.88-6.88-1.53-10.28a160.49,160.49,0,0,0-5.7-20l-3.39-9.88c-1.1-3.32-2.19-6.64-3.14-10A92.36,92.36,0,0,1,43.63,71.42Z"/><path class="cls-3" d="M141.62,67.65c0,1.78-.08,3.56-.16,5.35s-.41,3.54-.65,5.31-.67,3.51-1,5.25-.9,3.46-1.41,5.16l-1.77,5c-.63,1.66-1.26,3.32-1.83,5-1.19,3.34-2.2,6.74-3.17,10.15-.48,1.71-.92,3.43-1.44,5.12s-1,3.41-1.46,5.1l-1.39,5.1c-.41,1.71-.86,3.41-1.3,5.11a132,132,0,0,0-3.65,20.79h-.2a68.72,68.72,0,0,1,1.79-21.28c.45-1.73.88-3.46,1.37-5.17l1.59-5.1c1.12-3.38,2.35-6.71,3.66-10s2.54-6.62,3.59-10,1.79-6.86,2.62-10.28c.39-1.72.81-3.43,1.29-5.13s.8-3.42,1.24-5.13.71-3.45,1.11-5.17.63-3.47,1-5.21Z"/><path class="cls-4" d="M57.41,159c1.43-2.82,4.75-9.49,6.26-13.56,3.13-8.45,6.67-18,2-27.62-.76-1.54-1.74-3.25-2.77-5-2-3.49-4.26-7.46-5.11-10.67-.94-3.5-.09-6.82.81-10.35a45.55,45.55,0,0,0,1.24-5.94c.77-6.6-.6-13-1.92-19.12-.36-1.66-.72-3.32-1-5-.07-.37-.5-2.34-1-4.68-.6-2.74-1.45-6.62-1.78-8.24a7.05,7.05,0,0,1,2-.27,11.23,11.23,0,0,1,3.62.64,5.17,5.17,0,0,1,1.74,1A9.62,9.62,0,0,1,63.65,54a23.91,23.91,0,0,0,2.66,4.71C70,64.22,74.6,70.28,81,73.78a22.24,22.24,0,0,0,8.45,2.65c.66.06,1.32.09,2,.09,12.69,0,20.77-11.32,27.9-21.31,1.49-2.09,2.91-4.08,4.31-5.87a2.13,2.13,0,0,1,1.69-.83c1.84,0,4,.09,5.18.2-1.32,2.28-3.08,6.43-3.17,8.89,0,.78,0,1.66-.08,2.62a106.56,106.56,0,0,1-.9,13.14,16.94,16.94,0,0,1-1,3.39,12.4,12.4,0,0,0-1,4.7A37.21,37.21,0,0,0,125.7,91c1,4.36,2,8.87.69,13-1,3.12-2.56,5.25-4.54,7.94-1,1.37-2.14,2.91-3.3,4.76-10.44,16.52,4.79,36.62,9.55,42.22l-11.64,0C99,158.92,65.2,159,57.41,159Z"/><path class="cls-3" d="M125.33,47.52v2c1.36,0,2.6.06,3.57.1-1.16,2.31-2.48,5.64-2.56,8,0,.78-.06,1.67-.09,2.63a105.63,105.63,0,0,1-.88,13,15.66,15.66,0,0,1-.94,3.21,13.48,13.48,0,0,0-1.07,5,37.49,37.49,0,0,0,1.36,9.84c1,4.42,2,8.6.72,12.49-1,3-2.47,5-4.4,7.65-1,1.38-2.16,2.94-3.34,4.81-9.94,15.73,2.46,34.41,8.28,41.76l-9.53,0c-16.45,0-47.92.06-57.44.08,1.72-3.43,4.28-8.7,5.58-12.23,3-8.2,6.83-18.42,1.91-28.4-.77-1.57-1.75-3.28-2.79-5.1-2-3.44-4.2-7.35-5-10.43-.87-3.25-.09-6.31.82-9.85a46.68,46.68,0,0,0,1.25-6.08c.8-6.76-.59-13.21-1.93-19.44-.35-1.63-.71-3.32-1-5-.07-.37-.41-1.94-1-4.69-.5-2.29-1.17-5.38-1.57-7.27a7.63,7.63,0,0,1,.84,0,10.05,10.05,0,0,1,3.29.58,4.29,4.29,0,0,1,1.41.8,8.87,8.87,0,0,1,2,3.44,24.65,24.65,0,0,0,2.75,4.91l0,.06c3.72,5.57,8.41,11.75,15,15.35a23.28,23.28,0,0,0,8.84,2.77c.69.06,1.38.09,2.06.09,13.2,0,21.8-12,28.7-21.72,1.5-2.09,2.91-4.06,4.3-5.84a1.15,1.15,0,0,1,.9-.45v-2m0,0a3.11,3.11,0,0,0-2.47,1.21c-8,10.2-16.62,26.79-31.43,26.79-.61,0-1.24,0-1.88-.08a21.16,21.16,0,0,1-8.07-2.54c-6.1-3.33-10.51-9-14.3-14.7a23.65,23.65,0,0,1-2.6-4.58,10.52,10.52,0,0,0-2.5-4.22A6.19,6.19,0,0,0,60,48.21a12.4,12.4,0,0,0-3.95-.69,7.54,7.54,0,0,0-3.15.62c-.08,0,2.76,12.75,3,13.74,1.5,7.91,3.9,15.64,2.94,23.81-.69,5.86-3.54,11-2,16.67,1.33,5,5.68,11.29,8,15.9,4.4,8.93,1.32,17.9-2,26.83-1.63,4.4-5.37,11.81-6.58,14.17a.51.51,0,0,0,.45.74h0c5.91,0,41.73-.08,59.85-.08l12.7,0h0a.51.51,0,0,0,.39-.84c-3.9-4.41-20.76-25.08-10.16-41.85,3.35-5.32,6.36-8,8-12.93,2.39-7.46-2.29-15.47-2-22.85.16-3.86,1.29-4.11,2-8,.76-4.19.84-11.64,1-15.9.09-2.42,2-6.83,3.29-8.83a.65.65,0,0,0-.41-1,58.46,58.46,0,0,0-5.84-.28Z"/><path class="cls-3" d="M119.36,71.42a27.36,27.36,0,0,1-9,10.15,40.72,40.72,0,0,1-12.42,5.74c-1.11.27-2.21.59-3.33.82l-3.39.53c-.56.08-1.13.2-1.69.25L87.82,89q-1.71.12-3.42.21c-2.28,0-4.56-.1-6.83-.18-2.26-.28-4.52-.52-6.76-.82,2.27.08,4.53.22,6.79.33s4.52,0,6.77-.1a62.1,62.1,0,0,0,13.31-2.12A41.85,41.85,0,0,0,109.93,81a29.62,29.62,0,0,0,2.72-2l1.3-1.07c.42-.38.8-.79,1.21-1.18A24.77,24.77,0,0,0,119.36,71.42Z"/><path class="cls-3" d="M114.94,80.17c-1,3.32-3.45,6-6,8.21a37.09,37.09,0,0,1-8.76,5.44c-.39.18-.78.37-1.17.54l-1.2.47-2.4.94c-1.64.51-3.27,1.07-4.93,1.5s-3.33.82-5,1.15-3.38.57-5.07.8c1.65-.45,3.31-.85,5-1.27s3.27-1,4.9-1.41L95,94.89l2.36-1,1.18-.48c.38-.17.76-.36,1.14-.54L102,91.83l2.21-1.23a42.22,42.22,0,0,0,4.21-2.81,26.09,26.09,0,0,0,3.72-3.41A14.6,14.6,0,0,0,114.94,80.17Z"/><path class="cls-3" d="M112.72,88.92a17,17,0,0,1-4.16,6.83,27.78,27.78,0,0,1-6.38,4.93,38.37,38.37,0,0,1-7.37,3.24c-1.28.38-2.58.72-3.87,1.06s-2.62.5-3.94.7c1.27-.42,2.55-.78,3.82-1.17s2.5-.85,3.74-1.31a52.14,52.14,0,0,0,7.12-3.38A33.48,33.48,0,0,0,108,95.21a23.6,23.6,0,0,0,2.64-2.92A15.45,15.45,0,0,0,112.72,88.92Z"/><path class="cls-3" d="M119.36,110.05a12.54,12.54,0,0,1-1.75,2.57,18.28,18.28,0,0,1-2.23,2.17,15.42,15.42,0,0,1-5.43,3c.81-.66,1.64-1.23,2.43-1.86s1.6-1.23,2.37-1.88C116.31,112.76,117.8,111.42,119.36,110.05Z"/><path class="cls-3" d="M62.88,107.89a48.6,48.6,0,0,0,3.8,3.23c.65.5,1.32,1,2,1.42s1.41.87,2.13,1.36a9.76,9.76,0,0,1-4.73-2,10.63,10.63,0,0,1-1.87-1.8A7.58,7.58,0,0,1,62.88,107.89Z"/><path class="cls-3" d="M57.55,51.26c.15,1.62.4,3.2.67,4.77s.63,3.12,1.06,4.65a39.88,39.88,0,0,0,1.53,4.51,45,45,0,0,0,2.07,4.33,18.25,18.25,0,0,1-2.77-4A22.82,22.82,0,0,1,58.33,61,24.25,24.25,0,0,1,57.55,51.26Z"/><path class="cls-3" d="M61.67,54a21.92,21.92,0,0,0,.44,2.88,15.83,15.83,0,0,0,.82,2.69,22.37,22.37,0,0,0,1.28,2.54c.48.84,1,1.67,1.51,2.51a9.19,9.19,0,0,1-2.15-2.07A11.36,11.36,0,0,1,62,59.92a9.85,9.85,0,0,1-.67-3A7.89,7.89,0,0,1,61.67,54Z"/><path class="cls-3" d="M69.69,73.53c.78.89,1.55,1.75,2.34,2.59s1.59,1.64,2.46,2.37a22.12,22.12,0,0,0,2.72,2,16.19,16.19,0,0,0,3.15,1.36,8,8,0,0,1-3.5-.67,13,13,0,0,1-3-1.94,15.72,15.72,0,0,1-2.4-2.63A13.39,13.39,0,0,1,69.69,73.53Z"/><path class="cls-3" d="M66.84,77.07c.72,1,1.28,2,1.91,2.94.3.48.63.92,1,1.39s.7.88,1.1,1.37a5,5,0,0,1-2.9-2.22,7.61,7.61,0,0,1-.78-1.66A5.3,5.3,0,0,1,66.84,77.07Z"/><path class="cls-3" d="M124.94,51.26c-1.65,2.9-3.42,5.68-5.09,8.52q-1.27,2.1-2.43,4.28a26,26,0,0,0-2,4.51,14.79,14.79,0,0,1,1.3-4.84A36,36,0,0,1,119,59.27,47.49,47.49,0,0,1,124.94,51.26Z"/><path class="cls-3" d="M127.39,49.59a54.12,54.12,0,0,1-2.23,5.94c-.85,1.93-1.7,3.84-2.75,5.71a24.29,24.29,0,0,1,1.84-6.1A27.14,27.14,0,0,1,127.39,49.59Z"/><path class="cls-3" d="M111.54,67.35a12.05,12.05,0,0,1-3.5,5,18.15,18.15,0,0,1-5.29,3.18,24,24,0,0,1-6,1.45c-1,.11-2,.14-3.06.18s-2-.08-3-.17c1-.13,2-.21,3-.31l3-.46c1-.26,2-.36,2.9-.68l1.44-.41,1.38-.53a21.2,21.2,0,0,0,5.17-2.85A15.32,15.32,0,0,0,111.54,67.35Z"/></svg>