<svg id="图层_1" data-name="图层 1" xmlns="http://www.w3.org/2000/svg" viewBox="0 0 186 186"><defs><style>.cls-1{fill:#f5e3ea;}.cls-2{fill:#e4cbd4;}.cls-3{fill:#5b3b2f;}.cls-4{fill:#e8d0da;}.cls-5{fill:#fff;}</style></defs><path class="cls-1" d="M82.33,26.89h18c.59,0,1.57,3,1.6,3.49.38,7.67,4,10.89,11.2,15.47a20.8,20.8,0,0,0,7.8,3.06c2.8.43,5.52-.85,8.37-.25,7.18,1.49,14,8.81,13.09,15.83l-1.63,9.09c-4.92,28.52-18.63,49.5-18.8,77.64a.52.52,0,0,1-.52.52L62,151.1a.51.51,0,0,1-.51-.57c.81-7.92-1.58-19.8-3-26.15-1.65-7.2-3.58-11.47-6-18.43-2.28-6.52-1.9-7.29-5.67-19.93-1-3.45-1.43-3.93-1.92-7.49s-.85-10.38-1-13.86c-.16-4.11.34-8.35,2.59-11.94,2-3.1,5.28-4.36,8.85-4.18s6.35,1.07,9.86-.27c2.82-1.07,4.6-2.59,7.15-4.05,4.29-2.44,9-5.72,9.9-9.89.16-.74-.29-7.45.65-7.45h17.39"/><path class="cls-2" d="M102.61,58.55a9.25,9.25,0,0,1,6.26-3.62,17.49,17.49,0,0,1,7.4.52c2.42.74,4.56,2,6.83,2.68a6.19,6.19,0,0,0,3.31.2,4.5,4.5,0,0,0,2.48-1.88h0a.73.73,0,0,1,1-.18.75.75,0,0,1,.18,1l0,0a5.88,5.88,0,0,1-3.39,2.28,7.29,7.29,0,0,1-3.93-.4c-2.41-.85-4.48-2.23-6.72-3a16.75,16.75,0,0,0-7.13-.86A9.07,9.07,0,0,0,102.61,58.55Z"/><path class="cls-2" d="M80.41,59.08a15.14,15.14,0,0,0-14-2.89c-2.32.74-4.45,2.13-6.86,3a10.48,10.48,0,0,1-3.89.81,6,6,0,0,1-3.89-1.47v0a.72.72,0,0,1-.06-1,.73.73,0,0,1,1-.06l0,0a4.55,4.55,0,0,0,2.95,1.28,9.66,9.66,0,0,0,3.47-.56c2.33-.74,4.52-2,7-2.72A15.54,15.54,0,0,1,80.41,59.08Z"/><path class="cls-2" d="M92.72,58.55a2.79,2.79,0,0,1-.4,1.63A2.64,2.64,0,0,1,91,61.35a2.73,2.73,0,0,1-1.78.06,4.18,4.18,0,0,1-.78-.34,4.81,4.81,0,0,1-.64-.54,6.37,6.37,0,0,1,.8.08c.26,0,.51,0,.74,0a3.38,3.38,0,0,0,1.3-.21A5.29,5.29,0,0,0,92.72,58.55Z"/><path class="cls-2" d="M86.29,41.23l.55,5c.1.91.22,1.82.38,2.72a15.86,15.86,0,0,0,.55,2.21,8.86,8.86,0,0,1-1-2.58,14,14,0,0,1-.33-1.69,25,25,0,0,1-.23-3.11A19.62,19.62,0,0,1,86.29,41.23Z"/><path class="cls-2" d="M96.18,39.26a47.67,47.67,0,0,1-1.07,5.55c-.25.91-.49,1.82-.8,2.72a13.26,13.26,0,0,1-1.1,2.61c.3-.9.51-1.81.74-2.72l.68-2.73C95.1,42.87,95.58,41.05,96.18,39.26Z"/><path class="cls-3" d="M83,26.79c3.4-.38,6.81-.59,10.21-.69C95,26,96.65,26,98.35,26c.85,0,1.7,0,2.55,0h.33a1.05,1.05,0,0,1,.25.08,1.08,1.08,0,0,1,.29.21,1.42,1.42,0,0,1,.35.56,4.3,4.3,0,0,1,.21.75,12.85,12.85,0,0,1,.16,1.34c.07.86.07,1.77.09,2.58a13.25,13.25,0,0,0,.31,2.43A11.35,11.35,0,0,0,105,38.45c2,2.68,5,4.48,7.91,6.14a32.7,32.7,0,0,0,4.48,2.22A17.77,17.77,0,0,0,122.06,48a23.45,23.45,0,0,0,4.87-.47,10.41,10.41,0,0,1,2.79,0,12.25,12.25,0,0,1,2.69.74,16.65,16.65,0,0,1,7.9,7.09,14.5,14.5,0,0,1,1.93,10.12l-.2,0a15.5,15.5,0,0,0-3-9.25,16.45,16.45,0,0,0-7.35-6,8.89,8.89,0,0,0-4.51-.65,24.21,24.21,0,0,1-5.28.27,21.26,21.26,0,0,1-9.53-4.32,35.94,35.94,0,0,1-7.8-6.71A15.59,15.59,0,0,1,102,34.26a13.27,13.27,0,0,1-.61-2.58c-.11-.88-.21-1.67-.37-2.49-.08-.41-.17-.81-.27-1.17a3.15,3.15,0,0,0-.16-.47c0-.05-.07-.09,0,0a.47.47,0,0,0,.16.11.56.56,0,0,0,.17.06h-.06c-.85,0-1.7,0-2.55,0-1.7,0-3.4,0-5.09-.1-3.4-.1-6.8-.3-10.2-.68Z"/><path class="cls-3" d="M100.91,27c-3.44.34-6.88.55-10.33.66-1.72.06-3.44.09-5.16.11H83.54a.39.39,0,0,0,.15,0c.33-.11.27-.18.27-.15a1.55,1.55,0,0,0-.08.15A15.53,15.53,0,0,0,83.2,30l-.57,2.48c-.19.86-.31,1.65-.56,2.57a11.18,11.18,0,0,1-2.78,4.56,29,29,0,0,1-4,3.36c-1.43,1-2.76,2-4.14,3.12a22,22,0,0,1-4.5,2.81A12.21,12.21,0,0,1,61.22,50c-1.83,0-3.53-.3-5.18-.38a10.54,10.54,0,0,0-4.59.67c-2.87,1.16-4.82,4-5.87,7.15a23.72,23.72,0,0,0-1.15,4.91,36.17,36.17,0,0,0-.38,5.11h-.2A26.47,26.47,0,0,1,44.2,57a15.19,15.19,0,0,1,2.17-5,10.24,10.24,0,0,1,4.28-3.63,11.7,11.7,0,0,1,5.51-.93c1.79.09,3.5.41,5.12.49a10.58,10.58,0,0,0,4.66-.73,38.16,38.16,0,0,0,4.52-2.18c3-1.7,6.1-3.34,8.35-5.87A9.17,9.17,0,0,0,81,34.81c.21-1.6.32-3.41.62-5.12A11.79,11.79,0,0,1,82.29,27a2.59,2.59,0,0,1,.23-.42,1.3,1.3,0,0,1,.76-.56l.22,0h.63l1.29,0c1.72,0,3.44.05,5.16.11,3.45.11,6.89.31,10.33.66Z"/><path class="cls-3" d="M43.85,71.22A139,139,0,0,0,49,91.31c2.16,6.58,4.63,13,6.85,19.66a122.84,122.84,0,0,1,5.23,20.27,89.06,89.06,0,0,1,1,10.43c.06,1.74,0,3.49,0,5.23a29.12,29.12,0,0,1-.65,5.19,49.81,49.81,0,0,0-.18-10.36c-.35-3.44-.88-6.86-1.52-10.25A160.6,160.6,0,0,0,54,111.59l-3.38-9.84c-1.1-3.3-2.18-6.62-3.13-10A92.32,92.32,0,0,1,43.85,71.22Z"/><path class="cls-3" d="M141.4,67.46c0,1.82-.08,3.64-.18,5.47v0c-.2,1.81-.42,3.62-.68,5.43s-.68,3.59-1.08,5.38-.89,3.54-1.42,5.28l-1.79,5.18c-.64,1.7-1.27,3.41-1.84,5.14-1.19,3.43-2.2,6.92-3.18,10.42-.48,1.76-.92,3.52-1.44,5.26s-1,3.49-1.47,5.23l-1.4,5.24-1.32,5.25a136.28,136.28,0,0,0-3.76,21.32h-.19a71.86,71.86,0,0,1,1.9-21.81c.45-1.77.88-3.55,1.38-5.3l1.61-5.23c1.12-3.47,2.36-6.9,3.67-10.29s2.55-6.81,3.59-10.29,1.81-7,2.66-10.55c.41-1.77.83-3.52,1.31-5.26s.82-3.52,1.27-5.27.73-3.53,1.14-5.29.64-3.56,1-5.35Z"/><path class="cls-4" d="M92.9,98l-1,4.65a10.87,10.87,0,0,1-.53-1.15,10,10,0,0,1-.28-1.28A10.39,10.39,0,0,1,91,97.51a43.77,43.77,0,0,0,.22-10.67c-.19-1.4-.57-2.76-.82-4.14a9.77,9.77,0,0,1-.31-3.1A2.31,2.31,0,0,1,92,77.81c.6-.18,1.72-.6,2,.6a11.38,11.38,0,0,1-.14,3.24c-.24,2.19-.66,4.3-.92,6.47a43,43,0,0,0-.33,5.21A26.61,26.61,0,0,0,92.72,96,7.07,7.07,0,0,1,92.9,98Z"/><path class="cls-5" d="M57.36,157.7A.92.92,0,0,0,58.2,159H92.47l33.67-.07a.52.52,0,0,0,.43-.81c-2.24-3.28-10.5-15.75-12-23.22-1.38-7.12-.38-13.38,3.79-19.42,3-4.32,6.62-8.39,8-13.44,1.53-5.44.28-11.21-.61-16.79-1.23-7.68-1.79-15.52-3.91-23-1.66-5.9-5.65-16.6-11.38-19.72a26.51,26.51,0,0,1-4-2.84c-.81-.65-1.33-1.67-2.42-2l-.22.21A10.09,10.09,0,0,0,105.5,41c3.44,5.81,1.94,13.63.78,19.88-1.37,7.36-2.51,15.2-6,21.92-1.43,2.76-3.38,5.19-5.06,7.78a25.64,25.64,0,0,0-2.19,4c-.24.57-.42,1.16-.61,1.75a.53.53,0,0,1-1,0A15.78,15.78,0,0,0,88,88.76C78.08,77,72.83,54.44,79,40.07c.15-.36.33-.71.5-1.06,0-.21,0-.43,0-.64-.13-.43-3.18,1.44-3.38,1.57a19.56,19.56,0,0,0-5.46,6C63.71,58,59.86,72.39,58,86.17c-.54,4.07-1.22,8.41-.76,12.49.81,7.08,5,11.62,7.92,17.81s2.94,13.24,1,19.79S59.12,153.93,57.36,157.7Z"/><path class="cls-3" d="M92.47,160H56.73a1,1,0,0,1-.83-.46,1,1,0,0,1-.06-.95c.07-.15,7-14.64,9.39-22.62a26.87,26.87,0,0,0-.94-19.09c-.9-1.92-2-3.71-3-5.45-2.3-3.92-4.47-7.62-5-12.66a47.67,47.67,0,0,1,.62-11.67L57.05,86c2.11-15.85,6.4-29.52,12.75-40.63a20.52,20.52,0,0,1,5.75-6.26s3.09-2.14,4.21-1.77a1.15,1.15,0,0,1,.68.7.88.88,0,0,1,0,.32l0,.64a.86.86,0,0,1-.09.39l-.19.39-.3.64c-6.19,14.48-.32,36.75,8.82,47.67A15.43,15.43,0,0,1,92,94.56a3.05,3.05,0,0,1,.13-.32,26.18,26.18,0,0,1,2.27-4.19c.58-.88,1.18-1.75,1.79-2.62a44.72,44.72,0,0,0,3.22-5.07c3-5.84,4.24-12.61,5.42-19.15.15-.84.3-1.68.46-2.5l0-.19c1.13-6,2.53-13.57-.69-19l-.4-.64a8.5,8.5,0,0,1-1.3-2.78,1,1,0,0,1,.28-.9l.23-.22a1,1,0,0,1,1-.24,4.61,4.61,0,0,1,2.1,1.51,6.84,6.84,0,0,0,.66.66A26.42,26.42,0,0,0,111,41.64c6.72,3.65,10.78,16.47,11.86,20.31a116.45,116.45,0,0,1,3,16.26c.31,2.26.62,4.61,1,6.9l.3,1.81c.84,5.08,1.71,10.34.29,15.39-1.16,4.1-3.69,7.56-6.14,10.9-.7.94-1.39,1.89-2.05,2.85-3.86,5.59-5,11.52-3.63,18.66,1.62,8.36,12.25,23.5,12.36,23.65a1,1,0,0,1-.81,1.55Zm-33.83-2.71a.52.52,0,0,0,.47.74H92.47l31.81-.07a.52.52,0,0,0,.44-.81c-3.11-4.68-9.75-15.25-11.07-22.05-1.5-7.69-.25-14.1,3.94-20.17.67-1,1.37-1.93,2.08-2.89,2.35-3.2,4.77-6.51,5.83-10.26,1.31-4.63.47-9.67-.34-14.53q-.15-.93-.3-1.83c-.36-2.32-.68-4.67-1-7a113.65,113.65,0,0,0-2.9-16c-2.12-7.53-6.1-16.51-10.9-19.12a21.68,21.68,0,0,1-1.86-1.17.51.51,0,0,0-.77.62c2.14,5.68.87,12.47-.17,18.07l0,.18c-.16.82-.31,1.65-.46,2.49-1.21,6.69-2.46,13.6-5.61,19.71a47.41,47.41,0,0,1-3.35,5.29c-.6.85-1.19,1.7-1.75,2.57A23.55,23.55,0,0,0,94,95c-.2.47-.35,1-.51,1.44a14.6,14.6,0,0,1-.76,2,1,1,0,0,1-1,.55,1,1,0,0,1-.84-.78C90,94,89.39,92,87.19,89.39c-9.64-11.51-15.61-34-9.26-49.38-.53.3-1,.6-1.24.74a18.67,18.67,0,0,0-5.18,5.64C65.29,57.27,61.08,70.7,59,86.3l-.14,1.07a45.94,45.94,0,0,0-.62,11.17c.53,4.63,2.59,8.16,4.78,11.9,1,1.77,2.11,3.6,3,5.61a28.85,28.85,0,0,1,1,20.49C65.22,142.88,60.68,152.91,58.64,157.29Z"/></svg>