<svg id="图层_1" data-name="图层 1" xmlns="http://www.w3.org/2000/svg" viewBox="0 0 186 186"><defs><style>.cls-1{fill:#f5e3ea;}.cls-2{fill:#e4cbd4;}.cls-3{fill:#5b3b2f;}.cls-4{fill:#fff;}</style></defs><path class="cls-1" d="M82.4,26.88h17.91c.59,0,1.57,3,1.59,3.48.39,7.62,3.93,10.81,11.14,15.37a20.66,20.66,0,0,0,7.74,3c2.79.42,5.48-.84,8.32-.25,7.14,1.48,13.91,8.75,13,15.73l-1.62,9c-4.92,28.51-18.68,49.44-18.68,77.67l-60.22-.64c1-7.87-1.47-20.09-3-26.55-1.64-7.16-3.56-11.4-6-18.31C50.39,99,50.77,98.2,47,85.64c-1-3.42-1.42-3.9-1.9-7.44s-.85-10.31-1-13.77c-.16-4.09.34-8.3,2.58-11.87,1.93-3.08,5.25-4.33,8.79-4.15s6.31,1.06,9.8-.27c2.8-1.07,4.57-2.57,7.1-4,4.27-2.43,8.92-5.69,9.84-9.83.16-.74-.29-7.41.65-7.41h17.27"/><path class="cls-2" d="M102.55,58.35a9.18,9.18,0,0,1,6.22-3.6,17.31,17.31,0,0,1,7.36.51c2.4.74,4.52,2,6.78,2.67a6.22,6.22,0,0,0,3.29.2,4.53,4.53,0,0,0,2.46-1.87h0a.72.72,0,0,1,1-.18.73.73,0,0,1,.18,1v0a5.9,5.9,0,0,1-3.37,2.27,7.33,7.33,0,0,1-3.91-.41c-2.39-.84-4.45-2.21-6.68-3a16.66,16.66,0,0,0-7.08-.85A9,9,0,0,0,102.55,58.35Z"/><path class="cls-2" d="M80.5,58.87A15.09,15.09,0,0,0,66.6,56c-2.3.73-4.42,2.12-6.82,3a10.52,10.52,0,0,1-3.86.8,6,6,0,0,1-3.87-1.46v0a.73.73,0,0,1-.06-1,.74.74,0,0,1,1-.06l0,0A4.49,4.49,0,0,0,56,58.54,9.26,9.26,0,0,0,59.41,58c2.32-.73,4.49-2,7-2.69A15.44,15.44,0,0,1,80.5,58.87Z"/><path class="cls-2" d="M92.72,58.35a2.71,2.71,0,0,1-3.5,2.84,3.91,3.91,0,0,1-.78-.34,4.81,4.81,0,0,1-.64-.54c.29,0,.55,0,.8.08s.5,0,.74,0a3.36,3.36,0,0,0,1.29-.21A5.26,5.26,0,0,0,92.72,58.35Z"/><path class="cls-2" d="M96.16,39.17a43,43,0,0,1-1.07,5.52c-.24.91-.48,1.81-.78,2.7a14.19,14.19,0,0,1-1.1,2.6c.29-.89.5-1.8.73-2.7l.68-2.72C95.09,42.76,95.56,41,96.16,39.17Z"/><path class="cls-3" d="M83.1,26.81c3.38-.28,6.76-.42,10.14-.51,1.69-.05,3.38-.06,5.07-.08.85,0,1.69,0,2.54,0h.3a.84.84,0,0,1,.19.07.71.71,0,0,1,.23.16,1.43,1.43,0,0,1,.31.48,5,5,0,0,1,.2.72,12.05,12.05,0,0,1,.17,1.31c.08.85.09,1.74.12,2.56a12.6,12.6,0,0,0,.35,2.43,11.56,11.56,0,0,0,2.15,4.43c2,2.67,4.95,4.49,7.84,6.17a33.29,33.29,0,0,0,4.44,2.28,18.35,18.35,0,0,0,4.7,1.24,23,23,0,0,0,4.89-.44,10.24,10.24,0,0,1,2.71,0,12.5,12.5,0,0,1,2.62.72,16.6,16.6,0,0,1,7.77,6.91,14.45,14.45,0,0,1,2.06,9.95l-.14,0a15.46,15.46,0,0,0-2.89-9.31,16.37,16.37,0,0,0-7.38-6.07,11,11,0,0,0-2.26-.62,10.14,10.14,0,0,0-2.34,0,25,25,0,0,1-5.2.29,21.55,21.55,0,0,1-9.42-4.19,33.55,33.55,0,0,1-7.76-6.6A15.06,15.06,0,0,1,102,34.18a13.83,13.83,0,0,1-.57-2.55c-.09-.87-.18-1.66-.33-2.49-.07-.4-.16-.8-.26-1.18a2.68,2.68,0,0,0-.16-.5c0-.06-.07-.11,0-.05l.1.07.12,0c.06,0,.1,0,.06,0h-.16c-.84,0-1.68,0-2.53,0-1.69,0-3.37,0-5.06-.08-3.38-.09-6.76-.23-10.13-.51Z"/><path class="cls-3" d="M100.86,27c-3.42.27-6.84.39-10.26.49-1.71.05-3.42.07-5.13.09H83.6l.1,0c.22-.08.16-.1.14-.06l-.1.18A15,15,0,0,0,83.06,30c-.39,1.66-.67,3.29-1.06,5a10.92,10.92,0,0,1-2.68,4.52,27.13,27.13,0,0,1-4,3.31c-1.42,1-2.77,2-4.15,3a24.06,24.06,0,0,1-4.48,2.71,11.9,11.9,0,0,1-5.29,1c-1.79,0-3.48-.31-5.14-.4a10.52,10.52,0,0,0-4.67.71,9.05,9.05,0,0,0-3.69,2.9,14.65,14.65,0,0,0-2.22,4.37,24.68,24.68,0,0,0-1.09,4.92,36,36,0,0,0-.29,5.09h-.14a26.83,26.83,0,0,1,.49-10.32A15.21,15.21,0,0,1,46.86,52,9.93,9.93,0,0,1,51,48.52a11.48,11.48,0,0,1,5.37-.89c1.76.09,3.46.39,5.09.47,3.28.29,6.27-1.33,9.22-3s6-3.4,8.27-5.91a9.33,9.33,0,0,0,2.2-4.39c.24-1.61.37-3.38.68-5.08a11.71,11.71,0,0,1,.71-2.61,2.93,2.93,0,0,1,.21-.38,1.05,1.05,0,0,1,.63-.47l.18,0h1.9c1.71,0,3.42,0,5.13.09,3.42.1,6.84.22,10.26.49Z"/><path class="cls-3" d="M44.16,70.94c.55,3.41,1.22,6.79,2.09,10.12S48,87.7,49.11,91c2.13,6.55,4.56,13,6.77,19.55a123.72,123.72,0,0,1,5.24,20.1,96.9,96.9,0,0,1,1.05,10.33c.07,1.74.07,3.47,0,5.2a30.66,30.66,0,0,1-.59,5.15,49.25,49.25,0,0,0-.07-10.3c-.33-3.42-.79-6.83-1.43-10.21A156.92,156.92,0,0,0,54.49,111C52.28,104.46,49.9,98,48,91.3c-.94-3.33-1.79-6.69-2.47-10.08A85.09,85.09,0,0,1,44.16,70.94Z"/><path class="cls-3" d="M141.07,67.2A74.85,74.85,0,0,1,137.68,88L136,93c-.6,1.65-1.2,3.3-1.76,5-1.14,3.31-2.18,6.66-3.18,10l-3,10.08-1.4,5-1.3,5.06A116.53,116.53,0,0,0,122,148.8h-.15a72.43,72.43,0,0,1,2-21c.45-1.71.87-3.42,1.35-5.11l1.55-5q.83-2.5,1.7-5c.58-1.65,1.22-3.29,1.83-4.94,1.24-3.28,2.43-6.57,3.49-9.91.51-1.68,1-3.37,1.43-5.06l1.29-5.09a194.11,194.11,0,0,0,4.42-20.47Z"/><path class="cls-4" d="M141.52,67.56h0s0,0,0,0Z"/><path class="cls-3" d="M141.52,67.56Zm0,0h0s0,0,0,0v0Z"/><path class="cls-4" d="M141.72,65.5c.17-5.38-1-10.64-5.73-14.11-4.19-3-9.88-4.29-14.69-2.79a.82.82,0,0,1-.69-.07c-4.23-2.27-8.61-3.42-12.44-6.36-2.9-2.23-6-5.4-6-9.24a4.91,4.91,0,0,0-.36-2.26s-5,1.1-5.64,1.15a20.06,20.06,0,0,1-6.87-.34,48.38,48.38,0,0,0-6.58-1.66c-.74,1.84-.54,3.8-1.18,5.61a13.43,13.43,0,0,1-3.27,4.85c-3.43,3.43-7.74,5.65-12,7.83-1.16.59-1.37.17-2.5.82-.44.26-.66.11-1.14,0-13.13-2.4-15.09,2.48-17.06,7.35-2,5.06-1.41,9.49-1,14.64.49,6,1.14,11.9,3,17.63a1.87,1.87,0,0,0,.81,1.06c2,1.14,6.3,1.12,8.94.31.69-.22,1.65-.49,1.46.21-1.22,4.43-2.15,10.35-.48,14.54,1.78,4.47,5.24,7.45,7.24,11.82a29.19,29.19,0,0,1,2.14,17.29c-1.67,9-7.44,16.62-11.22,25l10.72,0h62.87c-6.44-7.12-12.52-15.2-14.08-24.69a30.73,30.73,0,0,1,3.69-20c1.65-2.89,3.75-5.5,5.42-8.38a16.62,16.62,0,0,0,1.9-8.9,34.16,34.16,0,0,0-.54-4.83c-.26-1.43-.9-2-1-3.46a.94.94,0,0,1,.32-.78,1.41,1.41,0,0,1,.64-.19A28.51,28.51,0,0,0,137.94,84c.95-.53,1.32-3.41,1.53-4.34.38-1.75.76-3.49,1.09-5.24A56.25,56.25,0,0,0,141.72,65.5Z"/><path class="cls-4" d="M58.64,90.4c-3.42,6.35,2.24,17.95,2.24,17.95,1.53,2.93,3.27,5.77,4.66,8.77a28.73,28.73,0,0,1,2.14,17.15c-1.62,8.68-7.11,16-10.89,24a.5.5,0,0,0,.45.71l9.94,0H129a.49.49,0,0,0,.36-.82c-6.16-6.86-11.84-14.61-13.34-23.67a30.23,30.23,0,0,1,3.69-19.84c2.33-4.06,5.85-8.3,6.9-12.91,1-4.39.23-9.07-1.11-13.3"/><path class="cls-3" d="M57.24,160a1.47,1.47,0,0,1-1.25-.69,1.44,1.44,0,0,1-.09-1.42c1.18-2.5,2.54-5,3.85-7.34,2.89-5.22,5.87-10.62,7-16.46a27.81,27.81,0,0,0-2.06-16.56c-.86-1.86-1.89-3.7-2.88-5.48-.6-1.08-1.19-2.15-1.76-3.24-.26-.52-5.85-12.16-2.23-18.88a1,1,0,0,1,1.73.94c-3.14,5.82,2.2,16.94,2.25,17,.55,1,1.14,2.11,1.73,3.17,1,1.82,2.05,3.69,2.94,5.62a29.72,29.72,0,0,1,2.21,17.74c-1.14,6.15-4.21,11.69-7.17,17.05-1.17,2.13-2.38,4.33-3.46,6.53h69.84c-5.3-6-11.29-13.94-12.85-23.34a31,31,0,0,1,3.81-20.49c.67-1.17,1.45-2.37,2.2-3.53,1.91-2.94,3.88-6,4.6-9.11.82-3.6.45-7.9-1.09-12.78a1,1,0,0,1,1.87-.59c1.68,5.29,2,9.81,1.13,13.81-.79,3.48-2.86,6.66-4.86,9.74-.77,1.19-1.5,2.31-2.15,3.44a29.05,29.05,0,0,0-3.57,19.19c1.55,9.34,7.82,17.29,13.1,23.17A1.47,1.47,0,0,1,129,160H67.18l-9.94,0Z"/><path class="cls-3" d="M101.77,30.68a32.73,32.73,0,0,1-4.66,1.57l-.6.15a2,2,0,0,1-.35.06l-.31,0-1.23.13a20.78,20.78,0,0,1-2.5,0,13.58,13.58,0,0,1-2.53-.39c-.83-.24-1.58-.5-2.35-.79-1.52-.56-3-1.19-4.56-1.68a17,17,0,0,1,4.89.58,23.32,23.32,0,0,0,4.63.81c.77.05,1.56.05,2.35,0l1.2,0,.3,0,.26,0,.59-.06C98.5,30.92,100.12,30.75,101.77,30.68Z"/><path class="cls-3" d="M83.1,26.79c3.38-.38,6.76-.59,10.14-.69,1.69-.07,3.38-.07,5.08-.1.84,0,1.69,0,2.53,0h.33a1.05,1.05,0,0,1,.25.08,1.21,1.21,0,0,1,.29.21,1.62,1.62,0,0,1,.35.55,3.84,3.84,0,0,1,.2.75,10.69,10.69,0,0,1,.16,1.33c.07.86.08,1.77.09,2.57a13,13,0,0,0,.31,2.41,11.21,11.21,0,0,0,2.1,4.42c2,2.67,4.95,4.46,7.86,6.11a33.89,33.89,0,0,0,4.44,2.2,18.11,18.11,0,0,0,4.65,1.2,23.65,23.65,0,0,0,4.83-.46,10.32,10.32,0,0,1,2.78,0,12.8,12.8,0,0,1,2.67.73A16.52,16.52,0,0,1,140,55.19a14.42,14.42,0,0,1,1.92,10l-.2,0a15.51,15.51,0,0,0-3-9.2,16.38,16.38,0,0,0-7.31-5.93,10.63,10.63,0,0,0-2.2-.61,10.07,10.07,0,0,0-2.27,0,24.56,24.56,0,0,1-5.25.27,21.2,21.2,0,0,1-9.48-4.3,35.91,35.91,0,0,1-7.74-6.67,15.4,15.4,0,0,1-2.52-4.54,14.91,14.91,0,0,1-.61-2.56c-.1-.88-.21-1.66-.36-2.48-.08-.4-.17-.8-.27-1.16a3.61,3.61,0,0,0-.16-.47c0-.05-.07-.09,0,0a.68.68,0,0,0,.16.11,1.07,1.07,0,0,0,.17.06h-.06c-.84,0-1.69,0-2.53,0-1.69,0-3.38,0-5.06-.1-3.38-.1-6.76-.31-10.13-.69Z"/><path class="cls-3" d="M100.86,27c-3.42.35-6.84.55-10.26.66-1.71.06-3.42.1-5.13.11l-1.29,0H83.6l.15,0c.33-.12.27-.18.27-.15l-.08.14A16.69,16.69,0,0,0,83.26,30l-.56,2.47c-.19.84-.31,1.63-.56,2.55a11.2,11.2,0,0,1-2.76,4.53,28.08,28.08,0,0,1-4,3.33c-1.42,1-2.74,2-4.11,3.11a21.69,21.69,0,0,1-4.47,2.79,12.22,12.22,0,0,1-5.39,1.06c-1.82,0-3.5-.3-5.14-.39a10.56,10.56,0,0,0-4.56.68c-2.85,1.15-4.8,4-5.84,7.1a24,24,0,0,0-1.14,4.87,37.27,37.27,0,0,0-.38,5.08h-.2a26.36,26.36,0,0,1,.35-10.38,15.11,15.11,0,0,1,2.16-4.93,10.19,10.19,0,0,1,4.24-3.6,11.51,11.51,0,0,1,5.49-.92c1.78.08,3.47.4,5.08.48a10.42,10.42,0,0,0,4.63-.73A36.94,36.94,0,0,0,70.61,45c3-1.69,6-3.32,8.29-5.83A9,9,0,0,0,81,34.76c.21-1.6.32-3.39.62-5.09A12.35,12.35,0,0,1,82.35,27c.06-.12.13-.25.23-.41a1.34,1.34,0,0,1,.76-.56l.22,0h.62l1.29,0c1.71,0,3.42.05,5.13.11,3.42.11,6.84.31,10.26.66Z"/><path class="cls-3" d="M44.16,70.94a138,138,0,0,0,4.92,19.29c2.07,6.31,4.4,12.53,6.58,18.85A136.68,136.68,0,0,1,61,128.46a74.74,74.74,0,0,1,1,20,73.28,73.28,0,0,0-.74-9.94c-.43-3.29-1-6.56-1.7-9.79a186.85,186.85,0,0,0-5.68-19c-2.14-6.29-4.41-12.59-6.19-19A90.86,90.86,0,0,1,44.16,70.94Z"/><path class="cls-3" d="M141.09,67.2c0,1.76-.07,3.53-.15,5.3s-.4,3.5-.64,5.25-.67,3.47-1,5.2-.89,3.41-1.39,5.1l-1.76,5c-.62,1.65-1.25,3.29-1.81,5-1.17,3.31-2.17,6.67-3.13,10-.48,1.69-.92,3.39-1.43,5.06s-.94,3.37-1.44,5l-1.38,5c-.4,1.7-.85,3.38-1.28,5.06A131.56,131.56,0,0,0,122,148.8h-.2a68.19,68.19,0,0,1,1.78-21.05c.44-1.71.87-3.43,1.35-5.12l1.58-5c1.1-3.34,2.32-6.64,3.62-9.9s2.51-6.55,3.54-9.9,1.77-6.78,2.6-10.17q.58-2.55,1.27-5.07c.4-1.7.8-3.39,1.23-5.08s.71-3.41,1.11-5.11.61-3.44,1-5.16Z"/><path class="cls-3" d="M58.79,89.45a5.26,5.26,0,0,1-2.34,1.6,8.07,8.07,0,0,1-2.84.43A9.63,9.63,0,0,1,50.84,91a7.36,7.36,0,0,1-2.46-1.33c1.88.1,3.58.32,5.28.38.85,0,1.68,0,2.53-.07A21,21,0,0,0,58.79,89.45Z"/><path class="cls-3" d="M138.86,83.38a9.19,9.19,0,0,1-3,2.17,29.39,29.39,0,0,1-3.39,1.51A36,36,0,0,1,125.26,89a.74.74,0,1,1-.22-1.46h.08a34.39,34.39,0,0,0,7.14-1.15,29.9,29.9,0,0,0,3.47-1.13A9.24,9.24,0,0,0,138.86,83.38Z"/><path class="cls-3" d="M87.3,42.25A6.42,6.42,0,0,0,91,43.35a15.61,15.61,0,0,0,3.9-.49,35.06,35.06,0,0,0,3.81-1.21l3.8-1.48c-.54.42-1.12.78-1.69,1.18s-1.19.68-1.8,1a20.26,20.26,0,0,1-1.9.84c-.65.23-1.31.44-2,.62a11.79,11.79,0,0,1-4.19.3A5.32,5.32,0,0,1,87.3,42.25Z"/><path class="cls-3" d="M67.64,54.05a29.33,29.33,0,0,0,3.13,2.66c1.1.81,2.23,1.59,3.4,2.29a75,75,0,0,0,7.24,3.9c-.66-.22-1.3-.46-2-.7s-1.28-.52-1.9-.82a38.78,38.78,0,0,1-3.65-2A33.38,33.38,0,0,1,70.54,57,17.59,17.59,0,0,1,67.64,54.05Z"/><path class="cls-3" d="M98.12,65.85a14.43,14.43,0,0,0,5.6-1.52,33.33,33.33,0,0,0,5-2.9c.83-.52,1.59-1.13,2.39-1.69l2.29-1.83c1.51-1.24,3-2.56,4.42-3.86l-2,2.13c-.7.69-1.43,1.35-2.14,2s-1.51,1.26-2.27,1.89-1.55,1.21-2.38,1.75a29.62,29.62,0,0,1-5.19,2.83A12.54,12.54,0,0,1,98.12,65.85Z"/></svg>