<svg id="图层_1" data-name="图层 1" xmlns="http://www.w3.org/2000/svg" viewBox="0 0 186 186"><defs><style>.cls-1{fill:#f5e3ea;}.cls-2{fill:#e4cbd4;}.cls-3{fill:#5b3b2f;}.cls-4{fill:#fff;}</style></defs><path class="cls-1" d="M83.32,26.89h18c.58,0,1.56,3,1.59,3.48.38,7.65,3.94,10.85,11.17,15.42a20.47,20.47,0,0,0,7.78,3.05c2.79.43,5.5-.84,8.34-.25,7.16,1.49,14,8.79,13.06,15.79l-1.63,9.06c-4.94,28.61-18.75,49.61-18.75,77.94l-60.42-.65c1-7.89-1.47-20.15-3-26.64-1.65-7.18-3.57-11.44-6-18.37-2.28-6.51-1.89-7.28-5.66-19.88-1-3.43-1.42-3.91-1.91-7.47s-.85-10.34-1-13.81c-.17-4.1.33-8.32,2.58-11.91,1.94-3.09,5.26-4.35,8.82-4.17s6.33,1.07,9.83-.26c2.82-1.07,4.59-2.59,7.13-4,4.28-2.43,8.95-5.7,9.87-9.86.16-.74-.29-7.43.65-7.43h17.34"/><path class="cls-2" d="M103.54,58.46a9.22,9.22,0,0,1,6.24-3.61,17.38,17.38,0,0,1,7.38.51c2.41.74,4.55,2,6.81,2.67a6.16,6.16,0,0,0,3.3.21,4.53,4.53,0,0,0,2.47-1.88h0a.74.74,0,0,1,1.21.85l0,0a5.92,5.92,0,0,1-3.38,2.27,7.36,7.36,0,0,1-3.92-.41c-2.4-.84-4.46-2.22-6.7-3a16.8,16.8,0,0,0-7.11-.85A9,9,0,0,0,103.54,58.46Z"/><path class="cls-2" d="M81.41,59A15.14,15.14,0,0,0,67.47,56.1c-2.31.74-4.44,2.13-6.84,3a10.8,10.8,0,0,1-3.88.81,6,6,0,0,1-3.88-1.47v0a.73.73,0,0,1-.07-1,.74.74,0,0,1,1.05-.07l0,0a4.51,4.51,0,0,0,2.94,1.27,9.4,9.4,0,0,0,3.46-.56c2.32-.73,4.5-2,7-2.7A15.49,15.49,0,0,1,81.41,59Z"/><path class="cls-2" d="M93.68,58.46a2.76,2.76,0,0,1-.4,1.62,2.66,2.66,0,0,1-1.34,1.17,2.79,2.79,0,0,1-1.78.06,4.18,4.18,0,0,1-.78-.34,6.53,6.53,0,0,1-.64-.54,6.37,6.37,0,0,1,.8.08c.26,0,.51,0,.74,0a3.38,3.38,0,0,0,1.3-.21A5.3,5.3,0,0,0,93.68,58.46Z"/><path class="cls-2" d="M87.26,41.19l.56,5c.09.83.21,1.65.34,2.47a15.89,15.89,0,0,0,.58,2.43,8.41,8.41,0,0,1-.95-2.35,16.51,16.51,0,0,1-.46-2.49,23.7,23.7,0,0,1-.17-2.52A21.32,21.32,0,0,1,87.26,41.19Z"/><path class="cls-2" d="M97.13,39.22a45.51,45.51,0,0,1-1.07,5.54c-.24.9-.49,1.81-.79,2.71a14.49,14.49,0,0,1-1.1,2.6c.29-.89.5-1.8.73-2.71l.68-2.73C96.05,42.82,96.53,41,97.13,39.22Z"/><path class="cls-3" d="M84,26.79c3.39-.38,6.79-.59,10.18-.69,1.7-.07,3.4-.07,5.09-.1.85,0,1.7,0,2.55,0h.33a1.23,1.23,0,0,1,.25.08,1.33,1.33,0,0,1,.64.77,4.21,4.21,0,0,1,.2.75,10.69,10.69,0,0,1,.16,1.33c.07.86.08,1.77.09,2.58a13.25,13.25,0,0,0,.31,2.42,11.14,11.14,0,0,0,2.11,4.43c2,2.68,5,4.48,7.88,6.13a33,33,0,0,0,4.46,2.21A18.74,18.74,0,0,0,122.93,48a23.83,23.83,0,0,0,4.85-.47,10.4,10.4,0,0,1,2.79,0,12.57,12.57,0,0,1,2.69.74,16.63,16.63,0,0,1,7.87,7.07,14.45,14.45,0,0,1,1.92,10.1l-.2,0a15.5,15.5,0,0,0-3-9.23,16.42,16.42,0,0,0-7.33-5.95,10.55,10.55,0,0,0-2.21-.61,10.16,10.16,0,0,0-2.28,0,24.75,24.75,0,0,1-5.27.27,21.24,21.24,0,0,1-9.5-4.31,36,36,0,0,1-7.78-6.7,15.33,15.33,0,0,1-2.52-4.55,13.35,13.35,0,0,1-.61-2.57c-.1-.89-.21-1.67-.37-2.49-.08-.4-.17-.8-.27-1.17a2.42,2.42,0,0,0-.16-.46c0-.05-.07-.09,0,0a.76.76,0,0,0,.16.1.56.56,0,0,0,.17.06h-.06c-.85,0-1.7,0-2.55,0-1.69,0-3.38,0-5.08-.11-3.38-.1-6.77-.3-10.16-.68Z"/><path class="cls-3" d="M101.85,27c-3.43.35-6.87.55-10.3.66-1.72.06-3.43.09-5.15.11l-1.29,0h-.58a.32.32,0,0,0,.14,0c.33-.11.28-.18.28-.15a1.55,1.55,0,0,0-.08.15A15.38,15.38,0,0,0,84.19,30l-.57,2.48c-.19.85-.31,1.64-.56,2.56a11.18,11.18,0,0,1-2.77,4.55,28.8,28.8,0,0,1-4,3.34c-1.42,1-2.75,2-4.12,3.12a22.11,22.11,0,0,1-4.5,2.8,12.24,12.24,0,0,1-5.4,1.06c-1.82,0-3.51-.3-5.16-.39a10.6,10.6,0,0,0-4.57.68c-2.86,1.15-4.82,4-5.86,7.12a24.35,24.35,0,0,0-1.15,4.89,37.57,37.57,0,0,0-.38,5.1H45a26.7,26.7,0,0,1,.35-10.41,15.14,15.14,0,0,1,2.17-5,10.23,10.23,0,0,1,4.26-3.62,11.55,11.55,0,0,1,5.5-.92c1.79.09,3.49.4,5.1.49A10.53,10.53,0,0,0,67,47.2,40.39,40.39,0,0,0,71.49,45c3-1.7,6.08-3.34,8.32-5.86a9.09,9.09,0,0,0,2.13-4.38c.21-1.6.32-3.4.62-5.11A12.2,12.2,0,0,1,83.27,27a2.72,2.72,0,0,1,.24-.42,1.27,1.27,0,0,1,.76-.56l.22,0h.62l1.29,0c1.72,0,3.43.05,5.15.11,3.43.11,6.87.31,10.3.66Z"/><path class="cls-3" d="M45,71.09a137.22,137.22,0,0,0,5.16,20c2.15,6.55,4.61,13,6.82,19.6a122.13,122.13,0,0,1,5.22,20.21,93.06,93.06,0,0,1,1,10.4c.06,1.74,0,3.48,0,5.22a29,29,0,0,1-.65,5.17,49.52,49.52,0,0,0-.18-10.33c-.35-3.43-.87-6.84-1.52-10.22a157.91,157.91,0,0,0-5.65-19.83l-3.37-9.81c-1.09-3.29-2.17-6.6-3.11-10A91,91,0,0,1,45,71.09Z"/><path class="cls-3" d="M142.22,67.34c0,1.77-.07,3.54-.16,5.31s-.4,3.52-.65,5.28-.66,3.48-1,5.21-.89,3.43-1.39,5.12l-1.76,5c-.63,1.65-1.26,3.3-1.82,5-1.18,3.31-2.18,6.69-3.14,10.07-.48,1.7-.92,3.4-1.43,5.08s-1,3.38-1.45,5.06L128,123.5c-.41,1.7-.86,3.39-1.29,5.08a131.09,131.09,0,0,0-3.63,20.64h-.2a68.39,68.39,0,0,1,1.78-21.13c.44-1.71.87-3.43,1.36-5.13l1.58-5.07c1.11-3.35,2.33-6.66,3.63-9.93s2.53-6.57,3.56-9.93,1.78-6.81,2.61-10.21q.57-2.56,1.27-5.09c.4-1.7.8-3.4,1.23-5.09s.71-3.42,1.11-5.13.62-3.45,1-5.18Z"/><path class="cls-2" d="M85.11,76.8a29.47,29.47,0,0,1,5.16,3.76A15.73,15.73,0,0,1,92.42,83a8.53,8.53,0,0,1,1.4,3.07.57.57,0,0,1-.45.68.53.53,0,0,1-.47-.11h0a.73.73,0,0,1-.23-.29.81.81,0,0,1,0-.19,1.08,1.08,0,0,1,0-.24,1.76,1.76,0,0,1,.06-.3,2.64,2.64,0,0,1,.15-.45,8.2,8.2,0,0,1,.36-.79c.26-.5.55-1,.85-1.45a14,14,0,0,1,2.15-2.52,14.24,14.24,0,0,1,5.63-3.3.07.07,0,0,1,.07.13,36.94,36.94,0,0,0-4.65,4.22c-.69.76-1.39,1.52-2,2.33A14.72,14.72,0,0,0,94.32,85c-.13.22-.26.43-.36.64s-.1.21-.13.3l0,.09s0,0,0,0,0,0,0-.09a.43.43,0,0,0-.17-.21l-.93.57a7.6,7.6,0,0,0-1-2.74,15.72,15.72,0,0,0-1.87-2.45A28.76,28.76,0,0,0,85,76.93a.08.08,0,0,1,0-.1A.09.09,0,0,1,85.11,76.8Z"/><path class="cls-4" d="M58,159a1,1,0,0,1-.93-1.29l.06-.2a1.56,1.56,0,0,1,.18-.45,100,100,0,0,0,9.79-22.19c2.66-8.68-.45-16.92-3.53-22.3-.46-.79-.93-1.57-1.41-2.35a32.33,32.33,0,0,1-4.08-8.52c-1.32-5.19-.13-10.59,1-15.81.44-2,.85-3.84,1.12-5.68a.41.41,0,0,0,0-.27c-.32-.37-1.77-.41-2.48-.42-.32,0-.61,0-.84,0-1.15-.1-2.32-.14-3.45-.18-1.29,0-2.63-.09-4-.21-.31,0-.62,0-.92,0a3.86,3.86,0,0,0-1.31.19c-.51.17-1.08.6-1.14,1a1,1,0,0,1-.6.79,1,1,0,0,1-1-.14C43.14,79.86,42.6,78,42.19,76.4a22.28,22.28,0,0,1-.41-5.91,4.79,4.79,0,0,1,2.07-3.87,1.5,1.5,0,0,1,.32-.19A6.85,6.85,0,0,1,46.49,66a15.08,15.08,0,0,1,3.4.51c.47.11.94.22,1.41.3A113.6,113.6,0,0,1,81.59,77c1.36.67,2.69,1.43,4,2.17l1.77,1a.36.36,0,0,1,.12.08,24.8,24.8,0,0,1,6,6.3l.15-.2.52-.63a27.35,27.35,0,0,1,5.72-5.53l.82-.47c2.48-1.42,5-2.88,7.7-4.08A114.93,114.93,0,0,1,135,67l.31,0c1.86-.34,3.73-.67,5.59-1a5.45,5.45,0,0,1,.87-.07,2.39,2.39,0,0,1,2,.79,2.9,2.9,0,0,1,.41,2.45c-.21,1.06-.33,2.18-.45,3.26a22,22,0,0,1-1.59,7l-.19.47a2.22,2.22,0,0,1-2.39,1.71L132,81.55l-1.4,0c-.54,0-1.08,0-1.62,0a10.51,10.51,0,0,0-3.52.49,1.36,1.36,0,0,0-.38.19c0,.06,0,.47,0,.8a36.41,36.41,0,0,0,1.23,6.61A29.41,29.41,0,0,1,127.63,99a16,16,0,0,1-2,6.77c-.84,1.43-1.46,2.31-2.06,3.15-1.19,1.66-2.3,3.24-4.93,9.15a30,30,0,0,0-2.72,13.32c.27,4.24,1.81,8.62,4.85,13.8,1.31,2.24,2.77,4.41,4.16,6.44l.72,1.19a29.53,29.53,0,0,0,2.82,4.23,1,1,0,0,1-.28,1.93Z"/><path class="cls-3" d="M141.79,66.9c1.19,0,1.66.67,1.39,2.07-.64,3.35-.49,6.86-2,10-.46,1-.38,1.61-1.69,1.61h0c-2.5,0-5,0-7.49-.06-1,0-2-.07-3-.07a11.12,11.12,0,0,0-3.86.56c-1.09.4-1,.8-1,2,.33,5.42,2.91,10.32,2.49,15.91a14.63,14.63,0,0,1-1.91,6.35c-2.53,4.31-3.1,3.52-7,12.4a30.93,30.93,0,0,0-2.81,13.79c.33,5.1,2.43,9.87,5,14.23,1.3,2.23,2.74,4.37,4.19,6.5.57.83,3.28,5.81,4.08,5.81H58c.09-.25.1-.36.15-.45a100.52,100.52,0,0,0,9.89-22.41c2.43-7.93.42-16-3.62-23.08-2-3.46-4.4-6.76-5.38-10.62-1.74-6.86,1.13-14.31,2.15-21.11.31-2.08-2.89-1.74-4.24-1.85-2.47-.2-4.93-.15-7.39-.38-.34,0-.68,0-1,0a5,5,0,0,0-1.63.24,2.57,2.57,0,0,0-1.8,1.86c-1.16-.92-1.64-2.64-2-4a21.73,21.73,0,0,1-.38-5.7,3.8,3.8,0,0,1,1.71-3.09l0,0a5.79,5.79,0,0,1,2-.33,27.11,27.11,0,0,1,4.64.79,111.74,111.74,0,0,1,30,10C83.1,78.82,85,80,86.85,81a23.34,23.34,0,0,1,6.07,6.61c.13.21.26.31.41.31a.53.53,0,0,0,.38-.22c.39-.44.74-.92,1.12-1.37A26.32,26.32,0,0,1,100.34,81c2.75-1.57,5.49-3.17,8.39-4.48A113.82,113.82,0,0,1,135.2,68c2-.35,3.92-.7,5.88-1a3.78,3.78,0,0,1,.71-.07m0-2a6.22,6.22,0,0,0-1,.09c-1.92.31-3.85.66-5.72,1l-.2,0a115.78,115.78,0,0,0-26.93,8.67c-2.71,1.22-5.29,2.7-7.78,4.12l-.78.44-.1.06a27.27,27.27,0,0,0-5.78,5.54,26.87,26.87,0,0,0-5.43-5.44,1,1,0,0,0-.24-.15l-1.76-1c-1.3-.74-2.64-1.51-4-2.19A114.37,114.37,0,0,0,51.48,65.88c-.44-.08-.89-.18-1.37-.29a16,16,0,0,0-3.62-.53,7.76,7.76,0,0,0-2.65.44,1.93,1.93,0,0,0-.59.34,5.77,5.77,0,0,0-2.45,4.59,23.79,23.79,0,0,0,.43,6.21c.33,1.29.92,3.69,2.68,5.08a2,2,0,0,0,3.17-1.22,1.14,1.14,0,0,1,.49-.32,3,3,0,0,1,1-.13c.23,0,.5,0,.83,0,1.35.13,2.7.18,4,.22s2.29.08,3.41.17l.9,0a12.82,12.82,0,0,1,1.46.08c-.27,1.65-.63,3.32-1,5.09C57,91,55.76,96.53,57.14,102a32.47,32.47,0,0,0,4.19,8.78c.46.77,1,1.57,1.39,2.34,3,5.22,6,13.18,3.45,21.52a98.52,98.52,0,0,1-9.7,22,3.19,3.19,0,0,0-.28.69l0,.16A2,2,0,0,0,58,160h70.13a2,2,0,0,0,.83-3.76,36.88,36.88,0,0,1-2.52-3.9c-.38-.63-.6-1-.76-1.23-1.38-2-2.83-4.18-4.12-6.39-2.95-5-4.45-9.28-4.72-13.36a28.94,28.94,0,0,1,2.64-12.86c2.59-5.82,3.63-7.28,4.83-9,.58-.82,1.25-1.75,2.11-3.22a16.79,16.79,0,0,0,2.18-7.2,30.51,30.51,0,0,0-1.29-9.77,35.19,35.19,0,0,1-1.2-6.41V82.8a10.24,10.24,0,0,1,2.88-.33q.8,0,1.59,0l1.42,0,7.5,0a3.2,3.2,0,0,0,3.34-2.34c0-.12.1-.26.17-.41a22.94,22.94,0,0,0,1.67-7.31c.12-1.11.24-2.16.44-3.19a3.79,3.79,0,0,0-.62-3.26,3.37,3.37,0,0,0-2.71-1.15Z"/><path class="cls-3" d="M60.52,79.27a98,98,0,0,1,17.14,6.11A64.58,64.58,0,0,1,93,95.3l.21.19.11.1.06,0a1.06,1.06,0,0,0-.19-.12.69.69,0,0,0-.65.08c-.23.22-.09.1-.08.07l.23-.28c.31-.36.59-.58.88-.88.59-.51,1.18-1,1.79-1.49,1.21-1,2.47-1.84,3.75-2.69s2.6-1.63,4-2.37l2-1,2.09-1A53.87,53.87,0,0,1,116,83c1.52-.28,3-.62,4.54-.77a38.76,38.76,0,0,1,4.57-.24.1.1,0,0,1,.1.09.11.11,0,0,1-.08.1h0c-1.49.33-3,.51-4.43.94s-2.89.78-4.32,1.21A75.54,75.54,0,0,0,108,87.72l-2,1-2,1c-1.3.71-2.61,1.44-3.88,2.22s-2.52,1.58-3.72,2.45c-.61.43-1.19.88-1.76,1.34-.25.23-.57.49-.76.7l-.14.15a3.43,3.43,0,0,1-.27.27,1,1,0,0,1-.92.12,1.06,1.06,0,0,1-.3-.21l0,0-.11-.1-.2-.19A62.7,62.7,0,0,0,77.22,86.27a96.41,96.41,0,0,0-16.75-6.81.1.1,0,0,1-.07-.12A.11.11,0,0,1,60.52,79.27Z"/></svg>