<svg id="图层_1" data-name="图层 1" xmlns="http://www.w3.org/2000/svg" viewBox="0 0 186 186"><defs><style>.cls-1{fill:#f5e3ea;}.cls-2{fill:#e4cbd4;}.cls-3{fill:#5b3b2f;}.cls-4{fill:#fff;}</style></defs><path class="cls-1" d="M82.2,26.9h18.25c.59,0,1.59,3.06,1.61,3.54.39,7.76,4,11,11.34,15.65a20.94,20.94,0,0,0,7.89,3.09c2.84.44,5.58-.86,8.47-.25,7.27,1.51,14.16,8.91,13.25,16l-1.66,9.2c-5,29-19,50.34-19,79.09L61,152.57c1-8-1.5-20.45-3-27-1.67-7.29-3.62-11.61-6.08-18.65-2.32-6.6-1.93-7.38-5.75-20.16-1-3.49-1.44-4-1.94-7.58s-.86-10.5-1-14c-.16-4.16.34-8.45,2.62-12.09,2-3.13,5.35-4.41,9-4.23s6.43,1.09,10-.26c2.86-1.09,4.66-2.63,7.24-4.1,4.34-2.47,9.08-5.79,10-10,.16-.75-.29-7.54.66-7.54h17.59"/><path class="cls-2" d="M102.73,58.94a9.33,9.33,0,0,1,6.33-3.66,17.59,17.59,0,0,1,7.49.52c2.44.75,4.61,2,6.91,2.71a6.2,6.2,0,0,0,3.34.2,4.52,4.52,0,0,0,2.51-1.9h0a.75.75,0,0,1,1.22.86v0A6,6,0,0,1,127.1,60a7.39,7.39,0,0,1-4-.41c-2.44-.85-4.53-2.25-6.8-3.07a17,17,0,0,0-7.21-.86A9.12,9.12,0,0,0,102.73,58.94Z"/><path class="cls-2" d="M80.27,59.47a15.34,15.34,0,0,0-14.15-2.92c-2.35.74-4.5,2.16-6.94,3.08a10.91,10.91,0,0,1-3.94.82A6,6,0,0,1,51.31,59l0,0a.75.75,0,1,1,1-1.12l0,0a4.6,4.6,0,0,0,3,1.3,9.67,9.67,0,0,0,3.51-.57c2.36-.75,4.57-2.06,7.12-2.75A15.72,15.72,0,0,1,80.27,59.47Z"/><path class="cls-2" d="M92.71,58.94A2.84,2.84,0,0,1,91,61.77a2.72,2.72,0,0,1-1.8.06,4,4,0,0,1-.79-.35,4.9,4.9,0,0,1-.65-.54,6.73,6.73,0,0,1,.81.08c.26,0,.51,0,.75,0a3.52,3.52,0,0,0,1.32-.22A5.27,5.27,0,0,0,92.71,58.94Z"/><path class="cls-2" d="M86.21,41.42l.56,5.06c.09.84.21,1.67.35,2.5a15.29,15.29,0,0,0,.59,2.47,8.58,8.58,0,0,1-1-2.39,18,18,0,0,1-.47-2.52A24.43,24.43,0,0,1,86.11,44,19.86,19.86,0,0,1,86.21,41.42Z"/><path class="cls-2" d="M96.22,39.41A46.1,46.1,0,0,1,95.13,45c-.24.93-.49,1.85-.8,2.75a14.29,14.29,0,0,1-1.11,2.65c.29-.91.51-1.83.74-2.75l.69-2.77C95.13,43.07,95.61,41.23,96.22,39.41Z"/><path class="cls-3" d="M82.92,26.8c3.44-.38,6.88-.59,10.33-.7C95,26,96.69,26,98.41,26c.86,0,1.73,0,2.59,0h.19l.14,0a.88.88,0,0,1,.26.08,1.21,1.21,0,0,1,.29.2,1.51,1.51,0,0,1,.35.57,4.65,4.65,0,0,1,.21.76A10.93,10.93,0,0,1,102.6,29c.07.87.08,1.79.09,2.61A12.75,12.75,0,0,0,103,34.1a11.41,11.41,0,0,0,2.14,4.5c2.06,2.71,5,4.53,8,6.21a33.36,33.36,0,0,0,4.52,2.25,18.42,18.42,0,0,0,4.73,1.22,23.32,23.32,0,0,0,4.93-.47,10.62,10.62,0,0,1,2.82,0,12.22,12.22,0,0,1,2.73.75,16.89,16.89,0,0,1,8,7.18A14.67,14.67,0,0,1,142.82,66l-.2,0a15.77,15.77,0,0,0-3.09-9.36,16.65,16.65,0,0,0-7.44-6,11.54,11.54,0,0,0-2.24-.63,11.18,11.18,0,0,0-2.32,0,25.39,25.39,0,0,1-5.34.27,21.68,21.68,0,0,1-9.65-4.37,36.79,36.79,0,0,1-7.89-6.8,16.17,16.17,0,0,1-2.56-4.62,13.57,13.57,0,0,1-.61-2.61c-.11-.89-.22-1.69-.38-2.52-.08-.41-.17-.82-.27-1.19a3.61,3.61,0,0,0-.16-.47c0-.05-.08-.09,0,0a.68.68,0,0,0,.16.11l.18.06H101c-.86,0-1.72,0-2.58,0-1.71,0-3.43,0-5.15-.1-3.44-.11-6.87-.31-10.31-.7Z"/><path class="cls-3" d="M101,27c-3.49.36-7,.56-10.45.67-1.75.06-3.49.1-5.23.11L84,27.8h-.59l.15,0c.33-.12.28-.19.28-.15a1.55,1.55,0,0,0-.08.15,15.78,15.78,0,0,0-.69,2.3l-.58,2.51c-.19.87-.32,1.67-.57,2.6a11.17,11.17,0,0,1-2.81,4.62,29.08,29.08,0,0,1-4.06,3.39c-1.44,1-2.79,2.08-4.18,3.16a22.15,22.15,0,0,1-4.56,2.85,12.36,12.36,0,0,1-5.49,1.07c-1.85,0-3.56-.3-5.23-.39a10.75,10.75,0,0,0-4.64.69c-2.91,1.17-4.89,4.06-5.95,7.23a24.2,24.2,0,0,0-1.16,5,37,37,0,0,0-.39,5.17h-.2a26.89,26.89,0,0,1,.35-10.56,15.62,15.62,0,0,1,2.2-5,10.41,10.41,0,0,1,4.33-3.67,11.76,11.76,0,0,1,5.58-.93c1.81.09,3.54.4,5.18.49a10.66,10.66,0,0,0,4.71-.74,39.88,39.88,0,0,0,4.58-2.2c3-1.73,6.16-3.39,8.44-6a9.07,9.07,0,0,0,2.16-4.44c.22-1.63.33-3.45.63-5.18A12.14,12.14,0,0,1,82.16,27a3.68,3.68,0,0,1,.23-.42,1.34,1.34,0,0,1,.77-.57l.23,0H84l1.31,0c1.74,0,3.48.05,5.23.11,3.48.11,7,.32,10.45.67Z"/><path class="cls-3" d="M43.27,71.76a141.37,141.37,0,0,0,5.24,20.33c2.18,6.64,4.68,13.19,6.93,19.88a123.75,123.75,0,0,1,5.29,20.51,91.12,91.12,0,0,1,1,10.55c.06,1.77,0,3.54,0,5.3a29.67,29.67,0,0,1-.65,5.24,51,51,0,0,0-.18-10.48c-.36-3.48-.89-6.94-1.54-10.36a162.25,162.25,0,0,0-5.74-20.13l-3.42-10C49,99.3,47.93,96,47,92.55A92.58,92.58,0,0,1,43.27,71.76Z"/><path class="cls-3" d="M142,68c0,1.8-.07,3.59-.15,5.39s-.42,3.57-.66,5.36-.68,3.53-1,5.28-.9,3.48-1.42,5.2l-1.78,5.07c-.64,1.68-1.27,3.35-1.85,5-1.19,3.37-2.21,6.79-3.19,10.23-.48,1.72-.93,3.45-1.45,5.15s-.95,3.43-1.47,5.13l-1.4,5.15c-.41,1.72-.86,3.43-1.31,5.15A133.74,133.74,0,0,0,122.56,151h-.2a69.17,69.17,0,0,1,1.81-21.44c.45-1.74.88-3.48,1.37-5.21l1.61-5.14c1.12-3.4,2.36-6.76,3.68-10.08s2.57-6.67,3.62-10.08,1.8-6.91,2.64-10.36q.58-2.6,1.3-5.16c.4-1.73.8-3.45,1.24-5.17s.72-3.47,1.13-5.21.63-3.49,1-5.25Z"/><path class="cls-4" d="M127.09,159c-7-.07-14.56-.13-22-.13H87.66c-13.43,0-28.18,0-28.18,0l-.79,0c2.06-4.1,8-16.14,10-23.42a24.24,24.24,0,0,0-.17-13.34,35.37,35.37,0,0,0-3.85-9.56,33.86,33.86,0,0,0-2.49-3.44,26.75,26.75,0,0,1-2.7-3.84,13,13,0,0,1-1.47-6.42,29.91,29.91,0,0,1,1.5-7.61c.42-1.44.85-2.93,1.15-4.43a21.15,21.15,0,0,0,.42-6,17.6,17.6,0,0,0-.57-3.17,8,8,0,0,0-.44-1.09,7,7,0,0,1-.52-1.31c.07-1,.23-1.93.39-3s.35-2.14.42-3.24l.1-1.59c.16-2.3.32-4.69.25-7.07,0,0,0-.08,0-.12a2.4,2.4,0,0,0,0-.77,2.81,2.81,0,0,0,0-1.29,15.5,15.5,0,0,0-1.44-7l-.21-.46a3.2,3.2,0,0,1-.36-1.1,1.44,1.44,0,0,1,.56-.08,8.51,8.51,0,0,1,1.41.18,8.92,8.92,0,0,0,1.47.18h.54c1.11,0,1.31.1,1.93,1.61.15.36.28.71.42,1.07a14.62,14.62,0,0,0,1.86,3.73A52.33,52.33,0,0,0,85.21,71.63a64.83,64.83,0,0,0,19.17,5.87l1,.15a73.65,73.65,0,0,0,11.35,1.18,24.44,24.44,0,0,0,6.55-.79,3.29,3.29,0,0,1,.49,0h.3c0,.28-.13.66-.19.9a6,6,0,0,0-.23,1.22,17,17,0,0,0,.35,3.55c.29,1.51.73,3,1.15,4.44.34,1.16.66,2.26.91,3.37,1.07,4.7,1.1,9.22.08,12.08-1.35,3.78-2.34,4.78-3.58,6a18.94,18.94,0,0,0-3.81,5.25,33.51,33.51,0,0,0,1.15,32.64c1.38,2.28,2.82,4.49,4.31,6.75.84,1.28,2.27,3.31,3.27,4.73Z"/><path class="cls-3" d="M60.12,50.58l.36.06a9.43,9.43,0,0,0,1.66.21h.54a2.88,2.88,0,0,1,.53,0,4.43,4.43,0,0,1,.47,1c.15.34.28.69.42,1a15.39,15.39,0,0,0,2,4A53.41,53.41,0,0,0,84.76,72.52a65.4,65.4,0,0,0,19.46,6l1,.16a75,75,0,0,0,11.5,1.19,26,26,0,0,0,6.05-.63,5.09,5.09,0,0,0-.13.92,17.08,17.08,0,0,0,.37,3.76,45.47,45.47,0,0,0,1.17,4.53c.33,1.15.65,2.23.9,3.31,1,4.53,1.06,8.84.1,11.52-1.27,3.57-2.19,4.5-3.35,5.68a20.31,20.31,0,0,0-4,5.49A34.52,34.52,0,0,0,119.05,148c1.37,2.28,2.83,4.51,4.33,6.79.57.85,1.39,2,2.17,3.16-6.57-.06-13.5-.11-20.39-.11h-3.73c-3.82,0-8.7,0-13.76,0-11.57,0-24.12,0-27.38,0,2.49-5,7.52-15.53,9.4-22.18a25.16,25.16,0,0,0-.16-13.86,36.92,36.92,0,0,0-4-9.83l0-.08A32.34,32.34,0,0,0,63,108.45a26.15,26.15,0,0,1-2.6-3.69,12,12,0,0,1-1.35-5.93,28.87,28.87,0,0,1,1.47-7.35c.42-1.46.85-3,1.16-4.52a22.32,22.32,0,0,0,.44-6.3,19.59,19.59,0,0,0-.6-3.36,8.69,8.69,0,0,0-.5-1.24c-.12-.27-.33-.73-.41-1,.06-.89.21-1.79.36-2.74s.35-2.18.42-3.32c0-.53.07-1.06.11-1.59.16-2.33.32-4.74.26-7.13v-.07a3.56,3.56,0,0,0,0-.83,4.08,4.08,0,0,0,0-1.35,16.41,16.41,0,0,0-1.52-7.3,1.42,1.42,0,0,0-.08-.18m-.86-2.11a1.85,1.85,0,0,0-1.25.38c-.75.67,0,1.92.33,2.64A14.26,14.26,0,0,1,59.7,58.2a1.88,1.88,0,0,1-.07,1.28c.22.26.12.56.12.85.08,2.87-.17,5.71-.35,8.57-.14,2.1-.67,4.15-.81,6.25a15.06,15.06,0,0,0,1,2.68,16.83,16.83,0,0,1,.53,3,20.51,20.51,0,0,1-.4,5.74c-.83,4.08-2.59,8-2.67,12.22a14,14,0,0,0,1.59,6.91c1.41,2.63,3.62,4.71,5.18,7.26l0,.06a35.54,35.54,0,0,1,3.74,9.32,23.17,23.17,0,0,1,.17,12.79c-2.47,8.7-10.69,24.65-10.69,24.65l2.39.08s14.76,0,28.2,0h17.49c7.31,0,14.62.06,21.93.13h2.34s-3-4.2-4.37-6.28-2.92-4.44-4.29-6.72a32.31,32.31,0,0,1-1.12-31.66c3.32-6.34,4.87-4.23,7.44-11.42,1.31-3.68.82-8.84,0-12.64-.58-2.57-1.55-5.15-2.06-7.77a16.74,16.74,0,0,1-.33-3.34c0-.66.66-2.23.37-2.79-.14-.29-.73-.38-1.25-.38a3.38,3.38,0,0,0-.76.08,23.86,23.86,0,0,1-6.28.75,81.65,81.65,0,0,1-12.21-1.32,63.34,63.34,0,0,1-18.87-5.78,51.41,51.41,0,0,1-18-15.09,19.75,19.75,0,0,1-2.15-4.58c-.72-1.73-1.21-2.23-2.86-2.23h-.54c-.78,0-1.92-.37-2.88-.37Z"/></svg>