<svg id="图层_1" data-name="图层 1" xmlns="http://www.w3.org/2000/svg" viewBox="0 0 186 186"><defs><style>.cls-1{fill:#f5e3ea;}.cls-2{fill:#e4cbd4;}.cls-3{fill:#5b3b2f;}.cls-4{fill:#fff;}</style></defs><path class="cls-1" d="M82.62,26.89h18.11c.59,0,1.58,3,1.61,3.51.39,7.71,4,10.94,11.25,15.54A20.79,20.79,0,0,0,121.42,49c2.82.43,5.54-.85,8.41-.25,7.22,1.5,14.06,8.85,13.15,15.9l-1.64,9.13c-5,28.82-18.88,50-18.88,78.52l-60.87-.66c1-8-1.49-20.3-3-26.83-1.66-7.24-3.6-11.52-6-18.51-2.29-6.56-1.91-7.33-5.7-20-1-3.46-1.43-4-1.92-7.53s-.86-10.42-1-13.91c-.16-4.14.34-8.39,2.61-12,2-3.11,5.3-4.38,8.88-4.2s6.38,1.08,9.91-.27c2.83-1.08,4.62-2.6,7.18-4.06,4.31-2.46,9-5.75,9.94-9.94.16-.74-.29-7.49.66-7.49h17.46"/><path class="cls-2" d="M103,58.7a9.31,9.31,0,0,1,6.29-3.64,17.51,17.51,0,0,1,7.44.52c2.42.75,4.57,2,6.86,2.69a6.22,6.22,0,0,0,3.32.21,4.56,4.56,0,0,0,2.49-1.9h0a.75.75,0,0,1,1-.19.74.74,0,0,1,.18,1l0,0a5.92,5.92,0,0,1-3.4,2.29,7.47,7.47,0,0,1-4-.41c-2.42-.85-4.5-2.24-6.75-3.05a17,17,0,0,0-7.16-.86A9.12,9.12,0,0,0,103,58.7Z"/><path class="cls-2" d="M80.7,59.23a15.25,15.25,0,0,0-14-2.91c-2.33.75-4.46,2.15-6.89,3.06a10.75,10.75,0,0,1-3.91.82A6,6,0,0,1,52,58.72l0,0a.75.75,0,0,1-.06-1.05.73.73,0,0,1,1.05-.06l0,0a4.56,4.56,0,0,0,3,1.29,9.52,9.52,0,0,0,3.48-.57c2.34-.74,4.54-2,7.06-2.72A15.6,15.6,0,0,1,80.7,59.23Z"/><path class="cls-2" d="M93.06,58.7a2.79,2.79,0,0,1-.4,1.63,2.74,2.74,0,0,1-1.35,1.18,2.79,2.79,0,0,1-1.8.06,3.65,3.65,0,0,1-.78-.35,4.1,4.1,0,0,1-.64-.53,6.44,6.44,0,0,1,.8.07c.26,0,.51.05.75,0a3.38,3.38,0,0,0,1.3-.21A5.31,5.31,0,0,0,93.06,58.7Z"/><path class="cls-2" d="M86.6,41.31l.55,5c.09.83.21,1.66.35,2.49a15,15,0,0,0,.59,2.44,8.09,8.09,0,0,1-1-2.36,16.79,16.79,0,0,1-.47-2.51,24.05,24.05,0,0,1-.16-2.54A19.55,19.55,0,0,1,86.6,41.31Z"/><path class="cls-2" d="M96.53,39.32a45.62,45.62,0,0,1-1.07,5.57c-.25.92-.49,1.84-.8,2.73a13.83,13.83,0,0,1-1.11,2.63c.3-.9.51-1.82.74-2.73L95,44.77C95.45,43,95.93,41.12,96.53,39.32Z"/><path class="cls-3" d="M83.33,26.8c3.41-.39,6.83-.59,10.25-.7C95.29,26,97,26,98.71,26c.86,0,1.71,0,2.57,0h.33a1,1,0,0,1,.25.09.9.9,0,0,1,.29.2,1.64,1.64,0,0,1,.36.56,4.54,4.54,0,0,1,.2.76,10.77,10.77,0,0,1,.16,1.35c.07.86.08,1.78.09,2.59a12.55,12.55,0,0,0,.32,2.44,11.38,11.38,0,0,0,2.12,4.47c2,2.69,5,4.5,7.94,6.17a34.7,34.7,0,0,0,4.49,2.23,18.6,18.6,0,0,0,4.7,1.21,23.57,23.57,0,0,0,4.89-.47,10.48,10.48,0,0,1,2.8,0,12.59,12.59,0,0,1,2.71.74,16.75,16.75,0,0,1,7.93,7.13,14.59,14.59,0,0,1,1.94,10.17l-.2,0a15.67,15.67,0,0,0-3.07-9.3,16.57,16.57,0,0,0-7.38-6,8.92,8.92,0,0,0-4.53-.65,23.75,23.75,0,0,1-5.3.27,21.37,21.37,0,0,1-9.58-4.34,36.23,36.23,0,0,1-7.83-6.74,15.72,15.72,0,0,1-2.54-4.59,14.37,14.37,0,0,1-.62-2.59c-.1-.89-.21-1.68-.37-2.51-.08-.4-.17-.8-.27-1.17a3.15,3.15,0,0,0-.16-.47s-.07-.09,0,0a1,1,0,0,0,.16.11.78.78,0,0,0,.18,0h-.07c-.85,0-1.7,0-2.56,0-1.7,0-3.41,0-5.11-.1-3.41-.11-6.83-.31-10.24-.7Z"/><path class="cls-3" d="M101.29,27c-3.46.36-6.92.56-10.38.67-1.73.06-3.46.1-5.18.11l-1.3,0h-.59l.15,0c.33-.12.27-.19.28-.15s0,.08-.09.14a17.47,17.47,0,0,0-.68,2.29l-.57,2.5c-.2.85-.32,1.65-.57,2.58a11.16,11.16,0,0,1-2.79,4.58,28.69,28.69,0,0,1-4,3.37c-1.43,1-2.77,2.06-4.15,3.13A22,22,0,0,1,66.86,49a12.28,12.28,0,0,1-5.44,1.07c-1.84,0-3.54-.31-5.2-.39a10.51,10.51,0,0,0-4.61.68c-2.88,1.16-4.85,4-5.9,7.17a24.75,24.75,0,0,0-1.16,4.93,38,38,0,0,0-.38,5.13l-.2,0a26.72,26.72,0,0,1,.35-10.49,15.49,15.49,0,0,1,2.19-5,10.29,10.29,0,0,1,4.29-3.64,11.58,11.58,0,0,1,5.54-.93c1.8.09,3.51.4,5.14.49a10.53,10.53,0,0,0,4.68-.74,39.18,39.18,0,0,0,4.54-2.18c3-1.71,6.13-3.36,8.39-5.9a9.11,9.11,0,0,0,2.14-4.41c.21-1.62.32-3.43.63-5.15a12.08,12.08,0,0,1,.72-2.7,2.54,2.54,0,0,1,.23-.41,1.34,1.34,0,0,1,.77-.57l.22,0h.63l1.3,0c1.72,0,3.45.05,5.18.11,3.46.11,6.92.31,10.38.67Z"/><path class="cls-3" d="M44,71.42a140.38,140.38,0,0,0,5.2,20.19c2.17,6.6,4.65,13.1,6.88,19.73a123.3,123.3,0,0,1,5.25,20.37,89.76,89.76,0,0,1,1,10.47c.06,1.76,0,3.51,0,5.26a29.46,29.46,0,0,1-.65,5.21,50.29,50.29,0,0,0-.18-10.41c-.36-3.45-.88-6.89-1.53-10.29a160.34,160.34,0,0,0-5.7-20l-3.39-9.88c-1.1-3.32-2.19-6.65-3.14-10A92.56,92.56,0,0,1,44,71.42Z"/><path class="cls-3" d="M142,67.65c0,1.78-.07,3.56-.15,5.35s-.41,3.54-.65,5.31-.67,3.51-1,5.25-.9,3.45-1.41,5.16l-1.77,5c-.63,1.66-1.26,3.32-1.83,5-1.19,3.34-2.2,6.74-3.17,10.15-.48,1.71-.92,3.43-1.44,5.12s-1,3.4-1.46,5.09l-1.39,5.11c-.41,1.71-.86,3.41-1.3,5.11a133,133,0,0,0-3.66,20.79h-.19a68.72,68.72,0,0,1,1.79-21.28c.45-1.73.88-3.46,1.36-5.18l1.6-5.09c1.12-3.38,2.35-6.72,3.66-10s2.54-6.63,3.58-10,1.79-6.86,2.63-10.29c.39-1.71.81-3.42,1.29-5.12s.8-3.43,1.24-5.13.71-3.45,1.11-5.17.63-3.47,1-5.22Z"/><path class="cls-4" d="M76.13,44.25c.13,3.67-.85,12.14-8.13,29.4a.55.55,0,0,0,.57.76c2.18-.18,6.88.81,7.67,1a45.94,45.94,0,0,1,8.68,2.46c2.88,1.14,6,3.84,9.24,3.34,2.16-.33,4-2,6-2.72s4-1.44,6-2.08c3.27-1,7.26-2.47,10.82-2.24a.54.54,0,0,0,.49-.83c-1.74-2.8-8.38-11.95-5.82-28.54a.56.56,0,0,1,.84-.39c2.07,1.27,8.08,4.44,8.82,4.51,2.39.25,4.64-1.07,7.13-.85a16.66,16.66,0,0,1,8.37,2.66c2.49,1.77,5.54,5.92,5.34,9.25a.53.53,0,0,1-.32.44C133.69,64,124,72.45,124.07,82c0,4.76,2.23,9.16,2.61,13.87.59,7.2-3.87,12.48-7.53,18.17A28.69,28.69,0,0,0,115,135.68c1.83,8.26,7.23,15.17,12.08,22.11.2.28.4.67.2,1a.91.91,0,0,1-.77.26H57.78a.51.51,0,0,1-.46-.76c6.36-11.67,15.27-26.65,8.73-40.1-3.47-7.14-9.11-13-8.75-21.45.16-3.91,1.58-7.64,2.29-11.48,2-11-6.89-19.72-15.25-25.4A1,1,0,0,1,44,58.63c1.1-3.07,6-14.27,18.18-9.41a.53.53,0,0,0,.39,0c1.26-.51,8-3.07,11.65-5.89A1.22,1.22,0,0,1,76.13,44.25Z"/><path class="cls-3" d="M126.52,160H57.78a1.51,1.51,0,0,1-1.31-.75,1.5,1.5,0,0,1,0-1.49l.93-1.7c6.14-11.2,13.78-25.14,7.78-37.49-1-2-2.1-3.86-3.21-5.7C59,108.05,56,103.06,56.3,96.64a37.23,37.23,0,0,1,1.37-7.55c.34-1.33.69-2.71.94-4.06,2-10.52-7-19.07-14.83-24.4A2,2,0,0,1,43,58.29c.82-2.29,3.3-7.89,8.5-10.23,3.2-1.44,6.83-1.38,10.81.17l.21-.08c1.93-.76,7.81-3.07,11-5.59a2.2,2.2,0,0,1,3.56,1.65h0c.13,3.53-.74,12-7.94,29.19a41.72,41.72,0,0,1,6.89.92l.35.07a47.66,47.66,0,0,1,8.86,2.51,25.87,25.87,0,0,1,2.79,1.39c2,1.08,4,2.19,5.94,1.89a10,10,0,0,0,3.29-1.41,18.1,18.1,0,0,1,2.49-1.25c2.21-.83,4.18-1.51,6-2.09l1-.34c2.9-.93,6.15-2,9.27-2h0c-2.3-3.6-7.94-12.75-5.52-28.5a1.55,1.55,0,0,1,.89-1.17,1.52,1.52,0,0,1,1.46.09,76.48,76.48,0,0,0,8.46,4.37,9.94,9.94,0,0,0,3.15-.4,11.9,11.9,0,0,1,3.91-.46,17.73,17.73,0,0,1,8.85,2.84c2.47,1.75,6,6.17,5.76,10.12a1.51,1.51,0,0,1-.9,1.29C133.62,65.14,125,73.48,125.06,82a30.23,30.23,0,0,0,1.3,7.29,36.81,36.81,0,0,1,1.31,6.51c.53,6.51-2.83,11.51-6.07,16.36-.54.8-1.08,1.61-1.61,2.43a27.54,27.54,0,0,0-4,20.92c1.58,7.12,6,13.36,10.26,19.39l1.66,2.36a1.72,1.72,0,0,1,.21,2.1A1.83,1.83,0,0,1,126.52,160Zm-45.16-2H126l-1.42-2c-4.38-6.19-8.91-12.59-10.57-20.11a29.52,29.52,0,0,1,4.28-22.42c.53-.83,1.08-1.64,1.63-2.46,3.19-4.77,6.21-9.27,5.74-15.09a35.44,35.44,0,0,0-1.25-6.16A31.23,31.23,0,0,1,123.08,82c-.09-9.68,9.24-18.35,18-22.39,0-2.73-2.55-6.4-4.93-8.09A15.36,15.36,0,0,0,128.31,49a10.8,10.8,0,0,0-3.29.41,11.46,11.46,0,0,1-3.86.44c-1-.1-6.53-3.08-8.68-4.32-2.1,14.9,3.37,23.44,5.44,26.68l.35.54a1.55,1.55,0,0,1,0,1.61,1.49,1.49,0,0,1-1.41.74c-3-.19-6.4.9-9.4,1.86l-1.06.34c-1.81.57-3.74,1.25-5.92,2.06a15.76,15.76,0,0,0-2.2,1.12,11.78,11.78,0,0,1-4,1.65c-2.6.4-5-.94-7.19-2.12a25.53,25.53,0,0,0-2.57-1.28,46.44,46.44,0,0,0-8.49-2.41l-.37-.07a36.2,36.2,0,0,0-7-.87,1.55,1.55,0,0,1-1.39-.63,1.52,1.52,0,0,1-.17-1.51c7.28-17.27,8.16-25.57,8-29h0A.19.19,0,0,0,75,44.1a.18.18,0,0,0-.22,0c-3.44,2.69-9.52,5.08-11.52,5.87l-.38.15a1.52,1.52,0,0,1-1.13,0c-3.52-1.41-6.69-1.5-9.42-.27-4.51,2-6.72,7-7.45,9.09,12,8.14,17.37,17.27,15.67,26.43-.26,1.42-.62,2.83-1,4.19a35.26,35.26,0,0,0-1.31,7.15c-.25,5.81,2.48,10.33,5.36,15.11,1.13,1.88,2.3,3.82,3.3,5.87,6.45,13.26-1.47,27.7-7.83,39.3l-.55,1Zm60-98.53ZM62.15,48.3h0Z"/></svg>