<svg id="图层_1" data-name="图层 1" xmlns="http://www.w3.org/2000/svg" viewBox="0 0 186 186"><defs><style>.cls-1{fill:#f5e3ea;}.cls-2{fill:#e4cbd4;}.cls-3{fill:#5b3b2f;}.cls-4{fill:#fff;}</style></defs><path class="cls-1" d="M82.41,26.89h17.9c.58,0,1.56,3,1.58,3.47.39,7.61,3.93,10.8,11.13,15.35a20.37,20.37,0,0,0,7.73,3c2.79.43,5.48-.84,8.31-.25,7.13,1.49,13.89,8.75,13,15.72l-1.62,9c-4.91,28.48-18.66,49.39-18.66,77.59l-60.16-.64c1-7.86-1.46-20.07-2.94-26.52-1.64-7.15-3.55-11.39-6-18.3-2.27-6.47-1.89-7.24-5.64-19.78-1-3.42-1.41-3.9-1.9-7.44s-.84-10.3-1-13.75c-.16-4.08.33-8.29,2.57-11.85,1.93-3.08,5.24-4.33,8.78-4.16s6.3,1.07,9.79-.26c2.8-1.06,4.56-2.57,7.1-4,4.25-2.43,8.9-5.69,9.82-9.83.16-.73-.29-7.39.65-7.39h17.26"/><path class="cls-2" d="M102.54,58.32a9.18,9.18,0,0,1,6.21-3.6,17.25,17.25,0,0,1,7.35.52c2.4.73,4.53,2,6.78,2.65a6.19,6.19,0,0,0,3.28.21,4.5,4.5,0,0,0,2.46-1.88h0a.73.73,0,0,1,1-.18.75.75,0,0,1,.18,1l0,0a5.9,5.9,0,0,1-3.37,2.27,7.29,7.29,0,0,1-3.9-.41c-2.39-.84-4.45-2.21-6.67-3a16.66,16.66,0,0,0-7.08-.85A8.94,8.94,0,0,0,102.54,58.32Z"/><path class="cls-2" d="M80.51,58.84a15.14,15.14,0,0,0-13.91-3c-2.34.73-4.46,2.1-6.84,3a10.5,10.5,0,0,1-3.79.77,5.69,5.69,0,0,1-3.71-1.44h0a.5.5,0,1,1,.66-.74h0A4.72,4.72,0,0,0,56,58.72a9.57,9.57,0,0,0,3.51-.6c2.33-.76,4.49-2.06,6.95-2.74A15.36,15.36,0,0,1,80.51,58.84Z"/><path class="cls-2" d="M92.72,58.32a2.74,2.74,0,0,1-.39,1.61A2.66,2.66,0,0,1,91,61.1a2.69,2.69,0,0,1-1.77,0,3.34,3.34,0,0,1-.77-.34,4.1,4.1,0,0,1-.64-.53,6.56,6.56,0,0,1,.8.08c.25,0,.5,0,.73,0a3.53,3.53,0,0,0,1.29-.22A5.15,5.15,0,0,0,92.72,58.32Z"/><path class="cls-2" d="M86.34,41.13l.55,5c.09.83.21,1.64.34,2.46A14.93,14.93,0,0,0,87.81,51a8.23,8.23,0,0,1-1-2.34,16.16,16.16,0,0,1-.46-2.48,23.33,23.33,0,0,1-.16-2.51A19.09,19.09,0,0,1,86.34,41.13Z"/><path class="cls-2" d="M96.16,39.16a43,43,0,0,1-1.07,5.52c-.24.9-.48,1.8-.78,2.69a14.19,14.19,0,0,1-1.1,2.6c.29-.89.5-1.8.73-2.7l.68-2.72C95.09,42.75,95.56,40.94,96.16,39.16Z"/><path class="cls-3" d="M83.11,26.79c3.37-.38,6.75-.59,10.13-.69,1.69-.07,3.38-.07,5.07-.1.85,0,1.69,0,2.53,0h.34a1.47,1.47,0,0,1,.25.08,1,1,0,0,1,.28.21,1.47,1.47,0,0,1,.35.55,4.84,4.84,0,0,1,.21.75,13,13,0,0,1,.16,1.33c.06.86.07,1.77.08,2.57a13,13,0,0,0,.31,2.41,11.24,11.24,0,0,0,2.1,4.41c2,2.66,4.94,4.45,7.85,6.1a33.29,33.29,0,0,0,4.44,2.2,18,18,0,0,0,4.64,1.2,22.87,22.87,0,0,0,4.82-.47,10.34,10.34,0,0,1,2.78,0,12.22,12.22,0,0,1,2.67.73,16.48,16.48,0,0,1,7.84,7,14.33,14.33,0,0,1,1.91,10l-.19,0a15.5,15.5,0,0,0-3-9.19,16.45,16.45,0,0,0-7.3-5.92,11.29,11.29,0,0,0-2.2-.61,10.68,10.68,0,0,0-2.27,0,23.87,23.87,0,0,1-5.24.27,21.21,21.21,0,0,1-9.47-4.29,36.19,36.19,0,0,1-7.74-6.67,15.55,15.55,0,0,1-2.51-4.53,14.91,14.91,0,0,1-.61-2.56c-.1-.88-.21-1.66-.37-2.48-.07-.4-.16-.8-.26-1.16a3.61,3.61,0,0,0-.16-.47c0-.05-.07-.08,0,0a.47.47,0,0,0,.16.11.54.54,0,0,0,.18.06h-.07c-.84,0-1.68,0-2.53,0-1.68,0-3.37,0-5-.1-3.38-.1-6.75-.3-10.12-.68Z"/><path class="cls-3" d="M100.86,27c-3.42.34-6.84.55-10.26.66-1.71.06-3.41.09-5.12.11H83.61a.39.39,0,0,0,.15,0c.33-.11.28-.18.28-.15a.63.63,0,0,0-.08.15A14.87,14.87,0,0,0,83.28,30l-.56,2.46c-.2.85-.32,1.64-.56,2.55a11.2,11.2,0,0,1-2.76,4.53,29.24,29.24,0,0,1-4,3.33c-1.41,1-2.73,2-4.1,3.1a22.45,22.45,0,0,1-4.47,2.8,12.33,12.33,0,0,1-5.39,1c-1.81,0-3.49-.3-5.13-.39a10.49,10.49,0,0,0-4.55.68c-2.85,1.14-4.79,4-5.83,7.09a24.59,24.59,0,0,0-1.15,4.86,37.27,37.27,0,0,0-.38,5.08h-.19a26.31,26.31,0,0,1,.34-10.37,15.11,15.11,0,0,1,2.16-4.93A10.19,10.19,0,0,1,51,48.26a11.7,11.7,0,0,1,5.48-.92c1.78.09,3.47.4,5.08.49a10.4,10.4,0,0,0,4.62-.73A38.27,38.27,0,0,0,70.63,45c3-1.7,6.05-3.33,8.29-5.84A9,9,0,0,0,81,34.75c.21-1.59.32-3.38.62-5.08A12.35,12.35,0,0,1,82.36,27c.06-.12.13-.25.23-.41a1.34,1.34,0,0,1,.76-.56l.22,0h.63l1.28,0c1.71,0,3.41.05,5.12.11,3.42.11,6.84.31,10.26.66Z"/><path class="cls-3" d="M44.22,70.89a137.28,137.28,0,0,0,5.14,19.94c2.14,6.53,4.59,13,6.79,19.51a121.57,121.57,0,0,1,5.2,20.12,90,90,0,0,1,1,10.36c.06,1.73,0,3.46,0,5.19a28.79,28.79,0,0,1-.65,5.15,49.83,49.83,0,0,0-.17-10.29c-.36-3.41-.88-6.8-1.52-10.16A158.35,158.35,0,0,0,54.3,111L51,101.19c-1.09-3.27-2.16-6.56-3.1-9.89A91,91,0,0,1,44.22,70.89Z"/><path class="cls-3" d="M141,67.16c0,1.81-.07,3.63-.17,5.44s-.41,3.61-.68,5.41-.67,3.56-1.06,5.34-.89,3.51-1.42,5.24l-1.77,5.14c-.64,1.69-1.26,3.39-1.83,5.1-1.19,3.41-2.19,6.87-3.15,10.35-.48,1.74-.92,3.49-1.44,5.21s-1,3.47-1.46,5.2l-1.39,5.2L125.36,130a136.79,136.79,0,0,0-3.73,21.16h-.2a71.47,71.47,0,0,1,1.89-21.65c.45-1.75.87-3.52,1.37-5.26l1.6-5.2c1.11-3.44,2.34-6.84,3.64-10.21s2.53-6.76,3.57-10.21,1.79-7,2.63-10.47c.41-1.75.82-3.5,1.3-5.22s.81-3.49,1.26-5.23.73-3.5,1.14-5.25.63-3.54,1-5.31Z"/><path class="cls-4" d="M116.35,136.5a39.27,39.27,0,0,1-1.2-7.27c-.51-7.7,3.3-13.21,7.09-19.56,1.08-1.81,2.13-3.63,3.13-5.48a16.17,16.17,0,0,0,1.83-5.57c1.07-8.4-3.45-16.18-4.75-24.28-1.31-8.27-3.13-15.15-1.53-23.58.09-.47.51-1-.11-1.31s-2.84-1.53-3.51-1.28l-.08,0a.86.86,0,0,0-.23.43c-.1.32-2,4.94-2.71,7.33-3.21,10.38-11,21.44-23.19,21.52C79.2,77.58,69.42,67,66.9,55.94a24.89,24.89,0,0,1-.46-6.44c0-.24,0-.48,0-.72s.14-.53-.26-.4c-.91.29-1.8.71-2.69,1.08-.46.19-.92.37-1.4.52s-.78.18-.79.66c0,.27,0,.54-.05.8,0,.54,0,1.08,0,1.62,0,1.08,0,2.15-.06,3.23C60.66,64,61,72,60,79.69s-4.41,15.74-2.12,23.53c1.24,4.22,4,7.77,6.3,11.46a25,25,0,0,1,3.64,9.37c1,6.06-.55,12.19-2.76,17.82a86.75,86.75,0,0,1-3.65,8c-.37.73-3.27,6.36-4.33,8.42a.51.51,0,0,0,.46.75H92.63c10.1,0,30.92,0,35.75-.06a.51.51,0,0,0,.41-.82C126.46,155,118.08,143.16,116.35,136.5Z"/><path class="cls-3" d="M92.63,160H57.56a1.51,1.51,0,0,1-1.34-2.19c1.06-2.06,4-7.68,4.33-8.41,1.59-3.13,2.7-5.57,3.62-7.89,2.59-6.64,3.48-12.3,2.7-17.31a23.79,23.79,0,0,0-3.51-9c-.5-.81-1-1.61-1.55-2.41A35.61,35.61,0,0,1,57,103.5c-1.66-5.67-.41-11.39.79-16.93.51-2.31,1-4.7,1.31-7,.55-4.57.67-9.31.78-13.9.08-3.11.17-6.33.38-9.45.06-.84.06-1.68.06-2.57v-.6c0-.55,0-1.1,0-1.66l0-.39c0-.13,0-.26,0-.39a1.66,1.66,0,0,1,1.37-1.54l.12,0c.48-.15.95-.34,1.31-.49l.67-.29c.68-.29,1.38-.59,2.1-.82a1.18,1.18,0,0,1,1.2.18,1.23,1.23,0,0,1,.35,1.18,5.15,5.15,0,0,0,0,.73,24,24,0,0,0,.43,6.19C70.19,66,79.46,76.51,91,76.51h.12c11.69-.07,19.16-10.81,22.25-20.82.55-1.79,1.71-4.74,2.33-6.33l.39-1a1.7,1.7,0,0,1,.53-.88,1.63,1.63,0,0,1,.38-.22c.79-.3,1.84.11,3.76,1.06a4.68,4.68,0,0,0,.47.23c.6.26,1.22.84.76,2.18,0,.08,0,.15-.06.22-1.3,6.85-.3,12.57.85,19.19.23,1.32.47,2.67.69,4.06a65.47,65.47,0,0,0,2.24,8.65c1.58,5.09,3.21,10.36,2.5,15.91a16.77,16.77,0,0,1-1.93,5.9c-.94,1.74-2,3.55-3.15,5.52l-1,1.6c-3.46,5.72-6.45,10.65-6,17.4a37.86,37.86,0,0,0,1.16,7.08c1.68,6.45,9.83,17.94,12.29,21.3a1.49,1.49,0,0,1,.12,1.56,1.47,1.47,0,0,1-1.33.83C123.55,160,102.74,160,92.63,160Zm-34.3-2h34.3c9.56,0,28.69-.05,34.82-.06-3-4.16-10.41-14.87-12.06-21.23a40.78,40.78,0,0,1-1.22-7.44c-.5-7.37,2.79-12.8,6.27-18.55l1-1.59c1.16-2,2.18-3.73,3.1-5.44a15.2,15.2,0,0,0,1.72-5.22c.65-5.12-.84-10-2.43-15.08a64.89,64.89,0,0,1-2.31-8.92c-.22-1.38-.45-2.72-.68-4-1.14-6.53-2.22-12.7-.85-19.89a1.9,1.9,0,0,1,.11-.39l-.22-.11a19.58,19.58,0,0,0-2-.89l-.34.88c-.61,1.57-1.75,4.49-2.28,6.2C111.92,67,103.85,78.4,91.09,78.48H91c-9.69,0-21.73-7.8-25-22.32a25.38,25.38,0,0,1-.49-6.44l-.84.36-.69.29c-.4.16-.93.38-1.48.55l-.12,0a1.49,1.49,0,0,1,0,.21c0,.1,0,.21,0,.32,0,.52,0,1,0,1.57v.59c0,.89,0,1.8-.07,2.71-.21,3.07-.3,6.27-.37,9.36-.12,4.64-.24,9.43-.81,14.09-.28,2.39-.82,4.83-1.33,7.19-1.15,5.29-2.35,10.76-.82,15.94a33.64,33.64,0,0,0,4.61,8.77c.53.81,1.06,1.63,1.57,2.45a25.88,25.88,0,0,1,3.78,9.74c.84,5.36-.08,11.36-2.81,18.33a88.38,88.38,0,0,1-3.69,8.06C62,151,59.57,155.61,58.33,158Z"/></svg>