<svg id="图层_1" data-name="图层 1" xmlns="http://www.w3.org/2000/svg" viewBox="0 0 186 186"><defs><style>.cls-1{fill:#f5e3ea;}.cls-2{fill:#e4cbd4;}.cls-3{fill:#5b3b2f;}.cls-4{fill:#fff;}</style></defs><path class="cls-1" d="M82.29,26.89h18.1c.59,0,1.58,3,1.6,3.51.39,7.7,4,10.93,11.25,15.53A20.79,20.79,0,0,0,121.07,49c2.81.43,5.53-.85,8.4-.26,7.21,1.51,14.05,8.85,13.14,15.9L141,73.76c-5,28.81-18.87,49.95-18.87,78.47l-60.83-.65c1-8-1.49-20.29-3-26.82-1.66-7.23-3.59-11.52-6-18.5-2.29-6.55-1.91-7.33-5.7-20-1-3.46-1.43-3.94-1.92-7.52s-.86-10.42-1-13.91c-.17-4.13.33-8.38,2.6-12,1.95-3.11,5.3-4.37,8.87-4.2s6.38,1.08,9.91-.26c2.83-1.08,4.61-2.6,7.17-4.06,4.31-2.46,9-5.75,9.94-9.94.16-.74-.29-7.48.65-7.48h17.46"/><path class="cls-2" d="M102.65,58.68A9.26,9.26,0,0,1,108.93,55a17.63,17.63,0,0,1,7.43.52c2.43.75,4.58,2,6.86,2.69a6.2,6.2,0,0,0,3.31.21,4.49,4.49,0,0,0,2.49-1.9h0a.74.74,0,1,1,1.22.85l0,0a6,6,0,0,1-3.4,2.29,7.47,7.47,0,0,1-4-.41c-2.42-.85-4.49-2.24-6.74-3a17.05,17.05,0,0,0-7.16-.86A9.08,9.08,0,0,0,102.65,58.68Z"/><path class="cls-2" d="M80.37,59.21a15.23,15.23,0,0,0-14-2.9c-2.33.74-4.46,2.14-6.89,3a10.74,10.74,0,0,1-3.9.82,6,6,0,0,1-3.9-1.48l0,0a.74.74,0,0,1,1-1.11l0,0a4.53,4.53,0,0,0,3,1.28,9.3,9.3,0,0,0,3.48-.56c2.34-.74,4.54-2,7.06-2.72A15.58,15.58,0,0,1,80.37,59.21Z"/><path class="cls-2" d="M92.72,58.68a2.79,2.79,0,0,1-.4,1.63A2.74,2.74,0,0,1,91,61.49a2.82,2.82,0,0,1-1.79.06,4,4,0,0,1-.79-.35,4.07,4.07,0,0,1-.64-.54c.29,0,.55.05.81.08s.5,0,.74,0a3.47,3.47,0,0,0,1.31-.21A5.35,5.35,0,0,0,92.72,58.68Z"/><path class="cls-2" d="M86.26,41.3l.56,5c.09.83.21,1.66.34,2.48a16.47,16.47,0,0,0,.59,2.45,8.15,8.15,0,0,1-1-2.37,17.63,17.63,0,0,1-.47-2.51,23.87,23.87,0,0,1-.16-2.53A19.55,19.55,0,0,1,86.26,41.3Z"/><path class="cls-2" d="M96.19,39.31a43.48,43.48,0,0,1-1.08,5.57c-.24.92-.48,1.83-.79,2.73a13.74,13.74,0,0,1-1.11,2.62c.3-.9.51-1.81.74-2.73l.68-2.74C95.11,42.93,95.59,41.11,96.19,39.31Z"/><path class="cls-3" d="M83,26.79c3.42-.38,6.84-.58,10.25-.69C95,26,96.66,26,98.37,26c.85,0,1.71,0,2.56,0h.34l.25.09a1.21,1.21,0,0,1,.29.2,1.74,1.74,0,0,1,.35.56,4.65,4.65,0,0,1,.21.76,12.72,12.72,0,0,1,.16,1.35c.07.86.07,1.78.09,2.59a13.47,13.47,0,0,0,.31,2.44,11.34,11.34,0,0,0,2.12,4.46c2,2.69,5,4.5,7.94,6.16a31.77,31.77,0,0,0,4.49,2.23,18.44,18.44,0,0,0,4.69,1.22,23.46,23.46,0,0,0,4.88-.48,10.56,10.56,0,0,1,2.81,0,12.34,12.34,0,0,1,2.7.74,16.73,16.73,0,0,1,7.93,7.12,14.57,14.57,0,0,1,1.94,10.16l-.2,0a15.67,15.67,0,0,0-3.06-9.29,16.65,16.65,0,0,0-7.38-6,12.38,12.38,0,0,0-2.23-.62,11,11,0,0,0-2.3,0A25,25,0,0,1,122,50a21.29,21.29,0,0,1-9.57-4.34,36.47,36.47,0,0,1-7.83-6.74A15.8,15.8,0,0,1,102,34.3a14.34,14.34,0,0,1-.61-2.59c-.11-.89-.21-1.68-.37-2.51-.08-.4-.17-.81-.28-1.17a2.37,2.37,0,0,0-.15-.47s-.08-.09,0,0a.68.68,0,0,0,.16.11.58.58,0,0,0,.17,0h-.06c-.85,0-1.71,0-2.56,0-1.7,0-3.41,0-5.11-.1-3.41-.11-6.82-.31-10.24-.7Z"/><path class="cls-3" d="M100.94,27c-3.45.35-6.91.56-10.37.67-1.72.06-3.45.1-5.18.11l-1.3,0h-.44c.34-.12.28-.19.28-.16a1.55,1.55,0,0,0-.08.15,14.86,14.86,0,0,0-.68,2.29l-.57,2.49c-.2.86-.32,1.65-.57,2.58a11.16,11.16,0,0,1-2.79,4.58,28.69,28.69,0,0,1-4,3.37c-1.43,1-2.76,2.06-4.15,3.13A22.21,22.21,0,0,1,66.54,49a12.44,12.44,0,0,1-5.44,1.06c-1.84,0-3.54-.3-5.19-.39a10.76,10.76,0,0,0-4.61.68c-2.88,1.16-4.85,4-5.9,7.17a25.46,25.46,0,0,0-1.16,4.93,37.89,37.89,0,0,0-.38,5.13h-.2A26.86,26.86,0,0,1,44,57.14a15.34,15.34,0,0,1,2.19-5,10.35,10.35,0,0,1,4.28-3.65A11.87,11.87,0,0,1,56,47.58c1.8.09,3.52.41,5.14.5a10.53,10.53,0,0,0,4.68-.74,40,40,0,0,0,4.54-2.18c3-1.71,6.12-3.36,8.38-5.9a9.11,9.11,0,0,0,2.14-4.41c.21-1.61.32-3.42.62-5.14a12.08,12.08,0,0,1,.72-2.7,2.27,2.27,0,0,1,.24-.41,1.27,1.27,0,0,1,.76-.57l.23,0h.62l1.3,0c1.73,0,3.46.05,5.18.11,3.46.11,6.92.31,10.37.66Z"/><path class="cls-3" d="M43.67,71.39a138.79,138.79,0,0,0,5.19,20.17c2.17,6.6,4.64,13.1,6.87,19.73A123.07,123.07,0,0,1,61,131.64a92,92,0,0,1,1,10.47c.06,1.75,0,3.51,0,5.26a29.35,29.35,0,0,1-.65,5.2,50.21,50.21,0,0,0-.18-10.4c-.36-3.45-.88-6.88-1.53-10.28a161.38,161.38,0,0,0-5.69-20L50.47,102c-1.09-3.31-2.18-6.64-3.13-10A91.79,91.79,0,0,1,43.67,71.39Z"/><path class="cls-3" d="M141.59,67.62c0,1.78-.08,3.56-.16,5.35s-.41,3.54-.65,5.31-.67,3.5-1,5.25-.9,3.45-1.41,5.15l-1.77,5c-.63,1.66-1.26,3.32-1.83,5-1.18,3.34-2.19,6.74-3.16,10.15-.48,1.71-.93,3.42-1.44,5.11s-.95,3.41-1.46,5.1l-1.39,5.1c-.41,1.71-.86,3.41-1.3,5.11a131.58,131.58,0,0,0-3.65,20.77h-.2a68.68,68.68,0,0,1,1.79-21.27c.45-1.72.88-3.45,1.36-5.17l1.6-5.09c1.11-3.38,2.35-6.71,3.66-10s2.54-6.61,3.58-10,1.79-6.85,2.62-10.27q.58-2.58,1.29-5.13c.4-1.71.8-3.42,1.24-5.12s.71-3.45,1.11-5.17.63-3.47,1-5.21Z"/><path class="cls-2" d="M55.82,74.34A5.68,5.68,0,0,1,59,77.54a12.78,12.78,0,0,1,.91,4.52,33.12,33.12,0,0,1-1.19,9A39.59,39.59,0,0,0,57,99.92a11.55,11.55,0,0,0,2.66,8.28,14.68,14.68,0,0,0,7.46,4.45,21.56,21.56,0,0,0,8.76.37,16,16,0,0,0,7.94-3.48,12,12,0,0,0,3.91-7.73h.1a11.68,11.68,0,0,1-3.48,8.3,16.14,16.14,0,0,1-8.29,4,21.13,21.13,0,0,1-9.19-.52,14.43,14.43,0,0,1-7.63-5,12.25,12.25,0,0,1-2.05-4.1,15.74,15.74,0,0,1-.53-4.53,46.11,46.11,0,0,1,1.32-9,42.88,42.88,0,0,0,1.23-8.84,13.26,13.26,0,0,0-.64-4.35,5.69,5.69,0,0,0-2.76-3.3Z"/><path class="cls-2" d="M127.66,74.42a11.88,11.88,0,0,0-2.72,8.22,47.23,47.23,0,0,0,1.65,8.79,35.55,35.55,0,0,1,1.18,9,14.59,14.59,0,0,1-3.2,8.44,14.92,14.92,0,0,1-7.76,4.8,21.6,21.6,0,0,1-9.19.41,16.5,16.5,0,0,1-8.29-4,10.41,10.41,0,0,1-2.62-3.81,9.72,9.72,0,0,1-.57-4.52h.1a9.76,9.76,0,0,0,.93,4.32,10.2,10.2,0,0,0,2.68,3.43,16.59,16.59,0,0,0,8,3.5,22.52,22.52,0,0,0,8.77-.27,15.16,15.16,0,0,0,7.59-4.26,11.22,11.22,0,0,0,2.35-3.74,12.5,12.5,0,0,0,.92-4.35c0-3-.84-5.91-1.64-8.8a36.57,36.57,0,0,1-1.62-9c0-.39,0-.78.07-1.16a5.58,5.58,0,0,1,.15-1.15l.24-1.14c.1-.37.26-.73.39-1.09a9.24,9.24,0,0,1,1.09-2,17.65,17.65,0,0,1,1.48-1.74Z"/><path class="cls-4" d="M118.66,144c-3.76-7.51-5.14-16.16-1.37-24,2.69-5.58,7.54-10,9.72-15.78,3.36-9-2.65-16.06-2.46-24.86,0-.75.06-1.49.1-2.23.18-2.82.1-5.63.36-8.44.22-2.39.56-4.78,1-7.14.17-1,1.92-11.75,2.51-13a.07.07,0,0,0-.07-.11,17.43,17.43,0,0,0-7.21,1.15c-.29.12-.69,3.86-.79,4.46-.3,1.84-.63,3.66-.9,5.5-.49,3.39-.86,6.78-1.19,10.19C118,73,117.25,76.2,117,79.34a1.86,1.86,0,0,1-.22,1c0,.13,0,.27-.07.41.07.47,0,.82-.6.75a5,5,0,0,0-.67,0q-23,0-46,0c-.77,0-1.22-.11-1.14-1-.86-5.12-1.44-10.28-2.55-15.36-.52-2.39-.91-4.81-1.36-7.22l-.2-1.32c-.31-1.72-.6-3.45-.94-5.17-.09-.48,0-1-.47-1.4-1.63-.95-4.42-2.19-6.34-1.57a.09.09,0,0,0,0,.13c.57,1,1.84,11.24,1.95,12.08C59,65.15,60,69.57,60.14,74.09c.08,3.14,1,6,.61,9.09-.41,3.6-1.79,7.13-2.43,10.7-.78,4.4-.88,9.11,1.06,13.13,1.87,3.85,5.38,6.61,7.25,10.46A26.81,26.81,0,0,1,68.75,131C68,141.1,62.92,150.5,57.44,158.77l-.15.22,2.29-.07,2.74,0,21,0c6.17,0,12.34,0,18.51,0,8.38,0,16.75,0,25.13.11h1.51s-1-1.46-1.48-2.1A88.17,88.17,0,0,1,118.66,144Z"/><path class="cls-3" d="M127.63,160H127c-7.62-.07-16.46-.14-25.12-.12H83.34l-21,0-5,.11-.85-1.54.14-.22C61.37,151,66.94,141.45,67.76,131c.28-3.49.15-8.58-2-13a26.25,26.25,0,0,0-3.5-5,28.23,28.23,0,0,1-3.75-5.44c-1.77-3.66-2.14-8.15-1.14-13.73.28-1.59.71-3.17,1.12-4.7a41.5,41.5,0,0,0,1.3-5.94,21.19,21.19,0,0,0-.26-5.2,34,34,0,0,1-.37-3.76,65.28,65.28,0,0,0-1-8.94c-.23-1.42-.47-2.9-.66-4.36l0-.34c-1.22-9.61-1.68-11.16-1.79-11.4a1.08,1.08,0,0,1-.07-.9l.67-.64c2.48-.81,5.83.88,7.15,1.65l.12.08A2.25,2.25,0,0,1,64.25,51a2.51,2.51,0,0,0,0,.27c.24,1.25.46,2.5.68,3.76l.47,2.77c.13.72.26,1.47.4,2.23.29,1.62.59,3.3.94,4.92.74,3.37,1.25,6.81,1.74,10.14q.39,2.64.82,5.28v.15h.16q19.14,0,38.3,0h8l.06-.33.16-.39a1.69,1.69,0,0,0,0-.39c.13-1.83.41-3.59.69-5.29.23-1.42.47-2.89.61-4.32.3-3,.67-6.62,1.2-10.23.2-1.38.43-2.75.67-4.12l.23-1.4c0-.13.06-.41.1-.76.48-3.69.62-4.19,1.3-4.46a18.48,18.48,0,0,1,7.61-1.23l.89.53a1.08,1.08,0,0,1,0,1c-.14.3-.66,2.11-2.33,12.18l-.09.5c-.46,2.7-.76,4.95-1,7.07-.15,1.57-.19,3.19-.22,4.75,0,1.19-.06,2.43-.13,3.66-.05.73-.09,1.46-.11,2.19a33.07,33.07,0,0,0,1.74,9.75c1.36,4.82,2.78,9.79.66,15.44a39.15,39.15,0,0,1-5.35,9,47.08,47.08,0,0,0-4.41,6.89c-3.22,6.69-2.74,14.89,1.36,23.09h0a87.55,87.55,0,0,0,8.28,12.72c.48.65,1.5,2.12,1.5,2.12l-.81,1.56Zm-22.16-2.11c7.33,0,14.65.06,21.12.12l-.37-.5a90.24,90.24,0,0,1-8.45-13c-4.39-8.77-4.88-17.59-1.37-24.84a48.56,48.56,0,0,1,4.58-7.2,37.17,37.17,0,0,0,5.1-8.5c1.89-5,.63-9.48-.71-14.19a34.61,34.61,0,0,1-1.81-10.35c0-.75.06-1.51.1-2.26.08-1.19.11-2.41.13-3.59,0-1.59.08-3.24.23-4.88.2-2.17.51-4.47,1-7.22l.08-.5c1.12-6.78,1.74-9.92,2.11-11.43a15.62,15.62,0,0,0-5.23.94c-.16.7-.37,2.34-.46,3,0,.39-.09.69-.11.83l-.24,1.41c-.22,1.36-.45,2.72-.65,4.08-.53,3.57-.9,7.13-1.19,10.14-.15,1.48-.39,3-.63,4.44-.27,1.66-.55,3.37-.67,5a3,3,0,0,1-.26,1.25l0,.08a1.58,1.58,0,0,1-.37,1.31,1.46,1.46,0,0,1-1.34.41H107.8q-19.14,0-38.3,0a2.18,2.18,0,0,1-1.71-.56,1.83,1.83,0,0,1-.43-1.36c-.29-1.73-.55-3.46-.8-5.2-.49-3.29-1-6.7-1.72-10-.36-1.67-.66-3.36-1-5-.13-.75-.26-1.5-.4-2.24L63,55.35c-.22-1.24-.44-2.48-.68-3.72a3.4,3.4,0,0,1-.06-.46c0-.11,0-.27-.05-.34A10.52,10.52,0,0,0,57.7,49.3c.31,1.33.8,4.25,1.65,10.92l0,.33c.19,1.43.42,2.89.65,4.3a67.94,67.94,0,0,1,1.08,9.21,34.15,34.15,0,0,0,.34,3.55,22.22,22.22,0,0,1,.27,5.69,43.14,43.14,0,0,1-1.35,6.23c-.4,1.49-.82,3-1.09,4.53-.92,5.15-.6,9.24,1,12.51a25.89,25.89,0,0,0,3.51,5.05A29,29,0,0,1,67.53,117c2.36,4.86,2.5,10.33,2.21,14.07-.8,10.28-5.9,19.62-10.57,26.83l3.13-.06h0l21,0h22.12ZM57.32,48.1h0Z"/></svg>