<svg id="图层_1" data-name="图层 1" xmlns="http://www.w3.org/2000/svg" viewBox="0 0 186 186"><defs><style>.cls-1{fill:#f5e3ea;}.cls-2{fill:#e4cbd4;}.cls-3{fill:#5b3b2f;}.cls-4{fill:#fff;}</style></defs><path class="cls-1" d="M82.28,26.89h18.11c.59,0,1.58,3,1.61,3.51.39,7.71,4,10.94,11.25,15.54A20.77,20.77,0,0,0,121.09,49c2.81.43,5.54-.85,8.4-.25,7.22,1.5,14.06,8.85,13.15,15.9L141,73.79c-5,28.82-18.88,50-18.88,78.51h0l-60.87-.66h0c1-8-1.49-20.3-3-26.83-1.66-7.23-3.6-11.52-6.05-18.51-2.29-6.56-1.91-7.33-5.7-20-1-3.46-1.43-4-1.92-7.53s-.86-10.42-1-13.91c-.16-4.14.34-8.39,2.61-12,1.95-3.11,5.3-4.38,8.88-4.2s6.38,1.08,9.91-.27c2.83-1.08,4.62-2.6,7.18-4.06,4.31-2.46,9-5.75,9.94-9.94.16-.74-.29-7.49.66-7.49h17.46"/><path class="cls-2" d="M102.66,58.7a9.26,9.26,0,0,1,6.28-3.64,17.51,17.51,0,0,1,7.44.52c2.43.75,4.57,2,6.86,2.69a6.23,6.23,0,0,0,3.32.21,4.56,4.56,0,0,0,2.49-1.9h0a.75.75,0,0,1,1-.19.74.74,0,0,1,.18,1l0,0a5.92,5.92,0,0,1-3.4,2.29,7.47,7.47,0,0,1-3.95-.41c-2.42-.85-4.5-2.24-6.75-3.05a17,17,0,0,0-7.16-.86A9.08,9.08,0,0,0,102.66,58.7Z"/><path class="cls-2" d="M80.36,59.23a15.25,15.25,0,0,0-14-2.91c-2.33.75-4.46,2.15-6.89,3.06a10.74,10.74,0,0,1-3.9.82,6,6,0,0,1-3.91-1.48l0,0a.75.75,0,0,1-.06-1.05.73.73,0,0,1,1-.06l0,0a4.56,4.56,0,0,0,3,1.29,9.52,9.52,0,0,0,3.48-.57c2.34-.74,4.54-2,7.06-2.72A15.6,15.6,0,0,1,80.36,59.23Z"/><path class="cls-2" d="M92.72,58.7a2.79,2.79,0,0,1-.4,1.63A2.74,2.74,0,0,1,91,61.51a2.79,2.79,0,0,1-1.8.06,3.65,3.65,0,0,1-.78-.35,4.1,4.1,0,0,1-.64-.53,6.44,6.44,0,0,1,.8.07c.26,0,.51.05.75,0a3.38,3.38,0,0,0,1.3-.21A5.31,5.31,0,0,0,92.72,58.7Z"/><path class="cls-2" d="M86.26,41.31l.55,5c.1.91.23,1.81.39,2.71a13.34,13.34,0,0,0,.55,2.22,8.84,8.84,0,0,1-1-2.62A11.48,11.48,0,0,1,86.39,47a25.83,25.83,0,0,1-.23-3.16A19.55,19.55,0,0,1,86.26,41.31Z"/><path class="cls-2" d="M96.2,39.32a48.2,48.2,0,0,1-1.08,5.58c-.25.91-.49,1.83-.8,2.72a13.83,13.83,0,0,1-1.11,2.63c.3-.9.51-1.82.74-2.73l.69-2.75C95.11,43,95.59,41.12,96.2,39.32Z"/><path class="cls-3" d="M83,26.8c3.41-.39,6.83-.59,10.25-.7C95,26,96.66,26,98.37,26c.86,0,1.71,0,2.57,0h.33a1,1,0,0,1,.25.09.9.9,0,0,1,.29.2,1.64,1.64,0,0,1,.36.56,4.54,4.54,0,0,1,.2.76,10.77,10.77,0,0,1,.16,1.35c.07.86.08,1.78.09,2.59a12.55,12.55,0,0,0,.32,2.44,11.38,11.38,0,0,0,2.12,4.47c2,2.69,5,4.5,7.94,6.17a34.19,34.19,0,0,0,4.5,2.23,18.42,18.42,0,0,0,4.69,1.21,23.57,23.57,0,0,0,4.89-.47,10.48,10.48,0,0,1,2.8,0,12.59,12.59,0,0,1,2.71.74,16.75,16.75,0,0,1,7.93,7.13,14.59,14.59,0,0,1,1.94,10.17l-.2,0a15.61,15.61,0,0,0-3.07-9.29,16.53,16.53,0,0,0-7.38-6,8.92,8.92,0,0,0-4.53-.65A23.75,23.75,0,0,1,122,50a21.37,21.37,0,0,1-9.58-4.34,36.47,36.47,0,0,1-7.83-6.74A15.72,15.72,0,0,1,102,34.3a14.37,14.37,0,0,1-.62-2.59c-.1-.89-.21-1.68-.37-2.51-.08-.4-.17-.8-.27-1.17a3.15,3.15,0,0,0-.16-.47s-.07-.09,0,0,.1.08.16.11a.78.78,0,0,0,.18,0h-.06c-.86,0-1.71,0-2.56,0-1.71,0-3.42,0-5.12-.1-3.41-.11-6.83-.31-10.24-.7Z"/><path class="cls-3" d="M101,27c-3.46.36-6.92.56-10.38.67-1.73.06-3.45.1-5.18.11l-1.3,0H83.5l.15,0c.33-.12.28-.19.28-.15s-.05.08-.09.14a17.47,17.47,0,0,0-.68,2.29l-.57,2.5c-.2.85-.32,1.65-.56,2.58a11.29,11.29,0,0,1-2.8,4.58,28.69,28.69,0,0,1-4,3.37c-1.43,1-2.77,2.06-4.15,3.13A22,22,0,0,1,66.52,49a12.28,12.28,0,0,1-5.44,1.07c-1.84,0-3.54-.31-5.2-.39a10.65,10.65,0,0,0-4.61.68c-2.88,1.16-4.85,4-5.9,7.17a24.75,24.75,0,0,0-1.16,4.93,38.13,38.13,0,0,0-.38,5.13l-.2,0A26.72,26.72,0,0,1,44,57.16a15.49,15.49,0,0,1,2.19-5,10.29,10.29,0,0,1,4.29-3.64A11.58,11.58,0,0,1,56,47.6c1.8.09,3.51.4,5.14.49a10.53,10.53,0,0,0,4.68-.74,39.18,39.18,0,0,0,4.54-2.18c3-1.71,6.13-3.36,8.39-5.9a9.11,9.11,0,0,0,2.14-4.41c.21-1.62.32-3.43.63-5.15a12.08,12.08,0,0,1,.72-2.7,2.54,2.54,0,0,1,.23-.41,1.34,1.34,0,0,1,.77-.57l.22,0h.63l1.3,0c1.73,0,3.45.05,5.18.11,3.46.11,6.92.31,10.38.67Z"/><path class="cls-3" d="M43.63,71.42a140.38,140.38,0,0,0,5.2,20.19c2.17,6.6,4.65,13.1,6.88,19.73A123.3,123.3,0,0,1,61,131.71a89.76,89.76,0,0,1,1,10.47c.06,1.76,0,3.51,0,5.26a29.46,29.46,0,0,1-.65,5.21,50.3,50.3,0,0,0-.18-10.41c-.36-3.45-.88-6.88-1.53-10.29a160.34,160.34,0,0,0-5.7-20l-3.39-9.88c-1.1-3.32-2.19-6.65-3.14-10A92.56,92.56,0,0,1,43.63,71.42Z"/><path class="cls-3" d="M141.62,67.65c0,1.83-.08,3.67-.18,5.51h0c-.2,1.82-.42,3.65-.69,5.46s-.68,3.61-1.08,5.41-.9,3.55-1.43,5.31l-1.79,5.19c-.65,1.72-1.28,3.43-1.86,5.16-1.19,3.45-2.21,7-3.18,10.48-.49,1.76-.94,3.53-1.46,5.27s-1,3.52-1.47,5.26L127.07,126l-1.33,5.28A138.61,138.61,0,0,0,122,152.65h-.2a72.42,72.42,0,0,1,1.91-21.9c.46-1.78.89-3.57,1.39-5.33l1.62-5.26c1.12-3.48,2.36-6.92,3.68-10.33S132.93,103,134,99.5s1.82-7.07,2.67-10.6c.41-1.77.83-3.54,1.31-5.29s.83-3.52,1.28-5.28.73-3.55,1.15-5.32.64-3.58,1-5.38Z"/><path class="cls-2" d="M56.32,73a5.67,5.67,0,0,1,3.2,3.19,12.61,12.61,0,0,1,.91,4.52,33.1,33.1,0,0,1-1.19,9,39.31,39.31,0,0,0-1.78,8.79,11.48,11.48,0,0,0,2.68,8.26,14.69,14.69,0,0,0,7.46,4.43,21.7,21.7,0,0,0,8.75.37,16.16,16.16,0,0,0,7.93-3.47,12,12,0,0,0,3.92-7.72h.09a11.64,11.64,0,0,1-3.48,8.29,16.19,16.19,0,0,1-8.29,3.94,21.14,21.14,0,0,1-9.16-.51,14.33,14.33,0,0,1-7.64-5A12.09,12.09,0,0,1,57.66,103a15.76,15.76,0,0,1-.54-4.52,46.55,46.55,0,0,1,1.32-9,42.21,42.21,0,0,0,1.23-8.84A12.88,12.88,0,0,0,59,76.37a5.73,5.73,0,0,0-2.76-3.3Z"/><path class="cls-2" d="M126.73,74.05a11.53,11.53,0,0,0-2.65,8,46.18,46.18,0,0,0,1.6,8.54,34.09,34.09,0,0,1,1.15,8.76,14.22,14.22,0,0,1-3.11,8.2,14.49,14.49,0,0,1-7.55,4.66,21.19,21.19,0,0,1-8.93.4,16,16,0,0,1-8-3.84,10.11,10.11,0,0,1-2.55-3.71,9.3,9.3,0,0,1-.55-4.39h.09a9.58,9.58,0,0,0,3.51,7.52,16.14,16.14,0,0,0,7.73,3.4,21.64,21.64,0,0,0,8.52-.27,14.84,14.84,0,0,0,7.38-4.12,11.06,11.06,0,0,0,2.29-3.64,12.5,12.5,0,0,0,.89-4.23,30.31,30.31,0,0,0-1.59-8.55,35,35,0,0,1-1.57-8.72c0-.38,0-.76.06-1.13a6.13,6.13,0,0,1,.14-1.12l.24-1.1h0c.1-.36.26-.71.38-1.06a8.5,8.5,0,0,1,1.06-2A16.67,16.67,0,0,1,126.66,74Z"/><path class="cls-4" d="M56.44,159h0c.56-.95,1.3-2.13,2.12-3.46,2.84-4.55,6.36-10.22,7.37-13.64,2.14-7.32,2.31-14.41.49-20.5a47.69,47.69,0,0,0-4.07-8.94A52.36,52.36,0,0,1,58.8,105a24.33,24.33,0,0,1-1-11.54A28.81,28.81,0,0,1,59,88.84c.82-2.57,1.67-5.22,1.47-7.86a3.48,3.48,0,0,1,.84-2.44L64.29,75a1.38,1.38,0,0,1,1-.48h53.18a1.3,1.3,0,0,1,.52.1c.27.16,1.34,1.32,3.49,4.62a8.62,8.62,0,0,1,.88,4.06c0,.65.09,1.32.18,2s.26,1.57.41,2.36.36,1.73.55,2.6c1.17,5.51,2.29,10.72-.38,15.62-1,1.81-2.09,3.54-3.15,5.21a50.17,50.17,0,0,0-5.18,9.59c-2.85,7.69-2.27,16.79,1.59,25a55.56,55.56,0,0,0,7,11c.19.24.74.86,1.35,1.53a.52.52,0,0,1-.39.87Z"/><path class="cls-3" d="M118.51,75.52h0a30.76,30.76,0,0,1,3.14,4.27,8,8,0,0,1,.72,3.58c0,.67.09,1.36.19,2s.24,1.51.42,2.41.36,1.74.54,2.62c1.14,5.33,2.22,10.36-.27,14.94-1,1.77-2.06,3.49-3.12,5.15a50.87,50.87,0,0,0-5.27,9.78c-2.94,7.93-2.35,17.31,1.62,25.73a56.28,56.28,0,0,0,7.11,11.21c.11.13.33.39.67.77H58.2l1.2-1.94c2.87-4.61,6.44-10.34,7.48-13.89,2.2-7.51,2.37-14.79.49-21.06A48.84,48.84,0,0,0,63.23,112a52.23,52.23,0,0,1-3.5-7.35,23.48,23.48,0,0,1-.93-11.06A29.17,29.17,0,0,1,60,89.14c.85-2.65,1.73-5.4,1.52-8.23a2.51,2.51,0,0,1,.62-1.74l2.93-3.52a.37.37,0,0,1,.28-.13h53.18m0-2H65.33a2.32,2.32,0,0,0-1.8.85L60.59,77.9a4.41,4.41,0,0,0-1.07,3.16c.3,4-2.1,8.3-2.69,12.22a25.39,25.39,0,0,0,1,12c2,5.71,5.85,10.56,7.6,16.39,2,6.51,1.41,13.48-.49,19.93-1.34,4.56-7.67,13.81-9.81,17.61a.51.51,0,0,0,.45.77h72a.51.51,0,0,0,.38-.86c-1-1-2.48-2.75-2.8-3.15a54.16,54.16,0,0,1-6.86-10.81c-3.54-7.49-4.47-16.33-1.56-24.19,2-5.46,5.53-9.62,8.28-14.67,3.28-6,1.17-12.58-.07-18.89-.15-.78-.29-1.55-.4-2.32-.31-2,0-4.61-1.22-6.4-1-1.5-3.1-4.65-3.93-5a2.34,2.34,0,0,0-.91-.18Z"/></svg>