<svg id="图层_1" data-name="图层 1" xmlns="http://www.w3.org/2000/svg" viewBox="0 0 186 186"><defs><style>.cls-1{fill:#f5e3ea;}.cls-2{fill:#e4cbd4;}.cls-3{fill:#5b3b2f;}.cls-4{fill:#fff;}</style></defs><path class="cls-1" d="M82.37,26.89h18c.59,0,1.57,3,1.59,3.48.39,7.64,4,10.84,11.17,15.41a20.65,20.65,0,0,0,7.77,3c2.79.42,5.49-.85,8.33-.25,7.16,1.49,13.95,8.77,13.05,15.77l-1.63,9.06C135.68,102,121.88,123,121.88,151.28l-60.38-.64c1-7.89-1.47-20.14-3-26.62-1.65-7.18-3.57-11.43-6-18.36-2.27-6.5-1.89-7.27-5.65-19.86-1-3.43-1.42-3.91-1.91-7.47S44.14,68,44,64.53c-.16-4.1.34-8.32,2.59-11.9,1.93-3.08,5.26-4.34,8.81-4.16s6.32,1.07,9.83-.27c2.81-1.07,4.58-2.58,7.12-4,4.27-2.43,8.94-5.7,9.86-9.86.16-.74-.29-7.42.65-7.42h17.32"/><path class="cls-2" d="M102.58,58.43a9.17,9.17,0,0,1,6.23-3.6,17.39,17.39,0,0,1,7.38.51c2.41.74,4.54,2,6.8,2.67a6.12,6.12,0,0,0,3.29.2,4.43,4.43,0,0,0,2.47-1.87h0a.74.74,0,0,1,1.21.85l0,0a5.86,5.86,0,0,1-3.37,2.28,7.36,7.36,0,0,1-3.92-.41c-2.4-.84-4.46-2.22-6.7-3a16.91,16.91,0,0,0-7.1-.86A9,9,0,0,0,102.58,58.43Z"/><path class="cls-2" d="M80.46,59a15.09,15.09,0,0,0-13.93-2.88c-2.31.74-4.43,2.13-6.84,3a10.38,10.38,0,0,1-3.87.81,6,6,0,0,1-3.88-1.47h0a.74.74,0,0,1,1-1.11l0,0a4.53,4.53,0,0,0,2.94,1.28,9.56,9.56,0,0,0,3.45-.56c2.32-.74,4.51-2,7-2.7A15.47,15.47,0,0,1,80.46,59Z"/><path class="cls-2" d="M92.72,58.43a2.88,2.88,0,0,1-.39,1.63A2.77,2.77,0,0,1,91,61.23a2.69,2.69,0,0,1-1.77.05,3.91,3.91,0,0,1-.78-.34,4.16,4.16,0,0,1-.64-.54c.29,0,.55.05.8.08s.5.05.74,0a3.36,3.36,0,0,0,1.29-.21A5.17,5.17,0,0,0,92.72,58.43Z"/><path class="cls-2" d="M86.31,41.18l.55,5c.09.83.21,1.65.35,2.47a14.8,14.8,0,0,0,.58,2.43,7.9,7.9,0,0,1-1-2.35,17.62,17.62,0,0,1-.47-2.49c-.09-.84-.15-1.68-.16-2.52A21.24,21.24,0,0,1,86.31,41.18Z"/><path class="cls-2" d="M96.17,39.21a45,45,0,0,1-1.07,5.53c-.24.91-.49,1.82-.79,2.71a13.53,13.53,0,0,1-1.1,2.6c.3-.89.51-1.8.74-2.71l.67-2.72C95.09,42.81,95.57,41,96.17,39.21Z"/><path class="cls-3" d="M83.07,26.79c3.39-.38,6.78-.59,10.17-.69,1.7-.07,3.39-.07,5.09-.1.85,0,1.7,0,2.54,0h.34a1.47,1.47,0,0,1,.25.08,1.19,1.19,0,0,1,.28.21,1.42,1.42,0,0,1,.35.56,4.47,4.47,0,0,1,.21.74c.09.47.12.91.16,1.34.07.86.07,1.77.09,2.58a11.71,11.71,0,0,0,.31,2.42,11.38,11.38,0,0,0,2.1,4.43c2,2.67,5,4.46,7.88,6.11a33.66,33.66,0,0,0,4.46,2.22,18.11,18.11,0,0,0,4.65,1.2,23.14,23.14,0,0,0,4.85-.47,10.41,10.41,0,0,1,2.79,0,12.31,12.31,0,0,1,2.68.73,16.61,16.61,0,0,1,7.86,7.07,14.41,14.41,0,0,1,1.93,10.09l-.2,0a15.53,15.53,0,0,0-3-9.22,16.45,16.45,0,0,0-7.32-6,11.58,11.58,0,0,0-2.21-.61,10.79,10.79,0,0,0-2.28,0,24.12,24.12,0,0,1-5.27.27,21.24,21.24,0,0,1-9.5-4.31,35.6,35.6,0,0,1-7.76-6.69A15.59,15.59,0,0,1,102,34.23a13.92,13.92,0,0,1-.6-2.57c-.11-.88-.22-1.66-.37-2.48q-.12-.62-.27-1.17a3,3,0,0,0-.16-.46c0-.06-.07-.09,0,0a.47.47,0,0,0,.16.11.54.54,0,0,0,.18.06h-.07c-.85,0-1.69,0-2.54,0-1.69,0-3.38,0-5.07-.1-3.39-.1-6.77-.3-10.16-.68Z"/><path class="cls-3" d="M100.88,27c-3.43.34-6.86.55-10.29.66-1.71.06-3.43.09-5.14.11H83.58a.32.32,0,0,0,.14,0c.33-.11.28-.18.28-.15a1.55,1.55,0,0,0-.08.15A15.38,15.38,0,0,0,83.24,30l-.57,2.47c-.19.85-.31,1.64-.56,2.56a11.18,11.18,0,0,1-2.77,4.55,28.72,28.72,0,0,1-4,3.34c-1.43,1-2.75,2.05-4.13,3.11a21.54,21.54,0,0,1-4.48,2.8,12.31,12.31,0,0,1-5.41,1.06c-1.82,0-3.51-.3-5.15-.38a10.45,10.45,0,0,0-4.57.67c-2.86,1.15-4.81,4-5.85,7.12a23.59,23.59,0,0,0-1.15,4.88,37.57,37.57,0,0,0-.38,5.1H44a26.45,26.45,0,0,1,.35-10.4A15.14,15.14,0,0,1,46.55,52a10.27,10.27,0,0,1,4.25-3.62,11.8,11.8,0,0,1,5.5-.92c1.78.09,3.49.41,5.1.49A10.49,10.49,0,0,0,66,47.18,38.7,38.7,0,0,0,70.55,45c3-1.69,6.07-3.33,8.31-5.85A9,9,0,0,0,81,34.78c.21-1.6.32-3.39.62-5.1A12.06,12.06,0,0,1,82.32,27a2.72,2.72,0,0,1,.24-.42,1.27,1.27,0,0,1,.76-.56l.22,0h.62l1.29,0c1.71,0,3.43.05,5.14.11,3.43.11,6.86.31,10.29.66Z"/><path class="cls-3" d="M44,71.06a140,140,0,0,0,5.16,20c2.15,6.54,4.61,13,6.82,19.57a121.52,121.52,0,0,1,5.21,20.2,88.59,88.59,0,0,1,1,10.39c.06,1.74.05,3.48,0,5.22a28.79,28.79,0,0,1-.65,5.16,49.44,49.44,0,0,0-.17-10.32c-.35-3.42-.88-6.83-1.52-10.2a159,159,0,0,0-5.65-19.82l-3.37-9.81c-1.09-3.29-2.17-6.59-3.11-9.93A92.29,92.29,0,0,1,44,71.06Z"/><path class="cls-3" d="M141.22,67.31q0,2.73-.18,5.46c-.19,1.81-.41,3.62-.68,5.43s-.67,3.58-1.06,5.36-.9,3.52-1.43,5.26L136.1,94c-.64,1.7-1.27,3.4-1.84,5.12-1.19,3.42-2.19,6.9-3.16,10.39-.49,1.74-.93,3.5-1.44,5.23s-1,3.48-1.47,5.21l-1.4,5.23-1.31,5.23a136.5,136.5,0,0,0-3.74,21.23h-.2a71.61,71.61,0,0,1,1.89-21.72c.46-1.76.88-3.54,1.38-5.29l1.6-5.21c1.12-3.46,2.35-6.87,3.66-10.25s2.54-6.78,3.58-10.25,1.8-7,2.64-10.51c.41-1.76.83-3.51,1.31-5.24s.82-3.5,1.26-5.25.73-3.51,1.14-5.27.64-3.55,1-5.33Z"/><path class="cls-2" d="M84.18,80.65s8.87,12.81,15.77,0c.32,0-8.23,17.37-8.23,17.37Z"/><path class="cls-2" d="M56.62,72.6a5.59,5.59,0,0,1,3.17,3.17,12.57,12.57,0,0,1,.91,4.48,33.25,33.25,0,0,1-1.18,9,38.78,38.78,0,0,0-1.77,8.73,11.37,11.37,0,0,0,2.66,8.19,14.48,14.48,0,0,0,7.4,4.39,21.47,21.47,0,0,0,8.67.36,15.91,15.91,0,0,0,7.87-3.44,11.82,11.82,0,0,0,3.88-7.65h.1A11.57,11.57,0,0,1,84.88,108a16.08,16.08,0,0,1-8.22,3.91,20.88,20.88,0,0,1-9.1-.51A14.3,14.3,0,0,1,60,106.47a11.86,11.86,0,0,1-2-4.06,15.45,15.45,0,0,1-.54-4.48A46,46,0,0,1,58.72,89a41.45,41.45,0,0,0,1.22-8.76,12.7,12.7,0,0,0-.63-4.3,5.69,5.69,0,0,0-2.73-3.27Z"/><path class="cls-2" d="M126.45,73.67a11.46,11.46,0,0,0-2.63,7.92,46.45,46.45,0,0,0,1.6,8.47,34.37,34.37,0,0,1,1.14,8.69,14.08,14.08,0,0,1-3.09,8.13,14.34,14.34,0,0,1-7.49,4.63,21,21,0,0,1-8.85.39,15.93,15.93,0,0,1-8-3.81,10,10,0,0,1-2.53-3.68,9.39,9.39,0,0,1-.55-4.35h.1a9.45,9.45,0,0,0,3.48,7.47,16,16,0,0,0,7.66,3.37,21.72,21.72,0,0,0,8.46-.27,14.61,14.61,0,0,0,7.31-4.09,10.72,10.72,0,0,0,2.27-3.61,12,12,0,0,0,.89-4.19,30.11,30.11,0,0,0-1.58-8.48,34.91,34.91,0,0,1-1.56-8.66q0-.55.06-1.11a5.12,5.12,0,0,1,.15-1.11l.23-1.1c.1-.36.25-.7.38-1a8.82,8.82,0,0,1,1-2,17.39,17.39,0,0,1,1.42-1.67Z"/><path class="cls-4" d="M93.89,92.83a.56.56,0,0,1-1.08,0,19.36,19.36,0,0,0-4.06-8.19c-5.07-6.16-10.5-7.71-15.2-7.35-8.44.64-13.88,4.87-15.43,15.55a25.27,25.27,0,0,0,1,12c2,5.66,5.81,10.48,7.54,16.25,1.94,6.46,1.39,13.37-.49,19.77-1.68,5.72-7,14.75-8.57,17.41a.51.51,0,0,0,.43.78c.92,0,2.36,0,3.18,0h67.08a.51.51,0,0,0,.38-.85c-1-1-2.46-2.73-2.78-3.12a53.82,53.82,0,0,1-6.8-10.72c-3.51-7.44-4.43-16.2-1.54-24a30.51,30.51,0,0,1,4.2-8.43c3.47-5.24,5.71-8.66,5.77-15.44,0-5.35-1.3-11.42-5.25-15.36-4.86-4.83-12.89-4.63-18.65-1.6C98.14,82.37,95.7,87.3,93.89,92.83Z"/><path class="cls-3" d="M128.31,160H61.23c-.83,0-2.27,0-3.2,0a1.5,1.5,0,0,1-1.26-2.27c1.58-2.62,6.84-11.59,8.48-17.19,2-6.89,2.19-13.53.49-19.2a46.35,46.35,0,0,0-3.88-8.51,55,55,0,0,1-3.65-7.7,26.28,26.28,0,0,1-1.07-12.43C58.66,82.21,63.85,77,73.48,76.26c6-.46,11.44,2.14,16,7.72a20.37,20.37,0,0,1,3.9,7.2c1.73-4.9,4.26-9.68,9.77-12.57,5.68-3,14.3-3.69,19.8,1.78,4.91,4.89,5.59,12.17,5.55,16.07-.07,7.12-2.53,10.83-5.93,16a29.65,29.65,0,0,0-4.11,8.23c-2.64,7.13-2.09,15.6,1.51,23.24a52.7,52.7,0,0,0,6.68,10.52c.13.16.66.77,2.74,3.08a1.49,1.49,0,0,1,.26,1.61A1.5,1.5,0,0,1,128.31,160Zm-69.43-2,2.35,0h66c-1.18-1.31-1.88-2.11-2.1-2.37a55,55,0,0,1-6.92-10.92c-3.83-8.11-4.41-17.14-1.58-24.76a31.91,31.91,0,0,1,4.31-8.64c3.34-5,5.54-8.36,5.61-14.9.06-6.11-1.75-11.45-5-14.65-4.58-4.56-12.26-4.17-17.49-1.43-5.4,2.83-7.65,7.81-9.28,12.77h0a1.55,1.55,0,0,1-3-.14A18.27,18.27,0,0,0,88,85.23c-4.16-5.06-9-7.41-14.36-7-8.67.66-13.16,5.2-14.54,14.71a24.39,24.39,0,0,0,1,11.49,52.08,52.08,0,0,0,3.53,7.43,48.21,48.21,0,0,1,4,8.87c1.81,6,1.64,13.07-.49,20.33C65.56,146.45,60.85,154.69,58.88,158Zm35-65.17h0Z"/></svg>