<svg id="图层_1" data-name="图层 1" xmlns="http://www.w3.org/2000/svg" viewBox="0 0 186 186"><defs><style>.cls-1{fill:#e4cbd4;}.cls-2{fill:#9b9692;}.cls-3{fill:#5b3b2f;}.cls-4{fill:#f2f2f2;}</style></defs><path class="cls-1" d="M112.24,55.82a2.39,2.39,0,0,1-.34-2.28,3.37,3.37,0,0,1,1.72-1.69,11.75,11.75,0,0,1,4.54-1.08,27,27,0,0,1,4.59.09,32.75,32.75,0,0,1,4.5.75c-1.53.07-3,0-4.54,0s-3,0-4.47.13l-1.11.08c-.37,0-.72.12-1.09.16a5.25,5.25,0,0,0-1.06.22,5.13,5.13,0,0,0-1,.32l-.49.2L113,53a1.21,1.21,0,0,0-.38.33,1.27,1.27,0,0,0-.31.39A2.3,2.3,0,0,0,112.24,55.82Z"/><path class="cls-1" d="M109.08,55.82a2.32,2.32,0,0,0-.24-1.34,3.22,3.22,0,0,0-.94-1,10.29,10.29,0,0,0-2.49-1.22,43.07,43.07,0,0,0-5.47-1.44c-1.85-.41-3.73-.74-5.6-1.1a50,50,0,0,1-5.61-1.3c1.91.21,3.82.28,5.73.52s3.8.51,5.69.9a28.3,28.3,0,0,1,5.56,1.7,9.19,9.19,0,0,1,2.5,1.56,3.71,3.71,0,0,1,.87,1.24A2.12,2.12,0,0,1,109.08,55.82Z"/><path class="cls-2" d="M113.53,38.14a57.93,57.93,0,0,1,0,6.18c-.06,2,0,4,0,6.14a15.64,15.64,0,0,1-1-6.17A24.73,24.73,0,0,1,113.53,38.14Z"/><path class="cls-1" d="M133.93,60.29a20.43,20.43,0,0,0-1.59,4,35.22,35.22,0,0,0-.89,4.2l-.16,1.07-.11,1.07c-.11.72-.11,1.44-.19,2.16L130.86,75c0,.73,0,1.46-.11,2.19-.15-.72-.25-1.44-.38-2.17s-.14-1.47-.16-2.21a24.45,24.45,0,0,1,.25-4.44,20.33,20.33,0,0,1,1.15-4.31A11.42,11.42,0,0,1,133.93,60.29Z"/><path class="cls-2" d="M116.08,26.06c.69,3.26,1.45,6.49,2.4,9.65.48,1.58,1.12,3.1,1.57,4.68s.92,3.13,1.34,4.78a.08.08,0,0,1,0,.1.11.11,0,0,1-.08,0,15.59,15.59,0,0,1-2.61-4.36A26.76,26.76,0,0,1,117.34,36a72.81,72.81,0,0,1-1.41-9.93A.08.08,0,0,1,116,26,.08.08,0,0,1,116.08,26.06Z"/><path class="cls-2" d="M82.64,159a12,12,0,0,1-2.34-9.69,14.69,14.69,0,0,1,.69-2.52,22.22,22.22,0,0,1,1.15-2.29,6.92,6.92,0,0,0,.82-2.11,2.66,2.66,0,0,0-.27-1.9A3.7,3.7,0,0,0,81,139.32a19.33,19.33,0,0,0-2.3-.72,22.1,22.1,0,0,1-2.46-.74L73.9,137c-3.12-1.22-6.19-2.57-9.22-4a151.4,151.4,0,0,1-17.5-9.89c-2.79-1.86-5.5-3.82-8.21-5.75a83,83,0,0,1-8-6.16,19.65,19.65,0,0,1-3.3-4,7.37,7.37,0,0,1-1.06-2.52,6.8,6.8,0,0,1,0-2.77,13,13,0,0,1,2.25-4.71c1-1.38,2.05-2.66,3.05-4l12.2-15.83L68.55,45.66a.1.1,0,1,1,.15.12l-24,32-12,16c-1,1.33-2,2.66-2.9,4A11.77,11.77,0,0,0,28,102.1a5.56,5.56,0,0,0,1,4.21,17.58,17.58,0,0,0,3.13,3.61,81.71,81.71,0,0,0,8,5.79c2.74,1.91,5.44,3.84,8.21,5.65a169.52,169.52,0,0,0,17.15,10c3,1.48,6,2.87,9,4.13l2.3.92a17.81,17.81,0,0,0,2.31.73,20.19,20.19,0,0,1,2.46.81,5,5,0,0,1,2.34,1.71,4,4,0,0,1,.44,2.94,8.29,8.29,0,0,1-1,2.52,19.45,19.45,0,0,0-1.13,2.15,12,12,0,0,0-.81,2.24,12.35,12.35,0,0,0-.31,4.77,11.57,11.57,0,0,0,1.69,4.57.1.1,0,0,1,0,.14A.11.11,0,0,1,82.64,159Z"/><path class="cls-3" d="M77.66,70.62a8,8,0,0,0-5,.88,16.33,16.33,0,0,0-4,3.09,93.93,93.93,0,0,0-7,8C57.21,88.17,52.82,93.9,48,99.25a.11.11,0,0,1-.15,0,.1.1,0,0,1,0-.13c2.22-2.83,4.32-5.75,6.39-8.68l6.27-8.79c1.06-1.45,2.13-2.91,3.21-4.36a28.92,28.92,0,0,1,3.59-4.2,13.81,13.81,0,0,1,4.83-3,7.85,7.85,0,0,1,2.88-.4,6.71,6.71,0,0,1,2.71.74.11.11,0,0,1,0,.14A.11.11,0,0,1,77.66,70.62Z"/><path class="cls-2" d="M41.29,101.15a13.63,13.63,0,0,1,8.42.31A24.34,24.34,0,0,1,57,105.91c2.18,1.83,4.16,3.87,6.17,5.8s4.11,3.8,6.27,5.58,4.38,3.46,6.65,5.08l3.42,2.38c1.13.8,2.32,1.48,3.51,2.24a32,32,0,0,1,6.84,5.23A10.89,10.89,0,0,1,92.2,136a7.56,7.56,0,0,1,.19,4.31.1.1,0,0,1-.12.08.09.09,0,0,1-.07-.11,8.59,8.59,0,0,0-3.26-7.09,40.31,40.31,0,0,0-6.89-4.51,75.86,75.86,0,0,1-13.69-10.1c-2.1-1.9-4.16-3.85-6.13-5.87s-3.84-4.12-5.91-6A24,24,0,0,0,49.49,102a13.22,13.22,0,0,0-8.15-.7.1.1,0,0,1-.12-.08A.09.09,0,0,1,41.29,101.15Z"/><path class="cls-2" d="M118.08,35.69a19.16,19.16,0,0,0,10.78,8.52,16.08,16.08,0,0,0,6.8.57,9.47,9.47,0,0,1,3.91.47,7.53,7.53,0,0,1,3.31,2.22A8.81,8.81,0,0,1,144.66,51a14.4,14.4,0,0,1,.49,3.72c0,1.25-.11,2.45-.19,3.65l-.23,3.6c-.28,4.8-.42,9.61-.47,14.42l-.12,14.4c0,4.79.07,9.58.24,14.35a45,45,0,0,0,.63,7,26.61,26.61,0,0,0,2.22,6.6,55.17,55.17,0,0,1,2.72,6.74,68.15,68.15,0,0,1,1.67,7.06.1.1,0,0,1-.08.12.09.09,0,0,1-.11-.06c-.82-2.27-1.54-4.57-2.46-6.76s-2-4.26-3.17-6.41a26.69,26.69,0,0,1-2.69-6.9,43.78,43.78,0,0,1-.83-7.32,233.87,233.87,0,0,1,.93-28.89c.39-4.8.76-9.59.87-14.4,0-1.2.06-2.4,0-3.6s0-2.41-.1-3.56a10,10,0,0,0-2.37-6.15,7.37,7.37,0,0,0-5.86-2.07,17.4,17.4,0,0,1-3.75,0,18.33,18.33,0,0,1-3.67-.87,17.75,17.75,0,0,1-10.47-9.87.1.1,0,0,1,0-.13A.09.09,0,0,1,118.08,35.69Z"/><path class="cls-2" d="M96.75,26.08a51.16,51.16,0,0,1,2.06,6.54c.5,2.2,1.29,4.39,1.28,6.81a5.73,5.73,0,0,1-1.18,3.51,7.27,7.27,0,0,1-.68.68c-.26.18-.52.38-.78.54l-.79.43-.82.37a18,18,0,0,1-7,1.24,21.51,21.51,0,0,1-7-1.21,17.8,17.8,0,0,0-6.23-1.38,7.16,7.16,0,0,0-3,.61A13.17,13.17,0,0,0,70,45.92c-1.7,1.41-3.31,3-5,4.6a.1.1,0,0,1-.14,0,.12.12,0,0,1,0-.13,42.13,42.13,0,0,1,4.21-5.49,13,13,0,0,1,2.86-2.24,9.06,9.06,0,0,1,3.64-1,13.55,13.55,0,0,1,3.67.38c.57.16,1.15.34,1.71.53l1.63.63a19.28,19.28,0,0,0,6.35,1.45,16.69,16.69,0,0,0,6.44-.86l.76-.31.73-.35c.23-.13.42-.27.64-.4a6.64,6.64,0,0,0,.55-.51,4.55,4.55,0,0,0,1-2.81c.15-2.16-.48-4.4-.87-6.65a50.62,50.62,0,0,0-1.67-6.6.11.11,0,0,1,.07-.12A.09.09,0,0,1,96.75,26.08Z"/><path class="cls-4" d="M88.92,159.84c-.2-6.69,2.68-14,2.48-13.8a56.94,56.94,0,0,0,1-18.68L129.12,101l5.35,12,5.17,7.63c4.28,4.86,9.56,8.83,13.26,14.2s6.6,13.28,6.53,19.95"/><path class="cls-4" d="M88,159c0-6.71,2.92-12.91,3.66-19.53.77-7,.11-15-2.84-21.45-3-6.68-7.64-12.55-10.48-19.33a129.27,129.27,0,0,1-7.18-22.86.45.45,0,0,0-.69-.29,31.36,31.36,0,0,0-3.64,3,161.44,161.44,0,0,0-15.29,17c-1.69,2.09-4.37,5.17-1.16,7.29,7.78,5.13,14.92,11.68,22.14,17.57q4,3.24,8.08,6.47c.68.55,3.46,2.71,3.46,2.71l-6.25,7.87s-1.6-.49-2.42-.78c-13.4-4.66-31-16.24-31-16.24S35.9,114.92,32.25,112c-6.15-4.86-7.21-7.63-3.64-14C31.73,92.51,37.16,85.21,40.83,80c7.33-10.44,15.44-20.3,23.35-30.31,2.77-3.5,6.53-6.56,11.16-6.92,4.12-.32,8.43.21,12.57.21h7.48c.88,0,1.41,1.38,1.79,2,2.8,4.47,9.14,5.28,14,4.69a17.52,17.52,0,0,0,12-6.81,2,2,0,0,1,2.49-.65,28.15,28.15,0,0,0,6.37,2.22c4.39.95,7.38.11,10.87,3.41,8,7.51,4.38,23.78,3.88,33.65-.38,7.4-.92,15-.74,22.46a87.68,87.68,0,0,0,1,11.44c.57,3.6,1.84,7,2.5,10.58.18,1,.35,2.38.62,4.44"/><path class="cls-2" d="M88,160a1,1,0,0,1-1-1,45,45,0,0,1,1.94-11.41,60.61,60.61,0,0,0,1.72-8.22c.85-7.71-.13-15.14-2.76-20.95a89,89,0,0,0-4.94-9,84.06,84.06,0,0,1-5.55-10.36,130,130,0,0,1-7.06-22.26,33.11,33.11,0,0,0-2.87,2.42c-5.35,4.92-10.05,10.56-15.2,16.9l-.17.2c-1,1.27-2.45,3-2.25,4.28a2,2,0,0,0,1,1.35,178.31,178.31,0,0,1,16.37,12.76c2,1.64,3.9,3.29,5.85,4.88l8.07,6.46,3.46,2.71a1,1,0,0,1,.37.66,1,1,0,0,1-.21.73L78.56,138a1,1,0,0,1-1.06.33s-1.62-.5-2.45-.79C61.69,132.93,44,121.35,43.79,121.24c-.34-.23-8.51-5.55-12.15-8.43-6.08-4.81-8-8-3.89-15.23,2.5-4.44,6.37-9.86,9.79-14.65.88-1.23,1.72-2.41,2.48-3.5C45.89,71.08,52.34,63,58.59,55.15l4.82-6.06c3.52-4.45,7.61-7,11.85-7.3a64.75,64.75,0,0,1,7.88.05c1.57.08,3.21.16,4.77.16h7.48c1.3,0,2,1.3,2.41,2.07l.21.38c2.5,4,8.36,4.8,13,4.23a16.46,16.46,0,0,0,11.37-6.41,3,3,0,0,1,3.72-1,28.08,28.08,0,0,0,6.15,2.14,32.79,32.79,0,0,0,3.37.5c2.69.29,5.24.57,8,3.16,6.81,6.44,5.63,18.6,4.68,28.36-.21,2.18-.41,4.23-.5,6-.07,1.34-.14,2.68-.22,4-.33,6-.67,12.27-.52,18.36a85.88,85.88,0,0,0,1,11.32,54.7,54.7,0,0,0,1.29,5.56c.44,1.62.89,3.29,1.2,5,.16.87.31,2,.51,3.52l.13,1a1,1,0,0,1-.85,1.11,1,1,0,0,1-1.1-.85l-.13-1c-.2-1.51-.34-2.6-.49-3.42-.3-1.61-.74-3.25-1.17-4.83a55.14,55.14,0,0,1-1.33-5.77,86.21,86.21,0,0,1-1-11.57c-.14-6.17.2-12.44.53-18.51.07-1.35.15-2.69.21-4,.1-1.86.3-3.94.51-6.14.91-9.34,2-21-4.07-26.74-2.25-2.13-4.18-2.34-6.84-2.64a33,33,0,0,1-3.57-.53,29.8,29.8,0,0,1-6.59-2.29,1,1,0,0,0-1.26.34,18.47,18.47,0,0,1-12.73,7.2c-5.25.65-11.92-.36-14.91-5.14-.09-.13-.18-.3-.28-.48s-.51-1-.72-1H87.91c-1.61,0-3.27-.08-4.87-.16a62.74,62.74,0,0,0-7.63-.06c-4.64.36-8.25,3.76-10.45,6.56l-4.83,6.07c-6.23,7.81-12.67,15.88-18.5,24.18l-2.49,3.52c-3.39,4.74-7.23,10.12-9.67,14.47-3.22,5.71-2.61,8,3.39,12.71,3.57,2.83,11.92,8.27,12,8.33s17.7,11.56,30.82,16.13c.48.17,1.22.4,1.75.57l5.21-6.56L80,127.62q-4.05-3.23-8.08-6.47-3-2.41-5.89-4.91a175.85,175.85,0,0,0-16.19-12.61,4,4,0,0,1-1.9-2.7c-.33-2.14,1.41-4.27,2.68-5.82l.16-.21c5.2-6.39,10-12.09,15.4-17.1a31.93,31.93,0,0,1,3.75-3.06,1.44,1.44,0,0,1,2.2.9,128.37,128.37,0,0,0,7.12,22.69,82.46,82.46,0,0,0,5.43,10.11,92.42,92.42,0,0,1,5,9.19c2.77,6.12,3.81,13.92,2.91,22a60.71,60.71,0,0,1-1.77,8.5A43.41,43.41,0,0,0,89,159a1,1,0,0,1-1,1Z"/><path class="cls-2" d="M159.43,155.63h0a1,1,0,0,1-1-1c.07-6.07-2.46-13.68-6.45-19.38a58.3,58.3,0,0,0-8-8.66c-1.82-1.74-3.7-3.53-5.41-5.45C132,113.72,124,98.43,130.86,89c2.51-3.44,3-7.84,1.36-13a1,1,0,1,1,1.88-.58c1.8,5.84,1.24,10.82-1.66,14.79-5.84,8,.95,22.17,7.64,29.65,1.66,1.86,3.51,3.63,5.31,5.33a61,61,0,0,1,8.22,9c4.2,6,6.87,14.08,6.8,20.53A1,1,0,0,1,159.43,155.63Z"/></svg>