<svg id="图层_1" data-name="图层 1" xmlns="http://www.w3.org/2000/svg" viewBox="0 0 186 186"><defs><style>.cls-1{fill:#e4cbd4;}.cls-2{fill:#9b9692;}.cls-3{fill:#f2f2f2;}</style></defs><path class="cls-1" d="M112,55.82a2.39,2.39,0,0,1-.34-2.28,3.43,3.43,0,0,1,1.72-1.7,12,12,0,0,1,4.54-1.07,27,27,0,0,1,4.59.09,32.75,32.75,0,0,1,4.5.75c-.76,0-1.52,0-2.28,0s-1.51,0-2.26,0c-1.5,0-3,0-4.47.13l-1.11.08c-.37,0-.72.11-1.09.16a5.39,5.39,0,0,0-1.06.22,4.85,4.85,0,0,0-1,.32l-.5.2-.43.28a1.21,1.21,0,0,0-.38.33,1.16,1.16,0,0,0-.31.39A2.33,2.33,0,0,0,112,55.82Z"/><path class="cls-1" d="M108.82,55.82a2.37,2.37,0,0,0-.24-1.35,3.19,3.19,0,0,0-.94-1,10,10,0,0,0-2.48-1.22,42.29,42.29,0,0,0-5.47-1.44c-1.86-.41-3.73-.74-5.61-1.11a47.27,47.27,0,0,1-5.6-1.29c1.9.21,3.81.28,5.72.52s3.81.51,5.69.9a28.3,28.3,0,0,1,5.56,1.7A9,9,0,0,1,108,53.13a3.79,3.79,0,0,1,.86,1.23A2.15,2.15,0,0,1,108.82,55.82Z"/><path class="cls-2" d="M113.28,38.14a60.66,60.66,0,0,1,0,6.18c-.07,2,0,4,0,6.14a15.47,15.47,0,0,1-1-6.17A24.67,24.67,0,0,1,113.28,38.14Z"/><path class="cls-1" d="M133.67,60.29a20.1,20.1,0,0,0-1.59,4,38,38,0,0,0-.89,4.21L131,69.6l-.11,1.07c-.11.72-.11,1.44-.19,2.16L130.6,75c0,.73,0,1.46-.11,2.2-.15-.72-.25-1.45-.38-2.18s-.14-1.47-.16-2.21a24.39,24.39,0,0,1,.25-4.43,20.17,20.17,0,0,1,1.15-4.31A11.42,11.42,0,0,1,133.67,60.29Z"/><path class="cls-2" d="M115.82,26.06c.68,3.26,1.44,6.49,2.4,9.65.47,1.58,1.12,3.1,1.56,4.68s.93,3.13,1.35,4.78a.09.09,0,0,1,0,.1.11.11,0,0,1-.08,0,15.71,15.71,0,0,1-2.6-4.36A26.67,26.67,0,0,1,117.08,36a72.45,72.45,0,0,1-1.41-9.92.08.08,0,0,1,.07-.08A.08.08,0,0,1,115.82,26.06Z"/><path class="cls-2" d="M82.39,159a12,12,0,0,1-2.35-9.7,13.76,13.76,0,0,1,.7-2.51,19.56,19.56,0,0,1,1.15-2.29,7.25,7.25,0,0,0,.82-2.12,2.77,2.77,0,0,0-.27-1.9,3.74,3.74,0,0,0-1.69-1.12,19.75,19.75,0,0,0-2.29-.72,22.26,22.26,0,0,1-2.47-.74l-2.34-.9c-3.13-1.22-6.2-2.57-9.22-4a150.57,150.57,0,0,1-17.5-9.89c-2.8-1.86-5.51-3.82-8.21-5.75a81.8,81.8,0,0,1-8-6.16,19.38,19.38,0,0,1-3.3-4,7.29,7.29,0,0,1-1.06-2.52,6.75,6.75,0,0,1,0-2.76,13,13,0,0,1,2.25-4.71c1-1.39,2.05-2.66,3.05-4L43.86,77.3,68.29,45.66a.1.1,0,0,1,.14,0,.09.09,0,0,1,0,.13l-24,32-12,16c-1,1.33-2,2.65-2.9,4a11.84,11.84,0,0,0-1.85,4.33,5.58,5.58,0,0,0,1,4.22,17.89,17.89,0,0,0,3.13,3.61,81.71,81.71,0,0,0,8,5.79c2.74,1.91,5.44,3.84,8.21,5.65a168.58,168.58,0,0,0,17.16,10c3,1.48,6,2.87,9,4.12.76.32,1.53.63,2.3.93a18.32,18.32,0,0,0,2.31.73,20.19,20.19,0,0,1,2.46.81,5,5,0,0,1,2.34,1.71,4.1,4.1,0,0,1,.44,2.93,8.29,8.29,0,0,1-1,2.52A22.62,22.62,0,0,0,82,147.25a12.81,12.81,0,0,0-.8,2.25,12.34,12.34,0,0,0-.31,4.77,11.6,11.6,0,0,0,1.7,4.56.12.12,0,0,1,0,.14A.09.09,0,0,1,82.39,159Z"/><path class="cls-2" d="M77.4,70.62a7.93,7.93,0,0,0-5,.86,16.19,16.19,0,0,0-4,3.09,92.36,92.36,0,0,0-7,8C57,88.16,52.56,93.89,47.74,99.24a.1.1,0,0,1-.15-.13c2.22-2.82,4.32-5.74,6.39-8.67l6.28-8.78c1.06-1.45,2.12-2.91,3.22-4.36a28.78,28.78,0,0,1,3.58-4.19,13.72,13.72,0,0,1,4.82-3,8,8,0,0,1,2.87-.41,6.7,6.7,0,0,1,2.71.73.11.11,0,0,1,.05.13A.13.13,0,0,1,77.4,70.62Z"/><path class="cls-2" d="M41,101.14a13.63,13.63,0,0,1,8.42.32,24.21,24.21,0,0,1,7.28,4.45c2.18,1.82,4.16,3.87,6.17,5.8s4.11,3.8,6.27,5.58,4.38,3.46,6.65,5.08l3.42,2.38c1.13.8,2.32,1.48,3.51,2.25a31.9,31.9,0,0,1,6.84,5.22A10.75,10.75,0,0,1,91.94,136a7.59,7.59,0,0,1,.19,4.32.1.1,0,0,1-.12.07.11.11,0,0,1-.07-.1,8.58,8.58,0,0,0-3.26-7.09,39.31,39.31,0,0,0-6.88-4.52,75,75,0,0,1-13.69-10.1C66,116.63,64,114.69,62,112.66s-3.84-4.11-5.9-6A24.33,24.33,0,0,0,49.23,102a13.22,13.22,0,0,0-8.15-.71.09.09,0,0,1-.11-.07A.11.11,0,0,1,41,101.14Z"/><path class="cls-2" d="M117.82,35.69a19.19,19.19,0,0,0,10.67,8.49,16,16,0,0,0,6.73.62,9.28,9.28,0,0,1,3.88.39,7.52,7.52,0,0,1,3.35,2.1,8.43,8.43,0,0,1,1.87,3.41,13.81,13.81,0,0,1,.56,3.69,36.07,36.07,0,0,1-.16,3.63l-.24,3.57c-.28,4.76-.43,9.53-.48,14.3-.06,9.55-.29,19.07.09,28.55a53.59,53.59,0,0,0,.54,7,24.44,24.44,0,0,0,2,6.58,60.91,60.91,0,0,1,2.75,6.67,11,11,0,0,1,.59,3.65,28.16,28.16,0,0,1-.37,3.59.1.1,0,0,1-.11.09.11.11,0,0,1-.09-.1c0-1.19,0-2.39-.13-3.55a11.66,11.66,0,0,0-.92-3.31c-.9-2.16-2.1-4.19-3.19-6.34a24.87,24.87,0,0,1-2.48-6.94,50,50,0,0,1-.71-7.25,238.32,238.32,0,0,1,1-28.67c.39-4.76.74-9.52.84-14.29,0-1.19.06-2.38,0-3.57a34.21,34.21,0,0,0-.12-3.53,9.74,9.74,0,0,0-2.48-6,7.47,7.47,0,0,0-5.87-1.91,16.8,16.8,0,0,1-3.75,0,18.79,18.79,0,0,1-3.64-.89,17.84,17.84,0,0,1-10.36-9.83.1.1,0,0,1,0-.13A.09.09,0,0,1,117.82,35.69Z"/><path class="cls-2" d="M96.49,26.08a51.16,51.16,0,0,1,2.06,6.54c.5,2.2,1.28,4.39,1.27,6.81a5.63,5.63,0,0,1-1.17,3.5,8.87,8.87,0,0,1-.68.69c-.26.18-.52.38-.78.53l-.79.43-.82.37a17.86,17.86,0,0,1-7,1.24,21.86,21.86,0,0,1-7-1.2,17.77,17.77,0,0,0-6.23-1.39,7.49,7.49,0,0,0-3,.61,12.8,12.8,0,0,0-2.69,1.71c-1.7,1.41-3.31,3-5,4.6a.09.09,0,0,1-.13,0,.08.08,0,0,1,0-.12,41.27,41.27,0,0,1,4.21-5.49,13.25,13.25,0,0,1,2.86-2.24,9.18,9.18,0,0,1,3.63-1A14,14,0,0,1,79,42c.57.16,1.15.34,1.71.53l1.63.63a18.79,18.79,0,0,0,6.35,1.45,16.58,16.58,0,0,0,6.45-.86l.75-.3.73-.36c.23-.13.43-.27.65-.4a6.51,6.51,0,0,0,.54-.51,4.62,4.62,0,0,0,1.06-2.81c.14-2.17-.49-4.4-.88-6.65a50.18,50.18,0,0,0-1.66-6.6.09.09,0,1,1,.18-.06Z"/><path class="cls-3" d="M87.25,159c0-5.88,2.27-11.41,3.16-17.2,1.21-7.79,1-16-2.19-23.28-3-6.89-7.72-12.93-10.64-19.89a130.08,130.08,0,0,1-7.21-23,.38.38,0,0,0-.66-.16,3.08,3.08,0,0,1-3.24.86,3,3,0,0,1-1-.51L51.79,65.75q4.05-5.53,8-11.12C63.74,49.1,67,43.31,74.6,42.72c4.12-.32,8.43.21,12.58.21h7.47c.88,0,1.41,1.38,1.79,2,2.8,4.47,9.14,5.28,14,4.68a17.45,17.45,0,0,0,12-6.81,2,2,0,0,1,2.49-.64,28.64,28.64,0,0,0,6.37,2.22c4.39,1,7.38.11,10.87,3.41a19.39,19.39,0,0,1,5.62,13.15c.15-.15,0,14.67,0,14.67H132.53c1.46,4.72,1.54,9.73-1.51,13.92-6.53,9,1.46,23.89,7.7,30.88,4.34,4.86,9.7,8.82,13.46,14.2s6.69,13.27,6.62,20"/><path class="cls-2" d="M87.25,160a1,1,0,0,1-1-1,44.75,44.75,0,0,1,1.78-10.95c.52-2.1,1.06-4.26,1.4-6.41,1.36-8.79.64-16.44-2.12-22.73a91.05,91.05,0,0,0-5.12-9.49A85.47,85.47,0,0,1,76.68,99a129.85,129.85,0,0,1-7.05-22.17,4.07,4.07,0,0,1-3.42.45,3.94,3.94,0,0,1-1.33-.66L51.21,66.54A1,1,0,0,1,51,65.17c2.46-3.35,5.3-7.25,8-11.11.37-.51.73-1,1.09-1.55,3.48-5,7.08-10.2,14.4-10.77a62.77,62.77,0,0,1,7.88.06c1.58.08,3.21.15,4.78.15h7.47c1.29,0,2,1.3,2.41,2.07a4,4,0,0,0,.21.38c2.5,4,8.36,4.81,13,4.23a16.48,16.48,0,0,0,11.38-6.41,3,3,0,0,1,3.71-.95,27.07,27.07,0,0,0,6.15,2.14,32.39,32.39,0,0,0,3.37.5c2.69.3,5.23.58,8,3.16a20.37,20.37,0,0,1,5.93,13.8h-.07c.2,1.28.17,4.72.07,14.74a1,1,0,0,1-1,1h-14c1.36,5.29.68,9.84-2,13.52-5.84,8,.95,22.17,7.64,29.66,1.66,1.86,3.51,3.62,5.31,5.33a61,61,0,0,1,8.22,9c4.2,6,6.87,14.07,6.8,20.52a1,1,0,0,1-1,1h0a1,1,0,0,1-1-1c.06-6.07-2.47-13.68-6.46-19.38a58.85,58.85,0,0,0-8-8.66c-1.82-1.74-3.71-3.53-5.42-5.45-6.63-7.43-14.6-22.71-7.75-32.11,2.51-3.45,3-7.84,1.36-13.06a1,1,0,0,1,.15-.86,1,1,0,0,1,.78-.4h14.3c0-5.11.09-12.45,0-13.45l0-.19a18.42,18.42,0,0,0-5.31-12.49c-2.25-2.13-4.18-2.34-6.84-2.63a33.17,33.17,0,0,1-3.57-.54A29.3,29.3,0,0,1,124.51,43a1,1,0,0,0-1.27.34,18.43,18.43,0,0,1-12.72,7.2c-5.24.65-11.92-.35-14.91-5.13L95.34,45c-.16-.29-.52-1-.73-1.05H87.18c-1.62,0-3.27-.08-4.88-.16a62.74,62.74,0,0,0-7.63-.06c-6.39.5-9.57,5.08-12.94,9.93l-1.1,1.58c-2.53,3.56-5.15,7.16-7.48,10.34L66,75.08a2,2,0,0,0,.69.35A2.07,2.07,0,0,0,69,74.85a1.38,1.38,0,0,1,1.38-.41,1.36,1.36,0,0,1,1,1,128.51,128.51,0,0,0,7.15,22.8,83.88,83.88,0,0,0,5.41,10.18,91.88,91.88,0,0,1,5.23,9.7C92,124.79,92.8,132.8,91.38,142c-.35,2.23-.9,4.44-1.43,6.58A42.28,42.28,0,0,0,88.22,159a1,1,0,0,1-1,1Z"/></svg>