<svg id="图层_1" data-name="图层 1" xmlns="http://www.w3.org/2000/svg" viewBox="0 0 186 186"><defs><style>.cls-1{fill:#9b9692;}.cls-2{fill:#f2f2f2;}</style></defs><path class="cls-1" d="M111.7,56.05a2.41,2.41,0,0,1-.34-2.29,3.41,3.41,0,0,1,1.74-1.71A12.08,12.08,0,0,1,117.67,51a27.39,27.39,0,0,1,4.62.09,33.29,33.29,0,0,1,4.54.74c-1.54.07-3.06,0-4.57,0s-3,0-4.52.12l-1.11.08c-.37,0-.73.12-1.1.17a5.34,5.34,0,0,0-1.07.22,4.94,4.94,0,0,0-1,.32l-.5.21-.43.28a1.27,1.27,0,0,0-.39.33,1.17,1.17,0,0,0-.31.4A2.32,2.32,0,0,0,111.7,56.05Z"/><path class="cls-1" d="M108.52,56.05a2.39,2.39,0,0,0-.24-1.36,3.41,3.41,0,0,0-1-1,10.39,10.39,0,0,0-2.5-1.23A44.18,44.18,0,0,0,99.32,51c-1.87-.4-3.76-.74-5.65-1.1A50.2,50.2,0,0,1,88,48.62c1.92.22,3.84.29,5.76.54s3.84.51,5.74.9a29.4,29.4,0,0,1,5.6,1.71,9.33,9.33,0,0,1,2.52,1.57,3.82,3.82,0,0,1,.87,1.24A2.12,2.12,0,0,1,108.52,56.05Z"/><path class="cls-1" d="M113,38.24a61.45,61.45,0,0,1,0,6.22c-.07,2,0,4.07,0,6.18a15.28,15.28,0,0,1-1-6.21A24.53,24.53,0,0,1,113,38.24Z"/><path class="cls-1" d="M133.55,60.55a20.4,20.4,0,0,0-1.6,4.06,34.39,34.39,0,0,0-.9,4.24l-.16,1.08L130.77,71c-.11.72-.1,1.45-.19,2.18l-.12,2.19c0,.73,0,1.47-.1,2.21-.16-.72-.26-1.46-.38-2.19s-.15-1.48-.17-2.23a24.69,24.69,0,0,1,.27-4.46,20.28,20.28,0,0,1,1.15-4.34A11.49,11.49,0,0,1,133.55,60.55Z"/><path class="cls-1" d="M115.57,26.06c.69,3.28,1.46,6.54,2.42,9.73.47,1.59,1.12,3.12,1.57,4.71s.94,3.16,1.36,4.82a.07.07,0,0,1,0,.09.08.08,0,0,1-.08,0,15.74,15.74,0,0,1-2.62-4.4,27,27,0,0,1-1.33-4.91,75.46,75.46,0,0,1-1.42-10,.08.08,0,0,1,.07-.08A.08.08,0,0,1,115.57,26.06Z"/><path class="cls-1" d="M81.88,160a12.07,12.07,0,0,1-2.36-9.77,14.83,14.83,0,0,1,.7-2.53,20.73,20.73,0,0,1,1.16-2.31,6.69,6.69,0,0,0,.82-2.13,2.74,2.74,0,0,0-.26-1.91,3.7,3.7,0,0,0-1.71-1.14,19.49,19.49,0,0,0-2.31-.72,20.53,20.53,0,0,1-2.48-.75l-2.37-.9c-3.14-1.23-6.24-2.59-9.29-4a152.78,152.78,0,0,1-17.63-10c-2.81-1.88-5.54-3.86-8.27-5.81a82.59,82.59,0,0,1-8.07-6.2,19.34,19.34,0,0,1-3.32-4,7.42,7.42,0,0,1-1.08-2.54,7,7,0,0,1,0-2.78,13.17,13.17,0,0,1,2.26-4.74c1-1.4,2.07-2.69,3.08-4l12.28-16L67.68,45.81a.1.1,0,0,1,.14,0,.11.11,0,0,1,0,.14L43.66,78.15,31.55,94.25c-1,1.34-2,2.67-2.92,4.06a12,12,0,0,0-1.86,4.36,5.64,5.64,0,0,0,1,4.26A18.44,18.44,0,0,0,31,110.56a83,83,0,0,0,8,5.84c2.76,1.92,5.48,3.87,8.27,5.69a171.09,171.09,0,0,0,17.29,10.06c3,1.49,6,2.9,9.1,4.16.77.32,1.55.63,2.32.93a20.46,20.46,0,0,0,2.33.74,22.38,22.38,0,0,1,2.48.81,5,5,0,0,1,2.35,1.73,4.1,4.1,0,0,1,.45,2.95,8.42,8.42,0,0,1-1,2.54,22.85,22.85,0,0,0-1.14,2.17,12.7,12.7,0,0,0-.82,2.26,12.54,12.54,0,0,0-.31,4.81,12,12,0,0,0,1.71,4.6.1.1,0,0,1,0,.14A.11.11,0,0,1,81.88,160Z"/><path class="cls-1" d="M76.86,71a8,8,0,0,0-5,.87,16.42,16.42,0,0,0-4,3.11,92,92,0,0,0-7.07,8C56.25,88.63,51.83,94.41,47,99.8a.1.1,0,1,1-.15-.13c2.24-2.84,4.35-5.78,6.44-8.74l6.33-8.84c1.07-1.47,2.14-2.94,3.24-4.39a28.17,28.17,0,0,1,3.61-4.23,13.87,13.87,0,0,1,4.86-3A8.1,8.1,0,0,1,74.19,70a6.8,6.8,0,0,1,2.73.74.09.09,0,0,1,0,.13A.11.11,0,0,1,76.86,71Z"/><path class="cls-1" d="M40.22,101.72a13.68,13.68,0,0,1,8.48.32A24.47,24.47,0,0,1,56,106.52c2.2,1.84,4.19,3.9,6.22,5.84s4.14,3.83,6.31,5.62,4.42,3.49,6.7,5.12l3.46,2.41c1.13.8,2.33,1.49,3.53,2.26A32.12,32.12,0,0,1,89.15,133a11.08,11.08,0,0,1,2.36,3.76,7.7,7.7,0,0,1,.19,4.35.09.09,0,0,1-.12.07.09.09,0,0,1-.07-.1A8.69,8.69,0,0,0,88.23,134a40.54,40.54,0,0,0-6.94-4.55,75.84,75.84,0,0,1-13.8-10.17c-2.12-1.92-4.19-3.88-6.18-5.92s-3.87-4.14-6-6a24.62,24.62,0,0,0-6.88-4.67,13.29,13.29,0,0,0-8.22-.71.09.09,0,0,1-.11-.08A.09.09,0,0,1,40.22,101.72Z"/><path class="cls-1" d="M117.59,35.77a19.28,19.28,0,0,0,10.75,8.55,16.24,16.24,0,0,0,6.78.63,9.42,9.42,0,0,1,3.91.38,7.59,7.59,0,0,1,3.38,2.13,8.61,8.61,0,0,1,1.88,3.42,14.1,14.1,0,0,1,.56,3.73,36.47,36.47,0,0,1-.16,3.65l-.24,3.6c-.28,4.8-.43,9.61-.48,14.42-.06,9.61-.3,19.2.09,28.76a52.52,52.52,0,0,0,.54,7,24.51,24.51,0,0,0,2,6.64,61.7,61.7,0,0,1,2.78,6.71,11.17,11.17,0,0,1,.59,3.68,28.63,28.63,0,0,1-.37,3.62.1.1,0,0,1-.11.09.11.11,0,0,1-.09-.1c0-1.2,0-2.41-.13-3.58a11.81,11.81,0,0,0-.93-3.33c-.91-2.18-2.11-4.22-3.22-6.39a25.3,25.3,0,0,1-2.5-7,50.65,50.65,0,0,1-.71-7.31,239.75,239.75,0,0,1,1-28.88c.39-4.8.74-9.59.85-14.39,0-1.21,0-2.41,0-3.61s0-2.39-.11-3.55a9.85,9.85,0,0,0-2.51-6.07,7.45,7.45,0,0,0-5.91-1.93,16.48,16.48,0,0,1-3.78,0,18.28,18.28,0,0,1-3.66-.89,18,18,0,0,1-10.45-9.91.09.09,0,0,1,.06-.12A.1.1,0,0,1,117.59,35.77Z"/><path class="cls-1" d="M96.09,26.08a52,52,0,0,1,2.08,6.59c.5,2.22,1.29,4.42,1.28,6.86a5.68,5.68,0,0,1-1.19,3.53,6.34,6.34,0,0,1-.68.69c-.26.18-.52.39-.79.54l-.79.44-.82.37a18.36,18.36,0,0,1-7,1.25,22.19,22.19,0,0,1-7-1.22,18.05,18.05,0,0,0-6.28-1.4,7.46,7.46,0,0,0-3,.62,13.13,13.13,0,0,0-2.71,1.72c-1.71,1.42-3.34,3.07-5,4.64a.11.11,0,0,1-.14,0,.08.08,0,0,1,0-.12,41.22,41.22,0,0,1,4.24-5.53,12.91,12.91,0,0,1,2.88-2.26,9.21,9.21,0,0,1,3.66-1,13.77,13.77,0,0,1,3.7.39c.58.16,1.15.34,1.72.53l1.65.63a19,19,0,0,0,6.39,1.46,16.62,16.62,0,0,0,6.5-.87l.76-.3.73-.36c.24-.13.44-.27.66-.4a6.51,6.51,0,0,0,.54-.51,4.65,4.65,0,0,0,1.07-2.84c.14-2.18-.49-4.43-.88-6.7a52.48,52.48,0,0,0-1.68-6.64A.1.1,0,0,1,96,26,.09.09,0,0,1,96.09,26.08Z"/><path class="cls-2" d="M72.32,85.7A134.28,134.28,0,0,0,79,103.24c3.89,8.24,9,14,10.76,23.13,2,10.25-1.37,23.76-3.79,33.58,24.64-.93,49.17-2,73.81-3-.56-8.48-4.7-17.3-9.81-24.09s-11.26-12.72-16.73-19.21a33.18,33.18,0,0,1-6.24-9.77c-1.33-3.65-1.46-7.9.45-11.28,1.56-2.76,4.31-4.69,6-7.39,3.07-5,1.81-11.64-1.32-16.57a4.11,4.11,0,0,0-1.89-1.82,4.36,4.36,0,0,0-1.8-.13L69.64,70.84A104.27,104.27,0,0,0,72.32,85.7l-1.78-9.65"/><path class="cls-1" d="M85.78,159.81h-.1a1,1,0,0,1-.88-1.08,101.94,101.94,0,0,1,2.17-12c2-9,3.9-17.47-.24-26.56-1.56-3.44-3.42-6.81-5.22-10.06a115,115,0,0,1-6.79-13.76,95.25,95.25,0,0,1-6-24.7,1,1,0,0,1,2-.2,93.15,93.15,0,0,0,5.87,24.19,112.46,112.46,0,0,0,6.68,13.52c1.81,3.29,3.69,6.68,5.29,10.2,4.41,9.68,2.44,18.48.36,27.8a99.9,99.9,0,0,0-2.13,11.8A1,1,0,0,1,85.78,159.81Z"/><path class="cls-1" d="M159.73,157a1,1,0,0,1-1-.93c-.64-10.93-9-22.37-13.93-28.22-1.94-2.29-4.1-4.46-6.19-6.55-4.5-4.51-9.16-9.17-11.87-15.4a19.13,19.13,0,0,1-1.8-8.1c.1-4.36,2.53-7.13,4.88-9.81.76-.87,1.54-1.76,2.25-2.71A12,12,0,0,0,134,75.81a15.27,15.27,0,0,0-1.71-4.69A16.52,16.52,0,0,0,130,67.61L69.7,71.82l-.13-2,60.48-4.23c.73-.05,1.53.25,3.89,4.47a17.27,17.27,0,0,1,2,5.36,14,14,0,0,1-2.24,11c-.76,1-1.57,1.93-2.35,2.83-2.31,2.63-4.31,4.91-4.4,8.56a17.16,17.16,0,0,0,1.65,7.26c2.56,5.9,6.88,10.22,11.45,14.8,2.12,2.12,4.32,4.32,6.3,6.67,6.21,7.37,13.75,18.45,14.39,29.38a1,1,0,0,1-.92,1Z"/></svg>