<svg id="图层_1" data-name="图层 1" xmlns="http://www.w3.org/2000/svg" viewBox="0 0 186 186"><defs><style>.cls-1{fill:#e4cbd4;}.cls-2{fill:#5b3b2f;}.cls-3{fill:#f8e5ec;}</style></defs><path class="cls-1" d="M111.89,55.87a2.39,2.39,0,0,1-.34-2.28,3.37,3.37,0,0,1,1.73-1.7,11.75,11.75,0,0,1,4.54-1.08,27.15,27.15,0,0,1,4.6.09,32.89,32.89,0,0,1,4.51.75c-1.53.08-3,0-4.55,0s-3,0-4.48.12l-1.11.08c-.37,0-.72.12-1.09.16a5.34,5.34,0,0,0-1.07.22,6.73,6.73,0,0,0-1,.32l-.49.2-.43.29a1.37,1.37,0,0,0-.39.32,1.31,1.31,0,0,0-.31.4A2.33,2.33,0,0,0,111.89,55.87Z"/><path class="cls-1" d="M108.72,55.87a2.29,2.29,0,0,0-.23-1.35,3.47,3.47,0,0,0-.94-1,10.47,10.47,0,0,0-2.49-1.22,44.12,44.12,0,0,0-5.48-1.44c-1.86-.41-3.74-.74-5.62-1.11a46,46,0,0,1-5.61-1.3c1.91.22,3.82.29,5.73.53s3.81.5,5.7.9a28.39,28.39,0,0,1,5.57,1.7,9.28,9.28,0,0,1,2.51,1.57,3.68,3.68,0,0,1,.87,1.23A2.09,2.09,0,0,1,108.72,55.87Z"/><path class="cls-2" d="M113.19,38.16c.17,2.1,0,4.15,0,6.19s0,4,0,6.15a15.49,15.49,0,0,1-1-6.18A24.3,24.3,0,0,1,113.19,38.16Z"/><path class="cls-1" d="M133.61,60.35a20.15,20.15,0,0,0-1.58,4,33.51,33.51,0,0,0-.89,4.21L131,69.67l-.11,1.08c-.11.71-.11,1.44-.19,2.16l-.13,2.18c0,.73,0,1.46-.1,2.2-.16-.72-.26-1.45-.39-2.19s-.14-1.47-.16-2.21a23.59,23.59,0,0,1,.26-4.44,20,20,0,0,1,1.14-4.31A11.53,11.53,0,0,1,133.61,60.35Z"/><path class="cls-2" d="M115.73,26.06c.69,3.26,1.46,6.5,2.41,9.67.48,1.58,1.12,3.1,1.57,4.68s.93,3.14,1.35,4.8a.07.07,0,0,1,0,.09.07.07,0,0,1-.08,0,15.41,15.41,0,0,1-2.61-4.37A26.67,26.67,0,0,1,117,36a73,73,0,0,1-1.41-9.94.07.07,0,0,1,.07-.08A.07.07,0,0,1,115.73,26.06Z"/><path class="cls-2" d="M82.25,159.17a12,12,0,0,1-2.35-9.71,14.44,14.44,0,0,1,.69-2.52,20.56,20.56,0,0,1,1.16-2.3,6.85,6.85,0,0,0,.81-2.12,2.68,2.68,0,0,0-.26-1.89,3.75,3.75,0,0,0-1.69-1.13,19.33,19.33,0,0,0-2.3-.72,20.31,20.31,0,0,1-2.47-.74l-2.35-.9c-3.13-1.22-6.2-2.58-9.23-4a150.21,150.21,0,0,1-17.53-9.9c-2.8-1.87-5.51-3.83-8.22-5.77a83.24,83.24,0,0,1-8-6.16,19.71,19.71,0,0,1-3.3-4,7.35,7.35,0,0,1-1.07-2.53,7.17,7.17,0,0,1,0-2.77,13,13,0,0,1,2.26-4.71c1-1.39,2.05-2.67,3.05-4L43.66,77.39l24.47-31.7a.11.11,0,0,1,.14,0,.11.11,0,0,1,0,.14l-24,32-12,16c-1,1.33-2,2.66-2.9,4a11.83,11.83,0,0,0-1.86,4.34,5.58,5.58,0,0,0,1,4.22,17.94,17.94,0,0,0,3.14,3.61,83.24,83.24,0,0,0,8,5.81c2.75,1.9,5.45,3.85,8.22,5.66a170.2,170.2,0,0,0,17.19,10c3,1.48,6,2.87,9,4.13.76.32,1.54.63,2.31.93a17.34,17.34,0,0,0,2.31.73,22.93,22.93,0,0,1,2.47.81,5.09,5.09,0,0,1,2.34,1.72,4.11,4.11,0,0,1,.44,2.94,8.3,8.3,0,0,1-1,2.52c-.41.75-.83,1.44-1.13,2.15A13.72,13.72,0,0,0,81,149.7a12.4,12.4,0,0,0-.31,4.78,11.69,11.69,0,0,0,1.7,4.58.1.1,0,0,1,0,.13A.09.09,0,0,1,82.25,159.17Z"/><path class="cls-2" d="M77.26,70.69a8.09,8.09,0,0,0-5,.88,16.43,16.43,0,0,0-4,3.1,92.54,92.54,0,0,0-7,8C56.78,88.27,52.38,94,47.54,99.36a.09.09,0,0,1-.14,0,.11.11,0,0,1,0-.14c2.22-2.83,4.32-5.75,6.4-8.69l6.28-8.8c1.06-1.46,2.13-2.92,3.22-4.36a27.89,27.89,0,0,1,3.59-4.21,14,14,0,0,1,4.84-3,7.85,7.85,0,0,1,2.88-.4,6.8,6.8,0,0,1,2.72.74.1.1,0,0,1,0,.14A.09.09,0,0,1,77.26,70.69Z"/><path class="cls-2" d="M40.83,101.27a13.66,13.66,0,0,1,8.43.31,24.29,24.29,0,0,1,7.3,4.46c2.19,1.83,4.17,3.88,6.19,5.81s4.11,3.81,6.27,5.59,4.39,3.46,6.66,5.08l3.43,2.39c1.13.8,2.32,1.49,3.52,2.25a32.05,32.05,0,0,1,6.85,5.24,10.85,10.85,0,0,1,2.34,3.74,7.59,7.59,0,0,1,.19,4.32.1.1,0,0,1-.12.07.09.09,0,0,1-.07-.1,8.58,8.58,0,0,0-3.27-7.1,40,40,0,0,0-6.89-4.53,75.31,75.31,0,0,1-13.72-10.11c-2.1-1.9-4.17-3.85-6.14-5.88s-3.85-4.12-5.92-6A24,24,0,0,0,49,102.17a13.18,13.18,0,0,0-8.16-.71.1.1,0,0,1-.12-.08A.09.09,0,0,1,40.83,101.27Z"/><path class="cls-2" d="M117.75,35.71a19.11,19.11,0,0,0,10.78,8.53,16.2,16.2,0,0,0,6.82.57,9.45,9.45,0,0,1,3.91.47,7.61,7.61,0,0,1,3.32,2.23A9,9,0,0,1,144.37,51a14.85,14.85,0,0,1,.48,3.73c0,1.25-.11,2.46-.19,3.65L144.43,62Q144,69.2,144,76.42l-.12,14.42c0,4.8.08,9.6.25,14.38a46.4,46.4,0,0,0,.62,7,27.27,27.27,0,0,0,2.23,6.61,54.82,54.82,0,0,1,2.72,6.76,65.11,65.11,0,0,1,1.67,7.06.1.1,0,0,1-.07.12.11.11,0,0,1-.12-.06c-.82-2.28-1.54-4.58-2.46-6.77s-2-4.26-3.17-6.42a26.34,26.34,0,0,1-2.69-6.92,43.68,43.68,0,0,1-.84-7.32,234.68,234.68,0,0,1,.93-28.94c.4-4.8.76-9.61.88-14.42,0-1.2.05-2.4,0-3.61s0-2.41-.09-3.56a10.06,10.06,0,0,0-2.38-6.17,7.35,7.35,0,0,0-5.87-2.06,18.16,18.16,0,0,1-3.76,0,18.35,18.35,0,0,1-3.67-.88,17.83,17.83,0,0,1-10.49-9.88.1.1,0,0,1,.05-.13A.11.11,0,0,1,117.75,35.71Z"/><path class="cls-2" d="M96.38,26.08a53,53,0,0,1,2.06,6.55c.5,2.21,1.29,4.4,1.28,6.82A5.67,5.67,0,0,1,98.54,43a6.34,6.34,0,0,1-.68.69c-.26.18-.52.38-.79.54l-.79.43-.81.37a18,18,0,0,1-7,1.24,21.62,21.62,0,0,1-7-1.21,17.83,17.83,0,0,0-6.24-1.39,7.49,7.49,0,0,0-2.95.61A13.45,13.45,0,0,0,69.59,46c-1.7,1.42-3.31,3.06-5,4.61a.1.1,0,0,1-.14,0,.11.11,0,0,1,0-.13,40.8,40.8,0,0,1,4.22-5.5,12.72,12.72,0,0,1,2.86-2.24,8.9,8.9,0,0,1,3.64-1,13.5,13.5,0,0,1,3.67.37c.58.17,1.16.34,1.72.54l1.64.63a19.28,19.28,0,0,0,6.35,1.45A16.61,16.61,0,0,0,95,43.79l.76-.3.72-.35c.24-.13.43-.27.65-.41a6.37,6.37,0,0,0,.55-.5,4.58,4.58,0,0,0,1-2.82c.15-2.17-.48-4.41-.87-6.66a52.42,52.42,0,0,0-1.67-6.61.09.09,0,0,1,.06-.12A.1.1,0,0,1,96.38,26.08Z"/><path class="cls-3" d="M89.17,160c-.21-6.7,2.68-14,2.48-13.82a57.12,57.12,0,0,0,1-18.71L129.43,101l5.36,12,5.18,7.64c4.28,4.87,9.57,8.84,13.28,14.22s6.61,13.3,6.54,20"/><path class="cls-3" d="M88.07,159c0-6.72,2.92-12.93,3.66-19.56.77-7,.11-15-2.85-21.49-3-6.69-7.65-12.57-10.49-19.36a129.49,129.49,0,0,1-7.2-22.9.45.45,0,0,0-.69-.29,31.44,31.44,0,0,0-3.64,3,161,161,0,0,0-15.32,17c-1.69,2.09-4.38,5.17-1.16,7.29a42.83,42.83,0,0,1,5.88,4.48,20.75,20.75,0,0,0-7.57,4.65,15.42,15.42,0,0,0-4.35,8.51s-8.44-5.5-12.1-8.39c-6.16-4.87-7.22-7.64-3.64-14,3.12-5.56,8.57-12.87,12.23-18.09,7.35-10.46,15.48-20.33,23.4-30.35C67,46,70.77,42.94,75.4,42.58c4.13-.32,8.44.22,12.6.22h7.48c.89,0,1.42,1.37,1.8,2,2.8,4.48,9.16,5.3,14,4.7a17.54,17.54,0,0,0,12.07-6.82,2,2,0,0,1,2.49-.65,27.82,27.82,0,0,0,6.39,2.22c4.39,1,7.39.12,10.88,3.42,8,7.53,4.39,23.82,3.88,33.71-1.6,31.59.94,39.16.94,39.16l-7.56.46"/><path class="cls-2" d="M88.07,160a1,1,0,0,1-1-1A45.66,45.66,0,0,1,89,147.59a59.13,59.13,0,0,0,1.73-8.24c.85-7.71-.13-15.16-2.76-21a90.32,90.32,0,0,0-4.95-9A83,83,0,0,1,77.48,99,131.23,131.23,0,0,1,70.4,76.7a33.11,33.11,0,0,0-2.87,2.42C62.17,84.05,57.46,89.7,52.3,96l-.16.21c-1,1.27-2.46,3-2.26,4.29a2,2,0,0,0,1,1.35,41.16,41.16,0,0,1,6,4.6,1,1,0,0,1-.4,1.64,19.77,19.77,0,0,0-7.16,4.39,14.69,14.69,0,0,0-4.08,7.91,1,1,0,0,1-.55.8,1,1,0,0,1-1,0c-.35-.23-8.53-5.56-12.18-8.45-6.08-4.81-8-8-3.89-15.25,2.5-4.44,6.37-9.87,9.79-14.66.89-1.24,1.73-2.42,2.5-3.52C45.9,71,52.36,62.84,58.61,55l4.85-6.09c3.52-4.45,7.62-7,11.86-7.31a62.93,62.93,0,0,1,7.89.06c1.58.07,3.22.15,4.79.15h7.48c1.3,0,2,1.3,2.42,2.08l.21.37c2.51,4,8.38,4.82,13,4.24a16.48,16.48,0,0,0,11.39-6.42,3,3,0,0,1,3.72-.95,27.22,27.22,0,0,0,6.17,2.14,32.39,32.39,0,0,0,3.37.5c2.7.3,5.25.58,8,3.17,6.82,6.45,5.64,18.62,4.69,28.41-.21,2.18-.41,4.23-.5,6.06-1.57,30.82.86,38.73.89,38.8a1,1,0,0,1-.12.86.94.94,0,0,1-.76.43l-7.56.46a1,1,0,0,1-.12-2l6.39-.39c-.64-3.17-2-13.19-.69-38.3.1-1.87.3-4,.51-6.15.91-9.36,2-21-4.08-26.79-2.26-2.14-4.18-2.35-6.85-2.64A35.21,35.21,0,0,1,132,45.2a30,30,0,0,1-6.61-2.3,1,1,0,0,0-1.26.34,18.55,18.55,0,0,1-12.74,7.22c-5.27.65-12-.36-15-5.15l-.27-.49c-.16-.29-.52-1-.73-1H88c-1.62,0-3.28-.08-4.88-.16a63.07,63.07,0,0,0-7.65-.06c-4.65.37-8.26,3.77-10.47,6.57q-2.41,3.06-4.85,6.1C53.92,64,47.48,72.13,41.64,80.44,40.87,81.53,40,82.72,39.13,84c-3.39,4.75-7.23,10.14-9.68,14.49-3.21,5.72-2.61,8,3.4,12.74,2.76,2.17,8.33,5.9,10.8,7.53A17.5,17.5,0,0,1,48,111.16a20.49,20.49,0,0,1,6.44-4.31,54.93,54.93,0,0,0-4.58-3.31,3.94,3.94,0,0,1-1.91-2.71c-.33-2.14,1.41-4.27,2.68-5.83l.17-.2c5.2-6.4,10-12.11,15.41-17.13A32.93,32.93,0,0,1,70,74.61a1.4,1.4,0,0,1,1.33-.14,1.45,1.45,0,0,1,.88,1,128.71,128.71,0,0,0,7.13,22.72,80.61,80.61,0,0,0,5.44,10.12,93,93,0,0,1,5,9.21c2.78,6.13,3.82,13.95,2.92,22a60.85,60.85,0,0,1-1.77,8.51A43.21,43.21,0,0,0,89.05,159a1,1,0,0,1-1,1Z"/><path class="cls-2" d="M159.44,155.75h0a1,1,0,0,1-1-1c.06-6.08-2.47-13.7-6.46-19.41a59.06,59.06,0,0,0-8-8.67c-1.82-1.74-3.71-3.54-5.42-5.45C132,113.77,124,98.46,130.83,89c2.51-3.45,3-7.85,1.36-13.07a1,1,0,1,1,1.88-.58c1.81,5.84,1.25,10.83-1.65,14.81-5.86,8,1,22.2,7.65,29.7,1.66,1.86,3.51,3.63,5.31,5.34a60.61,60.61,0,0,1,8.23,9c4.21,6,6.89,14.1,6.82,20.56A1,1,0,0,1,159.44,155.75Z"/></svg>