<svg id="图层_1" data-name="图层 1" xmlns="http://www.w3.org/2000/svg" viewBox="0 0 186 186"><defs><style>.cls-1{fill:#5b3b2f;}.cls-2{fill:#f3e1e7;}</style></defs><path class="cls-1" d="M103.76,58.31a9.12,9.12,0,0,1,6.2-3.59,17.22,17.22,0,0,1,7.35.51c2.4.74,4.53,2,6.77,2.65a6.14,6.14,0,0,0,3.29.21,4.49,4.49,0,0,0,2.45-1.87h0a.74.74,0,0,1,1-.18.76.76,0,0,1,.19,1h0a5.84,5.84,0,0,1-3.37,2.27,7.36,7.36,0,0,1-3.94-.4c-2.39-.84-4.44-2.21-6.66-3A17,17,0,0,0,110,55,9,9,0,0,0,103.76,58.31Z"/><path class="cls-1" d="M81.72,58.84a15.07,15.07,0,0,0-13.91-3c-2.33.72-4.45,2.09-6.84,3a10.4,10.4,0,0,1-3.78.76,5.74,5.74,0,0,1-3.71-1.43h0a.5.5,0,0,1,0-.7.49.49,0,0,1,.7,0h0a4.8,4.8,0,0,0,3.09,1.3,9.73,9.73,0,0,0,3.5-.6c2.32-.76,4.49-2.07,7-2.75A15.31,15.31,0,0,1,81.72,58.84Z"/><path class="cls-1" d="M93.94,58.31A2.89,2.89,0,0,1,92.2,61.1a2.82,2.82,0,0,1-1.77,0,4.09,4.09,0,0,1-.77-.34,4.65,4.65,0,0,1-.63-.53,5.27,5.27,0,0,1,.79.07,3.66,3.66,0,0,0,.74,0,3.56,3.56,0,0,0,1.29-.21A5.3,5.3,0,0,0,93.94,58.31Z"/><path class="cls-1" d="M87.55,41.12l.55,4.93c.09.82.21,1.64.35,2.46A13.23,13.23,0,0,0,89,50.92a8.27,8.27,0,0,1-1-2.33,17.46,17.46,0,0,1-.46-2.48q-.12-1.23-.12-2.46A21.32,21.32,0,0,1,87.55,41.12Z"/><path class="cls-1" d="M97.37,39.16a42.53,42.53,0,0,1-1,5.47c-.23.91-.48,1.82-.79,2.7a13.76,13.76,0,0,1-1.09,2.6c.3-.9.5-1.8.73-2.71l.68-2.71C96.33,42.75,96.78,41,97.37,39.16Z"/><path class="cls-1" d="M84.33,26.79c3.37-.38,6.75-.58,10.12-.69,1.7-.07,3.38-.07,5.08-.1h2.86a.68.68,0,0,1,.24.08.84.84,0,0,1,.29.2,1.36,1.36,0,0,1,.31.61,4.5,4.5,0,0,1,.21.74A12,12,0,0,1,103.6,29c.07.85.07,1.75.09,2.56a12.22,12.22,0,0,0,.3,2.41,11.18,11.18,0,0,0,2.1,4.41c2,2.66,4.93,4.45,7.89,6.09a31.6,31.6,0,0,0,4.44,2.2,18.48,18.48,0,0,0,4.63,1.21,24.48,24.48,0,0,0,4.83-.47,10.78,10.78,0,0,1,2.78,0,13,13,0,0,1,2.67.73,16.58,16.58,0,0,1,7.84,7,14.45,14.45,0,0,1,1.91,10h-.2a15.47,15.47,0,0,0-3-9.18,16.4,16.4,0,0,0-7.3-5.92,8.72,8.72,0,0,0-4.46-.64,23.11,23.11,0,0,1-5.25.27,21,21,0,0,1-9.46-4.29,35.79,35.79,0,0,1-7.74-6.73,15.5,15.5,0,0,1-2.5-4.54,13.18,13.18,0,0,1-.62-2.55c-.1-.89-.2-1.67-.36-2.49-.08-.39-.18-.79-.28-1.15a1.9,1.9,0,0,0-.15-.46c0-.05-.07-.09,0,0a.83.83,0,0,0,.15.11l.18.06H99.47c-1.69,0-3.37,0-5.06-.1-3.37-.11-6.74-.32-10.11-.69Z"/><path class="cls-1" d="M102.07,27c-3.42.34-6.84.55-10.25.66-1.72.06-3.42.09-5.13.1H85c.33-.11.28-.18.28-.15a.64.64,0,0,0-.08.14A16.27,16.27,0,0,0,84.5,30l-.56,2.48c-.2.83-.31,1.62-.56,2.54a11.16,11.16,0,0,1-2.76,4.53,29.16,29.16,0,0,1-3.94,3.33c-1.42,1-2.73,2-4.1,3.1a22.09,22.09,0,0,1-4.48,2.79,12.15,12.15,0,0,1-5.38,1.06c-1.81,0-3.49-.3-5.13-.39a10.69,10.69,0,0,0-4.55.67c-2.85,1.15-4.79,4-5.83,7.09a24,24,0,0,0-1.15,4.86,37.52,37.52,0,0,0-.39,5.08h-.19a26.43,26.43,0,0,1,.34-10.37A15.1,15.1,0,0,1,48,51.84a10.15,10.15,0,0,1,4.24-3.6,11.55,11.55,0,0,1,5.48-.92c1.77.08,3.47.4,5.08.49a10.45,10.45,0,0,0,4.62-.73,39.4,39.4,0,0,0,4.49-2.16c3-1.69,6-3.31,8.28-5.83a9,9,0,0,0,2.08-4.32c.2-1.59.31-3.39.62-5.08A11.61,11.61,0,0,1,83.58,27a2.78,2.78,0,0,1,.22-.42,1.38,1.38,0,0,1,.76-.56h2.13c1.71,0,3.41.05,5.13.11,3.41.11,6.83.31,10.25.66Z"/><path class="cls-1" d="M45.45,70.88a135.69,135.69,0,0,0,5.13,19.94c2.14,6.52,4.59,13,6.79,19.5a121.88,121.88,0,0,1,5.2,20.08,89.71,89.71,0,0,1,1,10.35c0,1.73,0,3.47,0,5.19a29.85,29.85,0,0,1-.74,5.16,50.46,50.46,0,0,0-.18-10.28c-.36-3.41-.88-6.8-1.52-10.17a158.74,158.74,0,0,0-5.63-19.71l-3.35-9.77c-1.06-3.3-2.14-6.56-3.07-9.89A90.58,90.58,0,0,1,45.45,70.88Z"/><path class="cls-1" d="M142.24,67.16c0,1.8-.07,3.62-.17,5.43s-.41,3.61-.67,5.4-.67,3.57-1.07,5.35-.89,3.5-1.42,5.24l-1.77,5.14c-.63,1.69-1.26,3.38-1.83,5.09-1.18,3.41-2.19,6.9-3.15,10.35-.47,1.74-.92,3.49-1.43,5.22s-1,3.47-1.46,5.18l-1.39,5.21-1.31,5.2a135.31,135.31,0,0,0-3.73,21.13h-.19a71,71,0,0,1,1.87-21.64c.45-1.75.88-3.52,1.38-5.26l1.6-5.2c1.1-3.44,2.33-6.84,3.63-10.2s2.54-6.76,3.57-10.21,1.8-7,2.63-10.47c.41-1.76.82-3.49,1.31-5.23s.8-3.48,1.26-5.21.72-3.51,1.13-5.27.63-3.53,1-5.3Z"/><path class="cls-2" d="M55.74,116.34c-.09.29-.75.46-1,.33a17.64,17.64,0,0,1-5.36-4.85c-1.79-2.22-4.93-4.67-5.57-7.53-.56-2.29.62-4.67.47-7-.23-3.52-3.74-6-6-8.42-4.22-4.52,2.26-19.14,3-24.65.85-6.9,3.49-13.55,10.63-15.82,3.63-1.16,7-.58,10.71,0,3.88.59,4.38-1.6,5.69,3,3.06,10.85,10.62,23.5,22.76,25.28,14.7,2.12,25.23-12.34,26.74-25.56,0-.37.08-.74.11-1.12a2.27,2.27,0,0,1,1.84-2c4.66-.9,17.4-2.42,21.8,6.84a13.2,13.2,0,0,1,.9,2.77C144,64.22,147,70.4,148.38,77.11c.63,3.11,1.15,6.61.15,9.7-1.21,3.7-5.24,5.51-6.78,9.13a8.85,8.85,0,0,0-.67,2.58c-.18,2,.42,3.94.16,5.91-.46,3.42-3.21,5.46-5.26,7.89-.56.68-4.55,6.05-5.43,3.39-2.43-7.43-3.42-10.09-4.09-12.6a.29.29,0,0,0-.56,0,44.6,44.6,0,0,1-5.56,9c-.17.33-12.13,16.65,4.28,41.25l2.82,4a1.05,1.05,0,0,1-.86,1.64H58a1,1,0,0,1-1.11-.84,1,1,0,0,1,.36-.91c6-6.35,24.2-29.11,2.84-54.35a.28.28,0,0,0-.4-.05.31.31,0,0,0-.1.15C58.87,105.51,55.74,116.34,55.74,116.34Z"/><path class="cls-1" d="M57.86,160a2,2,0,0,1-1.3-3.47c5.87-6.2,23-27.87,3.62-52l-3.49,12.06h0a1.52,1.52,0,0,1-.94.93,1.8,1.8,0,0,1-1.5,0,18.37,18.37,0,0,1-5.66-5.12c-.45-.56-1.05-1.18-1.68-1.84-1.66-1.75-3.54-3.73-4.06-6a10.26,10.26,0,0,1,.16-4.35,11.78,11.78,0,0,0,.29-2.83c-.16-2.4-2.18-4.36-4.14-6.25-.55-.53-1.09-1-1.57-1.57-3.39-3.63-.91-12.17,1.09-19a51.41,51.41,0,0,0,1.61-6.4c1.12-9,4.93-14.62,11.32-16.65,3.78-1.2,7.26-.65,10.94-.07l.22,0a9.15,9.15,0,0,0,2.51,0c2.18-.2,3,.29,4,3.73,3,10.77,10.41,22.87,21.95,24.57a18.81,18.81,0,0,0,14.43-4c6-4.59,10.23-12.51,11.18-20.68,0-.25,0-.5.07-.74s0-.26,0-.39A3.27,3.27,0,0,1,119.57,47c5.33-1,18.23-2.4,22.89,7.38a14.11,14.11,0,0,1,1,3,90,90,0,0,0,2.81,9.13,81.94,81.94,0,0,1,3.11,10.41c.68,3.37,1.18,7,.13,10.19a13.67,13.67,0,0,1-3.69,5.18,13.43,13.43,0,0,0-3.13,4,7.89,7.89,0,0,0-.59,2.29,14.38,14.38,0,0,0,.09,2.6,13.76,13.76,0,0,1,.06,3.34c-.39,3-2.25,4.92-4,6.82-.49.52-1,1-1.44,1.58l-.18.23c-2.56,3.23-4.16,4.46-5.5,4.22a1.85,1.85,0,0,1-1.45-1.39c-.88-2.68-1.57-4.74-2.12-6.39-.66-1.95-1.12-3.32-1.48-4.5a45.86,45.86,0,0,1-4.86,7.53l0,.06c-1.86,2.83-10.37,18,4.33,40.06l2.81,4a2,2,0,0,1,.33,1.53,2,2,0,0,1-.85,1.31,2.06,2.06,0,0,1-1.15.36H57.86Zm2-58.2a1.26,1.26,0,0,1,1,.5c21.81,25.78,3.28,49.1-2.91,55.64l-.1.09.13,0h68.58l-2.78-4.1c-15.4-23.1-6.33-39.26-4.35-42.27a1.63,1.63,0,0,1,.11-.17,43,43,0,0,0,5.42-8.73,1.29,1.29,0,0,1,2.42.07c.44,1.63,1,3.25,2,6.2.55,1.65,1.24,3.71,2.12,6.4v0c.34-.11,1.31-.69,3.5-3.47l.22-.26c.49-.58,1-1.13,1.52-1.67,1.65-1.75,3.21-3.4,3.51-5.72a12.24,12.24,0,0,0-.06-2.89,16.32,16.32,0,0,1-.1-3,9.49,9.49,0,0,1,.75-2.88,15.23,15.23,0,0,1,3.54-4.66,11.88,11.88,0,0,0,3.21-4.39c.91-2.81.44-6.08-.19-9.19a79,79,0,0,0-3-10.14,92.38,92.38,0,0,1-2.88-9.36,12.83,12.83,0,0,0-.83-2.59c-4-8.5-15.84-7.21-20.71-6.26a1.26,1.26,0,0,0-1,1.14c0,.16,0,.32,0,.48a3.51,3.51,0,0,0,0,.55s0,.07,0,.11c-1,8.71-5.58,17.17-12,22.08a20.76,20.76,0,0,1-15.92,4.35C78.44,75.84,70.56,63,67.35,51.68c-.68-2.4-.72-2.4-1.88-2.29a11.24,11.24,0,0,1-3,0l-.23,0c-3.6-.56-6.7-1.05-10,0-5.66,1.8-8.92,6.71-10,15A50.32,50.32,0,0,1,40.58,71c-1.75,6-4.16,14.33-1.54,17.14.46.49,1,1,1.5,1.49,2.12,2,4.53,4.38,4.74,7.55a13.83,13.83,0,0,1-.32,3.31,8.83,8.83,0,0,0-.18,3.55c.41,1.8,2,3.49,3.57,5.13.66.69,1.28,1.34,1.81,2a16.55,16.55,0,0,0,4.76,4.42c.6-2.09,3.09-10.69,3.72-12.88a1.28,1.28,0,0,1,.45-.67A1.33,1.33,0,0,1,59.87,101.8Zm-4.13,14.54h0Zm3.6-12.8s0,0,0,0Zm67.5-.12Zm-66.29-.16v0Z"/></svg>