<svg id="图层_1" data-name="图层 1" xmlns="http://www.w3.org/2000/svg" viewBox="0 0 186 186"><defs><style>.cls-1{fill:#9b9692;}.cls-2{fill:#f2f2f2;}</style></defs><path class="cls-1" d="M83,26.79c3.4-.38,6.81-.58,10.21-.69C95,26,96.65,26,98.35,26c.85,0,1.71,0,2.56,0h.33a1,1,0,0,1,.25.09,1,1,0,0,1,.29.2,1.57,1.57,0,0,1,.35.56,4.84,4.84,0,0,1,.21.75A11,11,0,0,1,102.5,29c.07.86.07,1.77.09,2.58A13.25,13.25,0,0,0,102.9,34,11.35,11.35,0,0,0,105,38.46c2,2.68,5,4.48,7.91,6.14a31.59,31.59,0,0,0,4.48,2.22A18,18,0,0,0,122.07,48a23.32,23.32,0,0,0,4.87-.47,10.09,10.09,0,0,1,2.8,0,12.24,12.24,0,0,1,2.69.73,16.64,16.64,0,0,1,7.9,7.11,14.45,14.45,0,0,1,1.93,10.12l-.2,0A15.51,15.51,0,0,0,139,56.23a16.5,16.5,0,0,0-7.35-6,11,11,0,0,0-2.22-.62,10.9,10.9,0,0,0-2.29,0,24.3,24.3,0,0,1-5.29.26,21.24,21.24,0,0,1-9.54-4.32,36.18,36.18,0,0,1-7.8-6.72A15.82,15.82,0,0,1,102,34.27a13.27,13.27,0,0,1-.61-2.58c-.11-.89-.21-1.67-.37-2.5-.08-.4-.17-.8-.27-1.17a3.41,3.41,0,0,0-.16-.46s-.07-.09,0,0a.68.68,0,0,0,.16.11.78.78,0,0,0,.18,0h-.07c-.85,0-1.7,0-2.55,0-1.69,0-3.39,0-5.09-.1-3.4-.11-6.8-.31-10.2-.7Z"/><path class="cls-1" d="M100.92,27c-3.45.35-6.89.56-10.34.67-1.72.06-3.44.1-5.16.11l-1.29,0h-.45c.34-.12.28-.19.29-.16a1.13,1.13,0,0,0-.09.15A16.85,16.85,0,0,0,83.2,30l-.57,2.48c-.19.86-.31,1.65-.56,2.57a11.21,11.21,0,0,1-2.78,4.57,28.46,28.46,0,0,1-4,3.35c-1.42,1-2.75,2.06-4.13,3.13A22.06,22.06,0,0,1,66.63,49,12.24,12.24,0,0,1,61.2,50c-1.82,0-3.52-.3-5.17-.39a10.69,10.69,0,0,0-4.59.68c-2.87,1.15-4.83,4-5.87,7.14a24.55,24.55,0,0,0-1.16,4.91A37.71,37.71,0,0,0,44,67.47l-.2,0A26.7,26.7,0,0,1,44.17,57a15.48,15.48,0,0,1,2.18-5,10.31,10.31,0,0,1,4.28-3.63,11.64,11.64,0,0,1,5.52-.93c1.79.09,3.5.41,5.12.49a10.6,10.6,0,0,0,4.66-.73,38.92,38.92,0,0,0,4.52-2.18c3-1.7,6.1-3.34,8.35-5.87a9.08,9.08,0,0,0,2.14-4.4c.21-1.6.32-3.41.62-5.12A11.87,11.87,0,0,1,82.28,27a2.59,2.59,0,0,1,.23-.42,1.34,1.34,0,0,1,.77-.56l.22,0h.63l1.29,0c1.72,0,3.44.05,5.16.11,3.45.11,6.89.31,10.34.66Z"/><path class="cls-1" d="M61.37,152.15a54.31,54.31,0,0,0-.32-10.36c-.37-3.43-.9-6.84-1.53-10.23a178.64,178.64,0,0,0-5.46-20C52,105,49.59,98.46,47.71,91.75c-1-3.35-1.79-6.75-2.46-10.17a85.78,85.78,0,0,1-1.42-10.33c.52,3.43,1.2,6.84,2,10.2s1.85,6.67,2.92,10C51,98,53.42,104.48,55.8,111a114.6,114.6,0,0,1,5.45,20.23,83.51,83.51,0,0,1,1,10.45,51,51,0,0,1-.09,5.25A27.41,27.41,0,0,1,61.37,152.15Z"/><path class="cls-1" d="M141.42,67.49c0,1.81-.07,3.63-.17,5.45s-.41,3.62-.68,5.42-.67,3.57-1.06,5.35-.89,3.52-1.42,5.26l-1.78,5.14c-.64,1.7-1.27,3.4-1.84,5.12-1.19,3.41-2.19,6.88-3.16,10.37-.49,1.74-.93,3.49-1.44,5.22s-1,3.48-1.47,5.21l-1.4,5.21-1.31,5.22A136,136,0,0,0,122,151.67h-.2a71.13,71.13,0,0,1,1.87-21.7c.45-1.76.88-3.53,1.38-5.28l1.6-5.2c1.12-3.45,2.35-6.86,3.66-10.23s2.55-6.77,3.59-10.23,1.8-7,2.64-10.5c.4-1.75.82-3.5,1.3-5.23s.82-3.5,1.26-5.24.73-3.51,1.14-5.27.64-3.54,1-5.32Z"/><path class="cls-1" d="M73.4,65.45A20.92,20.92,0,0,1,79.21,80c0,.67-.08,1.35-.11,2a13.48,13.48,0,0,1-.26,2c-.15.66-.23,1.35-.44,2S78,87.33,77.71,88a11.35,11.35,0,0,1-.87,1.83c-.33.59-.64,1.18-1,1.76a38.17,38.17,0,0,1-2.45,3.17.07.07,0,0,1-.1,0,.07.07,0,0,1,0-.09h0c.51-1.24,1.09-2.41,1.64-3.59.23-.61.48-1.21.72-1.81a13,13,0,0,0,.67-1.8c.19-.61.38-1.22.59-1.83s.32-1.23.48-1.85a10.73,10.73,0,0,0,.4-1.87c.07-.63.19-1.27.22-1.91a20.48,20.48,0,0,0-1-7.6,19.86,19.86,0,0,0-3.71-6.83h0a.09.09,0,0,1,0-.11A.08.08,0,0,1,73.4,65.45Z"/><path class="cls-1" d="M110.36,65.55a19.86,19.86,0,0,0-3.71,6.83,20.7,20.7,0,0,0-1,7.6c0,.64.16,1.28.23,1.91a10.73,10.73,0,0,0,.4,1.87c.16.62.26,1.25.48,1.85s.4,1.22.59,1.83a11.82,11.82,0,0,0,.67,1.8c.24.6.49,1.2.71,1.81.56,1.18,1.14,2.35,1.65,3.59h0a.07.07,0,0,1,0,.1.06.06,0,0,1-.08,0,36.13,36.13,0,0,1-2.45-3.17c-.34-.58-.66-1.17-1-1.76A12.21,12.21,0,0,1,106,88c-.24-.63-.47-1.27-.69-1.91s-.29-1.33-.44-2a11.29,11.29,0,0,1-.26-2c0-.68-.11-1.36-.11-2a21,21,0,0,1,5.8-14.57.08.08,0,0,1,.11,0,.07.07,0,0,1,0,.1Z"/><path class="cls-2" d="M127.38,96.45a.52.52,0,0,1,.84.55c-1.63,4.67-5.72,16.6-7.29,23.1-2.15,8.85-2.84,18.43,1.53,26.74.39.74,1.38,2.81,2.6,5a69.82,69.82,0,0,0,4.32,6.31.51.51,0,0,1-.41.82H56.91a.52.52,0,0,1-.38-.87c6.43-7.25,9.52-18.69,9.71-28.21.21-10.17-5.41-26.7-7.75-32.74a.52.52,0,0,1,.84-.56c5.89,5.56,30.42,23.15,30.42,23.15l3.54,2.64,4.07-2.89S121.39,101.91,127.38,96.45Z"/><path class="cls-1" d="M129,160H56.91a1.51,1.51,0,0,1-1.38-.88,1.54,1.54,0,0,1,.26-1.64c6.71-7.56,9.29-19.2,9.46-27.57.23-11.8-7.36-31.53-7.69-32.36a1.51,1.51,0,0,1,.57-1.8A1.5,1.5,0,0,1,60,95.9c5.78,5.45,30.07,22.89,30.32,23.07l3,2.22,3.47-2.47c.23-.17,24-17.64,29.93-23h0a1.52,1.52,0,0,1,2.45,1.62c-1.67,4.77-5.71,16.57-7.27,23-2.6,10.72-2.12,19.24,1.45,26l.51,1c.5,1,1.24,2.47,2.08,4a71.19,71.19,0,0,0,4.25,6.18A1.51,1.51,0,0,1,129,160Zm-71-2H128a58.3,58.3,0,0,1-3.83-5.65c-.86-1.57-1.61-3.08-2.11-4.07-.22-.43-.38-.77-.5-1-3.81-7.25-4.34-16.22-1.62-27.43,1.42-5.85,4.84-16,6.73-21.5-7.5,6.37-27.83,21.28-28.75,22l-4.07,2.9a1,1,0,0,1-1.17,0l-3.55-2.65c-.92-.66-21.49-15.43-29.06-21.93C62,104,67.44,119.74,67.23,130,67.06,138.39,64.52,150.05,58,158Zm70.1-60.83Zm-.67-.73h0Z"/><path class="cls-1" d="M70.32,45.21A79.32,79.32,0,0,0,80.86,47.5a69.33,69.33,0,0,0,10.65.8c1.78.08,3.55-.1,5.33-.16s3.55-.32,5.3-.65a81.75,81.75,0,0,0,10.5-2.44,39.14,39.14,0,0,1-10.2,4A45.32,45.32,0,0,1,97,50c-1.84.13-3.68.32-5.52.28A48.94,48.94,0,0,1,80.57,49,39.16,39.16,0,0,1,70.32,45.21Z"/><path class="cls-1" d="M81.39,72.51a3,3,0,0,1-2-.69,5.16,5.16,0,0,1-1.68-4.46,14,14,0,0,1,2.65-6,55.58,55.58,0,0,1,7-8.14c.94-.92,1.89-1.83,2.84-2.68l.19-.17c1.16-1,1.55-1.38,1.68-1.52a1,1,0,0,1,.88-.52h0a1,1,0,0,1,1,1,38,38,0,0,1-3.84,15.5,16.42,16.42,0,0,1-4.24,5.51C85.08,71,83.24,72.51,81.39,72.51ZM91.88,51.76l-.14.12-.15.13c-.92.84-1.86,1.72-2.77,2.63a52.85,52.85,0,0,0-6.76,7.84,12.15,12.15,0,0,0-2.32,5.1,3.19,3.19,0,0,0,.94,2.69c1,.79,2.74-.47,4-1.48a14.44,14.44,0,0,0,3.73-4.86A37.39,37.39,0,0,0,91.88,51.76ZM92,49.31Zm0,0Z"/><path class="cls-1" d="M104.91,72.51c-1.85,0-3.69-1.5-4.52-2.18a16.31,16.31,0,0,1-4.25-5.51,38,38,0,0,1-3.84-15.5,1,1,0,0,1,1-1h0a1,1,0,0,1,.88.52c.13.14.52.52,1.68,1.52l.19.17c.95.85,1.9,1.76,2.84,2.68a55.58,55.58,0,0,1,7,8.14,14,14,0,0,1,2.65,6,5.19,5.19,0,0,1-1.67,4.47A3.05,3.05,0,0,1,104.91,72.51ZM94.42,51.76a37.16,37.16,0,0,0,3.5,12.17,14.29,14.29,0,0,0,3.72,4.86c1.24,1,3,2.27,4,1.48a3.19,3.19,0,0,0,.94-2.69,12.15,12.15,0,0,0-2.32-5.1,52.27,52.27,0,0,0-6.76-7.84c-.91-.91-1.85-1.79-2.77-2.63l-.15-.13Zm-.13-2.45Zm0,0Z"/><path class="cls-1" d="M93.11,49.33c.23,2.15.23,4.28.34,6.43s0,4.28,0,6.41-.2,4.27-.32,6.4-.37,4.26-.57,6.38-.53,4.24-.85,6.36-.68,4.23-1.17,6.32a64.56,64.56,0,0,1-1.61,6.26l-.52,1.54c-.18.51-.4,1-.59,1.53a12.22,12.22,0,0,1-.65,1.49l-.82,1.42a.11.11,0,0,1-.14,0,.11.11,0,0,1,0-.13,21.15,21.15,0,0,0,1-3c.14-.52.29-1,.41-1.54l.32-1.56c.23-1,.41-2.09.58-3.14s.37-2.09.51-3.14c.64-4.21,1.12-8.44,1.58-12.67Q92,62.06,92.91,49.31a.1.1,0,0,1,.1-.09.12.12,0,0,1,.1.09Z"/><path class="cls-1" d="M94.08,49.32c.43,2,.64,4,1,6s.48,4,.65,6.06.29,4,.44,6.07l.28,6.06.11,6.07c0,2,0,4.05,0,6.07s-.11,4-.19,6.08-.24,4.06-.28,6.08v0a.1.1,0,0,1-.2,0c-.35-2-.41-4-.57-6.07l-.32-6.07-.49-12.15q-.34-12.15-.56-24.3a.1.1,0,0,1,.1-.1.09.09,0,0,1,.09.08Z"/></svg>