<svg id="图层_1" data-name="图层 1" xmlns="http://www.w3.org/2000/svg" viewBox="0 0 186 186"><defs><style>.cls-1{fill:#9b9692;}.cls-2{fill:#e2c9d2;}.cls-3{fill:#e4cbd4;}.cls-4{fill:#f8f9f9;}.cls-5{fill:#f2f2f2;}</style></defs><path class="cls-1" d="M83,26.79c3.4-.38,6.81-.58,10.21-.69C95,26,96.65,26,98.35,26c.85,0,1.71,0,2.56,0h.33a1,1,0,0,1,.25.09,1,1,0,0,1,.29.2,1.57,1.57,0,0,1,.35.56,4.84,4.84,0,0,1,.21.75A11,11,0,0,1,102.5,29c.07.86.07,1.77.09,2.58A13.25,13.25,0,0,0,102.9,34,11.35,11.35,0,0,0,105,38.46c2,2.68,5,4.48,7.91,6.14a31.59,31.59,0,0,0,4.48,2.22A18,18,0,0,0,122.07,48a23.32,23.32,0,0,0,4.87-.47,10.09,10.09,0,0,1,2.8,0,12.24,12.24,0,0,1,2.69.73,16.64,16.64,0,0,1,7.9,7.11,14.45,14.45,0,0,1,1.93,10.12l-.2,0A15.51,15.51,0,0,0,139,56.23a16.5,16.5,0,0,0-7.35-6,11,11,0,0,0-2.22-.62,10.9,10.9,0,0,0-2.29,0,24.3,24.3,0,0,1-5.29.26,21.24,21.24,0,0,1-9.54-4.32,36.18,36.18,0,0,1-7.8-6.72A15.82,15.82,0,0,1,102,34.27a13.27,13.27,0,0,1-.61-2.58c-.11-.89-.21-1.67-.37-2.5-.08-.4-.17-.8-.27-1.17a3.41,3.41,0,0,0-.16-.46s-.07-.09,0,0a.68.68,0,0,0,.16.11.78.78,0,0,0,.18,0h-.07c-.85,0-1.7,0-2.55,0-1.69,0-3.39,0-5.09-.1-3.4-.11-6.8-.31-10.2-.7Z"/><path class="cls-1" d="M100.92,27c-3.45.35-6.89.56-10.34.67-1.72.06-3.44.1-5.16.11l-1.29,0h-.45c.34-.12.28-.19.29-.16a1.13,1.13,0,0,0-.09.15A16.85,16.85,0,0,0,83.2,30l-.57,2.48c-.19.86-.31,1.65-.56,2.57a11.21,11.21,0,0,1-2.78,4.57,28.46,28.46,0,0,1-4,3.35c-1.42,1-2.75,2.06-4.13,3.13A22.06,22.06,0,0,1,66.63,49,12.24,12.24,0,0,1,61.2,50c-1.82,0-3.52-.3-5.17-.39a10.69,10.69,0,0,0-4.59.68c-2.87,1.15-4.83,4-5.87,7.14a24.55,24.55,0,0,0-1.16,4.91A37.71,37.71,0,0,0,44,67.47l-.2,0A26.7,26.7,0,0,1,44.17,57a15.48,15.48,0,0,1,2.18-5,10.31,10.31,0,0,1,4.28-3.63,11.64,11.64,0,0,1,5.52-.93c1.79.09,3.5.41,5.12.49a10.6,10.6,0,0,0,4.66-.73,38.92,38.92,0,0,0,4.52-2.18c3-1.7,6.1-3.34,8.35-5.87a9.08,9.08,0,0,0,2.14-4.4c.21-1.6.32-3.41.62-5.12A11.87,11.87,0,0,1,82.28,27a2.59,2.59,0,0,1,.23-.42,1.34,1.34,0,0,1,.77-.56l.22,0h.63l1.29,0c1.72,0,3.44.05,5.16.11,3.45.11,6.89.31,10.34.66Z"/><path class="cls-1" d="M61.37,152.15a54.31,54.31,0,0,0-.32-10.36c-.37-3.43-.9-6.84-1.53-10.23a178.64,178.64,0,0,0-5.46-20C52,105,49.59,98.46,47.71,91.75c-1-3.35-1.79-6.75-2.46-10.17a85.78,85.78,0,0,1-1.42-10.33c.52,3.43,1.2,6.84,2,10.2s1.85,6.67,2.92,10C51,98,53.42,104.48,55.8,111a114.6,114.6,0,0,1,5.45,20.23,83.5,83.5,0,0,1,1,10.46,50.9,50.9,0,0,1-.09,5.24A27.41,27.41,0,0,1,61.37,152.15Z"/><path class="cls-1" d="M141.42,67.49c0,1.81-.07,3.63-.17,5.45s-.41,3.62-.68,5.42-.67,3.57-1.06,5.35-.89,3.52-1.42,5.26l-1.78,5.14c-.64,1.7-1.27,3.4-1.84,5.12-1.19,3.41-2.19,6.88-3.16,10.37-.49,1.74-.93,3.49-1.44,5.22s-1,3.48-1.47,5.21l-1.4,5.21-1.31,5.22A136,136,0,0,0,122,151.67h-.2a71.13,71.13,0,0,1,1.87-21.7c.45-1.76.88-3.53,1.38-5.28l1.6-5.2c1.12-3.45,2.35-6.86,3.66-10.23s2.55-6.77,3.59-10.23,1.8-7,2.64-10.5c.4-1.75.82-3.5,1.3-5.23s.82-3.5,1.26-5.24.73-3.51,1.14-5.27.64-3.54,1-5.32Z"/><path class="cls-2" d="M73.4,65.45A20.87,20.87,0,0,1,79.2,80c0,.67-.07,1.35-.1,2a12.44,12.44,0,0,1-.27,2,19,19,0,0,1-.43,2c-.22.64-.45,1.28-.69,1.91a12.26,12.26,0,0,1-.87,1.83c-.33.59-.64,1.18-1,1.76a39.91,39.91,0,0,1-2.45,3.17.07.07,0,0,1-.1,0,.06.06,0,0,1,0-.08h0c.51-1.24,1.09-2.41,1.65-3.59.22-.61.47-1.2.71-1.8a11.94,11.94,0,0,0,.67-1.81c.19-.61.38-1.22.6-1.82s.31-1.24.48-1.86a11.71,11.71,0,0,0,.39-1.87c.07-.63.19-1.27.23-1.91a20.67,20.67,0,0,0-1-7.6,19.86,19.86,0,0,0-3.71-6.83h0a.09.09,0,0,1,0-.11A.08.08,0,0,1,73.4,65.45Z"/><path class="cls-2" d="M110.36,65.55a19.86,19.86,0,0,0-3.71,6.83,20.67,20.67,0,0,0-1,7.6c0,.64.16,1.28.23,1.91a10.71,10.71,0,0,0,.39,1.87c.17.62.27,1.25.48,1.86s.41,1.21.6,1.82a11.94,11.94,0,0,0,.67,1.81c.24.6.49,1.19.71,1.8.56,1.18,1.14,2.35,1.65,3.59h0a.07.07,0,0,1-.12.07,39.91,39.91,0,0,1-2.45-3.17c-.34-.58-.65-1.17-1-1.76A11.35,11.35,0,0,1,106,88c-.24-.63-.47-1.27-.69-1.91s-.29-1.33-.44-2a13.65,13.65,0,0,1-.26-2c0-.68-.11-1.36-.11-2a21,21,0,0,1,5.8-14.57.08.08,0,0,1,.11,0,.07.07,0,0,1,0,.1Z"/><path class="cls-3" d="M57.2,73.36a4.41,4.41,0,0,1,2.43,1.46A6.68,6.68,0,0,1,61,77.38,10.8,10.8,0,0,1,60.89,83a42.74,42.74,0,0,0-.89-5.3,8.68,8.68,0,0,0-1-2.37A7,7,0,0,0,57.2,73.36Z"/><path class="cls-3" d="M128.78,73.36a18.61,18.61,0,0,0-2.16,4.74,31.57,31.57,0,0,0-.79,5.2,9.4,9.4,0,0,1-.16-5.46A8.05,8.05,0,0,1,128.78,73.36Z"/><path class="cls-4" d="M128.24,48.53A5.19,5.19,0,0,1,133,53.26c.56,6.45,1.19,20.18-2,33.27-4.19,17.17-10.27,34.35-10.9,37.65-1.41,7.49-1.25,15.78,2.37,22.66.39.74,1.38,2.81,2.6,5a30.66,30.66,0,0,0,4.14,6.23c.34.33.1.9-3.18.9H61a2.68,2.68,0,0,1-2.35-4c3.66-6.63,6.71-18.15,7-19.36a1.42,1.42,0,0,0,0-.2C68.3,120.94,61,107.79,57,94.33c-.27-.9-1-3.82-1.84-7.78-2.41-11.29-.31-29.71.55-36.1a2.15,2.15,0,0,1,2.48-1.83,19.33,19.33,0,0,0,5.83.1,19.53,19.53,0,0,0,8.48-4.12,1.61,1.61,0,0,1,2.25.18,24.66,24.66,0,0,0,17.42,8.66c7,.29,14.17-1.81,17.76-7.85a1.62,1.62,0,0,1,2.29-.57c1.09.72,5.35,4,10.45,3.57A37.07,37.07,0,0,1,128.24,48.53Z"/><path class="cls-1" d="M126,160H61a3.65,3.65,0,0,1-3.16-1.81,3.6,3.6,0,0,1-.06-3.62c3.6-6.53,6.61-17.86,6.94-19.13l0-.13c1.93-10.74-1.77-21-5.35-30.84C58.2,101.25,57,97.92,56,94.61c-.3-1-1.06-4.12-1.85-7.86-2.41-11.27-.43-29.23.53-36.43a3.14,3.14,0,0,1,1.23-2.09,3.1,3.1,0,0,1,2.39-.59,18.51,18.51,0,0,0,5.51.1,18.58,18.58,0,0,0,8-3.91,2.59,2.59,0,0,1,3.63.3,23.6,23.6,0,0,0,16.71,8.32c7.73.31,13.89-2.37,16.87-7.37a2.71,2.71,0,0,1,1.72-1.26,2.57,2.57,0,0,1,2,.37l.29.2c1.41,1,5.15,3.55,9.53,3.21a40.13,40.13,0,0,1,5.76-.06h0A6.15,6.15,0,0,1,134,53.17c.61,6.94,1.16,20.53-2,33.6-2.65,10.84-6.08,21.78-8.35,29-1.3,4.13-2.32,7.39-2.54,8.56-1.12,5.94-1.64,14.58,2.27,22l.51,1c.5,1,1.24,2.47,2.08,4a28.86,28.86,0,0,0,4,6,1.28,1.28,0,0,1,.32,1.4C129.86,159.66,128.68,160,126,160Zm2.48-1.19h0ZM57.8,49.58a1.21,1.21,0,0,0-.71.24,1.12,1.12,0,0,0-.45.76c-.74,5.54-3,24.48-.56,35.76.88,4.13,1.58,6.91,1.82,7.7,1,3.25,2.17,6.56,3.33,9.75,3.67,10.13,7.46,20.61,5.43,31.88a2.61,2.61,0,0,1-.06.27c-.34,1.29-3.4,12.85-7.12,19.59a1.63,1.63,0,0,0,0,1.65A1.67,1.67,0,0,0,61,158H126a16.88,16.88,0,0,0,1.7-.07,37.76,37.76,0,0,1-3.53-5.58c-.86-1.57-1.61-3.08-2.11-4.07-.22-.43-.38-.77-.5-1-4.17-7.94-3.64-17.06-2.46-23.31.24-1.28,1.23-4.43,2.59-8.79C124,108,127.39,97.07,130,86.29c3.12-12.78,2.58-26.12,2-32.94a4.18,4.18,0,0,0-3.84-3.83h0a37.57,37.57,0,0,0-5.47.06C117.62,50,113.31,47,111.89,46l-.27-.19a.58.58,0,0,0-.44-.08.67.67,0,0,0-.44.34c-3.36,5.64-10.16,8.68-18.66,8.33a25.52,25.52,0,0,1-18.13-9,.62.62,0,0,0-.87-.05,20.62,20.62,0,0,1-9,4.33A20,20,0,0,1,58,49.6Z"/><path class="cls-5" d="M131,86.53c-.51,2.08-1,4.16-1.59,6.22-4,14.91-8.76,28.53-9.31,31.43-1.41,7.49-1.25,15.78,2.37,22.66.39.74,1.38,2.81,2.6,5a73.85,73.85,0,0,0,4.26,6.31.51.51,0,0,1-.41.82h-72a.52.52,0,0,1-.4-.85c4.53-5.09,8.78-21.12,9.13-22.48a1.16,1.16,0,0,0,0-.18C68.31,121,61,107.79,57,94.33c-.27-.9-1-3.82-1.84-7.78.34,1.59,9.28,5.85,11.79,7.16,10.62,5.56,22,9.23,34,7.24a55.42,55.42,0,0,0,15.72-5.28C119.22,94.39,130.64,88,131,86.53Z"/><path class="cls-1" d="M128.91,160h-72a1.51,1.51,0,0,1-1.38-.89,1.47,1.47,0,0,1,.24-1.61c4.44-5,8.73-21.38,8.91-22.07l0-.1c1.94-10.75-1.76-21-5.34-30.86C58.2,101.25,57,97.92,56,94.61c-.3-1-1.06-4.12-1.86-7.86a1,1,0,0,1,1.95-.41c.58,1.08,7.46,4.55,9.72,5.7l1.56.79c12.53,6.56,23.15,8.83,33.42,7.14a54,54,0,0,0,15.43-5.19c3.45-1.72,13-7.27,13.85-8.58a1,1,0,0,1,1.17-.64,1,1,0,0,1,.73,1.21c-.48,2-1,4.06-1.6,6.23-2.32,8.65-4.88,16.82-6.75,22.79-1.3,4.14-2.32,7.4-2.54,8.57-1.12,5.94-1.64,14.58,2.27,22l.51,1c.5,1,1.24,2.47,2.08,4,.95,1.73,3.25,4.91,4.19,6.19a1.51,1.51,0,0,1-1.21,2.4Zm-71-2H128a64.46,64.46,0,0,1-3.77-5.65c-.86-1.57-1.61-3.08-2.11-4.07-.22-.43-.38-.77-.5-1-4.17-7.94-3.64-17.06-2.46-23.31.24-1.28,1.23-4.43,2.59-8.79,1.87-6,4.42-14.11,6.73-22.71.28-1.06.55-2.1.81-3.11a130.6,130.6,0,0,1-12.15,7.18,56.22,56.22,0,0,1-16,5.37c-10.71,1.76-21.73-.57-34.66-7.34l-1.54-.78a90.53,90.53,0,0,1-8.16-4.47c.56,2.47,1,4.12,1.16,4.7,1,3.25,2.17,6.56,3.33,9.75,3.67,10.14,7.46,20.62,5.43,31.89,0,.08,0,.16,0,.25C66.16,137.63,62.32,152.11,57.91,158ZM130,86.29Z"/><circle class="cls-1" cx="93.15" cy="58.7" r="1.48"/><circle class="cls-1" cx="93.15" cy="67.28" r="1.48"/><circle class="cls-1" cx="93.15" cy="75.87" r="1.48"/><circle class="cls-1" cx="93.15" cy="84.46" r="1.48"/><circle class="cls-1" cx="93.15" cy="93.05" r="1.48"/><circle class="cls-1" cx="93.15" cy="101.63" r="1.48"/><circle class="cls-1" cx="93.15" cy="110.22" r="1.48"/><circle class="cls-1" cx="93.15" cy="118.81" r="1.48"/><circle class="cls-1" cx="93.15" cy="127.4" r="1.48"/><circle class="cls-1" cx="93.15" cy="135.98" r="1.48"/><circle class="cls-1" cx="93.15" cy="144.57" r="1.48"/><circle class="cls-1" cx="93.15" cy="153.16" r="1.48"/></svg>