<svg id="图层_1" data-name="图层 1" xmlns="http://www.w3.org/2000/svg" viewBox="0 0 186 186"><defs><style>.cls-1{fill:#f8f9f9;}.cls-2{fill:#d8d3d1;}.cls-3{fill:#9b9692;}.cls-4{fill:#f2f2f2;}</style></defs><path class="cls-1" d="M128.51,48.7a5.2,5.2,0,0,1,4.78,4.76c.58,6.5,1.21,20.34-2,33.52-4.23,17.3-10.35,34.6-11,37.93-1.43,7.55-1.26,15.9,2.38,22.83.39.75,1.4,2.84,2.62,5.08,1,1.79,2.84,4.94,3.7,6.4a.51.51,0,0,1-.44.78H56.64a.51.51,0,0,1-.4-.85c4.56-5.13,8.84-21.28,9.2-22.65a1.16,1.16,0,0,0,0-.18c2.64-14.66-4.71-27.92-8.8-41.48-.28-.91-1-3.85-1.86-7.84-2.42-11.37-.3-29.93.56-36.37a2.16,2.16,0,0,1,2.5-1.84,19.6,19.6,0,0,0,5.87.1,19.69,19.69,0,0,0,8.54-4.15,1.61,1.61,0,0,1,2.27.18,24.89,24.89,0,0,0,17.55,8.73c7.06.28,14.28-1.83,17.9-7.92a1.63,1.63,0,0,1,2.31-.57c1.09.73,5.38,4,10.53,3.6A37.6,37.6,0,0,1,128.51,48.7Z"/><path class="cls-2" d="M128.56,161H56.64a1.51,1.51,0,0,1-1.39-.9,1.48,1.48,0,0,1,.24-1.62c4.48-5,8.8-21.53,9-22.23l0-.1c2-10.83-1.77-21.13-5.38-31.09-1.17-3.25-2.39-6.61-3.39-9.94-.31-1-1.07-4.14-1.88-7.91-2.41-11.35-.42-29.45.55-36.71a3.14,3.14,0,0,1,1.23-2.11A3.19,3.19,0,0,1,58,47.8a18.45,18.45,0,0,0,5.55.1A18.56,18.56,0,0,0,71.66,44a2.62,2.62,0,0,1,3.66.3,23.76,23.76,0,0,0,16.83,8.39c7.8.31,14-2.39,17-7.43A2.71,2.71,0,0,1,110.88,44a2.51,2.51,0,0,1,2,.37l.3.2c1.42,1,5.17,3.58,9.6,3.23a40.82,40.82,0,0,1,5.81-.06h0a6.18,6.18,0,0,1,5.71,5.67c.62,7,1.17,20.69-2,33.85-2.67,10.92-6.13,22-8.41,29.25-1.31,4.16-2.34,7.45-2.56,8.62-1.13,6-1.65,14.69,2.29,22.19.12.23.29.58.51,1,.5,1,1.25,2.49,2.1,4,1,1.81,2.9,5,3.68,6.36a1.52,1.52,0,0,1,0,1.53A1.51,1.51,0,0,1,128.56,161Zm-70.91-2h70.06c-.92-1.56-2.44-4.14-3.29-5.7s-1.62-3.1-2.12-4.1c-.22-.43-.39-.77-.51-1-4.2-8-3.67-17.19-2.48-23.49.25-1.29,1.24-4.46,2.62-8.85,2.28-7.27,5.72-18.26,8.37-29.13,3.15-12.87,2.6-26.32,2-33.19a4.21,4.21,0,0,0-3.87-3.86,38.26,38.26,0,0,0-5.51.07c-5.11.39-9.46-2.6-10.88-3.58l-.28-.19a.54.54,0,0,0-.44-.08.69.69,0,0,0-.45.34c-3.39,5.68-10.22,8.74-18.8,8.4A25.76,25.76,0,0,1,73.8,45.57a.62.62,0,0,0-.87-.06,20.66,20.66,0,0,1-9,4.37,20.72,20.72,0,0,1-6.2-.1,1.16,1.16,0,0,0-1.35,1c-.74,5.58-3,24.67-.57,36,.89,4.17,1.6,7,1.83,7.76,1,3.27,2.2,6.61,3.36,9.83,3.7,10.21,7.52,20.76,5.47,32.12,0,.08,0,.16,0,.25C66,138.47,62.09,153.05,57.65,159Z"/><path class="cls-3" d="M83,26.79c3.4-.38,6.81-.58,10.21-.69C95,26,96.65,26,98.35,26c.85,0,1.71,0,2.56,0h.33a1,1,0,0,1,.25.09,1,1,0,0,1,.29.2,1.57,1.57,0,0,1,.35.56,4.84,4.84,0,0,1,.21.75A11,11,0,0,1,102.5,29c.07.86.07,1.77.09,2.58A13.25,13.25,0,0,0,102.9,34,11.35,11.35,0,0,0,105,38.46c2,2.68,5,4.48,7.91,6.14a31.59,31.59,0,0,0,4.48,2.22A18,18,0,0,0,122.07,48a23.32,23.32,0,0,0,4.87-.47,10.09,10.09,0,0,1,2.8,0,12.24,12.24,0,0,1,2.69.73,16.64,16.64,0,0,1,7.9,7.11,14.45,14.45,0,0,1,1.93,10.12l-.2,0A15.51,15.51,0,0,0,139,56.23a16.5,16.5,0,0,0-7.35-6,11,11,0,0,0-2.22-.62,10.9,10.9,0,0,0-2.29,0,24.3,24.3,0,0,1-5.29.26,21.24,21.24,0,0,1-9.54-4.32,36.18,36.18,0,0,1-7.8-6.72A15.82,15.82,0,0,1,102,34.27a14,14,0,0,1-.61-2.58c-.11-.89-.21-1.67-.37-2.5-.08-.4-.17-.8-.27-1.17a3.41,3.41,0,0,0-.16-.46s-.07-.09,0,0a.68.68,0,0,0,.16.11.78.78,0,0,0,.18,0h-.07c-.85,0-1.7,0-2.55,0-1.69,0-3.39,0-5.09-.1-3.4-.11-6.8-.31-10.2-.7Z"/><path class="cls-3" d="M100.92,27c-3.45.35-6.89.56-10.34.67-1.72.06-3.44.1-5.16.11l-1.29,0h-.45c.34-.12.28-.19.29-.16a1.13,1.13,0,0,0-.09.15A16.85,16.85,0,0,0,83.2,30l-.57,2.48c-.19.86-.31,1.65-.56,2.57a11.21,11.21,0,0,1-2.78,4.57,28.46,28.46,0,0,1-4,3.35c-1.42,1-2.75,2.06-4.13,3.13A22.06,22.06,0,0,1,66.63,49,12.24,12.24,0,0,1,61.2,50c-1.82,0-3.52-.3-5.17-.39a10.69,10.69,0,0,0-4.59.68c-2.87,1.15-4.83,4-5.87,7.14a24.55,24.55,0,0,0-1.16,4.91A37.71,37.71,0,0,0,44,67.47l-.2,0A26.7,26.7,0,0,1,44.17,57a15.48,15.48,0,0,1,2.18-5,10.31,10.31,0,0,1,4.28-3.63,11.64,11.64,0,0,1,5.52-.93c1.79.09,3.5.41,5.12.49a10.6,10.6,0,0,0,4.66-.73,38.92,38.92,0,0,0,4.52-2.18c3-1.7,6.1-3.34,8.35-5.87a9.08,9.08,0,0,0,2.14-4.4c.21-1.6.32-3.41.62-5.12A11.87,11.87,0,0,1,82.28,27a2.59,2.59,0,0,1,.23-.42,1.34,1.34,0,0,1,.77-.56l.22,0h.63l1.29,0c1.72,0,3.44.05,5.16.11,3.45.11,6.89.31,10.34.66Z"/><path class="cls-3" d="M61.37,152.15a54.31,54.31,0,0,0-.32-10.36c-.37-3.43-.9-6.84-1.53-10.23a178.64,178.64,0,0,0-5.46-20C52,105,49.59,98.46,47.71,91.75c-1-3.35-1.79-6.75-2.46-10.17a85.78,85.78,0,0,1-1.42-10.33c.52,3.43,1.2,6.84,2,10.2s1.85,6.67,2.92,10C51,98,53.42,104.48,55.8,111a114.6,114.6,0,0,1,5.45,20.23,83.51,83.51,0,0,1,1,10.45,51,51,0,0,1-.09,5.25A27.41,27.41,0,0,1,61.37,152.15Z"/><path class="cls-3" d="M141.42,67.49c0,1.81-.07,3.63-.17,5.45s-.41,3.62-.68,5.42-.67,3.57-1.06,5.35-.89,3.52-1.42,5.26l-1.78,5.14c-.64,1.7-1.27,3.4-1.84,5.12-1.19,3.41-2.19,6.88-3.16,10.37-.49,1.74-.93,3.49-1.44,5.22s-1,3.48-1.47,5.21l-1.4,5.21-1.31,5.22A136,136,0,0,0,122,151.67h-.2a71.13,71.13,0,0,1,1.87-21.7c.45-1.76.88-3.53,1.38-5.28l1.6-5.2c1.12-3.45,2.35-6.86,3.66-10.23s2.55-6.77,3.59-10.23,1.8-7,2.64-10.5c.4-1.75.82-3.5,1.3-5.23s.82-3.5,1.26-5.24.73-3.51,1.14-5.27.64-3.54,1-5.32Z"/><path class="cls-3" d="M126,160H61a3.65,3.65,0,0,1-3.16-1.81,3.6,3.6,0,0,1-.06-3.62c3.6-6.53,6.61-17.86,6.94-19.13l0-.13c1.93-10.74-1.77-21-5.35-30.84C58.2,101.25,57,97.92,56,94.61c-.3-1-1.06-4.12-1.85-7.86-2.41-11.27-.43-29.23.53-36.43a3.15,3.15,0,0,1,3.62-2.68,18.51,18.51,0,0,0,5.51.1,18.58,18.58,0,0,0,8-3.91,2.59,2.59,0,0,1,3.63.3,23.58,23.58,0,0,0,16.71,8.32c7.74.31,13.9-2.37,16.87-7.37a2.71,2.71,0,0,1,1.72-1.26,2.57,2.57,0,0,1,2,.37l.29.2c1.41,1,5.15,3.55,9.53,3.21a40.13,40.13,0,0,1,5.76-.06h0A6.15,6.15,0,0,1,134,53.17c.61,6.94,1.16,20.53-2,33.6-2.65,10.84-6.08,21.78-8.35,29-1.3,4.13-2.32,7.39-2.54,8.56-1.12,5.94-1.64,14.58,2.27,22l.51,1c.5,1,1.24,2.47,2.08,4a28.86,28.86,0,0,0,4,6,1.28,1.28,0,0,1,.32,1.4C129.86,159.66,128.68,160,126,160Zm2.48-1.19h0ZM57.8,49.58a1.21,1.21,0,0,0-.71.24,1.12,1.12,0,0,0-.45.76c-.74,5.54-3,24.48-.56,35.76.88,4.13,1.58,6.91,1.82,7.7,1,3.25,2.17,6.56,3.33,9.75,3.67,10.13,7.46,20.61,5.43,31.88a2.61,2.61,0,0,1-.06.27c-.34,1.29-3.4,12.85-7.12,19.59a1.63,1.63,0,0,0,0,1.65A1.67,1.67,0,0,0,61,158H126a16.88,16.88,0,0,0,1.7-.07,37.76,37.76,0,0,1-3.53-5.58c-.86-1.57-1.61-3.08-2.11-4.07-.22-.43-.38-.77-.5-1-4.17-7.94-3.64-17.06-2.46-23.31.24-1.28,1.23-4.43,2.59-8.79C124,108,127.39,97.07,130,86.29c3.12-12.78,2.58-26.12,2-32.94a4.18,4.18,0,0,0-3.84-3.83h0a37.57,37.57,0,0,0-5.47.06C117.62,50,113.31,47,111.89,46l-.27-.19a.58.58,0,0,0-.44-.08.67.67,0,0,0-.44.34c-3.36,5.64-10.15,8.68-18.66,8.33a25.52,25.52,0,0,1-18.13-9,.62.62,0,0,0-.87-.05,20.62,20.62,0,0,1-9,4.33A20,20,0,0,1,58,49.6Z"/><path class="cls-4" d="M131,86.53c-.51,2.08-1,4.16-1.59,6.22-4,14.91-8.76,28.53-9.31,31.43-1.41,7.49-1.25,15.78,2.37,22.66.39.74,1.38,2.81,2.6,5a69.82,69.82,0,0,0,4.32,6.31.51.51,0,0,1-.41.82H56.91a.52.52,0,0,1-.4-.85c4.54-5.1,8.79-21.15,9.14-22.49l0-.16C68.31,121,61,107.79,57,94.33c-.27-.9-1-3.82-1.84-7.78.34,1.59,9.28,5.85,11.79,7.16,10.62,5.56,22,9.23,34,7.24a55.42,55.42,0,0,0,15.72-5.28C119.22,94.39,130.64,88,131,86.53Z"/><path class="cls-3" d="M129,160H56.91a1.51,1.51,0,0,1-1.38-.89,1.47,1.47,0,0,1,.24-1.61c4.43-5,8.73-21.38,8.91-22.08l0-.1c1.94-10.74-1.76-21-5.34-30.85C58.2,101.25,57,97.92,56,94.61c-.3-1-1.06-4.12-1.86-7.86a1,1,0,0,1,1.95-.41c.58,1.08,7.46,4.55,9.72,5.7l1.56.79c12.53,6.56,23.15,8.83,33.42,7.14a54,54,0,0,0,15.43-5.19c3.45-1.72,13-7.27,13.85-8.58a1,1,0,0,1,1.17-.64,1,1,0,0,1,.73,1.21h0c-.5,2-1,4.1-1.6,6.23-2.32,8.65-4.88,16.82-6.75,22.79-1.3,4.14-2.32,7.4-2.54,8.57-1.12,5.94-1.64,14.58,2.27,22l.51,1c.5,1,1.24,2.47,2.08,4a71.19,71.19,0,0,0,4.25,6.18A1.51,1.51,0,0,1,129,160Zm-71.06-2H128a58.3,58.3,0,0,1-3.83-5.65c-.86-1.57-1.61-3.08-2.11-4.07-.22-.43-.38-.77-.5-1-4.17-7.94-3.64-17.06-2.46-23.31.24-1.28,1.23-4.43,2.59-8.79,1.87-6,4.42-14.11,6.73-22.71.28-1,.55-2.09.81-3.11a130.6,130.6,0,0,1-12.15,7.18,56.22,56.22,0,0,1-16,5.37c-10.71,1.76-21.73-.57-34.66-7.34l-1.54-.78a90.53,90.53,0,0,1-8.16-4.47c.56,2.47,1,4.12,1.16,4.7,1,3.25,2.17,6.56,3.33,9.75,3.67,10.14,7.46,20.62,5.43,31.89,0,.09,0,.16,0,.24C66.16,137.63,62.31,152.11,57.91,158ZM130,86.29Z"/></svg>