<svg id="图层_1" data-name="图层 1" xmlns="http://www.w3.org/2000/svg" viewBox="0 0 186 186"><defs><style>.cls-1{fill:#f5e3ea;}.cls-2{fill:#e4cbd4;}.cls-3{fill:#5b3b2f;}.cls-4{fill:#e8d0da;}.cls-5{fill:#fff;}</style></defs><path class="cls-1" d="M82.35,26.88h18c.58,0,1.56,3,1.59,3.48.38,7.65,3.94,10.85,11.16,15.42a20.47,20.47,0,0,0,7.77,3c2.79.43,5.5-.84,8.34-.25,7.16,1.49,13.95,8.78,13,15.78L140.6,73.4C135.67,102,121.87,123,121.87,151.29l-60.38-.65c1-7.89-1.48-20.14-3-26.62-1.65-7.17-3.57-11.43-6-18.36-2.28-6.5-1.9-7.27-5.66-19.86-1-3.43-1.42-3.92-1.91-7.47S44.12,68,44,64.53c-.16-4.1.34-8.32,2.59-11.9,1.93-3.09,5.26-4.34,8.81-4.17s6.32,1.07,9.83-.26c2.81-1.07,4.58-2.59,7.12-4,4.27-2.44,8.94-5.71,9.86-9.86.16-.74-.29-7.43.65-7.43h17.33"/><path class="cls-2" d="M102.56,58.43a9.17,9.17,0,0,1,6.23-3.6,17.38,17.38,0,0,1,7.38.51c2.41.74,4.54,2,6.81,2.67a6.12,6.12,0,0,0,3.29.2,4.4,4.4,0,0,0,2.47-1.88h0a.73.73,0,0,1,1-.18.75.75,0,0,1,.18,1l0,0a5.87,5.87,0,0,1-3.38,2.27,7.27,7.27,0,0,1-3.92-.4c-2.4-.85-4.46-2.22-6.69-3a16.77,16.77,0,0,0-7.1-.86A9.06,9.06,0,0,0,102.56,58.43Z"/><path class="cls-2" d="M80.44,59a15.09,15.09,0,0,0-13.93-2.88c-2.31.73-4.43,2.13-6.84,3a10.58,10.58,0,0,1-3.87.81,5.92,5.92,0,0,1-3.87-1.47h0a.74.74,0,0,1,1-1.11l0,0a4.55,4.55,0,0,0,2.94,1.28,9.56,9.56,0,0,0,3.45-.56c2.32-.74,4.51-2,7-2.7A15.47,15.47,0,0,1,80.44,59Z"/><path class="cls-2" d="M92.7,58.43A2.86,2.86,0,0,1,91,61.23a2.79,2.79,0,0,1-1.78.05,4.18,4.18,0,0,1-.78-.34,4.81,4.81,0,0,1-.64-.54c.29,0,.55.05.8.08s.5.05.74,0a3.38,3.38,0,0,0,1.3-.21A5.21,5.21,0,0,0,92.7,58.43Z"/><path class="cls-2" d="M86.29,41.18l.56,5c.09.83.2,1.65.34,2.47a15.5,15.5,0,0,0,.58,2.42,8.23,8.23,0,0,1-1-2.34,16.28,16.28,0,0,1-.46-2.49,23.7,23.7,0,0,1-.17-2.52A21.24,21.24,0,0,1,86.29,41.18Z"/><path class="cls-2" d="M96.15,39.21a43.19,43.19,0,0,1-1.07,5.53c-.24.91-.48,1.82-.79,2.71a13.76,13.76,0,0,1-1.09,2.6c.29-.89.5-1.8.73-2.71l.68-2.72C95.08,42.81,95.55,41,96.15,39.21Z"/><path class="cls-3" d="M83.05,26.79c3.39-.38,6.78-.59,10.18-.69,1.69-.07,3.39-.07,5.08-.1.85,0,1.7,0,2.55,0h.33a1.47,1.47,0,0,1,.25.08,1,1,0,0,1,.28.21,1.47,1.47,0,0,1,.35.55,4.84,4.84,0,0,1,.21.75,12.85,12.85,0,0,1,.16,1.34c.07.86.07,1.77.09,2.57a13,13,0,0,0,.31,2.42,11.25,11.25,0,0,0,2.1,4.43c2,2.68,5,4.47,7.88,6.12a34.28,34.28,0,0,0,4.46,2.22,18.18,18.18,0,0,0,4.66,1.2,23.26,23.26,0,0,0,4.85-.47,10.76,10.76,0,0,1,2.78,0,12.9,12.9,0,0,1,2.68.73,16.68,16.68,0,0,1,7.87,7.07A14.44,14.44,0,0,1,142,65.34l-.19,0a15.53,15.53,0,0,0-3-9.22,16.41,16.41,0,0,0-7.33-6,10.67,10.67,0,0,0-2.2-.62,10.27,10.27,0,0,0-2.29,0,24.69,24.69,0,0,1-5.26.26,21.12,21.12,0,0,1-9.5-4.3,36.44,36.44,0,0,1-7.77-6.69,15.46,15.46,0,0,1-2.52-4.55,14.13,14.13,0,0,1-.61-2.57c-.1-.88-.21-1.66-.37-2.49-.07-.4-.17-.8-.27-1.16a2.61,2.61,0,0,0-.15-.47c0-.05-.08-.09,0,0a.68.68,0,0,0,.16.11.58.58,0,0,0,.17,0h-.06c-.85,0-1.7,0-2.54,0-1.7,0-3.39,0-5.08-.1-3.39-.11-6.77-.31-10.16-.69Z"/><path class="cls-3" d="M100.87,27c-3.43.35-6.86.55-10.29.66-1.72.06-3.43.1-5.15.11l-1.29,0H83.7c.33-.12.28-.19.28-.15a.75.75,0,0,0-.08.14A14.92,14.92,0,0,0,83.22,30l-.57,2.48c-.19.85-.31,1.64-.56,2.56a11.15,11.15,0,0,1-2.77,4.54,28.72,28.72,0,0,1-4,3.34c-1.43,1-2.75,2-4.12,3.12a22.32,22.32,0,0,1-4.49,2.8,12.29,12.29,0,0,1-5.4,1.06c-1.82,0-3.51-.3-5.16-.39a10.75,10.75,0,0,0-4.57.67c-2.86,1.16-4.81,4-5.85,7.13a23.59,23.59,0,0,0-1.15,4.88,37.57,37.57,0,0,0-.38,5.1H44a26.64,26.64,0,0,1,.35-10.4A15.36,15.36,0,0,1,46.53,52a10.17,10.17,0,0,1,4.25-3.61,11.57,11.57,0,0,1,5.5-.92c1.78.08,3.49.4,5.1.48A10.49,10.49,0,0,0,66,47.18,38.7,38.7,0,0,0,70.53,45c3-1.7,6.07-3.33,8.32-5.85A9.18,9.18,0,0,0,81,34.78c.2-1.6.31-3.4.62-5.1A11.25,11.25,0,0,1,82.31,27a3,3,0,0,1,.23-.41A1.34,1.34,0,0,1,83.3,26l.22,0h.62l1.29,0c1.72,0,3.43.05,5.15.11,3.43.11,6.86.31,10.29.66Z"/><path class="cls-3" d="M44,71.05a138.51,138.51,0,0,0,5.16,20c2.15,6.54,4.6,13,6.82,19.57a122.62,122.62,0,0,1,5.21,20.21,88.19,88.19,0,0,1,1,10.39c.06,1.73,0,3.48,0,5.21a29.83,29.83,0,0,1-.64,5.17,50.23,50.23,0,0,0-.18-10.33c-.35-3.42-.87-6.83-1.51-10.2a159,159,0,0,0-5.66-19.82l-3.36-9.81c-1.09-3.29-2.17-6.59-3.12-9.93A92.27,92.27,0,0,1,44,71.05Z"/><path class="cls-3" d="M141.21,67.31c0,1.76-.07,3.53-.16,5.31s-.4,3.51-.65,5.27-.66,3.47-1,5.21-.89,3.42-1.39,5.11l-1.76,5c-.63,1.65-1.25,3.3-1.82,5-1.17,3.32-2.17,6.69-3.14,10.07-.48,1.69-.92,3.4-1.43,5.08s-.94,3.37-1.45,5.05L127,123.43c-.4,1.7-.85,3.39-1.28,5.08a130.84,130.84,0,0,0-3.63,20.62h-.19A68.26,68.26,0,0,1,123.68,128c.44-1.71.87-3.43,1.35-5.13l1.59-5.06c1.1-3.35,2.32-6.66,3.62-9.93s2.53-6.57,3.56-9.93,1.78-6.8,2.6-10.2c.39-1.7.81-3.4,1.28-5.08s.8-3.4,1.23-5.09.71-3.42,1.11-5.13.62-3.44,1-5.17Z"/><path class="cls-4" d="M91.42,97.42l-.79,4.63s-.39-1-.42-1.15A12.7,12.7,0,0,1,90,99.34a15.48,15.48,0,0,1,.07-3.4,51.11,51.11,0,0,0,.08-9.66c-.15-1.4-.45-2.75-.64-4.12a12.3,12.3,0,0,1-.25-3.1,2.1,2.1,0,0,1,1.44-1.78c.47-.17,1.36-.59,1.59.6a14,14,0,0,1-.11,3.23c-.18,2.18-.52,4.28-.72,6.45-.16,1.71-.27,3.45-.27,5.19,0,.9,0,1.8.12,2.68A8.82,8.82,0,0,1,91.42,97.42Z"/><path class="cls-5" d="M126.64,159H59.38c-.7,0-2,0-2.46-.95a2,2,0,0,1,.37-2.09,97.22,97.22,0,0,0,7-14.47,37.74,37.74,0,0,0,3.3-15.33c-.12-4.56-1.86-8.22-3.7-12.08-.53-1.12-1.07-2.26-1.59-3.44a27.61,27.61,0,0,0-2-3.46,21.63,21.63,0,0,1-2.57-5c-1.68-5.35-.2-11.4,1.11-16.73.18-.72.35-1.42.51-2.11a11,11,0,0,0-2.43-9.94c-.45-.51-1.15-.6-2.15-.67-.36,0-.73,0-1.08,0a7.73,7.73,0,0,0-6.51,2.86l-.11.15a1.91,1.91,0,0,1-1.56,1,2,2,0,0,1-.86-.22l-.37-.19-.12-.4c-1.36-4.45-2.56-13-.32-18.32,1.28-3,2.86-6.14,5.8-8.33a15.5,15.5,0,0,1,8.48-2.67c3.09,0,5.34,1.19,6.35,3.36a25.13,25.13,0,0,1,2.09,5.94A6.09,6.09,0,0,0,67.29,58a5.13,5.13,0,0,0,2.06,1.33,10.15,10.15,0,0,1,1.71.92,13.32,13.32,0,0,1,5.17,8,14.68,14.68,0,0,1,0,4c-.13,1.69-.28,3.59.25,4.52a8,8,0,0,0,2.09,1.62,20.71,20.71,0,0,1,6.53,5.94,40.27,40.27,0,0,1,5.33,11.2c.11.36.22.74.33,1,.07-.24.14-.55.2-.83.54-2.33,1.55-6.66,6.48-13,2-2.61,6.8-4.15,9-4.6,2.81-.56,3-2.39,2.42-6-.82-5-1.12-10.44,5.67-13,4-1.53,4.73-4.38,4.67-9.12v-.28l.14-.25A3.66,3.66,0,0,1,120.63,48l.09-.05.08,0a19.06,19.06,0,0,1,6.49-1.13,16.28,16.28,0,0,1,14.16,7.49,11.39,11.39,0,0,1,1.41,4.31c.1.56.2,1.13.34,1.68a8.73,8.73,0,0,1,.12,2.82,9,9,0,0,0,0,1.8l0,.15-.42,2.53a12,12,0,0,1-.72,4.09l-.12.29-.27.17a2.05,2.05,0,0,1-1.11.32,3.61,3.61,0,0,1-.95-.16l-.27-.07a24.68,24.68,0,0,0-4.14-.37,13,13,0,0,0-7,1.72,9,9,0,0,0-2.94,7.59,47.81,47.81,0,0,0,1.24,7c1.28,5.57,2.59,11.34-.56,16.61-.65,1.09-1.4,2.11-2.12,3.1-.5.67-1,1.35-1.45,2-5.24,7.88-9.07,20-4.08,30.31a105.06,105.06,0,0,0,8.88,14.15l1.47,2.1,0,.05a1.6,1.6,0,0,1,.05,1.63A2.33,2.33,0,0,1,126.64,159Z"/><path class="cls-3" d="M58.14,47.57c2.37,0,4.51.76,5.46,2.79,2.53,5.44,1.64,5.94,2.83,8.07.69,1.23,2.95,1.75,4,2.56a12.26,12.26,0,0,1,4.8,7.42c.51,2.4-.81,6.79.36,8.85.92,1.61,5.62,3,8.66,7.61,5.77,8.73,5,13,6.4,13.07h.09c1.86,0-.19-4.78,7.44-14.65,1.68-2.17,5.82-3.71,8.47-4.23,4-.79,3.73-3.93,3.19-7.16-.93-5.64-.55-9.81,5.06-12,4.64-1.77,5.37-5.19,5.3-10a2.89,2.89,0,0,1,.9-1.06,18.22,18.22,0,0,1,6.15-1.07,15.3,15.3,0,0,1,13.32,7c1.11,1.7,1.15,3.79,1.64,5.72.38,1.51-.12,3,.09,4.51l-.41,2.46a11,11,0,0,1-.65,3.81,1,1,0,0,1-.59.17,5.19,5.19,0,0,1-1-.21,25.5,25.5,0,0,0-4.35-.39,14,14,0,0,0-7.65,1.93,10,10,0,0,0-3.31,8.45c.54,7.51,5.08,15.88.82,23-1.06,1.78-2.4,3.37-3.55,5.1-6,9-9,21.13-4.14,31.28,2.72,5.64,6.81,11.19,10.4,16.34.49.9-.53,1.07-1.26,1.07H59.38c-1.19,0-2.21-.17-1.29-1.5a97.31,97.31,0,0,0,7.07-14.65,39.19,39.19,0,0,0,3.38-15.74c-.16-6.1-3-10.5-5.37-15.88-1.24-2.85-3.55-5.39-4.49-8.36-1.81-5.78.31-12.62,1.65-18.32A12,12,0,0,0,57.7,72.8a3.8,3.8,0,0,0-2.84-1c-.39,0-.77,0-1.16,0A8.75,8.75,0,0,0,46.43,75c-.23.29-.45.78-.9.78a.9.9,0,0,1-.41-.12c-1.46-4.79-2.36-12.9-.36-17.65,1.27-3,2.8-5.92,5.48-7.93a14.55,14.55,0,0,1,7.9-2.47m0-2h0a16.35,16.35,0,0,0-9.07,2.86C46,50.8,44.28,54.05,43,57.21c-2.34,5.55-1.11,14.4.29,19l.25.79.73.38a2.86,2.86,0,0,0,1.31.33,2.89,2.89,0,0,0,2.36-1.41l.07-.1a6.8,6.8,0,0,1,5.74-2.5c.33,0,.67,0,1,0,.85.06,1.27.13,1.48.35a10.05,10.05,0,0,1,2.22,9c-.16.69-.34,1.39-.51,2.11-1.34,5.46-2.86,11.65-1.1,17.25a22.76,22.76,0,0,0,2.68,5.22,26.53,26.53,0,0,1,1.88,3.34c.53,1.2,1.07,2.35,1.6,3.46,1.87,3.93,3.49,7.33,3.61,11.69a36.81,36.81,0,0,1-3.23,14.92,96.79,96.79,0,0,1-6.9,14.33,2.82,2.82,0,0,0-.4,3.06c.77,1.48,2.56,1.48,3.33,1.48h67.26a3.21,3.21,0,0,0,3-1.37,2.57,2.57,0,0,0,0-2.6l-.05-.09-.06-.09-1.45-2.06a104.57,104.57,0,0,1-8.79-14c-4.81-10-1.09-21.69,4-29.33.45-.67.93-1.32,1.43-2,.74-1,1.5-2,2.18-3.17,3.35-5.62,1.92-11.85.67-17.34a45.55,45.55,0,0,1-1.22-6.84,8.06,8.06,0,0,1,2.57-6.75,12.21,12.21,0,0,1,6.43-1.52,23.06,23.06,0,0,1,4,.36l.18,0a4.53,4.53,0,0,0,1.21.2,3.05,3.05,0,0,0,1.64-.48l.54-.34.23-.59a12.82,12.82,0,0,0,.79-4.36l0-.17.35-2.15,0-.29,0-.3a8.55,8.55,0,0,1,0-1.59,9.4,9.4,0,0,0-.15-3.13c-.13-.51-.23-1.05-.33-1.62a12.13,12.13,0,0,0-1.54-4.66,17.28,17.28,0,0,0-15-7.94A20,20,0,0,0,120.47,47l-.18.06-.16.09a4.49,4.49,0,0,0-1.51,1.64l-.05.08-.3.48v.58c.07,5.06-.88,7-4,8.19C107.11,60.83,107,66.5,108,72.22c.66,4,0,4.57-1.64,4.91-2.55.51-7.45,2.12-9.64,5a34.08,34.08,0,0,0-6,11,42.6,42.6,0,0,0-4.73-9.26,21.61,21.61,0,0,0-6.81-6.23,10.2,10.2,0,0,1-1.8-1.3c-.36-.64-.21-2.54-.1-3.93a15.63,15.63,0,0,0,0-4.33,14.19,14.19,0,0,0-5.55-8.58,10.6,10.6,0,0,0-1.87-1,6.16,6.16,0,0,1-1.63-.93,5.2,5.2,0,0,1-.6-1.78,25.78,25.78,0,0,0-2.16-6.15c-1.18-2.53-3.75-3.92-7.24-3.92Z"/></svg>