<svg t="1671695763328" class="icon" viewBox="0 0 1024 1024" version="1.1" xmlns="http://www.w3.org/2000/svg" p-id="6322"
  width="200" height="200">
  <path d="M483.424 880.64L156.768 554.016l52.8-52.8h547.712l52.768 52.8L483.424 880.64z" p-id="6323"></path>
  <path
    d="M483.424 893.12l-6.304-6.208L144.256 554.016l6.208-6.304L483.392 214.752l6.304 6.208L822.624 553.92l-6.176 6.304L483.424 893.12zM169.28 554.016l314.112 314.08 314.208-314.08-314.208-314.208-314.112 314.208z"
    p-id="6324"></path>
  <path
    d="M399.584 130.88l130.496 130.496-12.576 12.576-130.496-130.496 12.576-12.576zM879.712 725.824a58.4 58.4 0 1 1-116.8 0c0-32.256 58.4-110.56 58.4-110.56s58.4 78.336 58.4 110.56z"
    p-id="6325"></path>
</svg>