<svg t="1671695842176" class="icon" viewBox="0 0 1024 1024" version="1.1" xmlns="http://www.w3.org/2000/svg" p-id="6718"
  width="200" height="200">
  <path
    d="M941.700129 256.066065a99.096774 99.096774 0 0 1 0 140.15587L392.786581 945.118968a99.096774 99.096774 0 0 1-140.139355 0L77.477161 769.932387a99.096774 99.096774 0 0 1 0-140.139355L626.374194 80.896a99.096774 99.096774 0 0 1 140.139354 0l175.186581 175.170065z m-46.724129 46.724129L719.789419 127.603613a33.032258 33.032258 0 0 0-46.707613 0l-58.384516 58.401032 58.384516 58.384516a33.032258 33.032258 0 0 1 1.684646 44.923871l-1.684646 1.800258a33.032258 33.032258 0 0 1-46.707612 0l-58.401033-58.401032-81.738322 81.754839 105.092129 105.108645a33.032258 33.032258 0 0 1 1.684645 44.907355l-1.684645 1.816774a33.032258 33.032258 0 0 1-46.707613 0l-105.092129-105.125161-81.754839 81.754838 58.384516 58.401033a33.032258 33.032258 0 0 1 1.668129 44.907354l-1.668129 1.800259a33.032258 33.032258 0 0 1-46.724129 0l-58.384516-58.401033-81.754839 81.754839 58.401033 58.401032a33.032258 33.032258 0 0 1 1.668129 44.907355l-1.668129 1.816774a33.032258 33.032258 0 0 1-46.724129 0l-58.384517-58.417548L124.20129 676.500645a33.032258 33.032258 0 0 0 0 46.724129l175.186581 175.170065a33.032258 33.032258 0 0 0 46.707613 0l548.897032-548.897033a33.032258 33.032258 0 0 0 0-46.707612z"
    fill="#000000" p-id="6719"></path>
</svg>