<svg id="图层_1" data-name="图层 1" xmlns="http://www.w3.org/2000/svg" viewBox="0 0 186 186"><defs><style>.cls-1{fill:#fae7ee;}.cls-2{fill:#fff;}.cls-3{fill:#5b3b2f;}</style></defs><path class="cls-1" d="M128.31,32.21a18.63,18.63,0,0,0-1.94-2.8c-5-5.86-10.81-11-15.76-17a11.63,11.63,0,0,0-1.91-1.64c-1.69-1.29-3.67-1.4-5.84-1-2,.36-5.57.54-6.83-1.56a4.41,4.41,0,0,1-.53-2A14.5,14.5,0,0,1,95.61,3l-8.21.21a11.37,11.37,0,0,1,.12,3c-.19,1.93-.88,3-2.68,3.45-2.2.59-4.35,1.34-6.56,1.87-3,.71-4.71,2.33-5.19,5.19A102.65,102.65,0,0,0,72,29.21c-.24,5.37-.44,10.76-.66,16.14a4.07,4.07,0,0,1-.78,2.52c-3.25,4.12-4.47,9.1-5.74,14-.69,2.67-1.28,5.36-2,8-.44,1.67-1,3.29-1.51,4.93-.46,1.45-1.27,2.73-1.76,4.16A9.9,9.9,0,0,0,59,82a4.92,4.92,0,0,0,.85,2.87,9.11,9.11,0,0,0,1.25,1.52,4.18,4.18,0,0,0,2.4,1c.36,0,1.32.18,1.36-.4h0c0-.27-.27-.46-.51-.46a3.1,3.1,0,0,1-1.32-.45L62.83,86l.22,0c.4-.07,2.68-.22,2.54-.79a.38.38,0,0,0-.06-.13c-.36-.47-2.09.33-3-.15a5,5,0,0,1-.83-.45l0,0a1.29,1.29,0,0,1-.21-.19h0a.65.65,0,0,0,.17.16l-.14-.15a3.67,3.67,0,0,0,1.34.25,2.35,2.35,0,0,0,.7-.07l.13,0c.3-.07,1.28-.28,1.3-.6h0c0-.34-1-.09-1.19-.08a3.13,3.13,0,0,1-1.1-.12,3.66,3.66,0,0,1-.51-.21,4.1,4.1,0,0,1-.41-.22,3,3,0,0,1-.41-.28h0l0,0a2,2,0,0,1,0-.25,1,1,0,0,1,0-.24c0-.16,0-.31.07-.47a1.77,1.77,0,0,0,0-.2c0-.22.11-.44.17-.66l0-.07c.07-.24.15-.46.23-.69,0,0,0-.15.1-.27l0-.06,0,0c0-.07,0-.13.07-.2a4.78,4.78,0,0,1,.44-.84c.19-.23.34-.32.45-.33a.28.28,0,0,1,.18.1.73.73,0,0,1,0,.09,1.91,1.91,0,0,1,.08.65c0,.27-.12,1.13-.13,2v.35c0,1,.2,1.82.82,1.68.3-.06.35-.31.34-.57s0-.31,0-.43a2.37,2.37,0,0,1,.21-.91c.24-.57.25-1,.53-1.57a7.13,7.13,0,0,0,.76-3.33h0c0-.92-.3-1.71-.34-2.53a2.93,2.93,0,0,1,.31-1.51h0c1.89-3.8,3.88-8.48,5.93-12.19a38.07,38.07,0,0,0,4.86-14.3c.59-4.3,2.57-11.63,3-16,.53,1.66.79,6.3,1.32,7.92,2.06,6.29,4.49,12.41,1.45,16.77a8.63,8.63,0,0,0-.78,1.62,43,43,0,0,0-3.55,18.7c.34,5.25-1.07,7.09-.07,12.26,1.53,8,8.17,15,9.71,23a40.92,40.92,0,0,1,.57,5.26,48.5,48.5,0,0,0,.49,8.59c2,10.09,4.54,20.07,7,30.05,1.35,5.36,2.67,10.72,1.35,16.31a19,19,0,0,0-.34,3.21c-.21,3.14,1.38,5.37,3.79,7.09a2.79,2.79,0,0,0,4.1-.74,6.44,6.44,0,0,0,1.23-3.87,32,32,0,0,0-1.65-9.7c-.67-2.36-.68-4.86-1.69-7.18-.49-1.12-1.12-2.66-.11-3.95,3.8-4.8.76-10.14.34-15.2,0-.17-.18-.32-.24-.48a2.17,2.17,0,0,1-.19-.87c.45-2.77.5-5.41.91-8.21.94-6.42,0-12.24-1.89-18.62a19.2,19.2,0,0,1,.93-13.47c1.83-4.28,6.4-6,7.81-10.39,1.67-5.32-4.33-12.39-3.87-17.93.52-6.22-1.15-14.29-3.67-20.2a.08.08,0,0,1,0-.1h.11c1.37,1,3.77,3.06,4.94,4.09s2.43.46,3.81-.26a33.26,33.26,0,0,0,6.1-4.7c4.35-3.7,7.83-7,10.54-12.14A4.58,4.58,0,0,0,128.31,32.21Zm-6.66,3.28c-3.53,3.11-5.43,7.42-8.17,11.1s-3.63,4.63-6.65,1c-1.15-1.39-2.45-3.57-4.09-4.73h0a4.67,4.67,0,0,0-.77-.45,1.31,1.31,0,0,1-.67-1.39c.44-2.11.77-4.24,1.33-6.32a53.91,53.91,0,0,1,2-6.87,5.32,5.32,0,0,0,.3-3.35,2,2,0,0,1,.67-2.27c.86-.62,1.64,0,2.27.48a51,51,0,0,1,4.89,3.7c2.75,2.76,5.71,5.28,8.61,7.87C121.79,34.61,122.31,34.91,121.65,35.49Z"/><path class="cls-2" d="M76.05,157.41s9.71-6.06,6-13c-9-17-4.57-15-1-19.06,2.25-2.53,13-2,7-15-.73-1.57-4.36-2.66-3-4,2-2-.1,4.42,8-1,6.55-4.37,16-1,16,0,0,1.32-4.48,2.64-6.49,7.65-1.13,2.82,2.24,5,6.38,14.62,2.09,4.88-.65,12.46-4,14.26-1.6.85-2.11,3.39-.5,4.21,3.57,1.81,6.94,3.64,7.7,7.93.48,2.72,0,5.51,0,8.28-.13,7.86,2,15.81,10.09,18.45,6.29,2,13.24,1.13,19.65,1.29,7.93.19,16.41.36,23.58-3.54.72-.39,1.5-.94,1.56-1.75s-.79-1.62-1.58-2.1c-5.93-3.55-12.93-4.25-18.79-8a32,32,0,0,1-12.87-17.3c-2-6-3-12.31-4.93-18.33-1.79-5.54-3.9-10.77-4.76-16.6-5-34.1-8-43.12-8-43.12-1.92-5.76-4.06-11.45-6.23-17.12-2.06-5.37-5.52-11-6-16.77-.31-4,1.93-7.71,1.91-11.66,0-4.93.83-8.78-1.08-13.71a2.24,2.24,0,0,0-.62-.89c-1.07-.87-2.56-.57-3.47-.51a1.68,1.68,0,0,0-1.38,1c-3,6-11.8,5.93-15.24,0-.39-.68-1.48-.63-2.32-.55-1.64.39-3.43.85-3.79,1.54-.23.45-.5,1-.25,1.38,3.35,5.18-.53,11.34,1.34,18.22,2.74,10.07,6.69,16.45,2,26.72C72.79,77.08,71.89,98,64.42,116.72c-7,17.51-16.66,33.67-30.24,46.88a22.91,22.91,0,0,1-8,5.51c-2.46.9-7.2,1.23-7.24,4.34-.05,5.49,7,8,12.23,6.18,2.26-.81,3.8.16,5.89.84,5,1.62,10.47-.35,15.61-.19,4.73.16,8.66,2.47,12.39-1.57s3.46-9.71,3.23-15"/><path class="cls-3" d="M147.09,183c-1.74,0-3.44,0-5.1-.08s-3.35,0-5.12,0c-4.93.09-10,.2-14.81-1.36-7.22-2.34-11-9.05-10.79-19.4,0-.85.06-1.7.11-2.56a24.23,24.23,0,0,0-.09-5.53c-.65-3.65-3.38-5.29-7.17-7.21a2.82,2.82,0,0,1-1.54-2.56,4,4,0,0,1,2-3.42c14.06-7.55,17.3-32.52,17.33-32.77a1,1,0,0,1,.26-.55c-4.34-28-7-36-7-36.11-1.94-5.81-4.14-11.64-6.23-17.08-.59-1.54-1.3-3.09-2-4.73-1.8-4-3.66-8.05-4-12.31a19.51,19.51,0,0,1,1-6.53,19.87,19.87,0,0,0,.93-5.21c0-1.21,0-2.43.08-3.61.14-3.7.27-7.2-1.1-10.74a1.09,1.09,0,0,0-.32-.48,3.3,3.3,0,0,0-2.33-.33l-.45,0a.72.72,0,0,0-.55.42A9.36,9.36,0,0,1,91,16c-3.69-.2-6.76-2.19-7.86-5.08a4.42,4.42,0,0,0-1.26,0A10.49,10.49,0,0,0,78.77,12a3.34,3.34,0,0,0-.2.46c2,3.12,1.59,6.71,1.21,10.52-.29,2.93-.6,6,.19,8.86.53,1.94,1.1,3.74,1.66,5.47,2.27,7.14,4.24,13.31.33,21.93C77.61,68.83,75.27,79.41,73,89.64c-2,9.15-4.12,18.61-7.65,27.47-7.6,19.07-17.84,35-30.44,47.24-3.93,3.82-7.08,6.14-9.62,7.07a11.72,11.72,0,0,1-2.5.54c-1.76.24-2.55.4-2.89,1.78a2.27,2.27,0,0,0,.32,1.85c1.1,1.73,4,2.85,5.7,3.19a9.61,9.61,0,0,0,3.63-.14c.59-.1,1.2-.2,1.88-.26a12.56,12.56,0,0,1,5.27,1,18.62,18.62,0,0,0,2.72.79,20.92,20.92,0,0,0,7.19-.37,26,26,0,0,1,6.91-.51c.79.08,1.58.21,2.37.33,3.28.51,6.11.94,8.43-1.57,3.42-3.72,3.17-9.56,3-14.25a1,1,0,0,1,.95-1,1,1,0,0,1,1,1c.22,5.06.5,11.36-3.49,15.69-3,3.29-6.68,2.73-10.2,2.18-.75-.11-1.51-.23-2.26-.31a24.44,24.44,0,0,0-6.38.49,22.81,22.81,0,0,1-7.88.37,20.61,20.61,0,0,1-3-.87,11.09,11.09,0,0,0-4.45-.9c-.6.06-1.18.15-1.73.25a11.31,11.31,0,0,1-4.34.12c-1.87-.37-5.46-1.64-7-4.07a4.25,4.25,0,0,1-.57-3.4c.68-2.75,2.83-3,4.55-3.27a10.25,10.25,0,0,0,2.08-.44c2.28-.83,5.19-3,8.92-6.63,12.4-12.08,22.49-27.74,30-46.55,3.47-8.71,5.55-18.09,7.55-27.16,2.29-10.33,4.65-21,9.09-30.81,3.59-7.93,1.82-13.48-.42-20.5-.56-1.76-1.14-3.58-1.67-5.55-.9-3.27-.57-6.48-.26-9.59.37-3.65.68-6.79-1-9.36A2.33,2.33,0,0,1,77,11c.55-1,2.19-1.51,4.45-2l.13,0c1-.09,2.82-.26,3.36,1.21.79,2.19,3.2,3.71,6.13,3.86a7.44,7.44,0,0,0,7.27-4,2.69,2.69,0,0,1,2.21-1.52l.39,0a5,5,0,0,1,3.78.77,3.11,3.11,0,0,1,.91,1.3c1.53,3.92,1.38,7.79,1.24,11.53,0,1.16-.09,2.36-.08,3.53a21.52,21.52,0,0,1-1,5.74,17.53,17.53,0,0,0-.9,5.86c.3,3.91,2.09,7.84,3.82,11.63.72,1.6,1.47,3.25,2.09,4.85,2.1,5.46,4.31,11.31,6.26,17.16.12.37,3.1,9.49,8.09,43.28a71.83,71.83,0,0,0,3.5,12.78q.63,1.82,1.23,3.66c1,3.05,1.76,6.21,2.5,9.26s1.47,6.1,2.44,9.07a30.91,30.91,0,0,0,12.48,16.76,40.91,40.91,0,0,0,9.52,4.12,46.56,46.56,0,0,1,9.23,3.89c1.47.88,2.17,1.9,2.08,3a3.44,3.44,0,0,1-2.08,2.55C160.19,182.45,153.47,183,147.09,183Zm-6.72-2.09,1.66,0c7.54.18,16.08.38,23.09-3.43.83-.46,1-.77,1-1s-.38-.73-1.11-1.16a44.3,44.3,0,0,0-8.85-3.71,43.89,43.89,0,0,1-10-4.34,32.88,32.88,0,0,1-13.3-17.82c-1-3-1.74-6.18-2.48-9.21s-1.48-6.14-2.45-9.12c-.4-1.22-.81-2.42-1.22-3.62a73.59,73.59,0,0,1-3.59-13.14c-.06-.4-.12-.81-.18-1.2a76.45,76.45,0,0,1-2.6,9.18c-3.52,9.91-8.67,16.92-14.89,20.27a1.93,1.93,0,0,0-1,1.64.84.84,0,0,0,.44.8c3.28,1.66,7.37,3.73,8.23,8.65a25.61,25.61,0,0,1,.13,6c-.05.82-.1,1.65-.12,2.47-.14,9.53,3,15.41,9.42,17.48,4.47,1.45,9.4,1.35,14.16,1.26C138,180.94,139.19,180.91,140.37,180.91Z"/><path class="cls-3" d="M67.16,163.47c-.11-3.91.06-7.72.11-11.57l.22-11.53.44-23.07.55,23.06.27,11.53c.12,3.84.1,7.72.39,11.49a1,1,0,0,1-.91,1.07,1,1,0,0,1-1.07-.91v-.07Z"/><path class="cls-3" d="M83.06,50.91a51.08,51.08,0,0,0,11.16,1.21,16.73,16.73,0,0,0,5.27-1,13.74,13.74,0,0,0,2.41-1.24,19,19,0,0,0,2.22-1.78,8.85,8.85,0,0,1-1.58,2.51,10.25,10.25,0,0,1-2.38,1.91,12.9,12.9,0,0,1-5.86,1.57,19.09,19.09,0,0,1-5.9-.76A18.34,18.34,0,0,1,83.06,50.91Z"/><path class="cls-3" d="M69,164.42a1,1,0,0,1-.63-1.76c1.14-.94,2.36-1.84,3.66-2.79,3.07-2.25,6.24-4.58,8.2-7.45,2.6-3.81,1.76-6.67-.7-10.6a30.55,30.55,0,0,1-2.35-4.64,1,1,0,0,1,1.85-.75,27.82,27.82,0,0,0,2.18,4.33c2.77,4.43,3.85,8.11.66,12.78-2.15,3.15-5.46,5.58-8.67,7.93-1.27.94-2.47,1.82-3.57,2.72A1,1,0,0,1,69,164.42Z"/><path class="cls-3" d="M75.14,108.29a79.15,79.15,0,0,0,.16,8.44c.16,2.81.46,5.61.88,8.37s1.16,5.47,1.71,8.17a59.15,59.15,0,0,0,2.25,8,.1.1,0,0,1-.06.14.12.12,0,0,1-.11,0,20.41,20.41,0,0,1-4-7.64,40.29,40.29,0,0,1-1.36-8.49c-.23-2.84-.33-5.69-.3-8.53a70.86,70.86,0,0,1,.64-8.49.1.1,0,0,1,.12-.08A.09.09,0,0,1,75.14,108.29Z"/><path class="cls-3" d="M78.14,137.8a1,1,0,0,1-1-.85,20,20,0,0,1,.19-7.15A10.09,10.09,0,0,1,80,124.56a10.64,10.64,0,0,1,4.3-2.23c2-.67,3.61-1.2,4.21-3.35,1.06-3.81-1.18-7.11-3.34-10.31-.58-.85-1.18-1.73-1.7-2.6a1,1,0,0,1,.18-1.24,1,1,0,0,1,1.24-.09,8.59,8.59,0,0,0,4.64,1.05h.06c1.86,0,3.55-1,5.33-2a25.66,25.66,0,0,1,2.48-1.33c3-1.34,6.58-1.1,10.17.68,1.82.9,2.2,2,2.19,2.8a2.81,2.81,0,0,1-1.45,2.33,6.85,6.85,0,0,1-1.37.62l-.49.19a5.5,5.5,0,0,0-3.49,4.17,7.33,7.33,0,0,0,2.38,6.54c.69.64,1.46,1.26,2.29,1.92,2.87,2.29,6.14,4.88,6.18,9.2a9.69,9.69,0,0,1-1.13,4.63,1,1,0,0,1-1.35.41,1,1,0,0,1-.41-1.34,7.71,7.71,0,0,0,.91-3.68c0-3.37-2.67-5.46-5.44-7.67-.82-.65-1.66-1.32-2.41-2a9.34,9.34,0,0,1-3-8.35,7.42,7.42,0,0,1,4.69-5.66l.57-.22a4.86,4.86,0,0,0,1-.44.94.94,0,0,0,.51-.65c0-.29-.41-.68-1.08-1-1.77-.87-5.22-2.11-8.47-.65-.76.35-1.51.78-2.31,1.24-1.93,1.11-3.92,2.26-6.32,2.26h-.09a15.54,15.54,0,0,1-2.69-.24v0c2.3,3.4,4.91,7.26,3.61,12-.88,3.17-3.34,4-5.5,4.7A9,9,0,0,0,81.4,126a8.13,8.13,0,0,0-2.12,4.24,17.85,17.85,0,0,0-.16,6.43,1,1,0,0,1-.84,1.13Z"/><path class="cls-3" d="M108.13,104.27a17.29,17.29,0,0,0-4.48,4.18c-1.46,1.71-2.75,3.13-2.81,5.52a9.38,9.38,0,0,0,1.59,5.19c1.1,1.73,2.62,3.17,3.7,4.92a16.58,16.58,0,0,1,2.18,8.35,40.63,40.63,0,0,1-.18,4.55c0,.58-.61,3-.13,3.38.31.25,1.36-1.85,1.67-2a19.15,19.15,0,0,0,2.23-3.28l.46-6.62c0-1-2-3.2-2.56-4-2.17-2.78-5.49-3.79-6.68-7.2-1.31-3.73-1-6,4.23-9.08C108.47,107.56,109,105.22,108.13,104.27Z"/><path class="cls-3" d="M77,134.34a53.85,53.85,0,0,1,.11-8.14c.19-2.69.78-5.33,1.2-8l1.3-8,1.4-8a.1.1,0,0,1,.12-.08.11.11,0,0,1,.08.11l-.61,8.07-.71,8.05c-.25,2.69-.32,5.39-.8,8a53.5,53.5,0,0,1-1.89,7.91.1.1,0,0,1-.13.06A.08.08,0,0,1,77,134.34Z"/><path class="cls-3" d="M88.08,64.16l-3,41.21a1,1,0,0,1-2-.15v0Z"/><path class="cls-3" d="M103.62,60.65l5.5,45.53a1,1,0,0,1-2,.23v0Z"/><path class="cls-3" d="M112.83,92.76a15.06,15.06,0,0,0-3.42,7.31,15.37,15.37,0,0,0,.8,8,26.78,26.78,0,0,0,4.38,6.8c1.74,2.09,3.62,4.07,5.54,6a.51.51,0,0,1,0,.71.5.5,0,0,1-.71,0h0c-1.86-2-3.7-4.07-5.4-6.24a27.57,27.57,0,0,1-4.26-7.09,15.69,15.69,0,0,1-.58-8.2A15.25,15.25,0,0,1,112.83,92.76Z"/><path class="cls-3" d="M112.36,167a1,1,0,0,1-.71-.29,1,1,0,0,1,0-1.41c5.47-5.41,6.16-14.89,6.77-23.25.18-2.35.34-4.57.6-6.63l3.15-25.27a1,1,0,0,1,2,.25L121,135.68c-.25,2-.41,4.2-.58,6.52-.64,8.72-1.36,18.59-7.36,24.53A1,1,0,0,1,112.36,167Z"/><path class="cls-3" d="M112.14,151.39c.14,2,1.53,4.46,2.48,6.22.37.68,1.16,1.27,1.88,1,.18-.08.3-.14.48,0-.77,2.7-3.34,5.49-4.84,7.89.12-.18-.06-.94-.08-1.15l-.19-3c-.17-2.5.44-3.41.27-5.91C112.07,155.27,112.22,152.53,112.14,151.39Z"/></svg>