<svg id="图层_1" data-name="图层 1" xmlns="http://www.w3.org/2000/svg" viewBox="0 0 186 186"><defs><style>.cls-1{fill:#f9e6ed;}.cls-2{fill:#fff;}.cls-3{fill:#5b3b2f;}</style></defs><path class="cls-1" d="M117.67,3h-7.34a1.7,1.7,0,0,0-1.6,1.12c-.31.87-.66,2.57-.81,2.75-1.1,1.36-3,1.13-4.53,1.31-2,.22-4.09.52-5.64,1.85a12.25,12.25,0,0,0-3.31,5.47c-1,3.07-1.26,6.55-1.79,9.72s-1,6.18-1.52,9.25a4.25,4.25,0,0,0,2.19,4.58,6.62,6.62,0,0,0,2.05.63c1.78.26,4,.34,5.66-.71s1.94-3.53-.56-3.58c-1.59,0-4.13.57-4.17-1.59,0-1.35.91-2.85,1.54-4,1.34-2.38,3-4.5,4.56-6.73a1.69,1.69,0,0,1,1.59-.74l22.24,2.28c.88.09,3-2.64,3.42-3.2a15.86,15.86,0,0,0,3.3-7.15c.54-2.79.32-4.36-2.68-5.07C127,8.44,123,8.53,119.93,6.93a.93.93,0,0,1-.44-.39,1,1,0,0,1-.06-.38c0-.56-.07-1.13-.07-1.69A1.72,1.72,0,0,0,117.67,3Z"/><path class="cls-2" d="M73.28,182c-21.16,0-38.34-1.74-54.08-5.47-2.84-.68-6.48-2.74-7.78-5.67a5.41,5.41,0,0,1,.35-5c1.78-3.22,6.92-3.94,10.67-4.45l.73-.11c2.54-.36,5.15-.55,7.68-.73s5.28-.38,7.91-.76C63,156.3,71.08,124,73,114.17c1.11-5.68,1.91-11.36,2.68-16.85C77.9,81.46,80,66.48,89,52.44a41.69,41.69,0,0,1,6.48-8.25c.42-.4.86-.77,1.3-1.14,1.9-1.61,4-3.44,4.08-6.68a17.72,17.72,0,0,0-1.22-6.46,15,15,0,0,1-1.09-6.23c.18-3.79,3-5.41,9.34-5.41,1.13,0,2.23,0,3.3.09l1.74.06a47.69,47.69,0,0,1,8.81,1l.63.13c4.11.86,5.82,1.22,6.41,5.44a14,14,0,0,1-3,10.63,55.81,55.81,0,0,0-5.1,6.86,6,6,0,0,0,.37,6.45c2.06,2.85,4.24,5.71,6.35,8.47A195.93,195.93,0,0,1,139.18,74c6,9.82,10.15,20.8,14.18,31.42l16.93,44.64c.47,1.22,1,2.45,1.56,3.76a47.78,47.78,0,0,1,2.87,7.91c.09.44.17.87.24,1.3a6.17,6.17,0,0,1-1.17,5c-2.11,2.43-6.9,3.75-10.74,4.81-1.28.35-2.49.68-3.52,1a99.88,99.88,0,0,1-17.22,4.42c-12.52,1.82-25.39,2.36-37.84,2.88l-3.91.16c-8,.35-17.57.7-27.27.7Z"/><path class="cls-3" d="M107.93,19.27c1.11,0,2.2,0,3.25.09l1.76.06a46.71,46.71,0,0,1,8.64,1l.63.13c4,.85,5.12,1.07,5.62,4.6A13,13,0,0,1,125,35c-3.07,3.85-4.23,5.29-5.19,7a7,7,0,0,0,.42,7.53c2.07,2.87,4.26,5.73,6.37,8.49a192.83,192.83,0,0,1,11.72,16.47c5.93,9.74,10.08,20.68,14.09,31.25L157.83,120l5.76,15.19,5.77,15.2c.47,1.25,1,2.55,1.57,3.8a45.59,45.59,0,0,1,2.81,7.74c.1.42.17.83.23,1.22a5.32,5.32,0,0,1-.93,4.18c-1.92,2.2-6.54,3.47-10.26,4.49-1.29.36-2.51.7-3.57,1a98,98,0,0,1-17.05,4.38c-12.47,1.81-25.32,2.35-37.75,2.87l-3.89.16c-8,.35-17.55.7-27.24.7-21.08,0-38.19-1.73-53.85-5.45-2.69-.63-6-2.59-7.09-5.1a4.37,4.37,0,0,1,.3-4.13c1.54-2.79,6.4-3.46,9.94-3.95l.73-.11c2.5-.35,5.1-.54,7.61-.72s5.31-.39,8-.77C63.75,157.19,72,124.35,74,114.36c1.12-5.7,1.92-11.4,2.69-16.9C78.88,81.71,81,66.84,89.88,53a39.94,39.94,0,0,1,6.33-8.06c.39-.37.81-.73,1.26-1.11,2-1.66,4.39-3.73,4.43-7.42a18.56,18.56,0,0,0-1.28-6.8,14.13,14.13,0,0,1-1-5.86c.11-2.32,1.19-4.46,8.34-4.46m0-2c-4.87,0-10.08.84-10.34,6.36S100,31,99.9,36.36c0,3.46-2.84,5-5.06,7.1A42.13,42.13,0,0,0,88.2,51.9C75.85,71.1,76.26,92.17,72,114c-3.41,17.5-13.09,41.89-33.39,44.81-5.17.74-10.42.76-15.59,1.49-3.9.56-10,1.17-12.14,5.07-3.34,6,3,10.94,8.08,12.15,18,4.26,36.09,5.5,54.31,5.5,9.08,0,18.19-.31,27.33-.7,14-.6,28-1,41.84-3.05a99.63,99.63,0,0,0,17.4-4.46c4.21-1.42,11.66-2.64,14.7-6.13a7.26,7.26,0,0,0,1.4-5.78c-.07-.45-.15-.91-.26-1.37-.89-4-3.05-8.09-4.46-11.81q-2.88-7.59-5.77-15.2-5.58-14.72-11.17-29.44C150.2,94.27,146.06,83.38,140,73.48c-5.34-8.77-12.15-16.75-18.16-25.09a5,5,0,0,1-.31-5.37c.87-1.54,1.93-2.87,5-6.73a15,15,0,0,0,3.23-11.39c-.73-5.16-3.32-5.45-7.82-6.41a48.62,48.62,0,0,0-9-1.07c-1.45,0-3.23-.15-5.06-.15Z"/><path class="cls-3" d="M47.61,171a.75.75,0,0,1-.21-1.47c13.66-4,23.61-11.82,28.77-22.56,3.41-7.07,5.09-14.85,6.4-21.59,1.19-6.15,2.23-12.54,3.23-18.71C89,87,92.28,66.69,101.31,48.72a.75.75,0,0,1,1-.33.74.74,0,0,1,.33,1c-8.92,17.77-12.2,38-15.37,57.47-1,6.18-2,12.58-3.24,18.76-1.33,6.83-3,14.72-6.51,21.95-5.36,11.13-15.63,19.2-29.71,23.35A.76.76,0,0,1,47.61,171Z"/><path class="cls-3" d="M135.31,179.31h-.06a.74.74,0,0,1-.68-.81C137.08,149.61,114.45,71.74,114.23,71a.75.75,0,1,1,1.43-.42c.23.78,22.94,78.92,20.4,108.09A.74.74,0,0,1,135.31,179.31Z"/><path class="cls-3" d="M93,182.05a.8.8,0,0,1-.26-.05.75.75,0,0,1-.45-1c9.1-25,13.59-71,13.63-71.48a.75.75,0,1,1,1.49.14c0,.47-4.54,46.64-13.71,71.85A.75.75,0,0,1,93,182.05Z"/><path class="cls-1" d="M115.74,70.05q-.17,1.1-.3,2.19c0,.3-.32,1.46.21,1.54.31,0,.45-.32.54-.55.58-1.52,1-3.1,1.41-4.67,0-.15.08-.55.3-.53.85.07,0,5.3,0,5.75,0-.09,0,.7.62,0,0,0,1-4.35.81-5.76a24.91,24.91,0,0,1,.05-3.56c0-1.72,1-3.31-.14-5.36l-1.62-9.16c-.5-2-.63-4.11-1.06-6.14-.5-2.35-1.38-4.82-1.35-7.24,0-4.25,4.47-6.52,7.44-8.64,8.07-5.78,7.47-7.4,9.89-12.09l-7.41-1.7c-.58-.13-4.5,5.63-4.93,6.17-2.72,3.39-5.43,6.74-8.39,9.9a8.84,8.84,0,0,0-1.31,9.62c.17,0,5.51,20.58,5.53,20.64a8,8,0,0,1-.59.89,11.37,11.37,0,0,0-1,3.27c-.08.5-.15,1-.2,1.5a5.64,5.64,0,0,1-.69,2.22,5.15,5.15,0,0,0-.73,2.13c0,.11,0,.25.13.26a.31.31,0,0,0,.12,0,3.82,3.82,0,0,0,.86-1.32A6.2,6.2,0,0,1,115,68c.17-.16.07.31.06.37-.09.41-.21.81-.33,1.22a12.51,12.51,0,0,0-.59,3.09.51.51,0,0,0,0,.25.2.2,0,0,0,.19.14.22.22,0,0,0,.15-.08c.3-.27.31-.74.44-1.1a12.21,12.21,0,0,1,.7-1.34c.23-.42.32-.9.54-1.33"/><path class="cls-1" d="M119.39,64.05c.19.61.3,1,.52,1.6s.58,1.09.83,1.65c.05.11.07.25,0,.32a.23.23,0,0,1-.14,0,2,2,0,0,1-1.25-.6l-.89-.94Z"/></svg>