<svg id="图层_1" data-name="图层 1" xmlns="http://www.w3.org/2000/svg" viewBox="0 0 186 186"><defs><style>.cls-1{fill:#f9e6ed;}.cls-2{fill:#fff;}.cls-3{fill:#5b3b2f;}</style></defs><path class="cls-1" d="M106.57,3H99.34a1.67,1.67,0,0,0-1.58,1.11c-.31.85-.65,2.52-.8,2.71C95.88,8.15,94,7.92,92.5,8.1c-1.93.23-4,.52-5.56,1.83a12,12,0,0,0-3.27,5.39c-1,3-1.23,6.45-1.76,9.58S81,31,80.42,34a4.17,4.17,0,0,0,2.15,4.51,6.71,6.71,0,0,0,2,.63c1.75.25,4,.33,5.58-.71s1.91-3.48-.55-3.53c-1.57,0-4.07.57-4.11-1.57,0-1.32.9-2.8,1.52-3.91,1.31-2.34,3-4.43,4.49-6.63a1.7,1.7,0,0,1,1.56-.73L115,24.33c.86.08,2.92-2.61,3.37-3.15a15.83,15.83,0,0,0,3.25-7c.53-2.75.32-4.3-2.64-5-3.24-.77-7.22-.68-10.19-2.26a1,1,0,0,1-.44-.38,1.21,1.21,0,0,1-.06-.38c0-.55-.07-1.11-.07-1.66A1.68,1.68,0,0,0,106.57,3Z"/><path class="cls-2" d="M125.81,182a39.64,39.64,0,0,1-9.53-1.62l-2.42-.6a30.17,30.17,0,0,0-7-.76,76.09,76.09,0,0,0-9.58.8l-2.44.3a112,112,0,0,1-13.37.67c-2.88,0-5.82-.06-8.67-.12s-5.8-.12-8.69-.12c-2.63,0-4.95,0-7.1.15l-2.06.11c-3.6.18-7.32.36-11,.36a61.28,61.28,0,0,1-15.58-1.7,3.61,3.61,0,0,1-2.17-1.39c-1.38-2.11.64-5.72,2.63-7,2.61-1.72,5.2-3.11,7.71-4.46,5.78-3.1,11.23-6,15.84-12.36,5-6.88,8.54-15.44,10.5-25.42,1.67-8.53,2-17.53,2.37-26.22.65-16.15,1.31-32.85,10.49-46.92a47.62,47.62,0,0,1,6.76-8.34c.64-.61,1.37-1.18,2.13-1.78,2.34-1.83,5-3.9,5-7.5A47.55,47.55,0,0,0,89,30.4a41.35,41.35,0,0,1-.72-8.31c.17-3.73,2.92-5.32,9.19-5.32,1.12,0,2.2.05,3.25.09l1.6.06a50.45,50.45,0,0,1,9,1.07l.44.09c3.85.81,5.61,1.18,6.25,5a13.77,13.77,0,0,1-2.77,10.62c-1.14,1.43-2.07,2.46-2.9,3.37-2.62,2.87-3.81,4.18-4.28,10.33a1.09,1.09,0,0,0,.08.47c.1.24,10.2,23.39,13.53,30.69,1.61,3.55,7.64,16.64,14.06,30.61,7.56,16.42,15.38,33.41,17.74,38.59a124.49,124.49,0,0,1,5.69,16.05c.18.61.35,1.15.5,1.63.84,2.59,1,3.12-.69,5.41-.45.59-3.85,1.69-7.46,2.86-4.94,1.59-11.69,3.77-20.22,7.28a14,14,0,0,1-5.42,1Z"/><path class="cls-3" d="M97.43,17.77c1.1,0,2.17.05,3.21.09l1.62.06a49.58,49.58,0,0,1,8.8,1l.44.09c3.89.82,4.94,1,5.47,4.18a12.81,12.81,0,0,1-2.57,9.84c-1.12,1.4-2,2.42-2.86,3.31-2.88,3.16-4.06,4.69-4.54,10.93a1.94,1.94,0,0,0,.17,1c.1.24,10.2,23.4,13.53,30.71,1.62,3.57,7.7,16.78,14.14,30.77,7.53,16.35,15.31,33.26,17.66,38.42a123.41,123.41,0,0,1,5.64,15.92c.18.62.36,1.17.51,1.65.78,2.41.85,2.64-.49,4.45-.69.52-3.9,1.56-7,2.57-4.95,1.59-11.73,3.78-20.29,7.31a13.19,13.19,0,0,1-5,.93,39.08,39.08,0,0,1-9.28-1.59l-2.44-.6a30.52,30.52,0,0,0-7.21-.79,77.68,77.68,0,0,0-9.71.81l-2.43.3a112.13,112.13,0,0,1-13.24.66c-2.88,0-5.81-.06-8.65-.12s-5.82-.12-8.72-.12c-2.64,0-5,0-7.15.15l-2,.11c-3.59.18-7.31.36-10.94.36a60.23,60.23,0,0,1-15.33-1.67,2.7,2.7,0,0,1-1.58-1c-1-1.56.71-4.58,2.34-5.65,2.57-1.7,5.15-3.08,7.63-4.42,5.88-3.16,11.44-6.14,16.18-12.66,5.1-7,8.68-15.68,10.67-25.81,1.68-8.61,2-17.64,2.39-26.37.67-16.75,1.3-32.58,10.33-46.42a46.33,46.33,0,0,1,6.62-8.16,25,25,0,0,1,2.05-1.71c2.39-1.87,5.37-4.2,5.42-8.28a48,48,0,0,0-.77-7.81,41.26,41.26,0,0,1-.71-8.11c.11-2.27,1.18-4.37,8.2-4.37m0-2c-4.8,0-9.94.83-10.19,6.27s1.53,10.73,1.47,16c0,4.16-4.19,6-6.86,8.56a48.8,48.8,0,0,0-6.91,8.52c-14.29,21.91-8.24,49.14-13,73.5-1.74,8.87-5,17.67-10.32,25C45.16,162.5,37,164.51,28.31,170.22c-2.35,1.55-4.67,5.7-2.91,8.41a4.64,4.64,0,0,0,2.75,1.81A63.07,63.07,0,0,0,44,182.17c4.37,0,8.75-.26,13.09-.47,2.34-.11,4.69-.15,7-.15,5.77,0,11.58.24,17.37.24A116.06,116.06,0,0,0,95,181.12a101.41,101.41,0,0,1,11.91-1.1,28.89,28.89,0,0,1,6.75.73c4,.94,8.09,2.25,12.18,2.25a14.92,14.92,0,0,0,5.8-1.09c16.53-6.8,26.8-8.72,28.1-10.46,2.37-3.18,1.51-4,.35-7.92a125.54,125.54,0,0,0-5.74-16.19c-4.4-9.66-28.32-61.54-31.8-69.19C119.16,70.77,109,47.47,109,47.47c.58-7.66,2.19-7.18,7-13.14a14.88,14.88,0,0,0,3-11.42c-.78-4.65-3.26-5-7.47-5.9a51.26,51.26,0,0,0-9.16-1.09c-1.41,0-3.12-.15-4.88-.15Z"/><path class="cls-3" d="M72.63,129.25h0a.75.75,0,0,1-.73-.78c3-84.93,30-93.22,31.17-93.54a.75.75,0,0,1,.4,1.45c-.3.09-27.14,8.62-30.07,92.15A.75.75,0,0,1,72.63,129.25Z"/><path class="cls-3" d="M79,181.5a.8.8,0,0,1-.3-.06.75.75,0,0,1-.39-1c8.42-19.25,13.91-79,14-79.58a.75.75,0,0,1,1.5.13c-.23,2.47-5.57,60.58-14.08,80.05A.76.76,0,0,1,79,181.5Z"/><path class="cls-3" d="M124.09,181.55l-.16,0a.74.74,0,0,1-.57-.89C130,150.25,102.81,68.88,102.54,68.06a.75.75,0,1,1,1.42-.48c.07.21,7,20.82,13,44.94C125,145,127.63,168,124.82,181A.74.74,0,0,1,124.09,181.55Z"/><path class="cls-1" d="M104.18,71.16c-.11.71-.21,1.43-.29,2.15,0,.3-.32,1.44.2,1.52.31,0,.44-.31.53-.54.58-1.5,1-3.06,1.39-4.6,0-.16.09-.55.3-.53.84.07,0,5.23,0,5.67,0-.09,0,.69.61,0,0,0,1-4.28.8-5.68a24.22,24.22,0,0,1,.05-3.51c0-1.7,1-3.26-.13-5.28l-1.6-9c-.5-2-.63-4-1-6-.49-2.31-1.36-4.75-1.33-7.14,0-4.18,4.78-6,7.33-8.52,3.65-3.62,6.46-8,9.75-11.9L113.43,16c-.57-.13-4.43,5.54-4.86,6.07-2.68,3.35-5.35,6.65-8.27,9.76A8.73,8.73,0,0,0,99,41.36c.16,0,5.43,20.28,5.45,20.34a7.8,7.8,0,0,1-.58.88,11.35,11.35,0,0,0-1,3.22c-.08.49-.15,1-.19,1.47a5.88,5.88,0,0,1-.68,2.2,4.87,4.87,0,0,0-.72,2.1c0,.1,0,.25.13.25a.18.18,0,0,0,.11,0,3.6,3.6,0,0,0,.84-1.29,6.68,6.68,0,0,1,1.06-1.33c.17-.16.07.3.06.35-.08.41-.21.81-.32,1.21a11.67,11.67,0,0,0-.58,3.05.54.54,0,0,0,0,.25.21.21,0,0,0,.2.13.29.29,0,0,0,.14-.08c.3-.27.3-.73.44-1.08a11,11,0,0,1,.68-1.32c.23-.42.32-.89.54-1.32"/><path class="cls-1" d="M107.78,65.24c.19.6.29,1,.51,1.58s.57,1.07.82,1.63c0,.1.07.24,0,.31a.22.22,0,0,1-.14,0,1.86,1.86,0,0,1-1.23-.59l-.88-.92Z"/></svg>