<svg id="图层_1" data-name="图层 1" xmlns="http://www.w3.org/2000/svg" viewBox="0 0 186 186"><defs><style>.cls-1{fill:#fae7ee;}.cls-2{fill:#fff;}.cls-3{fill:#5b3b2f;}</style></defs><path class="cls-1" d="M109.62,3H98.78c-.36,2-.52,3.82-2.61,4.67-1.69.69-3.58.52-5.28,1.16-3.45,1.3-5.86,4.27-7.32,7.57a75,75,0,0,1-3.7,6.53c-2.1,3.67-4.79,7.33-6.51,11.18-1.88,4.2,2.35,6.9,5.18,9.13.61.49,8,6.45,7.89,6.58l3.17-4.66-4.34-3.62c-1.33-1.11-5.88-3.83-5.87-5.64a2.41,2.41,0,0,1,.87-1.64c2-2,3.9-4.11,5.81-6.19.46-.5,3.16-4.2,3.83-4.14l29.51,2.48s6.62-7.15,2-13.47a6.61,6.61,0,0,0-2.25-2,11.25,11.25,0,0,0-3.34-1.12c-1.48-.26-3,0-4.42-.22a2.35,2.35,0,0,1-1-.36C109.43,8.62,109.83,3,109.62,3Z"/><path class="cls-2" d="M94.34,182l-1,0-1.14,0a12,12,0,0,1-4.36-.57,1.11,1.11,0,0,1-.21-.4,2.07,2.07,0,0,0-2-1.52h-.6a50.68,50.68,0,0,0-5.28.36c-1.17.12-2.39.24-3.58.3-1.78.1-3.62.12-5.39.14-1.16,0-2.31,0-3.46,0l-.49,0c-4.1.11-8.33.23-12.5.29-1.32,0-2.63.08-3.94.12-1.67.07-3.41.13-5.09.13a34.63,34.63,0,0,1-8.93-1,3.61,3.61,0,0,1-2.18-1.39c-1.39-2.14.64-5.77,2.64-7.08a56.3,56.3,0,0,1,8.62-4.17c7.35-3.12,16.5-7,22.72-14.84,6.91-8.7,7.41-23,7.94-38.06.14-4.1.29-8.34.57-12.48.62-9,.66-18.17.7-27,0-2.64,0-5.29,0-7.93,0-4.44.39-10.19,2.71-15.26a20.63,20.63,0,0,1,5.2-7,16,16,0,0,1,2-1.4c1.84-1.16,3.93-2.47,4.42-4.93a12.47,12.47,0,0,0-.62-5.66l-.39-1.45c-.9-3.43-1.83-7-1-10.37a6.43,6.43,0,0,1,1.58-3.08c2.06-2,5.62-2.32,8.48-2.32,1.1,0,2.19,0,3.19.09l1.59.06a50.19,50.19,0,0,1,9,1.07l.44.1c3.88.81,5.65,1.18,6.3,5a13.92,13.92,0,0,1-2.79,10.7,40.42,40.42,0,0,0-8.8,21.9c-.66,8.64,3.09,16.86,6.39,24.11,1,2.23,2.07,4.44,3.11,6.65,2.54,5.34,5.16,10.87,7.2,16.48q1.86,5.13,3.68,10.27c1.23,3.47,2.57,7.13,4.37,11.85,1.16,3,2.3,6.16,3.39,9.17,2.51,6.9,5.1,14,8.19,20.82a123.62,123.62,0,0,1,5.73,16.15c.25.84.51,1.56.74,2.2.86,2.39,1.12,3.12-.78,4.72-4.13,3.5-12.8,3.78-15.35,3.78h0l-1.32,0c-2.83-.09-5.76-.38-8.6-.66-3.49-.34-7.09-.69-10.65-.69a39.71,39.71,0,0,0-7.44.63c-1.26.24-2.51.52-3.75.8A43.14,43.14,0,0,1,94.34,182Z"/><path class="cls-3" d="M99.83,16.4c1.08,0,2.13,0,3.15.09l1.61.06a49.1,49.1,0,0,1,8.85,1.05l.44.1c3.92.82,5,1,5.51,4.21a12.84,12.84,0,0,1-2.58,9.9,41.35,41.35,0,0,0-9,22.45c-.68,8.9,3.12,17.24,6.47,24.61,1,2.23,2.09,4.48,3.12,6.66,2.53,5.32,5.14,10.83,7.16,16.4,1.27,3.51,2.51,7,3.68,10.26,1.22,3.45,2.61,7.22,4.38,11.86,1.15,3,2.29,6.15,3.38,9.16,2.52,6.92,5.12,14.07,8.22,20.89a123.5,123.5,0,0,1,5.68,16c.25.87.52,1.61.76,2.26.83,2.32.88,2.46-.49,3.62-2.61,2.21-8.11,3.54-14.71,3.54l-1.27,0c-2.8-.09-5.72-.37-8.54-.65-3.51-.35-7.14-.71-10.75-.71a40.84,40.84,0,0,0-7.63.66c-1.28.24-2.55.53-3.78.81A42.33,42.33,0,0,1,94.34,181l-.93,0-1.17,0a14.51,14.51,0,0,1-3.67-.36,3,3,0,0,0-2.88-2.13h-.63a52.05,52.05,0,0,0-5.38.36c-1.21.13-2.36.24-3.53.31-1.76.09-3.59.11-5.35.13-1.16,0-2.32,0-3.48,0l-.6,0c-4.06.11-8.25.23-12.38.29-1.33,0-2.66.08-4,.13-1.66.06-3.38.12-5.05.12a34.07,34.07,0,0,1-8.68-.93,2.7,2.7,0,0,1-1.59-1c-1-1.57.71-4.62,2.35-5.7a57.67,57.67,0,0,1,8.46-4.08C53.33,165,62.61,161.05,69,153c7.11-9,7.61-23.38,8.15-38.65.14-4.09.29-8.32.57-12.44.62-9,.66-18.23.7-27.11,0-2.64,0-5.28,0-7.92,0-4.34.38-10,2.62-14.86A19.76,19.76,0,0,1,86,45.36a16.33,16.33,0,0,1,1.9-1.31c1.91-1.2,4.28-2.7,4.86-5.57a13,13,0,0,0-.64-6.12c-.07-.26-.14-.52-.2-.77l-.18-.67c-.87-3.31-1.77-6.73-1-9.88a5.5,5.5,0,0,1,1.32-2.61c1.82-1.82,5.31-2,7.77-2m0-2c-3.4,0-7,.42-9.18,2.61a7.45,7.45,0,0,0-1.85,3.56c-.93,3.87.23,7.79,1.2,11.53.5,1.9,1.22,4,.82,6-.59,2.93-4.09,4-6.11,5.78a21.78,21.78,0,0,0-5.44,7.35c-2.25,4.9-2.76,10.35-2.81,15.67-.12,11.64.05,23.3-.75,34.92-1.3,19,.29,39.18-8.29,50C58.5,163,43.35,165.93,36.31,170.57c-2.37,1.56-4.71,5.73-2.93,8.46a4.6,4.6,0,0,0,2.77,1.82,36.24,36.24,0,0,0,9.18,1c3,0,6-.2,9.05-.25,4.33-.07,8.66-.19,13-.31,3-.08,5.93,0,8.88-.19s5.86-.66,8.81-.66h.58c1.28,0,.85,1.34,1.76,1.81,1.5.78,4.25.65,5.91.73l1,0c4.52,0,8.87-1.38,13.29-2.21a38.5,38.5,0,0,1,7.26-.63c6.4,0,12.9,1.16,19.22,1.36l1.34,0c5.16,0,12.29-.87,16-4,3-2.59,1.52-4,.35-8A125.87,125.87,0,0,0,146,153.28c-4.42-9.73-7.75-20-11.55-29.94-1.5-3.92-3-7.86-4.37-11.82q-1.81-5.14-3.68-10.28c-2.89-7.95-6.83-15.51-10.34-23.2-3.38-7.42-6.94-15.27-6.3-23.63a39.72,39.72,0,0,1,8.58-21.35,15,15,0,0,0,3-11.48c-.79-4.68-3.28-5-7.52-5.93a51,51,0,0,0-9.21-1.1c-1.42,0-3.09-.15-4.81-.15Z"/><path class="cls-3" d="M89.05,182H89a.75.75,0,0,1-.67-.82,138.09,138.09,0,0,0,.33-29.08l0-.73c-.5-7.06-.73-14.27-1-21.24-.06-1.81-.11-3.61-.17-5.42-.1-3-.21-6-.32-8.92-.6-16.43-1.23-33.42-.49-50.17.24-5.6.68-11,3.24-15.75.43-.81.92-1.58,1.4-2.33a20.69,20.69,0,0,0,2.11-3.91c1.8-4.93.3-12-4.34-20.34a.75.75,0,1,1,1.31-.73c4.92,8.9,6.42,16.16,4.44,21.58a21.64,21.64,0,0,1-2.25,4.2c-.47.73-.94,1.48-1.35,2.24-2.41,4.46-2.82,9.69-3.06,15.1-.73,16.7-.11,33.65.49,50.05.11,3,.21,6,.32,8.93.06,1.81.11,3.62.17,5.42.22,7,.44,14.15,1,21.18l0,.73a139.3,139.3,0,0,1-.34,29.34A.74.74,0,0,1,89.05,182Z"/><path class="cls-3" d="M126.32,181a.74.74,0,0,1-.71-.52c-4.67-14.4-6.74-27-8.93-40.34-2.88-17.53-5.85-35.66-15-60.57l-.12-.33c-2.35-6.43-4.79-13.08-5.12-20-.27-5.76,2-11,4.17-16.17.92-2.15,1.87-4.38,2.61-6.62,2.08-6.2,2.3-10.08,2.42-20.49a.73.73,0,0,1,.76-.75.75.75,0,0,1,.74.76c-.13,10.59-.35,14.55-2.49,21-.77,2.29-1.73,4.55-2.66,6.73C99.8,48.79,97.71,53.7,98,59.11c.32,6.72,2.71,13.26,5,19.58l.12.33c9.17,25,12.16,43.25,15,60.85,2.18,13.28,4.24,25.83,8.87,40.12a.76.76,0,0,1-.48.95A.91.91,0,0,1,126.32,181Z"/><path class="cls-1" d="M135.2,47.6a1.57,1.57,0,0,0-.89-.64,13.1,13.1,0,0,1-3-1.6c-1.3-.74-2.68-.36-4-.06l1-.6a6.39,6.39,0,0,1,2.14-.73,6.17,6.17,0,0,0,1.59-.33c.43-.2.92-.66.7-1.18-.15-.36-.49-.18-.8-.14-.76.1-1.52.19-2.29.27a4.68,4.68,0,0,0-1.92.39c-.48.27-.89.62-1.37.89-.79.45-1.41.71-1.8,1.59A26.13,26.13,0,0,1,121.58,50a1.25,1.25,0,0,1-1.37.54l-4.5-3.66L106.57,39c-1.24-1.06-1.19-1.93,0-3.09,4.27-4.21,11-13.08,14.8-17.71A4,4,0,1,0,115,13.49L101.34,33a16.58,16.58,0,0,0-2.11,3.16c-1,2.47.68,3.94,2.54,5.31,5.38,4,9.84,7.78,14.89,12.18,3.17,2.77,7.34,1.52,9.64-1.65a4.12,4.12,0,0,1,1.45-1.27,2.11,2.11,0,0,1,1.86-.16c.62.28,1.33,1.76,2.1,1a4.76,4.76,0,0,0-.58-.9,4,4,0,0,0-1.07-1.16,4.19,4.19,0,0,0-1.57-.23,5.66,5.66,0,0,1-1.47-.31l1.19-.07,3.14-.18c1.09.46,2.54.9,2.88,0a.25.25,0,0,0,0-.21h.12C134.74,48.51,135.47,48.18,135.2,47.6Z"/></svg>