<svg id="图层_1" data-name="图层 1" xmlns="http://www.w3.org/2000/svg" viewBox="0 0 186 186"><defs><style>.cls-1{fill:#fae7ee;}.cls-2{fill:#fff;}.cls-3{fill:#5b3b2f;}</style></defs><path class="cls-1" d="M128.19,32.08a18,18,0,0,0-1.93-2.79c-5-5.82-10.74-11-15.66-16.88a11,11,0,0,0-1.89-1.63,7,7,0,0,0-5.81-1c-2,.36-5.54.53-6.79-1.56a4.49,4.49,0,0,1-.52-2A14.35,14.35,0,0,1,95.7,3l-8.17.2a10.81,10.81,0,0,1,.13,3c-.2,1.92-.88,2.95-2.68,3.43-2.18.59-4.32,1.33-6.52,1.85-2.94.7-4.69,2.32-5.17,5.16A101.35,101.35,0,0,0,72.22,29c-.25,5.35-.45,10.7-.67,16a4.11,4.11,0,0,1-.78,2.51c-3.24,4.09-4.46,9-5.73,13.93-.69,2.64-1.27,5.32-2,8-.44,1.66-1,3.27-1.51,4.9-.46,1.44-1.27,2.71-1.75,4.13a9.49,9.49,0,0,0-.57,3,4.92,4.92,0,0,0,.83,2.86,9.55,9.55,0,0,0,1.25,1.51,4.22,4.22,0,0,0,2.38,1c.36.05,1.32.18,1.36-.4h0a.5.5,0,0,0-.51-.46,3,3,0,0,1-1.31-.45L63,85.51l.22,0c.4-.06,2.66-.21,2.52-.78a.22.22,0,0,0-.06-.13c-.35-.46-2.07.32-3-.15a7.16,7.16,0,0,1-.83-.44l0,0a1,1,0,0,1-.21-.19h0a1.37,1.37,0,0,0,.17.17l-.14-.15a3.71,3.71,0,0,0,1.34.24,2,2,0,0,0,.69-.07h.13c.3-.07,1.28-.29,1.3-.6h0c0-.33-1-.09-1.19-.08a3.32,3.32,0,0,1-1.09-.12,3.66,3.66,0,0,1-.51-.21,4,4,0,0,1-.4-.22,3,3,0,0,1-.41-.28h0l0,0a2.09,2.09,0,0,1,0-.25,1,1,0,0,1,0-.24c0-.15,0-.31.07-.46a1.77,1.77,0,0,0,0-.2c0-.22.11-.44.17-.66l0-.07c.07-.23.15-.46.23-.68,0,0,0-.15.1-.27l0-.07,0,0c0-.07,0-.13.07-.2a5.52,5.52,0,0,1,.43-.84c.2-.22.34-.32.45-.32a.26.26,0,0,1,.18.09.47.47,0,0,1,.05.1,1.91,1.91,0,0,1,.08.65c0,.26-.11,1.11-.13,2v.35c0,1,.2,1.81.81,1.67.31-.06.35-.31.35-.56s0-.31,0-.43a2.37,2.37,0,0,1,.21-.91c.24-.57.26-1,.53-1.56a7,7,0,0,0,.76-3.3h0c0-.91-.3-1.7-.33-2.51a3,3,0,0,1,.3-1.5h0c1.89-3.79,3.88-8.43,5.92-12.12A37.85,37.85,0,0,0,76.77,45.9c.59-4.27,2.56-11.56,3-15.89.53,1.65,2,7.25,2.49,8.87,2,6.26,8,10,5.22,15.69-.25.53-.55,1.06-.77,1.61C84.29,62,82.81,67.46,83.21,73.77c.32,5.22.36,9.54,1.35,14.68,1.52,8,4.12,15.88,5.64,23.83a38.79,38.79,0,0,1,.56,5.23,47.94,47.94,0,0,0,.48,8.54c2,10,4.49,20,7,29.89,1.34,5.33,2.64,10.66,1.32,16.22a19.83,19.83,0,0,0-.34,3.19c-.21,3.13,1.36,5.34,3.77,7.05a2.76,2.76,0,0,0,4.07-.73,6.42,6.42,0,0,0,1.23-3.84,31.87,31.87,0,0,0-1.63-9.65c-.67-2.35-.67-4.83-1.68-7.14-.49-1.12-1.11-2.65-.1-3.93,3.78-4.76.77-10.08.35-15.12,0-.16-.18-.31-.23-.48a2.11,2.11,0,0,1-.2-.86c.45-2.75.51-5.38.92-8.16.94-6.38,1-13.16-.87-19.51-1.35-4.54.55-10.46,2.45-14.89,1.82-4.25-.94-7.52.46-12a74.68,74.68,0,0,0,3.48-16.2c.53-6.18-1.13-14.21-3.63-20.09,0-.05-5-.09-5-.11h.11c1.36,1,3.74,3,4.91,4.07s2.42.45,3.79-.26c2.32-1.19,4.12-3,6.07-4.67,4.32-3.67,7.79-7,10.5-12.06A4.59,4.59,0,0,0,128.19,32.08Zm-6.63,3.25c-3.51,3.09-5.41,7.37-8.14,11s-3.61,4.6-6.61,1c-1.14-1.38-2.43-3.56-4.06-4.71h0a4.93,4.93,0,0,0-.77-.44,1.32,1.32,0,0,1-.66-1.39c.44-2.09.77-4.22,1.33-6.28a55,55,0,0,1,2-6.83,5.36,5.36,0,0,0,.31-3.34,2,2,0,0,1,.66-2.25c.86-.62,1.64,0,2.26.48a50.47,50.47,0,0,1,4.86,3.69c2.73,2.75,5.67,5.25,8.56,7.83C121.7,34.46,122.22,34.76,121.56,35.33Z"/><path class="cls-2" d="M68.46,161.94S86.72,149.89,83,142.88c-9.07-17.14-3.86-18.45-2-19.63,4.72-3.07,12.43-3.07,7.2-14.35-.73-1.58-3.48-3-2.12-4.33,2-2-.1,4.44,8.06-1,6.58-4.39,16.13-1,16.13,0,0,1.32-4.51,2.65-6.52,7.69-1.14,2.84,2.24,5,6.41,14.7,2.1,4.91,2.13,8.22-6,14.38-1.45,1.1-.12,3.36,1.51,4.19,3.58,1.82,5.93,5.5,6.69,9.81.48,2.74-.16,5.83-.21,8.61-.12,7.9,3.23,13.77,11.39,16.42,6.32,2.06,12.07.58,18.51.73,7.43.18,15.79,1,22.91-1.65a5,5,0,0,0,1.71-.95c1.68-1.58-.09-6.12-1.82-7.16-4.67-2.79-9.86-2.73-14.93-4.88-5.44-2.3-7.77-2.89-11.44-7.59-3.31-4.25-9.06-13.33-10.85-18.42C120,118,114.65,95.31,116.39,72.63c.57-7.37-2.78-13.78-5.38-20.56-2.07-5.39-5.55-11-6-16.85-.31-4-26.91-12.16-25-5.25,2.76,10.13,4.76,15.87,2,26.87-5.59,22.53-7.17,35.39-14.68,54.21-7,17.6-18.82,37.87-32.47,51.15a23.18,23.18,0,0,1-8.1,5.54c-2.47.91-7.24,1.25-7.27,4.37-.06,5.52,5,6.39,10.5,5.73,3.84-.45,5.61.64,7.71,1.32,5,1.63,10.52-.35,15.7-.18,4.75.15,8.8.77,12.55-3.3s2.48-12.27,2.25-17.56"/><path class="cls-3" d="M83.28,48.83a42.91,42.91,0,0,0,6.23,1.06,36.34,36.34,0,0,0,6.25.18,53.8,53.8,0,0,0,6-1,43.6,43.6,0,0,0,5.91-1.86h0a.1.1,0,0,1,.13.06s0,.08,0,.1A12.64,12.64,0,0,1,102.33,51a19.68,19.68,0,0,1-6.55.69,38.19,38.19,0,0,1-6.42-.79A37.88,37.88,0,0,1,83.22,49a.1.1,0,0,1-.06-.13A.11.11,0,0,1,83.28,48.83Z"/><path class="cls-3" d="M41.64,180.63a13.7,13.7,0,0,1-2.54-.22,20.87,20.87,0,0,1-3-.87,11.25,11.25,0,0,0-4.48-.91c-.6.06-1.18.16-1.74.25a11.4,11.4,0,0,1-4.36.12c-1.88-.37-5.48-1.65-7-4.09a4.29,4.29,0,0,1-.58-3.42c.69-2.76,2.84-3.05,4.58-3.29a9.82,9.82,0,0,0,2.09-.43c2.26-.83,5.27-3.08,9-6.67,15.91-15.5,26.66-32,32.87-50.37,2.67-7.92,4.66-15.35,6.58-22.54,1.25-4.69,2.55-9.54,4-14.49a1,1,0,0,1,1.92.57c-1.47,4.92-2.76,9.76-4,14.43C73,95.92,71,103.39,68.29,111.37,62,130.08,51.06,146.81,34.92,162.53c-4,3.85-7.11,6.17-9.67,7.11a11.22,11.22,0,0,1-2.51.54c-1.77.24-2.56.41-2.91,1.79a2.29,2.29,0,0,0,.33,1.87c1.1,1.74,4,2.87,5.73,3.2a9.46,9.46,0,0,0,3.64-.13c.6-.1,1.21-.21,1.89-.27a12.78,12.78,0,0,1,5.31,1,18.62,18.62,0,0,0,2.72.79,21.2,21.2,0,0,0,7.24-.37,26.31,26.31,0,0,1,7-.51c.79.08,1.58.2,2.37.32,3.3.52,6.15,1,8.48-1.57,3.44-3.74,3.18-9.61,3-14.33a1,1,0,1,1,2-.09c.23,5.09.51,11.42-3.5,15.77-3,3.32-6.71,2.75-10.26,2.2-.75-.12-1.51-.23-2.27-.31A23.93,23.93,0,0,0,47,180,32.81,32.81,0,0,1,41.64,180.63Z"/><path class="cls-3" d="M67.33,161.65c-.11-3.93.06-7.76.11-11.63l.23-11.6.44-23.18.55,23.18L68.93,150c.12,3.86.11,7.76.4,11.55a1,1,0,0,1-.92,1.08,1,1,0,0,1-1.07-.92v-.07Z"/><path class="cls-3" d="M69.21,162.61a1,1,0,0,1-.77-.37,1,1,0,0,1,.14-1.41c1.15-.94,2.38-1.84,3.68-2.8,3.08-2.26,6.27-4.6,8.24-7.49,2.62-3.83,1.77-6.7-.7-10.66a29.48,29.48,0,0,1-2.36-4.66,1,1,0,0,1,1.86-.75,27.22,27.22,0,0,0,2.19,4.35c2.79,4.45,3.87,8.16.66,12.85-2.16,3.17-5.49,5.61-8.71,8-1.27.94-2.48,1.83-3.59,2.74A1,1,0,0,1,69.21,162.61Z"/><path class="cls-3" d="M75.36,106.17a80.09,80.09,0,0,0,.16,8.49q.24,4.23.89,8.42c.41,2.78,1.16,5.49,1.71,8.21a59.92,59.92,0,0,0,2.27,8.09.1.1,0,0,1-.06.13.11.11,0,0,1-.11,0,20.26,20.26,0,0,1-4-7.68,39.41,39.41,0,0,1-1.37-8.53c-.24-2.86-.33-5.73-.3-8.58a69.52,69.52,0,0,1,.64-8.54.1.1,0,0,1,.12-.08A.1.1,0,0,1,75.36,106.17Z"/><path class="cls-3" d="M78.37,135.84a1,1,0,0,1-1-.85,20,20,0,0,1,.19-7.19,10.13,10.13,0,0,1,2.69-5.27,10.74,10.74,0,0,1,4.32-2.24c2-.68,3.63-1.21,4.23-3.37,1.07-3.83-1.18-7.15-3.36-10.36-.58-.86-1.18-1.74-1.7-2.62a1,1,0,0,1,1.42-1.34,8.57,8.57,0,0,0,4.66,1.06c1.89,0,3.61-1,5.42-2,.81-.47,1.65-1,2.5-1.34a1,1,0,0,1,.82,1.83c-.76.34-1.52.78-2.32,1.24-2,1.13-4,2.29-6.44,2.27a15.69,15.69,0,0,1-2.71-.24v0c2.32,3.42,4.94,7.3,3.63,12-.89,3.18-3.35,4-5.53,4.72A9,9,0,0,0,81.65,124a8.16,8.16,0,0,0-2.13,4.27,18,18,0,0,0-.16,6.46,1,1,0,0,1-.84,1.13Z"/><path class="cls-3" d="M77.18,132.36a54.4,54.4,0,0,1,.11-8.18c.19-2.7.79-5.36,1.21-8l1.31-8,1.4-8a.1.1,0,0,1,.12-.08.11.11,0,0,1,.08.11l-.61,8.11-.71,8.1c-.25,2.7-.33,5.42-.81,8.09a54.47,54.47,0,0,1-1.9,8,.1.1,0,0,1-.13.06A.1.1,0,0,1,77.18,132.36Z"/><path class="cls-3" d="M154,181.69c-2.25,0-4.51-.16-6.72-.31-1.75-.12-3.56-.25-5.3-.29s-3.37,0-5.15,0c-4.95.1-10.08.2-14.89-1.36-7.26-2.36-11-9.1-10.85-19.51,0-.86.06-1.72.11-2.58a23.3,23.3,0,0,0-.09-5.55c-.65-3.67-3.4-5.32-7.21-7.26a2.79,2.79,0,0,1-1.54-2.56,3.92,3.92,0,0,1,2-3.44c5.57-3,9-6.34,9.81-9.66a5.67,5.67,0,0,0-.46-4.3,1,1,0,0,1,1.66-1.11,7.52,7.52,0,0,1,.75,5.83c-1,4-4.61,7.66-10.81,11a1.94,1.94,0,0,0-1,1.65.83.83,0,0,0,.44.81c3.3,1.67,7.41,3.75,8.28,8.69a25.33,25.33,0,0,1,.12,6c-.05.83-.1,1.66-.11,2.49-.15,9.58,3,15.49,9.47,17.58,4.49,1.45,9.45,1.35,14.23,1.26,1.73,0,3.51-.07,5.23,0s3.63.17,5.4.29c4.46.31,9.07.64,13.41-.38l.14,0c3.07-.72,5-1.28,5.27-3.63s-2-5-4.29-6.07a23.46,23.46,0,0,0-6.68-1.65c-1.36-.21-2.78-.42-4.15-.76-9.84-2.43-17.63-10.92-23.84-25.95a158.18,158.18,0,0,1-11-43.2,1,1,0,0,1,.89-1.1,1,1,0,0,1,1.1.88,156.14,156.14,0,0,0,10.9,42.66c5.95,14.4,13.29,22.5,22.47,24.77,1.28.32,2.65.52,4,.72a25.44,25.44,0,0,1,7.24,1.83c3,1.41,5.83,4.84,5.41,8.13-.49,3.84-4,4.66-6.79,5.32l-.14,0A31.51,31.51,0,0,1,154,181.69Z"/><path class="cls-3" d="M113.77,132a1,1,0,0,1-.88-1.47,7.78,7.78,0,0,0,.9-3.7c0-3.1-1.74-4.31-4.12-6a27.36,27.36,0,0,1-2.84-2.21,9.38,9.38,0,0,1-3-8.4,7.46,7.46,0,0,1,4.72-5.69l.57-.22a4.86,4.86,0,0,0,1-.44,1,1,0,0,1,1.06,1.7,7.47,7.47,0,0,1-1.37.62l-.5.19a5.52,5.52,0,0,0-3.51,4.19,7.35,7.35,0,0,0,2.39,6.58,24.49,24.49,0,0,0,2.63,2c2.42,1.7,4.93,3.46,5,7.58a9.65,9.65,0,0,1-1.14,4.66A1,1,0,0,1,113.77,132Z"/><path class="cls-3" d="M106.48,105.76a11.41,11.41,0,0,0-2.89,7.8c.13,3.23,2.18,5.47,3.16,8.4,1,3.18.46,7.1.47,10.4,0,.84-.56,4.44.2,5,.3.25,4.5-3.09,4.82-3.24.87-.44,2.12-2.65,2.53-3.51a7.39,7.39,0,0,0-.24-6.31c-2-3.95-6.94-5.53-8.61-9.65-1.73-4.28.67-7.06,4.28-9.18C111.33,104.86,107.77,104.26,106.48,105.76Z"/><path class="cls-3" d="M116.48,108.67a15.48,15.48,0,0,0-2.34,6.63,21.9,21.9,0,0,0,.49,7c1,4.61,2.81,9,3.63,13.74a42.62,42.62,0,0,1,.45,14.3,26.33,26.33,0,0,1-5.88,13.24h0a1,1,0,0,1-1.41.11,1,1,0,0,1-.1-1.42l0,0a24.57,24.57,0,0,0,6.12-12.13,41.5,41.5,0,0,0,.28-14c-.72-4.66-2.46-9.11-3.37-13.78a22,22,0,0,1-.36-7.1A15.58,15.58,0,0,1,116.48,108.67Z"/><path class="cls-3" d="M110.2,105.52c2,2.41,3.74,4.91,5.57,7.36q1.37,1.86,2.74,3.69c.94,1.2,1.87,2.42,2.86,3.61a30.6,30.6,0,0,1-6.4-6.7A45.48,45.48,0,0,1,110.2,105.52Z"/><path class="cls-2" d="M86.5,104.53c-4,0-4.18-.3-5.85-4l-.08-.17c-3-6.46-3.31-13.92-3.25-21,.05-5.32,1.66-10.52,3.22-15.55.61-1.95,1.23-4,1.76-6,2.19-8.28.8-15.24-2-23.12-1.73-4.95-1-10.67,0-16.1a11.83,11.83,0,0,0-.66-5.18l-.07-.25a2.28,2.28,0,0,1,1.27-2.72,7.28,7.28,0,0,1,2.72-.61.36.36,0,0,1,.24.13c2.88,3,5.42,4.39,8,4.39,2.76,0,5.52-1.61,8.67-5.06a.41.41,0,0,1,.29-.13l.51.06c.38.05.75.09,1.12.16a1.68,1.68,0,0,1,1.2.82,1.85,1.85,0,0,1,.19,1.52c-.85,2.69,0,5,.77,7.14.24.68.49,1.37.69,2.07.75,2.65.24,5.52-.26,8.29-.12.7-.24,1.4-.35,2.09-.9,6,1.95,12.29,4.94,18.22l.85,1.66a70,70,0,0,1,3.94,8.62,78.88,78.88,0,0,1,4,19.7c.47,6.38-.34,17.88-1,19.27-2.51,5.26-12.29,5.71-22.08,5.71l-5.64,0H86.5Z"/><path class="cls-3" d="M101.23,10h0m-.21.23.14,0c.37.05.73.09,1.09.15a.73.73,0,0,1,.51.36.86.86,0,0,1,.09.7c-.95,3,0,5.54.77,7.78.25.69.49,1.34.67,2,.69,2.43.22,5.07-.27,7.85-.13.71-.25,1.41-.36,2.11-1,6.28,2,12.74,5,18.82l.84,1.67a68.55,68.55,0,0,1,3.89,8.49,77.24,77.24,0,0,1,4,19.45c.44,6-.31,17.24-.91,18.76-2.25,4.74-11.7,5.13-21.18,5.13H86.5c-3.4,0-3.4,0-4.94-3.37l-.08-.18c-2.88-6.28-3.22-13.61-3.16-20.59.05-5.17,1.57-10.07,3.18-15.26.61-2,1.24-4,1.77-6,2.25-8.54.84-15.65-2-23.72-1.65-4.72-.89-10.28,0-15.59a12.85,12.85,0,0,0-.68-5.62l-.07-.25a1.27,1.27,0,0,1,.69-1.53,6.57,6.57,0,0,1,2-.51c3,3.07,5.72,4.5,8.53,4.5,3,0,5.92-1.64,9.2-5.16m-.24-2a1.4,1.4,0,0,0-1,.45c-2.89,3.16-5.41,4.73-7.93,4.73-2.34,0-4.67-1.36-7.27-4.07a1.33,1.33,0,0,0-1-.44h0a8.25,8.25,0,0,0-3.09.69,3.28,3.28,0,0,0-1.84,3.91,12,12,0,0,1,.71,5c-.93,5.34-1.79,11.34,0,16.6,2.72,7.74,4.07,14.51,2,22.53-1.9,7.2-5,14.23-5,21.78-.06,7.19.28,14.76,3.34,21.44,1.79,3.92,2.09,4.72,6.84,4.72h3.2l5.63,0c10.25,0,20.22-.46,23-6.28.85-1.77,1.54-13.85,1.1-19.77a80,80,0,0,0-4.09-20,90.12,90.12,0,0,0-4.84-10.41c-2.94-5.82-5.71-11.9-4.85-17.62.54-3.54,1.59-7.24.58-10.81-.83-2.94-2.45-5.49-1.46-8.63a2.82,2.82,0,0,0-2.18-3.63c-.53-.09-1.07-.15-1.61-.22Z"/></svg>