<svg id="图层_1" data-name="图层 1" xmlns="http://www.w3.org/2000/svg" viewBox="0 0 187 188"><defs><style>.cls-1{fill:#fae7ee;}.cls-2{fill:#fff;}.cls-3{fill:#5b3b2f;}</style></defs><path class="cls-1" d="M96.05,4H85.23c-.35,2-.52,3.81-2.6,4.66-1.68.68-3.58.52-5.27,1.16-3.44,1.3-5.84,4.26-7.3,7.55a73.44,73.44,0,0,1-3.69,6.51c-2.09,3.66-4.78,7.31-6.5,11.15C58,39.23,62.22,41.92,65,44.14c.61.49,8,6.43,7.88,6.57l3.15-4.66-4.32-3.6c-1.33-1.11-5.86-3.83-5.86-5.63a2.43,2.43,0,0,1,.87-1.64c2-2,3.88-4.1,5.8-6.17.46-.5,3.15-4.19,3.81-4.13l29.44,2.47s6.61-7.13,2-13.44a6.48,6.48,0,0,0-2.25-2,11.29,11.29,0,0,0-3.33-1.12c-1.48-.26-2.94,0-4.4-.22a2.2,2.2,0,0,1-1-.36C95.86,9.61,96.25,4,96.05,4Z"/><path class="cls-2" d="M84.57,183a13.43,13.43,0,0,1-2.4-.19c-3.62-.66-6.44-1.09-8.7-1.44a61,61,0,0,1-12.55-2.85c-4.75-1.64-6.43-4.72-5-9.15,5.67-17.5,6.15-35.75,6.63-53.4.1-4,.22-8.25.39-12.37.48-11.42.63-23,.74-34.85,0-4.44.39-10.17,2.71-15.23a20.73,20.73,0,0,1,5.18-7,16,16,0,0,1,2-1.4C75.42,44,77.5,42.66,78,40.2a12.45,12.45,0,0,0-.62-5.65L77,33.11c-.9-3.42-1.83-6.95-1-10.34a6.3,6.3,0,0,1,1.57-3.07c2-2.05,5.6-2.32,8.46-2.32,1.1,0,2.18.05,3.18.09l1.59.06a51,51,0,0,1,9,1.07c.39.09.79.16,1.19.24,2.41.44,4.49.83,5.35,3a7.36,7.36,0,0,1,.19,4c-.07.4-.13.79-.19,1.17-.43,2.76-.81,5.14-2.61,7.4l-.47.59c-3.82,4.76-6.57,8.2-7.11,15-.45,5.88.42,12.38,2.76,20.45a207,207,0,0,0,8.31,22.14c1.48,3.53,3,7.19,4.4,10.78,10.44,27,16.53,48.25,19.73,68.78.81,5.16-.19,6.63-5.34,7.85a50.16,50.16,0,0,1-11.73,1.35h0a62.4,62.4,0,0,1-8.39-.6,20.52,20.52,0,0,0-3-.21,43.5,43.5,0,0,0-8.24,1l-1.6.31A46.28,46.28,0,0,1,84.57,183Z"/><path class="cls-3" d="M86,18.38c1.07,0,2.12.05,3.14.09l1.6.06a48.78,48.78,0,0,1,8.83,1c.4.09.81.16,1.22.24,2.52.47,4,.81,4.61,2.38a6.57,6.57,0,0,1,.12,3.45c-.07.4-.13.79-.19,1.17-.43,2.73-.76,4.89-2.4,6.93l-.48.6c-3.92,4.89-6.76,8.43-7.31,15.57-.47,6,.42,12.62,2.79,20.81A210.92,210.92,0,0,0,106.27,93c1.48,3.52,3,7.17,4.4,10.75,10.41,27,16.48,48.12,19.67,68.57.73,4.62,0,5.63-4.59,6.73a49.68,49.68,0,0,1-11.5,1.32,58.83,58.83,0,0,1-8.25-.6,22.56,22.56,0,0,0-3.11-.21,44.28,44.28,0,0,0-8.42,1.05l-.4.08-1.2.23a46.43,46.43,0,0,1-8.3,1.1,12.31,12.31,0,0,1-2.22-.18c-3.63-.66-6.46-1.09-8.73-1.44a61,61,0,0,1-12.38-2.8c-4.19-1.45-5.62-4-4.37-7.9,5.71-17.64,6.2-36,6.68-53.69.1-4,.22-8.24.39-12.34.48-11.44.62-23,.74-34.89,0-4.33.38-9.93,2.62-14.83a19.76,19.76,0,0,1,4.93-6.66A16.87,16.87,0,0,1,74.11,46c1.91-1.2,4.28-2.7,4.86-5.57a13,13,0,0,0-.64-6.11c-.07-.25-.14-.51-.2-.76L78,32.86c-.87-3.3-1.77-6.72-1-9.85a5.49,5.49,0,0,1,1.31-2.61c1.81-1.81,5.29-2,7.75-2m0-2c-3.39,0-7,.42-9.16,2.61A7.42,7.42,0,0,0,75,22.54c-.92,3.86.23,7.77,1.2,11.49.5,1.9,1.22,4,.82,6-.59,2.92-4.08,4-6.1,5.76a21.81,21.81,0,0,0-5.43,7.33c-2.23,4.89-2.75,10.33-2.8,15.64-.11,11.61-.25,23.22-.74,34.82-.93,22,0,44.13-7,65.5-1.7,5.25.73,8.72,5.62,10.41,7.26,2.51,10.27,2.3,21.4,4.32a14.27,14.27,0,0,0,2.58.21,55.12,55.12,0,0,0,9.87-1.37,45.49,45.49,0,0,1,8.45-1.09,19.53,19.53,0,0,1,2.83.2,62.74,62.74,0,0,0,8.53.61,51.55,51.55,0,0,0,12-1.37c5.6-1.34,7-3.29,6.1-9-3.71-23.77-11.06-46.37-19.79-69-4.2-10.87-9.42-21.62-12.68-32.84C98,63.73,96.61,56.82,97.13,50.08s3.31-10,7.36-15.08c2.23-2.79,2.44-5.67,3-9a8.45,8.45,0,0,0-.24-4.52c-1.23-3.09-4.47-3.23-7.27-3.82a50.7,50.7,0,0,0-9.19-1.1c-1.41,0-3.07-.15-4.79-.15Z"/><path class="cls-3" d="M76,183h-.08a.77.77,0,0,1-.67-.83,135.92,135.92,0,0,0,.33-28.85l0-.71c-.5-7-.73-14.13-1-21,0-1.81-.11-3.61-.17-5.41q-.15-4.45-.32-8.89c-.6-16.28-1.22-33.12-.49-49.73.25-5.55.68-10.91,3.23-15.62.44-.8.93-1.57,1.4-2.31a20.16,20.16,0,0,0,2.11-3.88c1.88-5.13.14-12.53-5-21.39a.75.75,0,1,1,1.29-.76c5.49,9.4,7.22,17,5.15,22.67a22,22,0,0,1-2.25,4.17c-.46.72-.94,1.46-1.35,2.21-2.4,4.43-2.81,9.61-3.05,15-.73,16.55-.11,33.35.49,49.6.11,3,.22,5.93.32,8.9.06,1.8.12,3.61.17,5.41.22,6.89.45,14,1,21l0,.71a138.47,138.47,0,0,1-.33,29.12A.76.76,0,0,1,76,183Z"/><path class="cls-3" d="M113.08,181.75a.74.74,0,0,1-.71-.52c-4.66-14.38-6.65-26.72-8.75-39.79-2.76-17.11-5.61-34.81-14.7-59.63l-.12-.33c-2.35-6.42-4.78-13-5.11-20-.29-6.14,1.66-11.2,3.72-16.57.66-1.72,1.34-3.5,2-5.35,2.18-6.51,3.5-11.25,3.5-22.19a.75.75,0,1,1,1.5,0c0,11.17-1.35,16-3.57,22.66-.63,1.88-1.32,3.68-2,5.42-2,5.21-3.89,10.14-3.62,16,.31,6.71,2.71,13.24,5,19.55l.12.32c9.14,25,12,42.73,14.77,59.91,2.09,13,4.07,25.3,8.69,39.57a.74.74,0,0,1-.48.94A.62.62,0,0,1,113.08,181.75Z"/><path class="cls-1" d="M122.59,48.49a1.57,1.57,0,0,0-.89-.64,13.44,13.44,0,0,1-3-1.59c-1.3-.75-2.67-.36-4-.07l1-.59a6.48,6.48,0,0,1,2.14-.74,6.15,6.15,0,0,0,1.59-.32c.43-.2.91-.66.69-1.18-.15-.36-.49-.18-.79-.14q-1.14.16-2.28.27a4.69,4.69,0,0,0-1.93.39c-.47.27-.89.62-1.36.89-.79.45-1.41.71-1.8,1.59a25,25,0,0,1-2.9,4.52,1.24,1.24,0,0,1-1.36.54l-4.5-3.65L94,40c-1.24-1.07-1.19-1.93,0-3.1,4.26-4.19,8.84-11.6,12.65-16.21a4,4,0,1,0-6.4-4.73l-11.46,18A16.43,16.43,0,0,0,86.7,37c-.94,2.48.69,3.93,2.54,5.3,5.36,4,9.81,7.76,14.85,12.15,3.17,2.76,7.33,1.52,9.62-1.65a4.27,4.27,0,0,1,1.44-1.26A2.11,2.11,0,0,1,117,51.4c.62.28,1.33,1.75,2.1,1a5.31,5.31,0,0,0-.58-.9,3.93,3.93,0,0,0-1.07-1.15,4.16,4.16,0,0,0-1.57-.24,5.2,5.2,0,0,1-1.46-.3l1.19-.07,3.13-.19c1.08.47,2.53.91,2.87,0a.28.28,0,0,0,0-.22h.12C122.13,49.39,122.86,49.07,122.59,48.49Z"/></svg>