<svg id="图层_1" data-name="图层 1" xmlns="http://www.w3.org/2000/svg" viewBox="0 0 186 186"><defs><style>.cls-1{fill:#fae7ee;}.cls-2{fill:#fff;}.cls-3{fill:#5b3b2f;}</style></defs><path class="cls-1" d="M94.9,3a14,14,0,0,0-.12,3.3,4.62,4.62,0,0,0,.52,2c1.25,2.1,4.87,1.94,6.84,1.59a7.08,7.08,0,0,1,5.86,1,11.08,11.08,0,0,1,1.89,1.65c4.94,6,10.71,11.19,15.74,17.08a19.42,19.42,0,0,1,1.93,2.81,4.62,4.62,0,0,1-.21,4.79c-2.74,5.14-6.59,8.21-11,11.9-2,1.66-3,3.07-5.37,4.26-1.39.71-2.49,2-3.73.92s-4.08-3.15-5.45-4.15a.09.09,0,0,0-.14.11c2.51,5.93,4.15,14,3.6,20.27a75.88,75.88,0,0,1-3.57,16.33,122.64,122.64,0,0,1-4.53,12c-1.93,4.46-.34,8.92,1,13.51,1.89,6.4,1.78,13.24.81,19.67-.42,2.81-.49,5.45-1,8.23a2,2,0,0,0,.19.87c0,.17.22.32.23.48.41,5.08,3.42,10.45-.4,15.25-1,1.28-.4,2.83.08,3.95,1,2.34,1,4.84,1.67,7.22a32.41,32.41,0,0,1,1.61,9.73,6.46,6.46,0,0,1-1.25,3.87,2.79,2.79,0,0,1-4.11.72c-2.42-1.73-4-4-3.77-7.12a19.12,19.12,0,0,1,.35-3.22c1.35-5.6,0-11-1.27-16.36-2.47-10-4.93-20-6.93-30.16a48.77,48.77,0,0,1-.46-8.62,39.46,39.46,0,0,0-.54-5.27c-1.51-8-5.11-16-6.62-24A125.71,125.71,0,0,1,74.7,71.91a41.44,41.44,0,0,1,3.39-18.42,8.11,8.11,0,0,1,.79-1.62C82,47.51,82.06,44.44,80,38.12c-.52-1.62-.77-6.27-1.3-7.94-.44,4.37-2.46,11.71-3.07,16a38,38,0,0,1-4.94,14.32c-2.07,3.72-4.09,8.4-6,12.2-.72,1.42,0,2.59,0,4.06A7.1,7.1,0,0,1,64,80.09c-.29.55-.3,1-.54,1.57a2.3,2.3,0,0,0-.22.92c0,.33.16.9-.32,1-1.24.27-.71-3.4-.68-4,0,0,.09-1.77-1-.21.12,0-2.36,4.47,0,6.46,0,0,.19.09.2.1l.51.3a3.2,3.2,0,0,0,1.33.46c.23,0,.52.19.5.46,0,.59-1,.45-1.37.4A4.21,4.21,0,0,1,60,86.48,8,8,0,0,1,58.7,85C57.49,83.2,57.77,81,58.45,79c.49-1.43,1.31-2.71,1.78-4.16.53-1.65,1.09-3.27,1.54-4.94.71-2.67,1.31-5.36,2-8,1.3-4.92,2.54-9.91,5.83-14a4.2,4.2,0,0,0,.79-2.53c.24-5.4.46-10.79.74-16.18a103.38,103.38,0,0,1,1.12-12.54c.5-2.86,2.26-4.48,5.23-5.18,2.22-.52,4.38-1.26,6.58-1.84,1.82-.47,2.51-1.51,2.71-3.45a11.45,11.45,0,0,0-.11-3ZM61.52,78.5m38.9-37.37a1.32,1.32,0,0,0,.66,1.4c2,.92,3.55,3.61,4.87,5.22,3,3.66,3.82,2.83,6.67-1s4.69-8,8.25-11.1c.66-.58.14-.87-.29-1.25-2.89-2.61-5.85-5.15-8.6-7.93a52.91,52.91,0,0,0-4.88-3.74c-.63-.49-1.41-1.11-2.28-.49a2,2,0,0,0-.68,2.27,5.35,5.35,0,0,1-.32,3.36,56,56,0,0,0-2,6.89C101.21,36.87,100.87,39,100.42,41.13Z"/><path class="cls-1" d="M60.21,84.27c.21.39.68.54,1.12.77,1,.48,2.68-.31,3,.16.51.67-2.06.83-2.49.9l-1.33-.24Z"/><path class="cls-1" d="M60.21,83.91s.47.34.63.43a1.82,1.82,0,0,0,1.7.25c.3-.06,1.29-.28,1.3-.59s-1-.1-1.19-.09a3.16,3.16,0,0,1-1.1-.13,3.38,3.38,0,0,1-1.33-.72l-.65-.45.2,1Z"/><path class="cls-1" d="M114.92,43.35s-5.15,10.56-8.8,4.26a14.81,14.81,0,0,0-3.33-4,21.23,21.23,0,0,0-4.67-2.79c-.26-.12-.68-.25-.91,0-.56.57.56,1.17.94,1.39a25.91,25.91,0,0,1,2.54,1.74l.9.7a9.23,9.23,0,0,0-2.21-.67,8.14,8.14,0,0,0-3.11,0c-.89.36,0,.8.6,1a24.87,24.87,0,0,1,3.55,1l.71.29c-.69-.12-1.45-.2-2.17-.28a9.27,9.27,0,0,0-3.28.14.44.44,0,0,0-.22.1c-.41.37.1.83.48.93,1.28.33,2.63.07,3.92.39a8.55,8.55,0,0,1,1.63.58,6.91,6.91,0,0,0-3.64.66c-.22.12-1.07.48-.67.82a.82.82,0,0,0,.23.11c1.24.35,2.51-.51,3.73-.1a4,4,0,0,1,1.41,1c.51.5,1.07,1,1.62,1.41a17.18,17.18,0,0,0,3.51,2.51c1.26.55,2.65-.22,3.61-1,0,0,11-9,11.9-10.53Z"/><path class="cls-2" d="M100.35,122.21c-1.81-.12-3.65-.13-5.43-.15a47,47,0,0,1-9.9-.76,3.92,3.92,0,0,1-2.53-2,3.1,3.1,0,0,0-1.84-1.76c-4-1-4.1-3.3-3.93-7.07,0-.63.06-1.27.06-1.89A116.56,116.56,0,0,0,75,91.44C74.4,87.3,73.74,83,73.46,78.78c-.24-13.32,1.94-24.32,7.08-35.65l.08-.17c.43-1,1-2.26.31-3.56-3.18-5.71-3-11.78-1.58-19.74a12,12,0,0,0-.66-5.18l-.07-.26a2.28,2.28,0,0,1,1.26-2.72,7.48,7.48,0,0,1,2.72-.61h0a.38.38,0,0,1,.24.13c2.86,3,5.4,4.39,8,4.39,2.75,0,5.5-1.61,8.65-5.06a.39.39,0,0,1,.29-.13l.5.06,1.12.16a1.76,1.76,0,0,1,1.2.82,1.87,1.87,0,0,1,.18,1.53c-1,3.26-.25,6.07.57,9.05.17.62.35,1.25.51,1.9a8.62,8.62,0,0,1,.13,2.73c-.09.67-.2,1.34-.31,2l-.2,1.28a30.41,30.41,0,0,0-.47,5.34,13.65,13.65,0,0,0,1.07,5.27,18.47,18.47,0,0,0,1.29,2.33,15.36,15.36,0,0,1,1.16,2.08c.26.6.53,1.21.81,1.81.54,1.21,1.11,2.47,1.58,3.72.15.4.3.8.43,1.21a57.78,57.78,0,0,1,1.85,7.13,72.3,72.3,0,0,1,1.23,14.48A124.32,124.32,0,0,1,111,89.55c-1.14,8.09-2,16.16-2.62,22.28-.7,7-2.34,9.11-8,10.37h-.1Z"/><path class="cls-3" d="M100.2,11h0m-.21.24.14,0c.37,0,.73.08,1.08.15a.7.7,0,0,1,.51.35.88.88,0,0,1,.09.71c-1.12,3.54-.27,6.63.56,9.61.17.62.34,1.24.5,1.88a7.73,7.73,0,0,1,.11,2.35c-.09.66-.2,1.32-.3,2l-.21,1.29a32,32,0,0,0-.48,5.51,14.64,14.64,0,0,0,1.15,5.65,19.69,19.69,0,0,0,1.36,2.46,14.19,14.19,0,0,1,1.09,2c.27.61.54,1.22.82,1.82.54,1.21,1.1,2.45,1.56,3.66.14.39.28.78.41,1.17a57.31,57.31,0,0,1,1.82,7,71.69,71.69,0,0,1,1.21,14.27A124.2,124.2,0,0,1,110,89.41c-1.15,8.11-2,16.18-2.62,22.32-.7,6.91-2.31,8.39-7.09,9.47-1.81-.11-3.63-.12-5.39-.14a45.89,45.89,0,0,1-9.69-.73,3,3,0,0,1-1.88-1.52,4.09,4.09,0,0,0-2.48-2.26c-3.26-.77-3.33-2.31-3.16-6,0-.63.06-1.29.06-1.94A118.18,118.18,0,0,0,76,91.29c-.63-4.11-1.28-8.35-1.56-12.53-.23-13.18,1.92-24.05,7-35.21l.07-.17c.47-1,1.25-2.73.28-4.47-3-5.45-2.81-11.34-1.47-19.08a12.85,12.85,0,0,0-.68-5.62L79.58,14a1.3,1.3,0,0,1,.69-1.54,6.58,6.58,0,0,1,2-.51c3,3.07,5.71,4.5,8.52,4.5,3,0,5.91-1.64,9.17-5.15m-.23-2a1.36,1.36,0,0,0-1,.46c-2.89,3.16-5.4,4.73-7.91,4.73-2.34,0-4.66-1.37-7.26-4.08a1.37,1.37,0,0,0-1-.44h0a8.44,8.44,0,0,0-3.09.69,3.29,3.29,0,0,0-1.84,3.91,11.77,11.77,0,0,1,.71,5c-1.3,7.52-1.78,14.16,1.69,20.39.51.92,0,1.9-.43,2.84C74.24,54.59,72.23,66,72.46,78.85c.67,10,3.28,19.69,3.32,29.73,0,4-1.27,8.52,4.64,9.92.47.11.84.63,1.19,1.27a4.93,4.93,0,0,0,3.2,2.51c5.08,1.13,10.32.58,15.47.93h.09a1.53,1.53,0,0,0,.3,0c6.13-1.38,8-3.92,8.73-11.25S111,97.09,112,89.7a127.71,127.71,0,0,0,1.4-16.57,73,73,0,0,0-1.25-14.68,58.47,58.47,0,0,0-1.88-7.25c-.14-.42-.29-.84-.44-1.26-.72-1.88-1.61-3.72-2.41-5.57-.68-1.57-1.78-2.85-2.45-4.41a12.79,12.79,0,0,1-1-4.89,29,29,0,0,1,.46-5.17c.17-1.09.36-2.19.51-3.28a9.61,9.61,0,0,0-.15-3.12c-.92-3.71-2.24-6.79-1.09-10.41a2.82,2.82,0,0,0-2.17-3.64c-.53-.09-1.07-.14-1.61-.22Z"/><path class="cls-3" d="M79.68,38.61a42.71,42.71,0,0,0,6.23,1.07,36.19,36.19,0,0,0,6.24.18,53.8,53.8,0,0,0,6-1A44.59,44.59,0,0,0,104.09,37h0a.1.1,0,0,1,.13.06.08.08,0,0,1,0,.1,12.7,12.7,0,0,1-5.49,3.63,19.91,19.91,0,0,1-6.54.69A37.24,37.24,0,0,1,79.61,38.8a.09.09,0,0,1,0-.13A.11.11,0,0,1,79.68,38.61Z"/></svg>