<svg id="图层_1" data-name="图层 1" xmlns="http://www.w3.org/2000/svg" viewBox="0 0 186 186"><defs><style>.cls-1{fill:#fae7ee;}.cls-2{fill:#fff;}.cls-3{fill:#5b3b2f;}</style></defs><path class="cls-1" d="M121,32.29a18.72,18.72,0,0,0-1.94-2.81c-5.06-5.87-10.85-11-15.82-17a11.15,11.15,0,0,0-1.9-1.65,7.05,7.05,0,0,0-5.87-1c-2,.36-5.58.54-6.84-1.56a4.49,4.49,0,0,1-.53-2,14,14,0,0,1,.1-3.3L80,3.21a11,11,0,0,1,.13,3c-.19,1.93-.88,3-2.69,3.46-2.2.59-4.36,1.34-6.58,1.87-3,.71-4.72,2.34-5.21,5.2A103.46,103.46,0,0,0,64.6,29.28c-.25,5.39-.45,10.79-.67,16.18A4,4,0,0,1,63.15,48c-3.26,4.13-4.48,9.13-5.76,14-.69,2.67-1.28,5.37-2,8-.44,1.68-1,3.3-1.52,5-.46,1.45-1.27,2.73-1.76,4.17a9.9,9.9,0,0,0-.57,3.06,4.9,4.9,0,0,0,.85,2.87,9.24,9.24,0,0,0,1.26,1.53,4.18,4.18,0,0,0,2.4,1c.37,0,1.33.19,1.37-.4h0a.5.5,0,0,0-.51-.46,3.07,3.07,0,0,1-1.33-.46l-.22-.12.22,0c.4-.07,2.69-.23,2.55-.8a.49.49,0,0,0-.06-.13c-.36-.47-2.1.33-3-.15a5.51,5.51,0,0,1-.84-.44l0,0a1,1,0,0,1-.21-.19h0a1.37,1.37,0,0,0,.17.17l-.14-.16a3.56,3.56,0,0,0,1.35.25,2.06,2.06,0,0,0,.7-.07h.13c.3-.08,1.28-.29,1.3-.61h0c0-.34-1-.09-1.19-.08a3.13,3.13,0,0,1-1.1-.12,5,5,0,0,1-.92-.43,2.42,2.42,0,0,1-.42-.29h0l0,0a2.26,2.26,0,0,1,0-.26l0-.24c0-.15,0-.31.08-.46a1.55,1.55,0,0,1,0-.21c.05-.22.1-.44.17-.65l0-.08c.08-.23.15-.46.23-.69,0-.05.06-.15.1-.27l0-.06v0a1.67,1.67,0,0,0,.08-.2,4.78,4.78,0,0,1,.44-.84c.19-.23.34-.33.45-.33a.26.26,0,0,1,.18.09s0,.07.05.1a1.91,1.91,0,0,1,.08.65c0,.27-.12,1.13-.13,2v.36c0,1,.2,1.82.82,1.68.31-.07.35-.31.35-.57s0-.31,0-.43a2.42,2.42,0,0,1,.21-.92c.25-.57.26-1,.54-1.57a7.13,7.13,0,0,0,.76-3.33h0c0-.92-.3-1.72-.34-2.53a3,3,0,0,1,.3-1.52h0c1.9-3.81,3.9-8.5,6-12.23A38.21,38.21,0,0,0,69.2,46.28c.59-4.31,2.57-11.66,3-16,.54,1.66.93,4.29,1.46,5.92,2.06,6.31,6.07,14.72,3,19.1-.33.49-2.79,4.47-3,5-2.42,5.91-3.42,8.71-3,15.08.34,5.26-1.07,7.1-.07,12.29,1.54,8,3.17,16,4.71,24a41.08,41.08,0,0,1,.57,5.27,47.75,47.75,0,0,0,.5,8.61c2,10.12,4.54,20.13,7.06,30.14,1.35,5.38,2.67,10.75,1.34,16.35a21.43,21.43,0,0,0-.34,3.22c-.21,3.15,1.39,5.38,3.81,7.11a2.8,2.8,0,0,0,4.11-.74,6.49,6.49,0,0,0,1.23-3.88,32.14,32.14,0,0,0-1.65-9.73c-.68-2.37-.69-4.87-1.7-7.2-.49-1.12-1.12-2.67-.11-3.95,3.81-4.82.77-10.17.34-15.25,0-.17-.18-.32-.23-.49a2,2,0,0,1-.2-.86c.45-2.79.51-5.43.92-8.23.94-6.44,1-13.28-.9-19.68A19.2,19.2,0,0,1,91,98.88a119.19,119.19,0,0,0,4.47-12,75.83,75.83,0,0,0,3.5-16.34c.52-6.24-1.16-14.33-3.69-20.26a.09.09,0,0,1,0-.1h.11c1.37,1,3.78,3.07,5,4.1s2.44.46,3.82-.26c2.34-1.2,4.16-3.05,6.12-4.72,4.36-3.7,7.85-7,10.57-12.17A4.6,4.6,0,0,0,121,32.29Zm-6.68,3.29c-3.54,3.11-5.44,7.43-8.2,11.13s-3.63,4.64-6.66,1C98.35,46.31,97,44.12,95.4,43h0l0,0a5.43,5.43,0,0,0-.77-.44,1.3,1.3,0,0,1-.67-1.39c.43-2.12.77-4.26,1.33-6.34a53.72,53.72,0,0,1,2-6.89,5.39,5.39,0,0,0,.31-3.37,2,2,0,0,1,.66-2.27c.87-.62,1.65,0,2.28.48a53.06,53.06,0,0,1,4.91,3.71c2.75,2.77,5.72,5.3,8.63,7.89C114.5,34.7,115,35,114.36,35.58Z"/><path class="cls-2" d="M107.17,172a6.52,6.52,0,0,1-4.24-1.39c-1-.78-2.67-1.18-5-1.18a22.35,22.35,0,0,0-2.79.18l-24.76-.22a12.44,12.44,0,0,1-4.43-1,4.18,4.18,0,0,1-1.43-1.69,3,3,0,0,0-2.73-2,5.82,5.82,0,0,0-1.68.32,6.45,6.45,0,0,1-.84.21,21.93,21.93,0,0,1-3.82.36c-5.5,0-9.12-2.48-10.76-7.36-.76-2.26-.18-4.31.59-6.56,5.86-17.17,11.12-34.83,16.2-51.91q2.77-9.33,5.58-18.65l.09-.32c1.55-5.18,5.32-17.66,6.9-21.7,3.76-9.61,2.11-15.58-.39-24.63l-.59-2.13c-.79-2.93-.37-6.32,0-9.59.52-4.23,1-8.23-.93-11.36a2.85,2.85,0,0,1,.22-.49,11.53,11.53,0,0,1,3.08-1q.3,0,.63,0c.55,0,.68.11.68.11A9.52,9.52,0,0,0,85,15,8.68,8.68,0,0,0,92.85,10a.74.74,0,0,1,.56-.43l.33,0c.38,0,.91-.07,1.46-.07a3.35,3.35,0,0,1,2,.38,1.16,1.16,0,0,1,.32.48,34.82,34.82,0,0,1,2,15,40,40,0,0,1-1,5.88l-.28,1.23a20.71,20.71,0,0,0,.1,8.42c.35,2.34,17.73,48.78,24.18,65.56,5.93,15.45,9.89,26,14.75,41.7,1.2,3.88,2.62,7.83,3.86,11.31a5.62,5.62,0,0,1,.16,4.37c-.56,1.19-1.79,2.1-3.76,2.8-2.76,1-8.26,1.53-12.27,1.94-1.31.13-2.49.26-3.44.37a31.58,31.58,0,0,0-6.38,1.38c-1.09.33-2.34.71-4.27,1.15A18,18,0,0,1,107.17,172Z"/><path class="cls-3" d="M93.75,10.39h0m1.45,0a3.71,3.71,0,0,1,1.35.16.11.11,0,0,0,0,.06,33.91,33.91,0,0,1,1.93,14.6,38.89,38.89,0,0,1-1,5.73c-.09.41-.18.82-.28,1.24A22.07,22.07,0,0,0,97.32,41c.39,2.58,18.54,50.94,24.24,65.77,5.92,15.42,9.87,25.91,14.73,41.63,1.2,3.91,2.62,7.87,3.87,11.36a4.78,4.78,0,0,1,.2,3.6,5.25,5.25,0,0,1-3.19,2.28c-2.66.94-8.08,1.49-12,1.9-1.28.13-2.49.25-3.45.37a32.84,32.84,0,0,0-6.55,1.41c-1.08.33-2.31.7-4.21,1.14a16.87,16.87,0,0,1-3.74.55,5.63,5.63,0,0,1-3.63-1.18c-1.19-.93-3-1.39-5.57-1.39a24.11,24.11,0,0,0-2.85.18l-24.64-.22a12.12,12.12,0,0,1-3.93-.79,3.23,3.23,0,0,1-1.09-1.29,3.92,3.92,0,0,0-3.63-2.55,6.71,6.71,0,0,0-2,.36c-.27.08-.53.15-.74.19a21.73,21.73,0,0,1-3.64.34c-5.09,0-8.3-2.18-9.81-6.68-.66-2-.15-3.77.58-5.92,5.87-17.18,11.13-34.84,16.21-51.93,1.82-6.12,3.7-12.45,5.59-18.66l.11-.39c3.26-10.9,5.75-18.76,6.85-21.55,3.89-9.92,2.11-16.35-.35-25.26-.19-.69-.39-1.4-.59-2.14-.75-2.73-.34-6,.06-9.2.49-3.95,1-8-.7-11.36a20.59,20.59,0,0,1,2.24-.64l.47,0h0A10.46,10.46,0,0,0,85,16a9.66,9.66,0,0,0,8.67-5.51h.13c.39,0,.88-.07,1.38-.07m0-2c-.75,0-1.46.07-1.86.1A1.68,1.68,0,0,0,92,9.5,7.69,7.69,0,0,1,85,14,8.57,8.57,0,0,1,77.68,9.5a1.65,1.65,0,0,0-1.53-.59c-.27,0-.54,0-.79,0-1.65.39-3.44.85-3.81,1.55-.23.44-.49,1-.24,1.37,3.35,5.21-1,13.9.84,20.79,2.74,10.07,4.94,16.11,1,26.14-1.89,4.82-6.83,21.47-7,22.09C59,104.44,52.33,128.13,44.37,151.42c-.81,2.37-1.45,4.63-.59,7.2,1.77,5.26,5.77,8,11.71,8a22.88,22.88,0,0,0,4-.37,15.35,15.35,0,0,1,2.35-.52c.67,0,1.3.31,1.83,1.42a5.12,5.12,0,0,0,1.78,2.08c1.38.92,5,1.13,5,1.13l24.83.22a21.25,21.25,0,0,1,2.73-.18c1.54,0,3.36.19,4.34,1a7.59,7.59,0,0,0,4.86,1.61,19,19,0,0,0,4.19-.6c5-1.16,5.47-1.88,10.56-2.51,3.94-.5,12.14-1,15.91-2.37,4.19-1.48,5.76-4.12,4.21-8.45-1.33-3.74-2.67-7.48-3.84-11.27-4.89-15.81-8.83-26.28-14.78-41.76C116.6,88.29,99.62,42.86,99.3,40.7a19.84,19.84,0,0,1-.11-8.05,52.5,52.5,0,0,0,1.32-7.25A35.85,35.85,0,0,0,98.44,9.93,2.06,2.06,0,0,0,97.82,9a4.38,4.38,0,0,0-2.62-.61Z"/><polygon class="cls-3" points="68.13 116.11 48.43 163.26 46.6 162.46 68.13 116.11"/><polygon class="cls-3" points="84.72 85.9 81.28 170.54 79.28 170.44 84.72 85.9"/><polygon class="cls-3" points="111.36 112.08 126.91 168.64 124.97 169.14 111.36 112.08"/><path class="cls-3" d="M76.67,49.25c1.86.42,3.67.79,5.46,1.06a26.76,26.76,0,0,0,5.33.31,13.64,13.64,0,0,0,5-1.16,14.38,14.38,0,0,0,4.31-3.23,9,9,0,0,1-3.53,4.59,11.16,11.16,0,0,1-5.68,1.79,16.3,16.3,0,0,1-5.79-.79A16.49,16.49,0,0,1,76.67,49.25Z"/></svg>