<svg id="图层_1" data-name="图层 1" xmlns="http://www.w3.org/2000/svg" viewBox="0 0 186 186"><defs><style>.cls-1{fill:#fae7ee;}.cls-2{fill:#fff;}.cls-3{fill:#5b3b2f;}</style></defs><path class="cls-1" d="M116.56,78.54c-2.81-6.52-2.83-14.29-4.22-21.19-1-4.9-2.57-9.67-3.43-14.6-.45-2.54-.43-5.16-.68-7.73q-.63-6.59-.93-13.2c-.12-2.88-.5-8.43-4.52-8.63C97.76,12.94,91,8.76,91.9,3H84.06c0,1.69,0,3-.63,3.86a9.63,9.63,0,0,1-5.35,3.23c-2.36.66-4.89.24-7.21,1a5.43,5.43,0,0,0-3.45,4.37V26.33c0,5.7.84,12.77-.28,18.37-1.2,6-.27,9.89.33,15.61a47.86,47.86,0,0,1,.2,7.76c-.06,1.33-.18,2.65-.34,4-.12,1-.53,2.35.35,3.08.09,2.2.17,4.39.27,6.59,0,.56,0,1.13,0,1.69a4.36,4.36,0,0,0,.66,1.55c.28.56.46,1.17.73,1.74a3.39,3.39,0,0,0,1,1.29,2,2,0,0,0,1.16.29c1,.11,1.89,1.63,2.92,1.34s-.38-1.56-.71-1.87a4.52,4.52,0,0,1-.86-.89,5.13,5.13,0,0,1-.57-2.64,10.59,10.59,0,0,1,0-1.38,1.62,1.62,0,0,1,.19-.69c.68-1,.47,1.39.43,1.67a5.9,5.9,0,0,0,.09,2.74c.19.54.73,1.41,1.38.88.33-.28.25-.88.27-1.26,0-3,.7-6.26-1.3-8.86,0,0-1.4-2.41-1.41-2.42a6.91,6.91,0,0,1-.62-4.28c.1-1.29.16-2.59.25-3.88L72,61.28c.2-3,.73-6.22.9-9.33.15-2.86,0-5.72.18-8.57.2-3.33.27-6.61.78-9.9a.26.26,0,0,1,.49,0l3.4,9.69c1.63,4.63.53,8-.42,12.56A41.06,41.06,0,0,0,76.68,60a80.84,80.84,0,0,0,1,23.13Q78.73,89,79.86,94.86q1.19,6.24,2.39,12.48c.75,3.89,2.26,7.55,1.08,11.51a24.3,24.3,0,0,0-.81,12.65c1.31,4.8,2.89,9.5,4.44,14.23.51,1.56-.31,2.9-.48,4.44a21.51,21.51,0,0,1-.6,3.9,7.52,7.52,0,0,0,.15,4.55,16,16,0,0,0,.83,2.07,3.55,3.55,0,0,1,.57,2.61c-.23,1.23-.51,2.44-.81,3.65a9.89,9.89,0,0,1-.68,2.19,31.24,31.24,0,0,1-.9,3.58c-.76,1.94-1.88,3.83-2.07,5.94A3.83,3.83,0,0,0,86.61,183,4.59,4.59,0,0,0,91.76,179c.4-3-.06-6,.23-9.05.09-1,.64-.89,1.46-1.38a3.58,3.58,0,0,0,1.63-1.76c1.48-3.47-2.35-6.31-1.63-9.43,1-4.06,3-8.09,4.15-12.13,1.65-5.59,3.25-11.29,3.56-17.15a38.65,38.65,0,0,0-.58-8c-.4-2.62.1-5.15.33-7.75,1.1-12.24,6.38-23.55,8.83-35.51a29.11,29.11,0,0,0-.16-12.51L111,68.47l-.65,1.68c1,2.43,2,4.88,2.75,7.38l.35,1.54a15.17,15.17,0,0,1-.23,2,5.71,5.71,0,0,0,.37,2.58,18.64,18.64,0,0,1,.84,4.43.65.65,0,0,1,0,.14l-.12.08a2,2,0,0,0-.47.26,1,1,0,0,0-.43.61c-.05.27,0,.45-.23.66s-.33.2-.44.35a.82.82,0,0,0-.11.8c.29.71.84-.11,1.27,0s-.23.71.28,1a1.2,1.2,0,0,0,.83-.08,10.25,10.25,0,0,0,3.54-2.76C121,85.7,117.89,81.62,116.56,78.54Zm-23.44,46c0,.67-.12,1.34-.2,2s-.2,1.35-.31,2c-.12.49-.16,1-.25,1.5a2.49,2.49,0,0,1-.06.39c0,.06,0,.11-.08.12s-.18-.13-.2-.23c-.08-.71-.17-1.41-.23-2.12s-.09-1.19-.11-1.79,0-1.17,0-1.75a12.36,12.36,0,0,1,.16-1.61c.19-1.19.65-3.1.83-4.28a34.6,34.6,0,0,1,.48,3.9C93.18,123.34,93.16,124,93.12,124.56Zm.94-53.19c0,.5-.06,1-.08,1.5,0,1.07-.07,2.14-.1,3.21l-.15,4.6-.15,4.78-.12,3.76c0,.5,0,1,0,1.52,0,0,.19,11.46-1,18.93l-.28,3c-.42-4-1.23-8.67-1.39-12.72-.18-4.49.53-8.95.69-13.44.09-2.66,0-5.33-.12-8-.11-1.76-.26-3.51-.46-5.27,0-.16-.12-.38.1-.41.41-.07.83,0,1.24,0a1.89,1.89,0,0,0,.83-.43,3.07,3.07,0,0,0,.88-1.58.54.54,0,0,1,.11-.27A2,2,0,0,1,94.06,71.37ZM100.69,49l-1.47-1.37a9.06,9.06,0,0,1-2.7-3.75c-.77-2.56.18-5.39,1-7.83.88-2.79,1.61-5.63,2.55-8.4q1.18,5.52,2.33,11.05a48.65,48.65,0,0,1,1.17,6c.21,3,.42,5.81.89,8.6l1.35.18,1.72,5A32.06,32.06,0,0,0,100.69,49Zm16.19,39.15a2.16,2.16,0,0,1-.48.67l.25-3.09c.11.28.26.7.36,1C117.21,87.19,117.22,87.41,116.88,88.15Z"/><path class="cls-1" d="M91.65,131.12a30,30,0,0,1-.32-8.29c.1-.58.25-1.33.41-2.06s.33-1.61.43-2.22l.5.08c-.1.62-.27,1.44-.44,2.24s-.3,1.47-.4,2a30.34,30.34,0,0,0,.32,8.13Z"/><path class="cls-1" d="M87.69,162.65l-.39-.32c1.35-1.66,1.8-4,2.2-6.11l0-.26a51.16,51.16,0,0,0,.79-6.81c.1-1.64.19-3.28.27-4.93.19-3.69.38-7.51.79-11.26.13-1.24.34-2.51.55-3.74a35.56,35.56,0,0,0,.69-6.72,20.74,20.74,0,0,0-.32-2.84,20.57,20.57,0,0,1-.33-3.25c0-.77,0-2.23.1-3.73-.14-1.43-.34-2.91-.54-4.46-.36-2.77-.74-5.63-.84-8.25a69.64,69.64,0,0,1,.34-8.32c.14-1.68.29-3.42.35-5.14.08-2.53,0-5.21-.12-8-.1-1.68-.25-3.45-.46-5.26a.25.25,0,0,0,0-.08.56.56,0,0,1,0-.45.37.37,0,0,1,.28-.16,2.59,2.59,0,0,1,.62,0,2.38,2.38,0,0,0,.6,0,1.57,1.57,0,0,0,.71-.37,2.85,2.85,0,0,0,.81-1.45.72.72,0,0,1,.17-.39l.24-.25.16.31a1.45,1.45,0,0,1,.07.8,1.11,1.11,0,0,0,0,.17l0,.4c0,.36,0,.73,0,1.1,0,.77-.05,1.53-.07,2.29l-.5,15.58c0,.45.17,11.57-1,19a54,54,0,0,0-.38,6.71,19.8,19.8,0,0,0,.32,3.16,23.4,23.4,0,0,1,.33,2.9,36.47,36.47,0,0,1-.7,6.83c-.21,1.22-.42,2.48-.55,3.71-.4,3.73-.6,7.54-.78,11.23-.09,1.64-.17,3.29-.27,4.94a52,52,0,0,1-.8,6.87l0,.26C89.59,158.46,89.12,160.89,87.69,162.65ZM91.3,73.09v0s0,.09,0,.13c.2,1.81.35,3.59.46,5.28.16,2.76.2,5.46.11,8-.06,1.73-.2,3.47-.34,5.16a68.81,68.81,0,0,0-.35,8.26c.11,2.6.48,5.44.84,8.2.09.68.18,1.34.26,2,0-.18,0-.34.07-.5,1.14-7.35,1-18.43,1-18.9l.5-15.58c0-.77.05-1.53.07-2.29,0-.33,0-.66,0-1a3,3,0,0,1-.56.7,2.09,2.09,0,0,1-.94.47,2.58,2.58,0,0,1-.73,0A2.16,2.16,0,0,0,91.3,73.09Z"/><path class="cls-2" d="M99.75,28.5a3.86,3.86,0,0,0-2.12-3.08,17.78,17.78,0,0,0-6.74-1.7,50.36,50.36,0,0,0-9.27-.1C78,23.9,73.76,25,73.25,29.23c-.19,1.52.59,2.78,1.08,4.17,1.36,3.8,2.73,7.61,3.84,11.51,1.3,4.59-.83,9.22-1.37,13.76A76.78,76.78,0,0,0,76.51,73c.06.8.83,10.22,1.14,10.16a67,67,0,0,0,16.64-.74,63.59,63.59,0,0,0,15.45-5.49c.34-.06.54-3.2.57-3.47a29,29,0,0,0-5.57-19.74,40.58,40.58,0,0,0-4-4.67c-.83-.84-1.82-1.51-2.6-2.39-2.27-2.54-2.31-6-1.15-9.07Z"/><path class="cls-3" d="M83.22,84.36c-3.23,0-5.48-.21-5.66-.23h0a1,1,0,0,1-.54-.21c-.27-.21-.79-.6-1.52-10.88a77.41,77.41,0,0,1,.3-14.49,41,41,0,0,1,.84-4.42c.71-3.11,1.37-6.05.55-9-1-3.73-2.39-7.47-3.68-11.08l-.13-.36c-.11-.32-.24-.62-.36-.93a7.14,7.14,0,0,1-.78-3.7c.47-3.88,3.6-6.07,9.31-6.49a50.93,50.93,0,0,1,9.45.09,18.32,18.32,0,0,1,7.13,1.84,4.79,4.79,0,0,1,2.63,3.93.86.86,0,0,1-.05.32l-2.77,9.05C96.74,41,97.09,44,98.87,46a12.55,12.55,0,0,0,1.35,1.25c.4.35.82.7,1.21,1.1a41,41,0,0,1,4.13,4.78,30.11,30.11,0,0,1,5.75,20.42v.14c-.23,3.13-.45,4-1.19,4.2a64.1,64.1,0,0,1-15.63,5.53A60.38,60.38,0,0,1,83.22,84.36Zm-4.78-2.19A65.76,65.76,0,0,0,94.1,81.4,63.18,63.18,0,0,0,109,76.16a22.18,22.18,0,0,0,.31-2.66v-.16a28,28,0,0,0-5.37-19.05A39,39,0,0,0,100,49.73c-.34-.34-.72-.66-1.09-1a15.94,15.94,0,0,1-1.55-1.44C95.06,44.72,94.57,41,96,37.2l2.7-8.82a3.09,3.09,0,0,0-1.6-2.08,16.76,16.76,0,0,0-6.35-1.58,50.44,50.44,0,0,0-9.08-.09c-4.67.35-7.11,1.9-7.45,4.72A5.45,5.45,0,0,0,74.88,32c.14.33.28.67.4,1l.13.36c1.31,3.64,2.65,7.41,3.73,11.21,1,3.4.2,6.73-.53,9.95a39.78,39.78,0,0,0-.8,4.21,75,75,0,0,0-.29,14.11C77.63,74.4,78.14,80.27,78.44,82.17Zm-.78,0h-.2a.94.94,0,0,1,.29,0h-.09Zm31.88-6.21-.19.06Z"/></svg>