<svg id="图层_1" data-name="图层 1" xmlns="http://www.w3.org/2000/svg" viewBox="0 0 186 186"><defs><style>.cls-1{fill:#f9e6ed;}.cls-2{fill:#fff;}.cls-3{fill:#5b3b2f;}</style></defs><path class="cls-1" d="M122,3h-7.24a1.67,1.67,0,0,0-1.58,1.11c-.3.85-.65,2.52-.8,2.71-1.08,1.33-2.92,1.1-4.45,1.28-1.94.23-4,.52-5.56,1.83a11.92,11.92,0,0,0-3.27,5.39c-1,3-1.24,6.45-1.76,9.58S96.34,31,95.8,34A4.19,4.19,0,0,0,98,38.53a6.71,6.71,0,0,0,2,.63c1.76.25,4,.33,5.58-.71s1.92-3.48-.55-3.53c-1.56,0-4.07.57-4.11-1.57,0-1.32.9-2.8,1.53-3.91,1.31-2.34,3-4.43,4.49-6.63a1.68,1.68,0,0,1,1.56-.73l21.93,2.25c.86.08,2.92-2.61,3.37-3.15a15.83,15.83,0,0,0,3.25-7c.53-2.75.31-4.3-2.64-5-3.25-.77-7.22-.68-10.19-2.26a.87.87,0,0,1-.44-.38,1,1,0,0,1-.06-.38c0-.55-.07-1.11-.07-1.66A1.68,1.68,0,0,0,122,3Z"/><path class="cls-2" d="M68.89,183.76a323,323,0,0,1-51.45-3.69c-4.81-.78-14.83-2.39-15.44-9.16-.77-8.43,13.08-9.75,21.35-10.54,1.47-.14,2.73-.26,3.73-.4l3.18-.45c9-1.23,18.32-2.51,26-8,6.59-4.7,12.07-12.12,15.83-21.44,4.72-11.71,6.52-24.38,8.25-36.63.75-5.28,1.53-10.73,2.52-16C84.62,68.35,87,61.28,90.34,55.2a49,49,0,0,1,7-9.76,19.28,19.28,0,0,1,2.82-2.31c2-1.5,4.15-3,5-5.32s.25-4.63-.22-6.74l-.29-1.34a29.72,29.72,0,0,1-1-7.64c.18-3.73,2.93-5.32,9.2-5.32,1.11,0,2.2.05,3.24.09l1.79.06a47.44,47.44,0,0,1,8.58,1l.66.14c4,.84,5.67,1.19,6.28,5.19A16,16,0,0,1,130.32,34c-.32.4-.72.85-1.14,1.33-2.45,2.78-6.14,7-4.06,10.73a32.75,32.75,0,0,0,5.29,6.62c1,1,2,2,2.84,3.11,10.31,12.43,18.39,32.37,24.88,48.39.85,2.1,1.68,4.15,2.48,6.1,7.15,17.41,12.32,30,18.12,48a6.23,6.23,0,0,1-.29,5.11c-1.32,2.43-4.63,4.41-9.56,5.72-4.58,1.22-9.16,2.63-13.59,4-8.33,2.57-16.94,5.21-25.73,6.67-19.43,3.2-39,3.82-55.49,4C72.35,183.75,70.62,183.76,68.89,183.76Z"/><path class="cls-3" d="M112.82,17.77c1.09,0,2.17.05,3.2.09l1.8.06a45.48,45.48,0,0,1,8.4,1l.66.14c3.94.83,5,1.05,5.5,4.36a15,15,0,0,1-2.84,10c-.3.38-.69.82-1.11,1.3-2.63,3-6.61,7.5-4.19,11.87a33.54,33.54,0,0,0,5.45,6.82c1,1,1.92,2,2.79,3.07,10.22,12.31,18.26,32.17,24.72,48.12.85,2.11,1.68,4.16,2.48,6.11,7.15,17.39,12.31,30,18.1,47.89a5.28,5.28,0,0,1-.22,4.32c-1.18,2.18-4.28,4-8.94,5.24s-9.18,2.63-13.62,4c-8.3,2.55-16.88,5.19-25.61,6.63-19.36,3.2-38.83,3.81-55.33,4-1.72,0-3.44,0-5.17,0a320.92,320.92,0,0,1-51.29-3.68c-7-1.12-14.13-3-14.61-8.26-.62-6.86,10.23-8.48,20.46-9.45,1.47-.15,2.75-.27,3.77-.41l3.18-.45c9.12-1.25,18.56-2.54,26.48-8.19,6.74-4.82,12.33-12.39,16.16-21.89,4.78-11.82,6.58-24.55,8.32-36.86.75-5.27,1.52-10.71,2.51-15.93,1.71-9,4-16,7.35-22a47.92,47.92,0,0,1,6.85-9.56,19.6,19.6,0,0,1,2.68-2.19c2.06-1.5,4.4-3.21,5.3-5.79s.29-5.15-.18-7.29l-.11-.53-.18-.81a28.87,28.87,0,0,1-1-7.37c.11-2.27,1.18-4.37,8.2-4.37m0-2c-4.8,0-9.94.83-10.2,6.27a33.66,33.66,0,0,0,1.18,8.7c.46,2.13,1.11,4.6.36,6.74-1.08,3.12-5.36,4.92-7.55,7.28a50.42,50.42,0,0,0-7.15,10c-3.85,7-6.07,14.75-7.55,22.56-3.29,17.32-4,35.75-10.72,52.41-3.27,8.12-8.27,15.86-15.48,21-8.41,6-18.84,6.86-28.77,8.29C20.25,159.94,0,160,1,171c.66,7.28,10.33,9.09,16.28,10.05a324.19,324.19,0,0,0,51.61,3.71c1.74,0,3.46,0,5.19,0,18.58-.2,37.28-1,55.64-4,13.54-2.23,26.21-7.15,39.42-10.67,6.22-1.66,12.79-5.12,10.54-12.1-5.81-18-11-30.53-18.15-48C154.58,93,145.79,69.35,134,55.16c-2.67-3.22-6-5.87-8-9.58s3-8.32,5.11-10.94a17,17,0,0,0,3.26-11.52c-.76-4.93-3.32-5.22-7.73-6.15a46.9,46.9,0,0,0-8.76-1c-1.44,0-3.22-.15-5.05-.15Z"/><path class="cls-3" d="M95.55,183.28a.71.71,0,0,1-.28-.06.75.75,0,0,1-.41-1c7.85-19.24,11.68-44.24,14.9-65.17.37-2.46.75-4.89,1.12-7.28a.76.76,0,0,1,.86-.62.74.74,0,0,1,.62.86c-.37,2.38-.74,4.81-1.12,7.27-3.24,21-7.07,46.1-15,65.51A.76.76,0,0,1,95.55,183.28Z"/><path class="cls-3" d="M139.51,177.71a.75.75,0,0,1-.75-.71c-2.27-51.86-15.28-92.2-20.84-108.94a.75.75,0,0,1,.48-1,.76.76,0,0,1,.95.47c5.57,16.8,18.63,57.28,20.91,109.35a.74.74,0,0,1-.71.78Z"/><path class="cls-1" d="M119.57,71.16c-.11.71-.21,1.43-.29,2.15,0,.3-.32,1.44.2,1.52.31,0,.44-.31.53-.54.57-1.5,1-3.06,1.39-4.6,0-.16.09-.55.3-.53.83.07,0,5.23,0,5.67,0-.09,0,.69.62,0,0,0,1-4.28.8-5.68a24.22,24.22,0,0,1,.05-3.51c0-1.7.95-3.26-.14-5.28l-1.59-9c-.5-2-.63-4-1-6-.5-2.31-1.36-4.75-1.33-7.14,0-4.18,4.78-6,7.33-8.52,3.65-3.62,6.46-8,9.75-11.9L128.81,16c-.56-.13-4.43,5.54-4.85,6.07-2.68,3.35-5.36,6.65-8.27,9.76-2.44,2.6-2.63,6.31-1.29,9.49.16,0,5.43,20.28,5.44,20.34a7.65,7.65,0,0,1-.57.88,11,11,0,0,0-1,3.22c-.08.49-.15,1-.19,1.47a5.72,5.72,0,0,1-.69,2.2,5.15,5.15,0,0,0-.72,2.1c0,.1,0,.25.13.25a.21.21,0,0,0,.12,0,3.74,3.74,0,0,0,.84-1.29,6,6,0,0,1,1.06-1.33c.17-.16.07.3.06.35-.08.41-.21.81-.32,1.21a12.11,12.11,0,0,0-.59,3.05.55.55,0,0,0,0,.25.21.21,0,0,0,.19.13.28.28,0,0,0,.15-.08c.29-.27.3-.73.43-1.08a12.72,12.72,0,0,1,.69-1.32c.22-.42.32-.89.53-1.32"/><path class="cls-1" d="M123.17,65.24c.18.6.29,1,.51,1.58s.57,1.07.82,1.63c0,.1.07.24,0,.31a.22.22,0,0,1-.14,0,1.86,1.86,0,0,1-1.23-.59l-.88-.92Z"/><path class="cls-3" d="M44.29,172a.75.75,0,0,1-.16-1.48c40.8-8.78,43.69-45.27,46-74.6.6-7.51,1.16-14.61,2.37-20.27,1.94-9,4.35-20.2,11.29-28.53a.75.75,0,0,1,1.06-.09.74.74,0,0,1,.09,1c-6.7,8-9.07,19-11,27.89-1.2,5.56-1.75,12.61-2.35,20.07-2.24,28.25-5.3,66.93-47.19,76Z"/></svg>