<svg id="图层_1" data-name="图层 1" xmlns="http://www.w3.org/2000/svg" viewBox="0 0 186 186"><defs><style>.cls-1{fill:#fae7ee;}.cls-2{fill:#fff;}.cls-3{fill:#5b3b2f;}</style></defs><path class="cls-1" d="M127.19,32.08a18.7,18.7,0,0,0-1.93-2.79c-5-5.82-10.74-11-15.66-16.88a11.84,11.84,0,0,0-1.89-1.63,7,7,0,0,0-5.81-1c-2,.36-5.54.53-6.79-1.56a4.49,4.49,0,0,1-.52-2A13.29,13.29,0,0,1,94.7,3l-8.17.2a10.81,10.81,0,0,1,.12,3c-.19,1.92-.87,2.95-2.67,3.43-2.18.59-4.32,1.33-6.52,1.85-2.95.7-4.69,2.32-5.17,5.16A101.35,101.35,0,0,0,71.22,29c-.25,5.35-.46,10.7-.68,16a4.1,4.1,0,0,1-.77,2.51c-3.25,4.09-4.46,9-5.73,13.93-.69,2.64-1.28,5.32-2,8-.44,1.66-1,3.27-1.51,4.9-.46,1.44-1.26,2.71-1.75,4.13a9.76,9.76,0,0,0-.56,3,4.85,4.85,0,0,0,.83,2.86,8.58,8.58,0,0,0,1.25,1.51,4.19,4.19,0,0,0,2.38,1c.36.05,1.32.18,1.35-.4h0c0-.27-.27-.45-.5-.46a3,3,0,0,1-1.32-.45L62,85.51l.21,0c.4-.06,2.67-.21,2.53-.78a.3.3,0,0,0-.06-.13c-.36-.46-2.07.32-3-.15a5.83,5.83,0,0,1-.83-.44l0,0a1.19,1.19,0,0,1-.2-.19h0a1.37,1.37,0,0,0,.17.17l-.14-.15a3.67,3.67,0,0,0,1.34.24,2,2,0,0,0,.69-.07h.13c.3-.07,1.28-.29,1.29-.6h0c0-.33-1-.09-1.18-.08a3.32,3.32,0,0,1-1.09-.12,3.66,3.66,0,0,1-.51-.21,4,4,0,0,1-.4-.22,3.07,3.07,0,0,1-.42-.28h0l0,0a2.09,2.09,0,0,0,0-.25l0-.24c0-.15.05-.31.08-.46a1.18,1.18,0,0,1,0-.2c0-.22.11-.44.17-.66l0-.07c.07-.23.14-.46.22-.68,0,0,.06-.15.1-.27l0-.07v0l.08-.2a5.52,5.52,0,0,1,.43-.84c.2-.22.34-.32.45-.32a.26.26,0,0,1,.18.09s0,.07.05.1a1.91,1.91,0,0,1,.08.65c0,.26-.12,1.11-.13,2v.35c0,1,.2,1.81.81,1.67.3-.06.35-.31.34-.56s0-.31,0-.43a2.37,2.37,0,0,1,.21-.91c.24-.57.25-1,.53-1.56a7,7,0,0,0,.76-3.3h0c0-.91-.3-1.7-.34-2.51a3,3,0,0,1,.31-1.5h0c1.88-3.79,3.87-8.43,5.92-12.12A37.83,37.83,0,0,0,75.76,45.9c.6-4.27,2.57-11.56,3-15.89.53,1.65,2,7.25,2.48,8.87,2,6.26,8,10,5.23,15.69-.26.53-.55,1.06-.78,1.61C83.29,62,81.81,67.46,82.2,73.77c.33,5.22.37,9.54,1.35,14.68,1.52,8,4.13,15.88,5.65,23.83a40.51,40.51,0,0,1,.55,5.23,47.94,47.94,0,0,0,.49,8.54c2,10,4.49,20,7,29.89,1.33,5.33,2.64,10.66,1.32,16.22a18.76,18.76,0,0,0-.34,3.19c-.22,3.13,1.36,5.34,3.76,7.05a2.77,2.77,0,0,0,4.08-.73,6.42,6.42,0,0,0,1.23-3.84,32.5,32.5,0,0,0-1.63-9.65c-.67-2.35-.68-4.83-1.68-7.14-.49-1.12-1.11-2.65-.1-3.93,3.78-4.76.77-10.08.35-15.12,0-.16-.18-.31-.23-.48a2.11,2.11,0,0,1-.2-.86c.45-2.75.51-5.38.92-8.16.94-6.38,1-13.16-.87-19.51-1.36-4.54.54-10.46,2.44-14.89,1.83-4.25-.93-7.52.47-12a75.28,75.28,0,0,0,3.48-16.2c.53-6.18-1.13-14.21-3.63-20.09,0-.05-5-.09-5-.11h.11c1.36,1,3.74,3,4.9,4.07s2.42.45,3.8-.26c2.32-1.19,4.12-3,6.07-4.67,4.32-3.67,7.79-7,10.49-12.06A4.57,4.57,0,0,0,127.19,32.08Zm-6.63,3.25c-3.51,3.09-5.41,7.37-8.14,11s-3.61,4.6-6.61,1c-1.14-1.38-2.43-3.56-4.07-4.71h0a4.83,4.83,0,0,0-.76-.44,1.31,1.31,0,0,1-.66-1.39c.44-2.09.77-4.22,1.33-6.28a53.29,53.29,0,0,1,2-6.83,5.36,5.36,0,0,0,.31-3.34,2,2,0,0,1,.66-2.25c.86-.62,1.63,0,2.26.48a51.74,51.74,0,0,1,4.86,3.69c2.73,2.75,5.67,5.25,8.55,7.83C120.69,34.46,121.21,34.76,120.56,35.33Z"/><path class="cls-2" d="M105,34.93c0-3.3,1.22-7.55,1.12-11s-2-8-2-12c0-1.61-.44-1.69-1.65-2.25a2,2,0,0,0-2.42.59C98.24,12.6,94.2,16,91.16,16a12,12,0,0,1-9-5c-.42-.66-1.22-1-3,0-.85.48-1.27,1.06-1,2,2.07,7.17-.49,16.37,2.07,23.89a30,30,0,0,1,.62,18.29c-3.44,13-8.51,25.76-12.65,38.57-1.93,6,5.19,5.61,9.24,5.09a.81.81,0,0,1,.87.5c.52,1.29,2.9,4.16,13.79,3.39h9.64a9.12,9.12,0,0,0,4.9-1.43,13,13,0,0,1,6.86-2.46,11,11,0,0,0,5-1.65l3.56-2.27a2.64,2.64,0,0,0,0-.33c-3.42-10-6.53-19.74-9.92-29.75C108.81,55.1,105.11,50.85,105,34.93Z"/><path class="cls-3" d="M88.7,103.83c-8,0-10.5-2.38-11.23-4-5,.63-8.22.07-9.69-1.71-1-1.16-1.14-2.75-.5-4.7,1.47-4.56,3.09-9.18,4.65-13.66,2.84-8.12,5.77-16.52,8-24.86a28.85,28.85,0,0,0-.59-17.7c-1.41-4.13-1.34-8.67-1.27-13.07.06-3.92.12-7.62-.82-10.87A2.56,2.56,0,0,1,78.7,10.1c2.5-1.4,3.73-.59,4.32.33A11,11,0,0,0,91.16,15c2.57,0,6.36-3.06,8.11-5.27a3,3,0,0,1,3.62-.88l.23.1a2.74,2.74,0,0,1,2,3.06,27.76,27.76,0,0,0,1,6.28,29.2,29.2,0,0,1,1,5.66,33.57,33.57,0,0,1-.58,6,33.89,33.89,0,0,0-.54,5.06h0c.09,11.91,2.21,17.15,4.65,23.23.79,2,1.6,4,2.4,6.33,1.55,4.59,3,9.13,4.55,13.67,1.73,5.25,3.52,10.67,5.36,16.08a2.25,2.25,0,0,1,.11.59,1,1,0,0,1-.46.91L119,98a12.15,12.15,0,0,1-5.42,1.8,11.91,11.91,0,0,0-6.26,2.2l-.15.1a10.1,10.1,0,0,1-5.44,1.59h-9.6C90.91,103.79,89.75,103.83,88.7,103.83Zm-11.12-6a1.81,1.81,0,0,1,1.69,1.14c.24.59,2,3.53,12.78,2.76h9.72a8.08,8.08,0,0,0,4.37-1.28l.15-.09a13.76,13.76,0,0,1,7.15-2.51,9.94,9.94,0,0,0,4.52-1.5l3-1.88c-1.79-5.24-3.53-10.53-5.22-15.66-1.5-4.53-3-9.06-4.55-13.65-.77-2.3-1.58-4.3-2.35-6.23-2.53-6.26-4.7-11.67-4.8-24h0a35.77,35.77,0,0,1,.56-5.37,32.48,32.48,0,0,0,.56-5.61,28.07,28.07,0,0,0-.92-5.25A29.58,29.58,0,0,1,103.12,12c0-.86,0-.86-.84-1.24l-.23-.11a1,1,0,0,0-1.21.31c-2,2.51-6.3,6-9.68,6a13,13,0,0,1-9.82-5.45c-.23-.36-1,0-1.66.34s-.61.55-.52.84c1,3.54,1,7.57.89,11.46-.07,4.23-.13,8.6,1.16,12.39a31.22,31.22,0,0,1,.64,18.86c-2.23,8.42-5.18,16.85-8,25-1.56,4.46-3.17,9.08-4.64,13.62a2.89,2.89,0,0,0,.14,2.8c.69.83,2.64,1.67,8,1Z"/><path class="cls-3" d="M82.24,48.78a23.42,23.42,0,0,0,5.85,1.9,22.45,22.45,0,0,0,6,.46,39.08,39.08,0,0,0,5.92-1c1-.14,2-.45,3-.66s2-.56,3-.74h0a.1.1,0,0,1,.12.08.11.11,0,0,1,0,.1,15.33,15.33,0,0,1-5.59,3.15,17.25,17.25,0,0,1-6.43.64,24.33,24.33,0,0,1-6.3-1.09,21.7,21.7,0,0,1-5.71-2.71.09.09,0,0,1,0-.13.1.1,0,0,1,.13,0Z"/><path class="cls-3" d="M87.17,64.81,78.43,99.08a1,1,0,0,1-1.94-.49s0,0,0-.06Z"/><path class="cls-3" d="M94.15,64.81l-1,37.94a1,1,0,0,1-2,0v-.06Z"/><path class="cls-3" d="M103.62,67.3l7.4,32a1,1,0,0,1-2,.45s0,0,0-.06Z"/><path class="cls-3" d="M108.1,65.81l10.35,31.63a1,1,0,0,1-1.9.63.14.14,0,0,0,0-.06Z"/></svg>