<svg id="图层_1" data-name="图层 1" xmlns="http://www.w3.org/2000/svg" viewBox="0 0 186 186"><defs><style>.cls-1{fill:#fae7ee;}.cls-2{fill:#fff;}.cls-3{fill:#5b3b2f;}</style></defs><path class="cls-1" d="M95.36,3H84.61c-.36,2-.52,3.79-2.6,4.63-1.67.69-3.55.52-5.23,1.16a13.52,13.52,0,0,0-7.26,7.51c-1,2.24-2.47,4.35-3.68,6.48-2.08,3.64-4.76,7.27-6.46,11.09-1.87,4.17,2.34,6.85,5.14,9.06.61.49,7.93,6.4,7.84,6.53l3.13-4.63-4.3-3.58c-1.32-1.1-5.83-3.81-5.82-5.6A2.42,2.42,0,0,1,66.23,34c2-2,3.87-4.08,5.77-6.14.45-.5,3.13-4.17,3.79-4.11l29.28,2.46s6.58-7.1,2-13.37a6.61,6.61,0,0,0-2.24-2,10.84,10.84,0,0,0-3.32-1.11c-1.46-.26-2.92,0-4.37-.22a2.31,2.31,0,0,1-1-.36C95.18,8.58,95.57,3,95.36,3Z"/><path class="cls-2" d="M86.76,182a39.72,39.72,0,0,1-7.23-.91l-1.22-.22a23.7,23.7,0,0,1-9.2-3.44,9.67,9.67,0,0,0-5.58-1.86,15.27,15.27,0,0,0-2.68.27,46,46,0,0,1-7.74.8c-3.37,0-5.53-.68-6.08-1.92-.45-1,.18-2.67,1.65-4.27,9.84-10.73,10.39-19.39,12.43-51.64.32-5,.67-10.5,1.09-16.7.62-9,.66-18.06.69-26.87,0-2.61,0-5.22,0-7.83.05-4.41.39-10.12,2.7-15.15a20.59,20.59,0,0,1,5.15-7,16.94,16.94,0,0,1,2-1.39c1.83-1.15,3.9-2.45,4.39-4.89a12.29,12.29,0,0,0-.62-5.62L76.17,32c-.89-3.4-1.82-6.91-1-10.27a6.3,6.3,0,0,1,1.57-3.06c2.06-2.06,5.79-2.3,8.41-2.3,1.09,0,2.17,0,3.16.09l1.58.05a50.34,50.34,0,0,1,9,1.07c.39.09.79.16,1.19.23,2.4.45,4.47.83,5.32,3a7.3,7.3,0,0,1,.18,4l-.18,1.17c-.43,2.74-.8,5.11-2.6,7.35l-.47.6c-3.79,4.73-6.54,8.15-7.06,14.95-.46,5.85.41,12.32,2.74,20.34A185,185,0,0,0,105.44,89c1.77,4.19,3.59,8.53,5.15,12.83,9.18,25.27,13.4,39.17,15.92,47.47,3.84,12.63,3.94,12.81,11.3,20.17.71.72,1.52,1.76,1.25,2.67s-1.44,2.26-7,3.44a21.8,21.8,0,0,1-4.65.52h0c-.85,0-1.6-.05-2.32-.1s-1.26-.08-1.86-.08a9,9,0,0,0-4.3,1c-3.2,1.6-6,2.67-9,2.67h-.43c-1.14,0-2.35-.12-3.63-.22-1.81-.13-3.68-.26-5.5-.26a25.14,25.14,0,0,0-3.43.21,13.56,13.56,0,0,0-3.62,1.22,20.27,20.27,0,0,1-2.33.91A15.74,15.74,0,0,1,86.76,182Z"/><path class="cls-3" d="M85.14,17.32c1.07,0,2.11,0,3.12.08l1.59.06a49.36,49.36,0,0,1,8.79,1.05c.39.09.8.16,1.21.24,2.5.46,4,.8,4.57,2.36a6.34,6.34,0,0,1,.13,3.42c-.07.4-.13.79-.19,1.17-.43,2.72-.76,4.86-2.39,6.89l-.47.59c-3.91,4.87-6.73,8.39-7.28,15.5-.47,6,.42,12.56,2.78,20.7a184.47,184.47,0,0,0,7.52,20c1.76,4.19,3.58,8.51,5.13,12.79,9.17,25.25,13.38,39.13,15.9,47.42,3.88,12.74,4,13,11.55,20.58.8.8,1.08,1.42,1,1.69,0,.06-.51,1.52-6.22,2.75a21.1,21.1,0,0,1-4.44.49c-.82,0-1.56-.05-2.27-.1s-1.28-.08-1.92-.08A10.13,10.13,0,0,0,118.5,176c-3.16,1.58-5.7,2.56-8.56,2.56h-.39c-1.13,0-2.33-.12-3.61-.21-1.82-.13-3.71-.27-5.56-.27a25.49,25.49,0,0,0-3.57.22,14.17,14.17,0,0,0-3.88,1.29,17.38,17.38,0,0,1-2.2.86,14.54,14.54,0,0,1-4,.52,39,39,0,0,1-7-.89l-1.23-.23a22.82,22.82,0,0,1-8.87-3.3,10.59,10.59,0,0,0-6.09-2,16.1,16.1,0,0,0-2.85.28,45.25,45.25,0,0,1-7.57.79c-3.38,0-4.89-.71-5.16-1.32s.19-1.8,1.47-3.19c10.07-11,10.63-19.73,12.69-52.26.31-4.92.67-10.5,1.09-16.69.62-9,.66-18.09.69-26.91,0-2.62,0-5.24,0-7.85.05-4.31.38-9.88,2.61-14.74a19.42,19.42,0,0,1,4.9-6.62,13.74,13.74,0,0,1,1.87-1.3c1.9-1.2,4.26-2.68,4.84-5.55a12.91,12.91,0,0,0-.64-6.08c-.07-.25-.14-.51-.2-.76l-.18-.67c-.86-3.28-1.76-6.67-1-9.79a5.37,5.37,0,0,1,1.31-2.58c1.8-1.8,5.26-2,7.7-2m0-2c-3.37,0-6.94.41-9.12,2.59a7.36,7.36,0,0,0-1.83,3.53c-.92,3.84.23,7.73,1.19,11.44.5,1.88,1.21,4,.82,5.94-.59,2.91-4.06,4-6.07,5.73a21.57,21.57,0,0,0-5.4,7.29C62.5,56.7,62,62.12,61.94,67.4,61.83,79,62,90.52,61.21,102,58,148.64,59,157.7,47.94,169.78c-3,3.27-3.78,7.86,5.17,7.86a46.6,46.6,0,0,0,7.92-.82,14.43,14.43,0,0,1,2.5-.25c4.85,0,5,3.53,14.61,5.28A48.19,48.19,0,0,0,86.76,183a17,17,0,0,0,4.51-.59c2-.55,3.85-1.83,5.82-2.1a24.85,24.85,0,0,1,3.29-.2c3.05,0,6.3.39,9.1.48h.46c3.42,0,6.4-1.25,9.45-2.77a8.07,8.07,0,0,1,3.86-.9c1.24,0,2.53.18,4.19.18a22.74,22.74,0,0,0,4.86-.54c8.23-1.76,9.32-4.69,6.21-7.8-12.07-12.08-4-4-27-67.27-4-10.91-9.37-21.51-12.61-32.67-1.86-6.42-3.23-13.29-2.71-20s3.29-10,7.33-15c2.21-2.77,2.42-5.64,3-9a8.37,8.37,0,0,0-.24-4.5c-1.23-3.07-4.45-3.22-7.23-3.8a50.27,50.27,0,0,0-9.14-1.1c-1.41,0-3.06-.14-4.77-.14Z"/><path class="cls-3" d="M74.34,180.05h-.08a.75.75,0,0,1-.67-.82,136,136,0,0,0,.33-28.71l0-.7c-.5-7-.73-14.06-.94-20.93l-.18-5.38c-.1-2.94-.21-5.89-.31-8.83-.6-16.2-1.22-32.95-.49-49.48.25-5.52.68-10.86,3.22-15.54.43-.79.92-1.56,1.39-2.3a19.83,19.83,0,0,0,2.09-3.85c1.79-4.86.29-11.8-4.31-20.06a.75.75,0,1,1,1.31-.73c4.89,8.78,6.38,16,4.41,21.3a21.48,21.48,0,0,1-2.24,4.15c-.46.72-.93,1.46-1.33,2.2-2.39,4.41-2.8,9.56-3,14.9-.73,16.46-.11,33.18.48,49.36.11,2.94.22,5.89.32,8.83l.18,5.38c.21,6.85.44,13.94.94,20.87l0,.7a137,137,0,0,1-.33,29A.75.75,0,0,1,74.34,180.05Z"/><path class="cls-3" d="M112.77,179.45a.75.75,0,0,1-.71-.52c-4.63-14.21-6.68-26.64-8.86-39.81-2.85-17.3-5.81-35.19-14.86-59.77L88.22,79c-2.34-6.35-4.75-12.91-5.08-19.77-.27-5.74,1.79-10.64,4-15.82.86-2,1.74-4.15,2.47-6.3,2-6,2.56-10.08,2.69-20.59a.75.75,0,0,1,.75-.74h0a.74.74,0,0,1,.74.75c-.13,10.58-.7,14.91-2.77,21.06-.74,2.2-1.64,4.34-2.51,6.4-2.11,5-4.1,9.77-3.85,15.17.31,6.63,2.69,13.08,5,19.32l.12.32c9.1,24.72,12.06,42.68,14.93,60.05,2.17,13.11,4.21,25.49,8.81,39.59a.74.74,0,0,1-.48.94A.67.67,0,0,1,112.77,179.45Z"/><path class="cls-1" d="M120.64,47.26a1.57,1.57,0,0,0-.89-.64,13.49,13.49,0,0,1-3-1.58c-1.3-.74-2.66-.36-4-.07l1-.59a6.59,6.59,0,0,1,2.12-.73,6.43,6.43,0,0,0,1.58-.32c.43-.2.91-.66.7-1.17-.15-.36-.49-.18-.79-.14-.76.1-1.52.19-2.28.26a4.49,4.49,0,0,0-1.91.4c-.47.26-.88.61-1.35.88-.79.45-1.4.7-1.79,1.58a25.26,25.26,0,0,1-2.89,4.49,1.22,1.22,0,0,1-1.36.54l-4.46-3.62-9.07-7.79c-1.23-1.06-1.18-1.92,0-3.08,4.24-4.17,8.68-10.75,12.46-15.33a4,4,0,1,0-6.36-4.71L87,32.72a16.31,16.31,0,0,0-2.1,3.13c-.94,2.46.68,3.91,2.52,5.27,5.34,4,9.77,7.72,14.78,12.09,3.15,2.75,7.29,1.51,9.56-1.64a4.46,4.46,0,0,1,1.44-1.26,2.12,2.12,0,0,1,1.85-.16c.62.28,1.32,1.75,2.09,1a5.66,5.66,0,0,0-.58-.89,4,4,0,0,0-1.07-1.15,4.26,4.26,0,0,0-1.55-.23,5.2,5.2,0,0,1-1.46-.3l1.18-.07,3.12-.19c1.08.47,2.52.9,2.85,0a.22.22,0,0,0,0-.21h.12C120.18,48.16,120.9,47.83,120.64,47.26Z"/></svg>