<svg id="图层_1" data-name="图层 1" xmlns="http://www.w3.org/2000/svg" viewBox="0 0 186 186"><defs><style>.cls-1{fill:#fae7ee;}.cls-2{fill:#fff;}.cls-3{fill:#5b3b2f;}</style></defs><path class="cls-1" d="M128.32,32.29a18.72,18.72,0,0,0-1.94-2.81c-5-5.87-10.85-11-15.81-17a11.62,11.62,0,0,0-1.91-1.65,7,7,0,0,0-5.86-1c-2,.36-5.59.54-6.85-1.56a4.49,4.49,0,0,1-.53-2A13.53,13.53,0,0,1,95.53,3l-8.24.21a11,11,0,0,1,.13,3c-.19,1.93-.88,3-2.69,3.46-2.2.59-4.36,1.34-6.58,1.87-3,.71-4.72,2.34-5.21,5.2a103.46,103.46,0,0,0-1.06,12.55c-.25,5.39-.45,10.79-.66,16.18A4.15,4.15,0,0,1,70.44,48c-3.27,4.13-4.49,9.13-5.77,14-.69,2.67-1.27,5.37-2,8-.44,1.68-1,3.3-1.52,5-.46,1.45-1.27,2.73-1.76,4.17a9.9,9.9,0,0,0-.57,3.06,4.9,4.9,0,0,0,.85,2.87A9.24,9.24,0,0,0,61,86.66a4.18,4.18,0,0,0,2.4,1c.37,0,1.33.19,1.37-.4h0a.5.5,0,0,0-.51-.46,3.07,3.07,0,0,1-1.33-.46l-.22-.12.22,0c.4-.07,2.69-.23,2.55-.8a.49.49,0,0,0-.06-.13c-.36-.47-2.09.33-3-.15a5.51,5.51,0,0,1-.84-.44l0,0a1,1,0,0,1-.21-.19h0a1.37,1.37,0,0,0,.17.17l-.14-.16a3.56,3.56,0,0,0,1.35.25,2.06,2.06,0,0,0,.7-.07h.13c.3-.08,1.29-.29,1.3-.61h0c0-.34-1-.09-1.19-.08a3.16,3.16,0,0,1-1.1-.12,3.66,3.66,0,0,1-.51-.21,4.1,4.1,0,0,1-.41-.22,2.86,2.86,0,0,1-.42-.29h0l0,0c0-.09,0-.17,0-.26l0-.24c0-.15,0-.31.08-.46a1.55,1.55,0,0,1,0-.21c.05-.22.11-.44.17-.65l0-.08c.07-.23.14-.46.23-.69,0-.05.05-.15.09-.27l0-.06v0a1.67,1.67,0,0,0,.08-.2,4.78,4.78,0,0,1,.44-.84c.19-.23.34-.33.45-.33A.26.26,0,0,1,63,79s0,.07.05.1a1.91,1.91,0,0,1,.08.65c0,.27-.12,1.13-.13,2v.36c0,1,.2,1.82.82,1.68.31-.07.36-.31.35-.57s0-.31,0-.43a2.26,2.26,0,0,1,.22-.92c.24-.57.25-1,.53-1.57a7.13,7.13,0,0,0,.76-3.33h0c0-.92-.3-1.72-.34-2.53a3,3,0,0,1,.31-1.52h0c1.89-3.81,3.89-8.5,6-12.23a38.21,38.21,0,0,0,4.87-14.34c.59-4.31,2.57-11.66,3-16,.54,1.66.8,6.31,1.33,7.93,2.06,6.32,4.5,12.45,1.45,16.82a8.43,8.43,0,0,0-.78,1.63c-2.42,5.91-6.25,9-5.84,15.37a124.13,124.13,0,0,0,2.21,15.67c1.54,8,3.17,16,4.71,24a39.37,39.37,0,0,1,.57,5.27,47.75,47.75,0,0,0,.5,8.61c2,10.12,4.54,20.13,7.06,30.14C92,161.1,93.36,166.47,92,172.07a19.11,19.11,0,0,0-.34,3.22c-.22,3.15,1.38,5.38,3.8,7.11a2.8,2.8,0,0,0,4.11-.74,6.49,6.49,0,0,0,1.23-3.88,32.14,32.14,0,0,0-1.65-9.73c-.68-2.37-.69-4.87-1.7-7.2-.49-1.12-1.12-2.67-.1-3.95,3.8-4.82.76-10.17.33-15.25,0-.17-.18-.32-.23-.49a2,2,0,0,1-.2-.86c.45-2.79.51-5.43.92-8.23.94-6.44,1-13.28-.9-19.68a19.25,19.25,0,0,1,.94-13.51,119.19,119.19,0,0,0,4.47-12,75.83,75.83,0,0,0,3.5-16.34c.52-6.24-1.16-14.33-3.69-20.26a.09.09,0,0,1,0-.1h.11c1.37,1,3.78,3.07,5,4.1s2.44.46,3.83-.26c2.33-1.2,4.15-3.05,6.11-4.72,4.36-3.7,7.85-7,10.57-12.17A4.6,4.6,0,0,0,128.32,32.29Zm-6.68,3.29c-3.54,3.11-5.44,7.43-8.2,11.13s-3.63,4.64-6.66,1c-1.15-1.39-2.46-3.58-4.1-4.74h0l0,0a5.43,5.43,0,0,0-.77-.44,1.3,1.3,0,0,1-.67-1.39c.44-2.12.77-4.26,1.33-6.34a55.38,55.38,0,0,1,2-6.89,5.39,5.39,0,0,0,.31-3.37,2,2,0,0,1,.66-2.27c.87-.62,1.65,0,2.29.48a54.29,54.29,0,0,1,4.9,3.71c2.75,2.77,5.72,5.3,8.63,7.89C121.78,34.7,122.3,35,121.64,35.58Z"/><path class="cls-2" d="M98.63,151.47a50.94,50.94,0,0,1-6.39-2.25c-4-1.73-7.54-4-12.13-4-5.25.09-11.7,2.11-16.87,2.77-2.29.3-6,1-7.73-1.08-1.91-2.34,1.08-6.69-3.7-5.69a33.09,33.09,0,0,1-6.87.76c-6.09,0-8-3.12-5.42-8.64C47.74,115.9,55.71,98.31,64.1,80.92c3.67-7.62,7.48-15,11.8-22.21,3.92-6.58,6.08-13.55,3.21-21-3-7.72-4-15.58-1.23-26.32A1.21,1.21,0,0,1,79,10.48c1.19,0,2.36.17,3.55.11,1-.05,2.13,1.16,2.85,1.69,3.22,2.35,9.48,1.85,11.64-1.74A2.36,2.36,0,0,1,98.9,9.33c1.77-.11,2.59.29,4.66,1a1.51,1.51,0,0,1,1,1c.77,2.33.17,4.79.36,7.17.16,2.14,1.43,4,1.37,6.17-.23,9.12-3.17,17.63,1,26.14,3,6.1,11,19.05,14.08,25.13,11.56,23.06,15.68,38.26,26,61.86a3.2,3.2,0,0,1-.81,3.51l-3.15,3.08a6.22,6.22,0,0,1-4.55,1.75c-3.26-.11-8.86.11-12.16,2.61C119.11,154.43,108,154.09,98.63,151.47Z"/><path class="cls-3" d="M111,154.29a47.15,47.15,0,0,1-12.66-1.86h0a50.1,50.1,0,0,1-6.51-2.29c-.92-.39-1.81-.81-2.69-1.23-2.93-1.39-5.71-2.69-9-2.65A57.14,57.14,0,0,0,70,147.8c-2.34.49-4.54,1-6.61,1.23l-.56.07c-2.45.33-6.15.83-8.07-1.52a5.8,5.8,0,0,1-1-3.82c0-.58,0-1.39-.2-1.55,0,0-.33-.23-1.55,0a34.82,34.82,0,0,1-7,.78h0c-3.38,0-5.67-.91-6.8-2.7s-1-4.28.47-7.37c3.06-6.49,6.07-13,9.09-19.5,5-10.83,10.22-22,15.5-33C67.35,71.87,71.12,64.79,75,58.2c4.51-7.58,5.51-14,3.13-20.16-3.43-8.91-3.8-17-1.25-26.92A2.18,2.18,0,0,1,79,9.48c.57,0,1.14,0,1.68.06a16.29,16.29,0,0,0,1.83.05c1.13-.06,2.17.8,3,1.48l.49.4a8.21,8.21,0,0,0,6.17,1.07,5.92,5.92,0,0,0,4-2.51,3.38,3.38,0,0,1,2.65-1.7,9.3,9.3,0,0,1,4.25.77l.79.27a2.53,2.53,0,0,1,1.59,1.6,13.24,13.24,0,0,1,.41,4.9,20.85,20.85,0,0,0,0,2.5,10.68,10.68,0,0,0,.63,2.55,10.57,10.57,0,0,1,.74,3.72c-.06,2.61-.35,5.17-.62,7.64-.69,6.26-1.35,12.18,1.53,18,1.53,3.12,4.44,8.13,7.25,13s5.33,9.18,6.82,12.14a386.93,386.93,0,0,1,15.66,36.33c3.06,7.89,6.22,16,10.42,25.58a4.23,4.23,0,0,1-1,4.63l-3.16,3.07a7.22,7.22,0,0,1-5.27,2c-3-.1-8.44.07-11.53,2.41C123.11,152.67,117.46,154.29,111,154.29Zm-30.7-10c3.7,0,6.75,1.45,9.7,2.85.85.4,1.72.81,2.61,1.2a52.72,52.72,0,0,0,6.27,2.2h0c5.21,1.46,18.28,4.13,27.21-2.61,3.41-2.57,8.84-3,12.81-2.81a5.3,5.3,0,0,0,3.81-1.47l3.16-3.08a2.2,2.2,0,0,0,.58-2.4c-4.2-9.57-7.38-17.74-10.44-25.65a385.57,385.57,0,0,0-15.59-36.15c-1.46-2.91-4.15-7.55-6.76-12-2.83-4.88-5.76-9.92-7.32-13.1-3.13-6.38-2.44-12.58-1.72-19.14.27-2.43.55-5,.61-7.47a9,9,0,0,0-.64-3,12.59,12.59,0,0,1-.73-3,25,25,0,0,1,0-2.74,11.57,11.57,0,0,0-.31-4.19.53.53,0,0,0-.33-.34l-.8-.27A7.55,7.55,0,0,0,99,10.33a1.38,1.38,0,0,0-1.06.72,7.83,7.83,0,0,1-5.33,3.45,10.1,10.1,0,0,1-7.75-1.42c-.17-.12-.37-.29-.58-.46-.41-.34-1.25-1-1.62-1h0a17.5,17.5,0,0,1-2.06-.05c-.5,0-1-.07-1.52-.06a.19.19,0,0,0-.18.14C76.42,21.14,76.77,28.83,80,37.33c2.61,6.79,1.57,13.75-3.28,21.9C72.86,65.76,69.13,72.79,65,81.35c-5.27,10.93-10.46,22.12-15.48,32.94q-4.53,9.76-9.1,19.51c-.78,1.67-1.53,4-.6,5.45s3.3,1.77,5.12,1.77h0a33,33,0,0,0,6.63-.74,3.84,3.84,0,0,1,3.2.38c.93.75.94,2,.95,3.09a4.13,4.13,0,0,0,.53,2.56c1.21,1.49,4.25,1.08,6.25.81l.57-.08c2-.25,4.16-.71,6.45-1.2a59.16,59.16,0,0,1,10.54-1.58Z"/><path class="cls-3" d="M81.62,47.24a18.83,18.83,0,0,0,5.92,1.18,44.51,44.51,0,0,0,6,0c1,0,2-.18,3-.22l3-.31c1-.15,2-.23,3-.35s2-.24,3.11-.28c-.94.47-1.91.85-2.88,1.24s-2,.64-3,.92-2,.45-3.07.66-2.09.3-3.15.33A23.27,23.27,0,0,1,87.32,50,11.16,11.16,0,0,1,81.62,47.24Z"/><path class="cls-3" d="M86.65,73.38c.37-4,.52-8.06.68-12.09s.25-8.07.33-12.1l2,.12q-.61,6-1.33,12.06C87.84,65.38,87.36,69.4,86.65,73.38Z"/><path class="cls-3" d="M99.72,79.41c-.88-5-1.69-10-2.39-15q-.54-3.77-1-7.54c-.28-2.53-.54-5-.67-7.63h2c0,2.45,0,5,.16,7.51s.27,5,.46,7.55C98.69,69.35,99.17,74.38,99.72,79.41Z"/><path class="cls-3" d="M64.49,102.46l-8.93,39.83a1,1,0,0,1-2-.43v-.05Z"/><path class="cls-3" d="M86.15,96l-1.81,49.57a1,1,0,0,1-2-.07v0Z"/><path class="cls-3" d="M110.78,94.49,129.85,147a1,1,0,0,1-1.88.68v0Z"/></svg>