<svg id="图层_1" data-name="图层 1" xmlns="http://www.w3.org/2000/svg" viewBox="0 0 186 186"><defs><style>.cls-1{fill:#fff;}.cls-2{fill:#5b3b2f;}.cls-3{fill:#fae7ee;}.cls-4{fill:#f9e6ed;}</style></defs><path class="cls-1" d="M124.53,177.3a36,36,0,0,1-6.66-.85l-1.12-.21a21.67,21.67,0,0,1-8.48-3.22,8.84,8.84,0,0,0-5.19-1.76,13.88,13.88,0,0,0-2.49.25,41.47,41.47,0,0,1-7.13.75c-3.07,0-5-.62-5.54-1.75-.43-.95.15-2.48,1.5-4,4.62-5.12,4.29-10.4,3.83-17.71-.63-9.86-1.48-23.37,8.59-46.22,2-4.54,6.06-18.61,10.36-33.51,5.24-18.14,12.29-42.57,15-46.79,0,1.8-1.18,6.38-2,9.56A69.2,69.2,0,0,0,123,42.05c-.43,5.55,3,12.07,5.7,17.31.74,1.42,1.44,2.76,2,4C134.31,71,137.18,79,140,86.72q1,2.77,2,5.55c9.68,26.63,18.37,48.29,27.34,68.16.21.47.5,1,.82,1.64a33.37,33.37,0,0,1,1.5,3.12,5.93,5.93,0,0,1,.58,3.16c-.39,1.79-3.32,2.41-5.26,2.81l-.56.12a19.57,19.57,0,0,1-4.28.48h0c-.79,0-1.48,0-2.15-.09s-1.16-.08-1.71-.08a8.29,8.29,0,0,0-4,1c-2.94,1.49-5.48,2.49-8.28,2.49h-.39c-1,0-2.17-.11-3.35-.2-1.67-.12-3.4-.25-5.08-.25a23.12,23.12,0,0,0-3.18.2,12.79,12.79,0,0,0-3.37,1.15,15.33,15.33,0,0,1-2.14.85A14.06,14.06,0,0,1,124.53,177.3Z"/><path class="cls-2" d="M128.37,22.49h0m-5.18,13.28A41.89,41.89,0,0,0,122,42c-.45,5.84,3,12.49,5.81,17.85.73,1.41,1.43,2.74,2,4,3.56,7.56,6.42,15.55,9.18,23.28.67,1.85,1.33,3.71,2,5.56,9.69,26.65,18.39,48.33,27.37,68.23.23.5.53,1.08.85,1.69.49.94,1.05,2,1.46,3a4.84,4.84,0,0,1,.53,2.58c-.25,1.16-3,1.74-4.49,2.05l-.57.12a18.89,18.89,0,0,1-4.07.46c-.75,0-1.43-.05-2.08-.09s-1.19-.08-1.78-.08a9.36,9.36,0,0,0-4.47,1.06c-2.9,1.47-5.22,2.39-7.83,2.39h-.35c-1,0-2.15-.11-3.32-.2-1.69-.12-3.44-.25-5.15-.25a23.48,23.48,0,0,0-3.32.21,13.12,13.12,0,0,0-3.64,1.22,14.11,14.11,0,0,1-2,.8,12.87,12.87,0,0,1-3.62.49,35.35,35.35,0,0,1-6.47-.84l-1.13-.21a20.79,20.79,0,0,1-8.14-3.09,9.82,9.82,0,0,0-5.71-1.91,15,15,0,0,0-2.67.27,40.49,40.49,0,0,1-7,.74c-3.25,0-4.44-.73-4.63-1.17s.19-1.63,1.33-2.9c4.9-5.44,4.54-11.18,4.08-18.44-.62-9.76-1.46-23.13,8.51-45.76,2-4.6,5.91-18.06,10.41-33.64,3-10.32,6.85-23.73,10-33.59m4.24-15c-3.88,0-21.55,70.15-26.5,81.38-17.65,40.06-2,52.31-12.24,63.66-2.78,3.09-3.5,7.39,4.77,7.39a42.65,42.65,0,0,0,7.31-.76,13.22,13.22,0,0,1,2.31-.24c4.47,0,4.58,3.32,13.48,5a44.59,44.59,0,0,0,8,1.07,15.07,15.07,0,0,0,4.16-.55c1.82-.52,3.55-1.72,5.38-2a21.3,21.3,0,0,1,3-.19c2.81,0,5.82.36,8.4.45h.42c3.16,0,5.91-1.17,8.73-2.61a7.42,7.42,0,0,1,3.57-.84c1.14,0,2.33.17,3.86.17a20.35,20.35,0,0,0,4.49-.51c2.12-.46,6-1.05,6.58-3.69a6.67,6.67,0,0,0-.63-3.73c-.71-1.81-1.8-3.62-2.33-4.81-10.07-22.3-19-45.11-27.32-68.09-3.56-9.79-6.81-19.58-11.25-29-2.72-5.81-8.13-14.1-7.62-20.8.49-6.35,6.26-21.22,3.42-21.3Z"/><path class="cls-2" d="M143.27,175.6h-.1a1,1,0,0,1-.89-1.09c3.7-38.76-20.81-125.41-21-126.28a1,1,0,0,1,1.91-.55c.25.88,24.85,87.89,21.12,127A1,1,0,0,1,143.27,175.6Z"/><path class="cls-3" d="M111,19.69l-1.13,4.16a1.63,1.63,0,0,0-1.55.73,79.59,79.59,0,0,0-4.47,6.6c-.62,1.1-1.55,2.58-1.52,3.89,0,2.13,7.75,1.62,9.31,1.65,2.45.05,2.2,2.44.54,3.52s-7.58,1.32-9.33,1.07a20.38,20.38,0,0,1-3.45-1.08,4.17,4.17,0,0,1-2.14-4.49c.53-3,1-6.06,1.49-9.08s.77-6.53,1.75-9.54a12,12,0,0,1,3.26-5.37c2.93-2.53,7.85-1.14,10.45-4.35,1-1.26.6-2.9.78-4.4l8,0c-.58,1.25,0,4.52.9,5.6.72.85,3.19,1.6,5.36,2a4.42,4.42,0,0,1,3.58,4.18c.16,4.32-.1,10.94-3.07,12C129.65,27,111,19.69,111,19.69Z"/><path class="cls-1" d="M128.25,20.57a39.18,39.18,0,0,0-7.12-2.43,9.74,9.74,0,0,0-11.59,12l2.62,9.91,11.28,12.38,3.16-7.33a52.53,52.53,0,0,1,5.5-7.89C137.61,30.58,135.28,23.78,128.25,20.57Z"/><path class="cls-2" d="M123.44,53.44a1,1,0,0,1-.73-.33L111.43,40.73a1,1,0,0,1-.22-.41l-2.63-9.91a10.74,10.74,0,0,1,2.74-10.34,10.52,10.52,0,0,1,10.05-2.9,41.7,41.7,0,0,1,7.29,2.5c3.9,1.78,6.48,4.62,7.25,8s-.29,6.88-3,10.21a51.27,51.27,0,0,0-5.37,7.7l-3.14,7.28a1,1,0,0,1-.75.58ZM113.06,39.58l10.08,11.06,2.55-5.91a.42.42,0,0,1,0-.1,54.32,54.32,0,0,1,5.61-8c2.35-2.84,3.26-5.78,2.64-8.51s-2.81-5.1-6.14-6.61h0a38.06,38.06,0,0,0-6.94-2.38,8.51,8.51,0,0,0-8.16,2.36,8.76,8.76,0,0,0-2.24,8.44Z"/><path class="cls-2" d="M105.36,172.28a.92.92,0,0,1-.36-.07,1,1,0,0,1-.56-1.29c3.85-9.67,1.22-47.81,1.2-48.19a1,1,0,0,1,2-.14c.11,1.58,2.69,39-1.33,49.07A1,1,0,0,1,105.36,172.28Z"/><path class="cls-1" d="M123,43.62C116,112.94,88.57,171.9,86.14,177a8.36,8.36,0,0,0-.37,1c-1.28,4.24-5.22,4.08-6.54,3.89a6.58,6.58,0,0,0-1-.06c-1.27,0-4.42.06-6.51,0a5.42,5.42,0,0,1-2.76-.69,4.67,4.67,0,0,0-3.85-.08,11.05,11.05,0,0,1-3.86.68c-3.06,0-8.44-.06-11.9-.05a13.46,13.46,0,0,1-5.22-.95,8.94,8.94,0,0,0-6.8-.17,14.21,14.21,0,0,1-6.4.83c-7.84-.7-11.39-1.23-12.9-1.46a5.56,5.56,0,0,1-2.95-1.32c-3.85-3.48,1.93-8.24,1.93-8.61l2-2.19c17.1-19.1,37.45-40.84,52.39-61.69,13-18.22,30.06-39.42,33.14-62.15A83.3,83.3,0,0,0,104.33,21a3.25,3.25,0,0,1,3-3.72c4.78-.32,13.69-.23,22.21,3.6"/><path class="cls-2" d="M80.29,183a8.52,8.52,0,0,1-1.19-.08,5.37,5.37,0,0,0-.85-.06l-6.52.06a6.5,6.5,0,0,1-3.26-.83,3.78,3.78,0,0,0-3,0,13.06,13.06,0,0,1-4.2.74c-3,0-8.41-.07-11.89-.06H49.3a14.17,14.17,0,0,1-5.54-1,8,8,0,0,0-6.06-.15,15.3,15.3,0,0,1-6.85.89c-8-.72-11.61-1.26-13-1.47a6.5,6.5,0,0,1-3.46-1.56c-3.89-3.52.07-8,1.37-9.42.14-.15.25-.27.32-.36a.91.91,0,0,1,.16-.24l2-2.18c2.73-3.05,5.54-6.16,8.39-9.33,14.72-16.31,31.41-34.8,43.93-52.28l4.27-5.9C87,83,100.8,64,103.53,43.93a83.2,83.2,0,0,0-.18-22.83,4.24,4.24,0,0,1,3.89-4.87c4.71-.31,13.91-.25,22.69,3.7a1,1,0,0,1,.5,1.31,1,1,0,0,1-1.32.5c-8.38-3.77-17.21-3.83-21.73-3.52a2.21,2.21,0,0,0-1.59.82,2.25,2.25,0,0,0-.47,1.77,84.9,84.9,0,0,1,.18,23.39C102.71,64.77,88.75,84,76.44,100.91c-1.45,2-2.88,4-4.26,5.89-12.59,17.57-29.31,36.1-44.07,52.45q-4.29,4.75-8.39,9.33l-1.86,2.07a5.83,5.83,0,0,1-.57.71c-2,2.19-3.67,4.69-1.53,6.62a4.65,4.65,0,0,0,2.43,1.07c1.33.2,4.87.74,12.84,1.45a13.24,13.24,0,0,0,6-.77,9.91,9.91,0,0,1,7.54.18,11.84,11.84,0,0,0,4.82.87c3.48,0,9,0,11.92.06a10.4,10.4,0,0,0,3.52-.63,5.54,5.54,0,0,1,4.68.16,4.88,4.88,0,0,0,2.41.56c2.08,0,5.1,0,6.34-.06a7.86,7.86,0,0,1,1.15.08c1.61.22,4.45.1,5.45-3.2a7.07,7.07,0,0,1,.43-1.17c3-6.38,29.87-64.36,36.74-133.06a1,1,0,0,1,1.09-.89,1,1,0,0,1,.89,1.09C117.06,112.75,90.09,171,87,177.44a6.68,6.68,0,0,0-.32.88A6.26,6.26,0,0,1,80.29,183ZM16,170.09Zm0,0Z"/><path class="cls-2" d="M60.44,182.33a1,1,0,0,1-.62-.21,1,1,0,0,1-.16-1.4c47.83-60.11,56.48-136.54,56.56-137.31a1,1,0,1,1,2,.22c-.08.77-8.8,77.77-57,138.33A1,1,0,0,1,60.44,182.33Z"/><path class="cls-4" d="M134.42,60.67a5.56,5.56,0,0,1-.52,1.25c-.5.94-1.41,2.86-1.41,2.86l-2-4.08s.7-.85.58-1.19a5.51,5.51,0,0,0-1-1.38c-.48-.62-1-1.24-1.5-1.84-1-1.19-2.1-2.32-3.19-3.43-.86-.87-1.75-1.7-2.59-2.57a23.06,23.06,0,0,0-2.53-2.69l-.14-.12a31.2,31.2,0,0,1-2.35-3c-.16-.34-.44-.6-.63-.92-.52-.85-1.26-1.46-1.25-2.53a6.14,6.14,0,0,1,.5-2.1l1.38-3.75c1.42-3.84,1.89-7.95,3.24-11.81.45-1.3,1-2.54,1.45-3.85,1.14-3.58,4-11.23,9.21-7.74a6,6,0,0,1,2.43,4.55c.26,4.16-2.87,8.43-4.66,12-2,4-4,8.08-6,12.17a1.41,1.41,0,0,0-.17.55,1.35,1.35,0,0,0,.21.64c1.18,2.22,2.78,4.17,4.13,6.29l4.44,6.94a24.82,24.82,0,0,1,1.93,3.21A3.65,3.65,0,0,1,134.42,60.67Z"/><path class="cls-2" d="M46.23,182.33a1,1,0,0,1-.62-.22,1,1,0,0,1-.15-1.39c24.74-30.73,42.31-64.65,42.48-65a1,1,0,0,1,1.77.91C89.53,117,71.88,151.08,47,182A1,1,0,0,1,46.23,182.33Z"/></svg>