<svg id="图层_1" data-name="图层 1" xmlns="http://www.w3.org/2000/svg" viewBox="0 0 186 186"><defs><style>.cls-1{fill:#f9e6ed;}.cls-2{fill:#e4cbd4;}.cls-3{fill:#5b3b2f;}.cls-4{fill:#fff;}</style></defs><path class="cls-1" d="M87.48,159c1.26-9.14,3.28-14.38,4.59-21.14.5-1.42-2.39-4.48-3.33-5.62-9.79-5.79-18.47-11.1-25.56-18.7-12-12.79-17.3-12.72-17.3-12.72s5.63-5.52,6.61-7.86c5.2-4.67,9.69-13.75,15.27-19.26,2.3-2.27,3.56-3.18,8-4a5.83,5.83,0,0,0,3.63.23c15.42-2.64,30.28-3.35,46-3.24,3.92,0,5.74,22.54,3.9,25.67-3.36,5.71-1.13,12.06,2.14,17.22s6.94,11,11.55,15c1.6,1.41,5.57,7.72,6.4,7.29,1.12-.56-1.48-10.09-2.64-12.59-3.42-7.47-3.83-13.85-4-21.69-.27-13.62.4-27.14,1.27-41.79.46-7.68-2.26-10.08-8.14-10.26a32,32,0,0,1-5.86-.41,23.31,23.31,0,0,1-9.89-5.64c-3.4-3.12-3.28-6.65-4.2-11a24.22,24.22,0,0,1-.36-2.53l-19.35,0s1.12,3.56,1.65,5.62c.64,2.51,1.54,5.49,1.32,7.43-.19,1.59-.56,3.8-2.39,4.44a22.17,22.17,0,0,1-8.51,1.62c-3.35-.16-5-1.42-8.32-1.79,0,0-7.51-3.21-12.19,3.27a85.79,85.79,0,0,0-5.71,7C54.7,64.14,46.89,74.3,39,84.42c-3,4.18-6.39,8.06-9.3,12.3-3.42,5-5.22,7.07-1.17,11.63,2.42,2.64,6.43,5,9.19,7.23,5,3.7,11.31,8.64,16.72,11.79C69.26,136,73,136.46,82.77,140c2.54,3-2.24,6-2.07,8.69-1,3.46-.21,6.14,1.63,10.32Z"/><path class="cls-2" d="M111.86,55.83a2.37,2.37,0,0,1-.34-2.27,3.32,3.32,0,0,1,1.72-1.7,11.79,11.79,0,0,1,4.54-1.08,27,27,0,0,1,4.59.09,32.89,32.89,0,0,1,4.51.75c-1.53.07-3,0-4.54,0s-3,0-4.48.13l-1.11.08c-.37,0-.72.12-1.09.16a5.39,5.39,0,0,0-1.06.22,5.13,5.13,0,0,0-1,.32l-.49.2-.43.28a1.21,1.21,0,0,0-.38.33,1.14,1.14,0,0,0-.31.39A2.27,2.27,0,0,0,111.86,55.83Z"/><path class="cls-2" d="M108.69,55.83a2.26,2.26,0,0,0-.23-1.34,3.34,3.34,0,0,0-.94-1A10.47,10.47,0,0,0,105,52.3a41.87,41.87,0,0,0-5.47-1.44c-1.86-.41-3.73-.74-5.61-1.11a47.88,47.88,0,0,1-5.61-1.29c1.91.21,3.82.28,5.73.52s3.81.51,5.7.9a28.2,28.2,0,0,1,5.55,1.7,9.24,9.24,0,0,1,2.51,1.56,3.71,3.71,0,0,1,.87,1.24A2.07,2.07,0,0,1,108.69,55.83Z"/><path class="cls-2" d="M113.15,38.15a57.93,57.93,0,0,1,0,6.18c-.07,2,0,4,0,6.14a15.46,15.46,0,0,1-1-6.17A24.66,24.66,0,0,1,113.15,38.15Z"/><path class="cls-2" d="M133.55,60.31a20.07,20.07,0,0,0-1.58,4,33.51,33.51,0,0,0-.89,4.21l-.16,1.07-.11,1.07c-.11.71-.11,1.44-.2,2.16L130.49,75c0,.72,0,1.45-.11,2.19-.16-.72-.26-1.45-.38-2.18s-.15-1.47-.17-2.2a24.46,24.46,0,0,1,.26-4.44,20.59,20.59,0,0,1,1.14-4.31A11.65,11.65,0,0,1,133.55,60.31Z"/><path class="cls-3" d="M115.7,26.06c.69,3.26,1.45,6.49,2.4,9.65.48,1.59,1.12,3.11,1.57,4.68s.93,3.14,1.35,4.79a.08.08,0,0,1-.06.09.06.06,0,0,1-.07,0,15.27,15.27,0,0,1-2.61-4.36A26.89,26.89,0,0,1,117,36a72.81,72.81,0,0,1-1.41-9.93.08.08,0,0,1,.07-.08A.08.08,0,0,1,115.7,26.06Z"/><path class="cls-3" d="M82.25,159a12,12,0,0,1-2.35-9.7,14.61,14.61,0,0,1,.7-2.51,21.25,21.25,0,0,1,1.15-2.29,7,7,0,0,0,.82-2.12,2.68,2.68,0,0,0-.27-1.89,3.75,3.75,0,0,0-1.69-1.13,18.61,18.61,0,0,0-2.29-.72,19.65,19.65,0,0,1-2.46-.74l-2.35-.9c-3.13-1.21-6.2-2.57-9.23-4a151.53,151.53,0,0,1-17.51-9.89c-2.79-1.86-5.5-3.82-8.21-5.76a83,83,0,0,1-8-6.16,19.65,19.65,0,0,1-3.3-4,7.59,7.59,0,0,1-1.07-2.52,7,7,0,0,1,0-2.77,13,13,0,0,1,2.25-4.71c1-1.39,2.05-2.67,3.05-4l12.2-15.84L68.15,45.66a.1.1,0,0,1,.14,0,.09.09,0,0,1,0,.13l-24,32-12,16c-1,1.33-2,2.65-2.9,4a12,12,0,0,0-1.86,4.33,5.62,5.62,0,0,0,1,4.22A17.94,17.94,0,0,0,31.7,110a80.09,80.09,0,0,0,8,5.79c2.74,1.91,5.44,3.85,8.21,5.66a168.72,168.72,0,0,0,17.17,10c3,1.48,6,2.87,9,4.13.77.32,1.54.62,2.31.92a17.34,17.34,0,0,0,2.31.73,22.78,22.78,0,0,1,2.46.81,5,5,0,0,1,2.34,1.72,4.1,4.1,0,0,1,.44,2.93,8.29,8.29,0,0,1-1,2.52,23.89,23.89,0,0,0-1.14,2.15,13.72,13.72,0,0,0-.81,2.25,12.55,12.55,0,0,0-.31,4.77,11.74,11.74,0,0,0,1.7,4.57.1.1,0,0,1,0,.14A.11.11,0,0,1,82.25,159Z"/><path class="cls-3" d="M77.27,70.64a8,8,0,0,0-5,.88,16.28,16.28,0,0,0-4,3.09,92.3,92.3,0,0,0-7,8c-4.49,5.6-8.88,11.33-13.71,16.68a.1.1,0,0,1-.14,0,.11.11,0,0,1,0-.14c2.22-2.82,4.32-5.74,6.39-8.68l6.27-8.78q1.59-2.19,3.22-4.37a28.85,28.85,0,0,1,3.58-4.2,13.71,13.71,0,0,1,4.84-3,8,8,0,0,1,2.87-.41,7,7,0,0,1,2.72.75.1.1,0,0,1,0,.14A.12.12,0,0,1,77.27,70.64Z"/><path class="cls-3" d="M40.88,101.17a13.66,13.66,0,0,1,8.43.32,24.26,24.26,0,0,1,7.29,4.45c2.18,1.83,4.16,3.87,6.17,5.8s4.11,3.81,6.27,5.58,4.38,3.46,6.65,5.08l3.43,2.39c1.13.8,2.32,1.48,3.51,2.24a32,32,0,0,1,6.84,5.24A10.75,10.75,0,0,1,91.81,136a7.59,7.59,0,0,1,.19,4.32.1.1,0,0,1-.12.07.1.1,0,0,1-.07-.1,8.6,8.6,0,0,0-3.26-7.1,41,41,0,0,0-6.89-4.52A74.65,74.65,0,0,1,68,118.57c-2.1-1.9-4.16-3.84-6.13-5.87s-3.84-4.12-5.91-6a24.16,24.16,0,0,0-6.84-4.65,13.22,13.22,0,0,0-8.15-.71.1.1,0,0,1-.12-.07A.11.11,0,0,1,40.88,101.17Z"/><path class="cls-3" d="M117.71,35.7a19.12,19.12,0,0,0,10.67,8.49,16.13,16.13,0,0,0,6.72.62,9.31,9.31,0,0,1,3.89.38,7.58,7.58,0,0,1,3.36,2.11,8.58,8.58,0,0,1,1.87,3.4,14.35,14.35,0,0,1,.55,3.7,35.94,35.94,0,0,1-.16,3.63l-.23,3.58c-.28,4.76-.43,9.53-.48,14.31-.06,9.54-.3,19.07.09,28.55a53.46,53.46,0,0,0,.53,7,24.87,24.87,0,0,0,2,6.59,61,61,0,0,1,2.76,6.67,11.3,11.3,0,0,1,.59,3.65,28.31,28.31,0,0,1-.38,3.6.1.1,0,0,1-.11.08.09.09,0,0,1-.08-.09c0-1.2,0-2.4-.14-3.55a11.72,11.72,0,0,0-.92-3.32c-.9-2.15-2.1-4.18-3.19-6.34a24.69,24.69,0,0,1-2.49-6.94,50.08,50.08,0,0,1-.7-7.26,236.44,236.44,0,0,1,1-28.68c.39-4.76.74-9.52.84-14.29,0-1.19.06-2.38,0-3.58a33.92,33.92,0,0,0-.12-3.52,9.72,9.72,0,0,0-2.49-6,7.42,7.42,0,0,0-5.87-1.92,16.22,16.22,0,0,1-3.75,0,18,18,0,0,1-3.63-.89,17.78,17.78,0,0,1-10.37-9.84.09.09,0,0,1,0-.12A.11.11,0,0,1,117.71,35.7Z"/><path class="cls-3" d="M96.36,26.08a51.16,51.16,0,0,1,2.06,6.54c.51,2.21,1.29,4.39,1.28,6.82a5.66,5.66,0,0,1-1.18,3.5,7.38,7.38,0,0,1-.68.69c-.26.18-.52.38-.78.54l-.79.42-.82.37a18.06,18.06,0,0,1-7,1.25,21.89,21.89,0,0,1-7-1.21,17.72,17.72,0,0,0-6.23-1.39,7.53,7.53,0,0,0-3,.61,13.67,13.67,0,0,0-2.69,1.71c-1.7,1.41-3.31,3-5,4.6a.1.1,0,0,1-.14,0,.12.12,0,0,1,0-.13,40.71,40.71,0,0,1,4.22-5.49,12.23,12.23,0,0,1,2.86-2.24,8.86,8.86,0,0,1,3.63-1,13.55,13.55,0,0,1,3.67.37c.58.17,1.15.34,1.71.53l1.64.64a19,19,0,0,0,6.35,1.44A16.58,16.58,0,0,0,95,43.77l.75-.3.73-.36c.23-.12.43-.27.65-.4a6.39,6.39,0,0,0,.54-.5,4.65,4.65,0,0,0,1.06-2.82c.14-2.16-.49-4.4-.88-6.64a50.72,50.72,0,0,0-1.66-6.61.09.09,0,0,1,.18-.06Z"/><path class="cls-4" d="M88.43,159.8c-.21-6.7,2.68-14,2.47-13.81a57.26,57.26,0,0,0,1-18.69l36.76-26.4,5.35,12,5.18,7.64c4.27,4.86,9.56,8.82,13.26,14.2s6.6,13.28,6.53,20"/><path class="cls-4" d="M87.37,159c0-6.71,2.92-12.92,3.66-19.53.77-7,.11-15-2.84-21.47-3-6.68-7.64-12.55-10.49-19.34a128.76,128.76,0,0,1-7.18-22.86.45.45,0,0,0-.69-.29c-7.8,5.23-19.67,23.7-20.67,25.21a.16.16,0,0,1-.18.06c-9-2.71-18.93-.69-20.84-.1a.16.16,0,0,1-.2-.21c4.82-13,31.05-45.06,35.62-50.84,2.77-3.5,6.53-6.56,11.16-6.92,4.12-.32,8.43.21,12.58.21h7.48c.88,0,1.41,1.38,1.79,2,2.8,4.47,9.15,5.28,14,4.68a17.45,17.45,0,0,0,12-6.81,2,2,0,0,1,2.49-.64,28.72,28.72,0,0,0,6.38,2.22c4.38.95,7.38.11,10.87,3.41A19.41,19.41,0,0,1,148,60.94c.15-.15,0,14.68,0,14.68l-2.78,30.63-14.88-.36"/><path class="cls-3" d="M87.37,160a1,1,0,0,1-1-1,45.57,45.57,0,0,1,1.93-11.42,58.85,58.85,0,0,0,1.73-8.22c.85-7.71-.13-15.15-2.76-20.95a89.18,89.18,0,0,0-4.94-9A82.17,82.17,0,0,1,76.8,99.06,129.71,129.71,0,0,1,69.73,76.8c-4.61,3.45-11.65,12.14-19.49,24.08l-.26.4a1.14,1.14,0,0,1-1.28.46c-8.64-2.6-18.19-.74-20.27-.1A1.14,1.14,0,0,1,27,100.15c4.43-12,26.68-39.75,34-48.87.76-1,1.36-1.7,1.78-2.24,3.52-4.44,7.62-7,11.85-7.29a60.93,60.93,0,0,1,7.88,0c1.58.08,3.21.16,4.78.16h7.48c1.3,0,2,1.29,2.41,2.07l.21.37c2.51,4,8.37,4.82,13,4.24a16.5,16.5,0,0,0,11.38-6.41,3,3,0,0,1,3.71-1,27,27,0,0,0,6.16,2.14,27.93,27.93,0,0,0,3.36.5c2.7.3,5.25.58,8,3.16a20.43,20.43,0,0,1,5.92,13.82h-.06c.2,1.28.17,4.73.07,14.74l-2.79,30.7a1,1,0,0,1-1,.9l-14.89-.35a1,1,0,0,1-1-1,1,1,0,0,1,1-1l14,.33L147,75.53c.05-5,.1-13.28,0-14.35a.52.52,0,0,1,0-.18,18.47,18.47,0,0,0-5.31-12.5c-2.26-2.13-4.18-2.34-6.84-2.63a35.21,35.21,0,0,1-3.57-.53,29.41,29.41,0,0,1-6.6-2.3,1,1,0,0,0-1.26.34,18.48,18.48,0,0,1-12.73,7.21c-5.25.65-11.93-.36-14.92-5.14-.09-.14-.18-.31-.28-.49s-.51-1-.72-1H87.3c-1.61,0-3.27-.08-4.87-.16a60.79,60.79,0,0,0-7.63,0c-4.65.36-8.26,3.76-10.47,6.55-.42.54-1,1.3-1.79,2.24-7,8.71-27.62,34.49-33.08,46.86,3.68-.76,11.71-1.76,19.21.33,4.93-7.5,14.09-20.6,20.61-25a1.46,1.46,0,0,1,1.33-.14,1.43,1.43,0,0,1,.87,1.05A129.14,129.14,0,0,0,78.61,98.3,79.27,79.27,0,0,0,84,108.42a92.51,92.51,0,0,1,5,9.2c2.78,6.12,3.81,13.92,2.92,22a61,61,0,0,1-1.77,8.5A42.53,42.53,0,0,0,88.36,159a1,1,0,0,1-1,1ZM27.85,99.76ZM69.56,76Z"/><path class="cls-3" d="M159,155.59h0a1,1,0,0,1-1-1c.06-6.07-2.47-13.68-6.46-19.38a60,60,0,0,0-8-8.67c-1.83-1.73-3.71-3.53-5.42-5.44-6.64-7.44-14.62-22.73-7.76-32.13,2.51-3.46,3-7.85,1.36-13.06a1,1,0,0,1,1.88-.58c1.78,5.75,1.21,10.87-1.66,14.79-5.84,8,1,22.18,7.65,29.67,1.65,1.85,3.51,3.62,5.3,5.33a61.08,61.08,0,0,1,8.23,9c4.2,6,6.87,14.08,6.8,20.53A1,1,0,0,1,159,155.59Z"/></svg>