<svg id="图层_1" data-name="图层 1" xmlns="http://www.w3.org/2000/svg" viewBox="0 0 186 186"><defs><style>.cls-1{fill:#fff;}.cls-2{fill:#f3e2e8;}.cls-3{fill:#e1c8d1;}.cls-4{fill:#5b3b2f;}</style></defs><path class="cls-1" d="M152.41,103.14q-1.5-5.4-3-10.84c-2.07-7.33-4.1-14.68-5.73-22.11s-3.69-23.29-15.36-21.83a37.76,37.76,0,0,1-9.2.14l-1.67-1.24c-.08.31-.18.61-.26.92l-.76-.19-1,5.92a70.47,70.47,0,0,1-3.15,7.89c-2.43,5.12-5.92,9.91-10.93,12.72C87.39,82.27,70.65,71.29,66.89,57.1a67.84,67.84,0,0,1-1.23-7.37,1.38,1.38,0,0,0-1.52-1.17A32.39,32.39,0,0,1,56,48.37C45.13,46.91,43.15,62.76,41.64,70.2S38.23,85,36.31,92.31c-1,3.62-1.92,7.23-2.86,10.84-.82,3.15-2.33,6.83-1.67,10.1.49,2.47,2.1,4.49,3.2,6.7,3.08,6.16,4.93,12.09,11.23,15.88,5.63,3.41,12.28,4.63,18.62,6l46.8-65-11,66.39,18.19-1.41c6.79-1.41,13.91-2.63,20-6,6.74-3.79,8.74-9.72,12-15.88,1.18-2.21,2.95-4.23,3.43-6.7C154.91,110,153.29,106.29,152.41,103.14Z"/><path class="cls-2" d="M82.15,26.87h17.9c.58,0,1.56,3,1.58,3.47.39,7.61,3.94,10.85,11.13,15.35a20.49,20.49,0,0,0,7.74,3c2.78.43,5.48-.84,8.31-.25,7.13,1.48,13.89,8.74,13,15.71l-1.57,9c-4.94,28.49-18.74,49.39-18.74,77.59l-60.15-.68c1-7.89-1.47-20.06-3-26.52-1.64-7.15-3.55-11.39-6-18.3-2.27-6.47-1.88-7.24-5.63-19.79-1-3.42-1.42-3.94-1.9-7.43s-.85-10.3-1-13.75c-.15-4.09.34-8.29,2.58-11.83a9.37,9.37,0,0,1,8.78-4.15c3.54.17,6.3,1.07,9.79-.26,2.81-1.07,4.56-2.58,7.09-4C76.38,41.65,81,38.4,82,34.22c.16-.73-.28-7.4.66-7.4H99.9"/><path class="cls-3" d="M102.29,58.3a9.12,9.12,0,0,1,6.2-3.59,17.28,17.28,0,0,1,7.36.51c2.39.74,4.52,2,6.77,2.65a6.14,6.14,0,0,0,3.29.21,4.49,4.49,0,0,0,2.45-1.87h0a.74.74,0,0,1,1-.18.76.76,0,0,1,.19,1h0a5.87,5.87,0,0,1-3.37,2.26,7.36,7.36,0,0,1-3.94-.4c-2.39-.84-4.44-2.21-6.67-3a17,17,0,0,0-7.07-.85A9,9,0,0,0,102.29,58.3Z"/><path class="cls-3" d="M80.25,58.83a15.1,15.1,0,0,0-13.91-3c-2.34.72-4.46,2.09-6.85,3a10.2,10.2,0,0,1-3.78.76A5.69,5.69,0,0,1,52,58.16h0a.5.5,0,0,1,0-.7.49.49,0,0,1,.7,0h0a4.8,4.8,0,0,0,3.09,1.3,9.73,9.73,0,0,0,3.5-.6c2.32-.76,4.49-2.07,7-2.75A15.34,15.34,0,0,1,80.25,58.83Z"/><path class="cls-3" d="M92.47,58.3a2.69,2.69,0,0,1-.4,1.61,2.66,2.66,0,0,1-1.34,1.18,2.82,2.82,0,0,1-1.77,0,4.09,4.09,0,0,1-.77-.34,4,4,0,0,1-.63-.53,7,7,0,0,1,.79.07,3.66,3.66,0,0,0,.74,0,3.56,3.56,0,0,0,1.29-.21A5.22,5.22,0,0,0,92.47,58.3Z"/><path class="cls-3" d="M86.08,41.11,86.63,46c.09.82.21,1.64.35,2.46a13.43,13.43,0,0,0,.58,2.41,7.93,7.93,0,0,1-1-2.34,17.32,17.32,0,0,1-.46-2.47C86,45.28,86,44.46,86,43.63A17.7,17.7,0,0,1,86.08,41.11Z"/><path class="cls-3" d="M95.9,39.15a42.53,42.53,0,0,1-1,5.47c-.23.91-.48,1.81-.78,2.7a14.49,14.49,0,0,1-1.1,2.6c.3-.9.5-1.8.73-2.71l.68-2.71C94.86,42.74,95.31,40.93,95.9,39.15Z"/><path class="cls-4" d="M44,70.88A137,137,0,0,0,49.1,90.82c2.14,6.53,4.58,13,6.79,19.5a122.26,122.26,0,0,1,5.2,20.09,89.93,89.93,0,0,1,1,10.35c.06,1.74.05,3.48,0,5.2a28.91,28.91,0,0,1-.74,5.16,50.56,50.56,0,0,0-.18-10.29c-.36-3.41-.88-6.8-1.52-10.16A159,159,0,0,0,54,110.94l-3.35-9.77c-1.06-3.3-2.14-6.55-3.07-9.89A90.59,90.59,0,0,1,44,70.88Z"/><path class="cls-4" d="M140.79,67.15c0,1.81-.07,3.62-.18,5.44s-.4,3.6-.67,5.4-.67,3.57-1.07,5.34-.88,3.51-1.42,5.25l-1.77,5.14c-.63,1.69-1.25,3.38-1.83,5.1-1.18,3.41-2.18,6.9-3.15,10.35-.47,1.74-.92,3.49-1.43,5.22s-1,3.47-1.46,5.18l-1.39,5.21L125.11,130a135.1,135.1,0,0,0-3.73,21.13h-.2a71.38,71.38,0,0,1,1.88-21.65c.45-1.75.87-3.52,1.38-5.26L126,119c1.1-3.44,2.33-6.84,3.63-10.2s2.54-6.77,3.57-10.22,1.8-7,2.64-10.47c.4-1.76.81-3.49,1.3-5.23s.81-3.48,1.26-5.22.72-3.51,1.13-5.26.64-3.53,1-5.31Z"/><path class="cls-4" d="M82.85,26.77c4.19-.48,8.4-.66,12.6-.75,1,0,2.1-.05,3.15,0h2.18a1,1,0,0,1,.81.43A2.59,2.59,0,0,1,102,27.5a18.38,18.38,0,0,1,.25,3.31,12.76,12.76,0,0,0,.29,3,11.53,11.53,0,0,0,2.8,5.38A21.23,21.23,0,0,0,110.16,43c.89.54,1.78,1.08,2.7,1.59s1.81,1,2.74,1.43a20.29,20.29,0,0,0,5.74,1.75l-.27,1.81a18.31,18.31,0,0,1-6.15-2.26,27.51,27.51,0,0,1-2.68-1.75c-.86-.61-1.73-1.21-2.57-1.84a32,32,0,0,1-4.78-4.22A15.42,15.42,0,0,1,101.62,34a14.47,14.47,0,0,1-.66-3.19,26.9,26.9,0,0,0-.56-2.95,2.74,2.74,0,0,0-.15-.4s.1.19.48.22h-5.3c-4.19-.09-8.39-.27-12.58-.75Z"/><path class="cls-4" d="M100.6,27c-3.42.34-6.84.55-10.25.66-1.72.06-3.42.1-5.13.11H83.49c.34-.12.29-.19.29-.16a1.09,1.09,0,0,0-.08.15A15.88,15.88,0,0,0,83,30l-.56,2.47c-.2.84-.32,1.63-.56,2.55a11.06,11.06,0,0,1-2.76,4.52,27.31,27.31,0,0,1-4,3.33c-1.42,1-2.73,2-4.1,3.11a22.09,22.09,0,0,1-4.48,2.79,12.15,12.15,0,0,1-5.38,1.06c-1.81,0-3.49-.3-5.13-.39a10.76,10.76,0,0,0-4.56.67c-2.84,1.15-4.79,3.95-5.82,7.09a24,24,0,0,0-1.16,4.86,37.64,37.64,0,0,0-.38,5.08H44a26.44,26.44,0,0,1,.35-10.37,15.1,15.1,0,0,1,2.16-4.93,10.15,10.15,0,0,1,4.24-3.6,11.55,11.55,0,0,1,5.48-.92c1.77.08,3.47.4,5.08.49a10.57,10.57,0,0,0,4.62-.73,41.16,41.16,0,0,0,4.49-2.16c3-1.69,6-3.32,8.28-5.83a8.82,8.82,0,0,0,2.08-4.32c.21-1.6.32-3.39.62-5.09A12.14,12.14,0,0,1,82.1,27c.07-.14.15-.28.23-.42a1.38,1.38,0,0,1,.76-.56h2.13c1.71,0,3.41,0,5.13.11,3.41.11,6.83.32,10.25.66Z"/><path class="cls-1" d="M148.39,91.63c-2.91-10.85-3.94-23.23-7.7-33.82-2.17-6.1-8.71-10.14-15.12-10a85,85,0,0,0-8.87.82l.38,1.75-7.89,16.76-4.64,5.54A29.74,29.74,0,0,1,82.8,76.45L79.52,73.7l-9.18-8.79-5.27-15.6a14.37,14.37,0,0,0-6.41-1.5,13.28,13.28,0,0,0-13.5,9.29c-3.78,10.59-4.79,23-7.7,33.87-.37,1.38-6.4,19.72-6.23,20.09,3.36,7.43,12.23-1.87,13.41-5.2a4.43,4.43,0,0,1,3.55-3.13c7.27-.79,8.56-3.86,9.31-7.68L85.11,118l43.28-20.22c1.88,2.51,5.61,4.42,11,5a5.62,5.62,0,0,1,3.68,2.05c2.42,2.87,6.91,9,11,7.42C154.43,112.06,148.75,93,148.39,91.63Z"/><path class="cls-4" d="M34.29,114.21a10.75,10.75,0,0,1-2.78-.37,1,1,0,1,1,.51-1.92c6.78,1.79,10.75-4.91,12.66-8.13.82-1.38,1.21-2,2-1.88,4.7.42,8-2,9.86-7.24a1,1,0,1,1,1.88.66c-2.1,6-6.06,8.93-11.51,8.58-.15.23-.35.58-.54.89C44.64,107.76,40.81,114.21,34.29,114.21Zm12-10.36Z"/><path class="cls-4" d="M153.47,114a.93.93,0,0,1-.29,0c-5.19-1.6-9.18-6.22-10.28-7.59a5.5,5.5,0,0,0-3.7-2A15.38,15.38,0,0,1,126.34,95a1,1,0,0,1,.53-1.3,1,1,0,0,1,1.3.53,13.42,13.42,0,0,0,11.22,8.14,7.51,7.51,0,0,1,5.06,2.75c1,1.27,4.66,5.52,9.31,7a1,1,0,0,1,.66,1.24A1,1,0,0,1,153.47,114Z"/><path class="cls-1" d="M57.5,95c0,3.57-.51,6.9.91,10.33s3.62,6.28,5.53,9.34A25,25,0,0,1,67.58,124c1,6.06-.55,12.19-2.75,17.82-1.08,2.73-2.34,5.36-3.66,8-.37.73-3.27,6.36-4.33,8.42a.51.51,0,0,0,.22.69.5.5,0,0,0,.24.06H92.37c10.11,0,30.92,0,35.76-.06a.52.52,0,0,0,.5-.54.47.47,0,0,0-.09-.28c-2.34-3.2-10.72-15-12.44-21.69a38.88,38.88,0,0,1-1.2-7.26c-.52-7.71,3.29-13.22,7.09-19.57,1.07-1.81,2.12-3.64,3.13-5.48a16.15,16.15,0,0,0,1.82-5.57,20.57,20.57,0,0,0,.14-3.68"/><path class="cls-4" d="M57.28,160a1.48,1.48,0,0,1-.67-.17,1.5,1.5,0,0,1-.65-2c.44-.87,1.23-2.39,2-3.9,1.05-2.05,2.1-4.09,2.31-4.51,1.08-2.14,2.47-5,3.62-7.89,2.66-6.8,3.51-12.29,2.7-17.3a23.79,23.79,0,0,0-3.49-9c-.53-.84-1.06-1.64-1.6-2.45a41.65,41.65,0,0,1-4-7.05c-1.2-2.9-1.11-5.75-1-8.5,0-.73,0-1.46,0-2.21a1,1,0,0,1,2,0c0,.77,0,1.52,0,2.27-.08,2.66-.16,5.18.88,7.68a39,39,0,0,0,3.84,6.71c.54.82,1.09,1.65,1.61,2.49a25.64,25.64,0,0,1,3.78,9.73c.87,5.37,0,11.2-2.81,18.34-1.18,3-2.6,5.89-3.69,8.06-.21.42-1.27,2.47-2.33,4.53L58.08,158H92.37c8.48,0,24.51,0,32.29,0h2.53c-3-4.13-10.4-14.84-12.06-21.28a39.73,39.73,0,0,1-1.22-7.43c-.5-7.39,2.8-12.83,6.29-18.58l.94-1.57c1.06-1.8,2.11-3.63,3.11-5.45A15.2,15.2,0,0,0,126,98.43a20.42,20.42,0,0,0,.13-3.5,1,1,0,0,1,2-.1,21.53,21.53,0,0,1-.14,3.85,17.46,17.46,0,0,1-1.94,5.93c-1,1.83-2.07,3.69-3.14,5.51l-1,1.58c-3.46,5.71-6.46,10.65-6,17.41a39.36,39.36,0,0,0,1.16,7.07c1.73,6.7,10.54,19,12.29,21.36a1.48,1.48,0,0,1,.28.84,1.52,1.52,0,0,1-1.46,1.56h-3.49c-7.79,0-23.82.05-32.3.05H57.28Zm.45-1.29h0Zm-.43-.7h0Z"/><path class="cls-4" d="M122.53,142.11l-.4-1.94c5.73-1.19,11.28-2.48,16.12-5.2,5.35-3,7.53-7.36,10.06-12.39.51-1,1-2.06,1.59-3.1.38-.71.82-1.4,1.23-2.07a14,14,0,0,0,2.11-4.36c.5-2.35-.35-5-1.16-7.59-.22-.69-.44-1.38-.62-2Q149.95,98,148.4,92.58c-1.88-6.64-4-14.37-5.74-22.17-.15-.67-.3-1.42-.47-2.22-1.63-8-4.1-20-13.79-18.84-6.52.82-10.5.11-12.29-.39l.54-1.91c1.32.37,5.09,1.14,11.5.33,11.54-1.45,14.32,12.24,16,20.42.16.78.31,1.52.46,2.19,1.7,7.74,3.84,15.44,5.71,22.05q1.55,5.43,3.06,10.85c.18.64.39,1.3.6,2,.85,2.7,1.82,5.75,1.21,8.6a15.81,15.81,0,0,1-2.36,5c-.42.66-.82,1.3-1.17,2-.55,1-1.06,2-1.56,3-2.57,5.1-5,9.92-10.87,13.23C134.14,139.56,128.42,140.89,122.53,142.11Z"/><path class="cls-4" d="M61.43,142.13c-5.59-1.24-11-2.59-15.73-5.46-5.49-3.31-7.75-8.13-10.14-13.23-.48-1-1-2-1.47-3.06-.33-.66-.7-1.3-1.1-2a16.06,16.06,0,0,1-2.18-5c-.57-2.8.32-5.81,1.1-8.46.2-.7.41-1.4.58-2.07.66-2.41,1.28-4.81,1.91-7.21.31-1.21.63-2.43,1-3.65,1.94-7.39,3.81-14.65,5.32-22.05.14-.65.27-1.37.42-2.14,1.56-8.2,4.15-21.93,15-20.48a31.52,31.52,0,0,0,7.94.2,2.36,2.36,0,0,1,2.6,2.08A68.14,68.14,0,0,0,67.86,57,27.32,27.32,0,0,0,83.1,74.39a19.83,19.83,0,0,0,17.74-.66c4.23-2.36,7.77-6.49,10.51-12.28A84.64,84.64,0,0,0,116.43,47l1.93.49a87.35,87.35,0,0,1-5.21,14.78c-2.93,6.18-6.75,10.61-11.34,13.17a21.77,21.77,0,0,1-19.48.76,29,29,0,0,1-16.4-18.78,70.23,70.23,0,0,1-1.26-7.52.39.39,0,0,0-.42-.38,33.49,33.49,0,0,1-8.43-.2C46.88,48.14,44.56,60.23,43,68.22c-.15.78-.29,1.51-.42,2.17-1.52,7.45-3.4,14.73-5.35,22.16-.32,1.22-.64,2.43-1,3.64-.63,2.41-1.26,4.81-1.91,7.22-.18.68-.39,1.39-.6,2.12-.75,2.55-1.52,5.18-1.05,7.52a14.26,14.26,0,0,0,2,4.35c.39.68.8,1.38,1.16,2.1.52,1,1,2.07,1.48,3.09,2.36,5,4.41,9.38,9.37,12.38,4.48,2.71,9.72,4,15.14,5.22Z"/></svg>