<svg id="图层_1" data-name="图层 1" xmlns="http://www.w3.org/2000/svg" viewBox="0 0 186 186"><defs><style>.cls-1{fill:#f5e3ea;}.cls-2{fill:#e4cbd4;}.cls-3{fill:#5b3b2f;}.cls-4{fill:#fff;}</style></defs><path class="cls-1" d="M82.28,26.85h18c.59,0,1.57,3,1.59,3.49.39,7.65,4,10.85,11.18,15.42a20.47,20.47,0,0,0,7.78,3.05c2.79.43,5.5-.84,8.34-.25,7.17,1.49,14,8.79,13.06,15.79l-1.63,9.07c-4.9,28.44-18.58,49.36-18.74,77.43a.53.53,0,0,1-.52.52L62,150.73a.51.51,0,0,1-.51-.57c.81-7.9-1.57-19.74-3-26.08-1.64-7.18-3.56-11.44-6-18.38-2.28-6.5-1.9-7.27-5.66-19.88-1-3.43-1.43-3.91-1.92-7.47S44,68,43.88,64.54c-.17-4.11.33-8.33,2.58-11.92,1.94-3.09,5.27-4.35,8.82-4.17s6.33,1.07,9.84-.26c2.82-1.07,4.58-2.59,7.13-4,4.28-2.43,9-5.71,9.87-9.87.16-.73-.29-7.43.65-7.43h17.34"/><path class="cls-2" d="M56.52,72.62a5.67,5.67,0,0,1,3.16,3.21,12.66,12.66,0,0,1,.9,4.5,33.23,33.23,0,0,1-1.16,9,41.39,41.39,0,0,0-1.77,8.76,11.66,11.66,0,0,0,2.54,8.27,14.19,14.19,0,0,0,7.34,4.53,20.6,20.6,0,0,0,8.7.41,15.73,15.73,0,0,0,7.87-3.49,12.11,12.11,0,0,0,3.84-7.72H88a11.73,11.73,0,0,1-3.41,8.28,15.75,15.75,0,0,1-8.22,4,20.27,20.27,0,0,1-9.13-.55,14,14,0,0,1-7.51-5.09,13.51,13.51,0,0,1-2.46-8.62,48.83,48.83,0,0,1,1.32-8.94,43.21,43.21,0,0,0,1.19-8.8A13.07,13.07,0,0,0,59.2,76a5.71,5.71,0,0,0-2.72-3.31Z"/><path class="cls-2" d="M127.37,72.7a12,12,0,0,0-2.71,8.21,48,48,0,0,0,1.64,8.76,35.83,35.83,0,0,1,1.18,9,14.56,14.56,0,0,1-3.17,8.43,14.8,14.8,0,0,1-7.73,4.8,21.62,21.62,0,0,1-9.16.42,16.48,16.48,0,0,1-8.26-4,10.27,10.27,0,0,1-2.61-3.8A9.67,9.67,0,0,1,96,100h.1a9.84,9.84,0,0,0,.92,4.3,10.17,10.17,0,0,0,2.67,3.43,16.47,16.47,0,0,0,7.92,3.49,22.23,22.23,0,0,0,8.75-.28,15,15,0,0,0,7.55-4.26,11.36,11.36,0,0,0,2.34-3.74,12.65,12.65,0,0,0,.9-4.34c0-3-.84-5.89-1.64-8.78a36.22,36.22,0,0,1-1.6-9c0-.39,0-.77.06-1.16a6.25,6.25,0,0,1,.15-1.14l.24-1.14c.1-.37.27-.72.4-1.08a8.8,8.8,0,0,1,1.08-2,17.43,17.43,0,0,1,1.47-1.73Z"/><path class="cls-2" d="M102.51,58.43a9.22,9.22,0,0,1,6.24-3.61,17.24,17.24,0,0,1,7.38.52c2.41.74,4.55,2,6.81,2.67a6.25,6.25,0,0,0,3.3.2,4.45,4.45,0,0,0,2.47-1.88h0a.74.74,0,0,1,1.21.85l0,0a5.84,5.84,0,0,1-3.38,2.27,7.17,7.17,0,0,1-3.92-.41c-2.4-.84-4.46-2.21-6.7-3a16.8,16.8,0,0,0-7.11-.85A9,9,0,0,0,102.51,58.43Z"/><path class="cls-2" d="M80.37,59a15.12,15.12,0,0,0-13.94-2.89c-2.32.74-4.44,2.13-6.85,3a10.8,10.8,0,0,1-3.88.81,5.92,5.92,0,0,1-3.87-1.47h0a.74.74,0,0,1-.06-1,.73.73,0,0,1,1-.06l0,0a4.55,4.55,0,0,0,2.93,1.28,9.38,9.38,0,0,0,3.46-.57c2.32-.73,4.51-2,7-2.7A15.5,15.5,0,0,1,80.37,59Z"/><path class="cls-2" d="M92.64,58.43a2.85,2.85,0,0,1-1.74,2.8,2.79,2.79,0,0,1-1.78.05,3.83,3.83,0,0,1-.77-.34,4.81,4.81,0,0,1-.64-.54c.29,0,.54.05.8.08s.5.05.74,0a3.36,3.36,0,0,0,1.29-.21A5.17,5.17,0,0,0,92.64,58.43Z"/><path class="cls-2" d="M86.23,41.16l.55,5c.09.83.21,1.65.34,2.47a15.93,15.93,0,0,0,.59,2.43,8.14,8.14,0,0,1-1-2.35,17.86,17.86,0,0,1-.46-2.49,23.7,23.7,0,0,1-.16-2.53A19.31,19.31,0,0,1,86.23,41.16Z"/><path class="cls-2" d="M96.09,39.19A43.68,43.68,0,0,1,95,44.73c-.24.9-.48,1.81-.79,2.7A13,13,0,0,1,93.13,50c.3-.89.51-1.8.74-2.71l.68-2.73C95,42.79,95.5,41,96.09,39.19Z"/><path class="cls-3" d="M43.91,71.06a137,137,0,0,0,5.16,20c2.15,6.56,4.61,13,6.83,19.6a122.47,122.47,0,0,1,5.21,20.22,88.56,88.56,0,0,1,1,10.4c.06,1.74.05,3.49,0,5.22a28.9,28.9,0,0,1-.65,5.17,49.53,49.53,0,0,0-.17-10.33c-.35-3.43-.88-6.84-1.52-10.21A159.32,159.32,0,0,0,54,111.33l-3.37-9.82c-1.09-3.29-2.17-6.59-3.11-9.94A91.21,91.21,0,0,1,43.91,71.06Z"/><path class="cls-3" d="M141.19,67.32c0,1.81-.07,3.64-.18,5.46s-.41,3.63-.68,5.43-.67,3.59-1.07,5.37-.89,3.53-1.42,5.27L136.06,94c-.64,1.7-1.26,3.41-1.84,5.12-1.18,3.43-2.19,6.91-3.16,10.4-.49,1.75-.93,3.51-1.45,5.24s-1,3.49-1.46,5.22l-1.4,5.23-1.32,5.23a136.88,136.88,0,0,0-3.74,21.26h-.2a71.4,71.4,0,0,1,1.9-21.74c.45-1.77.87-3.54,1.38-5.29l1.6-5.22c1.12-3.46,2.35-6.88,3.66-10.26s2.54-6.79,3.58-10.26,1.81-7,2.65-10.53c.41-1.75.82-3.5,1.31-5.24s.81-3.5,1.26-5.25.73-3.52,1.14-5.28.64-3.55,1-5.34Z"/><path class="cls-3" d="M83.07,26.79c3.39-.38,6.78-.59,10.17-.69,1.7-.07,3.4-.07,5.1-.1.84,0,1.69,0,2.54,0h.33a1.05,1.05,0,0,1,.25.08,1.33,1.33,0,0,1,.64.77,4.47,4.47,0,0,1,.21.74,13.4,13.4,0,0,1,.15,1.34c.07.86.08,1.77.09,2.58a13.25,13.25,0,0,0,.31,2.42A11.27,11.27,0,0,0,105,38.41c2,2.67,5,4.47,7.88,6.12a34.28,34.28,0,0,0,4.46,2.22A18.18,18.18,0,0,0,122,48a23.2,23.2,0,0,0,4.85-.47,10.41,10.41,0,0,1,2.79,0,12.31,12.31,0,0,1,2.68.73,16.65,16.65,0,0,1,7.87,7.08,14.39,14.39,0,0,1,1.92,10.08l-.19,0a15.6,15.6,0,0,0-3-9.23,16.45,16.45,0,0,0-7.32-6,11.58,11.58,0,0,0-2.21-.61,10.88,10.88,0,0,0-2.29,0,24,24,0,0,1-5.26.27,21.14,21.14,0,0,1-9.5-4.31,36,36,0,0,1-7.78-6.69A15.82,15.82,0,0,1,102,34.24a15,15,0,0,1-.61-2.57c-.1-.89-.21-1.67-.37-2.49-.07-.4-.17-.8-.27-1.17a2.19,2.19,0,0,0-.16-.46c0-.05-.07-.09,0,0a.47.47,0,0,0,.16.11.56.56,0,0,0,.17.06h-.06c-.85,0-1.7,0-2.54,0-1.7,0-3.39,0-5.08-.1-3.39-.1-6.77-.3-10.16-.68Z"/><path class="cls-3" d="M100.89,27c-3.43.35-6.86.55-10.3.66-1.71.06-3.43.09-5.14.11l-1.29,0h-.58a.36.36,0,0,0,.14,0c.33-.11.28-.18.28-.15a.63.63,0,0,0-.08.15A14.26,14.26,0,0,0,83.24,30l-.57,2.48c-.19.85-.31,1.64-.56,2.56a11.15,11.15,0,0,1-2.77,4.54,29.59,29.59,0,0,1-4,3.35c-1.42,1-2.75,2-4.12,3.11a21.88,21.88,0,0,1-4.49,2.8,12.17,12.17,0,0,1-5.41,1.06c-1.82,0-3.51-.3-5.15-.38a10.49,10.49,0,0,0-4.58.67c-2.86,1.16-4.81,4-5.85,7.12a23.84,23.84,0,0,0-1.15,4.89,37.57,37.57,0,0,0-.38,5.1H44a26.51,26.51,0,0,1,.35-10.41,15.14,15.14,0,0,1,2.17-5,10.27,10.27,0,0,1,4.25-3.62,11.82,11.82,0,0,1,5.5-.92c1.79.09,3.49.41,5.1.49A10.53,10.53,0,0,0,66,47.19,38.7,38.7,0,0,0,70.54,45c3-1.7,6.07-3.33,8.32-5.85A9.18,9.18,0,0,0,81,34.79c.21-1.6.31-3.4.62-5.11A11.67,11.67,0,0,1,82.32,27a3.68,3.68,0,0,1,.23-.42,1.34,1.34,0,0,1,.76-.56l.23,0h.62l1.29,0c1.71,0,3.43.05,5.14.11,3.44.11,6.87.31,10.3.66Z"/><path class="cls-4" d="M126,155.56c-6-7.46-11.34-18-11.34-27.89,0-10.39,9.09-17.29,11.74-26.8,1.85-6.65.17-13.32-1.84-19.71a100.49,100.49,0,0,1-3.73-15c-.82-5.41-.1-10.48,0-15.87a2.07,2.07,0,0,0-1.41-2,42.59,42.59,0,0,1-6-2.47,2.07,2.07,0,0,0-2.67.59c-2.69,3.68-5.93,7.48-9.92,9.33a21.07,21.07,0,0,1-14.74,1.34c-5.5-1.64-9.61-6.53-13.64-10.71a1.53,1.53,0,0,0-1.9-.25,20.14,20.14,0,0,1-6.47,2.67,1,1,0,0,0-.77,1.38c1.28,3.27.85,13,.73,14-1.08,8.93-4.5,17.39-5.5,26.32a30.94,30.94,0,0,0,.87,12.88c1.31,4,3.78,7.62,5.89,11.26a27,27,0,0,1,3.44,13.94,41.89,41.89,0,0,1-3.61,15.61c-.67,1.59-4.59,11-7,13.91a.52.52,0,0,0,.38.86l2.52,0h66.58a.52.52,0,0,0,.41-.83C127.37,157.28,126.33,155.93,126,155.56Z"/><path class="cls-3" d="M127.65,160H61.07l-2.54,0a1.5,1.5,0,0,1-1.12-2.48c1.45-1.75,3.86-6.56,6.79-13.55l0-.11a40.59,40.59,0,0,0,3.54-15.24,26.25,26.25,0,0,0-3.31-13.44c-.46-.78-.93-1.56-1.4-2.34a44.67,44.67,0,0,1-4.58-9.11,31.45,31.45,0,0,1-.91-13.29,98.34,98.34,0,0,1,2.8-13.51,100.64,100.64,0,0,0,2.7-12.82c.13-1,.51-10.49-.67-13.5a2,2,0,0,1,.12-1.7,2,2,0,0,1,1.39-1,19.28,19.28,0,0,0,6.14-2.54,2.51,2.51,0,0,1,3.12.4l1.42,1.49c3.53,3.73,7.19,7.59,11.79,9a20.16,20.16,0,0,0,14-1.28c4-1.84,7.18-5.79,9.55-9a3.07,3.07,0,0,1,3.94-.88,38.9,38.9,0,0,0,5.81,2.41,3,3,0,0,1,2.06,2.91c0,1.67-.09,3.32-.17,4.92a53.41,53.41,0,0,0,.2,10.8,99.72,99.72,0,0,0,3.7,14.82c1.92,6.13,3.81,13.25,1.85,20.27-1.15,4.11-3.45,7.74-5.67,11.25-3.11,4.9-6,9.52-6,15.29,0,8.35,4.16,18.55,11.13,27.27h0c.3.38,1.35,1.73,2,2.63a1.51,1.51,0,0,1-1.19,2.43Zm-.37-1.22h0ZM59.49,158l1.58,0H126.7c-.59-.77-1.22-1.58-1.44-1.85h0c-7.24-9.06-11.56-19.71-11.56-28.5,0-6.34,3.22-11.43,6.34-16.34,2.15-3.39,4.37-6.9,5.44-10.72,1.81-6.51.09-13-1.83-19.16a101,101,0,0,1-3.77-15.12,55.42,55.42,0,0,1-.22-11.19c.07-1.58.15-3.21.17-4.84a1.06,1.06,0,0,0-.74-1A41.71,41.71,0,0,1,113,46.73a1.09,1.09,0,0,0-1.4.32c-2.51,3.42-5.94,7.61-10.31,9.64a22.13,22.13,0,0,1-15.43,1.38c-5.11-1.52-9-5.57-12.66-9.49L71.77,47.1a.56.56,0,0,0-.68-.08,21.33,21.33,0,0,1-6.8,2.79c1.4,3.7.85,13.78.76,14.51A102.37,102.37,0,0,1,62.3,77.39a96.9,96.9,0,0,0-2.75,13.24,29.38,29.38,0,0,0,.83,12.46,43.31,43.31,0,0,0,4.39,8.7c.48.79,1,1.58,1.41,2.37a28.17,28.17,0,0,1,3.58,14.46,42.44,42.44,0,0,1-3.69,16l0,.12C64.09,149.32,61.46,155.17,59.49,158Z"/></svg>