<svg id="图层_1" data-name="图层 1" xmlns="http://www.w3.org/2000/svg" viewBox="0 0 186 186"><defs><style>.cls-1{fill:#f5e3ea;}.cls-2{fill:#e4cbd4;}.cls-3{fill:#5b3b2f;}.cls-4{fill:#feffff;}</style></defs><path class="cls-1" d="M82.31,26.89h18.06c.59,0,1.58,3,1.6,3.5.39,7.68,4,10.9,11.23,15.49A20.46,20.46,0,0,0,121,48.94c2.8.43,5.52-.84,8.38-.25,7.19,1.5,14,8.83,13.11,15.86l-1.63,9.1c-5,28.74-18.83,49.84-18.83,78.3l-60.7-.65c1-7.93-1.48-20.25-3-26.76-1.65-7.22-3.58-11.49-6-18.46-2.29-6.54-1.91-7.31-5.69-20-1-3.45-1.43-3.93-1.92-7.5s-.85-10.39-1-13.88c-.16-4.12.34-8.36,2.6-12,1.94-3.1,5.29-4.37,8.86-4.19s6.35,1.08,9.88-.26c2.82-1.08,4.6-2.6,7.16-4.06,4.29-2.44,9-5.73,9.91-9.91.16-.74-.29-7.46.66-7.46h17.41"/><path class="cls-2" d="M102.63,58.6A9.22,9.22,0,0,1,108.89,55a17.57,17.57,0,0,1,7.42.51c2.42.75,4.56,2,6.84,2.69a6.19,6.19,0,0,0,3.31.2,4.49,4.49,0,0,0,2.48-1.89h0a.75.75,0,0,1,1.22.86l0,0a5.88,5.88,0,0,1-3.39,2.29,7.47,7.47,0,0,1-4-.41c-2.41-.85-4.48-2.23-6.72-3a17,17,0,0,0-7.15-.86A9.07,9.07,0,0,0,102.63,58.6Z"/><path class="cls-2" d="M80.39,59.13a15.2,15.2,0,0,0-14-2.9c-2.32.74-4.46,2.15-6.88,3.06a10.85,10.85,0,0,1-3.89.81,6,6,0,0,1-3.9-1.48h0a.74.74,0,0,1-.06-1,.74.74,0,0,1,1.05-.07l0,0a4.56,4.56,0,0,0,3,1.29,9.43,9.43,0,0,0,3.47-.57c2.34-.74,4.53-2,7-2.71A15.53,15.53,0,0,1,80.39,59.13Z"/><path class="cls-2" d="M92.72,58.6a2.77,2.77,0,0,1-.4,1.63A2.66,2.66,0,0,1,91,61.41a2.82,2.82,0,0,1-1.79.06,4.22,4.22,0,0,1-.78-.35,4.81,4.81,0,0,1-.64-.54c.29,0,.55.05.8.08s.51.05.75,0a3.41,3.41,0,0,0,1.3-.21A5.21,5.21,0,0,0,92.72,58.6Z"/><path class="cls-2" d="M86.27,41.26l.56,5c.09.83.21,1.65.34,2.48a16.05,16.05,0,0,0,.59,2.44,8.37,8.37,0,0,1-1-2.36,17.73,17.73,0,0,1-.46-2.5,24.07,24.07,0,0,1-.17-2.54A21.41,21.41,0,0,1,86.27,41.26Z"/><path class="cls-2" d="M96.19,39.28a45.49,45.49,0,0,1-1.08,5.56c-.24.91-.49,1.82-.79,2.72a14,14,0,0,1-1.11,2.62c.3-.9.51-1.81.74-2.73l.68-2.74C95.1,42.89,95.58,41.07,96.19,39.28Z"/><path class="cls-3" d="M83,26.79c3.4-.38,6.81-.59,10.22-.69C95,26,96.65,26,98.36,26c.85,0,1.7,0,2.55,0h.34a1.47,1.47,0,0,1,.25.08,1.19,1.19,0,0,1,.28.21,1.55,1.55,0,0,1,.36.56,4.21,4.21,0,0,1,.2.75A10.62,10.62,0,0,1,102.5,29c.07.87.08,1.78.09,2.59A13.25,13.25,0,0,0,102.9,34,11.42,11.42,0,0,0,105,38.47c2,2.68,5,4.49,7.92,6.15a32.78,32.78,0,0,0,4.48,2.23,18.84,18.84,0,0,0,4.69,1.21,24.08,24.08,0,0,0,4.87-.47,10.48,10.48,0,0,1,2.8,0,12.25,12.25,0,0,1,2.69.74,16.66,16.66,0,0,1,7.91,7.11,14.47,14.47,0,0,1,1.94,10.13l-.2,0a15.59,15.59,0,0,0-3.05-9.28,16.52,16.52,0,0,0-7.37-6,11.52,11.52,0,0,0-2.22-.62,10.9,10.9,0,0,0-2.29,0,25,25,0,0,1-5.29.27,21.35,21.35,0,0,1-9.55-4.33,36.27,36.27,0,0,1-7.81-6.72A15.67,15.67,0,0,1,102,34.27a14.91,14.91,0,0,1-.61-2.58c-.1-.89-.21-1.67-.37-2.5a11.87,11.87,0,0,0-.27-1.17,3.15,3.15,0,0,0-.16-.47c0-.05-.07-.09,0,0a.85.85,0,0,0,.16.11l.18.06h-.07c-.85,0-1.7,0-2.55,0-1.7,0-3.4,0-5.1-.1-3.41-.1-6.81-.3-10.21-.68Z"/><path class="cls-3" d="M100.92,27c-3.44.34-6.89.55-10.34.66-1.73.06-3.45.09-5.17.11H83.53a.36.36,0,0,0,.14,0c.33-.11.28-.18.28-.15a.63.63,0,0,0-.08.15A15.86,15.86,0,0,0,83.18,30l-.57,2.49c-.19.86-.31,1.65-.56,2.58a11.34,11.34,0,0,1-2.78,4.57,29.76,29.76,0,0,1-4,3.35c-1.43,1-2.76,2.06-4.14,3.13A22.62,22.62,0,0,1,66.59,49,12.37,12.37,0,0,1,61.16,50c-1.82,0-3.52-.3-5.17-.39a10.78,10.78,0,0,0-4.61.68c-2.87,1.16-4.83,4-5.88,7.16a24.54,24.54,0,0,0-1.15,4.91A38,38,0,0,0,44,67.51l-.2,0a26.76,26.76,0,0,1,.35-10.46,15.48,15.48,0,0,1,2.18-5,10.26,10.26,0,0,1,4.28-3.64,11.63,11.63,0,0,1,5.52-.92c1.8.09,3.51.4,5.13.49a10.48,10.48,0,0,0,4.67-.74,39.05,39.05,0,0,0,4.53-2.18c3-1.7,6.1-3.35,8.36-5.88a9.17,9.17,0,0,0,2.14-4.4c.21-1.61.32-3.42.62-5.13A11.87,11.87,0,0,1,82.27,27a3.68,3.68,0,0,1,.23-.42,1.34,1.34,0,0,1,.76-.56l.23,0h.62l1.3,0c1.72,0,3.44.05,5.17.11,3.45.11,6.9.31,10.34.66Z"/><path class="cls-3" d="M43.77,71.29A139.87,139.87,0,0,0,49,91.42c2.16,6.58,4.63,13.06,6.86,19.68a122.59,122.59,0,0,1,5.24,20.31,89.23,89.23,0,0,1,1,10.44q.09,2.63,0,5.25a29.23,29.23,0,0,1-.65,5.19,50.7,50.7,0,0,0-.18-10.38c-.35-3.44-.88-6.87-1.52-10.26A161.24,161.24,0,0,0,54,111.72l-3.39-9.85c-1.1-3.31-2.18-6.63-3.13-10A92.6,92.6,0,0,1,43.77,71.29Z"/><path class="cls-3" d="M141.48,67.53c0,1.77-.08,3.55-.16,5.33s-.41,3.54-.65,5.3-.67,3.5-1,5.24-.89,3.44-1.4,5.14l-1.76,5c-.64,1.66-1.27,3.32-1.83,5-1.19,3.33-2.19,6.72-3.16,10.12-.48,1.71-.92,3.42-1.44,5.11s-.95,3.39-1.46,5.08L127.2,124c-.41,1.7-.86,3.4-1.3,5.1a132.22,132.22,0,0,0-3.64,20.73h-.2a68.65,68.65,0,0,1,1.8-21.22c.44-1.72.87-3.45,1.36-5.16l1.59-5.09c1.11-3.37,2.34-6.69,3.65-10s2.53-6.6,3.57-10,1.79-6.83,2.62-10.25c.39-1.72.81-3.42,1.28-5.11s.8-3.42,1.24-5.12.71-3.44,1.11-5.15.62-3.47,1-5.21Z"/><path class="cls-2" d="M88.6,99.92a9.57,9.57,0,0,1-.51,4.45,11.21,11.21,0,0,1-2.48,3.86,17.28,17.28,0,0,1-8,4.46,20.65,20.65,0,0,1-9.19.38A14.7,14.7,0,0,1,64,111.51a12.61,12.61,0,0,1-2-1.34,11.52,11.52,0,0,1-.89-.83c-.13-.15-.28-.29-.41-.45l-.19-.23-.05-.06s0,0,0-.11a4.07,4.07,0,0,1,.6-.65,4.26,4.26,0,0,1,.77-.43c.07,0,.08,0,.09,0l0,0,.16.18.35.36a9.62,9.62,0,0,0,.74.68,10.71,10.71,0,0,0,1.69,1.11,15.4,15.4,0,0,0,3.9,1.35,20.86,20.86,0,0,0,8.4-.15,17.58,17.58,0,0,0,7.6-3.59A10.46,10.46,0,0,0,88.6,99.92Z"/><path class="cls-2" d="M95.28,100.41a23.62,23.62,0,0,0,4.53,6.15,16.53,16.53,0,0,0,6.23,3.82,16.83,16.83,0,0,0,3.6.76,10.35,10.35,0,0,0,1.85.16c.63,0,1.25,0,1.89,0a13.52,13.52,0,0,0,1.89-.16l1.91-.2c1.27-.25,2.53-.52,3.85-.7-1.16.6-2.38,1.12-3.61,1.64a32,32,0,0,1-3.89,1,18.07,18.07,0,0,1-8.12-.57,15.08,15.08,0,0,1-6.73-4.65c-.44-.52-.82-1.09-1.21-1.64s-.69-1.16-1-1.77A13.87,13.87,0,0,1,95.28,100.41Z"/><path class="cls-3" d="M66.59,65.87c-.11-2.25-.24-4.5-.57-6.73a19.54,19.54,0,0,0-.55-3,51.25,51.25,0,0,0-1.28-5.48c-.13-.39,0-1-.68-1.09l-.43.3c-.36.26.5,3,.59,3.32A68.28,68.28,0,0,1,65,61.83c.77,7.77,1,16-.77,23.67-.12.51,0,1.23-.56,1.48l1-.55A24.63,24.63,0,0,0,66,82.09C67,76.71,66.86,71.29,66.59,65.87Z"/><path class="cls-3" d="M119.36,58.07a52.8,52.8,0,0,1,2-6,2.88,2.88,0,0,1,.13-.31c.2-.5.41-1,.59-1.49.11-.29.15-.69-.12-.81s-.57.24-.69.54a79.2,79.2,0,0,0-3.61,10.53,55.8,55.8,0,0,0-1.27,13c0,2.19.09,4.38.18,6.56a19.35,19.35,0,0,0,.13,3.15c.11.51.69,1.26.6,1.75.82-4.51.33-9.1.29-13.65A49.31,49.31,0,0,1,119.36,58.07Z"/><path class="cls-4" d="M63.12,85.67A15.89,15.89,0,0,0,58,97.28c0,5.33,2.82,9.87,5.39,14.33,2.19,3.79,4.48,7.65,5.36,12,1.29,6.35-.61,12.89-3,18.92a121.63,121.63,0,0,1-7.68,16.09.24.24,0,0,0,.21.36l69.74,0a.24.24,0,0,0,.19-.39c-6.34-8.27-12.86-17.3-13.19-27.69-.21-6.69,2.25-13.28,6-18.79,1.92-2.78,4.2-5.36,5.51-8.47A15.59,15.59,0,0,0,104,84.38c-2.83,1.78-5.21,4.52-8.49,5.22-2.88.61-5.86-.53-8.4-2S82.24,84.14,79.52,83a15.78,15.78,0,0,0-15.74,2.14Z"/><path class="cls-3" d="M128.06,160,58.32,160a1.22,1.22,0,0,1-1.06-1.83,122.15,122.15,0,0,0,7.61-16c2.16-5.54,4.19-12,2.91-18.36-.81-4-2.92-7.67-5-11.22l-.75-1.31C59.57,107,57,102.54,57,97.28a16.92,16.92,0,0,1,5.45-12.34h0c.23-.21.47-.41.71-.6a16.85,16.85,0,0,1,16.74-2.27,31.71,31.71,0,0,1,5.13,3c.83.56,1.69,1.14,2.55,1.65,2.92,1.74,5.51,2.39,7.69,1.93,2-.43,3.66-1.73,5.42-3.1a32.69,32.69,0,0,1,2.75-2,16.57,16.57,0,0,1,24.08,20.5,32.34,32.34,0,0,1-4,6.44c-.55.73-1.09,1.46-1.6,2.21-4,5.77-6.07,12.23-5.88,18.2.31,9.81,6.32,18.43,13,27.12a1.23,1.23,0,0,1-1,2Zm-.59-.78h0ZM59.6,158l66.95.05c-6.49-8.57-12.16-17.14-12.47-27.07-.21-6.38,2-13.26,6.22-19.38.53-.76,1.09-1.52,1.64-2.27a30.45,30.45,0,0,0,3.78-6A14.61,14.61,0,0,0,104.5,85.22a30.47,30.47,0,0,0-2.58,1.87c-1.87,1.46-3.8,3-6.23,3.47-2.69.57-5.75-.15-9.11-2.15-.91-.55-1.79-1.14-2.64-1.71a29.93,29.93,0,0,0-4.8-2.82,14.84,14.84,0,0,0-14.74,2c-.21.17-.42.34-.62.52A15,15,0,0,0,59,97.28c0,4.73,2.43,8.94,4.78,13l.76,1.31c2.13,3.69,4.32,7.5,5.2,11.82,1.38,6.81-.75,13.66-3,19.46A123.13,123.13,0,0,1,59.6,158Z"/></svg>