<svg id="图层_1" data-name="图层 1" xmlns="http://www.w3.org/2000/svg" viewBox="0 0 186 186"><defs><style>.cls-1{fill:#e2c9d2;}.cls-2{fill:#5b3b2f;}.cls-3{fill:#f1e0e6;}</style></defs><path class="cls-1" d="M82.77,66.36c0,2.57,0,5.13-.13,7.7s-.22,5.13-.47,7.69a34.21,34.21,0,0,1-1.4,7.65,13.6,13.6,0,0,1-4.37,6.46l.07-.09a2.43,2.43,0,0,1-.51.51l-.48.39-1,.77c-.65.51-1.32,1-2,1.48l1.79-1.71.89-.86.44-.44a4.62,4.62,0,0,0,.35-.38l.06-.07h0a13.85,13.85,0,0,0,3.81-6.34,41,41,0,0,0,1.31-7.46L81.93,74C82.16,71.46,82.42,68.9,82.77,66.36Z"/><path class="cls-1" d="M103.16,66.36c.35,2.54.61,5.1.84,7.65l.76,7.64a41,41,0,0,0,1.31,7.46,13.85,13.85,0,0,0,3.81,6.34h0l.06.07a4.62,4.62,0,0,0,.35.38l.44.44.89.86,1.79,1.71c-.67-.48-1.34-1-2-1.48l-1-.77-.48-.39a2.43,2.43,0,0,1-.51-.51l.07.09a13.6,13.6,0,0,1-4.37-6.46,34.21,34.21,0,0,1-1.4-7.65c-.25-2.56-.4-5.13-.47-7.69S103.16,68.93,103.16,66.36Z"/><path class="cls-2" d="M122.19,136.93c.08-5.62.29-11.24.59-16.86.16-2.8.31-5.62.62-8.44s.69-5.59,1.06-8.38c.76-5.57,1.6-11.12,2.42-16.68l1.23-8.22.68,8.29q1.43,17.24,2.45,34.49.51,8.63.86,17.28c.15,5.77.39,11.54.22,17.3-.28-5.76-.7-11.5-1.17-17.25l-1.41-17.24-2.92-34.45,2,.07-2.53,16.65c-.41,2.77-.83,5.55-1.18,8.32s-.59,5.54-.81,8.34c-.42,5.59-.79,11.19-1.15,16.8"/><path class="cls-2" d="M54.54,155.71c.05-5.7.21-11.39.3-17.09l.46-17.08.49-17.07.3-8.51c0-2.81.16-5.73.07-8.45l-.22-6.69L58,87.14c1.76,5.36,3.47,10.69,5,16.16.75,2.72,1.48,5.45,2,8.25a43.38,43.38,0,0,1,.75,8.51c.08,5.66-.16,11.28-.43,16.91s-.68,11.23-1.2,16.83c.09-5.62.25-11.24.27-16.86s.08-11.24-.13-16.83a45.36,45.36,0,0,0-.9-8.22c-.6-2.72-1.35-5.42-2.14-8.1-1.57-5.37-3.28-10.73-5.07-16L58,87.36c.09,3,0,5.76-.1,8.63l-.31,8.55c-.26,5.68-.5,11.38-.82,17.07s-.65,11.37-1,17.06S55,150,54.54,155.71Z"/><path class="cls-2" d="M80.3,26.74A16.35,16.35,0,0,1,80.81,32a26.16,26.16,0,0,1-.28,2.65l-.29,1.29-.15.65-.21.63a22.05,22.05,0,0,1-5.69,9l-1,.92a8.86,8.86,0,0,1-1,.87l-2.17,1.58c-.74.5-1.52.9-2.29,1.36l-1.16.67c-.39.22-.8.38-1.2.56-3.26,1.54-6.5,2.62-9.72,4a82.05,82.05,0,0,0-9.33,4.43,29.59,29.59,0,0,0-8,6.18,19.52,19.52,0,0,0-4.29,9,45.1,45.1,0,0,0-.68,10.31,39.27,39.27,0,0,1-.24-10.5A17.82,17.82,0,0,1,33.75,73a17.78,17.78,0,0,1,.83-2.56l.53-1.24A10.4,10.4,0,0,1,35.78,68l.65-1.18c.27-.37.55-.72.84-1.07a29.35,29.35,0,0,1,8.2-6.8A81.49,81.49,0,0,1,55,54.33c3.21-1.36,6.57-2.5,9.65-3.89.39-.16.8-.31,1.17-.5l1.11-.61c.75-.4,1.52-.77,2.23-1.23l2.1-1.45a8,8,0,0,0,1-.77l1-.83A22.13,22.13,0,0,0,79,36.86l.25-.59.19-.6.39-1.23a23.79,23.79,0,0,0,.47-2.52A19.12,19.12,0,0,0,80.3,26.74Z"/><path class="cls-2" d="M33.13,86.08q1.4,8.63,2.16,17.34c.52,5.81.87,11.65,1.13,17.43s.29,11.65.09,17.48a93.09,93.09,0,0,1-1.87,17.38c.25-2.91.42-5.83.4-8.7s0-5.83-.08-8.74q-.16-8.75-.51-17.39l-.69-17.42Q33.43,94.84,33.13,86.08Z"/><path class="cls-2" d="M152,95.57a111.89,111.89,0,0,0,.28-11.44A39.22,39.22,0,0,0,150.5,73,19.84,19.84,0,0,0,148,68.07a18.87,18.87,0,0,0-3.82-4,47.61,47.61,0,0,0-9.78-5.53c-3.45-1.61-7-3.13-10.43-4.86a66.45,66.45,0,0,1-10.08-5.82,22.21,22.21,0,0,1-4.35-4.09,13.63,13.63,0,0,1-2.57-5.5,27.07,27.07,0,0,1-.46-5.89c0-1.94.09-3.84.12-5.74l.71.71-6.8-.13-6.8-.15c-4.52-.15-9-.24-13.55-.44,4.52-.19,9-.28,13.55-.43l6.8-.15,6.8-.13h.7v.73c0,1.94,0,3.84,0,5.72a27,27,0,0,0,.54,5.53c.77,3.55,3.34,6.29,6.35,8.45a70.06,70.06,0,0,0,9.82,5.6c3.4,1.69,6.9,3.22,10.38,4.85a49.37,49.37,0,0,1,10,5.94,19.53,19.53,0,0,1,6.48,9.71A36.75,36.75,0,0,1,153,84,87.54,87.54,0,0,1,152,95.57Z"/><path class="cls-2" d="M153,155.71a123.61,123.61,0,0,1-2.35-14.93c-.27-2.51-.42-5-.61-7.53s-.23-5-.28-7.56,0-5,0-7.57.16-5,.38-7.55a130.48,130.48,0,0,1,1.87-15c-.1,5.05-.34,10.05-.37,15.06s-.08,10,0,15,.24,10,.46,15S152.62,150.68,153,155.71Z"/><path class="cls-3" d="M131.5,88.94a124.59,124.59,0,0,1,1.66-17.66c.45-3.26,4-11,2.08-14a2.54,2.54,0,0,0-1-.85c-5.94-2.87-13-5.75-18.95-8.62a4.31,4.31,0,0,0-1.92-.57,4.61,4.61,0,0,0-2.51,1.27C100.66,56.39,85,56.16,75.11,48l-.54-.44a3.09,3.09,0,0,0-1.68-.75,4,4,0,0,0-2.32,1c-4.23,3-11.83,6.24-16.8,7.71-4.5,1.34-3.9,1.59-3.1,6.48,1.37,8.37,4.41,16.31,4.38,24.91a145.29,145.29,0,0,1-1.42,15.31,13.35,13.35,0,0,0,.17,4.5c1.64,7.87,7.17,34.3,10.3,48.44a3.35,3.35,0,0,0,.82,1.82,3.26,3.26,0,0,0,1.87.63,210.07,210.07,0,0,0,53.38-.42c3.7-11.41,10.45-38,12.86-47.67a16.3,16.3,0,0,0,.21-6.95A90.71,90.71,0,0,1,131.5,88.94Z"/><path class="cls-2" d="M72.8,47.75a3.49,3.49,0,0,0-1.68.82C66.71,51.68,59,54.93,54.05,56.41c-1.37.41-2.62.8-2.88,1.24s0,1.37.2,2.76c.08.42.16.89.25,1.4.48,2.94,1.18,5.88,1.86,8.73C54.73,75.79,56,81.22,56,86.88a148.5,148.5,0,0,1-1.42,15.44,12.18,12.18,0,0,0,.15,4.17c1.62,7.76,7.15,34.19,10.3,48.44a2.58,2.58,0,0,0,.52,1.31,2.71,2.71,0,0,0,1.35.39,209.41,209.41,0,0,0,52.53-.34c3.67-11.5,10.05-36.63,12.66-47a15.2,15.2,0,0,0,.2-6.54,89.51,89.51,0,0,1-1.76-13.78h0a119.76,119.76,0,0,1,1.56-17l.11-.79a29.34,29.34,0,0,1,1.06-4c1-3.18,2.29-7.54,1.16-9.3a1.62,1.62,0,0,0-.65-.51c-3-1.46-6.42-3-9.68-4.41s-6.34-2.8-9.27-4.2a3.72,3.72,0,0,0-1.47-.48,3.76,3.76,0,0,0-1.86,1l-.09.07c-10.47,8.13-26.69,7.89-36.91-.54-.19-.15-.35-.29-.52-.41a2.11,2.11,0,0,0-1.14-.56Zm18.66,82.86M91.83,160a211.52,211.52,0,0,1-25.15-1.5,4.19,4.19,0,0,1-2.41-.88,4.24,4.24,0,0,1-1.11-2.32c-3.15-14.26-8.68-40.69-10.3-48.46a14.45,14.45,0,0,1-.18-4.82,145,145,0,0,0,1.41-15.18c0-5.44-1.25-10.75-2.48-15.89-.69-2.88-1.4-5.86-1.89-8.87-.08-.5-.16-1-.24-1.37-.71-4-.48-4.85,4-6.18C58.41,53.11,65.93,49.88,70,47a4.83,4.83,0,0,1,2.91-1.17,4,4,0,0,1,2.22,1c.19.14.37.29.54.44,9.59,7.9,24.75,8.12,34.54.52l.09-.07a5.3,5.3,0,0,1,3-1.4,5.41,5.41,0,0,1,2.36.66c2.91,1.4,6.11,2.81,9.21,4.19,3.29,1.45,6.68,3,9.74,4.43a3.47,3.47,0,0,1,1.44,1.2c1.61,2.51.25,7-1,10.9a29.36,29.36,0,0,0-1,3.76l-.11.79a118.24,118.24,0,0,0-1.54,16.74h0a92.27,92.27,0,0,0,1.72,13.42,16.93,16.93,0,0,1-.22,7.36c-2.65,10.6-9.23,36.47-12.87,47.74a1,1,0,0,1-.79.65A210.36,210.36,0,0,1,91.83,160Z"/></svg>