<svg id="图层_1" data-name="图层 1" xmlns="http://www.w3.org/2000/svg" viewBox="0 0 186 186"><defs><style>.cls-1{fill:#5b3b2f;}.cls-2{fill:#f1e0e6;}.cls-3{fill:#fff;}</style></defs><path class="cls-1" d="M131.74,88.61q1.47,17.79,2.53,35.57.53,8.9.88,17.81c.16,5.95.4,11.9.23,17.83-.29-5.93-.72-11.85-1.21-17.77l-1.45-17.78-3-35.51,2,.07L129.11,106c-.42,2.86-.85,5.72-1.22,8.57s-.6,5.72-.83,8.61c-.43,5.76-.81,11.54-1.18,17.31l-1.11,17.36c0-5.8.09-11.59.17-17.38s.3-11.58.61-17.37c.16-2.9.32-5.8.64-8.71s.71-5.76,1.09-8.64c.78-5.74,1.64-11.47,2.5-17.2"/><path class="cls-1" d="M58.79,89.14c1.82,5.51,3.58,11,5.14,16.65.78,2.81,1.53,5.62,2.11,8.5a43.94,43.94,0,0,1,.77,8.79c.09,5.83-.16,11.63-.44,17.42s-.7,11.58-1.23,17.36c.09-5.8.25-11.59.27-17.39s.09-11.58-.13-17.34a46.66,46.66,0,0,0-.94-8.49c-.61-2.79-1.39-5.57-2.2-8.34-1.62-5.54-3.38-11.07-5.23-16.53l1.89-.41c.1,3.07,0,5.94-.1,8.9l-.32,8.81c-.26,5.86-.52,11.73-.85,17.6s-.67,11.72-1,17.59-.84,11.72-1.34,17.56c.05-5.86.22-11.73.31-17.61L56,124.6l.51-17.6.31-8.77c0-2.9.16-5.91.07-8.71"/><path class="cls-1" d="M81.75,26.86a16.81,16.81,0,0,1,.52,5.38A22.59,22.59,0,0,1,82,35l-.3,1.33-.16.68-.21.65a22.73,22.73,0,0,1-5.87,9.24l-1,1a7.67,7.67,0,0,1-1,.89l-2.23,1.64c-.77.52-1.58.93-2.37,1.4l-1.19.69c-.4.23-.83.39-1.24.58-3.36,1.58-6.7,2.69-10,4.14a83.69,83.69,0,0,0-9.62,4.56,30.16,30.16,0,0,0-8.21,6.37,20,20,0,0,0-4.43,9.31A46.17,46.17,0,0,0,33.44,88a40.84,40.84,0,0,1-.25-10.82,17.5,17.5,0,0,1,.57-2.68,16.17,16.17,0,0,1,.86-2.63l.54-1.28a13,13,0,0,1,.69-1.21l.67-1.22c.28-.38.57-.74.86-1.1a30.28,30.28,0,0,1,8.47-7,84,84,0,0,1,9.77-4.77c3.32-1.4,6.78-2.57,10-4,.4-.17.82-.32,1.2-.52l1.15-.62c.77-.43,1.56-.81,2.29-1.28l2.17-1.49a7.62,7.62,0,0,0,1-.8l1-.85a23,23,0,0,0,6-8.44l.26-.62.19-.62.4-1.26a23.32,23.32,0,0,0,.49-2.6A19.49,19.49,0,0,0,81.75,26.86Z"/><path class="cls-1" d="M33.45,88c.91,5.94,1.58,11.91,2.06,17.9s.79,12,1,18,.19,12-.07,18a97,97,0,0,1-2.09,17.89c.28-3,.48-6,.49-9s.06-6,0-9q-.09-9-.36-17.94l-.54-18C33.76,100,33.6,94,33.45,88Z"/><path class="cls-1" d="M155.67,97.83A116.14,116.14,0,0,0,156,86a40,40,0,0,0-1.83-11.48,20.44,20.44,0,0,0-2.55-5.07,19.35,19.35,0,0,0-3.94-4.09,48.87,48.87,0,0,0-10.08-5.7c-3.56-1.66-7.19-3.22-10.76-5a68.32,68.32,0,0,1-10.38-6,22.16,22.16,0,0,1-4.49-4.21,14.16,14.16,0,0,1-2.66-5.67,28.75,28.75,0,0,1-.47-6.07c0-2,.09-4,.12-5.92l.73.73-7-.13-7-.16c-4.65-.15-9.3-.24-14-.45,4.66-.2,9.31-.29,14-.44l7-.16,7-.13h.73v.75c0,2,0,4,.06,5.9a27.33,27.33,0,0,0,.55,5.7c.8,3.66,3.44,6.49,6.55,8.71a72.77,72.77,0,0,0,10.12,5.77c3.51,1.74,7.11,3.32,10.7,5A50.75,50.75,0,0,1,148.68,64a20.17,20.17,0,0,1,6.69,10,38.15,38.15,0,0,1,1.34,11.88A93.39,93.39,0,0,1,155.67,97.83Z"/><path class="cls-1" d="M156.66,159.82a126.64,126.64,0,0,1-2.42-15.39c-.28-2.58-.44-5.17-.63-7.76s-.24-5.2-.29-7.79,0-5.2,0-7.81.16-5.19.39-7.78a133.81,133.81,0,0,1,1.94-15.46c-.11,5.2-.36,10.35-.4,15.52s-.08,10.33,0,15.49.26,10.32.49,15.48S156.31,154.65,156.66,159.82Z"/><path class="cls-1" d="M84.29,68c0,2.65,0,5.3-.14,7.94s-.22,5.3-.48,8a35.23,35.23,0,0,1-1.45,7.89,14.06,14.06,0,0,1-4.5,6.67l.06-.09a2.81,2.81,0,0,1-.52.52l-.5.4-1,.8c-.67.52-1.36,1-2,1.53l1.85-1.77.92-.89.45-.45c.12-.13.33-.34.36-.39l.06-.08h0a14.21,14.21,0,0,0,3.93-6.54,42.62,42.62,0,0,0,1.35-7.7l.79-7.88C83.66,73.28,83.92,70.64,84.29,68Z"/><path class="cls-1" d="M105.33,68c.36,2.62.63,5.26.87,7.9L107,83.8a42.62,42.62,0,0,0,1.35,7.7A14.3,14.3,0,0,0,112.26,98h0l0,.08.37.39.45.45.92.89,1.85,1.77c-.7-.5-1.38-1-2-1.53l-1-.8-.51-.4a3.6,3.6,0,0,1-.52-.52l.07.09a14.08,14.08,0,0,1-4.51-6.67A35.79,35.79,0,0,1,106,83.91c-.26-2.65-.41-5.3-.49-8S105.33,70.67,105.33,68Z"/><path class="cls-2" d="M54.54,87.15s10.75,50.6,4.29,71.8h71.54s-3.81-42,2.25-71.8l-7,3.11a78.49,78.49,0,0,1-64.16,0Z"/><path class="cls-1" d="M130.37,159.94H58.83a1,1,0,0,1-.95-1.28c6.31-20.71-4.2-70.8-4.31-71.31a1,1,0,0,1,.35-1,1,1,0,0,1,1-.13l7,3.12a77.62,77.62,0,0,0,63.35,0l7-3.12a1,1,0,0,1,1.37,1.1c-6,29.3-2.26,71.1-2.23,71.52a1,1,0,0,1-.25.76A1,1,0,0,1,130.37,159.94Zm-70.23-2H129.3c-.53-6.64-3-42.38,2-69.13l-5.21,2.34a79.6,79.6,0,0,1-65,0l-5.2-2.33c.81,4.11,2.75,14.4,4.19,26.14C62.49,134.47,62.5,148.92,60.14,158Z"/><path class="cls-3" d="M132.8,87.09c.9-.49,1.86.6,2.36,1.22a11,11,0,0,1,1.28,1.89,1.69,1.69,0,0,1-.93,2.19c-.5.29-1.45.51-1.88,0a5,5,0,0,1-.76-1.54c-.32-.83-1.15-2.79-.36-3.58A1,1,0,0,1,132.8,87.09Z"/><path class="cls-1" d="M135.88,93c-.68.39-2,.72-2.79-.09a4.53,4.53,0,0,1-.81-1.53l-.15-.39c-.43-1.1-1.23-3.14-.15-4.23a2.56,2.56,0,0,1,.47-.36c1-.53,2.11-.05,3.28,1.42a11.71,11.71,0,0,1,1.37,2A2.4,2.4,0,0,1,135.88,93Zm-2.74-5.29a.44.44,0,0,0-.11.09c-.18.19-.25.8.48,2.65l.16.42a3.66,3.66,0,0,0,.49,1,1.37,1.37,0,0,0,1-.18c.1-.06,1-.58.64-1.22a10.94,10.94,0,0,0-1.2-1.76c-.91-1.13-1.3-1.1-1.43-1h0Z"/></svg>