<svg id="图层_1" data-name="图层 1" xmlns="http://www.w3.org/2000/svg" viewBox="0 0 186 186"><defs><style>.cls-1{fill:#5b3b2f;}.cls-2{fill:#fff;}.cls-3{fill:#f1e0e6;}</style></defs><path class="cls-1" d="M131.82,88.61q1.47,17.79,2.53,35.57.53,8.9.89,17.81c.16,5.95.4,11.9.23,17.83-.29-5.93-.73-11.85-1.22-17.77l-1.45-17.78-3-35.51,2,.07L129.2,106c-.42,2.86-.86,5.72-1.23,8.57s-.6,5.72-.83,8.61c-.43,5.76-.81,11.54-1.18,17.31l-1.11,17.36c0-5.8.09-11.59.17-17.38s.3-11.58.61-17.37c.16-2.9.32-5.8.64-8.71s.71-5.76,1.09-8.64c.78-5.74,1.65-11.47,2.5-17.2"/><path class="cls-1" d="M58.87,89.14c1.82,5.51,3.58,11,5.15,16.65.77,2.81,1.52,5.62,2.1,8.5a43.94,43.94,0,0,1,.77,8.79c.09,5.83-.16,11.63-.44,17.42s-.7,11.58-1.23,17.36c.09-5.8.25-11.59.27-17.39s.09-11.58-.13-17.34a46.65,46.65,0,0,0-.93-8.49c-.61-2.79-1.4-5.57-2.21-8.34C60.6,100.76,58.84,95.23,57,89.77l1.88-.41c.1,3.07,0,5.94-.1,8.9l-.32,8.81c-.26,5.86-.51,11.73-.84,17.6s-.67,11.72-1,17.59-.84,11.72-1.34,17.56c0-5.86.22-11.73.31-17.61l.47-17.61.51-17.6.31-8.77c0-2.9.17-5.91.08-8.71"/><path class="cls-1" d="M81.83,26.86a16.81,16.81,0,0,1,.52,5.38A22.59,22.59,0,0,1,82.07,35l-.3,1.33-.16.68-.21.65a22.73,22.73,0,0,1-5.87,9.24l-1,1a7.67,7.67,0,0,1-1,.89L71.3,50.34c-.76.52-1.58.93-2.37,1.4l-1.19.69c-.4.23-.83.39-1.24.58-3.36,1.58-6.7,2.69-10,4.14a83.69,83.69,0,0,0-9.62,4.56,30.16,30.16,0,0,0-8.21,6.37,20.09,20.09,0,0,0-4.43,9.31A46.17,46.17,0,0,0,33.52,88a40.84,40.84,0,0,1-.25-10.82,17.5,17.5,0,0,1,.57-2.68,16.17,16.17,0,0,1,.86-2.63l.54-1.28a13,13,0,0,1,.69-1.21l.67-1.22c.28-.38.57-.74.87-1.1a30.1,30.1,0,0,1,8.46-7A84.79,84.79,0,0,1,55.7,55.3c3.32-1.4,6.78-2.57,10-4,.4-.17.82-.32,1.2-.52L68,50.16c.77-.43,1.56-.81,2.3-1.28l2.16-1.49a7,7,0,0,0,1-.8l1-.85a22.85,22.85,0,0,0,6-8.44l.26-.62.19-.62.4-1.26a21.24,21.24,0,0,0,.49-2.6A19.49,19.49,0,0,0,81.83,26.86Z"/><path class="cls-1" d="M33.53,88c.91,5.94,1.58,11.91,2.06,17.9s.79,12,1,18,.19,12-.07,18a97,97,0,0,1-2.09,17.89c.28-3,.48-6,.49-9s.06-6,0-9q-.09-9-.36-17.94L34,106C33.84,100,33.68,94,33.53,88Z"/><path class="cls-1" d="M155.75,97.83A113.31,113.31,0,0,0,156,86a40,40,0,0,0-1.83-11.48,19.78,19.78,0,0,0-2.55-5.07,19.35,19.35,0,0,0-3.94-4.09,48.87,48.87,0,0,0-10.08-5.7c-3.56-1.66-7.19-3.22-10.76-5a68.32,68.32,0,0,1-10.38-6A22.69,22.69,0,0,1,112,44.46a14,14,0,0,1-2.65-5.67,28.11,28.11,0,0,1-.48-6.07c0-2,.1-4,.13-5.92l.73.73-7-.13-7-.16c-4.65-.15-9.3-.24-14-.45,4.66-.2,9.31-.29,14-.44l7-.16,7-.13h.72v.75c0,2,0,4,.06,5.9a28,28,0,0,0,.55,5.7c.8,3.66,3.44,6.49,6.55,8.71a72.77,72.77,0,0,0,10.12,5.77c3.51,1.74,7.11,3.32,10.7,5A50.83,50.83,0,0,1,148.77,64a20.21,20.21,0,0,1,6.68,10,38.15,38.15,0,0,1,1.34,11.88A93.39,93.39,0,0,1,155.75,97.83Z"/><path class="cls-1" d="M156.74,159.82a126.64,126.64,0,0,1-2.42-15.39c-.28-2.58-.44-5.17-.63-7.76s-.24-5.2-.29-7.79,0-5.2,0-7.81.16-5.19.39-7.78a133.81,133.81,0,0,1,1.94-15.46c-.11,5.2-.35,10.35-.39,15.52s-.08,10.33,0,15.49.25,10.32.48,15.48S156.39,154.65,156.74,159.82Z"/><path class="cls-1" d="M84.37,68q0,4-.13,7.94c-.08,2.65-.23,5.3-.49,8A35.23,35.23,0,0,1,82.3,91.8a14.06,14.06,0,0,1-4.5,6.67l.07-.09a3.16,3.16,0,0,1-.53.52l-.5.4-1,.8c-.67.52-1.36,1-2,1.53l1.85-1.77.92-.89.45-.45c.12-.13.33-.34.36-.39l.06-.08h0a14.21,14.21,0,0,0,3.93-6.54,42.62,42.62,0,0,0,1.35-7.7l.79-7.88C83.74,73.28,84,70.64,84.37,68Z"/><path class="cls-1" d="M105.41,68c.37,2.62.63,5.26.87,7.9l.79,7.88a42.61,42.61,0,0,0,1.34,7.7A14.32,14.32,0,0,0,112.35,98h0l0,.08.37.39.45.45.92.89,1.85,1.77c-.7-.5-1.38-1-2-1.53l-1-.8-.5-.4a3.16,3.16,0,0,1-.53-.52l.07.09a14.08,14.08,0,0,1-4.51-6.67A35.79,35.79,0,0,1,106,83.91c-.26-2.65-.41-5.3-.49-8S105.41,70.67,105.41,68Z"/><path class="cls-2" d="M70.68,48.22a21.21,21.21,0,0,0-2,1.34c-.75.39-1,.9-.44,1.53l50.76,56.76,4.43-1-51-58.5A1.45,1.45,0,0,0,70.68,48.22Z"/><path class="cls-1" d="M119.05,108.84a1,1,0,0,1-.74-.33L67.55,51.75A1.85,1.85,0,0,1,67,50.16a2.1,2.1,0,0,1,1.18-1.44,17.42,17.42,0,0,1,2.07-1.4h0a2.34,2.34,0,0,1,2.95.37l51,58.51a1,1,0,0,1-.53,1.62l-4.43,1A.86.86,0,0,1,119.05,108.84Zm-50-58.35,50.31,56.27,2.24-.51L71.72,49c-.08-.09-.43,0-.62.12h0a18.91,18.91,0,0,0-1.78,1.23.57.57,0,0,1-.13.08Zm1.59-2.27h0Z"/><path class="cls-2" d="M120.44,48.55c1.42.15,4.06,2.07,2.62,3.64-7.5,8.16-55.66,57.37-55.66,57.37l-3.73-3.15L118.59,49.3A2.16,2.16,0,0,1,120.44,48.55Z"/><path class="cls-1" d="M67.4,110.56a1,1,0,0,1-.64-.24L63,107.16a1,1,0,0,1-.08-1.44l54.93-57.11a3.1,3.1,0,0,1,2.67-1,5.08,5.08,0,0,1,3.76,2.77,2.4,2.4,0,0,1-.52,2.54c-7.43,8.07-55.2,56.9-55.68,57.39A1,1,0,0,1,67.4,110.56Zm-2.29-4.23,2.22,1.88c5.76-5.89,48.06-49.15,55-56.69a.41.41,0,0,0,.12-.49,3.17,3.17,0,0,0-2.12-1.5h0a1.18,1.18,0,0,0-1,.46Z"/><path class="cls-3" d="M54.46,87.15s10.75,50.6,4.29,71.8h71.54s-3.81-42,2.25-71.8l-7,3.11a78.49,78.49,0,0,1-64.16,0Z"/><path class="cls-1" d="M130.29,159.94H58.75a1,1,0,0,1-.8-.4,1,1,0,0,1-.15-.88c6.31-20.71-4.2-70.8-4.31-71.31a1,1,0,0,1,1.38-1.11l7,3.12a77.59,77.59,0,0,0,63.34,0l7-3.12a1,1,0,0,1,1.37,1.1c-6,29.3-2.27,71.1-2.23,71.52a1,1,0,0,1-.25.76A1,1,0,0,1,130.29,159.94Zm-70.23-2h69.16c-.53-6.64-3-42.38,2-69.13L126,91.17a79.58,79.58,0,0,1-65,0l-5.2-2.33C56.63,93,58.57,103.24,60,115,62.41,134.47,62.42,148.92,60.06,158Z"/></svg>