<svg id="图层_1" data-name="图层 1" xmlns="http://www.w3.org/2000/svg" viewBox="0 0 186 186"><defs><style>.cls-1{fill:#5b3b2f;}.cls-2{fill:#f1e0e6;}</style></defs><path class="cls-1" d="M123.05,140.06c.08-5.78.3-11.57.61-17.35.16-2.89.32-5.79.64-8.69s.71-5.76,1.09-8.63c.78-5.73,1.64-11.45,2.49-17.17l1.26-8.46.7,8.53q1.47,17.74,2.53,35.51.51,8.88.88,17.78c.16,5.94.4,11.88.23,17.81-.29-5.93-.72-11.84-1.21-17.75l-1.45-17.75-3-35.46,2,.07-2.6,17.14c-.42,2.85-.85,5.71-1.22,8.56s-.6,5.71-.83,8.59c-.43,5.75-.81,11.52-1.18,17.29"/><path class="cls-1" d="M53.41,159.39c.05-5.86.22-11.72.31-17.59l.47-17.58.51-17.57L55,97.89c0-2.9.16-5.9.07-8.7l-.23-6.89L57,88.81c1.82,5.51,3.58,11,5.14,16.63.77,2.8,1.52,5.61,2.1,8.49A44.42,44.42,0,0,1,65,122.7c.09,5.82-.16,11.61-.44,17.4s-.7,11.56-1.23,17.33c.09-5.79.25-11.57.27-17.36s.09-11.57-.13-17.32a46.24,46.24,0,0,0-.93-8.47c-.61-2.79-1.39-5.57-2.2-8.33-1.62-5.53-3.38-11-5.22-16.51L57,89c.1,3.07,0,5.93-.1,8.89l-.32,8.8c-.26,5.85-.51,11.71-.84,17.57s-.67,11.7-1,17.56S53.91,153.55,53.41,159.39Z"/><path class="cls-1" d="M79.93,26.63A17,17,0,0,1,80.45,32c0,.91-.14,1.81-.28,2.72l-.3,1.33-.16.67-.21.65a22.84,22.84,0,0,1-5.86,9.23l-1,.95a9.35,9.35,0,0,1-1,.89l-2.23,1.63c-.76.52-1.57.93-2.36,1.4l-1.19.69c-.4.23-.83.39-1.24.58-3.35,1.58-6.69,2.69-10,4.13A81.16,81.16,0,0,0,45,61.43a29.84,29.84,0,0,0-8.2,6.36,20,20,0,0,0-4.42,9.29,46.08,46.08,0,0,0-.7,10.62,40.78,40.78,0,0,1-.25-10.81A17.13,17.13,0,0,1,32,74.22a16.17,16.17,0,0,1,.86-2.63l.54-1.28a9.67,9.67,0,0,1,.69-1.21l.67-1.21c.28-.38.57-.74.86-1.1a30,30,0,0,1,8.45-7A81.48,81.48,0,0,1,53.84,55c3.31-1.4,6.77-2.57,9.94-4,.4-.17.82-.32,1.2-.52l1.15-.62c.77-.42,1.56-.8,2.29-1.27l2.16-1.49a8.55,8.55,0,0,0,1-.8l1-.85a22.9,22.9,0,0,0,6-8.43l.26-.61.19-.62.4-1.26a25.86,25.86,0,0,0,.49-2.6A20.24,20.24,0,0,0,79.93,26.63Z"/><path class="cls-1" d="M31.37,87.71q1.44,8.88,2.22,17.85c.54,6,.9,12,1.17,17.94s.3,12,.09,18a96.86,96.86,0,0,1-1.92,17.89c.25-3,.42-6,.41-8.95s0-6-.09-9q-.16-9-.52-17.91L32,105.61C31.79,99.69,31.57,93.71,31.37,87.71Z"/><path class="cls-1" d="M153.73,97.49A113,113,0,0,0,154,85.71a40.12,40.12,0,0,0-1.82-11.46,20.27,20.27,0,0,0-2.55-5.07,19.5,19.5,0,0,0-3.93-4.08,48.76,48.76,0,0,0-10.07-5.69c-3.55-1.66-7.18-3.22-10.74-5a69.37,69.37,0,0,1-10.37-6,22.66,22.66,0,0,1-4.48-4.21,14,14,0,0,1-2.65-5.66,28,28,0,0,1-.47-6.06c0-2,.09-3.95.12-5.91l.73.73-7-.13-7-.16c-4.65-.15-9.29-.24-13.94-.45,4.65-.2,9.29-.29,13.94-.44l7-.16,7-.13h.72v.75c0,2,0,4,.06,5.89a27.93,27.93,0,0,0,.55,5.69c.8,3.66,3.44,6.48,6.54,8.7a73.62,73.62,0,0,0,10.11,5.76c3.5,1.74,7.1,3.32,10.68,5a50.64,50.64,0,0,1,10.32,6.11,20.13,20.13,0,0,1,6.67,10,38,38,0,0,1,1.34,11.86A93.08,93.08,0,0,1,153.73,97.49Z"/><path class="cls-1" d="M154.72,159.39A126.91,126.91,0,0,1,152.31,144c-.28-2.58-.44-5.16-.63-7.75s-.24-5.19-.29-7.78,0-5.19,0-7.79.16-5.19.39-7.77a131.3,131.3,0,0,1,1.93-15.44c-.11,5.19-.35,10.34-.39,15.5s-.08,10.31,0,15.46.25,10.31.48,15.46S154.37,154.22,154.72,159.39Z"/><path class="cls-1" d="M82.46,67.72c0,2.65,0,5.29-.13,7.93s-.23,5.29-.49,7.93a35.79,35.79,0,0,1-1.44,7.89,14.08,14.08,0,0,1-4.5,6.65L76,98a2.53,2.53,0,0,1-.53.52l-.5.41-1,.79c-.68.52-1.36,1-2,1.53l1.84-1.77.92-.88.45-.45c.13-.13.33-.35.37-.4l0-.07h0a14.28,14.28,0,0,0,3.93-6.53,42.66,42.66,0,0,0,1.35-7.69l.78-7.87C81.83,73,82.09,70.34,82.46,67.72Z"/><path class="cls-1" d="M103.47,67.72c.36,2.62.62,5.26.87,7.89l.78,7.87a42.66,42.66,0,0,0,1.35,7.69,14.35,14.35,0,0,0,3.92,6.53h0l0,.07s.24.27.37.4l.45.45.91.88,1.85,1.77c-.69-.5-1.37-1-2.05-1.53L111,99l-.5-.41A2.52,2.52,0,0,1,110,98l.07.09a14.08,14.08,0,0,1-4.5-6.65,35.79,35.79,0,0,1-1.44-7.89c-.26-2.64-.41-5.28-.49-7.93S103.47,70.37,103.47,67.72Z"/><path class="cls-2" d="M53.32,55.71v-.07c-3,2.17-4.63,2.62-4.63,6.5,0,14.67-.26,29.48,1.7,44.05C52.64,123,58.74,139,61.16,155.61a2.16,2.16,0,0,0,.45,1.22,2.06,2.06,0,0,0,1.28.48,216.61,216.61,0,0,0,55.56.17,3.52,3.52,0,0,0,3.76-3,274.46,274.46,0,0,0,12.63-81.08L135,62a6.15,6.15,0,0,0-.34-2.6c-.81-1.88-3.13-2.49-5.15-2.86-1,20.73-36.51,72.4-36.51,72.4S54.45,72,53.32,55.71Z"/><path class="cls-1" d="M91.33,160.17a216.64,216.64,0,0,1-28.56-1.88,2.54,2.54,0,0,1-2.59-2.54,225.87,225.87,0,0,0-5.27-23.92,222.62,222.62,0,0,1-5.51-25.51c-1.76-13.08-1.74-26.5-1.71-39.48v-4.7c0-3.83,1.61-4.93,3.83-6.45.37-.26.78-.53,1.21-.85a1,1,0,0,1,1-.09,1,1,0,0,1,.56.85l-.94.1h0l1-.06c1,14.55,33.09,63.15,38.66,71.48,5.31-7.9,34.58-52.21,35.51-70.68a1,1,0,0,1,.38-.72,1,1,0,0,1,.79-.2c1.55.28,4.77.88,5.88,3.43a7.1,7.1,0,0,1,.42,3l-.12,11.43a276.79,276.79,0,0,1-12.68,81.37,4.44,4.44,0,0,1-4.58,3.7A217.62,217.62,0,0,1,91.33,160.17ZM52.53,57.39c-2.07,1.43-2.86,2-2.86,4.75v4.7c0,12.91-.05,26.27,1.69,39.21,1.15,8.56,3.35,17.06,5.47,25.28a230.13,230.13,0,0,1,5.31,24.13,1.85,1.85,0,0,0,.18.68,1.64,1.64,0,0,0,.7.19,216,216,0,0,0,55.31.17,3.82,3.82,0,0,0,2.13-.68,4,4,0,0,0,.8-1.66,274.89,274.89,0,0,0,12.59-80.79L134,61.94a5.61,5.61,0,0,0-.25-2.2c-.5-1.13-1.83-1.69-3.35-2.05-.9,8.88-7.18,23.43-18.69,43.27-8.91,15.36-17.81,28.36-17.9,28.49a1,1,0,0,1-.82.43h0a1,1,0,0,1-.82-.43C90.61,127.19,55.71,75.49,52.53,57.39Z"/></svg>