<svg id="图层_1" data-name="图层 1" xmlns="http://www.w3.org/2000/svg" viewBox="0 0 186 186"><defs><style>.cls-1{fill:#5b3b2f;}.cls-2,.cls-4{fill:#9b9692;}.cls-3{fill:#f7e4eb;}.cls-4{opacity:0;}</style></defs><path class="cls-1" d="M98.56,183.25a3.1,3.1,0,0,1-1.84-.63c-2.78-2-4-4.34-3.84-7.21l0-.59a15.37,15.37,0,0,1,.31-2.61c1.3-5.51,0-10.82-1.33-16C89.61,147.16,87,136.86,85,126.62a33.85,33.85,0,0,1-.47-6.63c0-.63,0-1.26,0-1.88A37.5,37.5,0,0,0,83.9,113l.49-.1A38.82,38.82,0,0,1,85,118.1c0,.63,0,1.25,0,1.88a33.54,33.54,0,0,0,.46,6.54c2.07,10.23,4.66,20.53,6.94,29.61,1.3,5.2,2.65,10.57,1.32,16.19a15.32,15.32,0,0,0-.29,2.53l0,.6c-.18,2.68,1,4.89,3.64,6.76a2.51,2.51,0,0,0,3.7-.67,6.2,6.2,0,0,0,1.16-3.67,31.39,31.39,0,0,0-1.62-9.48,26.81,26.81,0,0,1-.6-2.88,17.15,17.15,0,0,0-1.06-4.17c-.44-1-1.19-2.73-.07-4.15,2.64-3.33,1.85-6.87,1-10.61a32.14,32.14,0,0,1-.74-4.2.56.56,0,0,0-.08-.15,1,1,0,0,1-.14-.27l-.06-.18a1.53,1.53,0,0,1-.14-.79c.23-1.44.36-2.87.48-4.25s.23-2.53.42-3.84c1.06-7.27.77-13.74-.88-19.22l-.29-1c-1.25-4.09-2.53-8.31-.75-12.47l.46.19c-1.71,4-.51,8,.77,12.14l.29,1c1.67,5.56,2,12.1.89,19.45-.19,1.29-.3,2.57-.41,3.8-.13,1.4-.25,2.84-.49,4.29a1.33,1.33,0,0,0,.12.54c0,.07.05.13.07.2a1.15,1.15,0,0,0,.08.15.83.83,0,0,1,.16.38,31.37,31.37,0,0,0,.73,4.13c.82,3.7,1.67,7.51-1.11,11-.87,1.09-.41,2.4.13,3.64a18.06,18.06,0,0,1,1.1,4.29,27.66,27.66,0,0,0,.58,2.82,31.91,31.91,0,0,1,1.64,9.63,6.61,6.61,0,0,1-1.26,4A3.22,3.22,0,0,1,98.56,183.25Z"/><path class="cls-1" d="M98,159.24c-1.28-4.09-1.44-8.59-1.6-13l0-1.12c0-1-.07-2.06-.11-3.09a124.24,124.24,0,0,0-.93-13.58c-.32-2.3-.84-4.63-1.35-6.89a67.27,67.27,0,0,1-1.61-9.18c-.29-3.54-.45-7.24-.49-11.31h.5c0,4.06.2,7.75.48,11.27a66.54,66.54,0,0,0,1.61,9.11c.51,2.27,1,4.61,1.36,6.93a125.49,125.49,0,0,1,.93,13.63c0,1,.07,2.06.11,3.09l0,1.12c.16,4.32.32,8.79,1.57,12.82Z"/><path class="cls-1" d="M96.14,112.31a19.32,19.32,0,0,1,1-13.66,119.18,119.18,0,0,0,4.46-12A74.76,74.76,0,0,0,105,70.37c.48-5.76-1-13.84-3.66-20.11a.32.32,0,0,1,.1-.39l.06-.06h.17l.18,0c1.52,1.1,4.19,3.42,5,4.11,1.09,1,2.14.42,3.47-.27l.06,0a24.54,24.54,0,0,0,4.8-3.57q.61-.57,1.26-1.11c4.09-3.48,7.71-6.8,10.5-12.08.93-1.76,1-3.16.19-4.53a18.35,18.35,0,0,0-1.91-2.77c-2.38-2.76-5-5.41-7.47-8-2.8-2.88-5.7-5.85-8.32-9a9.92,9.92,0,0,0-1.61-1.41l-.26-.19c-1.44-1.1-3.24-1.4-5.65-1-2.65.49-5.91.31-7.1-1.67a4.77,4.77,0,0,1-.56-2.08,14.19,14.19,0,0,1,.06-3.05l-7.63.19a11.16,11.16,0,0,1,.08,2.76c-.21,2.12-1,3.19-2.87,3.68-.93.25-1.87.53-2.77.8-1.24.38-2.52.76-3.81,1.07-3,.71-4.55,2.3-5,5a99.67,99.67,0,0,0-1,12l0,.49c-.19,4.08-.35,8.16-.51,12.25l-.15,3.91a4.39,4.39,0,0,1-.83,2.67c-3.13,3.95-4.38,8.79-5.59,13.47L64,62,62.41,68.7l-.25-.06.24.07c-.18.61-.36,1.33-.52,2a24.93,24.93,0,0,1-.74,2.66c-.25.66-.52,1.32-.78,2-.52,1.29-1,2.64-1.49,3.93-.81,2.4-.73,4.24.24,5.63a9,9,0,0,0,1.2,1.47,3.93,3.93,0,0,0,2.24,1c.24,0,.82.11,1,0a.15.15,0,0,0,.06-.11.11.11,0,0,0,0-.09.3.3,0,0,0-.22-.1,3.12,3.12,0,0,1-1.42-.48l-.4-.22-.22-.13a2.72,2.72,0,0,1-1.12-1.72,6.55,6.55,0,0,1,.31-3.35l0-.14a4.22,4.22,0,0,1,1-1.88c.28-.27.54-.36.76-.25s.35.41.32.91a3.79,3.79,0,0,1,0,.39c-.06.7-.26,2.86.21,3.28a.23.23,0,0,0,.2,0c.13,0,.17-.11.13-.52,0-.08,0-.16,0-.23a2.56,2.56,0,0,1,.23-1,4.76,4.76,0,0,0,.22-.67,4.39,4.39,0,0,1,.31-.9,6.3,6.3,0,0,0,.59-3.8,8.74,8.74,0,0,1,.91-5.55c1.19-2.18,2.29-4.46,3.35-6.66.59-1.22,1.19-2.47,1.81-3.71h0l.2-.36c.34-.68.7-1.36,1-2a36.6,36.6,0,0,0,3.59-11.84c.58-4.28,1.68-12.68,2.1-17l.12-1.2.37,1.15c.27.83.7,2.69,1.11,4.48s.85,3.66,1.11,4.47c2.16,6.62,1.15,12.09-1,18.27a19.48,19.48,0,0,0,.16,2.84,13.39,13.39,0,0,1,.13,3.31,24.19,24.19,0,0,1-2.16,4.15C76.25,68.26,75.78,69,76,73c.1,1.53.15,3,.21,4.35a61.83,61.83,0,0,0,1,10.12q1.17,6.08,2.38,12.14,1.17,5.91,2.33,11.85l-.5.09q-1.14-5.93-2.33-11.85T76.7,87.61a64.18,64.18,0,0,1-1-10.2c0-1.38-.1-2.81-.2-4.34-.27-4.2.25-5,1.3-6.7A24.13,24.13,0,0,0,79,62.3a21.2,21.2,0,0,0-.16-3.07,13.4,13.4,0,0,1-.14-3c2.14-6.09,3.14-11.47,1-18-.27-.83-.7-2.7-1.12-4.51-.26-1.12-.52-2.27-.75-3.16-.49,4.56-1.43,11.82-2,15.7a38.17,38.17,0,0,1-4.69,14c-.69,1.36-1.35,2.73-2,4.07C68.09,66.57,67,68.85,65.79,71a8.22,8.22,0,0,0-.85,5.25,6.86,6.86,0,0,1-.64,4.09,3.82,3.82,0,0,0-.28.8,4.5,4.5,0,0,1-.24.74,2.09,2.09,0,0,0-.19.81c0,.06,0,.12,0,.19a1.49,1.49,0,0,1,0,.59c.42-.06.76-.07.94.1a.37.37,0,0,1,.13.3c0,.31-.41.54-.8.69.52-.06.95-.07,1.18.22a.47.47,0,0,1,.08.49c-.18.44-1,.61-2.4.77l-.3,0a.68.68,0,0,1-.17,0,2.59,2.59,0,0,0,1.13.39.79.79,0,0,1,.58.26.62.62,0,0,1,.17.46.62.62,0,0,1-.24.47,2,2,0,0,1-1.37.17A4.49,4.49,0,0,1,60,86.79a8.91,8.91,0,0,1-1.28-1.55c-1.07-1.53-1.17-3.52-.31-6.08.44-1.31,1-2.65,1.5-4,.26-.67.53-1.34.78-2a23,23,0,0,0,.72-2.59c.17-.7.34-1.43.53-2.05l1.75-7.13c1.22-4.73,2.49-9.63,5.68-13.66a3.91,3.91,0,0,0,.73-2.38l.15-3.91c.16-4.09.32-8.17.51-12.26l0-.49a98.84,98.84,0,0,1,1-12.06c.48-2.88,2.25-4.65,5.39-5.4,1.27-.3,2.54-.69,3.78-1.06.9-.27,1.84-.55,2.77-.8C85.39,9,86.07,8.1,86.26,6.17a10.64,10.64,0,0,0-.13-2.91l0-.29,8.82-.22L94.85,3a13.6,13.6,0,0,0-.1,3.24,4.33,4.33,0,0,0,.49,1.86c1.37,2.27,5.72,1.6,6.57,1.44,2.57-.48,4.49-.14,6.06,1.05l.26.19a9.9,9.9,0,0,1,1.68,1.49c2.62,3.13,5.51,6.1,8.31,9,2.5,2.57,5.09,5.23,7.48,8a18.68,18.68,0,0,1,2,2.85c.88,1.51.82,3.11-.19,5-2.83,5.36-6.48,8.71-10.61,12.22-.43.36-.84.73-1.26,1.1a24.41,24.41,0,0,1-4.9,3.65l-.06,0c-1.38.71-2.68,1.38-4,.19s-3.22-2.77-4.45-3.72c2.6,6.33,4,14,3.47,19.8A74.61,74.61,0,0,1,102,86.79a120.19,120.19,0,0,1-4.48,12.06,18.93,18.93,0,0,0-.93,13.32ZM60.7,84.21A1.52,1.52,0,0,0,61,85a1.45,1.45,0,0,0,1.32.63l.33,0c1.61-.18,1.94-.37,2-.47a2.5,2.5,0,0,0-1,0,3.4,3.4,0,0,1-1.93-.09A4.53,4.53,0,0,1,60.7,84.21Zm.11-1a1.31,1.31,0,0,0,.72.89l.07,0a1.6,1.6,0,0,0,1.45.2A3.94,3.94,0,0,0,64,84a4.62,4.62,0,0,0-.53.07l-.24,0a3.35,3.35,0,0,1-1.17-.13A4.51,4.51,0,0,1,60.81,83.21Zm-.12-.75h0a5.52,5.52,0,0,0,1.49,1,8.12,8.12,0,0,1-.13-3.34,3.18,3.18,0,0,0,0-.36,1.08,1.08,0,0,0,0-.43,2.37,2.37,0,0,0-.2.16A3.87,3.87,0,0,0,61,81.14l0,.14A8.77,8.77,0,0,0,60.69,82.46ZM108.9,50.23c-.89,0-1.81-.69-3.25-2.43-.34-.4-.68-.86-1-1.35a15.14,15.14,0,0,0-3-3.34l-.11-.07a4.33,4.33,0,0,0-.64-.36,1.51,1.51,0,0,1-.81-1.63c.13-.69.26-1.33.38-2,.28-1.45.56-3,1-4.41.16-.61.32-1.23.47-1.84a35.48,35.48,0,0,1,1.54-5.07,5.1,5.1,0,0,0,.3-3.2,2.22,2.22,0,0,1,.76-2.53c1-.74,1.92,0,2.58.48s1.12.83,1.75,1.26A23.63,23.63,0,0,1,112,26.23c2.14,2.15,4.45,4.19,6.68,6.16l1.93,1.71.14.12c.27.22.54.45.54.8a.89.89,0,0,1-.39.7h0a31.56,31.56,0,0,0-5.52,7.13c-.83,1.32-1.69,2.68-2.64,3.95-1.61,2.17-2.58,3.4-3.75,3.43ZM102,42.77a15.38,15.38,0,0,1,3,3.38c.36.48.7.94,1,1.33,1.33,1.59,2.16,2.25,2.87,2.25h0c.93,0,1.88-1.24,3.36-3.23.94-1.25,1.79-2.61,2.61-3.92a32.15,32.15,0,0,1,5.61-7.23h0c.15-.13.23-.25.23-.33s-.19-.27-.36-.42l-.16-.13c-.63-.57-1.28-1.14-1.92-1.7-2.24-2-4.56-4-6.71-6.19a23.09,23.09,0,0,0-3.1-2.41c-.63-.43-1.23-.85-1.77-1.27-.74-.58-1.31-.95-2-.48a1.75,1.75,0,0,0-.56,2,5.7,5.7,0,0,1-.32,3.51,34.14,34.14,0,0,0-1.52,5c-.16.62-.31,1.24-.48,1.85-.39,1.44-.67,2.93-1,4.38-.12.65-.24,1.29-.38,1.94s.29,1,.53,1.11a5.39,5.39,0,0,1,.81.47Z"/><path class="cls-2" d="M105.34,47.36a.24.24,0,0,1-.2-.11c-.27-.36-.5-.73-.73-1.08a11.75,11.75,0,0,0-1.55-2.05,12.32,12.32,0,0,0-3.21-2.2c-.51-.26-1.09-.52-1.8-.82L97.67,41c-.19-.09-.77-.36-.9-.23s0,0,0,.06c.05.41,1.36,1.2,1.79,1.46l.34.22.76.55a10.74,10.74,0,0,1,3.18,3,.26.26,0,0,1-.09.35.27.27,0,0,1-.35-.1,10.47,10.47,0,0,0-3-2.83l-.78-.56a2.91,2.91,0,0,0-.29-.19c-.94-.57-2-1.23-2-1.83a.58.58,0,0,1,.17-.48c.39-.38,1.07-.05,1.48.14l.16.07c.72.31,1.3.58,1.83.84a12.68,12.68,0,0,1,3.33,2.3,11.15,11.15,0,0,1,1.62,2.12c.23.35.46.71.71,1.07a.24.24,0,0,1-.05.35A.3.3,0,0,1,105.34,47.36Z"/><path class="cls-2" d="M102.24,47.59a.27.27,0,0,1-.2-.09,7,7,0,0,0-3.29-1.81l-.18-.07c-.7-.23-1.39-.43-1.92-.58l-.12,0c-.42-.11-1.11-.3-1.28-.75a.63.63,0,0,1,.11-.62c.25-.38.85-.31,1.2-.28h.08c1.12.11,2.61.26,4.09.55a.25.25,0,1,1-.1.49c-1.46-.28-2.93-.43-4-.54h-.08c-.16,0-.65-.06-.74.07a.18.18,0,0,0,0,.15c.08.21.73.38.94.44l.13,0c.53.15,1.23.36,1.94.6l.18.06a7.35,7.35,0,0,1,3.53,2,.24.24,0,0,1,0,.35A.24.24,0,0,1,102.24,47.59Z"/><path class="cls-2" d="M108.23,55a2.56,2.56,0,0,1-.39,0A3.82,3.82,0,0,1,106,53.8a16.29,16.29,0,0,0-4.9-3.44,9,9,0,0,0-3.65-.44h-.79a.6.6,0,0,1-.56-.36.73.73,0,0,1,.37-.89,3.36,3.36,0,0,1,.77-.37,5.55,5.55,0,0,1,3.79.15c.25.09.5.18.75.29h0a5.3,5.3,0,0,0-1.79-.91,8.35,8.35,0,0,0-2.41-.34h-.18c-.84,0-2.56,0-2.58-1.06A.63.63,0,0,1,95,46a1.75,1.75,0,0,1,1.09-.32h.28c1.24,0,2.53,0,3.8.05a.25.25,0,1,1,0,.5c-1.26,0-2.54,0-3.78-.05h-.29a1.17,1.17,0,0,0-.72.17.14.14,0,0,0,0,.11c0,.59,1.56.57,2.07.56h.19a8.66,8.66,0,0,1,2.56.36c.7.22,2.36.85,2.57,2a.26.26,0,0,1-.1.26.28.28,0,0,1-.28,0,6.69,6.69,0,0,0-.75-.36,7.66,7.66,0,0,0-.72-.27,4.82,4.82,0,0,0-3.42-.16,3.55,3.55,0,0,0-.69.31c-.23.16-.19.26-.17.3s0,0,.09,0h.77a9.52,9.52,0,0,1,3.84.47,16.42,16.42,0,0,1,5.06,3.55,3.5,3.5,0,0,0,1.61,1,3.15,3.15,0,0,0,2.09-.63.25.25,0,0,1,.35.08.27.27,0,0,1-.08.35A4.11,4.11,0,0,1,108.23,55Z"/><path class="cls-3" d="M100.64,122.21c-1.81-.11-3.65-.11-5.43-.11a47.55,47.55,0,0,1-9.9-.72,4,4,0,0,1-2.55-2,3.14,3.14,0,0,0-1.84-1.75c-4-.93-4.12-3.28-4-7.05,0-.63.05-1.27,0-1.89a116.3,116.3,0,0,0-1.83-17.12c-.65-4.15-1.32-8.43-1.63-12.66-.29-13.32,1.84-24.34,6.93-35.69l.07-.17a3.8,3.8,0,0,0,.3-3.57c-3.2-5.69-3-11.77-1.67-19.73a12,12,0,0,0-.68-5.18l-.07-.25a2.27,2.27,0,0,1,1.25-2.73A7.21,7.21,0,0,1,82.38,11a.36.36,0,0,1,.24.13c2.87,3,5.4,4.35,8,4.35,2.77,0,5.52-1.62,8.66-5.1a.41.41,0,0,1,.29-.13l.5.06c.38,0,.76.09,1.13.15a1.72,1.72,0,0,1,1.2.81,1.87,1.87,0,0,1,.19,1.53c-1,3.27-.23,6.07.61,9,.17.62.35,1.25.52,1.9a8.67,8.67,0,0,1,.14,2.74c-.09.66-.19,1.33-.3,2l-.2,1.27a31.69,31.69,0,0,0-.45,5.35,13.93,13.93,0,0,0,1.1,5.26,17.7,17.7,0,0,0,1.3,2.32,15.44,15.44,0,0,1,1.17,2.08l.82,1.83c.55,1.2,1.12,2.45,1.6,3.69.15.4.3.8.44,1.21a59.69,59.69,0,0,1,1.88,7.13,72,72,0,0,1,1.29,14.47,125.23,125.23,0,0,1-1.31,16.45c-1.11,8.09-1.93,16.16-2.52,22.29-.68,7-2.3,9.12-7.91,10.41h-.1Z"/><path class="cls-1" d="M100,11h0m-.21.23.14,0q.56.06,1.08.15a.72.72,0,0,1,.52.35.86.86,0,0,1,.09.7c-1.11,3.55-.24,6.64.6,9.62.17.61.34,1.24.51,1.88a7.7,7.7,0,0,1,.12,2.35q-.14,1-.3,2c-.07.43-.13.86-.2,1.29a33.16,33.16,0,0,0-.46,5.51,14.84,14.84,0,0,0,1.19,5.65,18.38,18.38,0,0,0,1.37,2.45,15.34,15.34,0,0,1,1.1,1.94c.27.61.54,1.22.82,1.83.54,1.2,1.11,2.44,1.58,3.65q.23.59.42,1.17a59.44,59.44,0,0,1,1.85,7,71.58,71.58,0,0,1,1.27,14.28,124.7,124.7,0,0,1-1.3,16.31c-1.12,8.11-1.94,16.19-2.53,22.33-.66,6.91-2.27,8.4-7,9.51-1.81-.11-3.64-.11-5.4-.11a45.91,45.91,0,0,1-9.69-.7,2.87,2.87,0,0,1-1.88-1.51,4.14,4.14,0,0,0-2.5-2.24c-3.27-.76-3.34-2.31-3.19-6,0-.63.06-1.28,0-1.93A117.89,117.89,0,0,0,76.16,91.4c-.64-4.11-1.31-8.35-1.61-12.52-.29-13.19,1.81-24.07,6.83-35.26l.08-.17c.46-1,1.23-2.73.25-4.47-3-5.43-2.86-11.33-1.55-19.08a12.81,12.81,0,0,0-.71-5.61L79.38,14a1.29,1.29,0,0,1,.68-1.54,6.64,6.64,0,0,1,2-.53c3,3,5.7,4.47,8.5,4.47,3,0,5.93-1.66,9.19-5.2m-.24-2a1.37,1.37,0,0,0-1,.46c-2.88,3.18-5.4,4.77-7.92,4.77-2.32,0-4.65-1.36-7.25-4a1.34,1.34,0,0,0-1-.43h0a8.45,8.45,0,0,0-3.09.7,3.29,3.29,0,0,0-1.82,3.92,11.75,11.75,0,0,1,.73,5C76.92,27.1,76.47,33.74,80,40c.51.92,0,1.91-.42,2.84-5.33,11.9-7.29,23.28-7,36.17.72,10,3.37,19.69,3.45,29.72,0,4-1.23,8.53,4.69,9.9.47.11.85.64,1.19,1.27a5,5,0,0,0,3.21,2.5c5.1,1.11,10.33.53,15.49.85h.08a1.65,1.65,0,0,0,.31,0c6.11-1.4,8-4,8.67-11.29s1.5-14.85,2.52-22.25a127.61,127.61,0,0,0,1.32-16.57,73,73,0,0,0-1.31-14.68,59.1,59.1,0,0,0-1.92-7.25c-.14-.42-.29-.83-.45-1.25-.72-1.88-1.62-3.72-2.43-5.56-.69-1.57-1.79-2.84-2.47-4.4a12.82,12.82,0,0,1-1-4.89,29.91,29.91,0,0,1,.44-5.17c.17-1.09.35-2.19.5-3.29a9.84,9.84,0,0,0-.16-3.11c-.94-3.71-2.27-6.78-1.14-10.41a2.83,2.83,0,0,0-2.19-3.63c-.53-.09-1.07-.14-1.61-.21Z"/><path class="cls-1" d="M79.59,38.7a42.61,42.61,0,0,0,6.23,1,36.32,36.32,0,0,0,6.25.15,53.65,53.65,0,0,0,6-1.05A43.76,43.76,0,0,0,104,37h0a.1.1,0,0,1,.11.16,12.64,12.64,0,0,1-5.48,3.66,19.36,19.36,0,0,1-6.54.72,37.3,37.3,0,0,1-12.58-2.6.1.1,0,0,1-.06-.13A.11.11,0,0,1,79.59,38.7Z"/><rect class="cls-4" width="186" height="186"/></svg>