<svg id="图层_1" data-name="图层 1" xmlns="http://www.w3.org/2000/svg" viewBox="0 0 186 186"><defs><style>.cls-1{fill:#5b3b2f;}.cls-2{fill:#f9e6ed;}.cls-3{fill:#9b9692;opacity:0;}</style></defs><path class="cls-1" d="M97.86,179.26h-.5a32.47,32.47,0,0,0-1.66-9.73,25.6,25.6,0,0,1-.61-2.94A18,18,0,0,0,94,162.3c-.46-1.05-1.22-2.79-.07-4.25,2.7-3.42,1.89-7,1-10.88a33.54,33.54,0,0,1-.76-4.31.56.56,0,0,0-.08-.15,1.46,1.46,0,0,1-.15-.28l-.06-.19a1.55,1.55,0,0,1-.14-.8c.23-1.47.37-2.94.49-4.36s.24-2.59.43-3.93c1.09-7.46.79-14.09-.9-19.72a19.54,19.54,0,0,1,1-13.78,118.06,118.06,0,0,0,4.5-12.12,75.11,75.11,0,0,0,3.51-16.41c.49-5.82-1-14-3.69-20.3a.33.33,0,0,1,.09-.39l.07-.06h.18l.17,0c1.53,1.11,4.22,3.46,5,4.15,1.11,1,2.17.43,3.51-.26l.07,0A24.24,24.24,0,0,0,113,50.65c.43-.37.85-.75,1.28-1.11,4.13-3.52,7.78-6.86,10.59-12.19.94-1.79,1-3.2.2-4.58A18.4,18.4,0,0,0,123.15,30c-2.4-2.79-5-5.47-7.53-8.06-2.83-2.9-5.76-5.91-8.41-9.08a10.11,10.11,0,0,0-1.62-1.43l-.26-.19c-1.46-1.11-3.28-1.42-5.71-1-2.68.5-6,.31-7.16-1.68a4.83,4.83,0,0,1-.57-2.09A14.56,14.56,0,0,1,92,3.39l-7.72.19a10.94,10.94,0,0,1,.09,2.79c-.21,2.14-1,3.22-2.9,3.71-.93.25-1.87.54-2.78.81-1.25.38-2.55.77-3.85,1.08-3,.71-4.6,2.32-5.06,5a99.62,99.62,0,0,0-1,12.14l0,.47c-.19,4.14-.35,8.28-.52,12.42L68,45.93a4.37,4.37,0,0,1-.84,2.69c-3.16,4-4.42,8.88-5.64,13.61l-.12.46-1.65,6.73-.24-.06.24.07c-.19.62-.36,1.34-.53,2a21.26,21.26,0,0,1-.75,2.68c-.25.67-.52,1.34-.79,2-.52,1.31-1.06,2.66-1.5,4-.81,2.42-.73,4.28.24,5.69a9.4,9.4,0,0,0,1.22,1.48,3.9,3.9,0,0,0,2.26,1c.24,0,.83.11,1,0a.15.15,0,0,0,0-.12s0,0,0-.09a.3.3,0,0,0-.22-.1,3.32,3.32,0,0,1-1.44-.48l-.4-.23-.22-.13a2.73,2.73,0,0,1-1.13-1.73A6.66,6.66,0,0,1,57.85,82l0-.14a4.34,4.34,0,0,1,1-1.9c.11-.1.44-.4.77-.25s.34.41.32.92c0,.08,0,.22,0,.39-.07.72-.26,2.89.22,3.31a.19.19,0,0,0,.2,0c.13,0,.17-.11.13-.53,0-.08,0-.16,0-.23a2.56,2.56,0,0,1,.23-1,4.87,4.87,0,0,0,.22-.68,4.26,4.26,0,0,1,.32-.9,6.46,6.46,0,0,0,.59-3.85,8.8,8.8,0,0,1,.92-5.59c1.2-2.2,2.31-4.5,3.38-6.72.6-1.24,1.2-2.49,1.83-3.75h0l.21-.4c.34-.67.69-1.34,1-2a36.91,36.91,0,0,0,3.63-12c.59-4.33,1.7-12.83,2.12-17.18l.12-1.19.37,1.14c.27.85.7,2.72,1.12,4.53s.85,3.69,1.12,4.5c2.18,6.68,1.16,12.21-1,18.44a19.9,19.9,0,0,0,.16,2.87,13.56,13.56,0,0,1,.13,3.33,24.36,24.36,0,0,1-2.17,4.19c-1,1.64-1.5,2.39-1.24,6.47.1,1.54.16,3,.21,4.38a64.31,64.31,0,0,0,1,10.22c.78,4.08,1.59,8.16,2.4,12.24s1.58,8,2.35,12A40.61,40.61,0,0,1,80,118c0,.64,0,1.28,0,1.93a34.4,34.4,0,0,0,.47,6.7c2.12,10.49,4.77,21.05,7.11,30.36,1.34,5.33,2.72,10.83,1.36,16.6a17,17,0,0,0-.3,2.59l0,.61-.5,0,0-.61a15,15,0,0,1,.31-2.67c1.33-5.65,0-11.1-1.36-16.36-2.34-9.33-5-19.89-7.12-30.39a34.75,34.75,0,0,1-.48-6.8c0-.64,0-1.28,0-1.92a39.26,39.26,0,0,0-.56-5.27q-1.16-6-2.35-12c-.81-4.08-1.62-8.16-2.4-12.24a64.39,64.39,0,0,1-1-10.31c0-1.39-.11-2.82-.21-4.36-.27-4.24.26-5.09,1.31-6.76A23.31,23.31,0,0,0,76.45,63a18.83,18.83,0,0,0-.16-3.09,12.69,12.69,0,0,1-.13-3.08c2.16-6.14,3.16-11.58,1-18.12-.27-.83-.7-2.72-1.13-4.55-.26-1.14-.53-2.3-.76-3.21-.49,4.58-1.42,11.78-2,15.87a37.46,37.46,0,0,1-3.68,12.11h0c-.33.66-.67,1.33-1,2-.69,1.37-1.36,2.76-2,4.12-1.07,2.23-2.19,4.54-3.39,6.75a8.23,8.23,0,0,0-.86,5.3,7,7,0,0,1-.64,4.12,4,4,0,0,0-.29.81,4.59,4.59,0,0,1-.24.75,2.09,2.09,0,0,0-.19.81,1.28,1.28,0,0,0,0,.19,1.84,1.84,0,0,1,0,.61c.43-.06.77-.08,1,.09a.36.36,0,0,1,.12.31c0,.31-.43.55-.83.7.54-.07,1-.08,1.22.21a.49.49,0,0,1,.08.5c-.19.44-1,.61-2.42.77l-.3,0a1,1,0,0,1-.19,0,2.68,2.68,0,0,0,1.16.4.84.84,0,0,1,.58.26.63.63,0,0,1,.17.46.61.61,0,0,1-.23.47,1.91,1.91,0,0,1-1.39.17,4.39,4.39,0,0,1-2.55-1.1A9.75,9.75,0,0,1,56,86.11c-1.07-1.54-1.17-3.54-.3-6.12.44-1.33,1-2.69,1.51-4,.27-.67.54-1.34.79-2a25.44,25.44,0,0,0,.73-2.63c.16-.7.34-1.43.53-2.06L61,62.11c1.24-4.78,2.51-9.72,5.74-13.8a4,4,0,0,0,.73-2.4L67.65,42c.17-4.14.33-8.28.52-12.42l0-.47a99,99,0,0,1,1.06-12.2c.49-2.91,2.27-4.69,5.43-5.45,1.29-.3,2.58-.69,3.83-1.07.91-.27,1.85-.56,2.79-.81,1.65-.44,2.34-1.33,2.53-3.28a11.18,11.18,0,0,0-.12-2.93l0-.29,8.88-.23-.05.29a14.41,14.41,0,0,0-.1,3.27,4.26,4.26,0,0,0,.5,1.88c1.38,2.29,5.77,1.61,6.64,1.45,2.58-.48,4.52-.14,6.1,1.06l.26.19a9.78,9.78,0,0,1,1.7,1.51c2.64,3.16,5.56,6.15,8.38,9.05,2.53,2.6,5.15,5.28,7.56,8.08a19,19,0,0,1,2,2.87c.89,1.53.83,3.13-.18,5.06-2.86,5.41-6.54,8.79-10.72,12.34q-.63.54-1.26,1.11a25,25,0,0,1-4.95,3.68l-.06,0c-1.39.72-2.7,1.39-4.07.19-.71-.62-3-2.58-4.5-3.76,2.62,6.39,4,14.17,3.5,20a75.39,75.39,0,0,1-3.53,16.52,121.46,121.46,0,0,1-4.52,12.17,19,19,0,0,0-.94,13.44c1.71,5.69,2,12.4.92,19.93-.2,1.33-.31,2.64-.43,3.91-.13,1.42-.26,2.9-.5,4.39a1.34,1.34,0,0,0,.12.55,1.72,1.72,0,0,1,.07.21.49.49,0,0,0,.09.15.92.92,0,0,1,.16.39,33.37,33.37,0,0,0,.75,4.24c.84,3.79,1.71,7.7-1.14,11.3-.89,1.13-.42,2.46.13,3.73a18.58,18.58,0,0,1,1.13,4.41,27,27,0,0,0,.6,2.89A32.87,32.87,0,0,1,97.86,179.26ZM58,85.06a1.47,1.47,0,0,0,.32.81,1.4,1.4,0,0,0,1.33.64l.33,0c1.63-.19,2-.38,2-.48-.11-.1-.65,0-1,0a3.48,3.48,0,0,1-2-.09A4.46,4.46,0,0,1,58,85.06Zm.12-1a1.36,1.36,0,0,0,.73.92l.07,0a1.59,1.59,0,0,0,1.46.2,4.33,4.33,0,0,0,1-.36,3.54,3.54,0,0,0-.55.06l-.24,0a3.16,3.16,0,0,1-1.18-.13A4.23,4.23,0,0,1,58.14,84.05ZM58,83.31h0a5.65,5.65,0,0,0,1.51,1h0A8.06,8.06,0,0,1,59.41,81c0-.17,0-.3,0-.37a1.11,1.11,0,0,0,0-.44,1,1,0,0,0-.21.16A4,4,0,0,0,58.37,82l0,.14A11.52,11.52,0,0,0,58,83.31Zm48.65-32.53c-.89,0-1.82-.69-3.27-2.45-.34-.4-.69-.87-1.05-1.36a15.19,15.19,0,0,0-3-3.37l-.11-.07a4,4,0,0,0-.65-.37,1.53,1.53,0,0,1-.81-1.64c.13-.69.26-1.34.38-2,.28-1.47.57-3,1-4.45.17-.63.32-1.25.48-1.87a34.77,34.77,0,0,1,1.55-5.11,5.19,5.19,0,0,0,.3-3.23,2.24,2.24,0,0,1,.77-2.55c1-.74,1.93,0,2.59.48s1.14.84,1.77,1.27a22.88,22.88,0,0,1,3.2,2.5c2.16,2.17,4.49,4.22,6.74,6.21l2,1.73.15.12c.26.23.54.46.54.81a1,1,0,0,1-.4.7h0a31.94,31.94,0,0,0-5.57,7.2c-.83,1.33-1.7,2.7-2.66,4-1.63,2.19-2.61,3.43-3.78,3.46Zm-7-7.53a16,16,0,0,1,3.07,3.42c.36.49.7.95,1,1.34,1.34,1.61,2.18,2.27,2.9,2.27h0c.94,0,1.9-1.25,3.39-3.26,1-1.26,1.81-2.63,2.64-4a32.46,32.46,0,0,1,5.66-7.3h0c.15-.13.23-.25.23-.33s-.19-.28-.37-.43l-.15-.13-2-1.72c-2.26-2-4.6-4.06-6.76-6.24a23.35,23.35,0,0,0-3.13-2.43c-.64-.45-1.24-.86-1.79-1.29-.75-.59-1.33-1-2-.48a1.75,1.75,0,0,0-.57,2,5.66,5.66,0,0,1-.33,3.54,35.56,35.56,0,0,0-1.53,5c-.15.62-.31,1.25-.48,1.88-.39,1.44-.68,2.95-1,4.41-.12.65-.25,1.31-.38,2s.29,1,.53,1.12a5.11,5.11,0,0,1,.82.48Z"/><path class="cls-2" d="M87.67,45.26c-2.76,0-5.56,0-8.32-.12h0c0-.11-.08-.22-.13-.33A42.22,42.22,0,0,1,75.39,31.3c-.47-3.4-.79-6.85-1-10.28,0-.73-.06-1.46-.08-2.18,0-1,0-2-.12-2.93A4.34,4.34,0,0,1,74.7,13a3.37,3.37,0,0,1,2.9-1.41,3.19,3.19,0,0,1,1.33.26,8.79,8.79,0,0,1,2.25,1.73,11.34,11.34,0,0,0,2.5,2,10.1,10.1,0,0,0,4.72,1.18h0a8.83,8.83,0,0,0,4.34-1.1,11.88,11.88,0,0,0,2.54-2.17c.46-.46.89-.9,1.31-1.25a5.63,5.63,0,0,1,2.57-1.49,10.27,10.27,0,0,1,1.71-.2,1.92,1.92,0,0,1,1.11.25c.06,0,.27.19.35.75a7.73,7.73,0,0,1-.08,2c0,.27-.07.53-.09.8a14,14,0,0,0,0,2.34l0,.76,0,.94c.07,1.85.14,3.78.11,5.66A56.27,56.27,0,0,1,100,40.6l-.11.35a34.27,34.27,0,0,1-1.5,4.12C94.79,45.2,91.21,45.26,87.67,45.26Z"/><path class="cls-1" d="M100.87,11.53h0a2.63,2.63,0,0,1,.45,0,.3.3,0,0,1,0,.1,7.23,7.23,0,0,1-.08,1.76c0,.27-.07.55-.1.82a15.87,15.87,0,0,0,0,2.49l0,.75,0,1c.07,1.84.14,3.74.11,5.59A55.07,55.07,0,0,1,99,40.27l-.12.37c-.59,1.85-1,2.88-1.2,3.45-3.33.12-6.69.17-10,.17-2.55,0-5.14,0-7.7-.1a41.9,41.9,0,0,1-3.58-13c-.46-3.37-.78-6.8-.95-10.19,0-.72-.06-1.44-.08-2.15,0-1,0-2-.12-3a3.49,3.49,0,0,1,.33-2.33,2.4,2.4,0,0,1,2-.91,2.21,2.21,0,0,1,.91.17,7.55,7.55,0,0,1,2,1.54,12,12,0,0,0,2.72,2.14,11.2,11.2,0,0,0,5.19,1.29,9.81,9.81,0,0,0,4.84-1.23A12.89,12.89,0,0,0,96,14.17,16.41,16.41,0,0,1,97.23,13l.07-.06a4.64,4.64,0,0,1,2-1.22,10,10,0,0,1,1.53-.18m0-2A11.74,11.74,0,0,0,99,9.74a6.64,6.64,0,0,0-3,1.7c-1.21,1-2.35,2.56-3.71,3.33a7.84,7.84,0,0,1-3.85,1,9.13,9.13,0,0,1-4.25-1.06c-1.87-1-2.86-2.83-4.8-3.73a4.24,4.24,0,0,0-1.75-.35,4.34,4.34,0,0,0-3.77,1.91,5.47,5.47,0,0,0-.6,3.47c.12,1.69.11,3.39.2,5.09.17,3.46.5,6.92,1,10.36a42.72,42.72,0,0,0,3.88,13.84c.12.24.14.55.35.71a1.17,1.17,0,0,0,.7.16q4.15.12,8.33.12,5.58,0,11.15-.21c.5,0,1.9-4.57,2.09-5.14a57.84,57.84,0,0,0,2.45-16.85c0-2.21-.07-4.43-.15-6.64a24.7,24.7,0,0,1,0-3,12.48,12.48,0,0,0,.17-3,2,2,0,0,0-.77-1.44,3,3,0,0,0-1.68-.42Z"/><path class="cls-2" d="M94.09,182.13c-5.77,0-11.6-.27-17.34-.79a76.17,76.17,0,0,1-8.37-1.42A79.71,79.71,0,0,0,60,178.48c-.77-.07-1.61-.11-2.71-.11H55.85l-1.48,0a14.45,14.45,0,0,1-6.17-1c-3.7-1.75-3.3-6.15-2.73-8.61,1.06-4.64,2.42-9.3,3.74-13.82.79-2.72,1.61-5.54,2.36-8.33.69-2.57,1.27-5.2,1.83-7.75.26-1.16.51-2.32.78-3.48l4-14.13Q64.08,100.38,70,79.47c.84-3,3.22-10.3,3.24-10.38l-.22.28c.37-.76,1.34-3.91,6-19a56.07,56.07,0,0,0,10.37.95,47.09,47.09,0,0,0,10-1c.84,1.41,2.52,6.8,3.1,8.67.25.82.44,1.44.53,1.67,1.77,4.79,3.51,9.68,5.2,14.4l.16.45c.72,2,1.46,4.07,2.2,6.11,1.25,3.42,2.54,6.95,3.73,10.45l.73,2.15c2.65,7.81,5.4,15.88,8,23.85,6.09,18.58,12.12,37.38,17.45,54,.53,1.67.6,2.81.22,3.48-.53.91-2.15,1.26-4.2,1.71l-1.22.27a174.49,174.49,0,0,1-19.08,3.32A188.9,188.9,0,0,1,94.09,182.13Z"/><path class="cls-1" d="M98.78,51.49c.85,1.88,2.2,6.23,2.69,7.82.3,1,.46,1.46.55,1.73,1.77,4.78,3.51,9.67,5.2,14.4l.15.44q1.09,3.06,2.22,6.12c1.24,3.41,2.52,6.94,3.71,10.42l.73,2.15c2.66,7.81,5.4,15.88,8,23.84,6.07,18.51,12.11,37.34,17.44,54,.62,1.91.4,2.52.31,2.67-.3.53-2,.9-3.54,1.23l-1.23.28a175.48,175.48,0,0,1-19,3.3,189,189,0,0,1-22,1.28c-5.74,0-11.54-.27-17.25-.79a73,73,0,0,1-8.25-1.4,81.36,81.36,0,0,0-8.45-1.45,28,28,0,0,0-2.81-.12l-1.5,0H54.37a13.2,13.2,0,0,1-5.74-.92c-2.91-1.37-2.8-4.83-2.19-7.48,1.06-4.61,2.42-9.26,3.73-13.75.79-2.73,1.61-5.56,2.37-8.36.69-2.59,1.27-5.23,1.84-7.79.25-1.14.5-2.29.76-3.43l4-14q5.92-21,11.83-42c.84-3,3.21-10.26,3.23-10.34h0c.11-.27.2-.57.29-.86l.68-2.21,2.06-6.71,2.47-8a57.62,57.62,0,0,0,9.67.81,49.48,49.48,0,0,0,9.48-.88m.85-2.23A46.25,46.25,0,0,1,89.3,50.37a53.44,53.44,0,0,1-11.06-1.11l-6,19.52h0S69.86,76.15,69,79.2q-7.87,28-15.8,56c-.86,3.73-1.6,7.49-2.6,11.19-2,7.41-4.39,14.72-6.11,22.18-.85,3.72-.55,7.93,3.28,9.74a15.27,15.27,0,0,0,6.6,1.11c1,0,2,0,3,0a25.15,25.15,0,0,1,2.62.11c5.65.56,11.09,2.34,16.71,2.85q8.69.79,17.43.8a189.16,189.16,0,0,0,22.19-1.3,175.74,175.74,0,0,0,19.19-3.33c4.56-1.06,7.71-1.15,5.92-6.75q-8.67-27-17.45-54c-2.85-8.69-5.8-17.35-8.75-26-1.89-5.56-4-11-5.93-16.57-1.77-5-3.53-9.93-5.36-14.87-.42-1.12-3.25-11.08-4.27-11.08Z"/><path class="cls-1" d="M93,52.71c.61,6.51,1.44,13,2.31,19.44l2.76,19.39C99,98,99.8,104.5,100.34,111a156.94,156.94,0,0,1,.57,19.63c-.53-6.52-1.3-13-2.12-19.46S97,98.28,96.09,91.81s-1.74-13-2.32-19.48A167,167,0,0,1,93,52.71Z"/><path class="cls-1" d="M85.42,108.39c.23,5.25.13,10.5-.09,15.75s-.62,10.48-1.18,15.71-1.32,10.43-2.43,15.59a75.74,75.74,0,0,1-2,7.66,25.3,25.3,0,0,1-3.4,7.13,31.24,31.24,0,0,0,2.46-7.4c.58-2.53,1-5.1,1.42-7.67s.77-5.16,1.08-7.75.64-5.18.91-7.78c.59-5.19,1.08-10.4,1.61-15.6S84.82,113.61,85.42,108.39Z"/><path class="cls-1" d="M63.82,143.72a66.84,66.84,0,0,1-1.3,8c-.56,2.63-1.27,5.22-2,7.8s-1.69,5.13-2.75,7.61a30.5,30.5,0,0,1-4,7.1c1-2.53,1.71-5.07,2.48-7.63l2.3-7.66c.8-2.55,1.59-5.1,2.45-7.64S62.77,146.22,63.82,143.72Z"/><path class="cls-1" d="M114.55,113.52c1.07,4.93,2,9.87,3,14.81s1.92,9.88,3,14.79q.74,3.7,1.53,7.38l.78,3.69c.29,1.22.56,2.44.83,3.67,1.13,4.9,2.31,9.77,3.65,14.65a101.53,101.53,0,0,1-5.16-14.26c-1.44-4.85-2.55-9.79-3.59-14.73s-1.84-9.93-2.52-14.93S114.8,118.57,114.55,113.52Z"/><path class="cls-1" d="M82.74,102.31c-.14,2.93-.41,5.82-.71,8.7s-.66,5.75-1,8.63l-1,8.59-1,8.65a45.82,45.82,0,0,1-.59-8.75,87.46,87.46,0,0,1,.62-8.73c.37-2.9.82-5.78,1.43-8.63A71.77,71.77,0,0,1,82.74,102.31Z"/><path class="cls-1" d="M103.08,47.88a.25.25,0,0,1-.2-.1c-.26-.37-.5-.73-.73-1.09a11.52,11.52,0,0,0-1.57-2.07,12.32,12.32,0,0,0-3.23-2.22c-.53-.27-1.11-.53-1.82-.84l-.18-.08c-.19-.09-.78-.37-.92-.23s0,0,0,.06c0,.41,1.37,1.22,1.8,1.48a2.93,2.93,0,0,1,.34.22l.77.56a10.67,10.67,0,0,1,3.21,3,.25.25,0,1,1-.43.25A10.45,10.45,0,0,0,97,44c-.27-.19-.54-.38-.78-.57l-.3-.18c-1-.58-2-1.25-2-1.85a.58.58,0,0,1,.17-.48c.39-.38,1.07-.06,1.48.14l.16.07c.73.31,1.32.58,1.85.85a13.22,13.22,0,0,1,3.37,2.31,12.25,12.25,0,0,1,1.63,2.16c.23.35.46.71.72,1.07a.24.24,0,0,1-.06.34A.21.21,0,0,1,103.08,47.88Z"/><path class="cls-1" d="M100,48.12a.23.23,0,0,1-.2-.1,7.11,7.11,0,0,0-3.32-1.82l-.19-.07c-.7-.24-1.4-.44-1.93-.59l-.12,0c-.42-.11-1.13-.3-1.3-.75a.66.66,0,0,1,.11-.62c.26-.38.86-.32,1.22-.28h.07a41.3,41.3,0,0,1,4.13.55.25.25,0,0,1,.2.29.25.25,0,0,1-.29.2c-1.48-.28-3-.44-4.09-.55h-.07c-.17,0-.67-.07-.76.06a.25.25,0,0,0,0,.16c.08.22.74.39,1,.45l.12,0c.54.15,1.25.36,2,.6l.19.06a7.52,7.52,0,0,1,3.56,2,.25.25,0,0,1,0,.35A.27.27,0,0,1,100,48.12Z"/><path class="cls-1" d="M106,55.6a1.69,1.69,0,0,1-.38,0,3.92,3.92,0,0,1-1.88-1.17,16.21,16.21,0,0,0-5-3.48,9.17,9.17,0,0,0-3.68-.44h-.8a.58.58,0,0,1-.55-.37.72.72,0,0,1,.36-.89,4.18,4.18,0,0,1,.78-.37,5.57,5.57,0,0,1,3.82.15l.76.29h0a5.35,5.35,0,0,0-1.83-.93A8.44,8.44,0,0,0,95.23,48h-.18c-.84,0-2.58,0-2.6-1.06a.63.63,0,0,1,.18-.47,1.74,1.74,0,0,1,1.1-.32H94c1.25,0,2.55,0,3.84,0a.25.25,0,0,1,.24.26.28.28,0,0,1-.26.24c-1.27,0-2.57,0-3.83,0h-.29a1.13,1.13,0,0,0-.72.17A.14.14,0,0,0,93,47c0,.6,1.59.58,2.09.57h.19a8.69,8.69,0,0,1,2.58.37c.71.22,2.39.85,2.6,2a.23.23,0,0,1-.11.25.24.24,0,0,1-.27,0,7.51,7.51,0,0,0-.75-.37l-.73-.28a5,5,0,0,0-3.47-.15,3.22,3.22,0,0,0-.68.31c-.24.17-.2.26-.18.31s0,0,.1,0h.77a9.54,9.54,0,0,1,3.88.48,16.51,16.51,0,0,1,5.1,3.58,3.52,3.52,0,0,0,1.63,1,3.16,3.16,0,0,0,2.11-.64.26.26,0,0,1,.35.08.26.26,0,0,1-.09.35A4.18,4.18,0,0,1,106,55.6Z"/><rect class="cls-3" width="186" height="186"/></svg>