<svg id="图层_1" data-name="图层 1" xmlns="http://www.w3.org/2000/svg" viewBox="0 0 186 186"><defs><style>.cls-1{fill:#5b3b2f;}.cls-2,.cls-4{fill:#9b9692;}.cls-3{fill:#f7e4eb;}.cls-4{opacity:0;}</style></defs><path class="cls-1" d="M109.14,176.54h-.5A31.75,31.75,0,0,0,107,167a27,27,0,0,1-.6-2.89,18,18,0,0,0-1.07-4.22c-.45-1-1.2-2.75-.07-4.18,2.66-3.37,1.87-6.93,1-10.71a32.91,32.91,0,0,1-.75-4.25,1.2,1.2,0,0,0-.08-.15.86.86,0,0,1-.14-.27c0-.06,0-.12-.07-.19a1.6,1.6,0,0,1-.14-.78c.24-1.46.36-2.9.49-4.3s.23-2.55.42-3.87c1.08-7.34.78-13.87-.88-19.41a19.23,19.23,0,0,1,.94-13.57,115.84,115.84,0,0,0,4.43-11.93A74.37,74.37,0,0,0,114,70.07c.48-5.73-1-13.76-3.64-20a.33.33,0,0,1,.1-.39l.06,0h.17l.18,0c1.56,1.13,4.38,3.6,4.93,4.08,1.1,1,2.14.42,3.46-.26l.06,0a23.56,23.56,0,0,0,4.76-3.56l1.26-1.09c4.06-3.46,7.66-6.76,10.43-12,.92-1.76,1-3.15.19-4.51a19.15,19.15,0,0,0-1.9-2.75c-2.36-2.74-4.94-5.38-7.42-7.93-2.79-2.86-5.67-5.82-8.27-8.94a9.4,9.4,0,0,0-1.6-1.4l-.25-.19c-1.44-1.09-3.22-1.39-5.62-.95-2.63.49-5.87.3-7.06-1.67a4.64,4.64,0,0,1-.55-2.06,14,14,0,0,1,.06-3l-7.59.19a10.53,10.53,0,0,1,.08,2.74c-.2,2.11-1,3.17-2.85,3.66-.92.25-1.84.52-2.74.79-1.24.38-2.51.76-3.79,1.07-2.94.7-4.52,2.28-5,5a98.5,98.5,0,0,0-1,11.94l0,.47c-.19,4-.34,8-.5,12l-.16,4a4.31,4.31,0,0,1-.83,2.65c-3.11,3.93-4.35,8.74-5.55,13.4l-.12.45L71.62,68.4l-.24-.06.24.07c-.19.6-.36,1.31-.52,2a24.71,24.71,0,0,1-.74,2.65q-.37,1-.78,2c-.51,1.29-1,2.63-1.47,3.92-.81,2.38-.73,4.21.23,5.59A8.64,8.64,0,0,0,69.54,86a3.94,3.94,0,0,0,2.22,1c.24,0,.82.1,1-.06a.14.14,0,0,0,0-.11.11.11,0,0,0,0-.09.44.44,0,0,0-.22-.1,3.23,3.23,0,0,1-1.42-.47l-.38-.22-.23-.13a2.6,2.6,0,0,1-1.11-1.71,6.48,6.48,0,0,1,.31-3.33l0-.13a4.23,4.23,0,0,1,.94-1.88c.11-.09.44-.4.76-.25s.35.41.33.91c0,.08,0,.22,0,.38-.07.71-.26,2.85.21,3.26a.17.17,0,0,0,.19,0c.13,0,.17-.1.13-.51a1.85,1.85,0,0,1,0-.23,2.51,2.51,0,0,1,.23-1,4.31,4.31,0,0,0,.21-.67,4.19,4.19,0,0,1,.32-.89A6.4,6.4,0,0,0,73.64,76a8.68,8.68,0,0,1,.9-5.51c1.18-2.17,2.28-4.43,3.33-6.62.59-1.22,1.19-2.45,1.8-3.68h0l.21-.38c.34-.67.68-1.34,1-2A36.36,36.36,0,0,0,84.47,46c.61-4.45,1.67-12.63,2.09-16.91l.11-1.2L87,29.07c.27.83.7,2.68,1.11,4.46S89,37.17,89.25,38c2.15,6.57,1.14,12-1,18.15A21,21,0,0,0,88.39,59a13.16,13.16,0,0,1,.13,3.28,24.47,24.47,0,0,1-2.14,4.13c-1,1.6-1.47,2.34-1.21,6.36.09,1.52.15,2.94.2,4.32a64.4,64.4,0,0,0,.94,10c.78,4,1.58,8,2.37,12.06S90.24,107,91,110.92a41.06,41.06,0,0,1,.57,5.28c0,.63,0,1.26,0,1.89a34.26,34.26,0,0,0,.47,6.61c2.09,10.34,4.7,20.73,7,29.89,1.32,5.24,2.68,10.66,1.34,16.34a15.43,15.43,0,0,0-.29,2.55l0,.6-.5,0,0-.6a15.7,15.7,0,0,1,.3-2.64c1.31-5.56,0-10.92-1.33-16.1-2.31-9.17-4.92-19.56-7-29.91a34.68,34.68,0,0,1-.48-6.71c0-.62,0-1.25,0-1.88A37.85,37.85,0,0,0,90.5,111q-1.14-5.89-2.31-11.77-1.2-6-2.37-12.06a64.56,64.56,0,0,1-.95-10.13c-.05-1.38-.11-2.8-.2-4.31-.27-4.18.25-5,1.29-6.66A24.29,24.29,0,0,0,88.06,62a19.94,19.94,0,0,0-.17-3,13.55,13.55,0,0,1-.13-3c2.13-6.05,3.12-11.4,1-17.84-.26-.82-.69-2.68-1.11-4.48-.25-1.11-.52-2.25-.74-3.14-.48,4.49-1.4,11.58-2,15.61A37.68,37.68,0,0,1,80.31,60c-.68,1.35-1.34,2.71-2,4-1.06,2.2-2.16,4.47-3.35,6.65A8.25,8.25,0,0,0,74.13,76,6.7,6.7,0,0,1,73.5,80a3.52,3.52,0,0,0-.27.79c-.07.23-.13.47-.24.74a2,2,0,0,0-.19.8,1.28,1.28,0,0,0,0,.19,1.73,1.73,0,0,1,0,.59c.42-.06.75-.08.94.09a.4.4,0,0,1,.13.31c0,.3-.41.53-.79.68.52-.06.94-.07,1.16.22a.45.45,0,0,1,.08.49c-.18.43-1,.61-2.38.76l-.29,0a1,1,0,0,1-.18,0,2.66,2.66,0,0,0,1.13.38.88.88,0,0,1,.58.27.62.62,0,0,1,.16.45.65.65,0,0,1-.23.47,2,2,0,0,1-1.37.17,4.49,4.49,0,0,1-2.52-1.1,9.2,9.2,0,0,1-1.27-1.54c-1.06-1.52-1.15-3.49-.3-6,.44-1.31,1-2.65,1.49-4,.26-.66.53-1.32.77-2a22.82,22.82,0,0,0,.72-2.58c.17-.7.34-1.41.53-2l1.73-7.08c1.22-4.7,2.48-9.56,5.65-13.58a3.89,3.89,0,0,0,.72-2.36l.16-4c.16-4,.31-8,.5-12l0-.47a97.84,97.84,0,0,1,1-12c.48-2.86,2.24-4.61,5.36-5.36,1.26-.3,2.53-.68,3.75-1,.9-.28,1.84-.56,2.76-.8,1.63-.44,2.3-1.31,2.49-3.23a10.49,10.49,0,0,0-.13-2.89l0-.28,8.76-.23,0,.3a13.88,13.88,0,0,0-.11,3.21,4.44,4.44,0,0,0,.49,1.85c1.36,2.25,5.69,1.58,6.54,1.43,2.55-.47,4.46-.14,6,1l.25.19a10.3,10.3,0,0,1,1.68,1.48c2.6,3.11,5.47,6.06,8.25,8.91,2.49,2.56,5.06,5.2,7.44,8a18.79,18.79,0,0,1,2,2.82c.88,1.51.82,3.09-.18,5-2.81,5.33-6.44,8.65-10.55,12.15l-1.24,1.09a24.75,24.75,0,0,1-4.87,3.62l-.06,0c-1.37.71-2.67,1.38-4,.2-.49-.44-2.84-2.49-4.42-3.7,2.58,6.29,3.93,13.94,3.45,19.67A74.76,74.76,0,0,1,111,86.38a120.14,120.14,0,0,1-4.45,12,18.74,18.74,0,0,0-.92,13.23c1.68,5.6,2,12.21.9,19.62-.19,1.31-.31,2.6-.42,3.84-.13,1.41-.26,2.87-.5,4.34a1.36,1.36,0,0,0,.12.54,1.59,1.59,0,0,1,.07.2.85.85,0,0,0,.09.15,1,1,0,0,1,.16.38,30.81,30.81,0,0,0,.74,4.18c.82,3.72,1.68,7.58-1.13,11.13-.87,1.1-.41,2.42.13,3.67A18.42,18.42,0,0,1,106.9,164a25.7,25.7,0,0,0,.58,2.85A32.14,32.14,0,0,1,109.14,176.54ZM69.92,83.81a1.47,1.47,0,0,0,.31.78,1.39,1.39,0,0,0,1.3.63l.33,0c1.6-.19,1.93-.37,2-.47-.11-.1-.67,0-1,0a3.54,3.54,0,0,1-1.92-.09A4.31,4.31,0,0,1,69.92,83.81Zm.11-1a1.29,1.29,0,0,0,.72.89l.07,0a1.59,1.59,0,0,0,1.43.19,4.23,4.23,0,0,0,1-.35c-.19,0-.43,0-.54.06l-.23,0a3.36,3.36,0,0,1-1.17-.14A4.14,4.14,0,0,1,70,82.81Zm-.12-.74h0a5.32,5.32,0,0,0,1.49,1,8,8,0,0,1-.13-3.32q0-.24,0-.36a.87.87,0,0,0,0-.43s-.08,0-.2.16a4,4,0,0,0-.81,1.66l0,.13A10.38,10.38,0,0,0,69.91,82.07Zm47.9-32c-.88,0-1.79-.68-3.23-2.41-.33-.4-.67-.86-1-1.35a14.89,14.89,0,0,0-3-3.31l-.11-.08a4.67,4.67,0,0,0-.63-.35,1.53,1.53,0,0,1-.81-1.63c.14-.67.26-1.31.38-2,.27-1.45.56-2.94,1-4.39.17-.61.32-1.22.47-1.83a35.05,35.05,0,0,1,1.53-5,5.1,5.1,0,0,0,.3-3.18,2.21,2.21,0,0,1,.75-2.51c1-.73,1.91,0,2.56.48s1.13.82,1.75,1.25a22.59,22.59,0,0,1,3.14,2.45c2.13,2.14,4.42,4.16,6.65,6.12L129.4,34l.14.12c.27.22.54.45.54.8a1,1,0,0,1-.4.7h0a31.69,31.69,0,0,0-5.48,7.08c-.82,1.31-1.67,2.66-2.61,3.92C120,48.8,119,50,117.86,50.05ZM111,42.65A15.49,15.49,0,0,1,114,46c.36.48.7.93,1,1.32,1.33,1.6,2.17,2.25,2.87,2.23.93,0,1.87-1.23,3.35-3.21.92-1.24,1.77-2.59,2.59-3.89a32,32,0,0,1,5.57-7.19h0c.2-.17.23-.27.23-.32s-.19-.27-.36-.42l-.15-.13-1.92-1.69c-2.22-2-4.52-4-6.66-6.15a22.78,22.78,0,0,0-3.08-2.39c-.63-.44-1.22-.85-1.76-1.27-.74-.57-1.31-.94-2-.47a1.72,1.72,0,0,0-.57,2,5.53,5.53,0,0,1-.32,3.5,34.41,34.41,0,0,0-1.5,5c-.16.61-.31,1.23-.48,1.84-.38,1.43-.67,2.91-.94,4.35-.12.64-.24,1.29-.38,1.93s.28,1,.52,1.1a6.27,6.27,0,0,1,.81.46l.13.07Z"/><path class="cls-2" d="M114.28,47.19a.22.22,0,0,1-.2-.1c-.26-.36-.5-.72-.73-1.07a10.72,10.72,0,0,0-1.54-2,12.35,12.35,0,0,0-3.18-2.19c-.52-.26-1.09-.52-1.79-.82l-.18-.08c-.19-.09-.77-.36-.9-.23a.08.08,0,0,0,0,.06c0,.4,1.34,1.19,1.77,1.45l.34.22.76.55a10.73,10.73,0,0,1,3.16,3,.25.25,0,0,1-.1.34.25.25,0,0,1-.34-.09,10.19,10.19,0,0,0-3-2.81l-.78-.56a2.91,2.91,0,0,0-.29-.19c-.93-.57-1.94-1.23-2-1.82a.56.56,0,0,1,.17-.47c.38-.39,1.06-.06,1.47.13l.15.07c.72.31,1.29.57,1.82.84a12.36,12.36,0,0,1,3.31,2.28,11.35,11.35,0,0,1,1.61,2.11c.23.35.46.71.71,1.06a.25.25,0,0,1-.06.35A.23.23,0,0,1,114.28,47.19Z"/><path class="cls-2" d="M111.2,47.43a.25.25,0,0,1-.2-.1,6.9,6.9,0,0,0-3.27-1.79l-.18-.07c-.67-.23-1.34-.42-1.91-.58l-.11,0c-.42-.11-1.11-.29-1.28-.74a.66.66,0,0,1,.11-.62c.25-.37.84-.31,1.2-.27h.07c1.12.11,2.59.27,4.07.55a.25.25,0,0,1,.2.29.27.27,0,0,1-.3.2c-1.45-.28-2.91-.43-4-.54h-.08c-.16,0-.64-.06-.73.06a.2.2,0,0,0,0,.16c.08.21.72.38.94.44l.12,0c.57.16,1.25.36,1.93.59l.18.06a7.4,7.4,0,0,1,3.51,2,.25.25,0,0,1-.05.35A.27.27,0,0,1,111.2,47.43Z"/><path class="cls-2" d="M117.15,54.79a2.56,2.56,0,0,1-.39,0,3.89,3.89,0,0,1-1.85-1.16A15.68,15.68,0,0,0,110,50.18a9,9,0,0,0-3.62-.43c-.26,0-.49,0-.79,0a.57.57,0,0,1-.55-.36.62.62,0,0,1,0-.5c.18-.4.74-.61,1.11-.75a5.52,5.52,0,0,1,3.76.15c.26.09.51.18.75.29h0a5.06,5.06,0,0,0-1.78-.9,8.18,8.18,0,0,0-2.4-.34h-.17c-.83,0-2.54,0-2.57-1.05a.63.63,0,0,1,.19-.46,1.57,1.57,0,0,1,1.07-.32h.29c1.23,0,2.51,0,3.77.05a.24.24,0,0,1,.24.26.25.25,0,0,1-.26.24c-1.25,0-2.52-.05-3.76-.05h-.29a1.16,1.16,0,0,0-.71.17.13.13,0,0,0,0,.1c0,.59,1.55.57,2.06.56h.18a8.49,8.49,0,0,1,2.55.36c.7.22,2.35.84,2.56,1.94a.24.24,0,0,1-.11.25.22.22,0,0,1-.27,0c-.14-.08-.52-.26-.74-.35l-.72-.28a4.81,4.81,0,0,0-3.4-.15c-.26.09-.76.27-.86.49a.16.16,0,0,0,0,.12.17.17,0,0,0,.1,0h.76a9.42,9.42,0,0,1,3.82.47,16.27,16.27,0,0,1,5,3.52,3.54,3.54,0,0,0,1.6,1,3.08,3.08,0,0,0,2.08-.64.26.26,0,0,1,.35.09.25.25,0,0,1-.09.34A4,4,0,0,1,117.15,54.79Z"/><path class="cls-3" d="M95.29,182.13a30.09,30.09,0,0,1-7.57-1l-1.35-.3a41.15,41.15,0,0,0-9.18-.94c-2.65,0-5.28.19-7.82.37s-5.33.38-8.14.38h-.66a38.22,38.22,0,0,1-6.23-.51c-2.93-.52-4.26-1.78-4.32-4.09-.06-2.54,1.1-4.06,3.65-4.78.55-.16,1.08-.36,1.59-.55a11,11,0,0,1,2.06-.64c6.29-1,11-4.83,14.37-11.61,7.06-14.19,12-29.42,16.78-44.14l2-6.3c.9-2.73-.17-5.22-1.11-7.42l-.18-.41a67.9,67.9,0,0,1-5.83-24.44c0-7.12,2.66-15,5-21.91l.28-.81c1.61-4.79,2.76-9.15.35-13.87-2-3.9-4-7.93-3.1-12.37.19-.91.4-1.78.61-2.63a35,35,0,0,0,1.17-6.66c0-.46,0-.94,0-1.41a11.43,11.43,0,0,1,.33-3.26,2,2,0,0,1,1-1.18,9,9,0,0,1,2.36-.76l.18,0a2.27,2.27,0,0,1,.57-.08c.26,0,.31,0,.74.79a12.44,12.44,0,0,0,.82,1.3,7.67,7.67,0,0,0,6,3.39,5.63,5.63,0,0,0,.71,0,8.71,8.71,0,0,0,5.08-2.68,7.92,7.92,0,0,0,1-1.53,5.31,5.31,0,0,1,.8-1.19,2.13,2.13,0,0,1,1.33-.27h.8a5.93,5.93,0,0,0,.61,0h.35c.88,0,1.16.31,1.31.58a4.41,4.41,0,0,1,.46,2.45,20.35,20.35,0,0,0,.83,6.89,18.19,18.19,0,0,1,.76,6.57,53.65,53.65,0,0,1-1.45,6.67c-.28,1.07-.57,2.13-.81,3.2-.13.54-.3,1.08-.49,1.65-.56,1.76-1.2,3.74-.32,5.92a18.89,18.89,0,0,0,2.73,5.39,23.73,23.73,0,0,1,2.09,3.67,58.3,58.3,0,0,1,3.3,10.77,71.31,71.31,0,0,1,.69,22.29c-3.11,26.88-2.69,55.61,1.28,87.85.36,3,.17,4.7-.66,5.71s-2.17,1.43-4.47,1.61c-.56,0-1.12.1-1.68.15-1.42.13-2.88.27-4.3.27h-.32a9.45,9.45,0,0,1-2.54-.26,9.94,9.94,0,0,1-1-.37,7.28,7.28,0,0,0-2.12-.62c-.2,0-.41,0-.62,0a12.75,12.75,0,0,0-3.6.68,12.09,12.09,0,0,1-2.86.6Z"/><path class="cls-1" d="M110.45,11.47a1,1,0,0,1,.44.06,3.38,3.38,0,0,1,.33,1.87,21.23,21.23,0,0,0,.86,7.22,17.42,17.42,0,0,1,.73,6.22,49.68,49.68,0,0,1-1.42,6.54c-.28,1-.57,2.14-.82,3.22-.11.5-.28,1-.46,1.58-.58,1.8-1.3,4-.33,6.54a20.11,20.11,0,0,0,2.85,5.62,22.35,22.35,0,0,1,2,3.51,57.54,57.54,0,0,1,3.24,10.58,70.24,70.24,0,0,1,.68,22c-3.12,27-2.7,55.77,1.27,88.08.33,2.62.19,4.2-.43,5s-1.79,1.09-3.78,1.24l-1.69.15c-1.46.14-2.84.27-4.21.27h-.3a8.6,8.6,0,0,1-2.28-.22c-.26-.08-.57-.2-.88-.33a8.22,8.22,0,0,0-2.41-.7q-.34,0-.72,0a13.85,13.85,0,0,0-3.88.72,11.23,11.23,0,0,1-2.62.56l-1.34,0a29.07,29.07,0,0,1-7.35-1l-1.36-.3a42.44,42.44,0,0,0-9.39-1c-2.68,0-5.33.19-7.89.37s-5.3.38-8.07.38h-.65a36,36,0,0,1-6.06-.5c-3.17-.56-3.47-1.91-3.5-3.12-.05-2.07.83-3.21,2.92-3.8.59-.17,1.14-.37,1.67-.57a9.57,9.57,0,0,1,1.88-.59c6.62-1.09,11.56-5.06,15.09-12.16,7.1-14.25,12-29.51,16.84-44.28l2-6.29c1-3.09-.13-5.77-1.14-8.13l-.18-.41a66.82,66.82,0,0,1-5.75-24c0-7,2.64-14.75,5-21.6l.27-.8c1.7-5,2.89-9.57.3-14.64C88,34.92,86,31.05,86.89,27c.19-.88.41-1.76.61-2.6a35.7,35.7,0,0,0,1.2-6.84c0-.48,0-1,0-1.46a10.91,10.91,0,0,1,.28-3,1,1,0,0,1,.53-.61,8.35,8.35,0,0,1,2.08-.66l.19,0,.08,0L92,12a11.88,11.88,0,0,0,.89,1.42,8.66,8.66,0,0,0,6.82,3.79,5.64,5.64,0,0,0,.82-.05,9.53,9.53,0,0,0,5.68-3,8.41,8.41,0,0,0,1.2-1.73,6.32,6.32,0,0,1,.57-.91,3,3,0,0,1,.69-.05h.8c.24,0,.48,0,.7,0h.26m-2.41,0h0m2.41-2a3.1,3.1,0,0,0-.43,0h-1.33a2.84,2.84,0,0,0-2,.54c-.72.66-1.2,2.06-1.88,2.74a7.63,7.63,0,0,1-4.47,2.4l-.6,0a6.75,6.75,0,0,1-5.22-3c-1-1.34-1.05-2.48-2.36-2.48a3.62,3.62,0,0,0-.79.1,10.48,10.48,0,0,0-2.82.92A3,3,0,0,0,87.1,12.5a19.68,19.68,0,0,0-.4,4.91c-.17,3.22-1.09,6-1.76,9.13-1,4.73,1.09,8.91,3.19,13,2.29,4.48,1.1,8.61-.41,13.09-2.43,7.18-5.33,15.47-5.33,23.07a68.88,68.88,0,0,0,5.91,24.8c1,2.28,2.09,4.61,1.26,7.13-5.57,17-10.75,34.2-18.77,50.3-2.83,5.69-6.94,10-13.63,11.08a35.68,35.68,0,0,0-3.76,1.21C50.46,171.08,49,173,49,176c.08,3.27,2.37,4.55,5.15,5a37.83,37.83,0,0,0,6.39.53h.67c5.61,0,10.67-.76,16-.76a41.11,41.11,0,0,1,9,.91c3.72.82,5.65,1.37,9.14,1.37l1.41,0c2.15-.08,4.28-1.28,6.43-1.28a4.7,4.7,0,0,1,.53,0,16.81,16.81,0,0,1,2.91,1,10.69,10.69,0,0,0,2.82.3h.33c2,0,4-.26,6.06-.42,5.67-.45,6.73-2.86,6-8.45-3.59-29.15-4.65-58.4-1.28-87.6a72,72,0,0,0-.7-22.6,59,59,0,0,0-3.35-11c-1.28-3.08-4-5.8-4.8-9-1-2.5.29-4.72.83-7a99.7,99.7,0,0,0,2.28-10c.59-4.75-2-8.82-1.59-13.5a5.36,5.36,0,0,0-.57-3,2.32,2.32,0,0,0-2.19-1.1Z"/><path class="cls-1" d="M120.68,68.64a207.25,207.25,0,0,1-1.83,27.14,251.49,251.49,0,0,1-5,26.79,207.4,207.4,0,0,1-8.09,26A163.12,163.12,0,0,1,94,173.11c.93-2.07,1.87-4.13,2.84-6.17.47-1,1-2,1.42-3.08l1.26-3.15c.84-2.1,1.74-4.17,2.54-6.28l2.29-6.37a269.66,269.66,0,0,0,7.61-26c2.15-8.77,3.92-17.62,5.38-26.54l1-6.7c.29-2.24.64-4.48.9-6.72C119.85,77.66,120.29,73.15,120.68,68.64Z"/><path class="cls-1" d="M90.82,150.28a22.21,22.21,0,0,1,.25,8.21,28.19,28.19,0,0,1-6.93,14.88,26.06,26.06,0,0,1-3,2.88,33.73,33.73,0,0,1-3.36,2.35c.86-1.08,1.84-2,2.67-3s1.72-2,2.44-3.15c.37-.56.78-1.07,1.13-1.63l1-1.68c.37-.55.64-1.15,1-1.72a16.91,16.91,0,0,0,.87-1.76,39.91,39.91,0,0,0,2.64-7.42A44.71,44.71,0,0,0,90.82,150.28Z"/><rect class="cls-4" width="186" height="186"/></svg>