<svg id="图层_1" data-name="图层 1" xmlns="http://www.w3.org/2000/svg" viewBox="0 0 186 186"><defs><style>.cls-1{fill:#5b3b2f;}.cls-2{fill:#f9e6ed;}.cls-3{fill:#9b9692;opacity:0;}</style></defs><path class="cls-1" d="M104.87,176.62h-.5a31.54,31.54,0,0,0-1.63-9.59,24.48,24.48,0,0,1-.6-2.9,18.06,18.06,0,0,0-1.08-4.22c-.45-1-1.2-2.75-.07-4.19,2.66-3.37,1.87-6.94,1-10.72a32.91,32.91,0,0,1-.75-4.25.56.56,0,0,0-.08-.15,1.15,1.15,0,0,1-.14-.27,1.46,1.46,0,0,0-.07-.19,1.76,1.76,0,0,1-.14-.79c.24-1.45.37-2.9.49-4.29s.23-2.56.42-3.88c1.08-7.35.78-13.89-.88-19.43a19.28,19.28,0,0,1,.94-13.59,118,118,0,0,0,4.44-12A73.35,73.35,0,0,0,109.71,70c.48-5.74-1-13.78-3.64-20a.32.32,0,0,1,.1-.39l.06,0h.17l.18,0c1.56,1.13,4.39,3.6,4.94,4.08,1.09,1,2.13.43,3.46-.26l.06,0a23.9,23.9,0,0,0,4.77-3.56c.41-.37.83-.73,1.25-1.09,4.08-3.47,7.68-6.77,10.45-12,.92-1.76,1-3.15.19-4.51a19.15,19.15,0,0,0-1.9-2.75c-2.37-2.75-4.94-5.39-7.43-7.95-2.79-2.86-5.67-5.82-8.28-8.95a9.79,9.79,0,0,0-1.6-1.4l-.26-.19c-1.43-1.09-3.22-1.4-5.62-1-2.64.49-5.88.3-7.07-1.67A4.64,4.64,0,0,1,99,6.3a14.1,14.1,0,0,1,.06-3l-7.6.19a11.1,11.1,0,0,1,.09,2.75c-.21,2.11-1,3.17-2.86,3.66-.92.24-1.85.52-2.75.79-1.23.38-2.51.76-3.79,1.07-3,.7-4.53,2.28-5,5a100.21,100.21,0,0,0-1,11.93l0,.49c-.19,4-.34,8-.5,12.06l-.16,4a4.36,4.36,0,0,1-.83,2.66c-3.11,3.93-4.36,8.75-5.56,13.41l-.12.45-1.62,6.64-.24-.06.24.07c-.19.6-.36,1.32-.52,2A24.71,24.71,0,0,1,66.05,73c-.25.66-.51,1.32-.78,2-.51,1.29-1,2.63-1.48,3.92-.8,2.38-.72,4.21.24,5.6A9.12,9.12,0,0,0,65.23,86a3.9,3.9,0,0,0,2.22,1c.22,0,.82.11,1-.06a.13.13,0,0,0,.06-.11.11.11,0,0,0,0-.08.3.3,0,0,0-.22-.1,3.37,3.37,0,0,1-1.42-.48l-.37-.21-.24-.14a2.68,2.68,0,0,1-1.11-1.71,6.48,6.48,0,0,1,.3-3.33l0-.14a4.12,4.12,0,0,1,1-1.87c.28-.27.54-.35.75-.25s.35.41.33.91c0,.08,0,.21,0,.38-.07.71-.26,2.85.21,3.26a.17.17,0,0,0,.19,0c.13,0,.17-.1.13-.51,0-.08,0-.16,0-.23a2.48,2.48,0,0,1,.23-1,5.11,5.11,0,0,0,.21-.67,4.83,4.83,0,0,1,.32-.89A6.37,6.37,0,0,0,69.33,76a8.75,8.75,0,0,1,.91-5.51c1.18-2.18,2.27-4.44,3.33-6.63.59-1.22,1.19-2.46,1.8-3.69h0l.21-.38c.34-.67.68-1.33,1-2A36,36,0,0,0,80.17,46c.61-4.44,1.67-12.62,2.1-16.93l.12-1.2L82.75,29c.21.63.44,1.81.72,3.17a27.25,27.25,0,0,0,1.47,5.68c4.19,7.16,3.88,12.64-1,18.31a16.56,16.56,0,0,0,.19,3.26,10.05,10.05,0,0,1,.14,2.77,24.07,24.07,0,0,1-2.14,4.13c-1,1.61-1.47,2.35-1.22,6.37a38.34,38.34,0,0,0,2.27,9.22,52.6,52.6,0,0,1,1.91,6.63,60.08,60.08,0,0,1,.83,11.24,60,60,0,0,0,.83,11.17,39.42,39.42,0,0,1,.56,5.28c0,.63,0,1.27,0,1.9a33.49,33.49,0,0,0,.47,6.61c2.09,10.33,4.7,20.74,7,29.92,1.31,5.25,2.68,10.68,1.34,16.36a14.44,14.44,0,0,0-.3,2.55l0,.61-.49,0,0-.6a15.6,15.6,0,0,1,.31-2.63c1.31-5.57,0-10.94-1.34-16.13-2.31-9.18-4.92-19.6-7-29.95a33.7,33.7,0,0,1-.48-6.69c0-.64,0-1.27,0-1.9a39.9,39.9,0,0,0-.55-5.2,60.23,60.23,0,0,1-.84-11.25,59.93,59.93,0,0,0-.82-11.16,53,53,0,0,0-1.89-6.56,38.11,38.11,0,0,1-2.29-9.35c-.27-4.18.25-5,1.29-6.66A24.49,24.49,0,0,0,83.77,62a16.28,16.28,0,0,0-.18-2.53c-.27-2.48-.31-3.36-.07-3.64,4.76-5.48,5-10.78,1-17.73A26.53,26.53,0,0,1,83,32.25c-.13-.62-.25-1.22-.36-1.75C82.13,35,81.22,42,80.67,46A36.72,36.72,0,0,1,77.05,58h0c-.32.65-.67,1.32-1,2-.68,1.36-1.34,2.73-2,4.07-1.06,2.19-2.15,4.46-3.34,6.64a8.15,8.15,0,0,0-.85,5.23A6.85,6.85,0,0,1,69.2,80a3.82,3.82,0,0,0-.28.8,5.16,5.16,0,0,1-.24.73,2.09,2.09,0,0,0-.19.81s0,.12,0,.18a1.79,1.79,0,0,1,0,.6c.42-.06.76-.08,1,.09a.39.39,0,0,1,.12.3c0,.31-.41.54-.79.69.52-.06,1-.07,1.17.22a.47.47,0,0,1,.08.49c-.18.43-1,.61-2.39.77l-.29,0a.83.83,0,0,1-.18,0,2.63,2.63,0,0,0,1.13.39.8.8,0,0,1,.58.26.56.56,0,0,1,.16.45.63.63,0,0,1-.23.47,2,2,0,0,1-1.37.17,4.43,4.43,0,0,1-2.52-1.1,8.32,8.32,0,0,1-1.27-1.54c-1.06-1.52-1.16-3.5-.3-6,.44-1.3,1-2.65,1.49-4,.26-.66.52-1.32.77-2a23,23,0,0,0,.72-2.59c.17-.7.34-1.41.53-2l1.73-7.08c1.22-4.71,2.48-9.58,5.66-13.6a3.94,3.94,0,0,0,.72-2.37l.16-4q.24-6,.5-12.06l0-.49a99.86,99.86,0,0,1,1-12C77.15,13.73,78.9,12,82,11.23c1.26-.3,2.53-.68,3.76-1.05.9-.28,1.83-.56,2.76-.8,1.62-.44,2.3-1.31,2.49-3.23a11,11,0,0,0-.12-2.9l0-.28,8.76-.23,0,.3a14,14,0,0,0-.11,3.22A4.51,4.51,0,0,0,100,8.1c1.36,2.27,5.69,1.59,6.54,1.44,2.56-.48,4.47-.14,6,1l.25.19a10.3,10.3,0,0,1,1.68,1.48c2.6,3.12,5.48,6.07,8.26,8.93,2.49,2.56,5.07,5.2,7.44,8a18.21,18.21,0,0,1,2,2.83c.88,1.51.82,3.09-.18,5-2.81,5.33-6.45,8.66-10.56,12.17-.42.35-.84.72-1.25,1.09a25.2,25.2,0,0,1-4.87,3.63l-.06,0c-1.38.71-2.67,1.38-4,.19-.5-.44-2.84-2.49-4.43-3.71,2.58,6.31,3.93,14,3.45,19.7a74.91,74.91,0,0,1-3.48,16.29,118,118,0,0,1-4.46,12,18.79,18.79,0,0,0-.92,13.25c1.68,5.61,2,12.22.9,19.65-.19,1.31-.31,2.6-.42,3.85-.13,1.41-.26,2.86-.49,4.33a1,1,0,0,0,.12.54,1.72,1.72,0,0,0,.07.21.44.44,0,0,0,.08.15.77.77,0,0,1,.16.38,32.44,32.44,0,0,0,.74,4.18c.83,3.73,1.68,7.59-1.13,11.14-.87,1.11-.41,2.43.14,3.68a18.47,18.47,0,0,1,1.11,4.34,25.75,25.75,0,0,0,.59,2.85A32,32,0,0,1,104.87,176.62ZM65.61,83.78a1.46,1.46,0,0,0,.3.78,1.38,1.38,0,0,0,1.31.63l.33,0c1.6-.19,1.93-.37,2-.47-.1-.1-.66,0-1,0a3.45,3.45,0,0,1-1.92-.1A4.2,4.2,0,0,1,65.61,83.78Zm.11-1a1.29,1.29,0,0,0,.72.89l.07,0A1.6,1.6,0,0,0,68,83.9a3.81,3.81,0,0,0,1-.35,3.25,3.25,0,0,0-.53.06l-.24,0A3.29,3.29,0,0,1,67,83.51,4.28,4.28,0,0,1,65.72,82.78ZM65.6,82h0a5.52,5.52,0,0,0,1.49,1A8,8,0,0,1,67,79.71c0-.16,0-.29,0-.37a1.15,1.15,0,0,0,0-.43l-.21.16a3.9,3.9,0,0,0-.8,1.66l0,.14A10.38,10.38,0,0,0,65.6,82Zm40.93-32.23h0Zm7,.17c-.88,0-1.8-.69-3.23-2.42-.34-.4-.68-.86-1-1.35a14.89,14.89,0,0,0-3-3.31l-.11-.08a6.14,6.14,0,0,0-.63-.36,1.49,1.49,0,0,1-.81-1.62c.13-.68.25-1.32.38-2,.27-1.45.56-2.94,1-4.39.16-.61.32-1.22.47-1.84a34.19,34.19,0,0,1,1.53-5,5,5,0,0,0,.3-3.18,2.22,2.22,0,0,1,.75-2.52c1-.73,1.91,0,2.57.48s1.12.82,1.75,1.26a22.59,22.59,0,0,1,3.14,2.45c2.13,2.14,4.43,4.16,6.65,6.12l1.92,1.71.14.12c.27.22.54.45.54.8a1,1,0,0,1-.39.7h0A31,31,0,0,0,120,42.64c-.83,1.31-1.68,2.66-2.62,3.93-1.61,2.16-2.58,3.38-3.74,3.41Zm-6.87-7.42a15.9,15.9,0,0,1,3,3.36c.35.48.69.93,1,1.32,1.32,1.59,2.15,2.24,2.85,2.24h0c.93,0,1.88-1.24,3.35-3.21.93-1.25,1.78-2.6,2.6-3.9a31.79,31.79,0,0,1,5.58-7.2h0c.14-.13.22-.24.22-.32s-.19-.28-.36-.42l-.15-.13-1.92-1.7c-2.23-2-4.53-4-6.67-6.15a22.61,22.61,0,0,0-3.08-2.39c-.63-.44-1.22-.85-1.77-1.27-.73-.58-1.3-.95-2-.47a1.72,1.72,0,0,0-.57,2,5.54,5.54,0,0,1-.32,3.5,35.9,35.9,0,0,0-1.51,5c-.15.61-.3,1.23-.47,1.84-.38,1.43-.67,2.91-.94,4.35-.12.65-.25,1.29-.38,1.93s.28,1,.52,1.11a5.1,5.1,0,0,1,.8.46Z"/><path class="cls-1" d="M110,47.12a.26.26,0,0,1-.2-.1c-.26-.37-.49-.73-.72-1.08a11.21,11.21,0,0,0-1.55-2,12.25,12.25,0,0,0-3.19-2.19c-.52-.26-1.09-.52-1.79-.82l-.17-.08c-.19-.09-.77-.37-.91-.23a.07.07,0,0,0,0,.06c0,.4,1.35,1.19,1.78,1.45l.33.22.76.55a10.77,10.77,0,0,1,3.17,3,.25.25,0,0,1-.44.25,10.24,10.24,0,0,0-3-2.81c-.27-.2-.53-.38-.77-.57l-.29-.18c-.94-.57-1.95-1.23-2-1.82a.58.58,0,0,1,.17-.48c.39-.38,1.07,0,1.47.14l.16.07c.71.3,1.29.57,1.82.84a12.52,12.52,0,0,1,3.32,2.28,12,12,0,0,1,1.61,2.12c.22.35.45.7.7,1a.25.25,0,0,1,0,.35A.3.3,0,0,1,110,47.12Z"/><path class="cls-1" d="M106.94,47.36a.28.28,0,0,1-.2-.1,6.86,6.86,0,0,0-3.28-1.8l-.18-.06c-.68-.24-1.38-.44-1.9-.59l-.12,0c-.42-.11-1.11-.29-1.28-.74a.66.66,0,0,1,.11-.62c.26-.37.85-.31,1.2-.27h.07c1.12.11,2.6.27,4.07.55a.24.24,0,0,1,.2.29.25.25,0,0,1-.29.2c-1.45-.28-2.92-.43-4-.54h-.07c-.16,0-.65-.06-.74.07a.18.18,0,0,0,0,.15c.08.21.72.38.94.44l.12,0c.54.15,1.24.35,1.93.59l.19.06a7.4,7.4,0,0,1,3.51,2,.25.25,0,0,1,0,.35A.22.22,0,0,1,106.94,47.36Z"/><path class="cls-1" d="M112.9,54.73a1.72,1.72,0,0,1-.39,0,3.82,3.82,0,0,1-1.85-1.16,15.84,15.84,0,0,0-4.88-3.42,8.9,8.9,0,0,0-3.63-.44,6.82,6.82,0,0,1-.78,0,.6.6,0,0,1-.56-.36.69.69,0,0,1,0-.51c.18-.4.74-.6,1.12-.74a5.41,5.41,0,0,1,3.76.15c.25.08.5.18.75.28h0a5.32,5.32,0,0,0-1.78-.9,8.24,8.24,0,0,0-2.4-.33h-.18c-.83,0-2.54,0-2.57-1.05a.64.64,0,0,1,.19-.47,1.51,1.51,0,0,1,1.08-.32H101c1.25,0,2.55,0,3.83,0a.25.25,0,0,1,.24.26c0,.14-.1.23-.26.24-1.27,0-2.56,0-3.81,0h-.25a1.16,1.16,0,0,0-.71.17.14.14,0,0,0,0,.11c0,.58,1.56.57,2.07.56h.18a8.59,8.59,0,0,1,2.55.36c.7.22,2.35.84,2.56,1.93a.25.25,0,0,1-.11.26.26.26,0,0,1-.27,0c-.14-.09-.53-.26-.74-.36s-.48-.19-.72-.27a4.9,4.9,0,0,0-3.41-.16c-.26.1-.76.28-.86.49a.16.16,0,0,0,0,.12.11.11,0,0,0,.09,0h.77a9.47,9.47,0,0,1,3.83.47,16.52,16.52,0,0,1,5,3.53,3.42,3.42,0,0,0,1.6,1,3.1,3.1,0,0,0,2.08-.64.26.26,0,0,1,.35.09.25.25,0,0,1-.09.34A4.06,4.06,0,0,1,112.9,54.73Z"/><path class="cls-2" d="M138.71,179.25c-5.9-.94-10.93.5-15.9,1.51-15.14,3.09-26.71-.54-40.91-.33-10.86.17-23.41-.41-34.28-.66a16.56,16.56,0,0,1-7.15-1.8c-2.78-1.41-4.31-3.72-3.79-6.86s2.51-5.46,5.74-5c9.59,1.26,10.95-.29,14.88-7.59,5.63-10.47,14.4-25.06,21.1-34.9,7.43-10.91,9.07-22,5.45-34.75-2-7.15-3.57-14.7-3.07-22.17a24.81,24.81,0,0,1,2.6-10.27c1.72-3.13,4.17-5.87,4.19-9.65,0-4.83-4.16-8.31-5-12.92-1.14-6.15-.56-12.74-.8-19-.08-2,.9-3,2.85-3.29,1.72-.26,3.16-1.08,4.71,1.08,3.17,4.43,7.84,3.55,11.91-.53a9.74,9.74,0,0,1,2.09-1.43,2,2,0,0,1,1-.24c1,0,2.2-.14,3,.5.59.45.25,2.33.24,3,0,1,0,1.94-.09,2.91-.28,3.32,1.75,6.3,2.13,9.55.5,4.22-.44,8.51-1.72,12.51a5.84,5.84,0,0,0,1.75,6.35c9.22,8.7,11,19.39,8.6,31.41-2.48,12.38-4.92,25.51.34,37.42,6.88,15.57,13.67,31.18,19.75,47.08,1.48,3.88,3.14,7.63,7.94,8.67,2.43.53,3.32,2.58,3.09,5s-1.86,3.48-4,3.8C143,179,140.5,179.11,138.71,179.25Z"/><path class="cls-1" d="M109.92,183c-4.59,0-9-.39-13.23-.78a139.61,139.61,0,0,0-14.77-.8c-7.83.12-16.48-.14-24.84-.39-3.25-.1-6.43-.19-9.49-.26A17.54,17.54,0,0,1,40,178.85c-3.35-1.7-4.88-4.51-4.32-7.9.66-4,3.36-6.32,6.85-5.86,9.11,1.2,10.11-.08,13.87-7.07,5.8-10.78,14.69-25.49,21.16-35,7.2-10.58,8.89-21.36,5.31-33.92-2.58-9.08-3.54-16-3.1-22.51a25.51,25.51,0,0,1,2.72-10.68c.43-.78.89-1.53,1.35-2.25,1.39-2.23,2.7-4.33,2.72-6.93,0-2.41-1.18-4.51-2.44-6.73a19.43,19.43,0,0,1-2.56-6,71.33,71.33,0,0,1-.76-13.07c0-2,0-4.06-.06-6-.06-1.71.53-3.85,3.71-4.32l.81-.15c1.42-.3,3.19-.68,4.84,1.64a5.41,5.41,0,0,0,3.93,2.52c2,.16,4.28-1,6.48-3.17a10.66,10.66,0,0,1,2.32-1.61,3,3,0,0,1,1.51-.35H105a4.65,4.65,0,0,1,3,.7c.9.69.77,2.13.67,3.3,0,.2,0,.38,0,.51v.61c0,.77,0,1.57-.09,2.37a12.86,12.86,0,0,0,1,5.17,20,20,0,0,1,1.1,4.19c.57,4.85-.74,9.7-1.77,12.92a4.88,4.88,0,0,0,1.49,5.33c8.7,8.21,11.61,18.78,8.9,32.32-2.34,11.68-5,24.91.27,36.83,6.58,14.88,13.52,30.77,19.77,47.13,1.53,4,3,7.14,7.22,8,2.73.59,4.18,2.86,3.87,6.07-.25,2.58-2,4.25-4.79,4.68-1.8.28-3.58.39-5.15.49-.6,0-1.15.07-1.65.12h-.12l-.12,0c-4.91-.79-9.27.15-13.49,1.06l-2,.43A64.22,64.22,0,0,1,109.92,183Zm-26.8-3.57c4.8,0,9.34.41,13.75.81,8.38.76,16.3,1.47,25.74-.45l2-.43c4.36-.94,8.87-1.91,14.09-1.11l1.57-.1c1.53-.1,3.26-.21,5-.47,1.93-.3,2.94-1.25,3.11-2.91s-.14-3.46-2.31-3.94c-5.57-1.21-7.35-5.88-8.66-9.28-6.23-16.31-13.16-32.18-19.73-47-5.52-12.49-2.68-26.65-.4-38,2.6-13,0-22.68-8.31-30.49a6.84,6.84,0,0,1-2-7.37c1-3.05,2.21-7.62,1.69-12.09a19,19,0,0,0-1-3.78,14.48,14.48,0,0,1-1.13-6c.06-.72.07-1.48.08-2.22v-.62c0-.16,0-.39,0-.65a7.24,7.24,0,0,0,0-1.61,3.5,3.5,0,0,0-1.67-.23h-.72a.91.91,0,0,0-.49.11,8.07,8.07,0,0,0-1.85,1.27c-2.67,2.66-5.45,4-8.06,3.74a7.37,7.37,0,0,1-5.37-3.34c-.9-1.26-1.5-1.13-2.82-.86l-.93.18c-1.52.22-2.06.84-2,2.28.08,2,.07,4.1.06,6.12a69.48,69.48,0,0,0,.73,12.7A17.83,17.83,0,0,0,85.87,39c1.33,2.35,2.71,4.78,2.69,7.72,0,3.16-1.54,5.61-3,8-.44.7-.89,1.43-1.29,2.16a23.41,23.41,0,0,0-2.47,9.85c-.43,6.26.51,13,3,21.84,3.75,13.17,2,24.48-5.59,35.58-6.43,9.45-15.28,24.09-21,34.81-4.21,7.84-6.05,9.4-15.88,8.1-3.58-.46-4.45,3.1-4.63,4.21-.42,2.54.68,4.5,3.26,5.81a15.59,15.59,0,0,0,6.72,1.7c3.06.07,6.25.17,9.5.26,8.34.25,17,.52,24.75.4Z"/><path class="cls-1" d="M62,180.68a.53.53,0,0,1-.27-.08.5.5,0,0,1-.14-.69c6.09-9.25,14.89-24.28,20-34.2,8.38-16.2,10.68-34.43,7-55.73-1.75-10.22-2.86-22.31,2.25-34.45,2.86-6.81-.06-13.31-3.58-19.91-.52-1-1.07-1.93-1.61-2.87-2.36-4.1-4.79-8.33-4.31-13.63a.49.49,0,0,1,.54-.45.5.5,0,0,1,.45.54c-.45,5,1.8,8.9,4.18,13,.55,1,1.1,1.92,1.63,2.9,3.49,6.56,6.65,13.56,3.61,20.77-5,11.9-3.91,23.81-2.18,33.89,3.7,21.53,1.37,40-7.11,56.36-5.15,10-14,25-20.08,34.28A.51.51,0,0,1,62,180.68Z"/><path class="cls-1" d="M134.08,179.46a.49.49,0,0,1-.47-.34c-2.09-6.3-4.85-15.29-7.52-24-2.39-7.78-4.65-15.14-6.44-20.63-6.22-19.06-11.37-39.72-7-61.68a21.3,21.3,0,0,0-3.71-17.1c-7.16-9.8-8.06-20.7-2.67-32.41l.18-.37c.32-.69.62-1.34.86-2a.5.5,0,0,1,.64-.29.49.49,0,0,1,.29.63c-.25.71-.58,1.41-.89,2.09l-.17.37c-5.23,11.35-4.37,21.92,2.56,31.4A22.26,22.26,0,0,1,113.6,73c-4.3,21.73.82,42.24,7,61.17,1.8,5.5,4.06,12.86,6.45,20.65,2.67,8.68,5.43,17.67,7.51,24a.49.49,0,0,1-.31.63A.45.45,0,0,1,134.08,179.46Z"/><rect class="cls-3" width="186" height="186"/></svg>