<svg id="图层_1" data-name="图层 1" xmlns="http://www.w3.org/2000/svg" viewBox="0 0 186 186"><defs><style>.cls-1{fill:#5b3b2f;}.cls-2{fill:#f6e3ea;}</style></defs><path class="cls-1" d="M98.18,99.2a123.23,123.23,0,0,0,4.44-12.06,74.79,74.79,0,0,0,3.46-16.34c.49-5.79-1-13.91-3.64-20.21a.32.32,0,0,1,.1-.39l.06-.06h.17l.18,0c1.52,1.11,4.17,3.44,4.94,4.13,1.1,1,2.14.43,3.46-.26l.06,0a24.55,24.55,0,0,0,4.78-3.6l1.26-1.11c4.07-3.5,7.67-6.82,10.45-12.13.92-1.77,1-3.18.19-4.55a17.32,17.32,0,0,0-1.91-2.78c-2.36-2.78-4.94-5.44-7.43-8-2.79-2.89-5.67-5.88-8.29-9a9.33,9.33,0,0,0-1.59-1.41l-.26-.2c-1.44-1.1-3.23-1.41-5.64-1-2.63.49-5.87.31-7.06-1.69a4.7,4.7,0,0,1-.56-2.08,14.38,14.38,0,0,1,.06-3.07l-7.6.2a11.23,11.23,0,0,1,.08,2.77c-.21,2.13-1,3.2-2.86,3.7-.92.25-1.85.53-2.75.8-1.24.38-2.51.77-3.79,1.07-2.95.72-4.54,2.31-5,5a100.49,100.49,0,0,0-1,12.06l0,.49q-.27,6.15-.5,12.31l-.16,3.92A4.38,4.38,0,0,1,71,48.41c-3.11,4-4.35,8.83-5.56,13.54l-.12.46-1.62,6.7-.24-.06.23.08c-.18.61-.35,1.33-.52,2a22.86,22.86,0,0,1-.73,2.66c-.25.66-.52,1.34-.78,2-.52,1.31-1,2.65-1.49,4-.8,2.4-.72,4.25.24,5.65a9.55,9.55,0,0,0,1.2,1.47,3.88,3.88,0,0,0,2.23,1c.24,0,.81.11,1,0a.15.15,0,0,0,0-.12.08.08,0,0,0,0-.08.32.32,0,0,0-.22-.1,3.37,3.37,0,0,1-1.42-.48l-.39-.23-.23-.13A2.73,2.73,0,0,1,61.45,85a6.59,6.59,0,0,1,.31-3.36l0-.14a4.4,4.4,0,0,1,1-1.89c.29-.27.54-.36.76-.25s.35.41.32.92a3.65,3.65,0,0,1,0,.38c-.06.71-.26,2.88.21,3.3a.23.23,0,0,0,.2,0c.13,0,.16-.11.13-.52a1.85,1.85,0,0,1,0-.23,2.4,2.4,0,0,1,.23-1,4.79,4.79,0,0,0,.21-.68,4.26,4.26,0,0,1,.32-.9,6.45,6.45,0,0,0,.58-3.82,8.86,8.86,0,0,1,.91-5.57c1.18-2.2,2.27-4.49,3.33-6.7.59-1.22,1.19-2.48,1.81-3.72h0l.21-.37c.34-.68.69-1.36,1-2A37,37,0,0,0,76.52,46.5c.59-4.29,1.67-12.74,2.1-17.1l.11-1.21.37,1.16c.27.84.7,2.7,1.11,4.51s.84,3.68,1.1,4.48c2.15,6.65,2.82,12.2.65,18.41a10,10,0,0,0-.26,2.84,4.38,4.38,0,0,1-1.12,3.28C79.73,65,79.8,66.12,79.23,67c-1,1.63-1.48,2.37-1.22,6.43.1,1.54-.64,3-.58,4.37A63.5,63.5,0,0,0,78.37,88c.78,4.07,1.58,8.13,2.37,12.19s.29,4.07-.49.1-1.59-8.12-2.37-12.19a63.67,63.67,0,0,1-.95-10.25c-.06-1.39.68-2.83.58-4.36-.27-4.22.25-5.06,1.29-6.73.57-.91.48-2,1.32-4.09.09-.25,1.19-1.85,1.09-3a6.61,6.61,0,0,1,.28-3.05c2.13-6.12,1.45-11.57-.65-18.08-.27-.83-.7-2.71-1.12-4.53-.26-1.12-.52-2.27-.74-3.18-.49,4.59-1.43,11.89-2,15.78a38.46,38.46,0,0,1-4.67,14.1c-.68,1.36-1.34,2.74-2,4.08C69.3,67,68.21,69.26,67,71.47a8.26,8.26,0,0,0-.85,5.27,6.92,6.92,0,0,1-.64,4.11,3.77,3.77,0,0,0-.27.8c-.07.23-.13.47-.24.75a2.09,2.09,0,0,0-.19.81,1.34,1.34,0,0,0,0,.19,1.79,1.79,0,0,1,0,.6c.42-.07.76-.08.94.09a.39.39,0,0,1,.13.3c0,.31-.41.55-.79.7.51-.06.94-.08,1.17.22a.47.47,0,0,1,.08.49c-.19.44-1,.62-2.39.78l-.3,0a.37.37,0,0,1-.17,0,2.59,2.59,0,0,0,1.13.39.88.88,0,0,1,.58.27.66.66,0,0,1-.07.93,2,2,0,0,1-1.37.17,4.38,4.38,0,0,1-2.52-1.11A9,9,0,0,1,60,85.73c-1.06-1.54-1.16-3.54-.3-6.11.44-1.31,1-2.67,1.49-4,.27-.67.53-1.34.78-2a20.86,20.86,0,0,0,.71-2.6c.17-.7.34-1.43.53-2.06l1.74-7.16c1.22-4.75,2.48-9.67,5.66-13.72a4,4,0,0,0,.72-2.4l.16-3.92q.24-6.16.5-12.31l0-.5A99.48,99.48,0,0,1,73,16.86c.48-2.9,2.24-4.67,5.36-5.43,1.27-.3,2.54-.69,3.77-1.06.9-.28,1.83-.56,2.76-.81,1.63-.44,2.3-1.32,2.49-3.26a10.32,10.32,0,0,0-.12-2.92l0-.29L96,2.86l0,.3a13.67,13.67,0,0,0-.1,3.25,4.3,4.3,0,0,0,.49,1.86c1.36,2.29,5.69,1.61,6.54,1.45,2.56-.48,4.47-.14,6,1.06l.26.19a10.36,10.36,0,0,1,1.68,1.49c2.6,3.15,5.48,6.13,8.26,9,2.5,2.58,5.08,5.25,7.45,8a18,18,0,0,1,2,2.85c.88,1.53.82,3.13-.18,5.05-2.82,5.38-6.45,8.75-10.57,12.28l-1.25,1.1a24.75,24.75,0,0,1-4.88,3.67l-.06,0c-1.37.71-2.67,1.39-4,.19s-3.2-2.79-4.43-3.74c2.58,6.36,3.93,14.1,3.45,19.89a76.37,76.37,0,0,1-3.48,16.45A120.81,120.81,0,0,1,98.64,99.4C96.7,104,96.19,103.89,98.18,99.2ZM61.94,84.69a1.53,1.53,0,0,0,.31.8,1.4,1.4,0,0,0,1.31.63l.33-.05c1.6-.18,1.93-.37,2-.47a2.46,2.46,0,0,0-1,0A3.4,3.4,0,0,1,63,85.54,4.34,4.34,0,0,1,61.94,84.69Zm.11-1a1.4,1.4,0,0,0,.73.9l.06,0a1.55,1.55,0,0,0,1.44.19,3.9,3.9,0,0,0,1-.35c-.19,0-.43.05-.54.06l-.23,0a3.36,3.36,0,0,1-1.17-.14A4.82,4.82,0,0,1,62.05,83.69Zm-.11-.76h0a5.6,5.6,0,0,0,1.48,1,8.23,8.23,0,0,1-.13-3.36,3.32,3.32,0,0,0,0-.37.93.93,0,0,0,0-.43s-.08,0-.2.16a4.07,4.07,0,0,0-.81,1.67l0,.14A9.18,9.18,0,0,0,61.94,82.93Zm48-32.37c-.88,0-1.79-.69-3.23-2.44-.33-.4-.67-.87-1-1.36a15.41,15.41,0,0,0-3-3.35l-.11-.08a5.48,5.48,0,0,0-.64-.36,1.55,1.55,0,0,1-.81-1.64c.14-.68.26-1.33.38-2,.28-1.46.57-3,1-4.43l.47-1.85A34.07,34.07,0,0,1,104.45,28a5.16,5.16,0,0,0,.3-3.22,2.23,2.23,0,0,1,.76-2.54c1-.74,1.91,0,2.56.48s1.13.83,1.75,1.27A22.84,22.84,0,0,1,113,26.45c2.13,2.16,4.43,4.21,6.66,6.19l1.92,1.71.14.13a1.16,1.16,0,0,1,.54.8,1,1,0,0,1-.4.71h0a31.66,31.66,0,0,0-5.49,7.16c-.83,1.32-1.68,2.69-2.62,4-1.61,2.17-2.58,3.41-3.74,3.44ZM103,43.06a15.94,15.94,0,0,1,3,3.4c.35.49.69.95,1,1.34,1.32,1.6,2.15,2.25,2.86,2.25h0c.92,0,1.87-1.24,3.34-3.24.93-1.26,1.78-2.62,2.61-3.93a31.94,31.94,0,0,1,5.58-7.27h0c.15-.13.23-.25.23-.33s-.2-.27-.36-.42l-.16-.13L119.3,33c-2.23-2-4.54-4-6.68-6.21a22.89,22.89,0,0,0-3.09-2.43c-.63-.44-1.22-.85-1.76-1.28-.74-.58-1.31-1-2-.47a1.75,1.75,0,0,0-.57,2,5.62,5.62,0,0,1-.32,3.53,36.55,36.55,0,0,0-1.51,5c-.15.62-.3,1.24-.47,1.86-.39,1.44-.67,3-.94,4.4-.13.65-.25,1.3-.38,1.95s.28,1,.52,1.11a4.88,4.88,0,0,1,.8.47Z"/><path class="cls-1" d="M102,181.65a3.13,3.13,0,0,1-1.82-.63c-2.75-2-4-4.33-3.8-7.19l0-.59a15.23,15.23,0,0,1,.3-2.6c1.28-5.49,0-10.79-1.31-15.91-2.26-9.06-4.81-19.33-6.86-29.54a35.19,35.19,0,0,1-.47-6.61c0-.63,0-1.25,0-1.87,0-1.47-2.87-14-3.1-15.19l.48-.09c.24,1.22,3.08,13.77,3.12,15.27,0,.62,0,1.25,0,1.87a33.28,33.28,0,0,0,.46,6.52c2,10.2,4.59,20.47,6.85,29.52,1.29,5.18,2.62,10.53,1.31,16.14a15.08,15.08,0,0,0-.29,2.52l0,.59c-.17,2.68,1,4.89,3.6,6.75a2.47,2.47,0,0,0,3.65-.67,6.23,6.23,0,0,0,1.15-3.66,31.54,31.54,0,0,0-1.6-9.45,26.58,26.58,0,0,1-.59-2.87,17.64,17.64,0,0,0-1-4.16c-.44-1-1.18-2.72-.07-4.13,2.6-3.32,1.83-6.85,1-10.58a30.37,30.37,0,0,1-.73-4.19,1.15,1.15,0,0,0-.08-.15.86.86,0,0,1-.14-.27,1.34,1.34,0,0,0-.07-.18,1.59,1.59,0,0,1-.13-.78c.23-1.43.35-2.86.48-4.24s.22-2.52.41-3.82c1-7.26.76-13.71-.87-19.17l-.29-1c-1.23-4.08-1.43-10.06.32-14.21l.46.19c-1.69,4-1.56,9.7-.3,13.87l.29,1c1.64,5.54,1.94,12.06.88,19.39-.19,1.29-.3,2.56-.41,3.79-.13,1.39-.25,2.83-.49,4.28a1.29,1.29,0,0,0,.12.53c0,.07,0,.14.07.2a.74.74,0,0,0,.08.15.77.77,0,0,1,.16.38,31.92,31.92,0,0,0,.72,4.13c.81,3.67,1.65,7.48-1.1,11-.85,1.09-.4,2.38.13,3.62a18.44,18.44,0,0,1,1.09,4.28,25,25,0,0,0,.57,2.81,32.06,32.06,0,0,1,1.62,9.6,6.64,6.64,0,0,1-1.25,4A3.15,3.15,0,0,1,102,181.65Z"/><path class="cls-1" d="M101.41,157.71c-1.26-4.08-1.42-8.57-1.57-12.91l0-1.11c0-1-.07-2.06-.1-3.09a126,126,0,0,0-.92-13.53c-.32-2.3-.84-4.62-1.34-6.87a68.36,68.36,0,0,1-1.59-9.15c-.28-3.53-.44-7.22-.49-11.28h.5c0,4,.2,7.72.48,11.24a68.18,68.18,0,0,0,1.59,9.08c.5,2.26,1,4.6,1.34,6.91a127.12,127.12,0,0,1,.92,13.59c0,1,.07,2,.11,3.08l0,1.11c.15,4.31.31,8.77,1.55,12.78Z"/><path class="cls-2" d="M76.05,157.55s9.71-6.06,6-13c-9-17.05-4.57-15.05-1-19.06,2.25-2.53,13-2,7-15-.73-1.57-4.36-2.66-3-4,2-2-.1,4.42,8-1,6.55-4.37,16-1,16,0,0,1.32-4.48,2.64-6.49,7.65-1.13,2.82,2.24,5,6.38,14.62,2.09,4.88-.65,12.46-4,14.26-1.6.85-2.11,3.39-.5,4.21,3.57,1.81,6.94,3.64,7.7,7.93.48,2.72,0,5.51,0,8.28-.13,7.86,2,15.81,10.09,18.45,6.29,2,13.24,1.13,19.65,1.29,7.93.19,16.41.36,23.58-3.54.72-.39,1.5-.94,1.56-1.75s-.79-1.62-1.58-2.1c-5.93-3.55-12.93-4.25-18.79-8a32,32,0,0,1-12.87-17.3c-2-6-3-12.31-4.93-18.33-1.79-5.54-3.9-10.77-4.76-16.6-5-34.1-8-43.12-8-43.12-1.92-5.76-4.06-11.45-6.23-17.12-2.06-5.37-5.52-11-6-16.77-.31-4,1.93-7.71,1.91-11.66,0-4.93.83-8.78-1.08-13.71a2.24,2.24,0,0,0-.62-.89c-1.07-.87-2.56-.57-3.47-.51a1.68,1.68,0,0,0-1.38,1c-3,6-11.8,5.93-15.24,0-.39-.68-1.48-.63-2.32-.55-1.64.39-3.43.85-3.79,1.54-.23.45-.5,1-.25,1.38,3.35,5.18-.53,11.34,1.34,18.22,2.74,10.07,6.69,16.45,2,26.72-8.29,18.28-9.19,39.21-16.66,57.92-7,17.51-16.66,33.67-30.24,46.88a22.91,22.91,0,0,1-8,5.51c-2.46.9-7.2,1.23-7.24,4.34-.05,5.49,7,8,12.23,6.18,2.26-.81,3.8.16,5.89.84,5,1.62,10.47-.35,15.61-.19,4.73.16,8.66,2.47,12.39-1.57s3.46-9.71,3.23-15"/><path class="cls-1" d="M147.09,183.14c-1.74,0-3.44,0-5.1-.08s-3.35,0-5.12,0c-4.93.09-10,.2-14.81-1.36-7.22-2.34-11-9-10.79-19.4,0-.85.06-1.7.11-2.56a24.23,24.23,0,0,0-.09-5.53c-.65-3.65-3.38-5.29-7.17-7.21a2.82,2.82,0,0,1-1.54-2.56,4,4,0,0,1,2-3.42c14.06-7.55,17.3-32.52,17.33-32.77a1,1,0,0,1,.26-.55c-4.34-28-7-36-7-36.11C113.25,65.81,111.05,60,109,54.54c-.59-1.54-1.3-3.09-2-4.73-1.8-4-3.66-8.05-4-12.31a19.51,19.51,0,0,1,1-6.53,19.87,19.87,0,0,0,.93-5.2c0-1.22,0-2.44.08-3.62.14-3.7.27-7.2-1.1-10.74a1.09,1.09,0,0,0-.32-.48,3.3,3.3,0,0,0-2.33-.33l-.45,0a.72.72,0,0,0-.55.42A9.36,9.36,0,0,1,91,16.15c-3.69-.2-6.76-2.19-7.86-5.08a4.42,4.42,0,0,0-1.26,0,10.49,10.49,0,0,0-3.09,1,3.34,3.34,0,0,0-.2.46c2,3.12,1.59,6.71,1.21,10.52-.29,2.93-.6,6,.19,8.86.53,1.94,1.1,3.74,1.66,5.47,2.27,7.14,4.24,13.31.33,21.93C77.61,69,75.27,79.55,73,89.78c-2,9.15-4.12,18.61-7.65,27.47-7.6,19.07-17.84,35-30.44,47.24-3.93,3.82-7.08,6.14-9.62,7.07a11.72,11.72,0,0,1-2.5.54c-1.76.24-2.55.4-2.89,1.78a2.27,2.27,0,0,0,.32,1.85c1.1,1.73,4,2.85,5.7,3.19a9.61,9.61,0,0,0,3.63-.14c.59-.1,1.2-.2,1.88-.26a12.56,12.56,0,0,1,5.27,1,18.62,18.62,0,0,0,2.72.79,20.92,20.92,0,0,0,7.19-.37,26,26,0,0,1,6.91-.51c.79.08,1.58.21,2.37.33,3.28.51,6.11.94,8.43-1.57,3.42-3.72,3.17-9.56,3-14.25a1,1,0,0,1,.95-1,1,1,0,0,1,1,.95c.22,5.06.5,11.36-3.49,15.69-3,3.29-6.68,2.73-10.2,2.18-.75-.11-1.51-.23-2.26-.31a24.44,24.44,0,0,0-6.38.49,22.81,22.81,0,0,1-7.88.37,20.61,20.61,0,0,1-3-.87,11.09,11.09,0,0,0-4.45-.9c-.6.06-1.18.15-1.73.25a11.31,11.31,0,0,1-4.34.12c-1.87-.37-5.46-1.64-7-4.07a4.25,4.25,0,0,1-.57-3.4c.68-2.75,2.83-3,4.55-3.27a10.25,10.25,0,0,0,2.08-.44c2.28-.83,5.19-3,8.92-6.63,12.4-12.08,22.49-27.74,30-46.55,3.47-8.71,5.55-18.09,7.55-27.16,2.29-10.33,4.65-21,9.09-30.81C83.74,50.61,82,45.06,79.73,38c-.56-1.76-1.14-3.58-1.67-5.55-.9-3.27-.57-6.48-.26-9.59.37-3.65.68-6.79-1-9.36A2.33,2.33,0,0,1,77,11.17c.55-1.05,2.19-1.51,4.45-2.05l.13,0c1-.09,2.82-.26,3.36,1.21.79,2.19,3.2,3.71,6.13,3.86a7.44,7.44,0,0,0,7.27-4,2.69,2.69,0,0,1,2.21-1.52l.39,0a5,5,0,0,1,3.78.77,3.11,3.11,0,0,1,.91,1.3c1.53,3.92,1.38,7.79,1.24,11.53,0,1.16-.09,2.36-.08,3.53a21.52,21.52,0,0,1-1,5.74,17.53,17.53,0,0,0-.9,5.86c.3,3.91,2.09,7.84,3.82,11.63.72,1.6,1.47,3.25,2.09,4.85,2.1,5.46,4.31,11.31,6.26,17.16.12.37,3.1,9.5,8.09,43.28a71.83,71.83,0,0,0,3.5,12.78q.63,1.81,1.23,3.66c1,3,1.76,6.21,2.5,9.26s1.47,6.1,2.44,9.07a30.91,30.91,0,0,0,12.48,16.76,40.91,40.91,0,0,0,9.52,4.12,46.56,46.56,0,0,1,9.23,3.89c1.47.88,2.17,1.9,2.08,3a3.44,3.44,0,0,1-2.08,2.55C160.19,182.59,153.47,183.14,147.09,183.14Zm-6.72-2.09,1.66,0c7.54.18,16.08.38,23.09-3.43.83-.46,1-.77,1-1s-.38-.72-1.11-1.16a44.3,44.3,0,0,0-8.85-3.71,43.89,43.89,0,0,1-10-4.34,32.88,32.88,0,0,1-13.3-17.82c-1-3-1.74-6.18-2.48-9.21S129,134.3,128,131.32c-.4-1.22-.81-2.42-1.22-3.62a73.59,73.59,0,0,1-3.59-13.14c-.06-.4-.12-.81-.18-1.2a76.45,76.45,0,0,1-2.6,9.18c-3.52,9.91-8.67,16.92-14.89,20.27a1.93,1.93,0,0,0-1,1.64.84.84,0,0,0,.44.8c3.28,1.66,7.37,3.73,8.23,8.65a25.61,25.61,0,0,1,.13,6c-.05.82-.1,1.65-.12,2.47-.14,9.53,3,15.41,9.42,17.48,4.47,1.45,9.4,1.35,14.16,1.26C138,181.08,139.19,181.05,140.37,181.05Z"/><path class="cls-1" d="M67.16,163.61c-.11-3.91.06-7.72.11-11.57l.22-11.53.44-23.07.55,23.06L68.75,152c.12,3.84.1,7.72.39,11.49a1,1,0,0,1-.91,1.07,1,1,0,0,1-1.07-.91v-.07Z"/><path class="cls-1" d="M83.06,51.05a51.08,51.08,0,0,0,11.16,1.21,16.73,16.73,0,0,0,5.27-1A13.74,13.74,0,0,0,101.9,50a19,19,0,0,0,2.22-1.78,8.85,8.85,0,0,1-1.58,2.51,10.25,10.25,0,0,1-2.38,1.91,12.9,12.9,0,0,1-5.86,1.57,19.09,19.09,0,0,1-5.9-.76A18.34,18.34,0,0,1,83.06,51.05Z"/><path class="cls-1" d="M69,164.56a1,1,0,0,1-.63-1.76c1.14-.94,2.36-1.84,3.66-2.79,3.07-2.25,6.24-4.58,8.2-7.45,2.6-3.81,1.76-6.67-.7-10.6a30.55,30.55,0,0,1-2.35-4.64,1,1,0,1,1,1.85-.74,28.15,28.15,0,0,0,2.18,4.32c2.77,4.43,3.85,8.11.66,12.78-2.15,3.15-5.46,5.58-8.67,7.93-1.27.94-2.47,1.82-3.57,2.72A1,1,0,0,1,69,164.56Z"/><path class="cls-1" d="M75.14,108.43a79.15,79.15,0,0,0,.16,8.44c.16,2.81.46,5.61.88,8.37s1.16,5.47,1.71,8.17a59.15,59.15,0,0,0,2.25,8,.1.1,0,0,1-.06.14.12.12,0,0,1-.11,0,20.41,20.41,0,0,1-4-7.64,40.29,40.29,0,0,1-1.36-8.49c-.23-2.84-.33-5.69-.3-8.53a70.86,70.86,0,0,1,.64-8.49.1.1,0,0,1,.12-.08A.09.09,0,0,1,75.14,108.43Z"/><path class="cls-1" d="M78.14,137.94a1,1,0,0,1-1-.85,20,20,0,0,1,.19-7.15A10.09,10.09,0,0,1,80,124.7a10.64,10.64,0,0,1,4.3-2.23c2-.67,3.61-1.2,4.21-3.35,1.06-3.81-1.18-7.11-3.34-10.31-.58-.85-1.18-1.73-1.7-2.6a1,1,0,0,1,.18-1.24,1,1,0,0,1,1.24-.09,8.59,8.59,0,0,0,4.64,1.05h.06c1.86,0,3.55-1,5.33-2a25.66,25.66,0,0,1,2.48-1.33c3-1.34,6.58-1.1,10.17.68,1.82.9,2.2,2,2.19,2.8a2.81,2.81,0,0,1-1.45,2.33A6.33,6.33,0,0,1,107,109l-.49.19A5.5,5.5,0,0,0,103,113.4a7.33,7.33,0,0,0,2.38,6.54c.69.64,1.46,1.26,2.29,1.92,2.87,2.29,6.14,4.88,6.18,9.2a9.69,9.69,0,0,1-1.13,4.63,1,1,0,0,1-1.35.41,1,1,0,0,1-.41-1.34,7.71,7.71,0,0,0,.91-3.68c0-3.37-2.67-5.46-5.44-7.67-.82-.65-1.66-1.32-2.41-2a9.34,9.34,0,0,1-3-8.35,7.43,7.43,0,0,1,4.69-5.66l.57-.22a4.86,4.86,0,0,0,1-.44.94.94,0,0,0,.51-.65c0-.29-.41-.68-1.08-1-1.77-.87-5.22-2.11-8.47-.65-.76.35-1.51.78-2.31,1.24-1.93,1.11-3.92,2.26-6.32,2.26h-.09a15.54,15.54,0,0,1-2.69-.24v0c2.3,3.4,4.91,7.26,3.61,12-.88,3.17-3.34,4-5.5,4.7a9,9,0,0,0-3.54,1.78,8.13,8.13,0,0,0-2.12,4.24,17.85,17.85,0,0,0-.16,6.43,1,1,0,0,1-.84,1.13Z"/><path class="cls-1" d="M108.13,104.41a17.29,17.29,0,0,0-4.48,4.18c-1.46,1.71-2.75,3.13-2.81,5.52a9.38,9.38,0,0,0,1.59,5.19c1.1,1.73,2.62,3.17,3.7,4.92a16.58,16.58,0,0,1,2.18,8.35,40.9,40.9,0,0,1-.18,4.56c0,.57-.61,3-.13,3.37.31.25,1.36-1.85,1.67-2a19.15,19.15,0,0,0,2.23-3.28l.46-6.62c0-1-2-3.2-2.56-4-2.17-2.78-5.49-3.79-6.68-7.2-1.31-3.73-1-6,4.23-9.08C108.47,107.7,109,105.36,108.13,104.41Z"/><path class="cls-1" d="M77,134.48a53.85,53.85,0,0,1,.11-8.14c.19-2.69.78-5.33,1.2-8l1.3-8,1.4-8a.1.1,0,0,1,.12-.08.11.11,0,0,1,.08.11l-.61,8.07-.71,8.05c-.25,2.69-.32,5.4-.8,8a53.5,53.5,0,0,1-1.89,7.91.1.1,0,0,1-.13.06A.08.08,0,0,1,77,134.48Z"/><path class="cls-1" d="M88.08,64.3l-3,41.21a1,1,0,0,1-2-.15v0Z"/><path class="cls-1" d="M103.62,60.79l5.5,45.53a1,1,0,0,1-2,.23v0Z"/><path class="cls-1" d="M112.83,92.9a15.06,15.06,0,0,0-3.42,7.31,15.37,15.37,0,0,0,.8,8,26.78,26.78,0,0,0,4.38,6.8c1.74,2.09,3.62,4.07,5.54,6a.51.51,0,0,1,0,.71.5.5,0,0,1-.71,0h0c-1.86-2-3.7-4.07-5.4-6.24a27.57,27.57,0,0,1-4.26-7.09,15.69,15.69,0,0,1-.58-8.2A15.25,15.25,0,0,1,112.83,92.9Z"/><path class="cls-1" d="M112.36,167.15a1,1,0,0,1-.71-.29,1,1,0,0,1,0-1.41c5.47-5.41,6.16-14.89,6.77-23.25.18-2.35.34-4.57.6-6.63l3.15-25.27a1,1,0,0,1,2,.25L121,135.82c-.25,2-.41,4.2-.58,6.52-.64,8.72-1.36,18.59-7.36,24.53A1,1,0,0,1,112.36,167.15Z"/><path class="cls-1" d="M112.14,151.53c.14,2,1.53,4.46,2.48,6.22.37.68,1.16,1.27,1.88,1,.18-.08.3-.14.48,0-.77,2.7-3.34,5.49-4.84,7.89.12-.18-.06-.94-.08-1.15l-.19-3c-.17-2.5.44-3.41.27-5.91C112.07,155.41,112.22,152.67,112.14,151.53Z"/></svg>