<svg id="图层_1" data-name="图层 1" xmlns="http://www.w3.org/2000/svg" viewBox="0 0 186 186"><defs><style>.cls-1{fill:#fff;}.cls-2{fill:#5b3b2f;}.cls-3{fill:#f8e5ec;}.cls-4{fill:#f9e6ed;}</style></defs><path class="cls-1" d="M117.57,3.38h-7.24a1.67,1.67,0,0,0-1.58,1.12c-.31.87-.66,2.56-.8,2.75-1.09,1.35-2.93,1.12-4.47,1.3-1.93.23-4,.52-5.56,1.86a12.25,12.25,0,0,0-3.28,5.46c-1,3.08-1.23,6.55-1.76,9.73s-1,6.17-1.5,9.25a4.24,4.24,0,0,0,2.16,4.57,6.45,6.45,0,0,0,2,.64c1.76.25,4,.33,5.59-.71s1.91-3.53-.55-3.59c-1.57,0-4.08.58-4.12-1.59,0-1.34.9-2.85,1.52-4,1.32-2.37,3-4.5,4.5-6.73a1.69,1.69,0,0,1,1.57-.74L126,25c.86.09,2.93-2.64,3.37-3.19a16.06,16.06,0,0,0,3.26-7.15c.53-2.8.31-4.37-2.65-5.08-3.24-.78-7.22-.68-10.2-2.29a.89.89,0,0,1-.43-.38,1,1,0,0,1-.07-.39c0-.56-.07-1.13-.07-1.68A1.68,1.68,0,0,0,117.57,3.38Z"/><path class="cls-2" d="M97.47,40.22a15.12,15.12,0,0,1-2.14-.16,7.16,7.16,0,0,1-2.12-.66,4.5,4.5,0,0,1-2.32-4.85c.33-1.86.63-3.76.93-5.6.19-1.22.38-2.43.59-3.64.15-.9.28-1.83.41-2.76a40.71,40.71,0,0,1,1.38-7A12.14,12.14,0,0,1,97.59,10c1.67-1.44,4-1.72,5.78-1.92.33,0,.67-.06,1-.08,1.25-.07,2.53-.14,3.33-1.13A9.93,9.93,0,0,0,108,5.75c.14-.55.3-1.16.45-1.58a2,2,0,0,1,1.84-1.29h7.34a1.93,1.93,0,0,1,1.93,1.68c0,.35,0,.67,0,1s0,.48,0,.73a.59.59,0,0,0,0,.28.7.7,0,0,0,.33.27,19.89,19.89,0,0,0,6.64,1.66c1.22.17,2.49.34,3.64.61,3.13.74,3.43,2.46,2.87,5.36a16.22,16.22,0,0,1-3.35,7.27l-.18.21c-1.25,1.57-2.68,3.15-3.46,3.07L104,22.73a1.47,1.47,0,0,0-1.35.63c-.43.62-.87,1.23-1.31,1.84a54.15,54.15,0,0,0-3.24,4.87l-.19.33a7.81,7.81,0,0,0-1.32,3.52,1.28,1.28,0,0,0,.36,1c.53.5,1.63.44,2.6.4l1,0a1.93,1.93,0,0,1,2,1.25,2.7,2.7,0,0,1-1.34,2.8A6.66,6.66,0,0,1,97.47,40.22ZM110.33,3.38a1.46,1.46,0,0,0-1.37,1c-.14.41-.3,1-.44,1.54a4.29,4.29,0,0,1-.41,1.28c-.94,1.16-2.4,1.25-3.69,1.32-.34,0-.67,0-1,.08-1.67.19-4,.46-5.5,1.8a11.78,11.78,0,0,0-3.24,5.35,40.37,40.37,0,0,0-1.37,6.92c-.13.94-.26,1.86-.41,2.77-.2,1.21-.4,2.42-.59,3.64-.29,1.84-.6,3.74-.93,5.61A4,4,0,0,0,93.43,39a6.53,6.53,0,0,0,2,.61c2.45.35,4.25.13,5.49-.67A2.23,2.23,0,0,0,102,36.65c-.15-.55-.71-.87-1.56-.89l-.93,0c-1.07.05-2.28.11-3-.53a1.78,1.78,0,0,1-.52-1.33,8,8,0,0,1,1.39-3.77l.19-.33a54.44,54.44,0,0,1,3.26-4.92c.44-.61.88-1.21,1.31-1.83a2,2,0,0,1,1.81-.85l22.25,2.28c.31,0,1.06-.44,3-2.88l.18-.22a15.79,15.79,0,0,0,3.25-7c.53-2.77.29-4.12-2.5-4.78-1.13-.27-2.32-.43-3.58-.6a20.61,20.61,0,0,1-6.81-1.71,1.16,1.16,0,0,1-.56-.51,1.18,1.18,0,0,1-.08-.48c0-.24,0-.48,0-.71s0-.66,0-1a1.45,1.45,0,0,0-1.44-1.22Z"/><path class="cls-3" d="M73.28,182.12c-21.16,0-38.34-1.73-54.08-5.47-2.84-.67-6.48-2.73-7.78-5.67a5.39,5.39,0,0,1,.35-5c1.78-3.23,6.92-3.94,10.67-4.46l.73-.1c2.54-.36,5.15-.55,7.68-.73s5.28-.38,7.91-.76C63,156.42,71.08,124.12,73,114.3c1.11-5.69,1.91-11.36,2.68-16.86C77.9,81.58,80,66.6,89,52.56a41.69,41.69,0,0,1,6.48-8.25c.42-.39.86-.77,1.3-1.14,1.9-1.61,4-3.43,4.08-6.67A17.72,17.72,0,0,0,99.68,30a15.1,15.1,0,0,1-1.09-6.24c.18-3.79,3-5.41,9.34-5.41,1.13,0,2.23.05,3.3.09l1.74.06a48.56,48.56,0,0,1,8.81,1.05l.63.14c4.11.86,5.82,1.21,6.41,5.43a14,14,0,0,1-3,10.63,56.62,56.62,0,0,0-5.1,6.86,6,6,0,0,0,.37,6.45c2.06,2.86,4.24,5.72,6.35,8.48a192.76,192.76,0,0,1,11.77,16.55c6,9.82,10.15,20.8,14.18,31.41l16.93,44.64c.47,1.23,1,2.46,1.56,3.76a47.55,47.55,0,0,1,2.87,7.92q.14.64.24,1.29a6.19,6.19,0,0,1-1.17,5c-2.11,2.43-6.9,3.74-10.74,4.8-1.28.36-2.49.69-3.52,1a99.88,99.88,0,0,1-17.22,4.42c-12.52,1.81-25.39,2.35-37.84,2.87l-3.91.17c-8,.34-17.57.69-27.27.69Z"/><path class="cls-2" d="M107.93,19.39c1.11,0,2.2.05,3.25.09l1.76.06a47.58,47.58,0,0,1,8.64,1l.63.13c4,.85,5.12,1.08,5.62,4.61A13,13,0,0,1,125,35.17c-3.07,3.85-4.23,5.29-5.19,7a7,7,0,0,0,.42,7.53c2.07,2.86,4.26,5.72,6.37,8.49a192.83,192.83,0,0,1,11.72,16.47c5.93,9.74,10.08,20.67,14.09,31.25l5.41,14.24,5.76,15.19,5.77,15.21c.47,1.24,1,2.54,1.57,3.8a45.28,45.28,0,0,1,2.81,7.74c.1.41.17.82.23,1.21a5.32,5.32,0,0,1-.93,4.18c-1.92,2.2-6.54,3.48-10.26,4.5-1.29.36-2.51.69-3.57,1.05a98.85,98.85,0,0,1-17.05,4.38c-12.47,1.81-25.32,2.34-37.75,2.86l-3.89.17c-8,.34-17.55.69-27.24.69-21.08,0-38.19-1.73-53.85-5.44-2.69-.64-6-2.6-7.09-5.1a4.39,4.39,0,0,1,.3-4.14c1.54-2.79,6.4-3.46,9.94-3.95l.73-.1c2.5-.36,5.1-.55,7.61-.73s5.31-.38,8-.76C63.75,157.32,72,124.47,74,114.49c1.12-5.71,1.92-11.4,2.69-16.9C78.88,81.84,81,67,89.88,53.1A40.51,40.51,0,0,1,96.21,45c.39-.37.81-.73,1.26-1.11,2-1.66,4.39-3.73,4.43-7.42a18.54,18.54,0,0,0-1.28-6.79,14.21,14.21,0,0,1-1-5.87c.11-2.32,1.19-4.46,8.34-4.46m0-2c-4.87,0-10.08.84-10.34,6.37S100,31.14,99.9,36.49c0,3.45-2.84,5-5.06,7.1A42.35,42.35,0,0,0,88.2,52C75.85,71.23,76.26,92.3,72,114.1,68.6,131.61,58.92,156,38.62,158.92c-5.17.74-10.42.75-15.59,1.49-3.9.55-10,1.17-12.14,5.06-3.34,6,3,10.94,8.08,12.15,18,4.27,36.09,5.5,54.31,5.5,9.08,0,18.19-.3,27.33-.69,14-.6,28-1,41.84-3.05a98.78,98.78,0,0,0,17.4-4.47c4.21-1.42,11.66-2.64,14.7-6.13A7.24,7.24,0,0,0,176,163c-.07-.46-.15-.91-.26-1.37-.89-4-3.05-8.09-4.46-11.81l-5.77-15.21q-5.58-14.72-11.17-29.43C150.2,94.39,146.06,83.5,140,73.61c-5.34-8.78-12.15-16.75-18.16-25.09a5,5,0,0,1-.31-5.38,55.33,55.33,0,0,1,5-6.72A15,15,0,0,0,129.81,25c-.73-5.16-3.32-5.45-7.82-6.41a48.61,48.61,0,0,0-9-1.06c-1.45,0-3.23-.16-5.06-.16Z"/><path class="cls-2" d="M47.61,171.08a.77.77,0,0,1-.72-.54.74.74,0,0,1,.51-.93c13.66-4,23.61-11.83,28.77-22.56,3.41-7.07,5.09-14.85,6.4-21.59,1.19-6.16,2.23-12.54,3.23-18.72C89,87.11,92.28,66.82,101.31,48.85a.76.76,0,0,1,1-.34.75.75,0,0,1,.33,1C93.73,67.28,90.45,87.46,87.28,107c-1,6.19-2,12.59-3.24,18.76-1.33,6.83-3,14.73-6.51,22-5.36,11.13-15.63,19.2-29.71,23.35Z"/><path class="cls-2" d="M135.31,179.44h-.06a.74.74,0,0,1-.68-.81c2.51-28.88-18.77-102.68-19-103.46a.74.74,0,0,1,.51-.93.75.75,0,0,1,.93.51c.23.78,21.59,74.85,19,104A.75.75,0,0,1,135.31,179.44Z"/><path class="cls-2" d="M93,182.17a.78.78,0,0,1-.26,0,.75.75,0,0,1-.45-1c9.1-25,13.59-71,13.63-71.49a.75.75,0,0,1,1.49.15c0,.46-4.54,46.64-13.71,71.85A.75.75,0,0,1,93,182.17Z"/><path class="cls-4" d="M119.39,64.17c.19.62.3,1,.52,1.61s.58,1.08.83,1.65c.05.1.07.25,0,.31a.23.23,0,0,1-.14,0,1.9,1.9,0,0,1-1.25-.6l-.89-.94Z"/><path class="cls-1" d="M115.74,70.05q-.17,1.1-.3,2.19c0,.3-.32,1.46.21,1.54.31,0,.45-.32.54-.55.58-1.52,1-3.1,1.41-4.67,0-.15.08-.55.3-.53.85.07,0,5.3,0,5.75,0-.09,0,.7.62,0,0,0,1-4.35.81-5.76a24.91,24.91,0,0,1,.05-3.56c0-1.72,1-3.31-.14-5.36l-1.62-9.16c-.5-2-.63-4.11-1.06-6.14-.5-2.35-1.38-4.82-1.35-7.24,0-4.25,4.47-6.52,7.44-8.64,8.07-5.78,7.47-7.4,9.89-12.09l-7.41-1.7c-.58-.13-4.5,5.63-4.93,6.17-2.72,3.39-5.43,6.74-8.39,9.9a8.84,8.84,0,0,0-1.31,9.62c.17,0,5.51,20.58,5.53,20.64a8,8,0,0,1-.59.89,11.37,11.37,0,0,0-1,3.27c-.08.5-.15,1-.2,1.5a5.64,5.64,0,0,1-.69,2.22,5.15,5.15,0,0,0-.73,2.13c0,.11,0,.25.13.26a.31.31,0,0,0,.12,0,3.82,3.82,0,0,0,.86-1.32A6.2,6.2,0,0,1,115,68c.17-.16.07.31.06.37-.09.41-.21.81-.33,1.22a12.51,12.51,0,0,0-.59,3.09.51.51,0,0,0,0,.25.2.2,0,0,0,.19.14.22.22,0,0,0,.15-.08c.3-.27.31-.74.44-1.1a12.21,12.21,0,0,1,.7-1.34c.23-.42.32-.9.54-1.33"/><path class="cls-1" d="M119.39,64.05c.19.61.3,1,.52,1.6s.58,1.09.83,1.65c.05.11.07.25,0,.32a.23.23,0,0,1-.14,0,2,2,0,0,1-1.25-.6l-.89-.94Z"/><path class="cls-2" d="M114.34,73.45a.43.43,0,0,1-.28-.1c-.26-.24-.27-.9,0-2,.11-.49.25-1,.38-1.44s.22-.76.32-1.14a4.77,4.77,0,0,0-.61.86.64.64,0,0,0-.06.12c-.38.77-.69,1.26-1,1.31a.39.39,0,0,1-.35-.12c-.27-.28-.11-.85.07-1.35l0-.08a7.09,7.09,0,0,1,.55-1.2,5.36,5.36,0,0,0,.66-2.12c0-.53.12-1,.2-1.52a11.59,11.59,0,0,1,1-3.33l.2-.3c.1-.13.28-.39.35-.5l0-.07c-2.35-9-5.17-19.74-5.45-20.41l0-.05a9.1,9.1,0,0,1,1.36-9.89c2.94-3.14,5.64-6.47,8.38-9.88.12-.15.86-1.47,1.64-2.87,1.11-2,2.49-4.45,3.6-6.28a4.59,4.59,0,0,1,4.72-2,3.82,3.82,0,0,1,3.24,3.05,7.39,7.39,0,0,1-.22,3.33c-.77,2.93-2.51,5.17-4.19,7.34-1.85,2.38-4.77,4.56-7.33,6.49l-1,.75-.08.06c-2.18,1.65-4.89,3.71-4.92,6.57a20.79,20.79,0,0,0,.86,5.19c.17.68.34,1.34.48,2,.2.92.33,1.86.46,2.77.16,1.11.33,2.26.6,3.36l1.62,9.14a5.39,5.39,0,0,1,.34,3.89l-.07.41a.25.25,0,0,1-.29.2.24.24,0,0,1-.2-.29l.07-.41a4.93,4.93,0,0,0-.31-3.6.19.19,0,0,1,0-.07l-1.62-9.16a32.72,32.72,0,0,1-.61-3.4c-.13-.9-.26-1.84-.46-2.73-.13-.66-.3-1.32-.47-2a21.06,21.06,0,0,1-.88-5.31c0-3.11,3-5.34,5.12-7l.07-.06,1-.76c2.54-1.91,5.42-4.07,7.23-6.4s3.37-4.32,4.1-7.16a7,7,0,0,0,.22-3.1,3.34,3.34,0,0,0-2.83-2.66,4.11,4.11,0,0,0-4.21,1.8c-1.1,1.82-2.48,4.28-3.59,6.26-1,1.81-1.55,2.76-1.69,2.94-2.75,3.42-5.45,6.76-8.41,9.91a8.63,8.63,0,0,0-1.26,9.36l0,0c.33.67,1.25,4,5.54,20.5l0,.15c0,.15,0,.27-.44.84-.08.11-.15.2-.17.24a10.75,10.75,0,0,0-1,3.19c-.08.47-.15,1-.2,1.47a5.93,5.93,0,0,1-.72,2.32,6.89,6.89,0,0,0-.51,1.12l0,.08a3.16,3.16,0,0,0-.19.74,4.65,4.65,0,0,0,.57-1l.07-.15A5.52,5.52,0,0,1,114.8,68a.32.32,0,0,1,.46,0,.31.31,0,0,1,.08.3,18.25,18.25,0,0,1-.46,1.8c-.13.46-.27.93-.37,1.4a3.81,3.81,0,0,0-.13,1.44.91.91,0,0,0,.06-.11,5.8,5.8,0,0,0,.32-.8,9.2,9.2,0,0,1,.39-.93c.21-.42.4-.87.59-1.3.07-.18.15-.35.22-.53a.27.27,0,0,1,.33-.13.25.25,0,0,1,.13.33c-.08.17-.15.35-.22.52-.19.44-.38.9-.61,1.34a8.36,8.36,0,0,0-.36.87,6.28,6.28,0,0,1-.34.85.72.72,0,0,1-.38.39Zm.8-5.09h0Z"/><path class="cls-2" d="M118.11,74.45H118a.54.54,0,0,1-.36-.44.29.29,0,0,1,0-.09s0,0,0,0l0-.2c.54-3.93.35-4.94.24-5.2,0,.06,0,.14,0,.18l0,.1-.23.84c-.35,1.27-.71,2.59-1.19,3.85-.1.26-.29.78-.81.71a.55.55,0,0,1-.37-.22,2.1,2.1,0,0,1-.07-1.43,1.49,1.49,0,0,0,0-.17l.06-.5c0-.39.07-.65.15-1.18a.25.25,0,0,1,.49.07c-.07.53-.1.78-.14,1.16l-.06.51s0,.11,0,.19c0,.24-.14.87,0,1s.21-.11.3-.36c.48-1.25.83-2.55,1.18-3.81l.25-.92c0-.22.16-.69.54-.64a.48.48,0,0,1,.33.19c.26.32.52,1.25-.09,5.65l0,.15v0a.76.76,0,0,0,.13-.13v0a22.42,22.42,0,0,0,.79-5.57,6.11,6.11,0,0,1-.07-1,.25.25,0,0,1,.25-.25h0a.25.25,0,0,1,.25.25,6.51,6.51,0,0,0,.06.93,24.46,24.46,0,0,1-.79,5.75l0,.09c0,.06,0,.07-.06.11S118.39,74.45,118.11,74.45Z"/><path class="cls-2" d="M120.55,68a2.2,2.2,0,0,1-1.38-.66.24.24,0,1,1,.32-.37,1.84,1.84,0,0,0,1,.53h0c-.11-.24-.23-.47-.36-.7a7.13,7.13,0,0,1-.47-1,6.38,6.38,0,0,1-.31-1.54,7.79,7.79,0,0,0-.12-.88.25.25,0,1,1,.49-.1c.06.3.09.62.13.92a4.72,4.72,0,0,0,.72,2.32c.13.24.27.48.38.74a.5.5,0,0,1-.1.62.46.46,0,0,1-.29.08Z"/></svg>