<svg id="图层_1" data-name="图层 1" xmlns="http://www.w3.org/2000/svg" viewBox="0 0 187 188"><defs><style>.cls-1{fill:#fff;}.cls-2{fill:#5b3b2f;}.cls-3{fill:#f8e5ec;}</style></defs><path class="cls-1" d="M96.05,3.88H85.23c-.35,2-.52,3.8-2.6,4.65-1.68.69-3.58.52-5.27,1.16-3.44,1.3-5.84,4.26-7.3,7.55a70.7,70.7,0,0,1-3.69,6.51c-2.09,3.67-4.78,7.32-6.5,11.16C58,39.1,62.22,41.8,65,44c.61.48,8,6.43,7.88,6.56l3.15-4.65-4.32-3.61c-1.33-1.1-5.86-3.82-5.86-5.62a2.39,2.39,0,0,1,.87-1.64c2-2,3.88-4.11,5.8-6.18.46-.5,3.15-4.19,3.81-4.13l29.44,2.48s6.61-7.14,2-13.44a6.61,6.61,0,0,0-2.25-2,11,11,0,0,0-3.33-1.11c-1.48-.26-2.94,0-4.4-.22a2.31,2.31,0,0,1-1-.36C95.86,9.48,96.25,3.88,96.05,3.88Z"/><path class="cls-2" d="M72.71,50.69h0ZM85.44,4.38l0,.22c-.32,1.84-.62,3.58-2.68,4.42A11.59,11.59,0,0,1,80,9.64a11.33,11.33,0,0,0-2.51.53c-3.84,1.46-6,4.84-7.16,7.42a39,39,0,0,1-2.47,4.47c-.42.69-.84,1.38-1.24,2.07-.75,1.31-1.58,2.64-2.4,3.93a60,60,0,0,0-4.08,7.2c-1.63,3.64,1.53,6.06,4.31,8.2l.78.61c.31.24,2.28,1.83,4.21,3.42,2.11,1.73,3.08,2.53,3.49,2.95.32-.48,1.06-1.58,2.85-4.22l-4.15-3.46c-.3-.24-.76-.57-1.3-1-2-1.4-4.65-3.33-4.65-4.85a2.59,2.59,0,0,1,1-1.82c1.48-1.44,2.9-3,4.27-4.51L72.37,29c.11-.11.34-.4.63-.77,1.82-2.32,2.85-3.48,3.39-3.44l29.31,2.47c.73-.84,6.06-7.34,1.86-13a6.18,6.18,0,0,0-2.17-1.91,10.62,10.62,0,0,0-3.25-1.08,11.78,11.78,0,0,0-2.29-.13A15,15,0,0,1,97.74,11a2.56,2.56,0,0,1-1.14-.41c-.65-.47-.71-2.55-.73-5,0-.46,0-.93,0-1.16ZM72.67,51.65v-.74c-.62-.66-7-5.82-7.79-6.45l-.78-.6c-2.78-2.14-6.24-4.81-4.46-8.8a58.75,58.75,0,0,1,4.12-7.26c.81-1.29,1.65-2.62,2.39-3.92.39-.69.82-1.38,1.24-2.08a36.66,36.66,0,0,0,2.44-4.41c1.19-2.67,3.44-6.17,7.44-7.68a12,12,0,0,1,2.62-.57,10.8,10.8,0,0,0,2.64-.59c1.81-.73,2.07-2.26,2.38-4L85,3.88H96c.32,0,.32.15.33,1.66,0,1.28,0,4.27.52,4.62a2,2,0,0,0,.92.32,13.87,13.87,0,0,0,2,.09,12.7,12.7,0,0,1,2.37.13,11.4,11.4,0,0,1,3.41,1.14A6.8,6.8,0,0,1,108,13.89c4.72,6.4-1.9,13.69-2,13.76l-.08.09L76.35,25.25c-.44.05-2.27,2.37-3,3.24-.3.39-.54.69-.65.81L71.23,31c-1.38,1.52-2.8,3.09-4.3,4.54A2.17,2.17,0,0,0,66.14,37c0,1.26,2.78,3.26,4.44,4.45.55.39,1,.72,1.33,1l4.5,3.75-.13.19L73.13,51h0Z"/><path class="cls-3" d="M84.57,183.12a13.43,13.43,0,0,1-2.4-.19c-3.62-.66-6.44-1.09-8.7-1.43a61.7,61.7,0,0,1-12.55-2.85c-4.75-1.64-6.43-4.72-5-9.15,5.67-17.5,6.15-35.75,6.63-53.4.1-4.06.22-8.26.39-12.37.48-11.42.63-23,.74-34.86,0-4.43.39-10.17,2.71-15.23a20.69,20.69,0,0,1,5.18-7,16,16,0,0,1,2-1.4c1.84-1.16,3.92-2.47,4.41-4.92a12.45,12.45,0,0,0-.62-5.65L77,33.24c-.9-3.42-1.83-7-1-10.34a6.34,6.34,0,0,1,1.57-3.08c2-2.05,5.6-2.31,8.46-2.31,1.1,0,2.18,0,3.18.09l1.59,0a50.11,50.11,0,0,1,9,1.08L101,19c2.41.45,4.49.83,5.35,3a7.39,7.39,0,0,1,.19,4c-.07.39-.13.78-.19,1.17-.43,2.76-.81,5.14-2.61,7.39l-.47.59c-3.82,4.76-6.57,8.2-7.11,15-.45,5.89.42,12.39,2.76,20.46a207.82,207.82,0,0,0,8.31,22.14c1.48,3.53,3,7.18,4.4,10.78,10.44,27,16.53,48.24,19.73,68.77.81,5.16-.19,6.63-5.34,7.86a50.7,50.7,0,0,1-11.73,1.34h0a60.8,60.8,0,0,1-8.39-.6,20.53,20.53,0,0,0-3-.2,43.5,43.5,0,0,0-8.24,1l-1.6.31A47.14,47.14,0,0,1,84.57,183.12Z"/><path class="cls-2" d="M86,18.51c1.07,0,2.12,0,3.14.08l1.6.06a48.8,48.8,0,0,1,8.83,1.06l1.22.23c2.52.47,4,.81,4.61,2.38a6.57,6.57,0,0,1,.12,3.45c-.07.4-.13.79-.19,1.18-.43,2.73-.76,4.88-2.4,6.93l-.48.59c-3.92,4.9-6.76,8.44-7.31,15.58-.47,6,.42,12.62,2.79,20.8a210.92,210.92,0,0,0,8.34,22.25c1.48,3.53,3,7.18,4.4,10.76,10.41,27,16.48,48.11,19.67,68.57.73,4.62,0,5.62-4.59,6.73a49.68,49.68,0,0,1-11.5,1.31,60.33,60.33,0,0,1-8.25-.59,22.56,22.56,0,0,0-3.11-.21,44.28,44.28,0,0,0-8.42,1.05l-.4.07-1.2.23a45.54,45.54,0,0,1-8.3,1.1,12.37,12.37,0,0,1-2.22-.17c-3.63-.66-6.46-1.09-8.73-1.44a60.39,60.39,0,0,1-12.38-2.81c-4.19-1.45-5.62-4-4.37-7.89,5.71-17.64,6.2-36,6.68-53.69.1-4.05.22-8.24.39-12.35.48-11.43.62-23,.74-34.89,0-4.33.38-9.93,2.62-14.82a19.56,19.56,0,0,1,4.93-6.66,15.61,15.61,0,0,1,1.88-1.31C76,44.89,78.39,43.4,79,40.53a13,13,0,0,0-.64-6.11c-.07-.26-.14-.51-.2-.77L78,33c-.87-3.3-1.77-6.71-1-9.85a5.5,5.5,0,0,1,1.31-2.6c1.81-1.81,5.29-2,7.75-2m0-2c-3.39,0-7,.42-9.16,2.6A7.46,7.46,0,0,0,75,22.66c-.92,3.86.23,7.77,1.2,11.5.5,1.9,1.22,4,.82,6-.59,2.93-4.08,4-6.1,5.76a21.85,21.85,0,0,0-5.43,7.34c-2.23,4.88-2.75,10.32-2.8,15.63-.11,11.61-.25,23.23-.74,34.83-.93,22,0,44.13-7,65.5-1.7,5.24.73,8.71,5.62,10.4,7.26,2.51,10.27,2.3,21.4,4.33a15.25,15.25,0,0,0,2.58.2,56.05,56.05,0,0,0,9.87-1.36,44.67,44.67,0,0,1,8.45-1.09,21,21,0,0,1,2.83.19,61.17,61.17,0,0,0,8.53.61,51.55,51.55,0,0,0,12-1.37c5.6-1.34,7-3.28,6.1-9-3.71-23.77-11.06-46.37-19.79-69-4.2-10.88-9.42-21.62-12.68-32.84C98,63.85,96.61,56.94,97.13,50.2s3.31-10,7.36-15.07c2.23-2.79,2.44-5.68,3-9a8.45,8.45,0,0,0-.24-4.52c-1.23-3.09-4.47-3.24-7.27-3.83a51.61,51.61,0,0,0-9.19-1.1c-1.41,0-3.07-.14-4.79-.14Z"/><path class="cls-2" d="M76,183.12h-.08a.75.75,0,0,1-.67-.82,136,136,0,0,0,.33-28.86l0-.71c-.5-7-.73-14.12-1-21,0-1.8-.11-3.6-.17-5.41q-.15-4.44-.32-8.89c-.6-16.28-1.22-33.11-.49-49.72.25-5.55.68-10.92,3.23-15.63.44-.79.93-1.56,1.4-2.31a20.09,20.09,0,0,0,2.11-3.87c1.88-5.14.14-12.53-5-21.4a.75.75,0,1,1,1.29-.75c5.49,9.39,7.22,17,5.15,22.66a21.39,21.39,0,0,1-2.25,4.17c-.46.72-.94,1.47-1.35,2.22-2.4,4.43-2.81,9.61-3.05,15-.73,16.55-.11,33.36.49,49.61.11,3,.22,5.93.32,8.89.06,1.81.12,3.61.17,5.42.22,6.88.45,14,1,21l0,.71a138.37,138.37,0,0,1-.33,29.11A.76.76,0,0,1,76,183.12Z"/><path class="cls-2" d="M113.08,181.88a.75.75,0,0,1-.71-.52c-4.66-14.38-6.65-26.73-8.75-39.79-2.76-17.12-5.61-34.81-14.7-59.64l-.12-.32c-2.35-6.42-4.78-13.06-5.11-20-.29-6.14,1.66-11.21,3.72-16.57.66-1.73,1.34-3.51,2-5.36,2.18-6.5,3.5-11.24,3.5-22.18a.75.75,0,0,1,1.5,0c0,11.17-1.35,16-3.57,22.66-.63,1.88-1.32,3.68-2,5.41-2,5.22-3.89,10.14-3.62,16,.31,6.7,2.71,13.23,5,19.54l.12.33c9.14,25,12,42.73,14.77,59.91,2.09,13,4.07,25.29,8.69,39.56a.75.75,0,0,1-.48,1A.93.93,0,0,1,113.08,181.88Z"/><path class="cls-1" d="M122.55,48.8a1.62,1.62,0,0,0-.9-.65,13.15,13.15,0,0,1-3-1.59c-1.31-.74-2.68-.36-4-.06l1-.6a6.64,6.64,0,0,1,2.13-.73,6.5,6.5,0,0,0,1.59-.32c.44-.21.92-.66.7-1.18s-.49-.18-.79-.14c-.76.1-1.52.19-2.29.26a4.69,4.69,0,0,0-1.92.4c-.47.27-.89.62-1.36.89-.79.45-1.41.71-1.8,1.58a25,25,0,0,1-2.9,4.52,1.22,1.22,0,0,1-1.37.54l-4.49-3.64L94,40.25c-1.23-1.06-1.18-1.93,0-3.09,4.26-4.19,8.84-11.6,12.64-16.22a4,4,0,1,0-6.39-4.73l-11.46,18a16.51,16.51,0,0,0-2.11,3.15c-.94,2.47.69,3.93,2.53,5.3,5.37,4,9.82,7.76,14.86,12.15,3.16,2.76,7.33,1.52,9.61-1.65a4.43,4.43,0,0,1,1.45-1.27A2.14,2.14,0,0,1,117,51.7c.62.29,1.33,1.76,2.1,1a5.23,5.23,0,0,0-.58-.89,2.39,2.39,0,0,0-2.64-1.39,5.51,5.51,0,0,1-1.46-.31l1.19-.07,2-.83c1.08.46,3.61,1.55,3.94.69a.25.25,0,0,0,0-.21h.12C122.09,49.7,122.81,49.37,122.55,48.8Z"/><path class="cls-2" d="M114.88,50.34h0v-.5a6,6,0,0,0,2.51-.89l.24.44A6.4,6.4,0,0,1,114.88,50.34Z"/><path class="cls-2" d="M108,56.31a6.05,6.05,0,0,1-4-1.58c-4.58-4-9.15-7.91-14.67-12-1.85-1.37-3.58-2.93-2.59-5.52a19,19,0,0,1,1.94-3.38l.26-.39,12.44-19.27a4.2,4.2,0,0,1,3.18-1.86,4.13,4.13,0,0,1,3.41,1.36,4.22,4.22,0,0,1,.14,5.48c-1.49,1.8-3.28,4.37-5.19,7.09-2.94,4.21-6,8.55-8.53,11.07a2.12,2.12,0,0,0-.82,1.43A1.84,1.84,0,0,0,94.31,40l9,7.74,4.4,3.57a1,1,0,0,0,1-.46l.35-.48a21.56,21.56,0,0,0,2.49-3.94,3.12,3.12,0,0,1,1.63-1.54l.25-.14c.23-.13.44-.28.66-.43a8.18,8.18,0,0,1,.69-.45,3.92,3.92,0,0,1,1.69-.4l.31,0c.71-.07,1.44-.15,2.25-.26l.17,0a.67.67,0,0,1,.88.32A1.22,1.22,0,0,1,119.3,45a3.38,3.38,0,0,1-1.15.27l-.48.07a7,7,0,0,0-1.73.53,4.1,4.1,0,0,1,2.73.38c.31.18.54.33.76.48a8.7,8.7,0,0,0,2.16,1.08,1.75,1.75,0,0,1,1,.77.73.73,0,0,1,0,.73,1.41,1.41,0,0,1-1,.51.26.26,0,0,1-.25-.26.25.25,0,0,1,.25-.24h0a.86.86,0,0,0,.62-.28.25.25,0,0,0,0-.25,1.36,1.36,0,0,0-.75-.51,9.72,9.72,0,0,1-2.26-1.13,6.26,6.26,0,0,0-.73-.46,4.74,4.74,0,0,0-3.52-.1l-.3.06a.24.24,0,0,1-.28-.15.25.25,0,0,1,.1-.31l1-.58a6.49,6.49,0,0,1,2.2-.76l.51-.07a3.49,3.49,0,0,0,1-.23c.27-.12.72-.46.56-.84,0-.07,0-.09-.3,0l-.22,0c-.81.11-1.55.2-2.26.27l-.32,0a3.29,3.29,0,0,0-1.48.34,5.67,5.67,0,0,0-.66.42,6.28,6.28,0,0,1-.69.45l-.26.15a2.64,2.64,0,0,0-1.41,1.3,22.5,22.5,0,0,1-2.55,4l-.35.48a1.45,1.45,0,0,1-1.62.62.18.18,0,0,1-.09,0L103,48.12l-9-7.75a2.3,2.3,0,0,1-1-1.61A2.52,2.52,0,0,1,94,37c2.52-2.48,5.55-6.81,8.47-11,1.91-2.73,3.71-5.31,5.21-7.13a3.69,3.69,0,1,0-5.92-4.38L89,34.11a18.31,18.31,0,0,0-1.89,3.28c-.87,2.27.58,3.58,2.42,4.94,5.53,4.1,10.11,8,14.7,12a5.52,5.52,0,0,0,4.33,1.41,7.06,7.06,0,0,0,4.81-3,4.61,4.61,0,0,1,1.51-1.33,2.33,2.33,0,0,1,2.06-.16,2.6,2.6,0,0,1,.7.58c.47.48.72.68,1,.57a5.31,5.31,0,0,0-.44-.65c-.1-.11-.18-.23-.27-.35a2.28,2.28,0,0,0-.72-.73,2.15,2.15,0,0,0-1-.18l-.45,0a5.79,5.79,0,0,1-1.52-.31.26.26,0,0,1-.14-.33.25.25,0,0,1,.33-.14,5.32,5.32,0,0,0,1.38.29l.42,0a2.72,2.72,0,0,1,1.21.23,2.68,2.68,0,0,1,.89.88l.25.33a4.81,4.81,0,0,1,.6.92.24.24,0,0,1,0,.3c-.7.68-1.36,0-1.81-.47a2.26,2.26,0,0,0-.55-.48,1.87,1.87,0,0,0-1.61.15,4.15,4.15,0,0,0-1.35,1.18,7.55,7.55,0,0,1-5.15,3.21C108.42,56.29,108.19,56.31,108,56.31Z"/><path class="cls-2" d="M120.54,50.47a3,3,0,0,1-.68-.09,9.51,9.51,0,0,1-2-.76l-.15-.09-.17-.1a.24.24,0,0,1-.29-.19.26.26,0,0,1,.2-.3.68.68,0,0,1,.53.17l.1.06a9.59,9.59,0,0,0,1.91.73c.7.15,1.1.06,1.23-.26,0-.09-.4-.24-.52-.28l-.26-.11a3.63,3.63,0,0,0-.52-.23,4,4,0,0,1-.64-.28c-.13-.08-.25-.18-.38-.27a1.64,1.64,0,0,0-.6-.35,3.49,3.49,0,0,0-1.81.24,1.75,1.75,0,0,1-1.64-.12.25.25,0,0,1-.12-.34.26.26,0,0,1,.34-.11,1.28,1.28,0,0,0,1.24.1,4,4,0,0,1,2.1-.26,2,2,0,0,1,.79.44,3.29,3.29,0,0,0,.33.23,3.88,3.88,0,0,0,.56.26,3.38,3.38,0,0,1,.58.25l.2.08c.3.12.68.26.81.55a.5.5,0,0,1,0,.38A1,1,0,0,1,120.54,50.47Z"/></svg>