<svg id="图层_1" data-name="图层 1" xmlns="http://www.w3.org/2000/svg" viewBox="0 0 186 186"><defs><style>.cls-1{fill:#fae7ee;}.cls-2{fill:#5b3b2f;}.cls-3{fill:#f9e6ed;}</style></defs><path class="cls-1" d="M60.54,84.52c.2.39.68.55,1.12.77,1,.48,2.68-.31,3,.16.51.67-2.06.83-2.49.9l-1.34-.24Z"/><path class="cls-1" d="M60.54,84.16s.46.34.63.43a1.85,1.85,0,0,0,1.7.26c.3-.07,1.28-.28,1.3-.6s-1-.1-1.19-.08a3.39,3.39,0,0,1-1.1-.13,3.52,3.52,0,0,1-1.34-.73l-.65-.45.2,1Z"/><path class="cls-2" d="M98.44,183.25a3.07,3.07,0,0,1-1.82-.63c-2.74-2-4-4.32-3.79-7.18l0-.59a15.47,15.47,0,0,1,.3-2.61c1.29-5.49,0-10.78-1.31-15.9C89.6,147.28,87,137,85,126.8a33.75,33.75,0,0,1-.47-6.62c0-.62,0-1.24,0-1.87,0-1.47-2.88-14-3.11-15.18l.48-.1c.24,1.23,3.09,13.78,3.12,15.27,0,.63,0,1.25,0,1.88a34.18,34.18,0,0,0,.46,6.52c2,10.2,4.6,20.46,6.85,29.52,1.29,5.17,2.62,10.53,1.31,16.14a14.09,14.09,0,0,0-.28,2.52l0,.59c-.18,2.68,1,4.88,3.59,6.75a2.46,2.46,0,0,0,3.65-.68,6.13,6.13,0,0,0,1.15-3.65,31.61,31.61,0,0,0-1.6-9.46,29,29,0,0,1-.59-2.86,17.52,17.52,0,0,0-1-4.16c-.44-1-1.17-2.72-.06-4.14,2.6-3.32,1.82-6.84,1-10.57a32.25,32.25,0,0,1-.73-4.19.56.56,0,0,0-.08-.15,1.15,1.15,0,0,1-.14-.27l-.06-.18a1.62,1.62,0,0,1-.14-.78c.23-1.44.36-2.87.48-4.25.11-1.23.22-2.52.41-3.82,1-7.25.76-13.7-.86-19.17l-.29-1c-1.23-4.07,1-10,2.75-14.11l.46.2c-1.69,4-4,9.59-2.74,13.77l.29,1c1.65,5.54,1.94,12.06.88,19.38-.19,1.29-.3,2.57-.41,3.8-.12,1.39-.25,2.82-.48,4.27a1.44,1.44,0,0,0,.11.54,1.59,1.59,0,0,1,.07.2l.08.15a.73.73,0,0,1,.16.38,31.48,31.48,0,0,0,.72,4.12c.81,3.68,1.65,7.48-1.1,11-.85,1.09-.4,2.39.13,3.63a17.83,17.83,0,0,1,1.09,4.28,27.47,27.47,0,0,0,.58,2.81,31.68,31.68,0,0,1,1.61,9.6,6.63,6.63,0,0,1-1.24,3.94A3.17,3.17,0,0,1,98.44,183.25Z"/><path class="cls-2" d="M97.85,159.32c-1.26-4.08-1.43-8.57-1.58-12.91l0-1.12c0-1-.07-2-.11-3.08a126.19,126.19,0,0,0-.92-13.54c-.32-2.29-.83-4.62-1.33-6.86a68.94,68.94,0,0,1-1.6-9.15c-.28-3.53-.44-7.22-.48-11.28h.49c0,4,.2,7.73.49,11.25a66.58,66.58,0,0,0,1.58,9.08c.5,2.26,1,4.59,1.34,6.9a127.5,127.5,0,0,1,.93,13.59c0,1,.06,2.06.1,3.08l0,1.12c.16,4.31.32,8.76,1.56,12.78Z"/><path class="cls-2" d="M97.07,99.09A120,120,0,0,0,101.51,87,75.33,75.33,0,0,0,105,70.68c.48-5.79-1-13.91-3.65-20.2a.34.34,0,0,1,.1-.4l.06,0h.17l.18,0c1.52,1.11,4.17,3.44,4.94,4.13,1.1,1,2.14.42,3.47-.26l.06,0a24,24,0,0,0,4.77-3.59l1.26-1.11c4.07-3.5,7.67-6.83,10.45-12.13.93-1.78,1-3.18.19-4.56a18.28,18.28,0,0,0-1.9-2.78c-2.37-2.77-4.94-5.43-7.43-8-2.8-2.89-5.68-5.88-8.3-9a9.38,9.38,0,0,0-1.59-1.41l-.26-.19c-1.44-1.11-3.23-1.41-5.63-1-2.64.5-5.88.31-7.07-1.68a4.87,4.87,0,0,1-.56-2.08,14.39,14.39,0,0,1,.07-3.07l-7.61.2a10.76,10.76,0,0,1,.08,2.77c-.2,2.13-1,3.2-2.85,3.69-.93.25-1.86.54-2.76.81-1.23.37-2.51.76-3.79,1.07-2.95.71-4.53,2.31-5,5a100.3,100.3,0,0,0-1,12.05l0,.5q-.27,6.15-.5,12.3l-.15,3.93a4.51,4.51,0,0,1-.83,2.69c-3.12,4-4.36,8.83-5.57,13.53l-.12.47L62.54,69l-.24-.06.24.07c-.19.61-.36,1.34-.53,2a23.05,23.05,0,0,1-.73,2.67c-.25.66-.52,1.33-.78,2-.52,1.3-1,2.65-1.48,4-.81,2.41-.73,4.26.24,5.66a8.5,8.5,0,0,0,1.2,1.47,3.91,3.91,0,0,0,2.22,1c.24,0,.82.11,1,0a.17.17,0,0,0,.06-.12.14.14,0,0,0,0-.09.41.41,0,0,0-.22-.1,3.12,3.12,0,0,1-1.42-.48l-.39-.22-.22-.13a2.71,2.71,0,0,1-1.12-1.73,6.59,6.59,0,0,1,.31-3.36l.05-.14a4.27,4.27,0,0,1,.94-1.89c.29-.27.55-.36.76-.26s.35.42.33.92q0,.13,0,.39c-.07.71-.26,2.88.21,3.3a.19.19,0,0,0,.19,0c.13,0,.17-.1.13-.51,0-.09,0-.17,0-.23a2.49,2.49,0,0,1,.23-1c.1-.24.15-.46.22-.68a4,4,0,0,1,.31-.9,6.49,6.49,0,0,0,.58-3.83,8.91,8.91,0,0,1,.91-5.56c1.18-2.2,2.28-4.49,3.34-6.7.58-1.23,1.18-2.48,1.8-3.72h0l.2-.37c.34-.68.69-1.37,1-2a36.83,36.83,0,0,0,3.56-11.89c.59-4.3,1.67-12.74,2.1-17.1l.12-1.21L78,29.24c.26.84.69,2.7,1.1,4.5s.84,3.68,1.11,4.49c2.15,6.65,2.81,12.19.64,18.4a10.58,10.58,0,0,0-.25,2.84,4.44,4.44,0,0,1-1.13,3.29c-.85,2.1-.78,3.24-1.35,4.17-1,1.62-1.47,2.37-1.22,6.43.1,1.54-.63,3-.58,4.37a63.65,63.65,0,0,0,1,10.17C78,92,78.84,96,79.64,100.09s.28,4.06-.49.1S77.55,92.06,76.77,88a64.83,64.83,0,0,1-1-10.25c0-1.39.68-2.83.58-4.36-.27-4.23.26-5.06,1.3-6.73.56-.91.47-2,1.31-4.09.09-.25,1.2-1.86,1.09-3a6.58,6.58,0,0,1,.28-3.05c2.13-6.12,1.46-11.57-.65-18.08-.27-.83-.7-2.71-1.12-4.53-.25-1.13-.51-2.28-.74-3.18-.49,4.59-1.43,11.88-2,15.78a38.41,38.41,0,0,1-4.67,14.09c-.68,1.37-1.34,2.74-2,4.09-1.06,2.22-2.16,4.51-3.35,6.72a8.26,8.26,0,0,0-.85,5.27,7,7,0,0,1-.63,4.11,3.64,3.64,0,0,0-.28.8,5.72,5.72,0,0,1-.24.74,2.09,2.09,0,0,0-.19.81c0,.06,0,.13,0,.19a2.05,2.05,0,0,1,0,.6c.42-.06.75-.07.94.1a.36.36,0,0,1,.12.3c0,.31-.4.54-.79.7.52-.07,1-.08,1.17.21a.49.49,0,0,1,.08.5c-.18.44-1,.61-2.39.77l-.29,0a.83.83,0,0,1-.18,0,2.63,2.63,0,0,0,1.13.39.84.84,0,0,1,.58.26.63.63,0,0,1,.17.46.7.7,0,0,1-.24.48,2,2,0,0,1-1.37.17,4.4,4.4,0,0,1-2.52-1.11,8.53,8.53,0,0,1-1.27-1.56c-1.07-1.53-1.16-3.53-.31-6.1.44-1.31,1-2.67,1.49-4,.27-.67.53-1.34.78-2a23.23,23.23,0,0,0,.72-2.6c.16-.71.33-1.44.53-2.06l1.74-7.16C65,57,66.28,52,69.45,48a3.92,3.92,0,0,0,.73-2.39l.15-3.93q.24-6.15.5-12.31l0-.49a99.79,99.79,0,0,1,1-12.12c.48-2.89,2.24-4.67,5.37-5.42,1.26-.31,2.53-.69,3.76-1.06.9-.28,1.84-.56,2.76-.81,1.63-.44,2.31-1.33,2.5-3.26a10.8,10.8,0,0,0-.13-2.93l0-.29,8.78-.22,0,.29a14.31,14.31,0,0,0-.1,3.26,4.33,4.33,0,0,0,.49,1.86c1.36,2.29,5.69,1.61,6.55,1.45,2.55-.48,4.46-.14,6,1.05l.26.2a9.9,9.9,0,0,1,1.68,1.49c2.6,3.15,5.48,6.13,8.27,9,2.49,2.59,5.07,5.26,7.45,8.05a18.91,18.91,0,0,1,2,2.85,4.88,4.88,0,0,1-.19,5c-2.81,5.39-6.45,8.75-10.57,12.29l-1.25,1.1a24.54,24.54,0,0,1-4.87,3.66l-.07,0c-1.37.71-2.67,1.39-4,.19s-3.2-2.79-4.43-3.74c2.59,6.36,3.94,14.1,3.46,19.89A75.85,75.85,0,0,1,102,87.18a121.72,121.72,0,0,1-4.46,12.11C95.59,103.86,95.08,103.77,97.07,99.09ZM60.84,84.58a1.49,1.49,0,0,0,.3.79,1.38,1.38,0,0,0,1.31.63l.33,0c1.6-.19,1.93-.37,2-.47-.1-.1-.66,0-1,0a3.45,3.45,0,0,1-1.92-.1A3.87,3.87,0,0,1,60.84,84.58Zm.11-1a1.31,1.31,0,0,0,.72.9l.07,0a1.6,1.6,0,0,0,1.44.19,4,4,0,0,0,.95-.35,3.25,3.25,0,0,0-.53.06l-.24,0a3.35,3.35,0,0,1-1.17-.13A4.41,4.41,0,0,1,61,83.57Zm-.12-.75h0a5.37,5.37,0,0,0,1.49,1,8.21,8.21,0,0,1-.13-3.36q0-.24,0-.36a.84.84,0,0,0,0-.43s-.08,0-.2.16a4,4,0,0,0-.81,1.67l0,.14A9.18,9.18,0,0,0,60.83,82.82Zm48-32.37c-.89,0-1.8-.69-3.24-2.44-.33-.41-.67-.87-1-1.36a14.69,14.69,0,0,0-3-3.35l-.11-.08a4.27,4.27,0,0,0-.63-.36,1.52,1.52,0,0,1-.81-1.64c.13-.68.25-1.33.38-2,.27-1.46.56-3,1-4.43.17-.62.32-1.24.47-1.85a37.14,37.14,0,0,1,1.53-5.1,5.12,5.12,0,0,0,.3-3.21,2.25,2.25,0,0,1,.76-2.55c1-.73,1.91,0,2.57.49s1.12.83,1.74,1.27a22.21,22.21,0,0,1,3.16,2.48c2.13,2.16,4.43,4.2,6.65,6.19l1.92,1.71.14.12c.27.23.54.46.54.81a1,1,0,0,1-.4.71h0A31.72,31.72,0,0,0,115.23,43c-.82,1.32-1.68,2.69-2.62,4-1.61,2.18-2.58,3.42-3.74,3.45ZM101.94,43a15.43,15.43,0,0,1,3,3.4c.36.48.69.94,1,1.34,1.31,1.59,2.14,2.25,2.85,2.25h0c.92,0,1.87-1.25,3.35-3.24.93-1.26,1.78-2.62,2.6-3.93a31.72,31.72,0,0,1,5.58-7.27h0c.15-.14.23-.25.23-.33s-.19-.28-.36-.42l-.15-.13-1.92-1.71c-2.23-2-4.54-4-6.68-6.22a22.73,22.73,0,0,0-3.08-2.42c-.63-.44-1.23-.86-1.77-1.28-.74-.58-1.31-.95-2-.48a1.78,1.78,0,0,0-.56,2,5.78,5.78,0,0,1-.32,3.53,34,34,0,0,0-1.51,5c-.16.62-.31,1.24-.48,1.86-.38,1.44-.67,2.94-.94,4.39-.12.65-.25,1.3-.38,2s.28,1,.52,1.12a4.94,4.94,0,0,1,.81.47Z"/><path class="cls-3" d="M100.68,122.46c-1.82-.12-3.66-.13-5.43-.14a47.58,47.58,0,0,1-9.9-.76,4,4,0,0,1-2.54-2A3.14,3.14,0,0,0,81,117.78c-4-1-4.1-3.3-3.93-7.06,0-.64.06-1.27,0-1.89a116.69,116.69,0,0,0-1.75-17.14c-.63-4.14-1.28-8.42-1.57-12.66-.23-13.31,2-24.32,7.08-35.64l.08-.18c.44-1,1-2.26.31-3.56-3.17-5.7-3-11.78-1.58-19.74A12,12,0,0,0,79,14.73L79,14.48a2.27,2.27,0,0,1,1.26-2.72,7.2,7.2,0,0,1,2.72-.61h0a.39.39,0,0,1,.23.12c2.87,3,5.41,4.39,8,4.39,2.75,0,5.5-1.61,8.64-5.06a.4.4,0,0,1,.29-.12l.5.06c.38,0,.76.09,1.13.15a1.74,1.74,0,0,1,1.19.82,1.87,1.87,0,0,1,.19,1.53c-1,3.26-.25,6.07.57,9.05.17.62.34,1.25.51,1.91a8.91,8.91,0,0,1,.13,2.73c-.1.67-.2,1.33-.31,2L103.78,30a32.55,32.55,0,0,0-.47,5.34,13.79,13.79,0,0,0,1.08,5.27,16.26,16.26,0,0,0,1.29,2.33A16.52,16.52,0,0,1,106.84,45c.26.61.53,1.21.8,1.81.55,1.22,1.12,2.47,1.59,3.72.15.4.3.81.43,1.21a57.93,57.93,0,0,1,1.85,7.14,72.88,72.88,0,0,1,1.23,14.47,124.59,124.59,0,0,1-1.39,16.44c-1.15,8.09-2,16.15-2.62,22.27-.71,7-2.34,9.11-8,10.37h-.1Z"/><path class="cls-2" d="M100.53,11.28h0m-.21.23.14,0q.54.06,1.08.15a.76.76,0,0,1,.51.35.89.89,0,0,1,.09.71c-1.12,3.54-.27,6.63.55,9.62.17.61.35,1.23.51,1.88a8,8,0,0,1,.11,2.35c-.09.66-.2,1.31-.31,2-.07.43-.14.86-.2,1.29a32,32,0,0,0-.49,5.51A14.75,14.75,0,0,0,103.47,41a17.88,17.88,0,0,0,1.36,2.46,16,16,0,0,1,1.09,2l.81,1.83c.54,1.2,1.1,2.44,1.56,3.66.15.38.29.77.42,1.16a60.2,60.2,0,0,1,1.82,7,71.69,71.69,0,0,1,1.21,14.27,124.2,124.2,0,0,1-1.38,16.31c-1.15,8.1-2,16.18-2.63,22.31-.69,6.91-2.3,8.39-7.08,9.48-1.81-.12-3.63-.13-5.4-.14a45.84,45.84,0,0,1-9.68-.74,2.94,2.94,0,0,1-1.88-1.52,4.11,4.11,0,0,0-2.48-2.25c-3.27-.78-3.33-2.32-3.16-6,0-.63.06-1.28,0-1.94a116.82,116.82,0,0,0-1.76-17.28c-.62-4.1-1.27-8.35-1.56-12.52-.23-13.19,1.93-24,7-35.22l.08-.17c.47-1,1.25-2.73.28-4.47-3-5.44-2.81-11.34-1.47-19.08A12.85,12.85,0,0,0,80,14.46l-.07-.25a1.29,1.29,0,0,1,.69-1.53,6.27,6.27,0,0,1,2-.52c3,3.07,5.7,4.5,8.52,4.5,3,0,5.9-1.64,9.17-5.15m-.24-2a1.4,1.4,0,0,0-1,.45c-2.88,3.16-5.4,4.73-7.9,4.73-2.34,0-4.67-1.36-7.26-4.08a1.36,1.36,0,0,0-1-.43h0a8.23,8.23,0,0,0-3.08.68A3.3,3.3,0,0,0,78,14.74a12,12,0,0,1,.71,5c-1.3,7.52-1.78,14.16,1.69,20.4.51.91,0,1.9-.43,2.83-5.38,11.88-7.4,23.24-7.17,36.13.68,10,3.29,19.7,3.32,29.73,0,4-1.26,8.52,4.65,9.92.47.11.84.64,1.19,1.27a4.94,4.94,0,0,0,3.19,2.51c5.09,1.14,10.32.59,15.48.93h.09a1.53,1.53,0,0,0,.3,0c6.12-1.38,8-3.92,8.72-11.25s1.57-14.84,2.62-22.23a127.71,127.71,0,0,0,1.4-16.57,72.94,72.94,0,0,0-1.25-14.67,58.62,58.62,0,0,0-1.88-7.26c-.14-.42-.29-.84-.45-1.25-.71-1.89-1.6-3.73-2.4-5.58-.68-1.56-1.78-2.84-2.46-4.4a12.88,12.88,0,0,1-1-4.9,30.83,30.83,0,0,1,.46-5.16c.17-1.1.36-2.19.52-3.29a9.82,9.82,0,0,0-.15-3.11C104.21,20,102.9,17,104,13.34a2.81,2.81,0,0,0-2.16-3.63c-.53-.09-1.08-.15-1.62-.22Z"/><path class="cls-2" d="M80,38.87a44.1,44.1,0,0,0,6.23,1.07,37.37,37.37,0,0,0,6.25.17,51.61,51.61,0,0,0,6-1,43.6,43.6,0,0,0,5.91-1.86h0a.1.1,0,0,1,.13.06.12.12,0,0,1,0,.1A12.67,12.67,0,0,1,99.05,41a19.42,19.42,0,0,1-6.55.69,38.19,38.19,0,0,1-6.42-.79,36.89,36.89,0,0,1-6.14-1.86.1.1,0,0,1,.06-.19Z"/></svg>