<svg id="图层_1" data-name="图层 1" xmlns="http://www.w3.org/2000/svg" viewBox="0 0 186 186"><defs><style>.cls-1{fill:#5b3b2f;}.cls-2{fill:#f9e6ed;}.cls-3{fill:#fff;}</style></defs><path class="cls-1" d="M96.79,183.25a3.07,3.07,0,0,1-1.82-.63c-2.74-2-4-4.32-3.8-7.18l0-.59a15.47,15.47,0,0,1,.3-2.61c1.28-5.49,0-10.78-1.31-15.9C88,147.28,85.39,137,83.34,126.8a35.36,35.36,0,0,1-.47-6.62c0-.62,0-1.24,0-1.87,0-1.47-2.87-14-3.1-15.18l.48-.1c.24,1.23,3.08,13.78,3.12,15.27,0,.63,0,1.25,0,1.88a34.18,34.18,0,0,0,.46,6.52c2,10.2,4.6,20.46,6.85,29.52C92,161.39,93.3,166.75,92,172.36a15.08,15.08,0,0,0-.29,2.52l0,.59c-.18,2.68,1,4.88,3.59,6.75a2.46,2.46,0,0,0,3.65-.68,6.13,6.13,0,0,0,1.15-3.65,31.61,31.61,0,0,0-1.6-9.46,26.4,26.4,0,0,1-.59-2.86,17.52,17.52,0,0,0-1.05-4.16c-.44-1-1.18-2.72-.07-4.14,2.61-3.32,1.83-6.84,1-10.57a30.64,30.64,0,0,1-.73-4.19,1.15,1.15,0,0,0-.08-.15,1.15,1.15,0,0,1-.14-.27l-.06-.18a1.51,1.51,0,0,1-.14-.78c.23-1.44.35-2.87.48-4.25.11-1.23.22-2.52.41-3.82,1-7.25.76-13.7-.87-19.17l-.29-1c-1.23-4.07,1-10,2.76-14.11l.45.2c-1.68,4-4,9.59-2.73,13.77l.29,1c1.64,5.54,1.94,12.06.88,19.38-.19,1.29-.3,2.57-.41,3.8-.13,1.39-.25,2.82-.49,4.27a1.3,1.3,0,0,0,.12.54c0,.07.05.13.07.2a1.15,1.15,0,0,0,.08.15.73.73,0,0,1,.16.38,31.48,31.48,0,0,0,.72,4.12c.81,3.68,1.65,7.48-1.1,11-.85,1.09-.4,2.39.13,3.63a18.32,18.32,0,0,1,1.09,4.28,25,25,0,0,0,.57,2.81,32,32,0,0,1,1.62,9.6,6.63,6.63,0,0,1-1.25,3.94A3.15,3.15,0,0,1,96.79,183.25Z"/><path class="cls-1" d="M96.19,159.32c-1.26-4.08-1.42-8.57-1.57-12.91l0-1.12c0-1-.08-2-.11-3.08a126.19,126.19,0,0,0-.92-13.54c-.32-2.29-.84-4.62-1.33-6.86a67.36,67.36,0,0,1-1.6-9.15c-.28-3.53-.44-7.22-.48-11.28h.49c0,4,.2,7.73.48,11.25a68.18,68.18,0,0,0,1.59,9.08c.5,2.26,1,4.59,1.34,6.9A127.47,127.47,0,0,1,95,142.19c0,1,.07,2.06.11,3.08l0,1.12c.15,4.31.31,8.76,1.55,12.78Z"/><path class="cls-1" d="M98,99.09A122.46,122.46,0,0,0,102.39,87a75.86,75.86,0,0,0,3.46-16.34c.48-5.79-1-13.91-3.64-20.2a.34.34,0,0,1,.1-.4l.06,0h.17l.18,0c1.52,1.11,4.16,3.44,4.94,4.13,1.1,1,2.14.42,3.46-.26l.06,0A23.76,23.76,0,0,0,116,50.31l1.26-1.11c4.08-3.5,7.68-6.83,10.46-12.13.92-1.78,1-3.18.19-4.56A18.27,18.27,0,0,0,126,29.73c-2.36-2.77-4.94-5.43-7.43-8-2.79-2.89-5.68-5.88-8.29-9a9.45,9.45,0,0,0-1.6-1.41l-.25-.19c-1.44-1.11-3.23-1.41-5.64-1-2.63.5-5.88.31-7.06-1.68a4.73,4.73,0,0,1-.56-2.08,14.38,14.38,0,0,1,.06-3.07l-7.6.2a11.23,11.23,0,0,1,.08,2.77c-.21,2.13-1,3.2-2.86,3.69-.92.25-1.85.54-2.75.81-1.24.37-2.51.76-3.79,1.07-3,.71-4.54,2.31-5,5a100.33,100.33,0,0,0-1,12.05l0,.5c-.19,4.1-.34,8.2-.5,12.3l-.16,3.93a4.44,4.44,0,0,1-.83,2.69c-3.11,4-4.36,8.83-5.56,13.53L65,62.3,63.42,69l-.25-.06.24.07c-.18.61-.35,1.34-.52,2a23.05,23.05,0,0,1-.73,2.67c-.25.66-.52,1.33-.79,2-.51,1.3-1,2.65-1.48,4-.8,2.41-.72,4.26.24,5.66a9,9,0,0,0,1.2,1.47,3.94,3.94,0,0,0,2.23,1c.24,0,.81.11,1,0a.17.17,0,0,0,.05-.12.14.14,0,0,0,0-.09.41.41,0,0,0-.22-.1A3.08,3.08,0,0,1,63,86.93l-.39-.22-.23-.13a2.69,2.69,0,0,1-1.11-1.73,6.59,6.59,0,0,1,.31-3.36l0-.14a4.4,4.4,0,0,1,1-1.89c.29-.27.54-.36.76-.26s.35.42.32.92a3.61,3.61,0,0,1,0,.39c-.06.71-.26,2.88.21,3.3a.2.2,0,0,0,.2,0c.13,0,.16-.1.13-.51,0-.09,0-.17,0-.23a2.51,2.51,0,0,1,.24-1c.09-.24.15-.46.21-.68a3.62,3.62,0,0,1,.32-.9,6.49,6.49,0,0,0,.58-3.83,8.77,8.77,0,0,1,.91-5.56c1.18-2.2,2.27-4.49,3.33-6.7.59-1.23,1.19-2.48,1.81-3.72h0l.2-.37,1-2a37.1,37.1,0,0,0,3.57-11.89c.58-4.3,1.67-12.74,2.09-17.1l.12-1.21.37,1.16c.27.84.7,2.7,1.11,4.5s.84,3.68,1.1,4.49c2.15,6.65,2.82,12.19.65,18.4a10.06,10.06,0,0,0-.26,2.84,4.45,4.45,0,0,1-1.12,3.29c-.85,2.1-.78,3.24-1.35,4.17-1,1.62-1.48,2.37-1.22,6.43.1,1.54-.64,3-.59,4.37a64.83,64.83,0,0,0,1,10.17c.78,4.07,1.58,8.13,2.37,12.19s.29,4.06-.49.1S78.43,92.06,77.65,88a64.89,64.89,0,0,1-1-10.25c0-1.39.68-2.83.59-4.36-.27-4.23.25-5.06,1.29-6.73.57-.91.48-2,1.32-4.09.09-.25,1.19-1.86,1.08-3a6.51,6.51,0,0,1,.29-3.05c2.13-6.12,1.45-11.57-.65-18.08-.27-.83-.7-2.71-1.12-4.53-.26-1.13-.52-2.28-.74-3.18-.49,4.59-1.43,11.88-2,15.78a38.6,38.6,0,0,1-4.67,14.09c-.68,1.37-1.34,2.74-2,4.09-1.06,2.22-2.16,4.51-3.34,6.72a8.26,8.26,0,0,0-.85,5.27,6.94,6.94,0,0,1-.64,4.11,3.59,3.59,0,0,0-.27.8c-.07.23-.13.47-.24.74a2.09,2.09,0,0,0-.19.81,1.21,1.21,0,0,0,0,.19,1.78,1.78,0,0,1,0,.6c.42-.06.76-.07.94.1a.37.37,0,0,1,.13.3c0,.31-.41.54-.8.7.52-.07,1-.08,1.17.21a.48.48,0,0,1,.09.5c-.19.44-1,.61-2.39.77l-.3,0a.68.68,0,0,1-.17,0,2.59,2.59,0,0,0,1.13.39.86.86,0,0,1,.58.26.66.66,0,0,1,.16.46.65.65,0,0,1-.23.48,2,2,0,0,1-1.38.17A4.37,4.37,0,0,1,61,87.17a9,9,0,0,1-1.28-1.56c-1.06-1.53-1.16-3.53-.3-6.1.44-1.31,1-2.67,1.49-4,.26-.67.53-1.34.78-2a23.34,23.34,0,0,0,.71-2.6c.17-.71.34-1.44.53-2.06l1.74-7.16C65.89,57,67.15,52,70.33,48a4,4,0,0,0,.72-2.39l.16-3.93q.23-6.15.5-12.31l0-.49a101.83,101.83,0,0,1,1-12.12c.49-2.89,2.25-4.67,5.37-5.42,1.27-.31,2.54-.69,3.76-1.06.91-.28,1.84-.56,2.77-.81C86.3,9,87,8.12,87.16,6.19A11.2,11.2,0,0,0,87,3.26L87,3l8.77-.22,0,.29a13.76,13.76,0,0,0-.1,3.26,4.47,4.47,0,0,0,.48,1.86c1.37,2.29,5.7,1.61,6.55,1.45,2.56-.48,4.47-.14,6,1.05l.26.2a9.9,9.9,0,0,1,1.68,1.49c2.6,3.15,5.48,6.13,8.26,9,2.5,2.59,5.08,5.26,7.45,8.05a17.55,17.55,0,0,1,2,2.85,4.88,4.88,0,0,1-.18,5c-2.82,5.39-6.45,8.75-10.57,12.29l-1.25,1.1a24.32,24.32,0,0,1-4.88,3.66l-.06,0c-1.37.71-2.67,1.39-4,.19s-3.21-2.79-4.43-3.74c2.58,6.36,3.93,14.1,3.45,19.89a76.37,76.37,0,0,1-3.48,16.45,121.72,121.72,0,0,1-4.46,12.11C96.47,103.86,96,103.77,98,99.09ZM61.71,84.58a1.5,1.5,0,0,0,.31.79,1.38,1.38,0,0,0,1.31.63l.33,0c1.6-.19,1.93-.37,2-.47-.1-.1-.67,0-1,0a3.49,3.49,0,0,1-1.93-.1A4,4,0,0,1,61.71,84.58Zm.11-1a1.36,1.36,0,0,0,.72.9l.07,0a1.61,1.61,0,0,0,1.44.19,3.9,3.9,0,0,0,1-.35,3.39,3.39,0,0,0-.54.06l-.23,0a3.35,3.35,0,0,1-1.17-.13A4.6,4.6,0,0,1,61.82,83.57Zm-.11-.75h0a5.32,5.32,0,0,0,1.48,1,8.21,8.21,0,0,1-.13-3.36,3.18,3.18,0,0,0,0-.36,1.08,1.08,0,0,0,0-.43s-.08,0-.2.16a4,4,0,0,0-.81,1.67l0,.14A9.18,9.18,0,0,0,61.71,82.82Zm48-32.37c-.88,0-1.79-.69-3.23-2.44-.33-.41-.68-.87-1-1.36a14.89,14.89,0,0,0-3-3.35l-.11-.08a4.33,4.33,0,0,0-.64-.36,1.55,1.55,0,0,1-.81-1.64c.14-.68.26-1.33.38-2,.28-1.46.56-3,1-4.43.16-.62.31-1.24.47-1.85a34.55,34.55,0,0,1,1.53-5.1,5.12,5.12,0,0,0,.3-3.21,2.27,2.27,0,0,1,.75-2.55c1-.73,1.92,0,2.57.49s1.12.83,1.75,1.27a22.11,22.11,0,0,1,3.15,2.48c2.13,2.16,4.43,4.2,6.66,6.19l1.91,1.71.15.12c.26.23.53.46.54.81a1,1,0,0,1-.4.71h0A31.15,31.15,0,0,0,116.11,43c-.83,1.32-1.68,2.69-2.63,4-1.61,2.18-2.57,3.42-3.73,3.45ZM102.81,43a15.47,15.47,0,0,1,3,3.4c.35.48.69.94,1,1.34,1.32,1.59,2.15,2.25,2.86,2.25h0c.92,0,1.87-1.25,3.34-3.24.93-1.26,1.78-2.62,2.61-3.93a31.72,31.72,0,0,1,5.58-7.27h0c.15-.14.23-.25.23-.33s-.2-.28-.37-.42l-.15-.13c-.63-.58-1.27-1.15-1.91-1.71-2.23-2-4.54-4-6.68-6.22a22.85,22.85,0,0,0-3.09-2.42c-.63-.44-1.22-.86-1.76-1.28-.74-.58-1.31-.95-2-.48a1.76,1.76,0,0,0-.57,2,5.63,5.63,0,0,1-.32,3.53,35.21,35.21,0,0,0-1.51,5c-.15.62-.3,1.24-.47,1.86-.39,1.44-.67,2.94-1,4.39-.12.65-.24,1.3-.37,2s.28,1,.52,1.12a4.88,4.88,0,0,1,.8.47Z"/><path class="cls-2" d="M98.63,151.73a54.34,54.34,0,0,1-6.39-2.25c-4-1.73-7.54-4-12.13-4-5.25.08-11.7,2.1-16.87,2.77-2.29.29-6,1-7.73-1.09-1.91-2.34,1.08-6.69-3.7-5.69a33.79,33.79,0,0,1-6.87.77c-6.09,0-8-3.12-5.42-8.65,8.22-17.48,16.19-35.07,24.58-52.46,3.67-7.61,7.48-15,11.8-22.2,3.92-6.59,6.08-13.55,3.21-21-3-7.72-4-15.58-1.23-26.32A1.21,1.21,0,0,1,79,10.73c1.19,0,2.36.17,3.55.11,1,0,2.13,1.16,2.85,1.69,3.22,2.35,9.48,1.85,11.64-1.74A2.36,2.36,0,0,1,98.9,9.58c1.77-.11,2.59.29,4.66,1a1.5,1.5,0,0,1,1,1c.77,2.32.17,4.78.36,7.16.16,2.14,1.43,4,1.37,6.17C106,34,103.08,42.5,107.26,51c3,6.1,11,19.06,14.08,25.13C132.9,99.2,137,114.4,147.39,138a3.2,3.2,0,0,1-.81,3.51l-3.15,3.08a6.22,6.22,0,0,1-4.55,1.75c-3.26-.11-8.86.12-12.16,2.61C119.11,154.68,108,154.35,98.63,151.73Z"/><path class="cls-1" d="M111,154.54a47.12,47.12,0,0,1-12.66-1.85h0a53.26,53.26,0,0,1-6.51-2.29c-.92-.4-1.81-.82-2.69-1.23-2.93-1.39-5.71-2.7-9-2.65A57.08,57.08,0,0,0,70,148.05c-2.34.5-4.54,1-6.61,1.23l-.56.07c-2.45.33-6.15.83-8.07-1.52a5.77,5.77,0,0,1-1-3.81c0-.59,0-1.4-.2-1.55,0,0-.33-.23-1.55,0a34.87,34.87,0,0,1-7,.79h0c-3.38,0-5.67-.92-6.8-2.71s-1-4.28.47-7.37c3.06-6.49,6.07-13,9.09-19.5,5-10.83,10.22-22,15.5-33C67.35,72.12,71.12,65,75,58.46c4.51-7.58,5.51-14,3.13-20.16-3.43-8.92-3.8-17-1.25-26.92A2.19,2.19,0,0,1,79,9.73c.57,0,1.14,0,1.68.07a16.29,16.29,0,0,0,1.83,0,4.78,4.78,0,0,1,3,1.48l.49.39a8.21,8.21,0,0,0,6.17,1.07,5.89,5.89,0,0,0,4-2.51,3.38,3.38,0,0,1,2.65-1.7,9.3,9.3,0,0,1,4.25.77l.79.27a2.53,2.53,0,0,1,1.59,1.6,13.24,13.24,0,0,1,.41,4.9,21,21,0,0,0,0,2.51,10.6,10.6,0,0,0,.63,2.54,10.62,10.62,0,0,1,.74,3.72c-.06,2.61-.35,5.17-.62,7.65-.69,6.26-1.35,12.17,1.53,18,1.53,3.12,4.44,8.13,7.25,13s5.33,9.18,6.82,12.15A385.71,385.71,0,0,1,137.89,112c3.06,7.89,6.22,16,10.42,25.58a4.23,4.23,0,0,1-1,4.63l-3.16,3.08a7.21,7.21,0,0,1-5.27,2c-3-.1-8.44.08-11.53,2.41C123.11,152.92,117.46,154.54,111,154.54Zm-30.7-10c3.7,0,6.75,1.45,9.7,2.85.85.41,1.72.82,2.61,1.2a49.39,49.39,0,0,0,6.27,2.2h0c5.21,1.46,18.28,4.13,27.21-2.61,3.41-2.57,8.84-3,12.81-2.81a5.3,5.3,0,0,0,3.81-1.47l3.16-3.07a2.22,2.22,0,0,0,.58-2.41c-4.2-9.56-7.38-17.74-10.44-25.64a385.67,385.67,0,0,0-15.59-36.16c-1.46-2.91-4.15-7.55-6.76-12-2.83-4.88-5.76-9.93-7.32-13.11-3.13-6.38-2.44-12.58-1.72-19.13.27-2.44.55-4.95.61-7.48a9.05,9.05,0,0,0-.64-3,12.59,12.59,0,0,1-.73-3,25,25,0,0,1,0-2.74,11.58,11.58,0,0,0-.31-4.19.5.5,0,0,0-.33-.33l-.8-.28A7.55,7.55,0,0,0,99,10.58a1.4,1.4,0,0,0-1.06.73,7.85,7.85,0,0,1-5.33,3.44,10.1,10.1,0,0,1-7.75-1.41l-.58-.47c-.41-.34-1.25-1-1.62-1h0a17.5,17.5,0,0,1-2.06-.05c-.5,0-1-.07-1.52-.06a.19.19,0,0,0-.18.14C76.42,21.39,76.77,29.08,80,37.58c2.61,6.79,1.57,13.75-3.28,21.9C72.86,66,69.13,73.05,65,81.6c-5.27,10.93-10.46,22.12-15.48,32.94q-4.53,9.76-9.1,19.51c-.78,1.68-1.53,4-.6,5.45s3.3,1.77,5.12,1.78h0a32.38,32.38,0,0,0,6.63-.75,3.84,3.84,0,0,1,3.2.38c.93.75.94,2,.95,3.1a4.13,4.13,0,0,0,.53,2.56c1.21,1.48,4.25,1.07,6.25.8l.57-.08c2-.25,4.16-.71,6.45-1.19a58.26,58.26,0,0,1,10.54-1.58Z"/><path class="cls-1" d="M81.62,47.49a18.85,18.85,0,0,0,5.92,1.19,46.22,46.22,0,0,0,6,0c1,0,2-.17,3-.22l3-.31c1-.14,2-.23,3-.34s2-.25,3.11-.29c-.94.47-1.91.85-2.88,1.24s-2,.65-3,.93-2,.44-3.07.65-2.09.31-3.15.34a23.67,23.67,0,0,1-6.33-.43A11.26,11.26,0,0,1,81.62,47.49Z"/><path class="cls-1" d="M86.65,73.63c.37-4,.52-8,.68-12.09s.25-8.07.33-12.1l2,.12c-.41,4-.85,8-1.33,12.06S87.36,69.65,86.65,73.63Z"/><path class="cls-1" d="M99.72,79.66c-.88-5-1.69-10-2.39-15q-.54-3.77-1-7.54c-.28-2.53-.54-5-.67-7.63h2c0,2.46,0,5,.16,7.51s.27,5,.46,7.56C98.69,69.6,99.17,74.64,99.72,79.66Z"/><path class="cls-1" d="M64.49,102.71l-8.93,39.84a1,1,0,0,1-1.19.75,1,1,0,0,1-.76-1.19v-.05Z"/><path class="cls-1" d="M86.15,96.29l-1.81,49.57a1,1,0,1,1-2-.07v0Z"/><path class="cls-1" d="M110.78,94.74l19.07,52.53A1,1,0,0,1,128,148v0Z"/><path class="cls-3" d="M72.13,60.5c-.68,1.36-1.34,2.74-2,4.08C69.08,66.8,68,69.1,66.8,71.3A8.28,8.28,0,0,0,66,76.58a6.89,6.89,0,0,1-.64,4.1,3.77,3.77,0,0,0-.27.8,7.13,7.13,0,0,1-.24.75,2.09,2.09,0,0,0-.19.81,1.28,1.28,0,0,0,0,.19,1.79,1.79,0,0,1,0,.6c.42-.07.76-.08.94.09a.4.4,0,0,1,.13.31c0,.31-.41.54-.8.69.52-.06,1-.07,1.18.22a.49.49,0,0,1,.08.5c-.19.43-1,.61-2.39.77l-.3,0-.17,0a2.71,2.71,0,0,0,1.13.38.88.88,0,0,1,.58.27.66.66,0,0,1-.07.93,1.92,1.92,0,0,1-1.38.17A4.43,4.43,0,0,1,61,87.12a9.43,9.43,0,0,1-1.28-1.56c-1.06-1.54-1.16-3.53-.3-6.1.44-1.32,1-2.67,1.49-4,.26-.68.53-1.35.78-2a22.75,22.75,0,0,0,.71-2.6c.17-.7.34-1.43.53-2.05l1.74-7.17C65.9,56.9,67.16,52,70.34,47.93M61.72,84.52a1.53,1.53,0,0,0,.31.8,1.4,1.4,0,0,0,1.31.63l.33,0c1.6-.19,1.93-.38,2-.47-.1-.1-.67,0-1,0a3.4,3.4,0,0,1-1.93-.09A4.34,4.34,0,0,1,61.72,84.52Zm.11-1a1.39,1.39,0,0,0,.72.9l.07,0a1.58,1.58,0,0,0,1.44.2,4.32,4.32,0,0,0,1-.36,4.84,4.84,0,0,0-.54.07l-.23,0a3.35,3.35,0,0,1-1.17-.13A4.6,4.6,0,0,1,61.83,83.52Zm-.11-.75h0a5.37,5.37,0,0,0,1.48,1,8.23,8.23,0,0,1-.13-3.36,3.37,3.37,0,0,0,0-.36,1,1,0,0,0,0-.44s-.08,0-.2.16a4.07,4.07,0,0,0-.81,1.67l0,.14A9.36,9.36,0,0,0,61.72,82.77Z"/><path class="cls-1" d="M72.13,60.5c-.68,1.36-1.34,2.74-2,4.08C69.08,66.8,68,69.1,66.8,71.3A8.28,8.28,0,0,0,66,76.58a6.89,6.89,0,0,1-.64,4.1,3.77,3.77,0,0,0-.27.8,7.13,7.13,0,0,1-.24.75,2.09,2.09,0,0,0-.19.81,1.28,1.28,0,0,0,0,.19,1.79,1.79,0,0,1,0,.6c.42-.07.76-.08.94.09a.4.4,0,0,1,.13.31c0,.31-.41.54-.8.69.52-.06,1-.07,1.18.22a.49.49,0,0,1,.08.5c-.19.43-1,.61-2.39.77l-.3,0-.17,0a2.71,2.71,0,0,0,1.13.38.88.88,0,0,1,.58.27.66.66,0,0,1-.07.93,1.92,1.92,0,0,1-1.38.17A4.43,4.43,0,0,1,61,87.12a9.43,9.43,0,0,1-1.28-1.56c-1.06-1.54-1.16-3.53-.3-6.1.44-1.32,1-2.67,1.49-4,.26-.68.53-1.35.78-2a22.75,22.75,0,0,0,.71-2.6c.17-.7.34-1.43.53-2.05l1.74-7.17C65.9,56.9,67.16,52,70.34,47.93m.39.31c-3.11,4-4.36,8.84-5.56,13.54l-.12.46-1.62,6.7-.25-.06.24.08c-.18.61-.35,1.33-.52,2a22.86,22.86,0,0,1-.73,2.66c-.25.67-.52,1.34-.79,2-.51,1.31-1,2.66-1.48,4-.8,2.41-.72,4.25.24,5.65a9,9,0,0,0,1.2,1.47,3.88,3.88,0,0,0,2.23,1c.24,0,.81.1,1-.06a.14.14,0,0,0,0-.11.1.1,0,0,0,0-.09.34.34,0,0,0-.23-.1A3.2,3.2,0,0,1,63,86.88l-.39-.22-.23-.13a2.73,2.73,0,0,1-1.11-1.74,6.61,6.61,0,0,1,.31-3.36l0-.14a4.4,4.4,0,0,1,1-1.89c.29-.27.54-.35.76-.25s.35.41.32.92q0,.12,0,.39c-.06.71-.26,2.87.21,3.29a.22.22,0,0,0,.2,0c.13,0,.16-.1.13-.52a1.85,1.85,0,0,1,0-.23,2.4,2.4,0,0,1,.23-1,6.57,6.57,0,0,0,.21-.68,4.47,4.47,0,0,1,.32-.9,6.44,6.44,0,0,0,.58-3.82,8.79,8.79,0,0,1,.91-5.57c1.18-2.19,2.27-4.48,3.33-6.7.59-1.22,1.19-2.47,1.81-3.72h0c.07-.12.14-.24.2-.37l1-2m-11,26.3a1.53,1.53,0,0,0,.31.8,1.4,1.4,0,0,0,1.31.63l.33,0c1.6-.19,1.93-.38,2-.47-.1-.1-.67,0-1,0a3.4,3.4,0,0,1-1.93-.09A4.34,4.34,0,0,1,61.72,84.52Zm.11-1a1.39,1.39,0,0,0,.72.9l.07,0a1.58,1.58,0,0,0,1.44.2,4.32,4.32,0,0,0,1-.36,4.84,4.84,0,0,0-.54.07l-.23,0a3.35,3.35,0,0,1-1.17-.13A4.6,4.6,0,0,1,61.83,83.52Zm-.11-.75h0a5.37,5.37,0,0,0,1.48,1,8.23,8.23,0,0,1-.13-3.36,3.37,3.37,0,0,0,0-.36,1,1,0,0,0,0-.44s-.08,0-.2.16a4.07,4.07,0,0,0-.81,1.67l0,.14A9.36,9.36,0,0,0,61.72,82.77Z"/><polygon class="cls-3" points="70.38 48.71 71.17 47.53 72.73 58.22 71.24 61.16 70.38 48.71"/><path class="cls-3" d="M61.72,84.52a1.53,1.53,0,0,0,.31.8,1.4,1.4,0,0,0,1.31.63l.33,0c1.6-.19,1.93-.38,2-.47-.1-.1-.67,0-1,0a3.4,3.4,0,0,1-1.93-.09A4.34,4.34,0,0,1,61.72,84.52Z"/><path class="cls-3" d="M61.83,83.52a1.39,1.39,0,0,0,.72.9l.07,0a1.58,1.58,0,0,0,1.44.2,4.32,4.32,0,0,0,1-.36,4.84,4.84,0,0,0-.54.07l-.23,0a3.35,3.35,0,0,1-1.17-.13A4.6,4.6,0,0,1,61.83,83.52Z"/></svg>