<svg id="图层_1" data-name="图层 1" xmlns="http://www.w3.org/2000/svg" viewBox="0 0 186 186"><defs><style>.cls-1{fill:#5b3b2f;}.cls-2{fill:#9a9692;}.cls-3{fill:#999692;}.cls-4{fill:#f9e6ed;}</style></defs><path class="cls-1" d="M87.51,162.55a.3.3,0,0,1-.15-.05.25.25,0,0,1-.06-.35l.09-.18a1.61,1.61,0,0,1,.15-.29l.19-.21.14-.14A2.67,2.67,0,0,0,88,161l0-.11a9.67,9.67,0,0,0,.49-1.12,18.46,18.46,0,0,0,.66-2.4l.27-1.35,0-.27a52.53,52.53,0,0,0,.78-6.78c.11-1.64.19-3.28.27-4.92.19-3.69.38-7.5.79-11.23.13-1.24.34-2.5.55-3.73a35.45,35.45,0,0,0,.69-6.71,24.51,24.51,0,0,0-.32-2.83,19.22,19.22,0,0,1-.33-3.23c0-.77,0-2.23.1-3.73-.14-1.42-.34-2.89-.54-4.45-.36-2.76-.74-5.61-.84-8.22a69.05,69.05,0,0,1,.34-8.29c.14-1.68.28-3.42.34-5.13.09-2.53,0-5.2-.11-7.94-.1-1.68-.25-3.44-.45-5.24,0,0,0-.06,0-.08a.56.56,0,0,1,0-.45.41.41,0,0,1,.28-.17,3.22,3.22,0,0,1,.62,0,2.37,2.37,0,0,0,.6,0,1.5,1.5,0,0,0,.71-.36,2.9,2.9,0,0,0,.8-1.45.73.73,0,0,1,.17-.38.25.25,0,0,1,.22-.08.23.23,0,0,1,.18.13,1.45,1.45,0,0,1,.07.8,1.28,1.28,0,0,0,0,.17l0,.4c0,.36,0,.73,0,1.1,0,.76,0,1.52-.07,2.28l-.5,15.49c0,.15.17,11.57-1,19a56,56,0,0,0-.39,6.68,19.57,19.57,0,0,0,.33,3.15,21.62,21.62,0,0,1,.32,2.9,35.34,35.34,0,0,1-.7,6.8c-.2,1.22-.41,2.48-.54,3.71-.4,3.71-.6,7.51-.78,11.19-.09,1.64-.17,3.29-.27,4.93a51.88,51.88,0,0,1-.8,6.85l0,.26c-.08.46-.17.91-.27,1.36a16.33,16.33,0,0,1-.68,2.47,8.55,8.55,0,0,1-.51,1.18l-.05.11a2,2,0,0,1-.23.39l-.17.18A1.07,1.07,0,0,0,88,162a.61.61,0,0,0-.1.18,1,1,0,0,1-.14.27A.24.24,0,0,1,87.51,162.55ZM91.3,73.14v0s0,.08,0,.12c.2,1.81.35,3.58.45,5.27.17,2.76.21,5.44.12,8-.06,1.72-.2,3.46-.34,5.15a66.23,66.23,0,0,0-.35,8.23c.11,2.59.48,5.43.84,8.18.09.67.17,1.33.26,2,0-.17,0-.34.07-.5,1.13-7.34,1-18.73,1-18.84l.5-15.54c0-.76,0-1.53.07-2.29,0-.33,0-.66,0-1a2.77,2.77,0,0,1-.56.69,2.06,2.06,0,0,1-.94.48,2.94,2.94,0,0,1-.72,0C91.59,73.14,91.44,73.13,91.3,73.14Z"/><path class="cls-2" d="M114.07,91.37l-.2-.16a4.48,4.48,0,0,1,.82-.8l.16.2A4.36,4.36,0,0,0,114.07,91.37Z"/><path class="cls-1" d="M114.09,91.55l-.4-.31.08-.1a4.38,4.38,0,0,1,.84-.82l.1-.08.31.39-.1.08a4.14,4.14,0,0,0-.76.74Z"/><path class="cls-2" d="M116,89.81a.11.11,0,0,1-.1-.06.12.12,0,0,1,0-.17,3.24,3.24,0,0,0,.72-1c.54-1.16.52-1.47.21-2.27-.15-.39-.41-1.07-.58-1.53a.13.13,0,1,1,.24-.08c.17.45.42,1.13.58,1.52a2.47,2.47,0,0,1-.22,2.47,3.53,3.53,0,0,1-.81,1.15Z"/><path class="cls-1" d="M116,89.93a.26.26,0,0,1-.21-.11.24.24,0,0,1,0-.19.27.27,0,0,1,.1-.16,3.19,3.19,0,0,0,.68-1c.52-1.13.51-1.4.2-2.17l-.58-1.53a.27.27,0,0,1,0-.2.29.29,0,0,1,.14-.13.27.27,0,0,1,.2,0,.25.25,0,0,1,.13.14l.57,1.53a2.56,2.56,0,0,1-.21,2.56,3.77,3.77,0,0,1-.86,1.2A.23.23,0,0,1,116,89.93Zm0-.25v0Zm.58-.73a3.33,3.33,0,0,1-.51.68A2.94,2.94,0,0,0,116.6,89Zm.57-2.21a1.58,1.58,0,0,1,0,.81A1.58,1.58,0,0,0,117.17,86.74Zm-.75-2,.38,1Z"/><path class="cls-3" d="M91.83,130.49a21.17,21.17,0,0,1-.35-7.24c.11-.5.28-1.16.44-1.79s.37-1.42.47-2l.27,0c-.1.54-.29,1.26-.47,2s-.33,1.29-.43,1.79a20.77,20.77,0,0,0,.34,7.16Z"/><path class="cls-1" d="M91.73,130.47l0-.11a20.19,20.19,0,0,1-.36-7.12c.1-.52.28-1.2.44-1.81s.36-1.15.47-1.69l0-.11.54.07,0,.1c-.11.54-.29,1-.47,1.7s-.34,1.31-.44,1.81a18.77,18.77,0,0,0,.33,6.77l0,.11Zm.77-10.84c-.11.53-.29,1.23-.45,1.85s-.33,1.28-.43,1.79a20.86,20.86,0,0,0,.32,7.09h0a20.56,20.56,0,0,1-.33-7.09c.1-.5.27-1.16.44-1.79s.34-1.33.45-1.85Z"/><path class="cls-1" d="M87.09,183l-.49,0a4.07,4.07,0,0,1-3.86-4.59A14,14,0,0,1,84.16,174c.23-.52.45-1,.66-1.55a14,14,0,0,0,.59-2.22c.09-.44.18-.88.3-1.33a6.6,6.6,0,0,1,.29-.79,4.13,4.13,0,0,0,.38-1.32.13.13,0,0,1,0-.06c.34-1.42.6-2.57.81-3.63a2.9,2.9,0,0,0-.4-2.12l-.16-.34a18.45,18.45,0,0,1-.84-2.09,7.73,7.73,0,0,1-.15-4.69,14.3,14.3,0,0,0,.5-3c0-.29,0-.58.09-.87a10.49,10.49,0,0,1,.32-1.52,4.78,4.78,0,0,0,.17-2.8L86.19,144c-1.34-4.09-2.73-8.31-3.89-12.55-.91-3.72-.64-7.89.81-12.76.89-3,.22-5.76-.49-8.7-.21-.86-.42-1.75-.59-2.65q-1.2-6.22-2.39-12.45-1.11-5.85-2.2-11.7a81.16,81.16,0,0,1-1-23.13,42.9,42.9,0,0,1,.65-4.33c.11-.53.22-1,.33-1.54.84-3.82,1.51-6.84.1-10.85l-3.4-9.66a76.07,76.07,0,0,0-.65,7.77c0,.69-.07,1.38-.11,2.07-.09,1.43-.09,2.9-.1,4.32s0,2.82-.09,4.23c-.09,1.63-.28,3.3-.46,4.92-.17,1.45-.34,3-.43,4.39l-.42,6.66q-.07,1.32-.18,2.64a6.74,6.74,0,0,0,.6,4.12,16,16,0,0,1,1.36,2.39h0c1.64,2.14,1.52,4.67,1.41,7.13,0,.61-.06,1.25-.06,1.86a2.26,2.26,0,0,0,0,.26,1.47,1.47,0,0,1-.36,1.19,1,1,0,0,1-.37.19c.55.54,1,1.09.87,1.55a.67.67,0,0,1-.54.48c-.7.2-1.28-.25-1.84-.68a2.58,2.58,0,0,0-1.17-.64l-.22,0a2,2,0,0,1-1.07-.32,3.81,3.81,0,0,1-1.12-1.38c-.13-.28-.24-.57-.35-.85s-.23-.6-.37-.89c-.07-.14-.15-.27-.22-.4a3.1,3.1,0,0,1-.47-1.23,8.86,8.86,0,0,1,0-1c0-.22,0-.45,0-.67-.07-1.47-.12-2.94-.18-4.41l-.08-2c-.75-.72-.57-1.84-.43-2.76,0-.16.05-.31.07-.46.16-1.32.28-2.65.35-3.93a50.56,50.56,0,0,0-.2-7.71c-.11-1.06-.24-2.06-.36-3-.51-4.14-1-7.71,0-12.61.78-3.93.6-8.55.42-13-.07-1.85-.14-3.6-.14-5.26V15.69a5.67,5.67,0,0,1,3.61-4.59,14.81,14.81,0,0,1,3.83-.58,16,16,0,0,0,3.37-.44c2.5-.7,4.2-1.72,5.19-3.12.59-.84.59-2,.59-3.71a.27.27,0,0,1,.08-.18A.26.26,0,0,1,84.08,3H91.9a.22.22,0,0,1,.19.09.24.24,0,0,1,.06.2,6.82,6.82,0,0,0,1.64,5.42,13.29,13.29,0,0,0,9,4.45c4.37.22,4.64,6.27,4.75,8.85.19,4.36.51,8.78.93,13.15.08.94.14,1.89.19,2.82a46.92,46.92,0,0,0,.47,4.87c.47,2.67,1.17,5.34,1.84,7.92.56,2.17,1.14,4.4,1.59,6.63s.78,4.74,1.08,7.11c.62,4.75,1.25,9.67,3.11,14,.25.59.57,1.21.91,1.87,1.44,2.84,3.08,6.05,1,8.91A10.67,10.67,0,0,1,115,92.1a1.37,1.37,0,0,1-1,.07.63.63,0,0,1-.31-.83l0-.1a.94.94,0,0,0-.32.11.82.82,0,0,1-.7.13.69.69,0,0,1-.37-.41,1.07,1.07,0,0,1,.13-1,1,1,0,0,1,.32-.28,1,1,0,0,0,.15-.11.44.44,0,0,0,.13-.32l0-.21a1.31,1.31,0,0,1,.52-.77,2.5,2.5,0,0,1,.53-.28.25.25,0,0,1,.33.13.25.25,0,0,1-.14.33,3,3,0,0,0-.42.23.78.78,0,0,0-.32.46,1.22,1.22,0,0,0,0,.17.89.89,0,0,1-.27.61,1.06,1.06,0,0,1-.24.19.49.49,0,0,0-.17.14.53.53,0,0,0-.08.55c0,.1.07.13.08.13s.21-.06.3-.11a.93.93,0,0,1,.72-.14c.43.13.32.55.29.7s0,.22,0,.25a1,1,0,0,0,.63-.08A10.11,10.11,0,0,0,118.26,89c1.86-2.61.3-5.67-1.08-8.38-.34-.67-.67-1.3-.93-1.9-1.88-4.37-2.52-9.32-3.14-14.11-.3-2.35-.62-4.79-1.08-7.07s-1-4.44-1.58-6.6c-.68-2.59-1.37-5.27-1.84-8a41.32,41.32,0,0,1-.48-4.93c0-.92-.11-1.87-.2-2.8-.42-4.38-.73-8.81-.92-13.18-.17-3.8-.81-8.19-4.28-8.37A13.79,13.79,0,0,1,93.4,9a7.39,7.39,0,0,1-1.79-5.52H84.34c0,1.57,0,2.82-.69,3.74-1.06,1.5-2.85,2.58-5.47,3.32a16.44,16.44,0,0,1-3.47.46,14.1,14.1,0,0,0-3.7.55,5.15,5.15,0,0,0-3.27,4.15V26.52c0,1.65.07,3.4.14,5.24.18,4.49.37,9.14-.43,13.13-1,4.82-.54,8.18,0,12.45.12,1,.25,2,.36,3a49.12,49.12,0,0,1,.2,7.79c-.06,1.29-.18,2.63-.35,4,0,.15,0,.32-.07.48-.14.87-.29,1.84.34,2.37a.24.24,0,0,1,.09.18l.08,2.16c.06,1.47.12,2.94.19,4.41,0,.23,0,.47,0,.7a6.09,6.09,0,0,0,0,1,2.58,2.58,0,0,0,.4,1.05c.08.13.15.27.23.42.15.3.27.62.39.92s.21.55.34.82a3.24,3.24,0,0,0,1,1.19,1.37,1.37,0,0,0,.81.22l.24,0a3.07,3.07,0,0,1,1.42.75c.48.37.94.72,1.39.6.07,0,.17-.06.19-.12s-.06-.43-.94-1.26l-.07-.06a2.29,2.29,0,0,0-.23-.21,3.38,3.38,0,0,1-.67-.74,5.47,5.47,0,0,1-.6-2.76c0-.14,0-.29,0-.44a6.18,6.18,0,0,1,0-1,2,2,0,0,1,.23-.8c.08-.12.3-.46.61-.35.48.18.36,1.59.28,2.18a5.81,5.81,0,0,0,.07,2.62c.14.37.4.79.66.86a.32.32,0,0,0,.32-.1c.18-.14.18-.5.18-.79v-.27c0-.61,0-1.26.06-1.88.11-2.36.23-4.8-1.31-6.8a.59.59,0,0,1,0-.08c-.12-.24-1.24-2.13-1.37-2.34a7.18,7.18,0,0,1-.66-4.42c.07-.88.12-1.75.17-2.63l.43-6.66c.09-1.45.26-3,.43-4.42s.37-3.27.46-4.89c.07-1.4.08-2.83.09-4.21s0-2.89.09-4.34c0-.69.08-1.38.11-2.07a77.61,77.61,0,0,1,.67-7.82.5.5,0,0,1,1-.09L78,43.18c1.45,4.15.74,7.38-.08,11.13-.11.5-.22,1-.34,1.53A42.73,42.73,0,0,0,77,60.12a80.19,80.19,0,0,0,1,23Q79,89,80.14,94.81q1.19,6.22,2.38,12.45c.17.88.39,1.76.59,2.62.7,2.88,1.41,5.86.49,9-1.43,4.77-1.7,8.86-.81,12.48,1.15,4.22,2.54,8.44,3.88,12.52l.54,1.65a5.29,5.29,0,0,1-.16,3.09,9.82,9.82,0,0,0-.31,1.45l-.09.86a14.94,14.94,0,0,1-.52,3.07,7.37,7.37,0,0,0,.15,4.39,17.05,17.05,0,0,0,.82,2l.15.33a3.32,3.32,0,0,1,.44,2.43c-.2,1.07-.46,2.22-.8,3.63a4.57,4.57,0,0,1-.42,1.48,6.27,6.27,0,0,0-.27.73c-.12.44-.21.87-.29,1.3a14,14,0,0,1-.62,2.3c-.21.53-.44,1-.67,1.57a14,14,0,0,0-1.38,4.28,3.72,3.72,0,0,0,.81,2.76,3.76,3.76,0,0,0,2.6,1.28,4.33,4.33,0,0,0,4.86-3.72,32,32,0,0,0,.15-4.79,37.44,37.44,0,0,1,.07-4.23,1.38,1.38,0,0,1,1-1.29c.16-.08.35-.16.55-.28a3.35,3.35,0,0,0,1.52-1.63c.76-1.79,0-3.44-.71-5-.63-1.39-1.28-2.82-.93-4.33a53.3,53.3,0,0,1,2.3-6.91c.65-1.7,1.33-3.47,1.84-5.2,1.76-6,3.24-11.36,3.54-17a39.08,39.08,0,0,0-.57-7.9,21.93,21.93,0,0,1,.14-6c.06-.59.13-1.18.18-1.78.66-7.3,2.83-14.38,4.94-21.23,1.42-4.62,2.89-9.4,3.87-14.2,2.07-10.08-1.19-20.14-9-27.59-.48-.47-1-.92-1.46-1.37a9.21,9.21,0,0,1-2.75-3.85c-.77-2.55.11-5.31.88-7.75l.07-.21c.38-1.19.73-2.41,1.07-3.58.46-1.58.94-3.21,1.47-4.79a.26.26,0,0,1,.33-.16.24.24,0,0,1,.15.32c-.53,1.57-1,3.2-1.46,4.77-.34,1.18-.7,2.4-1.08,3.59l-.07.22c-.75,2.36-1.6,5-.88,7.44a8.69,8.69,0,0,0,2.62,3.63l1.46,1.37c7.89,7.58,11.21,17.8,9.11,28.06-1,4.83-2.47,9.62-3.89,14.25-2.1,6.82-4.26,13.88-4.91,21.13-.06.6-.12,1.19-.19,1.79a21.42,21.42,0,0,0-.14,5.87,38.66,38.66,0,0,1,.57,8c-.3,5.73-1.79,11.16-3.56,17.16-.51,1.75-1.19,3.52-1.85,5.23a52.88,52.88,0,0,0-2.28,6.85c-.3,1.33.28,2.63.9,4,.77,1.7,1.56,3.46.71,5.45a3.8,3.8,0,0,1-1.73,1.87c-.22.13-.42.22-.59.3-.49.21-.69.3-.74.88a36.32,36.32,0,0,0-.08,4.17,31.83,31.83,0,0,1-.15,4.87A4.78,4.78,0,0,1,87.09,183ZM72.83,82.3a1.56,1.56,0,0,0-.16.58,6.42,6.42,0,0,0,0,.88c0,.16,0,.31,0,.47s0,.38,0,.6c0-.37.07-.72.11-1A8.32,8.32,0,0,0,72.83,82.3Z"/><path class="cls-3" d="M104.39,53.5a.14.14,0,0,1-.13-.11c-.46-2.76-.68-5.52-.89-8.59a26,26,0,0,0-.76-4.11c-.14-.6-.29-1.22-.41-1.81-.67-3.28-1.41-6.78-2.32-11a.13.13,0,0,1,.1-.15.12.12,0,0,1,.15.09c.91,4.24,1.65,7.74,2.32,11,.12.59.27,1.2.41,1.8a26.27,26.27,0,0,1,.76,4.15c.21,3.06.43,5.82.89,8.57a.12.12,0,0,1-.1.14Z"/><path class="cls-1" d="M104.39,53.62a.25.25,0,0,1-.25-.21c-.47-2.77-.68-5.53-.9-8.6a25.72,25.72,0,0,0-.75-4.09v-.06c-.14-.58-.28-1.18-.4-1.75-.68-3.31-1.42-6.8-2.32-11a.26.26,0,0,1,0-.19.29.29,0,0,1,.16-.11.26.26,0,0,1,.3.2c.91,4.24,1.65,7.74,2.32,11,.12.57.26,1.17.4,1.75v.05a26.25,26.25,0,0,1,.77,4.18,85,85,0,0,0,.89,8.55.27.27,0,0,1,0,.19.25.25,0,0,1-.16.1ZM100,27.84c.91,4.21,1.65,7.71,2.33,11,.11.57.26,1.17.39,1.75l0,0c.21.89.43,1.8.58,2.71-.15-.91-.37-1.82-.58-2.71l0,0c-.13-.58-.28-1.18-.39-1.75C101.65,35.58,100.92,32.08,100,27.84Z"/><path class="cls-2" d="M115.18,90.88a.75.75,0,0,1-.59-.39,3.16,3.16,0,0,1-.35-1.84c0-.19,0-.38,0-.56a18.88,18.88,0,0,0-.84-4.39l0-.12a5.46,5.46,0,0,1-.34-2.51c0-.21.06-.43.1-.64a4.56,4.56,0,0,0,0-2.11c-.9-2.93-2-5.72-3-8a.13.13,0,0,1,.06-.17.14.14,0,0,1,.17.07c1,2.34,2.08,5.13,3,8.08a4.76,4.76,0,0,1,0,2.22c0,.21-.07.42-.1.63a5.29,5.29,0,0,0,.33,2.4l0,.13a18.71,18.71,0,0,1,.84,4.45c0,.18,0,.37,0,.57a2.92,2.92,0,0,0,.31,1.7c.15.21.29.3.43.28.32-.07.64-.75.72-1.18a6.72,6.72,0,0,0,.08-1.27c0-.34,0-.71,0-1.05l0-.37a8.08,8.08,0,0,0,0-3,.13.13,0,0,1,.09-.16.12.12,0,0,1,.15.1,8.13,8.13,0,0,1,0,3.11l0,.37a8.61,8.61,0,0,0,0,1,8.12,8.12,0,0,1-.09,1.3c-.07.39-.4,1.27-.92,1.38Z"/><path class="cls-1" d="M115.18,91a.85.85,0,0,1-.69-.44,3.31,3.31,0,0,1-.38-1.92c0-.21,0-.38,0-.55a18.41,18.41,0,0,0-.83-4.36l0-.13a5.5,5.5,0,0,1-.34-2.55c0-.22.06-.44.09-.65a4.45,4.45,0,0,0,0-2c-.9-2.93-2-5.71-3-8a.26.26,0,0,1,.14-.33.26.26,0,0,1,.33.14c1,2.35,2.08,5.15,3,8.09a4.88,4.88,0,0,1,0,2.28v0q-.06.3-.09.6a5.25,5.25,0,0,0,.32,2.35l0,.12a19.49,19.49,0,0,1,.85,4.49c0,.17,0,.36,0,.54a2.87,2.87,0,0,0,.29,1.66c.07.11.19.25.3.22s.54-.64.62-1.08a8.29,8.29,0,0,0,.08-1.23,7.74,7.74,0,0,1,0-1.08l.05-.37a8,8,0,0,0,0-3,.25.25,0,0,1,0-.19.28.28,0,0,1,.16-.12.23.23,0,0,1,.18,0,.29.29,0,0,1,.13.16,8.45,8.45,0,0,1,0,3.17l-.05.36c0,.33,0,.66,0,1a6.56,6.56,0,0,1-.09,1.32c-.07.43-.43,1.36-1,1.49Zm-.31-.38a.45.45,0,0,0,.39.12l.11,0-.11,0A.47.47,0,0,1,114.87,90.63Zm-.19-.23,0,0h0Zm1.48-2.26v0a7.91,7.91,0,0,1-.08,1.29,3,3,0,0,1-.37.9,3,3,0,0,0,.37-.9,7.86,7.86,0,0,0,.08-1.28Zm-1.8.46v0Zm-.1-1.61c0,.37.08.74.1,1.1v0C114.34,87.73,114.31,87.36,114.26,87Zm2.16-1.77c0,.52-.09,1-.16,1.55l-.05.37s0,.1,0,.14,0-.09,0-.14l.05-.37C116.33,86.26,116.4,85.74,116.42,85.22Zm-3-2c0,.12.07.24.11.37l0,.12.12.43-.12-.43,0-.12C113.44,83.41,113.41,83.29,113.37,83.17Zm-.16-.64h0Zm-.09-1.23a4.43,4.43,0,0,0,.09,1.23A4.43,4.43,0,0,1,113.12,81.3Zm.11-.78c0,.09,0,.18,0,.27C113.2,80.7,113.22,80.61,113.23,80.52Zm-.66-4.36c.24.7.47,1.41.69,2.12,0,.06,0,.11,0,.16s0-.1,0-.16C113,77.57,112.81,76.86,112.57,76.16Zm-2.29-5.94a3.45,3.45,0,0,1,.14.34A3.45,3.45,0,0,0,110.28,70.22Z"/><path class="cls-4" d="M99.75,28.5a3.86,3.86,0,0,0-2.12-3.08,17.78,17.78,0,0,0-6.74-1.7,50.36,50.36,0,0,0-9.27-.1C78,23.9,73.76,25,73.25,29.23c-.19,1.52.59,2.78,1.08,4.17,1.36,3.8,2.73,7.61,3.84,11.51,1.3,4.59-.83,9.22-1.37,13.76A76.78,76.78,0,0,0,76.51,73c.06.8.83,10.22,1.14,10.16a67,67,0,0,0,16.64-.74,63.59,63.59,0,0,0,15.45-5.49c.34-.06.54-3.2.57-3.47a29,29,0,0,0-5.57-19.74,40.58,40.58,0,0,0-4-4.67c-.83-.84-1.82-1.51-2.6-2.39-2.27-2.54-2.31-6-1.15-9.07Z"/><path class="cls-1" d="M83.22,84.36c-3.23,0-5.48-.21-5.66-.23h0a1,1,0,0,1-.54-.21c-.27-.21-.79-.6-1.52-10.88a77.41,77.41,0,0,1,.3-14.49,41,41,0,0,1,.84-4.42c.71-3.11,1.37-6.05.55-9-1-3.73-2.39-7.47-3.68-11.08l-.13-.36c-.11-.32-.24-.62-.36-.93a7.14,7.14,0,0,1-.78-3.7c.47-3.88,3.6-6.07,9.31-6.49a50.93,50.93,0,0,1,9.45.09,18.32,18.32,0,0,1,7.13,1.84,4.79,4.79,0,0,1,2.63,3.93.86.86,0,0,1-.05.32l-2.77,9.05C96.74,41,97.09,44,98.87,46a12.55,12.55,0,0,0,1.35,1.25c.4.35.82.7,1.21,1.1a41,41,0,0,1,4.13,4.78,30.11,30.11,0,0,1,5.75,20.42v.14c-.23,3.13-.45,4-1.19,4.2a64.1,64.1,0,0,1-15.63,5.53A60.38,60.38,0,0,1,83.22,84.36Zm-4.78-2.19A65.76,65.76,0,0,0,94.1,81.4,63.18,63.18,0,0,0,109,76.16a22.18,22.18,0,0,0,.31-2.66v-.16a28,28,0,0,0-5.37-19.05A39,39,0,0,0,100,49.73c-.34-.34-.72-.66-1.09-1a15.94,15.94,0,0,1-1.55-1.44C95.06,44.72,94.57,41,96,37.2l2.7-8.82a3.09,3.09,0,0,0-1.6-2.08,16.76,16.76,0,0,0-6.35-1.58,50.44,50.44,0,0,0-9.08-.09c-4.67.35-7.11,1.9-7.45,4.72A5.45,5.45,0,0,0,74.88,32c.14.33.28.67.4,1l.13.36c1.31,3.64,2.65,7.41,3.73,11.21,1,3.4.2,6.73-.53,9.95a39.78,39.78,0,0,0-.8,4.21,75,75,0,0,0-.29,14.11C77.63,74.4,78.14,80.27,78.44,82.17Zm-.78,0h-.2a.94.94,0,0,1,.29,0h-.09Zm31.88-6.21-.19.06Z"/></svg>