<svg id="图层_1" data-name="图层 1" xmlns="http://www.w3.org/2000/svg" viewBox="0 0 186 186"><defs><style>.cls-1{fill:#f5e3ea;}.cls-2{fill:#e2c9d2;}.cls-3{fill:#e6ced8;}.cls-4{fill:#fff;}.cls-5{fill:#5b3b2f;}</style></defs><path class="cls-1" d="M79.84,26.5S84.33,44.19,61.1,53,29.88,67.64,31.69,87.45s3.53,57.42.88,71.56h20.8s3-64.35,2.59-70.16L63,159H122.5l6.17-70.9s4.61,55,4.61,70.9h21.2a258.7,258.7,0,0,1-1-61.79c3.64-32.74-7-33.62-27.28-43.34S107.66,39.75,107.66,26.5Z"/><path class="cls-1" d="M155.06,159.5H132.79V159c0-12.62-2.95-50.39-4.13-65L123,159.5H62.56L56.37,97.84C55.85,116.6,54,156.92,53.86,159l0,.47H32l.11-.58c2.57-13.76,1-50.75-.89-71.42-1.8-19.72,5.47-25.74,29.73-34.95C83.45,44,79.53,27.32,79.36,26.62L79.2,26h29v.5c0,1,0,2,0,2.93-.12,11-.17,15.18,18.29,24,2.09,1,4.08,1.91,5.95,2.77C149,63.76,157.29,67.55,154,97.28a261.06,261.06,0,0,0,1,61.65Zm-21.28-1h20.13A262.29,262.29,0,0,1,153,97.17c3.23-29-4.88-32.71-21-40.07-1.88-.86-3.87-1.77-6-2.77-19-9.1-19-13.73-18.85-24.91,0-.77,0-1.58,0-2.43H80.43c.53,3.26,1.76,18.54-19.15,26.48-23.72,9-30.83,14.87-29.1,33.94,1.87,20.44,3.43,56.82,1,71.1H52.89c.28-5.88,3-64.17,2.58-69.63l1-.08,7,69.71h58.59l6.13-70.44h1C129.21,88.62,133.69,142.15,133.78,158.51Z"/><path class="cls-2" d="M82.44,67.64c0,2.65,0,5.3-.14,8s-.22,5.3-.48,8a35.42,35.42,0,0,1-1.45,7.9,14.08,14.08,0,0,1-4.51,6.67l.07-.09a3.6,3.6,0,0,1-.52.52l-.51.4-1,.8c-.67.52-1.35,1-2,1.53l1.85-1.77.92-.89.45-.45.37-.39,0-.08h0a14.26,14.26,0,0,0,3.93-6.54,42.88,42.88,0,0,0,1.35-7.71l.79-7.89C81.81,72.9,82.07,70.26,82.44,67.64Z"/><path class="cls-2" d="M103.49,67.64c.37,2.62.63,5.26.87,7.9l.79,7.89a42.88,42.88,0,0,0,1.35,7.71,14.26,14.26,0,0,0,3.93,6.54h0l.06.08.37.39.45.45.92.89,1.85,1.77c-.7-.5-1.38-1-2.06-1.53l-1-.8-.5-.4A3.16,3.16,0,0,1,110,98l.07.09a14,14,0,0,1-4.51-6.67,35.42,35.42,0,0,1-1.45-7.9c-.26-2.65-.41-5.3-.49-8S103.49,70.29,103.49,67.64Z"/><path class="cls-3" d="M136.07,57.71c-4.53-3.26-14.8-7.81-17.85-9a1,1,0,0,0-1.16.32S113,62.7,93,63.14c-19.13.42-29.08-11.38-29.08-11.38a1,1,0,0,0-1.08-.22c-2.51,1.05-12.89,4.82-17.15,8a1,1,0,0,0-.36,1c.63,3.54,3.87,15.79,6.44,30.71,2.82,16.38,5.8,28.41,5.85,37.23,0,7.45,0,21.44,0,21.44h68.36s-.38-5.55-.41-14.55c0-7.46,2.53-27.46,4.6-45.14a230.31,230.31,0,0,1,6.32-31.43A1,1,0,0,0,136.07,57.71Z"/><path class="cls-4" d="M51.77,87.2S62.52,137.81,56.06,159h71.55s-3.82-42,2.24-71.81l-7,3.12a78.49,78.49,0,0,1-64.16,0Z"/><path class="cls-5" d="M127.61,160H56.06a1,1,0,0,1-1-1.28c6.31-20.71-4.2-70.81-4.31-71.31a1,1,0,0,1,1.38-1.11l7,3.12a77.62,77.62,0,0,0,63.35,0l7-3.12a1,1,0,0,1,1,.13,1,1,0,0,1,.35,1c-6,29.3-2.26,71.1-2.23,71.52a1,1,0,0,1-.25.76A1,1,0,0,1,127.61,160Zm-70.24-2h69.16c-.53-6.64-3-42.38,2-69.13l-5.21,2.34a79.6,79.6,0,0,1-65,0l-5.2-2.33c.81,4.11,2.75,14.39,4.19,26.13C59.72,134.53,59.73,149,57.37,158Z"/><circle class="cls-5" cx="90.81" cy="72.38" r="1.49"/><circle class="cls-5" cx="90.81" cy="80.46" r="1.49"/><circle class="cls-5" cx="90.81" cy="88.53" r="1.49"/><circle class="cls-5" cx="90.81" cy="96.61" r="1.49"/><circle class="cls-5" cx="90.81" cy="104.68" r="1.49"/><circle class="cls-5" cx="90.81" cy="112.76" r="1.49"/><circle class="cls-5" cx="90.81" cy="120.83" r="1.49"/><circle class="cls-5" cx="90.81" cy="128.9" r="1.49"/><circle class="cls-5" cx="90.81" cy="136.98" r="1.49"/><circle class="cls-5" cx="90.81" cy="145.05" r="1.49"/><circle class="cls-5" cx="90.81" cy="153.13" r="1.49"/></svg>