<svg id="图层_1" data-name="图层 1" xmlns="http://www.w3.org/2000/svg" viewBox="0 0 186 186"><defs><style>.cls-1{fill:#f5e3ea;}.cls-2{fill:#e2c9d2;}.cls-3{fill:#fff;}.cls-4{fill:#5b3b2f;}</style></defs><path class="cls-1" d="M79.84,26.5S84.33,44.19,61.1,53,29.88,67.64,31.69,87.45s3.53,57.42.88,71.56h20.8s3-64.35,2.59-70.16L63,159H122.5l6.17-70.9s4.61,55,4.61,70.9h21.2a258.7,258.7,0,0,1-1-61.79c3.64-32.74-7-33.62-27.28-43.34S107.66,39.75,107.66,26.5Z"/><path class="cls-1" d="M154.48,159.5H132.79V159c0-12.62-2.95-50.39-4.13-65L123,159.5H62.56L56.37,97.84C55.85,116.6,54,156.92,53.86,159l0,.47H32l.11-.58c2.57-13.76,1-50.75-.89-71.42-1.8-19.72,5.47-25.74,29.73-34.95C83.48,44,79.4,26.79,79.36,26.62L79.2,26h29v.5c0,1,0,2,0,2.93-.12,11-.17,15.18,18.29,24,2.09,1,4.08,1.91,5.95,2.77C149,63.76,157.29,67.55,154,97.28a261.06,261.06,0,0,0,1,61.65l.09.57Zm-20.7-1h20.13A262.29,262.29,0,0,1,153,97.17c3.23-29-4.88-32.71-21-40.07-1.88-.86-3.87-1.77-6-2.77-19-9.1-19-13.73-18.85-24.91,0-.77,0-1.58,0-2.43H80.43c.53,3.26,1.76,18.54-19.15,26.48-23.72,9-30.83,14.87-29.1,33.94,1.87,20.44,3.43,56.82,1,71.1H52.89c.28-5.88,3-64.17,2.58-69.62l1-.09,7,69.71h58.59l6.13-70.44h1C129.21,88.62,133.69,142.15,133.78,158.51Z"/><path class="cls-2" d="M82.44,67.64c0,2.65,0,5.3-.14,8s-.22,5.3-.48,8a35.42,35.42,0,0,1-1.45,7.9,14.08,14.08,0,0,1-4.51,6.67l.07-.09a3.6,3.6,0,0,1-.52.52l-.51.4-1,.8c-.67.52-1.35,1-2,1.53l1.85-1.77.92-.89.45-.45.37-.39,0-.08h0a14.26,14.26,0,0,0,3.93-6.54,42.88,42.88,0,0,0,1.35-7.71l.79-7.89C81.81,72.9,82.07,70.27,82.44,67.64Z"/><path class="cls-2" d="M103.49,67.64c.37,2.63.63,5.26.87,7.9l.79,7.89a42.88,42.88,0,0,0,1.35,7.71,14.26,14.26,0,0,0,3.93,6.54h0l.06.08.37.39.45.45.92.89,1.85,1.77c-.7-.5-1.38-1-2.06-1.53l-1-.8-.5-.4A3.16,3.16,0,0,1,110,98l.07.09a14,14,0,0,1-4.51-6.67,35.42,35.42,0,0,1-1.45-7.9c-.26-2.65-.41-5.3-.49-8S103.49,70.29,103.49,67.64Z"/><path class="cls-3" d="M52.7,87.21S63.45,137.81,57,159h71.54s-3.81-42,2.25-71.8l-7,3.11a78.49,78.49,0,0,1-64.16,0Z"/><path class="cls-4" d="M128.53,160H57a1,1,0,0,1-.8-.4,1,1,0,0,1-.15-.88c6.31-20.71-4.2-70.8-4.31-71.31A1,1,0,0,1,53.1,86.3l7,3.12a77.59,77.59,0,0,0,63.34,0l7-3.12a1,1,0,0,1,1,.13,1,1,0,0,1,.35,1c-6,29.3-2.27,71.1-2.23,71.52a1,1,0,0,1-.26.76A1,1,0,0,1,128.53,160ZM58.3,158h69.15c-.52-6.64-3-42.38,2-69.13l-5.22,2.34a79.58,79.58,0,0,1-65,0l-5.2-2.33c.81,4.11,2.75,14.39,4.19,26.14C60.64,134.53,60.66,149,58.3,158Z"/><path class="cls-4" d="M91.41,158.86h0a1.12,1.12,0,0,1-1.1-.92L79.87,96.43l2-.33,9.61,56.72L102,96.08l2,.37L92.51,157.94A1.13,1.13,0,0,1,91.41,158.86Z"/><path class="cls-4" d="M89.19,145.21,88,144.37l6.77-9.9-9.31-9.13a.74.74,0,0,1-.22-.52.7.7,0,0,1,.21-.53L98.54,111,81.36,100.17l.79-1.26,18,11.27a.73.73,0,0,1,.34.54.73.73,0,0,1-.21.61L87,124.8l9.23,9a.74.74,0,0,1,.09.95Z"/><path class="cls-4" d="M94.15,145.53a.73.73,0,0,1-.62-.33l-7.12-10.58a.75.75,0,0,1,.11-1l9.77-9L82.66,112.59a.74.74,0,0,1-.25-.61.77.77,0,0,1,.33-.57l18.89-12.49a.74.74,0,0,1,1,.21.75.75,0,0,1-.21,1l-18.09,12,13.52,12a.73.73,0,0,1,.25.55.72.72,0,0,1-.24.56L88,134.31l6.76,10.06a.74.74,0,0,1-.2,1A.69.69,0,0,1,94.15,145.53Z"/></svg>