<svg id="图层_1" data-name="图层 1" xmlns="http://www.w3.org/2000/svg" viewBox="0 0 186 186"><defs><style>.cls-1{fill:#f5e3ea;}.cls-2{fill:#e2c9d2;}.cls-3{fill:#fff;}.cls-4{fill:#5b3b2f;}</style></defs><path class="cls-1" d="M80.25,26.48s4.36,17.13-18.14,25.67S31.88,66.32,33.63,85.5s3.42,55.61.86,69.29H54.62s2.92-62.3,2.52-67.93L64,154.79h57.61l6-68.64S132,139.4,132,154.79h20.53A250.4,250.4,0,0,1,151.58,95c3.52-31.7-6.74-32.55-26.42-42s-18-13.69-18-26.52Z"/><path class="cls-1" d="M152.53,155.27h-21v-.48c0-12.22-2.86-48.79-4-62.94L122,155.27H63.53l-6-59.71c-.51,18.17-2.33,57.21-2.43,59.25l0,.46H33.91l.11-.57c2.49-13.32,1-49.14-.87-69.15-1.74-19.09,5.3-24.92,28.79-33.85,21.81-8.28,18-24.42,17.85-25.1l-.15-.6h28v.48c0,1,0,1.94,0,2.84-.12,10.7-.16,14.7,17.71,23.24,2,1,3.95,1.85,5.77,2.68,16.05,7.32,24.11,11,20.91,39.78a252.14,252.14,0,0,0,1,59.7l.09.55Zm-20.05-1H152a254.32,254.32,0,0,1-.88-59.4c3.12-28.09-4.73-31.67-20.36-38.8-1.83-.83-3.76-1.71-5.79-2.68-18.42-8.81-18.37-13.29-18.25-24.12,0-.75,0-1.53,0-2.35H80.83c.51,3.15,1.71,17.95-18.55,25.64-23,8.73-29.85,14.4-28.17,32.86,1.8,19.79,3.32,55,1,68.85h19.1c.27-5.7,2.88-62.13,2.5-67.42l1-.08,6.79,67.5h56.73l5.93-68.21h1C128.06,86.63,132.4,138.47,132.48,154.31Z"/><path class="cls-2" d="M82.77,66.32c0,2.57,0,5.13-.13,7.7s-.22,5.13-.47,7.69a34.21,34.21,0,0,1-1.4,7.65,13.6,13.6,0,0,1-4.37,6.46l.07-.08a2.61,2.61,0,0,1-.51.5l-.48.39-1,.77c-.65.51-1.32,1-2,1.49l1.79-1.72.89-.86.44-.43c.12-.13.32-.34.35-.39l.06-.07h0a13.85,13.85,0,0,0,3.81-6.34,40.85,40.85,0,0,0,1.31-7.46L81.93,74C82.16,71.42,82.42,68.86,82.77,66.32Z"/><path class="cls-2" d="M103.16,66.32c.35,2.54.61,5.1.84,7.65l.76,7.64a40.85,40.85,0,0,0,1.31,7.46,13.85,13.85,0,0,0,3.81,6.34h0l.06.07c0,.05.23.26.35.39l.44.43.89.86,1.79,1.72c-.67-.49-1.34-1-2-1.49l-1-.77-.48-.39a2.61,2.61,0,0,1-.51-.5l.07.08a13.6,13.6,0,0,1-4.37-6.46,34.21,34.21,0,0,1-1.4-7.65c-.25-2.56-.4-5.13-.47-7.69S103.16,68.89,103.16,66.32Z"/><path class="cls-3" d="M131.5,88.9a124.59,124.59,0,0,1,1.66-17.66c.45-3.26,4-10.95,2.08-14a2.54,2.54,0,0,0-1-.85c-5.94-2.87-13-5.75-18.95-8.62a4.31,4.31,0,0,0-1.92-.57,4.68,4.68,0,0,0-2.51,1.27c-10.16,7.89-25.79,7.66-35.71-.52l-.54-.44a3.07,3.07,0,0,0-1.68-.74,3.88,3.88,0,0,0-2.32,1c-4.23,3-11.83,6.24-16.8,7.71-4.5,1.34-3.9,1.6-3.1,6.48C52,70.3,55.08,78.24,55.05,86.84a145.29,145.29,0,0,1-1.42,15.31,13.35,13.35,0,0,0,.17,4.5c1.64,7.87,7.17,34.3,10.3,48.44a3.35,3.35,0,0,0,.82,1.82,3.26,3.26,0,0,0,1.87.64,210.53,210.53,0,0,0,53.38-.43c3.7-11.41,10.45-38.05,12.86-47.67a16.3,16.3,0,0,0,.21-7A90.71,90.71,0,0,1,131.5,88.9ZM74.83,118.2"/><path class="cls-4" d="M91.83,160a211.52,211.52,0,0,1-25.15-1.5,3.4,3.4,0,0,1-3.52-3.2c-3.15-14.25-8.68-40.69-10.3-48.46a14.44,14.44,0,0,1-.18-4.82,145,145,0,0,0,1.41-15.18c0-5.43-1.25-10.75-2.48-15.89-.69-2.88-1.4-5.86-1.89-8.87-.08-.5-.16-1-.24-1.37-.71-4-.48-4.85,4-6.18C58.41,53.07,65.93,49.84,70,47a4.82,4.82,0,0,1,2.91-1.16,3.94,3.94,0,0,1,2.22.94c.19.14.37.29.54.44,9.59,7.9,24.75,8.12,34.54.52l.09-.07a5.3,5.3,0,0,1,3-1.4,5.41,5.41,0,0,1,2.36.66c2.91,1.4,6.11,2.82,9.21,4.19,3.29,1.45,6.68,3,9.74,4.43a3.54,3.54,0,0,1,1.44,1.2c1.61,2.51.25,7-1,10.9a29.8,29.8,0,0,0-1,3.76l-.11.79a118.24,118.24,0,0,0-1.54,16.74h0a92.59,92.59,0,0,0,1.72,13.43,16.88,16.88,0,0,1-.22,7.35c-2.65,10.6-9.23,36.47-12.87,47.74a1,1,0,0,1-.79.65A210.36,210.36,0,0,1,91.83,160ZM72.8,47.71a3.49,3.49,0,0,0-1.68.82C66.71,51.64,59,54.89,54.05,56.37c-1.37.41-2.62.81-2.88,1.24s0,1.37.2,2.76c.08.42.16.89.25,1.4.48,2.94,1.18,5.88,1.86,8.73C54.73,75.75,56,81.18,56,86.84a148.5,148.5,0,0,1-1.42,15.44,12.17,12.17,0,0,0,.15,4.17c1.62,7.76,7.15,34.19,10.3,48.44a2.58,2.58,0,0,0,.52,1.31,2.71,2.71,0,0,0,1.35.39,209.41,209.41,0,0,0,52.53-.34c3.67-11.5,10.05-36.63,12.66-47a15.2,15.2,0,0,0,.2-6.54,89.51,89.51,0,0,1-1.76-13.78h0a119.49,119.49,0,0,1,1.56-17l.11-.79a29.06,29.06,0,0,1,1.06-4.06c1-3.18,2.29-7.54,1.16-9.3a1.71,1.71,0,0,0-.65-.51c-3-1.46-6.42-3-9.68-4.41s-6.34-2.8-9.27-4.2a3.72,3.72,0,0,0-1.47-.48,3.76,3.76,0,0,0-1.86,1l-.09.07c-10.47,8.13-26.69,7.89-36.91-.54-.19-.15-.35-.29-.52-.41a2.11,2.11,0,0,0-1.14-.56Zm18.66,82.86.7-1.79Z"/></svg>