<svg id="图层_1" data-name="图层 1" xmlns="http://www.w3.org/2000/svg" viewBox="0 0 186 186"><defs><style>.cls-1{fill:#f5e3ea;}.cls-2{fill:#e2c9d2;}.cls-3{fill:#fff;}.cls-4{fill:#5b3b2f;}</style></defs><path class="cls-1" d="M81.6,26.5S86.1,44.19,62.87,53,31.65,67.64,33.45,87.45,37,144.87,34.33,159h20.8s3-64.35,2.59-70.16l7,70.16h59.49l6.17-70.9s4.61,55,4.61,70.9h21.21a258.7,258.7,0,0,1-1-61.79c3.64-32.74-7-33.62-27.28-43.34S109.42,39.75,109.42,26.5Z"/><path class="cls-1" d="M156.25,159.5h-21.7V159c0-12.62-3-50.39-4.13-65l-5.7,65.49H64.33l-6.2-61.67c-.52,18.76-2.41,59.09-2.5,61.2l0,.47H33.74l.11-.58c2.58-13.75,1-50.75-.89-71.42-1.8-19.72,5.47-25.74,29.73-34.95C85.21,44,81.29,27.32,81.12,26.62L81,26h29v.5c0,1,0,2,0,2.93-.12,11-.16,15.18,18.29,24,2.09,1,4.08,1.91,6,2.77,16.58,7.56,24.9,11.35,21.6,41.08a260.12,260.12,0,0,0,1,61.65l.09.57Zm-20.71-1h20.13a262.89,262.89,0,0,1-.91-61.34c3.23-29-4.88-32.71-21-40.07-1.88-.86-3.87-1.77-6-2.77-19-9.1-19-13.73-18.85-24.91,0-.77,0-1.58,0-2.43H82.2C82.72,30.25,84,45.53,63,53.47,39.32,62.48,32.21,68.34,34,87.41c1.86,20.44,3.42,56.82,1,71.1H54.66c.27-5.88,3-64.17,2.57-69.62l1-.09,7,69.71h58.59l6.13-70.44h1C131,88.62,135.45,142.15,135.54,158.51Z"/><path class="cls-2" d="M84.2,67.64q0,4-.13,8c-.08,2.65-.23,5.3-.49,8a35.42,35.42,0,0,1-1.45,7.9,14.08,14.08,0,0,1-4.51,6.67l.07-.09a3.16,3.16,0,0,1-.52.52l-.5.4-1,.8c-.68.52-1.36,1-2.06,1.53l1.85-1.77.92-.89.45-.45.37-.39.06-.08h0a14.26,14.26,0,0,0,3.93-6.54,42.88,42.88,0,0,0,1.35-7.71l.79-7.89C83.57,72.9,83.83,70.27,84.2,67.64Z"/><path class="cls-2" d="M105.25,67.64c.37,2.63.63,5.26.87,7.9l.79,7.89a42.88,42.88,0,0,0,1.35,7.71,14.26,14.26,0,0,0,3.93,6.54h0l.05.08.37.39.45.45.92.89,1.85,1.77c-.7-.5-1.38-1-2-1.53l-1-.8-.51-.4a3.6,3.6,0,0,1-.52-.52l.07.09a14.08,14.08,0,0,1-4.51-6.67,35.42,35.42,0,0,1-1.45-7.9c-.26-2.65-.41-5.3-.48-8S105.25,70.29,105.25,67.64Z"/><path class="cls-3" d="M70.68,48.28a21.59,21.59,0,0,0-2,1.33c-.75.4-1,.91-.44,1.53l50.76,56.77,4.43-1-51-58.5A1.43,1.43,0,0,0,70.68,48.28Z"/><path class="cls-4" d="M119.05,108.9a1,1,0,0,1-.74-.33L67.55,51.8A1.82,1.82,0,0,1,67,50.22a2.1,2.1,0,0,1,1.18-1.44,17.42,17.42,0,0,1,2.07-1.4h0a2.31,2.31,0,0,1,2.95.37l51,58.51a1,1,0,0,1,.19,1,1,1,0,0,1-.72.66l-4.43,1A.86.86,0,0,1,119.05,108.9Zm-50-58.35,50.31,56.27,2.24-.51L71.72,49.06c-.08-.1-.43,0-.62.12h0a18.91,18.91,0,0,0-1.78,1.23.57.57,0,0,1-.13.08Zm1.59-2.27h0Z"/><path class="cls-3" d="M120.44,48.61c1.42.15,4.06,2.07,2.62,3.64-7.5,8.16-55.66,57.37-55.66,57.37l-3.73-3.16,54.92-57.1A2.13,2.13,0,0,1,120.44,48.61Z"/><path class="cls-4" d="M67.4,110.62a1,1,0,0,1-.64-.24L63,107.22a1,1,0,0,1-.35-.71.94.94,0,0,1,.27-.73l54.93-57.11a3.1,3.1,0,0,1,2.67-1.05,5.08,5.08,0,0,1,3.76,2.77,2.38,2.38,0,0,1-.52,2.53c-7.43,8.08-55.2,56.9-55.68,57.4A1,1,0,0,1,67.4,110.62Zm-2.29-4.23,2.22,1.88c5.76-5.89,48.06-49.15,55-56.69a.41.41,0,0,0,.12-.49,3.17,3.17,0,0,0-2.12-1.5h0a1.18,1.18,0,0,0-1,.46Z"/><path class="cls-3" d="M54.46,87.21s10.75,50.6,4.29,71.8h71.54s-3.81-42,2.25-71.8l-7,3.11a78.49,78.49,0,0,1-64.16,0Z"/><path class="cls-4" d="M130.29,160H58.75a1,1,0,0,1-.8-.4,1,1,0,0,1-.15-.88c6.31-20.71-4.2-70.8-4.31-71.31a1,1,0,0,1,1.38-1.11l7,3.12a77.59,77.59,0,0,0,63.34,0l7-3.12a1,1,0,0,1,1,.13,1,1,0,0,1,.35,1c-6,29.3-2.27,71.1-2.23,71.52a1,1,0,0,1-.25.76A1,1,0,0,1,130.29,160Zm-70.23-2h69.16c-.53-6.64-3-42.38,2-69.13L126,91.23a79.58,79.58,0,0,1-65,0l-5.2-2.33C56.63,93,58.57,103.29,60,115,62.41,134.53,62.42,149,60.06,158Z"/></svg>