<svg id="图层_1" data-name="图层 1" xmlns="http://www.w3.org/2000/svg" viewBox="0 0 186 186"><defs><style>.cls-1{fill:#f5e3ea;}.cls-2{fill:#e2c9d2;}.cls-3{fill:#fff;}.cls-4{fill:#5b3b2f;}</style></defs><path class="cls-1" d="M79.86,26.5S84.35,44.15,61.17,53,30,67.55,31.82,87.32s3.53,57.29.89,71.4H53.45s3-64.21,2.59-70l5.44,54.08a17.7,17.7,0,0,0,17.61,15.93h27.12a17.69,17.69,0,0,0,17.63-16.17L128.59,88s4.6,54.87,4.6,70.74h21.16a258.17,258.17,0,0,1-1-61.65c3.63-32.67-6.94-33.55-27.22-43.25s-18.51-14.1-18.51-27.32Z"/><path class="cls-1" d="M154.93,159.21H132.7v-.49c0-12.6-2.94-50.29-4.12-64.86l-4.24,48.73a18.1,18.1,0,0,1-18.13,16.62H79.09A18.13,18.13,0,0,1,61,142.83L56.45,97.68c-.52,18.72-2.4,58.95-2.5,61.06l0,.47H32.11l.11-.58c2.57-13.73,1-50.64-.89-71.27C29.54,67.69,36.79,61.68,61,52.49,83.47,44,79.56,27.32,79.38,26.62L79.23,26h28.9v.5c0,1,0,2,0,2.93-.12,11-.16,15.14,18.26,23.94,2.08,1,4.06,1.91,5.94,2.76,16.54,7.54,24.85,11.33,21.55,41a259.62,259.62,0,0,0,1,61.52Zm-21.24-1h20.08a262.62,262.62,0,0,1-.9-61.21c3.22-28.95-4.87-32.63-21-40-1.88-.86-3.87-1.76-6-2.76-19-9.08-18.94-13.7-18.82-24.86,0-.77,0-1.58,0-2.42H80.46c.53,3.25,1.76,18.5-19.11,26.42-23.67,9-30.77,14.84-29,33.86,1.86,20.4,3.42,56.7,1,71H53c.28-5.87,3-64,2.57-69.47l1-.09L62,142.74a17.16,17.16,0,0,0,17.12,15.48h27.12a17.11,17.11,0,0,0,17.14-15.71l4.75-54.57h1C129.13,88.48,133.6,141.9,133.69,158.22Z"/><path class="cls-2" d="M82.46,67.54c0,2.65,0,5.3-.13,7.94s-.23,5.29-.49,7.93a35.7,35.7,0,0,1-1.44,7.88A14.06,14.06,0,0,1,75.9,98l.07-.09a2.81,2.81,0,0,1-.53.52l-.5.4-1,.79c-.68.53-1.36,1-2,1.54l1.84-1.77.92-.89L75.1,98l.37-.39,0-.08h0A14.18,14.18,0,0,0,79.46,91a42.51,42.51,0,0,0,1.35-7.69l.78-7.87C81.83,72.8,82.09,70.17,82.46,67.54Z"/><path class="cls-2" d="M103.47,67.54c.36,2.63.62,5.26.87,7.89l.78,7.87A42.51,42.51,0,0,0,106.47,91a14.25,14.25,0,0,0,3.92,6.53h0l0,.08.37.39.45.45.91.89,1.85,1.77c-.69-.5-1.37-1-2.05-1.54l-1-.79-.5-.4a2.8,2.8,0,0,1-.52-.52L110,98a14.06,14.06,0,0,1-4.5-6.66,35.7,35.7,0,0,1-1.44-7.88c-.26-2.64-.41-5.29-.49-7.93S103.47,70.19,103.47,67.54Z"/><path class="cls-3" d="M53.32,55.53v-.06c-3,2.17-4.63,2.62-4.63,6.5,0,14.67-.26,29.47,1.7,44,2.26,16.79,8.36,32.78,10.78,49.42a2.19,2.19,0,0,0,.45,1.23,2.12,2.12,0,0,0,1.28.48,217.52,217.52,0,0,0,55.56.17,3.52,3.52,0,0,0,3.76-3,274.4,274.4,0,0,0,12.63-81.07L135,61.78a6.19,6.19,0,0,0-.34-2.61c-.81-1.88-3.13-2.48-5.15-2.85C128.43,77,93,128.72,93,128.72S54.45,71.83,53.32,55.53Z"/><path class="cls-4" d="M91.33,160a218.36,218.36,0,0,1-28.56-1.88,2.54,2.54,0,0,1-2.59-2.55,225.69,225.69,0,0,0-5.27-23.91,222.79,222.79,0,0,1-5.51-25.52c-1.76-13.08-1.74-26.5-1.71-39.48V62c0-3.83,1.61-4.93,3.83-6.45l1.21-.85a1,1,0,0,1,1-.09,1,1,0,0,1,.56.84l-.94.11h0l1-.07C55.31,70,87.4,118.61,93,127c5.31-7.9,34.58-52.22,35.51-70.68a1,1,0,0,1,.38-.73,1,1,0,0,1,.79-.2c1.55.29,4.77.88,5.88,3.44a7.08,7.08,0,0,1,.42,3l-.12,11.43a276.77,276.77,0,0,1-12.68,81.36,5.53,5.53,0,0,1-1.34,2.51,5.63,5.63,0,0,1-3.24,1.2A217.62,217.62,0,0,1,91.33,160ZM52.53,57.22c-2.07,1.43-2.86,2-2.86,4.75v4.69c0,12.92-.05,26.27,1.69,39.22,1.15,8.55,3.35,17.06,5.47,25.28a229.57,229.57,0,0,1,5.31,24.13,2,2,0,0,0,.18.68,1.8,1.8,0,0,0,.7.19,216,216,0,0,0,55.31.16,3.9,3.9,0,0,0,2.13-.67,4,4,0,0,0,.8-1.66A274.94,274.94,0,0,0,133.85,73.2L134,61.76a5.56,5.56,0,0,0-.25-2.19c-.5-1.14-1.83-1.69-3.35-2-.9,8.88-7.18,23.43-18.69,43.27-8.91,15.36-17.81,28.36-17.9,28.49a1,1,0,0,1-.82.43h0a1,1,0,0,1-.82-.44C90.61,127,55.71,75.31,52.53,57.22Z"/></svg>