<svg id="图层_1" data-name="图层 1" xmlns="http://www.w3.org/2000/svg" viewBox="0 0 186 186"><defs><style>.cls-1{fill:#5b3b2f;}.cls-2{fill:#9b9692;}.cls-3{fill:#e4cbd4;}.cls-4{fill:#f2f2f2;}</style></defs><path class="cls-1" d="M55.54,74.58a5.69,5.69,0,0,1,3.23,3.22,12.84,12.84,0,0,1,.92,4.57,33.3,33.3,0,0,1-1.2,9.12,40.1,40.1,0,0,0-1.79,8.88,11.6,11.6,0,0,0,2.68,8.34,14.74,14.74,0,0,0,7.52,4.49,21.73,21.73,0,0,0,8.83.37,16.2,16.2,0,0,0,8-3.5,12.12,12.12,0,0,0,3.94-7.8h.1a11.75,11.75,0,0,1-3.51,8.36,16.24,16.24,0,0,1-8.36,4,21.15,21.15,0,0,1-9.26-.53,14.45,14.45,0,0,1-7.69-5,12.25,12.25,0,0,1-2.07-4.13,16.07,16.07,0,0,1-.54-4.57,47.51,47.51,0,0,1,1.34-9.06,43,43,0,0,0,1.23-8.92A12.92,12.92,0,0,0,58.28,78a5.72,5.72,0,0,0-2.78-3.33Z"/><path class="cls-1" d="M128,74.66A12,12,0,0,0,125.22,83a48.13,48.13,0,0,0,1.66,8.86,35.66,35.66,0,0,1,1.19,9.09,14.73,14.73,0,0,1-3.22,8.51,15.07,15.07,0,0,1-7.83,4.84,22.08,22.08,0,0,1-9.26.42,16.74,16.74,0,0,1-8.36-4,10.57,10.57,0,0,1-2.64-3.84,9.76,9.76,0,0,1-.57-4.56h.1a9.92,9.92,0,0,0,.93,4.35,10.4,10.4,0,0,0,2.71,3.46,16.73,16.73,0,0,0,8,3.52,22.49,22.49,0,0,0,8.84-.27,15.34,15.34,0,0,0,7.65-4.29,11.54,11.54,0,0,0,2.38-3.77,13,13,0,0,0,.92-4.39c0-3-.85-6-1.66-8.87A36.73,36.73,0,0,1,124.45,83q0-.58.06-1.17a6.47,6.47,0,0,1,.15-1.15l.25-1.15c.1-.37.26-.73.39-1.1a9.65,9.65,0,0,1,1.1-2,17.86,17.86,0,0,1,1.49-1.75Z"/><path class="cls-2" d="M102.75,58.79a9.33,9.33,0,0,1,6.33-3.66,17.59,17.59,0,0,1,7.49.52c2.45.75,4.61,2,6.91,2.71a6.35,6.35,0,0,0,3.35.21,4.58,4.58,0,0,0,2.51-1.91h0a.75.75,0,0,1,1.23.87l0,0a6,6,0,0,1-3.42,2.31,7.41,7.41,0,0,1-4-.42c-2.43-.85-4.53-2.25-6.8-3.06a17.11,17.11,0,0,0-7.21-.87A9.12,9.12,0,0,0,102.75,58.79Z"/><path class="cls-3" d="M80.29,59.32A15.37,15.37,0,0,0,66.14,56.4c-2.35.75-4.51,2.16-7,3.08a10.71,10.71,0,0,1-3.94.82,6,6,0,0,1-3.93-1.49h0a.75.75,0,1,1,1-1.13l0,0a4.6,4.6,0,0,0,3,1.3,9.59,9.59,0,0,0,3.5-.57c2.36-.75,4.58-2.06,7.12-2.74A15.73,15.73,0,0,1,80.29,59.32Z"/><path class="cls-2" d="M92.73,58.79a2.77,2.77,0,0,1-.39,1.65A2.81,2.81,0,0,1,91,61.63a2.78,2.78,0,0,1-1.8,0,4,4,0,0,1-.79-.34,4.3,4.3,0,0,1-.65-.55c.29,0,.55.05.81.08s.51.05.75,0a3.52,3.52,0,0,0,1.32-.21A5.37,5.37,0,0,0,92.73,58.79Z"/><path class="cls-2" d="M86.23,41.27l.56,5.06c.09.84.21,1.67.35,2.5a15.29,15.29,0,0,0,.59,2.47,8.52,8.52,0,0,1-1-2.38,18.17,18.17,0,0,1-.47-2.53c-.09-.85-.16-1.71-.17-2.56A19.86,19.86,0,0,1,86.23,41.27Z"/><path class="cls-2" d="M96.24,39.26a46.1,46.1,0,0,1-1.09,5.62c-.24.93-.49,1.85-.8,2.75a14,14,0,0,1-1.11,2.65c.29-.91.51-1.83.74-2.75l.69-2.77C95.15,42.92,95.63,41.08,96.24,39.26Z"/><path class="cls-2" d="M82.93,26.65c5-.57,10-.73,15-.8.62,0,1.24,0,1.87,0h1.52l.2.05a1.07,1.07,0,0,1,.54.42,1.67,1.67,0,0,1,.21.38,7.6,7.6,0,0,1,.38,2.05c.05.65.07,1.28.08,1.92a12,12,0,0,0,1.86,6.9,18.08,18.08,0,0,0,5.29,5c1,.68,2.09,1.31,3.17,1.92s2.16,1.23,3.26,1.73a25,25,0,0,0,3.37,1.27c.57.16,1.15.29,1.73.4a5.78,5.78,0,0,0,1.69.13c1.11-.09,2.29-.24,3.58-.25a7.39,7.39,0,0,1,3.86.82l-.05.19a34.73,34.73,0,0,0-3.58.81,10.54,10.54,0,0,1-3.86.45,19.3,19.3,0,0,1-7.43-2.5c-1.12-.64-2.14-1.39-3.17-2.1s-2.05-1.44-3-2.22A25.08,25.08,0,0,1,104,38a14.76,14.76,0,0,1-2.65-7.17c-.08-.6-.18-1.21-.29-1.8a8,8,0,0,0-.42-1.59s0-.07,0,0l.11.11a.74.74,0,0,0,.18.09.58.58,0,0,0,.14,0h.06l-.47,0h-.93c-.63,0-1.25,0-1.87,0a146.94,146.94,0,0,1-14.95-.79Z"/><path class="cls-2" d="M101,26.85c-4.8.5-9.61.68-14.41.76l-1.8,0H83.47c-.13,0,.17,0,.22,0a.55.55,0,0,0,.16-.1l0,0a7.34,7.34,0,0,0-.5,1.42c-.16.56-.29,1.13-.42,1.7-.27,1.16-.51,2.32-.76,3.5a10,10,0,0,1-1.41,3.51,20.15,20.15,0,0,1-5.23,5.11c-2,1.38-3.82,2.9-5.8,4.35A19.38,19.38,0,0,1,66.54,49a11.65,11.65,0,0,1-3.71,1.16A11.9,11.9,0,0,1,59,49.82a32,32,0,0,1-3.51-1v-.2a16.61,16.61,0,0,1,3.67-.39c1.19,0,2.32-.06,3.4-.18a11.09,11.09,0,0,0,3.21-.71c1.06-.42,2.11-.93,3.16-1.47s2.09-1.13,3.13-1.74,2.08-1.22,3.06-1.89a14,14,0,0,0,4.86-5,8.77,8.77,0,0,0,.9-3.27c.1-1.2.23-2.4.4-3.61.1-.61.21-1.21.34-1.82.07-.31.15-.62.25-.93a4.59,4.59,0,0,1,.45-1,2,2,0,0,1,.3-.36,1.52,1.52,0,0,1,.35-.22,1.31,1.31,0,0,1,.45-.08h1.35l1.8,0c4.8.09,9.61.27,14.41.77Z"/><path class="cls-2" d="M43.29,71.61a141,141,0,0,0,5.23,20.33c2.19,6.65,4.68,13.2,6.93,19.89a124.12,124.12,0,0,1,5.29,20.52,91.14,91.14,0,0,1,1,10.55c.06,1.77,0,3.53,0,5.3a28.78,28.78,0,0,1-.66,5.24A50.29,50.29,0,0,0,60.85,143c-.36-3.48-.89-6.94-1.54-10.37a162.25,162.25,0,0,0-5.74-20.13l-3.42-10C49,99.16,48,95.81,47,92.41A92.1,92.1,0,0,1,43.29,71.61Z"/><path class="cls-2" d="M142,67.81c0,1.79-.07,3.59-.16,5.39s-.41,3.57-.65,5.35-.68,3.53-1.05,5.29-.9,3.48-1.42,5.2l-1.78,5.07c-.64,1.68-1.28,3.35-1.85,5-1.2,3.37-2.21,6.79-3.19,10.23-.48,1.72-.93,3.45-1.45,5.15s-1,3.44-1.47,5.14l-1.4,5.14c-.42,1.72-.87,3.44-1.31,5.15a133.88,133.88,0,0,0-3.69,20.95h-.2a69.73,69.73,0,0,1,1.81-21.44c.45-1.74.88-3.49,1.38-5.22l1.61-5.13c1.12-3.41,2.36-6.77,3.68-10.09s2.56-6.67,3.61-10.08,1.81-6.91,2.65-10.36c.39-1.73.82-3.46,1.29-5.17s.81-3.45,1.25-5.17.72-3.47,1.13-5.2.63-3.5,1-5.26Z"/><path class="cls-4" d="M45.62,85.55c-1-6.34-2.91-12.67-3-19.16-.11-7.1,1.89-16.86,10.11-18.31,7.82-1.38,13.52,4,19.77,7.74a57.65,57.65,0,0,0,13.08,5.9c13,3.94,29.83,3.87,33,2,.74-.44.28-3.86.3-4.59a51.78,51.78,0,0,1,.44-6c.7-5,5.27-5.48,9.28-5.48,11,0,17,12,14,26-1,4.72-2.49,9.36-3.86,14s-5.56,6.86-8.62,10.18c-2.1,2.29-2.7,5.41-4.17,8.06-1.63,3-4.28,5.19-5.81,8.24-3.36,6.69-5.08,14.58-3.24,22,1.88,7.63,6.4,14.32,11,20.55.3.41.65.8.94,1.22a.52.52,0,0,1-.42.82H57.21a.52.52,0,0,1-.45-.78c4.79-8.39,9.93-17.51,10.78-27.26.43-5,0-10.3-2.2-14.88s-6.92-7-8.38-11.82c-.75-2.46-.64-3.44-2.51-5.07A42.68,42.68,0,0,1,50,95.19,18.91,18.91,0,0,1,45.62,85.55Z"/><path class="cls-2" d="M130.76,159.85H54.6l1.1-1.94c4.92-8.62,10-17.52,10.84-27.19.49-5.65-.21-10.48-2.1-14.35a20.83,20.83,0,0,0-3.75-4.93c-1.88-2-3.82-4.13-4.69-7-.16-.51-.28-1-.38-1.36a5,5,0,0,0-1.83-3.24c-.49-.42-1-.82-1.49-1.22a22,22,0,0,1-3-2.73,19.81,19.81,0,0,1-4.63-10.14h0c-.32-2-.74-4-1.15-6A72.61,72.61,0,0,1,41.6,66.4c-.06-4.06.53-17.47,10.93-19.3,6.72-1.19,11.92,2.26,17,5.6,1.15.76,2.33,1.55,3.51,2.26a56.67,56.67,0,0,0,12.86,5.8c12.69,3.84,28.77,3.8,32.09,2.18a13.86,13.86,0,0,0,0-2.88c0-.42,0-.76,0-1a51.89,51.89,0,0,1,.45-6.07c.89-6.34,7.46-6.34,10.27-6.34a14,14,0,0,1,11.25,5.4c4.17,5.16,5.57,13.32,3.74,21.85-.83,3.89-2,7.77-3.11,11.52L139.74,88c-1,3.5-3.54,5.72-6,7.87-1,.86-2,1.76-2.86,2.71a15.13,15.13,0,0,0-2.61,4.74,27.29,27.29,0,0,1-1.43,3.13,27.88,27.88,0,0,1-2.86,4,23.65,23.65,0,0,0-2.93,4.19c-3.64,7.26-4.76,14.83-3.16,21.34,1.91,7.71,6.6,14.47,10.85,20.2l.38.48a6.57,6.57,0,0,1,1.14,1.81Zm-72.72-2h69.45l-.34-.44c-4.36-5.89-9.19-12.84-11.18-20.91-1.72-7-.55-15,3.31-22.71a25.82,25.82,0,0,1,3.16-4.56,26.32,26.32,0,0,0,2.67-3.72,26.93,26.93,0,0,0,1.33-2.92,17,17,0,0,1,3-5.34,40.32,40.32,0,0,1,3-2.85c2.32-2.05,4.51-4,5.38-6.94l.76-2.56c1.11-3.72,2.26-7.56,3.08-11.37,1.7-7.94.45-15.48-3.34-20.17a12.12,12.12,0,0,0-9.7-4.66c-4.58,0-7.75.79-8.29,4.62a52.49,52.49,0,0,0-.43,5.84c0,.15,0,.43,0,.77.16,2.35.2,4.06-.84,4.66-3.55,2.06-20.83,2-33.83-1.91a58.52,58.52,0,0,1-13.31-6c-1.22-.73-2.42-1.53-3.59-2.3-4.91-3.27-9.56-6.35-15.49-5.3-8.84,1.56-9.33,13.64-9.27,17.3a70.44,70.44,0,0,0,1.83,12.92c.41,2,.84,4.06,1.17,6.1a17.86,17.86,0,0,0,4.15,9.14A20.07,20.07,0,0,0,53.54,97c.53.42,1.05.83,1.56,1.28a7,7,0,0,1,2.45,4.23c.11.39.22.81.36,1.3.75,2.47,2.45,4.31,4.25,6.26a23,23,0,0,1,4.08,5.41c2.05,4.21,2.82,9.39,2.3,15.41C67.69,140.58,62.67,149.71,58,157.85Z"/></svg>