<svg id="图层_1" data-name="图层 1" xmlns="http://www.w3.org/2000/svg" viewBox="0 0 186 186"><defs><style>.cls-1{fill:#9b9692;}.cls-2{fill:#e4cbd4;}.cls-3{fill:#f2f2f2;}</style></defs><path class="cls-1" d="M102.59,58.3a9.17,9.17,0,0,1,6.23-3.6,17.44,17.44,0,0,1,7.39.51c2.41.74,4.54,2,6.81,2.67a6.13,6.13,0,0,0,3.29.21,4.49,4.49,0,0,0,2.47-1.88h0a.73.73,0,0,1,1-.18.75.75,0,0,1,.18,1l0,0a5.89,5.89,0,0,1-3.38,2.28,7.36,7.36,0,0,1-3.92-.41c-2.4-.84-4.46-2.22-6.7-3a16.8,16.8,0,0,0-7.11-.86A9,9,0,0,0,102.59,58.3Z"/><path class="cls-1" d="M80.46,58.83A15.13,15.13,0,0,0,66.51,56c-2.31.73-4.43,2.13-6.84,3a10.39,10.39,0,0,1-3.88.81,5.92,5.92,0,0,1-3.87-1.47h0a.74.74,0,0,1,1-1.11l0,0a4.5,4.5,0,0,0,2.94,1.28,9.56,9.56,0,0,0,3.45-.56c2.32-.74,4.51-2,7-2.7A15.5,15.5,0,0,1,80.46,58.83Z"/><path class="cls-2" d="M92.72,58.3A2.83,2.83,0,0,1,91,61.1a2.72,2.72,0,0,1-1.78,0,3.54,3.54,0,0,1-.77-.34,4.1,4.1,0,0,1-.64-.53,6.62,6.62,0,0,1,.8.07c.26,0,.5,0,.74,0a3.36,3.36,0,0,0,1.29-.21A5.17,5.17,0,0,0,92.72,58.3Z"/><path class="cls-1" d="M86.31,41l.55,5c.09.82.21,1.65.35,2.46a14.56,14.56,0,0,0,.58,2.43,8.25,8.25,0,0,1-1-2.34,17.73,17.73,0,0,1-.46-2.5,23.35,23.35,0,0,1-.16-2.52A19.31,19.31,0,0,1,86.31,41Z"/><path class="cls-1" d="M96.17,39.07A43.19,43.19,0,0,1,95.1,44.6c-.24.91-.48,1.82-.79,2.71a13.26,13.26,0,0,1-1.1,2.61c.3-.9.51-1.81.74-2.71l.68-2.73C95.1,42.67,95.57,40.86,96.17,39.07Z"/><path class="cls-1" d="M83.06,26.64c3.4-.38,6.79-.59,10.18-.69,1.7-.07,3.4-.07,5.1-.1.84,0,1.69,0,2.54,0h.2l.13,0a1.05,1.05,0,0,1,.25.08,1.3,1.3,0,0,1,.29.2,1.74,1.74,0,0,1,.35.56,4.84,4.84,0,0,1,.21.75,13.17,13.17,0,0,1,.16,1.34c.06.86.07,1.77.08,2.58a13.25,13.25,0,0,0,.31,2.42A11.41,11.41,0,0,0,105,38.26c2,2.68,5,4.47,7.89,6.13a31.86,31.86,0,0,0,4.46,2.21A18.51,18.51,0,0,0,122,47.81a24,24,0,0,0,4.85-.47,10.32,10.32,0,0,1,2.78,0,12.25,12.25,0,0,1,2.69.74,16.63,16.63,0,0,1,7.87,7.07,14.42,14.42,0,0,1,1.92,10.09l-.19,0A15.55,15.55,0,0,0,138.85,56,16.38,16.38,0,0,0,131.53,50a8.68,8.68,0,0,0-4.5-.64,24.69,24.69,0,0,1-5.26.26,21,21,0,0,1-9.51-4.31,35.42,35.42,0,0,1-7.77-6.69A15.85,15.85,0,0,1,102,34.09a14.91,14.91,0,0,1-.61-2.58c-.1-.88-.21-1.66-.37-2.48-.07-.41-.17-.8-.27-1.17a2.61,2.61,0,0,0-.15-.47c0-.05-.07-.08,0,0a.47.47,0,0,0,.16.11.56.56,0,0,0,.17.06h-.06c-.85,0-1.7,0-2.54,0-1.7,0-3.39,0-5.08-.1-3.39-.1-6.77-.31-10.17-.69Z"/><path class="cls-1" d="M100.89,26.83c-3.43.35-6.86.55-10.3.67-1.71.05-3.43.09-5.15.11H83.57l.15,0c.33-.11.27-.18.28-.15a1.13,1.13,0,0,0-.09.15,16.69,16.69,0,0,0-.68,2.27l-.56,2.48c-.2.85-.32,1.64-.56,2.56a11.36,11.36,0,0,1-2.77,4.55,30.14,30.14,0,0,1-4,3.34c-1.43,1-2.75,2.05-4.13,3.11a21.92,21.92,0,0,1-4.49,2.81,12.28,12.28,0,0,1-5.41,1.06c-1.82,0-3.51-.3-5.15-.39a10.65,10.65,0,0,0-4.58.68c-2.86,1.15-4.81,4-5.85,7.12a23.53,23.53,0,0,0-1.15,4.89,37.42,37.42,0,0,0-.38,5.09l-.2,0a26.5,26.5,0,0,1,.35-10.41,15.14,15.14,0,0,1,2.17-5,10.16,10.16,0,0,1,4.26-3.62,11.51,11.51,0,0,1,5.49-.92c1.79.08,3.49.4,5.11.49A10.5,10.5,0,0,0,66,47a39.47,39.47,0,0,0,4.51-2.16c3-1.7,6.08-3.34,8.33-5.86A9.07,9.07,0,0,0,81,34.64c.21-1.6.32-3.4.63-5.11a11.25,11.25,0,0,1,.71-2.68,3,3,0,0,1,.23-.41,1.34,1.34,0,0,1,.76-.56,1.66,1.66,0,0,1,.22,0h.63l1.28,0c1.72,0,3.44.05,5.15.11,3.44.11,6.87.31,10.3.66Z"/><path class="cls-1" d="M44,70.93a139.61,139.61,0,0,0,5.16,20c2.15,6.55,4.61,13,6.83,19.59a122.62,122.62,0,0,1,5.21,20.21,88.56,88.56,0,0,1,1,10.4c.06,1.74,0,3.48,0,5.22a28.9,28.9,0,0,1-.65,5.17,49.52,49.52,0,0,0-.17-10.33c-.35-3.43-.88-6.84-1.52-10.21a159.81,159.81,0,0,0-5.66-19.84l-3.37-9.81c-1.09-3.29-2.17-6.59-3.11-9.94A92.36,92.36,0,0,1,44,70.93Z"/><path class="cls-1" d="M141.26,67.19c0,1.76-.07,3.54-.16,5.31s-.4,3.52-.64,5.27-.67,3.48-1,5.22-.88,3.42-1.39,5.11l-1.76,5c-.63,1.64-1.25,3.29-1.82,5-1.18,3.32-2.18,6.69-3.14,10.08-.48,1.69-.92,3.39-1.43,5.07s-.94,3.38-1.45,5.06l-1.38,5.07c-.41,1.7-.85,3.38-1.29,5.07a131.29,131.29,0,0,0-3.63,20.64h-.2a68.3,68.3,0,0,1,1.78-21.12c.45-1.72.87-3.44,1.36-5.14l1.58-5.06c1.11-3.35,2.33-6.66,3.63-9.94s2.53-6.57,3.56-9.93,1.78-6.81,2.61-10.21c.39-1.7.81-3.4,1.28-5.09s.79-3.39,1.23-5.09.7-3.42,1.1-5.13.62-3.44,1-5.18Z"/><path class="cls-3" d="M127.44,96.27a14.78,14.78,0,0,1-.64,6.16,40,40,0,0,1-5,9.27,30.82,30.82,0,0,0-4.21,8.43c-2.89,7.8-2,16.58,1.54,24A54.1,54.1,0,0,0,126,154.88c.32.39,1.83,2.07,2.78,3.11a.52.52,0,0,1-.39.87H61.25c-.83,0-2.26,0-3.19-.05a.52.52,0,0,1-.43-.78c1.61-2.67,6.9-11.7,8.58-17.42,1.88-6.4,2.43-13.32.49-19.78-2.68-8.94-10.3-16.14-8.65-26,.62-3.73,1.91-7.37,2.11-11.15.29-5.52-1.77-10.8-4.26-15.62-2.39-4.62-4.91-9.37-8.52-13.16a1.07,1.07,0,0,1-.21-1.21c.54-1.09,1.64-3.08,2.87-2.47,2,1,3.83,2.32,5.92,3.19a45,45,0,0,0,6.79,2.16c13.55,3.22,28.09,3.15,41.84,1.38a193.85,193.85,0,0,0,30.95-6.82c.72-.21,1-.42,1.52.16a5.08,5.08,0,0,1,1,1.58c.5,1.22-1.32,2.83-2,3.64a38.2,38.2,0,0,0-2.65,4,110.29,110.29,0,0,0-5.33,9.86c-1.89,4-3.64,8.24-3.39,12.64C125,87.73,127,91.84,127.44,96.27Z"/><path class="cls-1" d="M128.36,159.85H61.25c-.83,0-2.27,0-3.2,0a1.51,1.51,0,0,1-1.27-2.29c1.57-2.62,6.83-11.58,8.48-17.19,2-6.9,2.19-13.55.49-19.22a50.07,50.07,0,0,0-4-8.84c-2.85-5.36-5.8-10.91-4.68-17.64.24-1.44.58-2.88.91-4.28a37.82,37.82,0,0,0,1.19-6.75c.3-5.7-2.06-11.07-4.16-15.11s-4.7-9.1-8.35-12.94a2,2,0,0,1-.38-2.32c.85-1.75,1.69-2.71,2.63-3a2,2,0,0,1,1.58.1c.86.43,1.69.92,2.48,1.39a28.66,28.66,0,0,0,3.37,1.77A42.82,42.82,0,0,0,63,55.57c12.14,2.89,26.1,3.34,41.48,1.36a190.46,190.46,0,0,0,30.8-6.78l.25-.08a1.89,1.89,0,0,1,2.26.5,6.37,6.37,0,0,1,1.2,1.89c.64,1.57-.75,3.11-1.66,4.13-.17.19-.32.36-.43.5A37,37,0,0,0,134.3,61,109.12,109.12,0,0,0,129,70.75c-1.73,3.62-3.54,7.85-3.3,12.15a34.43,34.43,0,0,0,1.39,7,38.71,38.71,0,0,1,1.32,6.23h0a15.65,15.65,0,0,1-.69,6.57,40.84,40.84,0,0,1-5.08,9.51,29.65,29.65,0,0,0-4.11,8.23c-2.64,7.13-2.09,15.6,1.51,23.24a52.93,52.93,0,0,0,6.68,10.53c.23.28,1.28,1.46,2.74,3.08a1.51,1.51,0,0,1-1.12,2.52Zm-69.46-2,2.35,0h66c-.8-.89-1.82-2-2.09-2.36a54.37,54.37,0,0,1-6.93-10.93c-3.84-8.12-4.41-17.15-1.58-24.78a31.91,31.91,0,0,1,4.31-8.64,38.45,38.45,0,0,0,4.85-9,13.6,13.6,0,0,0,.6-5.75h0a35.47,35.47,0,0,0-1.26-5.91A35.66,35.66,0,0,1,123.74,83c-.27-4.78,1.65-9.28,3.48-13.12,1.56-3.28,3.37-6.63,5.38-10a40.85,40.85,0,0,1,2.71-4.09c.14-.17.32-.37.52-.59.36-.41,1.47-1.64,1.3-2.06a4.18,4.18,0,0,0-.79-1.26l0-.05-.17.06-.3.1a194.12,194.12,0,0,1-31.12,6.84c-15.61,2-29.81,1.54-42.19-1.4a43.86,43.86,0,0,1-6.94-2.21A28.62,28.62,0,0,1,52,53.4c-.77-.45-1.57-.92-2.37-1.32,0,0-.6.1-1.53,2,3.87,4.12,6.55,9.31,8.71,13.47s4.69,10,4.37,16.14a40.53,40.53,0,0,1-1.23,7.1c-.33,1.36-.66,2.77-.89,4.15C58,101,60.68,106,63.5,111.33a51.64,51.64,0,0,1,4.15,9.21c1.82,6,1.65,13.08-.49,20.35C65.58,146.29,60.87,154.52,58.9,157.84Z"/></svg>