<svg id="图层_1" data-name="图层 1" xmlns="http://www.w3.org/2000/svg" viewBox="0 0 186 186"><defs><style>.cls-1{fill:#9b9692;}.cls-2{fill:#fefefe;}.cls-3{fill:#f2f2f2;}</style></defs><path class="cls-1" d="M102.45,57.83a9,9,0,0,1,6.14-3.55,17.09,17.09,0,0,1,7.28.5c2.37.73,4.48,2,6.71,2.63a6.07,6.07,0,0,0,3.25.21,4.45,4.45,0,0,0,2.43-1.86h0a.73.73,0,0,1,1.19.83l0,0a5.77,5.77,0,0,1-3.33,2.24,7.24,7.24,0,0,1-3.86-.4c-2.37-.83-4.4-2.19-6.6-3a16.49,16.49,0,0,0-7-.84A8.84,8.84,0,0,0,102.45,57.83Z"/><path class="cls-1" d="M80.64,58.35A14.91,14.91,0,0,0,66.9,55.51c-2.28.73-4.37,2.1-6.74,3a10.56,10.56,0,0,1-3.82.8,5.81,5.81,0,0,1-3.82-1.45h0a.73.73,0,1,1,1-1.09l0,0A4.53,4.53,0,0,0,56.39,58a9.51,9.51,0,0,0,3.4-.56c2.29-.72,4.44-2,6.91-2.66A15.28,15.28,0,0,1,80.64,58.35Z"/><path class="cls-1" d="M92.73,57.83a2.74,2.74,0,0,1-.39,1.6A2.67,2.67,0,0,1,91,60.59a2.77,2.77,0,0,1-1.75,0,4.09,4.09,0,0,1-.77-.34,5.27,5.27,0,0,1-.63-.52,6.27,6.27,0,0,1,.79.07c.26,0,.5,0,.73,0a3.31,3.31,0,0,0,1.28-.21A5.14,5.14,0,0,0,92.73,57.83Z"/><path class="cls-1" d="M86.41,40.82,87,45.73c.09.82.21,1.63.34,2.44a15.65,15.65,0,0,0,.57,2.39,8.32,8.32,0,0,1-.94-2.31,17.42,17.42,0,0,1-.45-2.46,22.94,22.94,0,0,1-.16-2.48A18.85,18.85,0,0,1,86.41,40.82Z"/><path class="cls-1" d="M96.13,38.87a43.87,43.87,0,0,1-1.06,5.46c-.23.9-.48,1.79-.78,2.67a13.45,13.45,0,0,1-1.08,2.57c.29-.88.5-1.78.72-2.67l.67-2.69C95.07,42.42,95.54,40.64,96.13,38.87Z"/><path class="cls-1" d="M83.21,26.63c3.34-.38,6.69-.58,10-.68,1.67-.07,3.35-.07,5-.1.83,0,1.67,0,2.51,0H101l.13,0a1.05,1.05,0,0,1,.25.08,1,1,0,0,1,.28.2,1.62,1.62,0,0,1,.35.55,4.36,4.36,0,0,1,.2.74,12.48,12.48,0,0,1,.16,1.32c.07.84.07,1.74.09,2.54a11.93,11.93,0,0,0,.3,2.38,11.11,11.11,0,0,0,2.08,4.37c2,2.64,4.89,4.41,7.77,6A33.8,33.8,0,0,0,117,46.3a18.49,18.49,0,0,0,4.59,1.19,23.18,23.18,0,0,0,4.78-.47,10.54,10.54,0,0,1,2.75,0,12.61,12.61,0,0,1,2.65.72,16.37,16.37,0,0,1,7.75,7,14.16,14.16,0,0,1,1.9,9.94l-.19,0a15.34,15.34,0,0,0-3-9.09A16.28,16.28,0,0,0,131,49.67a10.64,10.64,0,0,0-2.18-.61,10.5,10.5,0,0,0-2.25,0,24,24,0,0,1-5.19.27A20.88,20.88,0,0,1,112,45.05a35.45,35.45,0,0,1-7.66-6.6A15.24,15.24,0,0,1,101.83,34a13.61,13.61,0,0,1-.6-2.54c-.1-.87-.21-1.64-.36-2.45-.08-.4-.17-.79-.27-1.15a2.76,2.76,0,0,0-.15-.46c0-.05-.07-.08,0,0a.68.68,0,0,0,.16.11.58.58,0,0,0,.17.05h-.06c-.84,0-1.67,0-2.51,0-1.67,0-3.34,0-5-.1-3.33-.1-6.67-.31-10-.68Z"/><path class="cls-1" d="M100.78,26.82c-3.39.34-6.77.54-10.15.65-1.69.06-3.38.1-5.08.11l-1.26,0h-.44c.33-.12.28-.18.28-.15a.75.75,0,0,0-.08.14,13.89,13.89,0,0,0-.67,2.24l-.56,2.44c-.19.84-.31,1.62-.55,2.52a11.12,11.12,0,0,1-2.74,4.49,28.06,28.06,0,0,1-3.94,3.29c-1.4,1-2.71,2-4.06,3.07a21.75,21.75,0,0,1-4.43,2.77,12.19,12.19,0,0,1-5.32,1c-1.8,0-3.47-.3-5.09-.38a10.49,10.49,0,0,0-4.51.66c-2.81,1.14-4.74,3.95-5.77,7a24.33,24.33,0,0,0-1.13,4.82,36.4,36.4,0,0,0-.37,5l-.2,0a26.12,26.12,0,0,1,.34-10.26,15.14,15.14,0,0,1,2.14-4.88,10.15,10.15,0,0,1,4.2-3.57A11.59,11.59,0,0,1,56.81,47c1.76.09,3.44.4,5,.49a10.53,10.53,0,0,0,4.58-.72,41,41,0,0,0,4.44-2.14c2.92-1.68,6-3.29,8.2-5.77a9,9,0,0,0,2.1-4.32c.2-1.58.31-3.35.61-5a11.78,11.78,0,0,1,.7-2.64,2.93,2.93,0,0,1,.23-.41,1.3,1.3,0,0,1,.75-.55,1.66,1.66,0,0,1,.22,0h.62l1.26,0c1.7,0,3.39.05,5.08.1,3.38.11,6.76.31,10.15.66Z"/><path class="cls-1" d="M44.72,70.28A135.79,135.79,0,0,0,49.8,90c2.12,6.46,4.54,12.82,6.73,19.31a120.86,120.86,0,0,1,5.14,19.92,90.42,90.42,0,0,1,.95,10.24c.06,1.72,0,3.44,0,5.15a28.12,28.12,0,0,1-.64,5.09,49.48,49.48,0,0,0-.17-10.18c-.35-3.38-.86-6.73-1.5-10.06a156.84,156.84,0,0,0-5.57-19.55l-3.32-9.67c-1.08-3.24-2.14-6.49-3.07-9.79A89.67,89.67,0,0,1,44.72,70.28Z"/><path class="cls-1" d="M140.56,66.59c0,1.74-.07,3.48-.15,5.23s-.4,3.47-.64,5.2-.66,3.43-1,5.14-.88,3.37-1.38,5l-1.73,4.93c-.62,1.62-1.24,3.25-1.79,4.89-1.16,3.27-2.15,6.59-3.1,9.93-.47,1.67-.9,3.35-1.41,5s-.93,3.34-1.43,5l-1.36,5c-.4,1.68-.84,3.34-1.27,5a129.78,129.78,0,0,0-3.57,20.34h-.2a67.29,67.29,0,0,1,1.76-20.82c.43-1.69.85-3.38,1.33-5.06l1.56-5c1.09-3.3,2.3-6.56,3.58-9.79s2.49-6.48,3.51-9.79,1.75-6.7,2.57-10.06c.38-1.68.79-3.35,1.25-5s.79-3.35,1.22-5,.7-3.37,1.09-5,.61-3.4,1-5.11Z"/><path class="cls-1" d="M56.62,73.16a5.57,5.57,0,0,1,3.13,3.13,12.32,12.32,0,0,1,.89,4.43,32.56,32.56,0,0,1-1.16,8.86,38.9,38.9,0,0,0-1.74,8.62,11.26,11.26,0,0,0,2.6,8.1,14.26,14.26,0,0,0,7.31,4.35,20.81,20.81,0,0,0,8.57.37,15.69,15.69,0,0,0,7.77-3.4,11.76,11.76,0,0,0,3.83-7.57h.09a11.42,11.42,0,0,1-3.4,8.12A15.74,15.74,0,0,1,76.39,112a20.53,20.53,0,0,1-9-.5,14.09,14.09,0,0,1-7.47-4.9,12,12,0,0,1-2-4,15.4,15.4,0,0,1-.52-4.43,44.94,44.94,0,0,1,1.3-8.8,42.49,42.49,0,0,0,1.2-8.66,13,13,0,0,0-.62-4.25,5.6,5.6,0,0,0-2.7-3.23Z"/><path class="cls-1" d="M126.93,73.24a11.66,11.66,0,0,0-2.67,8.05,47.84,47.84,0,0,0,1.61,8.6A34.53,34.53,0,0,1,127,98.72,14.32,14.32,0,0,1,123.9,107a14.55,14.55,0,0,1-7.6,4.7,21.3,21.3,0,0,1-9,.4,16.13,16.13,0,0,1-8.11-3.88,10.15,10.15,0,0,1-2.57-3.73,9.42,9.42,0,0,1-.55-4.42h.1a9.66,9.66,0,0,0,.9,4.23,10,10,0,0,0,2.63,3.36,16.21,16.21,0,0,0,7.78,3.42,22,22,0,0,0,8.59-.27,14.79,14.79,0,0,0,7.42-4.16,11.05,11.05,0,0,0,2.3-3.67,12.44,12.44,0,0,0,.9-4.26,30.46,30.46,0,0,0-1.61-8.61,36,36,0,0,1-1.58-8.79c0-.38,0-.76.07-1.13a6.13,6.13,0,0,1,.14-1.13l.24-1.11c.1-.36.26-.71.39-1.07a9.07,9.07,0,0,1,1.06-2,18.07,18.07,0,0,1,1.45-1.7Z"/><path class="cls-1" d="M100.34,84c-1.07,3.55-3.82,12-9.16,9.83-3.24-1.32-6.22-6.39-6.34-9.79,0,.23,1.76,1.31,2,1.52.63.5,1.26,1,1.93,1.42,1.32.86,2.83,2.11,4.5,2.08a5,5,0,0,0,3-1.38c.82-.68,1.59-1.39,2.43-2.06C99.18,85.31,100.34,84.6,100.34,84Z"/><path class="cls-2" d="M50.71,112.16a.17.17,0,0,1-.15-.06c-.35-.37-.46-1.49-.34-3.33a66,66,0,0,0-.06-9.33c-.11-1.5-.28-3-.5-4.51a6,6,0,0,0-.15-.64,9.72,9.72,0,0,1-.44-2.17l.62-.2c.88-.28,1.84-.5,2.86-.73,2.8-.65,6-1.38,8-3.64l0,0a33.72,33.72,0,0,1-1.06,5.59c-.25,1-.51,2.11-.72,3.18a13.18,13.18,0,0,0,.68,6.25c.06.19.24.63.6,1.45.26.62.7,1.64.92,2.23a.71.71,0,0,0-.14.29c-.19.75-1.08,1.26-1.87,1.7a76.86,76.86,0,0,1-7.91,3.79A.89.89,0,0,1,50.71,112.16Z"/><path class="cls-1" d="M61.17,87.88h0M59.6,89.33c-.21,1.22-.5,2.43-.81,3.69-.26,1-.53,2.12-.74,3.21a13.79,13.79,0,0,0,.7,6.6c.07.21.22.57.63,1.53.22.51.57,1.32.79,1.89,0,0,0,.11-.05.16-.11.45-.89.89-1.54,1.26A77.16,77.16,0,0,1,51,111.31a9.62,9.62,0,0,1-.06-2.49v-.09a66.33,66.33,0,0,0-.06-9.35c-.11-1.5-.28-3-.5-4.55,0-.18-.09-.39-.18-.73s-.26-.95-.35-1.47l0,0c.85-.27,1.8-.48,2.8-.71,2.31-.54,4.87-1.12,6.89-2.57M49.8,92.1h0m10.72-5.45c-.14,0-.29.08-.48.31-2.46,3-7.15,3.17-10.57,4.27l-.86.27c-.73.21.27,3.1.33,3.54.22,1.48.38,3,.5,4.45a65,65,0,0,1,.05,9.15c-.06,1.06-.31,4.25,1.22,4.25a1.64,1.64,0,0,0,.63-.14,79.51,79.51,0,0,0,8-3.81c.88-.5,2-1.11,2.24-2.17,0-.06.18-.09.28-.13s-1.54-3.78-1.67-4.23a12.51,12.51,0,0,1-.67-5.9c.6-3.08,1.64-6.05,1.82-9.2-.27-.18-.47-.66-.78-.66Z"/><path class="cls-2" d="M135,109.87c-2.29-2.13-7.21-3.38-10.85-4.3l-1.08-.28c.22-.48.46-1,.7-1.45,1.16-2.35,2.37-4.77,2.06-7.5a60.38,60.38,0,0,0-1.54-7.66c0-.05,0-.1,0-.16a36.85,36.85,0,0,0,4.65,2c1.42.43,2.87.82,4.27,1.19,1,.26,1.94.52,2.89.8a1.19,1.19,0,0,1,.72.4c.06.1.12.38-.08,1.06a33,33,0,0,0-1.33,8.67c0,.75,0,1.51,0,2.25A13.17,13.17,0,0,1,135,109.87Z"/><path class="cls-1" d="M125.71,90.3c1.14.51,2.34,1,2.93,1.18,1.43.43,2.89.82,4.3,1.2l2.88.79h0c0,.07,0,.14-.06.24a34,34,0,0,0-1.37,8.93c0,.78,0,1.55,0,2.31a20.43,20.43,0,0,1,0,3.24c-2.67-1.71-6.77-2.76-9.94-3.56l.18-.37c1.17-2.35,2.5-5,2.16-8a50,50,0,0,0-1.11-5.93m-2.48-3.58c-.15,0-.27.09-.33.32-.14.49.34,1.34.46,1.82a61.44,61.44,0,0,1,1.53,7.59c.34,3.1-1.59,6-2.83,8.75-.12.27-.31.49-.12.79,3.28.92,10.27,2.28,12.63,4.81.27.29.48.42.65.42s.38-.23.56-.65c1.06-2.47.52-5.27.59-7.87a31.63,31.63,0,0,1,1.28-8.42c.42-1.4.15-2.26-1.3-2.68-2.37-.67-4.78-1.27-7.15-2a33,33,0,0,1-4.74-2.12c-.23-.15-.84-.78-1.23-.78Z"/><path class="cls-3" d="M68.6,158.88H57.83a1.45,1.45,0,0,1-1.3-.81,1.49,1.49,0,0,1,.14-1.56,47.82,47.82,0,0,0,2.95-4.89c2.87-5.51,5.7-11.46,7-17.6,1.65-8.09,1.77-12.64-4-22.28l-.85-1.4c-3.73-6.12-7.94-13-3.5-21.28l.14-.25a19.76,19.76,0,0,1,1.54-2.54,12.36,12.36,0,0,1,3.57-3.17,9.05,9.05,0,0,0,.24-1.43,43.31,43.31,0,0,0-.17-5.46c-.38-5.18-.82-10.4-1.31-15.58-.07-.7-.12-1.41-.18-2.11-.27-3.48-.56-7.07-2.26-10.06a1.16,1.16,0,0,1-.06-.91,1,1,0,0,1,.64-.62,4.77,4.77,0,0,1,1.44-.21,12.16,12.16,0,0,1,5.56,1.83c.88.51,1.17,1.87,1.46,4.53,0,.33.06.59.09.74l1.39,7.5c.93,5,1.85,10,2.8,15l.17.88c.19.93.4,2,.54,3.07h.23a16.72,16.72,0,0,1,12,4.89,25.42,25.42,0,0,1,6.6,9.59c0,.08.05.15.08.22.2-.56.43-1.09.67-1.6A26,26,0,0,1,102.15,83a16.33,16.33,0,0,1,9.3-2.78,17.86,17.86,0,0,1,3.1.27c1.07-7.24,2.12-14.83,3.2-23.19,0-.28.06-.88.08-1.58.16-4.68.48-7,1.92-7.62a17.52,17.52,0,0,1,6.73-1.21h.72a1.17,1.17,0,0,1,.88.51,1,1,0,0,1,0,1,26.42,26.42,0,0,0-1.85,8.06c-.1.75-.19,1.5-.3,2.22-.62,4.19-1,8-1.25,11.64a92.93,92.93,0,0,0,0,11.32c.1,1.59.24,3.17.42,4.69,0,.3.08.59.11.88a13,13,0,0,1,1.59,3.43,20.58,20.58,0,0,1,1,8.92c-.65,4.13-3.09,7.62-5.44,11l-.63.91a29.8,29.8,0,0,0-4,7.35c-2.83,8.53-2.34,17.41,1.29,23.74,1.53,2.67,3,5.08,4.51,7.37s2.92,4.29,4.51,6.36a2.28,2.28,0,0,1,.52,1.63,1,1,0,0,1-1,.9h-59Z"/><path class="cls-1" d="M61.81,47.68a11.31,11.31,0,0,1,5.08,1.7c.77.45.94,3.87,1.08,4.61q.69,3.75,1.39,7.5,1.38,7.5,2.79,15c.22,1.16.56,2.67.74,4.19,0,.19,0,.39,0,.58q.56,0,1.11,0a15.77,15.77,0,0,1,11.27,4.61,24.69,24.69,0,0,1,6.37,9.23,17.77,17.77,0,0,1,.64,2.35.31.31,0,0,0,.31.26.3.3,0,0,0,.3-.24,18.39,18.39,0,0,1,1.29-3.67,24.92,24.92,0,0,1,8.46-9.93,15.5,15.5,0,0,1,8.76-2.6,17.06,17.06,0,0,1,3.91.45c1.21-8.06,2.31-16.14,3.35-24.22.19-1.4,0-7.83,1.41-8.43a16.53,16.53,0,0,1,6.36-1.13h.7a.08.08,0,0,1,.07.11c-1.54,3.14-1.74,7.15-2.25,10.56-.58,3.89-1,7.81-1.26,11.73a92.9,92.9,0,0,0,0,11.44c.1,1.59.24,3.17.43,4.75,0,.37.09.74.14,1.1A12.58,12.58,0,0,1,125.91,91a19.51,19.51,0,0,1,1,8.49c-.67,4.26-3.37,7.83-5.91,11.49a30.72,30.72,0,0,0-4.17,7.6c-2.58,7.78-2.79,17.29,1.37,24.54,1.44,2.51,2.95,5,4.54,7.41q2.16,3.3,4.55,6.42a1.32,1.32,0,0,1,.32,1H57.84a.5.5,0,0,1-.39-.81,49,49,0,0,0,3-5c2.94-5.65,5.76-11.59,7.05-17.86,1.72-8.43,1.7-13.25-4.13-23-3.93-6.55-8.83-13.39-4.32-21.71a20.61,20.61,0,0,1,1.6-2.68,11.7,11.7,0,0,1,3.65-3.13,12.78,12.78,0,0,0,.35-2,45.88,45.88,0,0,0-.17-5.62q-.57-7.78-1.31-15.56c-.41-4.24-.4-8.76-2.56-12.56a.08.08,0,0,1,0-.12,3.52,3.52,0,0,1,1.13-.17m0-1.94h0a5.36,5.36,0,0,0-1.73.26,2,2,0,0,0-1.26,1.19A2,2,0,0,0,59,48.93c1.59,2.8,1.85,6.13,2.13,9.65.06.72.11,1.43.18,2.13.49,5.15.93,10.37,1.31,15.52v.06a41.75,41.75,0,0,1,.17,5.32,5.57,5.57,0,0,1-.13.87,13.41,13.41,0,0,0-3.49,3.19,21.92,21.92,0,0,0-1.63,2.69l-.12.23c-4.72,8.72-.34,15.9,3.52,22.24.28.47.57.94.84,1.4,5.61,9.35,5.5,13.75,3.89,21.58-1.23,6-4,11.9-6.86,17.35a47.5,47.5,0,0,1-2.86,4.76,2.44,2.44,0,0,0,1.93,3.92h69.73a1.94,1.94,0,0,0,1.94-1.79,3.19,3.19,0,0,0-.72-2.29c-1.57-2.06-3.07-4.19-4.47-6.31-1.5-2.29-3-4.68-4.47-7.32-3.5-6.1-4-14.68-1.22-23a29.26,29.26,0,0,1,3.93-7.1l.63-.91c2.42-3.46,4.91-7,5.6-11.39a21.27,21.27,0,0,0-1-9.34,14,14,0,0,0-1.58-3.51c0-.21-.06-.43-.08-.64-.18-1.51-.32-3.07-.42-4.64a93,93,0,0,1,0-11.2c.22-3.61.62-7.39,1.24-11.56.11-.73.21-1.48.3-2.24.35-2.74.7-5.56,1.77-7.76A2,2,0,0,0,127.23,46h-.75a18.46,18.46,0,0,0-7.1,1.28c-2.11.88-2.37,3.93-2.52,8.49,0,.62,0,1.25-.07,1.49-1,8-2,15.27-3.06,22.21a19.38,19.38,0,0,0-2.28-.14,17.36,17.36,0,0,0-9.85,2.94,26.82,26.82,0,0,0-8.9,10.24,28.27,28.27,0,0,0-6-8,17.63,17.63,0,0,0-12-5.15c-.13-.81-.28-1.58-.43-2.29-.06-.31-.12-.6-.17-.87q-1.41-7.5-2.79-15l-.43-2.31-1-5.2c0-.13,0-.37-.08-.67-.28-2.58-.59-4.47-1.93-5.26a13.25,13.25,0,0,0-6.06-2Z"/></svg>