<svg id="图层_1" data-name="图层 1" xmlns="http://www.w3.org/2000/svg" viewBox="0 0 186 186"><defs><style>.cls-1{fill:#9b9692;}.cls-2{fill:#f2f2f2;}</style></defs><path class="cls-1" d="M102.66,58.55a9.26,9.26,0,0,1,6.28-3.64,17.51,17.51,0,0,1,7.44.52c2.43.75,4.58,2,6.86,2.69a6.24,6.24,0,0,0,3.32.21,4.56,4.56,0,0,0,2.49-1.9h0a.75.75,0,0,1,1.22.86l0,0a6,6,0,0,1-3.41,2.29,7.47,7.47,0,0,1-3.95-.41c-2.42-.85-4.49-2.24-6.75-3a17,17,0,0,0-7.16-.86A9.1,9.1,0,0,0,102.66,58.55Z"/><path class="cls-1" d="M80.36,59.08a15.24,15.24,0,0,0-14-2.91c-2.33.74-4.47,2.15-6.9,3.06a10.74,10.74,0,0,1-3.9.82,6,6,0,0,1-3.91-1.49h0a.74.74,0,1,1,1-1.11l0,0a4.51,4.51,0,0,0,3,1.28,9.5,9.5,0,0,0,3.48-.56c2.34-.74,4.54-2,7.06-2.72A15.59,15.59,0,0,1,80.36,59.08Z"/><path class="cls-1" d="M92.72,58.55a2.79,2.79,0,0,1-.4,1.63A2.7,2.7,0,0,1,91,61.36a2.76,2.76,0,0,1-1.79.06,4,4,0,0,1-.79-.35,3.66,3.66,0,0,1-.64-.54c.29,0,.55,0,.81.08s.5,0,.74,0a3.47,3.47,0,0,0,1.31-.21A5.29,5.29,0,0,0,92.72,58.55Z"/><path class="cls-1" d="M86.26,41.15l.56,5c.09.83.21,1.66.34,2.48a15.89,15.89,0,0,0,.59,2.45,8.09,8.09,0,0,1-1-2.36,18.17,18.17,0,0,1-.47-2.51,24.22,24.22,0,0,1-.16-2.54A19.77,19.77,0,0,1,86.26,41.15Z"/><path class="cls-1" d="M96.2,39.17a45.64,45.64,0,0,1-1.08,5.57c-.24.92-.49,1.83-.8,2.73a14.47,14.47,0,0,1-1.1,2.63c.29-.9.5-1.82.74-2.73l.68-2.75C95.11,42.79,95.59,41,96.2,39.17Z"/><path class="cls-1" d="M83,26.64c3.42-.38,6.84-.59,10.26-.69,1.71-.07,3.42-.07,5.13-.1.85,0,1.71,0,2.56,0h.2l.13,0a1.34,1.34,0,0,1,.26.08,1.19,1.19,0,0,1,.28.21,1.64,1.64,0,0,1,.36.56,4.65,4.65,0,0,1,.21.76,12.85,12.85,0,0,1,.16,1.34c.07.87.07,1.79.09,2.6a11.81,11.81,0,0,0,.31,2.44,11.38,11.38,0,0,0,2.12,4.47c2,2.69,5,4.5,8,6.16a31.25,31.25,0,0,0,4.49,2.23A18.44,18.44,0,0,0,122.19,48a24.27,24.27,0,0,0,4.89-.47,10.55,10.55,0,0,1,2.81,0,12.5,12.5,0,0,1,2.7.74,16.75,16.75,0,0,1,7.93,7.13,14.54,14.54,0,0,1,1.94,10.17l-.2,0a15.66,15.66,0,0,0-3.06-9.3,16.53,16.53,0,0,0-7.39-6,10.84,10.84,0,0,0-2.22-.62,11,11,0,0,0-2.3,0,24.49,24.49,0,0,1-5.31.27,21.37,21.37,0,0,1-9.58-4.34,36.48,36.48,0,0,1-7.83-6.75A15.54,15.54,0,0,1,102,34.15a13.55,13.55,0,0,1-.61-2.59c-.11-.89-.22-1.68-.38-2.51-.07-.4-.17-.81-.27-1.17a2.31,2.31,0,0,0-.16-.47c0-.06-.07-.09,0,0a.47.47,0,0,0,.16.11.56.56,0,0,0,.17.06h-.06c-.86,0-1.71,0-2.56,0-1.71,0-3.41,0-5.12-.1-3.41-.11-6.82-.32-10.24-.7Z"/><path class="cls-1" d="M101,26.84c-3.46.35-6.92.56-10.37.67-1.73.06-3.46.09-5.19.11l-1.3,0H83.5a.39.39,0,0,0,.15,0c.33-.11.28-.18.28-.15a.63.63,0,0,0-.08.15,16,16,0,0,0-.69,2.29l-.57,2.49c-.19.86-.32,1.66-.56,2.58a11.39,11.39,0,0,1-2.8,4.59,28.62,28.62,0,0,1-4,3.36c-1.43,1-2.76,2.07-4.15,3.14a22,22,0,0,1-4.53,2.83A12.27,12.27,0,0,1,61.08,50c-1.84,0-3.54-.3-5.2-.38a10.51,10.51,0,0,0-4.61.68c-2.88,1.16-4.84,4-5.9,7.17a24.73,24.73,0,0,0-1.15,4.93,36.45,36.45,0,0,0-.39,5.13l-.2,0A26.91,26.91,0,0,1,44,57a15.39,15.39,0,0,1,2.19-5,10.29,10.29,0,0,1,4.29-3.64A11.58,11.58,0,0,1,56,47.45c1.8.09,3.52.4,5.14.49a10.53,10.53,0,0,0,4.68-.74A39.31,39.31,0,0,0,70.37,45c3-1.71,6.12-3.36,8.38-5.9a9.1,9.1,0,0,0,2.14-4.42c.21-1.61.32-3.42.63-5.14a12.08,12.08,0,0,1,.72-2.7,2.59,2.59,0,0,1,.23-.42,1.34,1.34,0,0,1,.77-.56,1.66,1.66,0,0,1,.22,0h.63l1.3,0c1.73,0,3.46.05,5.19.11,3.45.11,6.91.31,10.37.66Z"/><path class="cls-1" d="M43.64,71.27a138.92,138.92,0,0,0,5.19,20.18c2.17,6.61,4.65,13.11,6.88,19.74A124.33,124.33,0,0,1,61,131.56a89.74,89.74,0,0,1,1,10.47c.06,1.76.05,3.51,0,5.26a29.46,29.46,0,0,1-.65,5.21,50.29,50.29,0,0,0-.18-10.41c-.35-3.45-.88-6.89-1.53-10.29a160.34,160.34,0,0,0-5.7-20l-3.39-9.89c-1.1-3.31-2.19-6.64-3.14-10A92,92,0,0,1,43.64,71.27Z"/><path class="cls-1" d="M141.62,67.5c0,1.78-.07,3.56-.16,5.35s-.4,3.54-.65,5.31-.67,3.51-1,5.25-.89,3.45-1.4,5.16l-1.78,5c-.63,1.66-1.26,3.32-1.83,5-1.19,3.34-2.19,6.74-3.17,10.15-.48,1.71-.92,3.43-1.44,5.12s-1,3.4-1.46,5.09l-1.39,5.11c-.41,1.71-.85,3.41-1.3,5.11A133,133,0,0,0,122.35,150h-.2a68.72,68.72,0,0,1,1.79-21.28c.45-1.73.88-3.46,1.37-5.18l1.6-5.09c1.11-3.38,2.34-6.72,3.65-10s2.55-6.63,3.59-10,1.79-6.86,2.62-10.29c.39-1.72.82-3.42,1.29-5.12s.8-3.43,1.24-5.13.71-3.45,1.12-5.17.62-3.47,1-5.22Z"/><path class="cls-2" d="M57.41,158.85c1.44-2.83,4.75-9.49,6.26-13.56,3.13-8.45,6.68-18,2-27.62-.76-1.54-1.73-3.25-2.76-5-2-3.5-4.27-7.46-5.12-10.67-.93-3.5-.08-6.83.82-10.35a45.37,45.37,0,0,0,1.23-5.95c.77-6.6-.59-13-1.92-19.11-.36-1.66-.72-3.33-1-5-.07-.36-.5-2.33-1-4.67-.6-2.74-1.45-6.62-1.78-8.24a7.05,7.05,0,0,1,2-.27,11.23,11.23,0,0,1,3.62.64,5.17,5.17,0,0,1,1.74,1,9.65,9.65,0,0,1,2.23,3.83,24.14,24.14,0,0,0,2.66,4.71C70,64.07,74.6,70.13,81,73.62a21.94,21.94,0,0,0,8.46,2.65,18.57,18.57,0,0,0,2,.1c12.68,0,20.76-11.32,27.89-21.31,1.5-2.1,2.91-4.08,4.31-5.87a2.14,2.14,0,0,1,1.69-.83c1.84,0,4,.09,5.19.2-1.33,2.28-3.09,6.42-3.18,8.88,0,.78,0,1.67-.08,2.63a106.4,106.4,0,0,1-.9,13.13,16.3,16.3,0,0,1-1,3.39,12.7,12.7,0,0,0-1,4.7,37.28,37.28,0,0,0,1.34,9.59c1,4.36,2,8.86.7,13-1,3.12-2.57,5.24-4.55,7.94-1,1.36-2.14,2.91-3.3,4.75-10.43,16.52,4.8,36.62,9.55,42.23l-11.64,0C99,158.77,65.2,158.84,57.41,158.85Z"/><path class="cls-1" d="M125.33,47.36v2c1.36,0,2.6,0,3.57.1-1.15,2.31-2.48,5.64-2.56,8,0,.78-.06,1.67-.08,2.63a107.64,107.64,0,0,1-.88,13,16.68,16.68,0,0,1-.94,3.2,13.49,13.49,0,0,0-1.08,5,38.36,38.36,0,0,0,1.36,9.85c1,4.42,2,8.6.72,12.49-1,3-2.47,5-4.4,7.65-1,1.38-2.16,2.94-3.34,4.81-9.93,15.73,2.46,34.41,8.28,41.76l-9.52,0c-16.46,0-47.93.06-57.44.08,1.71-3.43,4.27-8.7,5.57-12.23,3-8.21,6.83-18.42,1.91-28.4-.77-1.57-1.75-3.28-2.79-5.1-2-3.44-4.2-7.35-5-10.44s-.08-6.3.82-9.85a46.17,46.17,0,0,0,1.26-6.07c.79-6.76-.6-13.21-1.94-19.44-.35-1.63-.71-3.32-1-5-.07-.38-.41-2-1-4.69-.5-2.29-1.18-5.38-1.58-7.27a7.62,7.62,0,0,1,.85,0,10,10,0,0,1,3.28.59,4.1,4.1,0,0,1,1.41.8,8.8,8.8,0,0,1,2,3.44,25.16,25.16,0,0,0,2.75,4.91l0,.06c3.71,5.57,8.4,11.74,15,15.35a23.14,23.14,0,0,0,8.84,2.76,20.63,20.63,0,0,0,2.07.1c13.19,0,21.79-12,28.7-21.72,1.49-2.09,2.9-4.06,4.29-5.84a1.12,1.12,0,0,1,.9-.45v-2m0,0a3.16,3.16,0,0,0-2.47,1.21c-8,10.21-16.62,26.8-31.42,26.8-.62,0-1.24,0-1.88-.09a20.87,20.87,0,0,1-8.07-2.53c-6.11-3.33-10.52-9-14.31-14.7a23.44,23.44,0,0,1-2.6-4.59,10.55,10.55,0,0,0-2.5-4.21A6.09,6.09,0,0,0,60,48.06a12.07,12.07,0,0,0-3.94-.69,7.59,7.59,0,0,0-3.16.62c-.07,0,2.76,12.75,3,13.74,1.51,7.91,3.9,15.64,2.94,23.81-.69,5.86-3.54,11-2,16.67,1.32,5,5.68,11.29,8,15.9,4.4,8.93,1.32,17.89-2,26.83-1.63,4.4-5.37,11.81-6.58,14.17a.51.51,0,0,0,.46.74h0c5.9,0,41.72-.08,59.85-.08l12.69,0h0a.51.51,0,0,0,.38-.85c-3.9-4.41-20.75-25.07-10.16-41.85,3.36-5.31,6.36-8,8-12.92,2.4-7.46-2.28-15.47-2-22.86.16-3.85,1.29-4.1,2-8,.77-4.19.84-11.64,1-15.9.08-2.42,2-6.84,3.28-8.83a.64.64,0,0,0-.41-1c-1.22-.21-4.72-.27-5.84-.29Z"/><path class="cls-1" d="M119.36,71.27a27.33,27.33,0,0,1-9,10.15A40.83,40.83,0,0,1,98,87.16c-1.12.27-2.22.59-3.34.82l-3.39.53c-.56.08-1.12.2-1.69.25l-1.71.12q-1.71.12-3.42.21c-2.28,0-4.55-.1-6.83-.18-2.26-.28-4.52-.52-6.76-.83,2.27.09,4.53.23,6.79.34s4.52,0,6.77-.1A62.1,62.1,0,0,0,97.68,86.2a42.05,42.05,0,0,0,12.26-5.41,32.5,32.5,0,0,0,2.72-2L114,77.73c.42-.37.81-.78,1.22-1.17A24.73,24.73,0,0,0,119.36,71.27Z"/><path class="cls-1" d="M114.94,80c-1,3.31-3.45,6-6,8.21a37.68,37.68,0,0,1-8.77,5.44c-.39.18-.78.37-1.17.54l-1.2.47-2.4.94c-1.64.51-3.27,1.07-4.93,1.5s-3.33.81-5,1.15-3.38.56-5.07.8c1.65-.46,3.31-.85,5-1.28s3.27-.94,4.9-1.41L95,94.74l2.35-1,1.18-.47c.38-.17.76-.36,1.14-.54L102,91.68l2.21-1.23a41.09,41.09,0,0,0,4.21-2.81,26.09,26.09,0,0,0,3.72-3.41A14.4,14.4,0,0,0,114.94,80Z"/><path class="cls-1" d="M112.72,88.77a17,17,0,0,1-4.16,6.83,27.78,27.78,0,0,1-6.38,4.93,38.56,38.56,0,0,1-7.36,3.24c-1.29.37-2.58.72-3.87,1.06s-2.63.5-4,.7c1.27-.42,2.55-.78,3.82-1.17s2.5-.86,3.74-1.31a54.07,54.07,0,0,0,7.13-3.38A34.13,34.13,0,0,0,108,95.06a24.34,24.34,0,0,0,2.63-2.92A15.07,15.07,0,0,0,112.72,88.77Z"/><path class="cls-1" d="M119.36,109.89a12.61,12.61,0,0,1-1.75,2.58,17.59,17.59,0,0,1-2.23,2.17,15.5,15.5,0,0,1-5.43,3c.81-.66,1.64-1.24,2.44-1.86s1.59-1.23,2.36-1.88C116.32,112.6,117.8,111.26,119.36,109.89Z"/><path class="cls-1" d="M62.89,107.74A48.81,48.81,0,0,0,66.68,111q1,.73,2,1.41c.68.47,1.4.88,2.12,1.37a9.76,9.76,0,0,1-4.73-2,11.38,11.38,0,0,1-1.87-1.8A7.46,7.46,0,0,1,62.89,107.74Z"/><path class="cls-1" d="M57.55,51.11c.15,1.61.4,3.2.67,4.77s.63,3.12,1.06,4.65A39.72,39.72,0,0,0,60.81,65a44.17,44.17,0,0,0,2.08,4.34,18.19,18.19,0,0,1-2.78-4,22.67,22.67,0,0,1-1.78-4.57A24.4,24.4,0,0,1,57.55,51.11Z"/><path class="cls-1" d="M61.68,53.82a22.44,22.44,0,0,0,.43,2.88,16.11,16.11,0,0,0,.82,2.69,25.17,25.17,0,0,0,1.28,2.54c.48.84,1,1.67,1.51,2.51a9.23,9.23,0,0,1-2.15-2.08A11.26,11.26,0,0,1,62,59.77a9.57,9.57,0,0,1-.68-3A7.7,7.7,0,0,1,61.68,53.82Z"/><path class="cls-1" d="M69.7,73.38c.77.89,1.54,1.75,2.33,2.59s1.6,1.63,2.46,2.37a20.49,20.49,0,0,0,2.73,2,16.12,16.12,0,0,0,3.14,1.37,8.21,8.21,0,0,1-3.5-.67,13,13,0,0,1-3-1.94,16.16,16.16,0,0,1-2.4-2.63A13,13,0,0,1,69.7,73.38Z"/><path class="cls-1" d="M66.85,76.92c.71,1,1.27,2,1.9,2.93.3.48.63.93,1,1.39s.7.89,1.1,1.38a5,5,0,0,1-2.89-2.22,7.21,7.21,0,0,1-.79-1.66A5.1,5.1,0,0,1,66.85,76.92Z"/><path class="cls-1" d="M125,51.11c-1.66,2.9-3.42,5.68-5.1,8.51q-1.27,2.12-2.43,4.29a25.91,25.91,0,0,0-2,4.5,14.8,14.8,0,0,1,1.3-4.83A36,36,0,0,1,119,59.12,47,47,0,0,1,125,51.11Z"/><path class="cls-1" d="M127.4,49.44a56.29,56.29,0,0,1-2.24,5.94c-.85,1.92-1.7,3.84-2.75,5.71A24.92,24.92,0,0,1,124.25,55,26.91,26.91,0,0,1,127.4,49.44Z"/><path class="cls-1" d="M111.54,67.2a12,12,0,0,1-3.5,5,17.72,17.72,0,0,1-5.29,3.18,23.77,23.77,0,0,1-6,1.46c-1,.1-2,.14-3.06.18s-2-.08-3-.17c1-.14,2-.21,3-.32l3-.45c1-.26,2-.36,2.91-.69L101,75l1.39-.52a21.32,21.32,0,0,0,5.16-2.85A15.32,15.32,0,0,0,111.54,67.2Z"/></svg>