<svg id="图层_1" data-name="图层 1" xmlns="http://www.w3.org/2000/svg" viewBox="0 0 186 186"><defs><style>.cls-1{fill:#9b9692;}.cls-2{fill:#f2f2f2;}</style></defs><path class="cls-1" d="M102.61,58.4a9.25,9.25,0,0,1,6.26-3.62,17.32,17.32,0,0,1,7.4.52c2.42.74,4.56,2,6.84,2.68a6.15,6.15,0,0,0,3.3.2,4.47,4.47,0,0,0,2.48-1.88h0a.73.73,0,0,1,1-.18.75.75,0,0,1,.18,1l0,0a5.88,5.88,0,0,1-3.39,2.28,7.21,7.21,0,0,1-3.93-.41c-2.41-.84-4.47-2.22-6.72-3a16.89,16.89,0,0,0-7.13-.85A9,9,0,0,0,102.61,58.4Z"/><path class="cls-1" d="M80.42,58.93a15.18,15.18,0,0,0-14-2.9c-2.32.74-4.44,2.14-6.86,3a10.64,10.64,0,0,1-3.89.81,6,6,0,0,1-3.88-1.47l0,0a.74.74,0,0,1-.06-1,.72.72,0,0,1,1-.06l0,0a4.6,4.6,0,0,0,2.95,1.28A9.43,9.43,0,0,0,59.2,58c2.33-.74,4.52-2,7-2.71A15.56,15.56,0,0,1,80.42,58.93Z"/><path class="cls-1" d="M92.72,58.4A2.88,2.88,0,0,1,92.33,60,2.77,2.77,0,0,1,91,61.2a2.82,2.82,0,0,1-1.79.06,4.22,4.22,0,0,1-.78-.35,4.62,4.62,0,0,1-.64-.53,4.92,4.92,0,0,1,.8.08c.26,0,.51,0,.75,0a3.42,3.42,0,0,0,1.3-.22A5.24,5.24,0,0,0,92.72,58.4Z"/><path class="cls-1" d="M86.29,41.08l.55,5c.09.83.21,1.66.35,2.48A14.56,14.56,0,0,0,87.77,51a8.17,8.17,0,0,1-1-2.35,17.76,17.76,0,0,1-.47-2.5,23.7,23.7,0,0,1-.16-2.53A19.46,19.46,0,0,1,86.29,41.08Z"/><path class="cls-1" d="M96.18,39.1a45.46,45.46,0,0,1-1.07,5.56c-.24.91-.49,1.82-.79,2.71A14,14,0,0,1,93.21,50c.3-.9.51-1.81.74-2.72l.68-2.74C95.1,42.72,95.58,40.9,96.18,39.1Z"/><path class="cls-1" d="M83,26.64c3.41-.38,6.81-.59,10.22-.69,1.7-.07,3.4-.07,5.1-.1.85,0,1.7,0,2.55,0h.2l.14,0a1.47,1.47,0,0,1,.25.08,1.2,1.2,0,0,1,.28.2,1.43,1.43,0,0,1,.35.56,4.65,4.65,0,0,1,.21.76,10.62,10.62,0,0,1,.16,1.34c.07.86.08,1.77.09,2.58a13.25,13.25,0,0,0,.31,2.43A11.3,11.3,0,0,0,105,38.3c2,2.68,5,4.48,7.91,6.14a32,32,0,0,0,4.47,2.22,18.38,18.38,0,0,0,4.67,1.21,23.32,23.32,0,0,0,4.87-.47,10,10,0,0,1,2.79,0,12.48,12.48,0,0,1,2.7.73,16.64,16.64,0,0,1,7.89,7.1,14.49,14.49,0,0,1,1.93,10.12l-.2,0a15.61,15.61,0,0,0-3-9.26,16.6,16.6,0,0,0-7.36-6,11.58,11.58,0,0,0-2.21-.61,10.34,10.34,0,0,0-2.3,0,24.21,24.21,0,0,1-5.28.27,21.26,21.26,0,0,1-9.53-4.32,36,36,0,0,1-7.8-6.72A15.77,15.77,0,0,1,102,34.11a14.24,14.24,0,0,1-.61-2.58c-.1-.89-.21-1.67-.37-2.5-.08-.4-.17-.8-.27-1.17a3.61,3.61,0,0,0-.16-.47c0-.05-.07-.08,0,0a.85.85,0,0,0,.16.11.76.76,0,0,0,.18.06h-.07c-.85,0-1.7,0-2.55,0-1.69,0-3.39,0-5.09-.1-3.4-.1-6.8-.31-10.2-.69Z"/><path class="cls-1" d="M100.92,26.83c-3.45.35-6.89.55-10.33.66-1.73.06-3.45.1-5.17.12H83.54l.15,0c.33-.11.27-.18.28-.15a1.13,1.13,0,0,0-.09.15,16.85,16.85,0,0,0-.68,2.28l-.57,2.48c-.19.85-.31,1.65-.56,2.57a11.24,11.24,0,0,1-2.78,4.56,28.27,28.27,0,0,1-4,3.35c-1.43,1-2.76,2.06-4.14,3.13a21.72,21.72,0,0,1-4.5,2.81,12.35,12.35,0,0,1-5.42,1.06c-1.83,0-3.52-.3-5.17-.39a10.74,10.74,0,0,0-4.6.68c-2.86,1.16-4.82,4-5.87,7.15a24.44,24.44,0,0,0-1.15,4.9,37.74,37.74,0,0,0-.38,5.12h-.2a26.66,26.66,0,0,1,.35-10.44,15.48,15.48,0,0,1,2.18-5,10.19,10.19,0,0,1,4.27-3.62,11.5,11.5,0,0,1,5.51-.93c1.8.09,3.5.41,5.12.49a10.55,10.55,0,0,0,4.66-.73,39.05,39.05,0,0,0,4.53-2.18c3-1.7,6.09-3.35,8.34-5.88A9,9,0,0,0,81,34.66c.21-1.61.32-3.41.62-5.12a11.87,11.87,0,0,1,.72-2.69,3,3,0,0,1,.23-.41,1.34,1.34,0,0,1,.76-.56,1.6,1.6,0,0,1,.23,0h.62l1.29,0c1.72,0,3.44.05,5.17.11,3.44.11,6.88.31,10.33.66Z"/><path class="cls-1" d="M43.85,71.07A139.35,139.35,0,0,0,49,91.16c2.15,6.57,4.62,13,6.84,19.65a121.25,121.25,0,0,1,5.23,20.28,91.29,91.29,0,0,1,1,10.43c.06,1.74,0,3.49,0,5.23a29.23,29.23,0,0,1-.65,5.19,49.92,49.92,0,0,0-.18-10.37c-.35-3.43-.87-6.85-1.52-10.24A158.4,158.4,0,0,0,54,111.44l-3.38-9.85c-1.09-3.3-2.18-6.61-3.12-10A91.58,91.58,0,0,1,43.85,71.07Z"/><path class="cls-1" d="M141.4,67.31c0,1.82-.07,3.65-.18,5.48s-.41,3.64-.68,5.45-.68,3.59-1.07,5.37-.9,3.55-1.43,5.29l-1.78,5.17c-.64,1.71-1.27,3.42-1.85,5.14-1.19,3.44-2.2,6.93-3.17,10.43-.49,1.75-.93,3.52-1.45,5.25s-.95,3.5-1.47,5.24l-1.4,5.24-1.32,5.25a136.27,136.27,0,0,0-3.75,21.32h-.2a71.86,71.86,0,0,1,1.9-21.81c.46-1.77.88-3.55,1.39-5.3l1.6-5.24c1.12-3.47,2.36-6.89,3.67-10.28s2.55-6.81,3.59-10.29,1.81-7,2.66-10.56c.41-1.76.83-3.51,1.31-5.25s.82-3.52,1.27-5.27.73-3.53,1.14-5.3.64-3.56,1-5.34Z"/><path class="cls-1" d="M92.91,97.87l-1,4.65a10.1,10.1,0,0,1-.54-1.16,11,11,0,0,1-.32-1.56,13.08,13.08,0,0,1,.09-3.42,40.28,40.28,0,0,0,.11-9.69c-.19-1.41-.57-2.76-.82-4.14a10.1,10.1,0,0,1-.31-3.11A2.35,2.35,0,0,1,92,77.65c.6-.17,1.72-.59,2,.61a11.38,11.38,0,0,1-.14,3.24c-.23,2.19-.66,4.29-.92,6.47a42.87,42.87,0,0,0-.33,5.21,26.61,26.61,0,0,0,.15,2.69A7.08,7.08,0,0,1,92.91,97.87Z"/><path class="cls-2" d="M56.74,158.86H92.47l34.66-.08s-10.83-15.36-12.51-24c-1.39-7.13-.38-13.38,3.78-19.42,3-4.32,6.63-8.39,8-13.45,1.53-5.43.28-11.2-.61-16.78-1.22-7.68-1.79-15.53-3.91-23-1.66-5.9-5.65-16.6-11.38-19.72a27.79,27.79,0,0,1-4-2.84c-.81-.65-1.33-1.67-2.41-2l-.23.22a10.43,10.43,0,0,0,1.58,3.12c3.44,5.81,1.94,13.63.78,19.87-1.37,7.37-2.5,15.2-6,21.93-1.42,2.76-3.38,5.18-5.06,7.78a25.64,25.64,0,0,0-2.19,4c-.47,1.13-.73,2.34-1.24,3.41-.9-4.31-1.54-6.48-3.87-9.26-9.86-11.78-15.12-34.33-9-48.69.16-.36.34-.71.5-1.06,0-.21,0-.43,0-.64-.13-.43-3.18,1.43-3.37,1.57a19.47,19.47,0,0,0-5.47,6C63.72,57.89,59.87,72.24,58,86c-.54,4.06-1.22,8.41-.76,12.48.81,7.09,5,11.63,7.92,17.81s3,13.25,1,19.79C63.74,144.25,56.74,158.86,56.74,158.86Z"/><path class="cls-1" d="M92.47,159.85H56.74a1,1,0,0,1-.84-.46,1,1,0,0,1,0-.95c.07-.15,7-14.64,9.39-22.62a26.92,26.92,0,0,0-.94-19.09c-.9-1.92-1.95-3.71-3-5.45-2.29-3.92-4.46-7.62-5-12.66A48.17,48.17,0,0,1,56.91,87l.15-1.06C59.16,70,63.45,56.37,69.81,45.26A20.39,20.39,0,0,1,75.55,39s3.09-2.14,4.21-1.76a1.15,1.15,0,0,1,.68.7.89.89,0,0,1,0,.32l0,.64a1.07,1.07,0,0,1-.1.39l-.18.39c-.11.21-.21.42-.3.64C73.69,54.79,79.56,77.05,88.7,88A15.43,15.43,0,0,1,92,94.41l.13-.33a26.57,26.57,0,0,1,2.27-4.18c.58-.89,1.19-1.76,1.79-2.62a45.62,45.62,0,0,0,3.22-5.07c3-5.84,4.24-12.61,5.42-19.16.16-.83.31-1.67.46-2.5l0-.18c1.12-6,2.52-13.57-.7-19l-.4-.64A8.29,8.29,0,0,1,103,37.94a1,1,0,0,1,.28-.91l.22-.22a1,1,0,0,1,1-.23,4.57,4.57,0,0,1,2.11,1.51,5,5,0,0,0,.65.65A25.57,25.57,0,0,0,111,41.48C117.74,45.14,121.8,58,122.88,61.8a116.62,116.62,0,0,1,3,16.25c.3,2.27.61,4.62,1,6.9l.3,1.82c.84,5.08,1.72,10.33.29,15.39-1.15,4.1-3.69,7.55-6.14,10.89-.69,1-1.39,1.9-2.05,2.85-3.86,5.6-5,11.53-3.63,18.67,1.63,8.35,12.25,23.49,12.36,23.65a1,1,0,0,1,.07,1,1,1,0,0,1-.87.53Zm-34.18-2H92.47l32.79-.08c-2.8-4.16-10.21-15.62-11.61-22.85-1.5-7.7-.24-14.1,3.94-20.17.67-1,1.38-1.93,2.08-2.89,2.35-3.2,4.78-6.51,5.83-10.26,1.31-4.64.47-9.67-.33-14.54q-.17-.91-.3-1.83c-.37-2.31-.68-4.67-1-7a113.39,113.39,0,0,0-2.9-16c-2.12-7.53-6.1-16.51-10.9-19.12a24.48,24.48,0,0,1-3.47-2.4c3.26,6,1.83,13.7.67,19.91l0,.19q-.23,1.23-.45,2.49c-1.22,6.68-2.47,13.6-5.62,19.7a46.64,46.64,0,0,1-3.35,5.3c-.59.85-1.19,1.7-1.75,2.56A24,24,0,0,0,94,94.84c-.19.47-.35,1-.5,1.43a16.21,16.21,0,0,1-.77,2,1,1,0,0,1-1,.55,1,1,0,0,1-.85-.78c-.88-4.22-1.46-6.2-3.66-8.83-9.64-11.52-15.61-34-9.25-49.38-.54.3-1,.6-1.25.74a18.59,18.59,0,0,0-5.17,5.63C65.29,57.12,61.09,70.55,59,86.15l-.14,1.06a46,46,0,0,0-.62,11.18c.53,4.63,2.6,8.16,4.78,11.9,1,1.77,2.11,3.6,3,5.61a28.85,28.85,0,0,1,1,20.49C65.11,143.12,60.11,154,58.29,157.88Z"/></svg>