<svg id="图层_1" data-name="图层 1" xmlns="http://www.w3.org/2000/svg" viewBox="0 0 186 186"><defs><style>.cls-1{fill:#9b9692;}.cls-2{fill:#e4cbd4;}.cls-3{fill:#f2f2f2;}</style></defs><path class="cls-1" d="M102.51,58.31a9.14,9.14,0,0,1,6.23-3.61,17.44,17.44,0,0,1,7.39.51c2.41.74,4.54,2,6.81,2.67a6.13,6.13,0,0,0,3.29.21,4.49,4.49,0,0,0,2.47-1.88h0a.74.74,0,0,1,1.21.85l0,0a5.86,5.86,0,0,1-3.38,2.28,7.36,7.36,0,0,1-3.92-.41c-2.4-.84-4.46-2.22-6.7-3a16.77,16.77,0,0,0-7.1-.86A9,9,0,0,0,102.51,58.31Z"/><path class="cls-1" d="M80.37,58.83A15.11,15.11,0,0,0,66.43,56c-2.31.74-4.43,2.13-6.84,3a10.8,10.8,0,0,1-3.88.81,5.88,5.88,0,0,1-3.87-1.48h0a.74.74,0,0,1-.06-1,.73.73,0,0,1,1-.07l0,0a4.45,4.45,0,0,0,2.93,1.28,9.58,9.58,0,0,0,3.46-.56c2.32-.74,4.51-2,7-2.7A15.48,15.48,0,0,1,80.37,58.83Z"/><path class="cls-2" d="M92.64,58.31A2.83,2.83,0,0,1,90.9,61.1a2.79,2.79,0,0,1-1.78.06,3.17,3.17,0,0,1-1.41-.88,5,5,0,0,1,.8.08c.26,0,.5,0,.74,0a3.36,3.36,0,0,0,1.29-.22A5.14,5.14,0,0,0,92.64,58.31Z"/><path class="cls-1" d="M86.23,41l.55,5c.09.82.21,1.65.34,2.47a15.81,15.81,0,0,0,.59,2.42,8.25,8.25,0,0,1-1-2.34,17.86,17.86,0,0,1-.46-2.49,23.7,23.7,0,0,1-.16-2.53A19.31,19.31,0,0,1,86.23,41Z"/><path class="cls-1" d="M96.09,39.07A43.19,43.19,0,0,1,95,44.6c-.24.91-.48,1.82-.79,2.71a13.26,13.26,0,0,1-1.1,2.61c.3-.89.51-1.8.74-2.71l.68-2.73C95,42.67,95.49,40.86,96.09,39.07Z"/><path class="cls-1" d="M43.92,70.94a137.22,137.22,0,0,0,5.16,20c2.15,6.55,4.61,13,6.83,19.59a122.47,122.47,0,0,1,5.21,20.22,88.56,88.56,0,0,1,1,10.4c.06,1.74,0,3.48,0,5.22a28.9,28.9,0,0,1-.65,5.16,49.55,49.55,0,0,0-.17-10.33c-.36-3.42-.88-6.83-1.52-10.21a159.18,159.18,0,0,0-5.66-19.83l-3.37-9.82c-1.09-3.29-2.17-6.59-3.11-9.94A91,91,0,0,1,43.92,70.94Z"/><path class="cls-1" d="M141.18,67.19c0,1.82-.08,3.64-.18,5.47s-.41,3.62-.68,5.42-.68,3.59-1.07,5.37-.89,3.53-1.42,5.27l-1.78,5.16c-.64,1.7-1.27,3.4-1.84,5.12-1.19,3.42-2.19,6.91-3.16,10.4-.49,1.74-.93,3.5-1.45,5.23s-.95,3.49-1.46,5.22l-1.4,5.23-1.31,5.23a136.77,136.77,0,0,0-3.75,21.25h-.2a71.43,71.43,0,0,1,1.9-21.74c.45-1.76.88-3.53,1.38-5.29l1.6-5.21c1.12-3.46,2.35-6.88,3.66-10.26s2.54-6.79,3.58-10.26,1.8-7,2.65-10.52c.41-1.76.82-3.51,1.3-5.24s.82-3.5,1.27-5.25.73-3.52,1.14-5.28.64-3.55,1-5.33Z"/><path class="cls-3" d="M126.49,73a2.57,2.57,0,0,0,0-.48c-.52-4-2.39-7.6-3.76-11.34-1.72-4.71-1-8-1.14-12.84-2.34-.78-7-2.36-8.88-3.95-2.9,4.12-7.28,9.12-11.84,11.25A21.07,21.07,0,0,1,86.12,57c-5.9-1.76-10.47-7.3-14.79-11.69a23.63,23.63,0,0,1-9.12,4.11c2.93,5.76-3.1,20.47-3.77,22.63-1.24,4,4-1,1,15.78,2.48-2.92,4.17-5.71,7.56-7.49A16.9,16.9,0,0,1,78.1,78.51a16.93,16.93,0,0,1,9.32,5.95,30.5,30.5,0,0,1,5.18,9.93c-.22-.66,1.09-2.84,1.38-3.47a29.2,29.2,0,0,1,1.86-3.44,23.56,23.56,0,0,1,5-5.79,18,18,0,0,1,16.15-3,12.5,12.5,0,0,1,8.52,8.17,21.09,21.09,0,0,1-1-8,9.39,9.39,0,0,1,1-3.18A7.41,7.41,0,0,0,126.49,73Z"/><path class="cls-1" d="M92.13,94.55A29.77,29.77,0,0,0,87,84.78,16.43,16.43,0,0,0,78,79a16.26,16.26,0,0,0-10.78,1.79c-2.57,1.35-4.12,3.28-5.9,5.52-.49.6-1,1.22-1.51,1.84l-1.19,1.41.32-1.82c1.91-10.81.37-12.34-.46-13.17-.62-.62-1-1.14-.51-2.67.08-.28.26-.78.49-1.43,1.58-4.38,5.76-16,3.3-20.82l-.29-.58.63-.14a23.29,23.29,0,0,0,8.94-4l.34-.25.31.31c.62.63,1.25,1.29,1.89,2,3.82,4,7.77,8.14,12.69,9.6a20.63,20.63,0,0,0,14.37-1.3c5-2.32,9.44-7.94,11.65-11.09l.32-.44L113,44c1.9,1.59,6.85,3.23,8.72,3.85l.33.11v.35c0,1.29,0,2.46,0,3.59C122,55,122,57.66,123.19,61c.37,1,.77,2,1.18,3a34,34,0,0,1,2.6,8.44,2.72,2.72,0,0,1,0,.57,6.09,6.09,0,0,1-.87,2.44l-.23.44a8.8,8.8,0,0,0-.92,3,20.68,20.68,0,0,0,1,7.76h0l-1,.27a12,12,0,0,0-8.18-7.83,17.59,17.59,0,0,0-15.69,2.93,23,23,0,0,0-4.92,5.66,31.23,31.23,0,0,0-1.83,3.39c-.06.14-.18.35-.31.61a9.26,9.26,0,0,0-1,2.5ZM75.2,77.72a14.89,14.89,0,0,1,3,.3,17.38,17.38,0,0,1,9.6,6.12,29.18,29.18,0,0,1,4.73,8.54c.18-.4.42-.87.71-1.41.12-.24.22-.43.28-.56a30.72,30.72,0,0,1,1.9-3.5,23.84,23.84,0,0,1,5.13-5.91,18.38,18.38,0,0,1,16.61-3.1,13.76,13.76,0,0,1,7,4.77,15.49,15.49,0,0,1-.14-4.14,9.84,9.84,0,0,1,1-3.34l.23-.45a5.26,5.26,0,0,0,.76-2h0a1.7,1.7,0,0,0,0-.39,33.54,33.54,0,0,0-2.54-8.19c-.41-1-.82-2-1.19-3-1.3-3.55-1.24-6.29-1.18-9.46,0-1,0-2.06,0-3.19-3-1-6.4-2.25-8.28-3.59-2.36,3.28-6.78,8.67-11.74,11A21.64,21.64,0,0,1,86,57.48c-5.17-1.54-9.4-6-13.12-9.87L71.28,46a24.26,24.26,0,0,1-8.37,3.81c2.1,5.47-1.95,16.71-3.5,21-.23.63-.4,1.11-.49,1.38-.33,1.08-.17,1.24.27,1.68,1,1,2.54,2.54,1,12.19l.31-.38c1.77-2.23,3.46-4.33,6.22-5.78A18.32,18.32,0,0,1,75.2,77.72Z"/><path class="cls-1" d="M56.51,72.49a5.62,5.62,0,0,1,3.16,3.2,12.71,12.71,0,0,1,.9,4.5,33.18,33.18,0,0,1-1.16,9A41.6,41.6,0,0,0,57.64,98a11.66,11.66,0,0,0,2.54,8.27,14.23,14.23,0,0,0,7.35,4.54,20.93,20.93,0,0,0,8.7.41,15.78,15.78,0,0,0,7.87-3.5A12.11,12.11,0,0,0,87.94,100H88a11.79,11.79,0,0,1-3.41,8.28,15.74,15.74,0,0,1-8.23,4,20.28,20.28,0,0,1-9.13-.55,14,14,0,0,1-7.51-5.09A13.51,13.51,0,0,1,57.3,98,48.7,48.7,0,0,1,58.62,89a43.22,43.22,0,0,0,1.19-8.81,13.1,13.1,0,0,0-.62-4.32,5.66,5.66,0,0,0-2.72-3.3Z"/><path class="cls-1" d="M127.38,72.56a11.91,11.91,0,0,0-2.71,8.21,47.72,47.72,0,0,0,1.64,8.76,35.85,35.85,0,0,1,1.18,9,14.56,14.56,0,0,1-3.17,8.43,14.8,14.8,0,0,1-7.73,4.8,21.66,21.66,0,0,1-9.17.42,16.4,16.4,0,0,1-8.26-4,10.27,10.27,0,0,1-2.61-3.8A9.67,9.67,0,0,1,96,99.91h.1a9.85,9.85,0,0,0,.92,4.31,10.3,10.3,0,0,0,2.67,3.43,16.47,16.47,0,0,0,7.92,3.49,22.23,22.23,0,0,0,8.75-.28,15,15,0,0,0,7.56-4.26,11.36,11.36,0,0,0,2.34-3.74,12.65,12.65,0,0,0,.9-4.34,31.17,31.17,0,0,0-1.64-8.78,36.3,36.3,0,0,1-1.6-9c0-.38,0-.77.06-1.15a5.58,5.58,0,0,1,.15-1.15l.24-1.13c.1-.38.27-.73.39-1.09a9.24,9.24,0,0,1,1.09-2,17.43,17.43,0,0,1,1.47-1.73Z"/><path class="cls-3" d="M93.43,93.63a.55.55,0,0,1-1.06,0,19.35,19.35,0,0,0-4-8.21c-5-6.17-10.4-7.72-15-7.36-4.82.37-9.36,2.19-12.12,6.32-3.26,4.85-4.82,13-3.17,18.64,1,3.41,3.25,6.29,5,9.37,8.81,15.52,3.13,32.58-6,46.45,0,0,2.75.06,4,.06h67.61s-2.21-2.87-2.67-3.45c-6-7.46-12.18-18-11.34-27.89,1-11.56,12-18.51,12.11-30.28,0-5.35-1.29-11.43-5.21-15.37-4.81-4.84-12.77-4.63-18.48-1.61C97.65,83.15,95.23,88.09,93.43,93.63Z"/><path class="cls-1" d="M128.69,159.85H61.08c-1.29,0-4.06-.06-4.06-.06a1,1,0,0,1-.85-.53,1,1,0,0,1,0-1C64,146.44,71.29,129,62.14,112.84c-.49-.87-1-1.72-1.56-2.57a28.82,28.82,0,0,1-3.53-7c-1.67-5.67-.22-14.22,3.3-19.47,2.65-4,7.1-6.31,12.86-6.75,6-.46,11.35,2.13,15.9,7.72A20.56,20.56,0,0,1,93,91.94c1.72-4.9,4.23-9.66,9.68-12.55,5.64-3,14.19-3.7,19.64,1.78,4.87,4.9,5.53,12.18,5.49,16.08-.06,6.38-3.18,11.4-6.19,16.25-2.81,4.52-5.46,8.78-5.92,14.11-.89,10.41,6.59,21.5,11.13,27.18.47.58,2.69,3.47,2.69,3.47a1,1,0,0,1-.79,1.59Zm-69.87-2,2.26,0h65.61L125.25,156c-5.77-7.22-12.45-18-11.55-28.58.49-5.8,3.4-10.47,6.2-15,3-4.83,5.85-9.4,5.9-15.23.06-6.12-1.73-11.46-4.92-14.67-4.53-4.56-12.14-4.17-17.32-1.43C98.22,84,96,89,94.37,93.93h0a1.53,1.53,0,0,1-3-.13A18.36,18.36,0,0,0,87.58,86c-4.12-5.06-8.9-7.41-14.21-7-3.59.28-8.47,1.52-11.38,5.88-3.23,4.82-4.57,12.65-3.05,17.83a27.21,27.21,0,0,0,3.31,6.51c.54.86,1.1,1.75,1.61,2.65C73.11,128.17,66.49,145.61,58.82,157.85Z"/><path class="cls-1" d="M83.06,26.64c3.4-.38,6.79-.59,10.18-.69,1.7-.07,3.4-.07,5.1-.1.84,0,1.69,0,2.54,0h.2l.13,0a1.05,1.05,0,0,1,.25.08,1.09,1.09,0,0,1,.29.2,1.57,1.57,0,0,1,.35.56,4.84,4.84,0,0,1,.21.75,13.17,13.17,0,0,1,.16,1.34c.07.86.07,1.77.09,2.58a12.42,12.42,0,0,0,.3,2.42A11.41,11.41,0,0,0,105,38.26c2,2.68,5,4.47,7.89,6.13a32.41,32.41,0,0,0,4.46,2.21A18.51,18.51,0,0,0,122,47.81a24,24,0,0,0,4.85-.47,10.4,10.4,0,0,1,2.79,0,12.32,12.32,0,0,1,2.68.74,16.59,16.59,0,0,1,7.87,7.07,14.43,14.43,0,0,1,1.92,10.09l-.19,0a15.54,15.54,0,0,0-3-9.23A16.46,16.46,0,0,0,131.53,50a8.68,8.68,0,0,0-4.5-.64,24.05,24.05,0,0,1-5.26.26,21.21,21.21,0,0,1-9.51-4.3,36,36,0,0,1-7.77-6.7A15.85,15.85,0,0,1,102,34.09a14.91,14.91,0,0,1-.61-2.58c-.1-.88-.21-1.66-.37-2.48-.07-.41-.17-.8-.27-1.17a2.61,2.61,0,0,0-.15-.47c0-.05-.07-.08,0,0a.47.47,0,0,0,.16.11.56.56,0,0,0,.17.06h-.06c-.85,0-1.69,0-2.54,0-1.7,0-3.39,0-5.08-.1-3.39-.1-6.78-.31-10.17-.69Z"/><path class="cls-1" d="M100.89,26.83c-3.43.35-6.86.55-10.3.67-1.71.05-3.43.09-5.15.11H83.57l.15,0c.33-.11.27-.18.28-.15a1.13,1.13,0,0,0-.09.15,16.69,16.69,0,0,0-.68,2.27l-.56,2.48c-.2.85-.32,1.64-.56,2.56a11.36,11.36,0,0,1-2.77,4.55,29.4,29.4,0,0,1-4,3.34c-1.43,1-2.75,2.05-4.13,3.11a21.92,21.92,0,0,1-4.49,2.81,12.31,12.31,0,0,1-5.41,1.06c-1.82,0-3.51-.3-5.15-.39a10.62,10.62,0,0,0-4.58.68c-2.86,1.15-4.81,4-5.85,7.12a24.2,24.2,0,0,0-1.16,4.89,39.12,39.12,0,0,0-.38,5.1H44a26.51,26.51,0,0,1,.34-10.41,15.36,15.36,0,0,1,2.17-5,10.28,10.28,0,0,1,4.26-3.62,11.57,11.57,0,0,1,5.5-.92c1.79.09,3.49.4,5.11.49A10.5,10.5,0,0,0,66,47a40.29,40.29,0,0,0,4.51-2.16c3-1.7,6.08-3.34,8.32-5.86A9,9,0,0,0,81,34.64c.21-1.6.32-3.4.62-5.11a11.79,11.79,0,0,1,.72-2.68,3,3,0,0,1,.23-.41,1.3,1.3,0,0,1,.76-.56,1.66,1.66,0,0,1,.22,0h.63l1.28,0c1.72,0,3.44.05,5.15.11,3.44.11,6.87.31,10.3.66Z"/></svg>