<svg id="图层_1" data-name="图层 1" xmlns="http://www.w3.org/2000/svg" viewBox="0 0 186 186"><defs><style>.cls-1{fill:#9b9692;}.cls-2{fill:#f2f2f2;}</style></defs><path class="cls-1" d="M103.54,59.07a9.18,9.18,0,0,1,6.24-3.61,17.38,17.38,0,0,1,7.38.51c2.41.74,4.55,2,6.81,2.67a6.16,6.16,0,0,0,3.3.21A4.53,4.53,0,0,0,129.74,57h0a.73.73,0,0,1,1-.18.75.75,0,0,1,.18,1l0,0a5.89,5.89,0,0,1-3.38,2.28,7.36,7.36,0,0,1-3.92-.41c-2.4-.84-4.46-2.22-6.7-3a16.8,16.8,0,0,0-7.11-.86A9,9,0,0,0,103.54,59.07Z"/><path class="cls-1" d="M81.41,59.59a15.11,15.11,0,0,0-13.94-2.88c-2.31.74-4.44,2.13-6.84,3a10.8,10.8,0,0,1-3.88.81,5.91,5.91,0,0,1-3.88-1.48h0a.73.73,0,0,1-.07-1A.74.74,0,0,1,53.84,58l0,0a4.48,4.48,0,0,0,2.94,1.28,9.61,9.61,0,0,0,3.46-.56c2.32-.74,4.5-2,7-2.7A15.49,15.49,0,0,1,81.41,59.59Z"/><path class="cls-1" d="M93.68,59.07a2.76,2.76,0,0,1-.4,1.62,2.66,2.66,0,0,1-1.34,1.17,2.79,2.79,0,0,1-1.78.06,4.22,4.22,0,0,1-.78-.35,5.29,5.29,0,0,1-.64-.53,4.92,4.92,0,0,1,.8.08c.26,0,.51,0,.74,0a3.38,3.38,0,0,0,1.3-.22A5.19,5.19,0,0,0,93.68,59.07Z"/><path class="cls-1" d="M87.26,41.8l.56,5c.09.82.21,1.65.34,2.47a15.77,15.77,0,0,0,.58,2.42,8.23,8.23,0,0,1-.95-2.34,16.51,16.51,0,0,1-.46-2.49,23.71,23.71,0,0,1-.17-2.53A21.24,21.24,0,0,1,87.26,41.8Z"/><path class="cls-1" d="M97.13,39.83a45,45,0,0,1-1.07,5.53c-.24.91-.49,1.82-.79,2.71a14.58,14.58,0,0,1-1.1,2.61c.29-.89.5-1.8.73-2.71l.68-2.73C96.05,43.43,96.53,41.62,97.13,39.83Z"/><path class="cls-1" d="M84,27.4c3.39-.38,6.79-.59,10.18-.69,1.7-.07,3.4-.07,5.09-.1.85,0,1.7,0,2.55,0H102l.14,0a1.23,1.23,0,0,1,.25.08,1.21,1.21,0,0,1,.29.21,1.62,1.62,0,0,1,.35.55,4.71,4.71,0,0,1,.2.75,11.07,11.07,0,0,1,.16,1.34c.07.86.08,1.77.09,2.58a13.25,13.25,0,0,0,.31,2.42A11.14,11.14,0,0,0,105.93,39c2,2.68,5,4.47,7.88,6.13a33,33,0,0,0,4.46,2.21,18.74,18.74,0,0,0,4.66,1.21,23.83,23.83,0,0,0,4.85-.47,10.4,10.4,0,0,1,2.79,0,12.57,12.57,0,0,1,2.69.74,16.63,16.63,0,0,1,7.87,7.07A14.43,14.43,0,0,1,143.05,66l-.2,0a15.48,15.48,0,0,0-3-9.23,16.42,16.42,0,0,0-7.33-5.95,10.58,10.58,0,0,0-2.21-.62,10.81,10.81,0,0,0-2.28,0,24.15,24.15,0,0,1-5.27.26,21.12,21.12,0,0,1-9.5-4.3,36,36,0,0,1-7.78-6.7,15.58,15.58,0,0,1-2.52-4.55,13.35,13.35,0,0,1-.61-2.57c-.1-.89-.21-1.67-.37-2.49-.08-.4-.17-.8-.27-1.17a2.55,2.55,0,0,0-.16-.47s-.07-.08,0,0a.47.47,0,0,0,.16.11.56.56,0,0,0,.17.06h-.06c-.85,0-1.7,0-2.55,0-1.69,0-3.38,0-5.08-.1-3.38-.1-6.77-.31-10.16-.69Z"/><path class="cls-1" d="M101.85,27.59c-3.43.35-6.87.55-10.3.67-1.72,0-3.43.09-5.15.11H84.53l.14,0c.33-.11.28-.18.28-.15a1.55,1.55,0,0,0-.08.15,15.38,15.38,0,0,0-.68,2.27l-.57,2.48c-.19.85-.31,1.64-.56,2.56a11.25,11.25,0,0,1-2.77,4.55,28.8,28.8,0,0,1-4,3.34c-1.42,1-2.75,2-4.12,3.11a21.72,21.72,0,0,1-4.5,2.81,12.24,12.24,0,0,1-5.4,1.06c-1.82,0-3.51-.3-5.16-.39a10.6,10.6,0,0,0-4.57.68c-2.86,1.15-4.82,4-5.86,7.12a24.19,24.19,0,0,0-1.15,4.89,37.57,37.57,0,0,0-.38,5.1H45a26.7,26.7,0,0,1,.35-10.41,15.14,15.14,0,0,1,2.17-4.95A10.23,10.23,0,0,1,51.73,49a11.55,11.55,0,0,1,5.5-.92c1.79.09,3.49.4,5.1.49A10.54,10.54,0,0,0,67,47.8a38.61,38.61,0,0,0,4.51-2.16c3-1.7,6.08-3.34,8.32-5.86a9.09,9.09,0,0,0,2.13-4.38c.21-1.6.32-3.4.62-5.11a12.28,12.28,0,0,1,.71-2.68,3.25,3.25,0,0,1,.24-.41,1.27,1.27,0,0,1,.76-.56l.22,0h.62l1.29,0c1.72,0,3.43.05,5.15.11,3.43.11,6.87.31,10.3.66Z"/><path class="cls-1" d="M45,71.7a137.22,137.22,0,0,0,5.16,20c2.15,6.55,4.61,13,6.82,19.59a122.5,122.5,0,0,1,5.22,20.22,93.06,93.06,0,0,1,1,10.4c.06,1.74,0,3.48,0,5.22a28.9,28.9,0,0,1-.65,5.16A49.55,49.55,0,0,0,62.26,142c-.35-3.42-.87-6.83-1.52-10.21A157.44,157.44,0,0,0,55.09,112l-3.37-9.82c-1.09-3.29-2.17-6.59-3.11-9.94A91,91,0,0,1,45,71.7Z"/><path class="cls-1" d="M142.22,68c0,1.77-.07,3.54-.16,5.31s-.4,3.52-.65,5.28-.66,3.48-1,5.21-.89,3.42-1.39,5.12l-1.76,5c-.63,1.65-1.26,3.3-1.82,5-1.18,3.32-2.18,6.7-3.14,10.08-.48,1.69-.92,3.4-1.43,5.08s-1,3.38-1.45,5.06L128,124.11c-.41,1.7-.86,3.39-1.29,5.08a131.09,131.09,0,0,0-3.63,20.64h-.2a68.37,68.37,0,0,1,1.78-21.13c.44-1.71.87-3.43,1.36-5.14l1.58-5.06c1.11-3.35,2.33-6.66,3.63-9.93s2.53-6.58,3.56-9.94,1.78-6.8,2.61-10.2q.57-2.57,1.27-5.09c.4-1.7.8-3.4,1.23-5.1s.71-3.42,1.11-5.12.62-3.45,1-5.18Z"/><path class="cls-1" d="M85.11,77.41a29.47,29.47,0,0,1,5.16,3.76,15.73,15.73,0,0,1,2.15,2.45,8.45,8.45,0,0,1,1.4,3.07.58.58,0,0,1-.92.57h0a.73.73,0,0,1-.23-.29.81.81,0,0,1,0-.19,1.15,1.15,0,0,1,0-.25,1.62,1.62,0,0,1,.06-.29,2.76,2.76,0,0,1,.15-.46,8,8,0,0,1,.36-.78A15.76,15.76,0,0,1,94,83.54,13.65,13.65,0,0,1,96.18,81a14.24,14.24,0,0,1,5.63-3.3.07.07,0,0,1,.07.13,36.87,36.87,0,0,0-4.65,4.21c-.69.77-1.39,1.53-2,2.34a14.72,14.72,0,0,0-.89,1.23,6.88,6.88,0,0,0-.36.64,2.48,2.48,0,0,0-.13.3l0,.09s0,0,0,0,0,0,0-.09a.39.39,0,0,0-.17-.21l-.93.56a7.62,7.62,0,0,0-1-2.73,15.72,15.72,0,0,0-1.87-2.45A28.76,28.76,0,0,0,85,77.54a.08.08,0,0,1,0-.1A.07.07,0,0,1,85.11,77.41Z"/><path class="cls-2" d="M58,159.62a1,1,0,0,1-.93-1.29l.06-.2a1.56,1.56,0,0,1,.18-.45,99.89,99.89,0,0,0,9.79-22.2c2.66-8.67-.45-16.91-3.53-22.29-.46-.79-.93-1.57-1.41-2.36a32.12,32.12,0,0,1-4.08-8.51c-1.32-5.2-.13-10.59,1-15.81.44-2,.85-3.84,1.12-5.69a.39.39,0,0,0,0-.26c-.32-.38-1.77-.41-2.48-.42l-.84,0c-1.15-.09-2.32-.13-3.45-.17-1.29,0-2.63-.09-4-.21-.31,0-.62,0-.92,0a3.86,3.86,0,0,0-1.31.19c-.51.17-1.08.6-1.14,1a1,1,0,0,1-.6.79,1,1,0,0,1-1-.14c-1.38-1.09-1.92-2.92-2.33-4.55a22.31,22.31,0,0,1-.41-5.91,4.77,4.77,0,0,1,2.07-3.87,1.5,1.5,0,0,1,.32-.19,6.85,6.85,0,0,1,2.32-.39,15.08,15.08,0,0,1,3.4.51c.47.11.94.22,1.41.3A113.25,113.25,0,0,1,81.59,77.58c1.36.67,2.69,1.43,4,2.17l1.77,1a.35.35,0,0,1,.12.07,25,25,0,0,1,6,6.31l.15-.2.52-.63a27.35,27.35,0,0,1,5.72-5.53l.82-.47c2.48-1.42,5-2.88,7.7-4.08a114.46,114.46,0,0,1,26.7-8.6l.31,0c1.86-.34,3.73-.67,5.59-1a5.45,5.45,0,0,1,.87-.07,2.39,2.39,0,0,1,2,.79,2.89,2.89,0,0,1,.41,2.45c-.21,1.06-.33,2.18-.45,3.26a21.91,21.91,0,0,1-1.59,7l-.19.48a2.22,2.22,0,0,1-2.39,1.7l-7.52,0c-.46,0-.92,0-1.4,0s-1.08,0-1.62,0a10.51,10.51,0,0,0-3.52.49,1.08,1.08,0,0,0-.38.19c0,.06,0,.47,0,.79a36.35,36.35,0,0,0,1.23,6.62,29.41,29.41,0,0,1,1.27,9.46,16,16,0,0,1-2,6.77c-.84,1.43-1.46,2.3-2.06,3.15-1.19,1.66-2.3,3.23-4.93,9.15A30,30,0,0,0,115.87,132c.27,4.24,1.81,8.62,4.85,13.8,1.31,2.24,2.77,4.41,4.16,6.44.13.2.39.64.72,1.19a29.53,29.53,0,0,0,2.82,4.23,1,1,0,0,1-.28,1.93Z"/><path class="cls-1" d="M141.79,67.51c1.19,0,1.66.67,1.39,2.07-.64,3.35-.49,6.85-2,10-.46,1-.38,1.61-1.69,1.61h0L132,81.17c-1,0-2-.07-3-.07a11.12,11.12,0,0,0-3.86.56c-1.09.4-1,.8-1,2,.33,5.42,2.91,10.32,2.49,15.91a14.63,14.63,0,0,1-1.91,6.35c-2.53,4.31-3.1,3.52-7,12.4a30.93,30.93,0,0,0-2.81,13.79c.33,5.1,2.43,9.86,5,14.23,1.3,2.22,2.74,4.37,4.19,6.5.57.83,3.28,5.81,4.08,5.81H58a4.39,4.39,0,0,1,.15-.45,100.39,100.39,0,0,0,9.89-22.42c2.43-7.92.42-16-3.62-23.07-2-3.46-4.4-6.76-5.38-10.62C57.31,95.21,60.18,87.77,61.2,81c.31-2.08-2.89-1.74-4.24-1.85-2.47-.2-4.93-.16-7.39-.38-.34,0-.68,0-1,0a5,5,0,0,0-1.63.24,2.55,2.55,0,0,0-1.8,1.85c-1.16-.91-1.64-2.64-2-4a21.67,21.67,0,0,1-.38-5.7A3.78,3.78,0,0,1,44.48,68l0,0a5.79,5.79,0,0,1,2-.33,27.11,27.11,0,0,1,4.64.79,112.07,112.07,0,0,1,30,10c1.95,1,3.81,2.1,5.7,3.16a23.21,23.21,0,0,1,6.07,6.61c.13.21.26.31.41.31a.57.57,0,0,0,.38-.22c.39-.45.74-.92,1.12-1.37a26.62,26.62,0,0,1,5.51-5.35c2.75-1.57,5.49-3.17,8.39-4.47A113.82,113.82,0,0,1,135.2,68.6c2-.35,3.92-.7,5.88-1a4.74,4.74,0,0,1,.71-.06m0-2a6.22,6.22,0,0,0-1,.09c-1.92.31-3.85.66-5.72,1l-.2,0a115.31,115.31,0,0,0-26.93,8.67c-2.71,1.22-5.29,2.69-7.78,4.12l-.78.44-.1.06a27.27,27.27,0,0,0-5.78,5.54,26.62,26.62,0,0,0-5.43-5.44,1.43,1.43,0,0,0-.24-.16l-1.76-1c-1.3-.74-2.64-1.51-4-2.19A114.37,114.37,0,0,0,51.48,66.49c-.44-.08-.89-.18-1.37-.29a16,16,0,0,0-3.62-.53,7.76,7.76,0,0,0-2.65.44,1.93,1.93,0,0,0-.59.34A5.77,5.77,0,0,0,40.8,71a23.82,23.82,0,0,0,.43,6.21c.33,1.29.92,3.69,2.68,5.08a2,2,0,0,0,3.17-1.22,1.05,1.05,0,0,1,.49-.32,3,3,0,0,1,1-.13c.23,0,.5,0,.83,0,1.35.13,2.7.17,4,.22s2.29.08,3.41.17c.25,0,.56,0,.9,0s1,0,1.46.09c-.27,1.64-.63,3.32-1,5.09-1.17,5.33-2.38,10.84-1,16.26a32.47,32.47,0,0,0,4.19,8.78c.46.77,1,1.56,1.39,2.34,3,5.21,6,13.18,3.45,21.52a98.72,98.72,0,0,1-9.7,22,3.19,3.19,0,0,0-.28.69l0,.16A2,2,0,0,0,58,160.61h70.13a2,2,0,0,0,.83-3.77,35.72,35.72,0,0,1-2.52-3.89c-.38-.63-.6-1-.76-1.23-1.38-2-2.83-4.18-4.12-6.39-2.95-5-4.45-9.29-4.72-13.36a28.92,28.92,0,0,1,2.64-12.86c2.59-5.82,3.63-7.29,4.83-9,.58-.82,1.25-1.76,2.11-3.22a16.79,16.79,0,0,0,2.18-7.2,30.47,30.47,0,0,0-1.29-9.77,35.19,35.19,0,0,1-1.2-6.41v-.12a10.24,10.24,0,0,1,2.88-.33q.8,0,1.59,0l1.42,0,7.5,0a3.2,3.2,0,0,0,3.34-2.34c0-.12.1-.26.17-.41a22.94,22.94,0,0,0,1.67-7.31c.12-1.11.24-2.16.44-3.19a3.79,3.79,0,0,0-.62-3.26,3.34,3.34,0,0,0-2.71-1.15Z"/><path class="cls-1" d="M60.52,79.88A97.18,97.18,0,0,1,77.66,86,64.27,64.27,0,0,1,93,95.91l.21.19.11.1.06,0a.68.68,0,0,0-.19-.12.67.67,0,0,0-.65.08c-.23.22-.09.1-.08.06l.23-.27c.31-.36.59-.58.88-.88.59-.52,1.18-1,1.79-1.49,1.21-1,2.47-1.84,3.75-2.69s2.6-1.63,4-2.38l2-1,2.09-1A52.92,52.92,0,0,1,116,83.63c1.52-.28,3-.63,4.54-.77a41,41,0,0,1,4.57-.25.1.1,0,0,1,0,.2h0c-1.49.33-3,.5-4.43.93s-2.89.79-4.32,1.21A77.63,77.63,0,0,0,108,88.33l-2,1-2,1c-1.3.71-2.61,1.43-3.88,2.22S97.65,94.16,96.45,95c-.61.43-1.19.88-1.76,1.34-.25.23-.57.49-.76.69l-.14.16a3.43,3.43,0,0,1-.27.27.93.93,0,0,1-.92.11,1.08,1.08,0,0,1-.3-.2l0-.05-.11-.09-.2-.19a63,63,0,0,0-14.72-10.2,96.37,96.37,0,0,0-16.75-6.8A.1.1,0,0,1,60.4,80,.11.11,0,0,1,60.52,79.88Z"/></svg>