<svg id="图层_1" data-name="图层 1" xmlns="http://www.w3.org/2000/svg" viewBox="0 0 186 186"><defs><style>.cls-1{fill:#9b9692;}.cls-2{fill:#f2f2f2;}</style></defs><path class="cls-1" d="M102.73,58.78a9.33,9.33,0,0,1,6.33-3.66,17.59,17.59,0,0,1,7.49.53c2.45.75,4.61,2,6.91,2.71a6.2,6.2,0,0,0,3.34.2,4.53,4.53,0,0,0,2.51-1.9h0a.75.75,0,1,1,1.23.86l0,0a5.93,5.93,0,0,1-3.43,2.31,7.39,7.39,0,0,1-4-.41c-2.44-.86-4.53-2.25-6.8-3.07a17,17,0,0,0-7.21-.86A9.14,9.14,0,0,0,102.73,58.78Z"/><path class="cls-1" d="M80.27,59.32a15.34,15.34,0,0,0-14.15-2.93c-2.34.75-4.5,2.17-6.94,3.09a10.91,10.91,0,0,1-3.94.82,6,6,0,0,1-3.93-1.5h0a.76.76,0,0,1-.06-1.06.75.75,0,0,1,1.06-.06l0,0a4.59,4.59,0,0,0,3,1.29,9.41,9.41,0,0,0,3.5-.57c2.36-.74,4.58-2.06,7.12-2.74A15.72,15.72,0,0,1,80.27,59.32Z"/><path class="cls-1" d="M92.72,58.78a2.85,2.85,0,0,1-.4,1.65A2.72,2.72,0,0,1,91,61.62a2.79,2.79,0,0,1-1.8.06,4,4,0,0,1-.79-.35,5.64,5.64,0,0,1-.65-.54,5.05,5.05,0,0,1,.81.08c.26,0,.51,0,.75,0a3.49,3.49,0,0,0,1.32-.22A5.31,5.31,0,0,0,92.72,58.78Z"/><path class="cls-1" d="M86.21,41.27l.56,5.06q.15,1.37.39,2.73a15.78,15.78,0,0,0,.55,2.23A8.13,8.13,0,0,1,86.77,49a15.19,15.19,0,0,1-.45-2.23,24.38,24.38,0,0,1-.21-3A19.86,19.86,0,0,1,86.21,41.27Z"/><path class="cls-1" d="M96.22,39.26a44.61,44.61,0,0,1-1.09,5.62c-.24.92-.49,1.85-.8,2.75a14.29,14.29,0,0,1-1.11,2.65c.3-.91.51-1.84.74-2.76l.69-2.76C95.13,42.92,95.61,41.08,96.22,39.26Z"/><path class="cls-1" d="M82.92,26.65c3.44-.39,6.88-.59,10.33-.7,1.72-.07,3.44-.07,5.17-.1.86,0,1.72,0,2.58,0h.34a1.47,1.47,0,0,1,.25.08,1.37,1.37,0,0,1,.65.78,4.65,4.65,0,0,1,.21.76,13.22,13.22,0,0,1,.16,1.36c.07.87.07,1.79.09,2.61A12.74,12.74,0,0,0,103,34a11.55,11.55,0,0,0,2.14,4.5c2.06,2.71,5,4.53,8,6.21a33.47,33.47,0,0,0,4.53,2.25,18.66,18.66,0,0,0,4.72,1.22,24,24,0,0,0,4.93-.48,10.3,10.3,0,0,1,2.83,0,12.84,12.84,0,0,1,2.72.74,16.85,16.85,0,0,1,8,7.18,14.69,14.69,0,0,1,1.95,10.25l-.2,0a15.76,15.76,0,0,0-3.09-9.37,16.72,16.72,0,0,0-7.43-6,8.92,8.92,0,0,0-4.56-.66,24.8,24.8,0,0,1-5.35.28,21.5,21.5,0,0,1-9.64-4.38,36.23,36.23,0,0,1-7.89-6.79,15.71,15.71,0,0,1-2.56-4.62,13.77,13.77,0,0,1-.62-2.61c-.11-.9-.22-1.69-.38-2.53-.07-.4-.17-.81-.27-1.18a3.15,3.15,0,0,0-.16-.47c0-.05-.07-.09,0,0a.68.68,0,0,0,.16.11.78.78,0,0,0,.18.05H101c-.86,0-1.72,0-2.58,0-1.72,0-3.44,0-5.16-.1-3.44-.11-6.87-.32-10.31-.7Z"/><path class="cls-1" d="M101,26.85c-3.48.35-7,.56-10.45.67-1.74.06-3.49.1-5.23.11l-1.3,0h-.6l.15,0c.34-.12.28-.19.28-.15l-.08.14a15.93,15.93,0,0,0-.69,2.31l-.57,2.51c-.2.86-.32,1.67-.57,2.6a11.43,11.43,0,0,1-2.82,4.62,29.08,29.08,0,0,1-4.06,3.39c-1.44,1-2.78,2.08-4.18,3.16a22.31,22.31,0,0,1-4.56,2.85,12.48,12.48,0,0,1-5.48,1.07c-1.85,0-3.57-.3-5.24-.39a10.74,10.74,0,0,0-4.64.68c-2.9,1.17-4.88,4.06-5.94,7.23a24.37,24.37,0,0,0-1.17,5,38.63,38.63,0,0,0-.39,5.18h-.2a26.94,26.94,0,0,1,.36-10.57,15.45,15.45,0,0,1,2.2-5,10.38,10.38,0,0,1,4.32-3.67,11.77,11.77,0,0,1,5.58-.94c1.81.09,3.54.41,5.18.5a10.66,10.66,0,0,0,4.71-.74,39.1,39.1,0,0,0,4.58-2.2c3-1.73,6.17-3.39,8.45-5.95a9.2,9.2,0,0,0,2.16-4.44c.21-1.63.32-3.45.63-5.18a12.09,12.09,0,0,1,.72-2.72,2.72,2.72,0,0,1,.24-.42,1.3,1.3,0,0,1,.77-.57l.22,0H84l1.3,0c1.74,0,3.49.05,5.23.11,3.48.11,7,.31,10.45.67Z"/><path class="cls-1" d="M43.28,71.6a140.66,140.66,0,0,0,5.23,20.33c2.19,6.65,4.68,13.2,6.93,19.88a124.12,124.12,0,0,1,5.29,20.52,91.14,91.14,0,0,1,1,10.55c.06,1.77,0,3.53,0,5.3a29.69,29.69,0,0,1-.66,5.24,51,51,0,0,0-.18-10.48c-.36-3.48-.89-6.94-1.54-10.36a162.25,162.25,0,0,0-5.74-20.13l-3.42-10C49,99.15,47.94,95.8,47,92.4A92,92,0,0,1,43.28,71.6Z"/><path class="cls-1" d="M142,67.8c0,1.79-.07,3.59-.15,5.39s-.41,3.57-.66,5.35-.68,3.53-1,5.29-.9,3.48-1.41,5.2l-1.79,5.07c-.64,1.68-1.27,3.35-1.85,5-1.19,3.37-2.2,6.79-3.18,10.23-.49,1.71-.93,3.44-1.45,5.15s-1,3.43-1.48,5.13l-1.4,5.14c-.41,1.73-.86,3.44-1.3,5.16a133.55,133.55,0,0,0-3.69,20.94h-.2a69.12,69.12,0,0,1,1.81-21.44c.45-1.74.88-3.49,1.37-5.21l1.61-5.14c1.12-3.4,2.37-6.76,3.69-10.08s2.56-6.67,3.61-10.08,1.8-6.91,2.64-10.36c.4-1.73.82-3.46,1.3-5.16s.81-3.45,1.25-5.17.72-3.47,1.12-5.21.63-3.5,1-5.25Z"/><path class="cls-2" d="M127.1,158.85c-7.06-.07-14.57-.13-22-.13h-3.68c-3.83,0-8.71,0-13.78,0-13.43,0-28.18,0-28.18,0l-.79,0c2.06-4.11,8-16.14,10-23.42a24.33,24.33,0,0,0-.16-13.34,35.57,35.57,0,0,0-3.86-9.57,31.85,31.85,0,0,0-2.49-3.43,26.75,26.75,0,0,1-2.7-3.84,13.06,13.06,0,0,1-1.47-6.42,29.43,29.43,0,0,1,1.51-7.61c.41-1.44.84-2.93,1.14-4.44a21.11,21.11,0,0,0,.42-6,18.5,18.5,0,0,0-.56-3.17,10.77,10.77,0,0,0-.45-1.1A7.29,7.29,0,0,1,59.6,75c.06-1,.22-1.94.38-3s.35-2.14.42-3.24l.1-1.59c.16-2.3.32-4.69.26-7.07V60a1.89,1.89,0,0,0,0-.76,3,3,0,0,0,0-1.29,15.48,15.48,0,0,0-1.45-7l-.21-.47a3.09,3.09,0,0,1-.36-1.09,1.38,1.38,0,0,1,.56-.09,8.45,8.45,0,0,1,1.41.19,8.9,8.9,0,0,0,1.48.18h.54c1.1,0,1.3.1,1.92,1.61.15.35.29.71.42,1.07a15.3,15.3,0,0,0,1.86,3.73,54.11,54.11,0,0,0,5.38,6.14,52.27,52.27,0,0,0,12.94,9.24,64.43,64.43,0,0,0,19.17,5.87l1,.16a74.64,74.64,0,0,0,11.34,1.18,24.39,24.39,0,0,0,6.55-.79,2.79,2.79,0,0,1,.49,0l.31,0c0,.28-.14.66-.2.9a5.87,5.87,0,0,0-.22,1.22,16.92,16.92,0,0,0,.34,3.55c.29,1.51.73,3,1.15,4.44.34,1.16.66,2.26.91,3.37,1.07,4.7,1.1,9.22.08,12.08-1.35,3.78-2.34,4.78-3.58,6a19.26,19.26,0,0,0-3.81,5.25,33.51,33.51,0,0,0,1.15,32.64c1.38,2.29,2.83,4.5,4.31,6.76.84,1.27,2.27,3.31,3.27,4.73Z"/><path class="cls-1" d="M60.13,50.43l.36.06a9.18,9.18,0,0,0,1.65.2h.55a2.72,2.72,0,0,1,.52,0,4.24,4.24,0,0,1,.48,1l.41,1a15.71,15.71,0,0,0,2,4A53.41,53.41,0,0,0,84.76,72.37a65.67,65.67,0,0,0,19.47,6l1,.16a75,75,0,0,0,11.5,1.19,26.52,26.52,0,0,0,6.05-.63,4.22,4.22,0,0,0-.12.92,17.07,17.07,0,0,0,.36,3.76c.3,1.55.74,3.07,1.17,4.53.33,1.14.65,2.23.9,3.31,1,4.53,1.07,8.83.11,11.52-1.28,3.57-2.2,4.5-3.35,5.68a20.09,20.09,0,0,0-4,5.49,34.47,34.47,0,0,0,1.18,33.62c1.36,2.27,2.83,4.51,4.33,6.79.56.85,1.38,2,2.16,3.16-6.56-.06-13.49-.11-20.39-.11h-3.72l-13.77,0c-11.57,0-24.12,0-27.38,0,2.49-5,7.52-15.54,9.41-22.18a25.29,25.29,0,0,0-.17-13.87,36.72,36.72,0,0,0-4-9.83l0-.07A34.2,34.2,0,0,0,63,108.3a24.68,24.68,0,0,1-2.6-3.7,12,12,0,0,1-1.36-5.92,29,29,0,0,1,1.47-7.36c.42-1.46.85-3,1.16-4.51a22,22,0,0,0,.44-6.3,18.66,18.66,0,0,0-.6-3.36A8.76,8.76,0,0,0,61,75.9c-.12-.26-.33-.72-.41-1,.07-.89.21-1.79.36-2.74s.35-2.18.43-3.33c0-.53.07-1.05.1-1.58.16-2.33.33-4.74.26-7.13v-.07a3.64,3.64,0,0,0,0-.84,3.77,3.77,0,0,0,0-1.34A16.63,16.63,0,0,0,60.2,50.6c0-.05-.05-.11-.07-.17m-.87-2.11A1.88,1.88,0,0,0,58,48.7c-.75.67,0,1.92.33,2.64A14.35,14.35,0,0,1,59.71,58a1.82,1.82,0,0,1-.08,1.28c.22.26.12.57.13.86.08,2.86-.18,5.71-.36,8.57-.13,2.1-.67,4.15-.8,6.25,0,.6.83,2.09,1,2.68a16,16,0,0,1,.53,3,20.21,20.21,0,0,1-.4,5.75c-.82,4.08-2.58,8-2.67,12.22a14,14,0,0,0,1.59,6.91c1.41,2.63,3.62,4.71,5.18,7.25l0,.07a35.13,35.13,0,0,1,3.74,9.31,23.21,23.21,0,0,1,.17,12.8c-2.15,7.6-8.7,20.73-10.32,23.93a.51.51,0,0,0,.44.74l1.59.06s14.75,0,28.19,0c5.06,0,9.94,0,13.77,0h3.72c7.31,0,14.62.06,21.93.13h2.34s-3-4.21-4.37-6.28c-1.46-2.22-2.92-4.44-4.29-6.71a32.35,32.35,0,0,1-1.12-31.68c3.33-6.33,4.87-4.22,7.44-11.42,1.32-3.67.82-8.83,0-12.64-.58-2.56-1.55-5.14-2.06-7.77a15.87,15.87,0,0,1-.32-3.33c0-.66.65-2.23.36-2.79-.14-.29-.73-.38-1.25-.38a2.79,2.79,0,0,0-.75.08,23.94,23.94,0,0,1-6.29.75,80.34,80.34,0,0,1-12.21-1.33,63.32,63.32,0,0,1-18.87-5.77A51.48,51.48,0,0,1,73,61.51a52.07,52.07,0,0,1-5.28-6,20.61,20.61,0,0,1-2.15-4.58c-.72-1.73-1.21-2.23-2.85-2.23h-.55c-.78,0-1.92-.37-2.88-.37Z"/></svg>