<svg id="图层_1" data-name="图层 1" xmlns="http://www.w3.org/2000/svg" viewBox="0 0 186 186"><defs><style>.cls-1{fill:#9b9692;}.cls-2{fill:#f2f2f2;}</style></defs><path class="cls-1" d="M103,58.55a9.31,9.31,0,0,1,6.29-3.64,17.51,17.51,0,0,1,7.44.52c2.42.74,4.57,2,6.86,2.69a6.22,6.22,0,0,0,3.32.21,4.56,4.56,0,0,0,2.49-1.9h0a.75.75,0,0,1,1-.18.74.74,0,0,1,.18,1l0,0a5.93,5.93,0,0,1-3.4,2.3,7.38,7.38,0,0,1-4-.42c-2.42-.84-4.5-2.23-6.75-3a17,17,0,0,0-7.16-.86A9.08,9.08,0,0,0,103,58.55Z"/><path class="cls-1" d="M80.7,59.08a15.22,15.22,0,0,0-14-2.91c-2.33.74-4.46,2.15-6.89,3.06a10.74,10.74,0,0,1-3.9.82A6,6,0,0,1,52,58.56h0a.75.75,0,0,1-.06-1,.74.74,0,0,1,1.05-.07l0,0a4.51,4.51,0,0,0,3,1.28,9.72,9.72,0,0,0,3.48-.56c2.34-.74,4.54-2,7.06-2.73A15.63,15.63,0,0,1,80.7,59.08Z"/><path class="cls-1" d="M93.06,58.55a2.79,2.79,0,0,1-.4,1.63,2.74,2.74,0,0,1-1.35,1.18,2.85,2.85,0,0,1-1.8.06,4.22,4.22,0,0,1-.78-.35,4.81,4.81,0,0,1-.64-.54c.29,0,.55,0,.8.08s.51,0,.75,0a3.38,3.38,0,0,0,1.3-.21A5.31,5.31,0,0,0,93.06,58.55Z"/><path class="cls-1" d="M86.6,41.15l.55,5c.09.83.21,1.66.35,2.48a14.82,14.82,0,0,0,.59,2.45,8,8,0,0,1-1-2.37,16.33,16.33,0,0,1-.47-2.51,23.89,23.89,0,0,1-.16-2.54A19.69,19.69,0,0,1,86.6,41.15Z"/><path class="cls-1" d="M96.53,39.17a45.62,45.62,0,0,1-1.07,5.57c-.25.92-.49,1.83-.8,2.73a13.83,13.83,0,0,1-1.11,2.63c.3-.9.51-1.82.74-2.73L95,44.62C95.45,42.79,95.93,41,96.53,39.17Z"/><path class="cls-1" d="M83.33,26.64c3.41-.38,6.83-.59,10.25-.69,1.71-.07,3.42-.07,5.13-.1.86,0,1.71,0,2.57,0h.19l.14,0a1.05,1.05,0,0,1,.25.08,1.08,1.08,0,0,1,.29.21,1.64,1.64,0,0,1,.36.56,4.54,4.54,0,0,1,.2.76,10.62,10.62,0,0,1,.16,1.34c.07.87.08,1.79.09,2.6a12.55,12.55,0,0,0,.32,2.44,11.28,11.28,0,0,0,2.12,4.46c2,2.7,5,4.51,7.94,6.17a32.31,32.31,0,0,0,4.49,2.23,18.62,18.62,0,0,0,4.7,1.22,24.27,24.27,0,0,0,4.89-.47,10.48,10.48,0,0,1,2.8,0,12.59,12.59,0,0,1,2.71.74,16.75,16.75,0,0,1,7.93,7.13,14.56,14.56,0,0,1,1.94,10.16l-.2,0a15.67,15.67,0,0,0-3.07-9.3,16.51,16.51,0,0,0-7.38-6,11,11,0,0,0-2.22-.62,10.43,10.43,0,0,0-2.31,0,24.36,24.36,0,0,1-5.3.27,21.37,21.37,0,0,1-9.58-4.34,36,36,0,0,1-7.83-6.75,15.54,15.54,0,0,1-2.54-4.58,14.37,14.37,0,0,1-.62-2.59c-.1-.89-.21-1.68-.37-2.51-.08-.4-.17-.81-.27-1.17a3.15,3.15,0,0,0-.16-.47c0-.06-.07-.09,0,0a.61.61,0,0,0,.16.11l.18.06h-.07c-.85,0-1.7,0-2.56,0-1.7,0-3.41,0-5.11-.11-3.41-.1-6.83-.31-10.24-.69Z"/><path class="cls-1" d="M101.29,26.84c-3.46.35-6.92.56-10.38.67-1.73.06-3.46.09-5.18.11l-1.3,0h-.59a.39.39,0,0,0,.15,0c.33-.11.27-.18.28-.15a1.13,1.13,0,0,0-.09.15,17.47,17.47,0,0,0-.68,2.29l-.57,2.49c-.2.86-.32,1.66-.57,2.58a11.26,11.26,0,0,1-2.79,4.59,28.62,28.62,0,0,1-4,3.36c-1.43,1-2.77,2.07-4.15,3.14a22,22,0,0,1-4.53,2.83A12.27,12.27,0,0,1,61.42,50c-1.84,0-3.54-.3-5.2-.39a10.66,10.66,0,0,0-4.61.69c-2.88,1.16-4.85,4-5.9,7.17a24.75,24.75,0,0,0-1.16,4.93,38,38,0,0,0-.38,5.13l-.2,0A26.72,26.72,0,0,1,44.32,57a15.3,15.3,0,0,1,2.19-5,10.38,10.38,0,0,1,4.29-3.65,11.69,11.69,0,0,1,5.54-.92c1.8.08,3.51.4,5.14.49a10.53,10.53,0,0,0,4.68-.74A39.18,39.18,0,0,0,70.7,45c3-1.71,6.13-3.36,8.39-5.9a9.1,9.1,0,0,0,2.14-4.42c.21-1.61.32-3.42.63-5.14a12.08,12.08,0,0,1,.72-2.7,2.59,2.59,0,0,1,.23-.42,1.34,1.34,0,0,1,.77-.56,1.66,1.66,0,0,1,.22,0h.63l1.3,0c1.72,0,3.45.05,5.18.11,3.46.11,6.92.31,10.38.66Z"/><path class="cls-1" d="M44,71.27a138.92,138.92,0,0,0,5.19,20.18c2.17,6.6,4.65,13.11,6.88,19.74a123.44,123.44,0,0,1,5.25,20.36,89.93,89.93,0,0,1,1,10.48c.06,1.75,0,3.51,0,5.26a29.23,29.23,0,0,1-.65,5.2,50.21,50.21,0,0,0-.18-10.4c-.36-3.45-.88-6.89-1.53-10.29a159.86,159.86,0,0,0-5.7-20l-3.39-9.89c-1.1-3.31-2.19-6.64-3.14-10A92,92,0,0,1,44,71.27Z"/><path class="cls-1" d="M142,67.5c0,1.78-.07,3.56-.15,5.35s-.41,3.54-.65,5.31-.67,3.51-1,5.25-.9,3.45-1.41,5.16l-1.77,5c-.64,1.66-1.26,3.32-1.83,5-1.19,3.34-2.2,6.74-3.17,10.15-.48,1.71-.92,3.42-1.44,5.12s-1,3.4-1.46,5.09l-1.39,5.1c-.41,1.72-.86,3.42-1.3,5.12A133,133,0,0,0,122.68,150h-.19a68.72,68.72,0,0,1,1.79-21.28c.45-1.73.88-3.46,1.36-5.18l1.6-5.1c1.12-3.37,2.35-6.71,3.66-10s2.54-6.62,3.58-10,1.79-6.86,2.63-10.29c.39-1.72.81-3.43,1.29-5.12s.8-3.43,1.24-5.13.71-3.45,1.11-5.17.63-3.47,1-5.22Z"/><path class="cls-2" d="M76.13,44.1c.13,3.67-.85,12.14-8.13,29.39a.56.56,0,0,0,.57.77c2.18-.18,6.88.81,7.67.95a46.69,46.69,0,0,1,8.68,2.46c2.88,1.15,6,3.84,9.24,3.34,2.16-.33,4-2,6-2.71s4-1.44,6-2.08c3.27-1,7.26-2.48,10.82-2.24a.55.55,0,0,0,.49-.84c-1.74-2.8-8.38-11.94-5.82-28.53a.56.56,0,0,1,.84-.39c2.07,1.27,8.08,4.43,8.82,4.51,2.39.25,4.64-1.08,7.13-.85a16.66,16.66,0,0,1,8.37,2.66c2.49,1.77,5.54,5.92,5.34,9.24a.53.53,0,0,1-.32.45c-8.1,3.64-17.8,12.07-17.71,21.59,0,4.76,2.23,9.16,2.61,13.87.59,7.2-3.87,12.48-7.53,18.17A28.67,28.67,0,0,0,115,135.53c1.83,8.25,7.23,15.17,12.08,22.1.2.29.4.68.2,1a.9.9,0,0,1-.77.25H57.78a.51.51,0,0,1-.46-.76c6.36-11.67,15.27-26.65,8.73-40.1-3.47-7.15-9.11-13-8.75-21.46.16-3.9,1.58-7.63,2.29-11.47,2-11-6.89-19.73-15.25-25.4A1,1,0,0,1,44,58.48c1.1-3.07,6-14.27,18.18-9.41a.53.53,0,0,0,.39,0c1.26-.51,8-3.07,11.65-5.89A1.21,1.21,0,0,1,76.13,44.1Z"/><path class="cls-1" d="M126.52,159.85H57.78a1.51,1.51,0,0,1-1.31-.75,1.5,1.5,0,0,1,0-1.49l.93-1.71c6.14-11.2,13.78-25.14,7.78-37.48-1-2-2.1-3.86-3.21-5.71C59,107.89,56,102.91,56.3,96.49a37.1,37.1,0,0,1,1.37-7.55c.34-1.33.69-2.71.94-4.06,2-10.52-7-19.07-14.83-24.4A2,2,0,0,1,43,58.14c.82-2.3,3.3-7.89,8.5-10.23,3.2-1.44,6.83-1.38,10.81.17l.21-.08c5.18-2,8.89-3.92,11-5.59a2.2,2.2,0,0,1,3.56,1.65h0c.13,3.53-.74,12-7.94,29.18a41.77,41.77,0,0,1,6.89.93l.35.07a46.69,46.69,0,0,1,8.86,2.51,25.87,25.87,0,0,1,2.79,1.39c2,1.08,4,2.19,5.94,1.89a10,10,0,0,0,3.29-1.41,18.1,18.1,0,0,1,2.49-1.25c2.2-.83,4.17-1.51,6-2.1l1-.33c2.9-.93,6.15-2,9.27-2-2.3-3.6-7.94-12.75-5.52-28.5A1.56,1.56,0,0,1,113,43.37a76.89,76.89,0,0,0,8.46,4.38,10.24,10.24,0,0,0,3.15-.4,11.9,11.9,0,0,1,3.91-.46,17.64,17.64,0,0,1,8.85,2.84c2.47,1.75,6,6.17,5.76,10.11a1.52,1.52,0,0,1-.9,1.3C133.62,65,125,73.33,125.06,81.81a30.23,30.23,0,0,0,1.3,7.29,36.81,36.81,0,0,1,1.31,6.51c.53,6.51-2.83,11.51-6.07,16.35-.54.81-1.08,1.62-1.61,2.43a27.54,27.54,0,0,0-4,20.92c1.58,7.13,6,13.37,10.26,19.4.56.78,1.11,1.57,1.66,2.35a1.73,1.73,0,0,1,.21,2.1A1.81,1.81,0,0,1,126.52,159.85Zm-41.4-2H126l-1.41-2c-4.39-6.19-8.92-12.59-10.58-20.11a29.52,29.52,0,0,1,4.28-22.42c.53-.83,1.08-1.65,1.63-2.46,3.19-4.77,6.21-9.27,5.74-15.09a35.25,35.25,0,0,0-1.25-6.16,31.23,31.23,0,0,1-1.36-7.78c-.09-9.68,9.24-18.35,18-22.39,0-2.73-2.55-6.4-4.93-8.09a15.36,15.36,0,0,0-7.87-2.48,10.46,10.46,0,0,0-3.29.41,11.46,11.46,0,0,1-3.86.44c-1-.11-6.53-3.08-8.68-4.32-2.1,14.9,3.37,23.43,5.44,26.68l.35.54a1.55,1.55,0,0,1,0,1.61,1.5,1.5,0,0,1-1.42.74c-3-.2-6.39.9-9.39,1.86l-1.06.34c-1.82.57-3.75,1.25-5.92,2.06a14.74,14.74,0,0,0-2.2,1.12,11.78,11.78,0,0,1-4,1.65c-2.6.4-5-.94-7.19-2.12a23.57,23.57,0,0,0-2.57-1.28,46.44,46.44,0,0,0-8.49-2.41l-.37-.07a36.2,36.2,0,0,0-7-.87,1.54,1.54,0,0,1-1.39-.64,1.5,1.5,0,0,1-.17-1.5c7.28-17.27,8.17-25.57,8-29h0A.18.18,0,0,0,75,44a.18.18,0,0,0-.22,0c-3.44,2.69-9.52,5.08-11.52,5.87l-.38.15a1.52,1.52,0,0,1-1.13,0c-3.52-1.41-6.69-1.5-9.42-.27-4.51,2-6.72,7-7.45,9.09,12,8.14,17.37,17.27,15.68,26.43-.27,1.42-.63,2.83-1,4.19a35,35,0,0,0-1.31,7.14c-.25,5.82,2.48,10.34,5.36,15.12,1.13,1.88,2.3,3.82,3.3,5.86,6.45,13.27-1.47,27.71-7.83,39.31l-.54,1Zm-23-109.71Z"/></svg>