<svg id="图层_1" data-name="图层 1" xmlns="http://www.w3.org/2000/svg" viewBox="0 0 186 186"><defs><style>.cls-1{fill:#9b9692;}.cls-2{fill:#f2f2f2;}</style></defs><path class="cls-1" d="M102.54,58.16a9.17,9.17,0,0,1,6.21-3.59,17.24,17.24,0,0,1,7.35.51c2.4.74,4.53,2,6.78,2.66a6.08,6.08,0,0,0,3.28.2,4.44,4.44,0,0,0,2.46-1.87h0a.74.74,0,0,1,1.21.85l0,0a5.89,5.89,0,0,1-3.36,2.26,7.22,7.22,0,0,1-3.91-.4c-2.39-.84-4.44-2.21-6.67-3a16.66,16.66,0,0,0-7.08-.85A9,9,0,0,0,102.54,58.16Z"/><path class="cls-1" d="M80.51,58.69a15.11,15.11,0,0,0-13.91-3c-2.33.72-4.46,2.1-6.84,3a10.25,10.25,0,0,1-3.79.76A5.68,5.68,0,0,1,52.26,58h0a.49.49,0,0,1,.66-.73h0A4.72,4.72,0,0,0,56,58.57a9.57,9.57,0,0,0,3.51-.6c2.33-.76,4.49-2.06,6.95-2.74A15.33,15.33,0,0,1,80.51,58.69Z"/><path class="cls-1" d="M92.72,58.16a2.75,2.75,0,0,1-.39,1.62A2.66,2.66,0,0,1,91,61a2.69,2.69,0,0,1-1.77,0,3.54,3.54,0,0,1-.77-.34,4.1,4.1,0,0,1-.64-.53,6.44,6.44,0,0,1,.8.07c.26,0,.5,0,.73,0A3.3,3.3,0,0,0,90.63,60,5.18,5.18,0,0,0,92.72,58.16Z"/><path class="cls-1" d="M86.34,41l.55,5c.09.82.21,1.64.34,2.46a15.65,15.65,0,0,0,.58,2.41,8.05,8.05,0,0,1-1-2.33A17.72,17.72,0,0,1,86.4,46a23.49,23.49,0,0,1-.16-2.51A19.09,19.09,0,0,1,86.34,41Z"/><path class="cls-1" d="M96.16,39a42.56,42.56,0,0,1-1.07,5.51c-.23.91-.48,1.81-.78,2.7a13.8,13.8,0,0,1-1.1,2.6c.3-.9.5-1.8.73-2.7l.68-2.72C95.09,42.6,95.56,40.79,96.16,39Z"/><path class="cls-1" d="M83.11,26.64c3.38-.38,6.75-.59,10.13-.69,1.69-.07,3.38-.07,5.07-.1.85,0,1.69,0,2.54,0H101l.14,0a1.47,1.47,0,0,1,.25.08,1.2,1.2,0,0,1,.28.2,1.43,1.43,0,0,1,.35.56,4.84,4.84,0,0,1,.21.75,13,13,0,0,1,.16,1.33c.07.86.07,1.76.09,2.57a12.32,12.32,0,0,0,.3,2.41,11.24,11.24,0,0,0,2.1,4.41c2,2.66,4.94,4.45,7.85,6.09a32.19,32.19,0,0,0,4.44,2.21,18.45,18.45,0,0,0,4.64,1.2,23.71,23.71,0,0,0,4.83-.47,10.25,10.25,0,0,1,2.77,0,12.32,12.32,0,0,1,2.68.74A16.53,16.53,0,0,1,140,55a14.42,14.42,0,0,1,1.92,10l-.2,0a15.5,15.5,0,0,0-3-9.19,16.33,16.33,0,0,0-7.3-5.92,10.72,10.72,0,0,0-2.19-.61,10.16,10.16,0,0,0-2.28,0,23.87,23.87,0,0,1-5.24.26,21,21,0,0,1-9.47-4.29,35.87,35.87,0,0,1-7.74-6.66,15.92,15.92,0,0,1-2.51-4.53,13.92,13.92,0,0,1-.6-2.57c-.11-.88-.22-1.65-.37-2.47-.08-.4-.17-.8-.27-1.16a3.61,3.61,0,0,0-.16-.47c0-.05-.07-.08,0,0a.61.61,0,0,0,.16.11.76.76,0,0,0,.18.06h-.07c-.84,0-1.68,0-2.53,0-1.68,0-3.37,0-5-.1-3.37-.1-6.75-.31-10.12-.69Z"/><path class="cls-1" d="M100.86,26.83c-3.42.35-6.84.55-10.26.66-1.7.06-3.41.1-5.12.12H83.62l.14,0c.33-.11.28-.18.28-.15a.63.63,0,0,0-.08.15,15.08,15.08,0,0,0-.68,2.25l-.56,2.47c-.2.85-.32,1.63-.56,2.55A11.2,11.2,0,0,1,79.4,39.4a29.27,29.27,0,0,1-4,3.33c-1.42,1-2.74,2-4.11,3.1a21.69,21.69,0,0,1-4.47,2.79,12.18,12.18,0,0,1-5.38,1.06c-1.82,0-3.5-.3-5.14-.39a10.49,10.49,0,0,0-4.55.68c-2.85,1.14-4.79,4-5.83,7.08a24.85,24.85,0,0,0-1.15,4.87A38.92,38.92,0,0,0,44.41,67l-.19,0a26.31,26.31,0,0,1,.34-10.37,15.11,15.11,0,0,1,2.16-4.93A10.19,10.19,0,0,1,51,48.11a11.47,11.47,0,0,1,5.48-.92c1.78.09,3.47.4,5.08.49A10.54,10.54,0,0,0,66.14,47a37.61,37.61,0,0,0,4.49-2.16c3-1.69,6.05-3.32,8.29-5.83A9,9,0,0,0,81,34.6c.2-1.59.31-3.38.61-5.08a12.06,12.06,0,0,1,.71-2.67,2.93,2.93,0,0,1,.23-.41,1.3,1.3,0,0,1,.76-.56l.23,0h.62l1.28,0c1.71,0,3.42.05,5.12.11,3.42.11,6.84.31,10.26.66Z"/><path class="cls-1" d="M44.22,70.74a137.28,137.28,0,0,0,5.14,19.94c2.14,6.52,4.59,12.95,6.8,19.51a122.28,122.28,0,0,1,5.19,20.12,89.87,89.87,0,0,1,1,10.35c.06,1.74,0,3.47,0,5.2a28.79,28.79,0,0,1-.65,5.15,49.14,49.14,0,0,0-.17-10.29c-.35-3.41-.87-6.8-1.52-10.17a158.2,158.2,0,0,0-5.63-19.74L51,101c-1.09-3.28-2.16-6.56-3.1-9.9A90.79,90.79,0,0,1,44.22,70.74Z"/><path class="cls-1" d="M141,67c0,1.81-.07,3.62-.17,5.44s-.41,3.61-.68,5.4-.67,3.57-1.06,5.34-.89,3.52-1.42,5.25l-1.77,5.14c-.64,1.69-1.26,3.38-1.83,5.1-1.18,3.41-2.19,6.87-3.15,10.35-.48,1.74-.92,3.49-1.44,5.21s-.94,3.47-1.45,5.2l-1.4,5.2-1.31,5.21A136.37,136.37,0,0,0,121.63,151h-.19a71.12,71.12,0,0,1,1.88-21.65c.45-1.76.87-3.52,1.37-5.26l1.6-5.2c1.11-3.44,2.34-6.84,3.64-10.21s2.53-6.76,3.57-10.21,1.79-7,2.63-10.48c.41-1.74.82-3.49,1.3-5.22s.82-3.48,1.26-5.22.73-3.5,1.14-5.26.63-3.53,1-5.31Z"/><path class="cls-2" d="M116.35,136.34a39.87,39.87,0,0,1-1.2-7.26c-.51-7.71,3.3-13.21,7.09-19.56,1.08-1.81,2.13-3.63,3.13-5.48a16.24,16.24,0,0,0,1.83-5.57c1.07-8.4-3.45-16.19-4.74-24.28-1.32-8.27-3.14-15.15-1.54-23.58.09-.48.51-1-.11-1.31S118,47.77,117.3,48l-.08,0a.87.87,0,0,0-.23.42c-.1.33-2,4.94-2.71,7.33-3.21,10.39-11,21.45-23.19,21.53-11.88.07-21.67-10.48-24.19-21.56a24.93,24.93,0,0,1-.46-6.45c0-.24,0-.47,0-.71s.15-.53-.25-.4c-.92.29-1.81.7-2.7,1.08-.46.19-.92.37-1.4.52s-.77.17-.79.66c0,.27,0,.53-.05.8,0,.54,0,1.08,0,1.62,0,1.07,0,2.15-.06,3.23C60.66,63.8,61,71.79,60,79.54s-4.42,15.74-2.13,23.53c1.24,4.22,4,7.77,6.3,11.46a25,25,0,0,1,3.64,9.36c1,6.07-.55,12.2-2.75,17.83-1.07,2.72-2.33,5.36-3.66,8-.37.73-3.27,6.36-4.33,8.42a.51.51,0,0,0,.46.75H92.63c10.11,0,30.92-.05,35.75-.06a.51.51,0,0,0,.41-.82C126.46,154.79,118.08,143,116.35,136.34Z"/><path class="cls-1" d="M92.63,159.85H57.56a1.51,1.51,0,0,1-1.34-2.19c1.06-2.06,4-7.69,4.33-8.42,1.59-3.12,2.71-5.56,3.62-7.88,2.6-6.64,3.48-12.3,2.7-17.31a23.79,23.79,0,0,0-3.51-9c-.5-.81-1-1.61-1.55-2.41A35.28,35.28,0,0,1,57,103.35c-1.67-5.68-.42-11.39.78-16.93.51-2.31,1-4.7,1.31-7,.55-4.57.67-9.31.79-13.9.08-3.11.16-6.34.37-9.45.06-.85.06-1.68.07-2.57v-.6c0-.55,0-1.11,0-1.66l0-.39,0-.39a1.63,1.63,0,0,1,1.37-1.54l.11,0c.48-.15.95-.34,1.31-.49l.67-.29c.68-.29,1.38-.59,2.11-.82a1.17,1.17,0,0,1,1.19.18,1.23,1.23,0,0,1,.35,1.18,7.25,7.25,0,0,0,0,.73,24.49,24.49,0,0,0,.43,6.19C70.19,65.81,79.46,76.36,91,76.36h.12c11.69-.08,19.16-10.81,22.26-20.83.55-1.78,1.7-4.74,2.32-6.32.21-.54.36-.91.39-1a1.68,1.68,0,0,1,.54-.87,1.39,1.39,0,0,1,.37-.22c.79-.3,1.84.1,3.76,1.06.21.1.37.19.48.23.59.26,1.21.84.76,2.18a1.11,1.11,0,0,0-.07.22c-1.3,6.85-.3,12.56.85,19.18.23,1.33.47,2.68.69,4.07a64,64,0,0,0,2.25,8.65c1.57,5.09,3.21,10.36,2.5,15.91a17.06,17.06,0,0,1-1.94,5.9c-.94,1.74-2,3.55-3.15,5.52l-1,1.6c-3.46,5.72-6.44,10.65-6,17.39a38.66,38.66,0,0,0,1.16,7.09c1.68,6.45,9.83,17.93,12.29,21.3a1.51,1.51,0,0,1,.13,1.56,1.49,1.49,0,0,1-1.34.82C123.55,159.8,102.74,159.85,92.63,159.85Zm-34.3-2h34.3c9.56,0,28.69,0,34.82-.07-3-4.15-10.41-14.86-12.06-21.22a41.66,41.66,0,0,1-1.22-7.44c-.49-7.37,2.79-12.8,6.27-18.55l1-1.59c1.16-2,2.18-3.73,3.1-5.44a15.06,15.06,0,0,0,1.72-5.22c.65-5.12-.84-10-2.43-15.08a64.89,64.89,0,0,1-2.31-8.92c-.22-1.38-.45-2.72-.68-4-1.14-6.52-2.22-12.69-.85-19.89a2.33,2.33,0,0,1,.11-.39l-.22-.1a16,16,0,0,0-2-.89c-.08.2-.19.51-.34.88-.61,1.57-1.75,4.48-2.28,6.19-3.3,10.69-11.37,22.14-24.13,22.22H91c-9.7,0-21.74-7.8-25-22.32a25.38,25.38,0,0,1-.49-6.44l-.84.35-.69.3c-.4.16-.92.37-1.48.55l-.12,0c0,.07,0,.14,0,.21l0,.33c0,.52,0,1,0,1.57v.59c0,.88,0,1.79-.07,2.7-.21,3.08-.29,6.28-.37,9.37-.12,4.63-.24,9.42-.8,14.09-.29,2.39-.82,4.83-1.34,7.18-1.15,5.29-2.34,10.76-.82,16,.92,3.15,2.8,6,4.61,8.77.53.81,1.06,1.62,1.57,2.44a26.14,26.14,0,0,1,3.79,9.74c.83,5.37-.09,11.37-2.82,18.34-.93,2.38-2.07,4.87-3.69,8.06C62,150.8,59.58,155.46,58.33,157.88Z"/></svg>