<svg id="图层_1" data-name="图层 1" xmlns="http://www.w3.org/2000/svg" viewBox="0 0 186 186"><defs><style>.cls-1{fill:#9b9692;}.cls-2{fill:#f2f2f2;}</style></defs><path class="cls-1" d="M102.66,58.55a9.26,9.26,0,0,1,6.28-3.64,17.51,17.51,0,0,1,7.44.52c2.43.75,4.58,2,6.86,2.69a6.24,6.24,0,0,0,3.32.21,4.56,4.56,0,0,0,2.49-1.9h0a.76.76,0,0,1,1-.18.74.74,0,0,1,.18,1v0a6,6,0,0,1-3.41,2.29,7.38,7.38,0,0,1-3.95-.42c-2.42-.84-4.49-2.23-6.75-3a17,17,0,0,0-7.16-.86A9.1,9.1,0,0,0,102.66,58.55Z"/><path class="cls-1" d="M80.36,59.08a15.24,15.24,0,0,0-14-2.91c-2.33.74-4.47,2.15-6.9,3.06a10.74,10.74,0,0,1-3.9.82,6,6,0,0,1-3.91-1.49h0a.74.74,0,1,1,1-1.11l0,0a4.51,4.51,0,0,0,3,1.28,9.72,9.72,0,0,0,3.48-.56c2.34-.74,4.54-2,7.06-2.72A15.59,15.59,0,0,1,80.36,59.08Z"/><path class="cls-1" d="M92.72,58.55a2.79,2.79,0,0,1-.4,1.63A2.7,2.7,0,0,1,91,61.36a2.76,2.76,0,0,1-1.79.06,4,4,0,0,1-.79-.35,3.66,3.66,0,0,1-.64-.54c.29,0,.55,0,.81.08s.5,0,.74,0a3.47,3.47,0,0,0,1.31-.21A5.29,5.29,0,0,0,92.72,58.55Z"/><path class="cls-1" d="M86.26,41.15l.56,5c.09.83.21,1.66.34,2.48a15.89,15.89,0,0,0,.59,2.45,8.09,8.09,0,0,1-1-2.36,18.17,18.17,0,0,1-.47-2.51,24.22,24.22,0,0,1-.16-2.54A19.77,19.77,0,0,1,86.26,41.15Z"/><path class="cls-1" d="M96.2,39.17a45.64,45.64,0,0,1-1.08,5.57c-.24.92-.49,1.83-.8,2.73a14.47,14.47,0,0,1-1.1,2.63c.29-.9.5-1.82.74-2.73l.68-2.75C95.11,42.79,95.59,41,96.2,39.17Z"/><path class="cls-1" d="M83,26.64c3.42-.38,6.84-.59,10.26-.69,1.71-.07,3.42-.07,5.13-.1.85,0,1.71,0,2.56,0h.2l.13,0a1.34,1.34,0,0,1,.26.08,1.19,1.19,0,0,1,.28.21,1.64,1.64,0,0,1,.36.56,4.65,4.65,0,0,1,.21.76,12.85,12.85,0,0,1,.16,1.34c.07.87.07,1.79.09,2.6a11.81,11.81,0,0,0,.31,2.44,11.28,11.28,0,0,0,2.12,4.46c2,2.7,5,4.51,7.94,6.17a31.88,31.88,0,0,0,4.5,2.23A18.44,18.44,0,0,0,122.19,48a24.27,24.27,0,0,0,4.89-.47,10.55,10.55,0,0,1,2.81,0,12.5,12.5,0,0,1,2.7.74,16.75,16.75,0,0,1,7.93,7.13,14.59,14.59,0,0,1,1.94,10.17l-.2,0a15.66,15.66,0,0,0-3.06-9.3,16.53,16.53,0,0,0-7.39-6,10.84,10.84,0,0,0-2.22-.62,10.35,10.35,0,0,0-2.3,0,24.49,24.49,0,0,1-5.31.27,21.37,21.37,0,0,1-9.58-4.34,36.48,36.48,0,0,1-7.83-6.75A15.54,15.54,0,0,1,102,34.15a13.55,13.55,0,0,1-.61-2.59c-.11-.89-.22-1.68-.38-2.51-.07-.4-.17-.81-.27-1.17a2.31,2.31,0,0,0-.16-.47c0-.06-.07-.09,0,0a.47.47,0,0,0,.16.11.56.56,0,0,0,.17.06h-.06c-.86,0-1.71,0-2.56,0-1.71,0-3.41,0-5.12-.11-3.41-.1-6.82-.31-10.24-.69Z"/><path class="cls-1" d="M101,26.84c-3.46.35-6.92.56-10.37.67-1.73.06-3.46.09-5.19.11l-1.3,0H83.5a.39.39,0,0,0,.15,0c.33-.11.28-.18.28-.15a.63.63,0,0,0-.08.15,16,16,0,0,0-.69,2.29l-.57,2.49c-.19.86-.32,1.66-.56,2.58a11.39,11.39,0,0,1-2.8,4.59,28.62,28.62,0,0,1-4,3.36c-1.43,1-2.76,2.07-4.15,3.14a22,22,0,0,1-4.53,2.83A12.27,12.27,0,0,1,61.08,50c-1.84,0-3.54-.3-5.2-.39a10.66,10.66,0,0,0-4.61.69c-2.88,1.16-4.84,4-5.9,7.17a24.73,24.73,0,0,0-1.15,4.93,38,38,0,0,0-.39,5.13l-.2,0A26.91,26.91,0,0,1,44,57a15.39,15.39,0,0,1,2.19-5,10.38,10.38,0,0,1,4.29-3.65A11.71,11.71,0,0,1,56,47.45c1.8.08,3.52.4,5.14.49a10.53,10.53,0,0,0,4.68-.74A39.31,39.31,0,0,0,70.37,45c3-1.71,6.12-3.36,8.38-5.9a9.1,9.1,0,0,0,2.14-4.42c.21-1.61.32-3.42.63-5.14a12.08,12.08,0,0,1,.72-2.7,3.68,3.68,0,0,1,.23-.42,1.34,1.34,0,0,1,.77-.56,1.66,1.66,0,0,1,.22,0h.63l1.3,0c1.73,0,3.46.05,5.19.11,3.45.11,6.91.31,10.37.66Z"/><path class="cls-1" d="M43.64,71.27a138.92,138.92,0,0,0,5.19,20.18c2.17,6.6,4.65,13.11,6.88,19.74A124.33,124.33,0,0,1,61,131.56a89.74,89.74,0,0,1,1,10.47c.06,1.75.05,3.51,0,5.26a29.46,29.46,0,0,1-.65,5.21,50.29,50.29,0,0,0-.18-10.41c-.35-3.45-.88-6.89-1.53-10.29a159.86,159.86,0,0,0-5.7-20l-3.39-9.89c-1.1-3.31-2.19-6.64-3.14-10A92,92,0,0,1,43.64,71.27Z"/><path class="cls-1" d="M141.62,67.5c0,1.83-.08,3.67-.18,5.5s-.42,3.65-.69,5.47-.68,3.61-1.07,5.4-.91,3.56-1.44,5.31l-1.79,5.2c-.64,1.71-1.28,3.43-1.85,5.16-1.2,3.45-2.21,7-3.19,10.48-.49,1.76-.93,3.53-1.45,5.27s-1,3.52-1.48,5.26l-1.41,5.26-1.32,5.28A137.24,137.24,0,0,0,122,152.5h-.19a72.1,72.1,0,0,1,1.9-21.9c.46-1.78.89-3.57,1.39-5.33l1.62-5.26c1.12-3.48,2.36-6.92,3.68-10.33s2.56-6.84,3.61-10.33,1.82-7.07,2.67-10.61c.41-1.77.83-3.53,1.32-5.28s.82-3.53,1.27-5.29.73-3.54,1.15-5.32.64-3.57,1-5.37Z"/><path class="cls-1" d="M56.32,72.83A5.61,5.61,0,0,1,59.52,76a12.36,12.36,0,0,1,.91,4.52,33.1,33.1,0,0,1-1.19,9,39.87,39.87,0,0,0-1.78,8.79,11.5,11.5,0,0,0,2.68,8.26,14.6,14.6,0,0,0,7.46,4.42,21.35,21.35,0,0,0,8.75.37A16,16,0,0,0,84.29,108a12,12,0,0,0,3.91-7.71h.1a11.63,11.63,0,0,1-3.49,8.28,16.13,16.13,0,0,1-8.28,4,21,21,0,0,1-9.17-.52,14.33,14.33,0,0,1-7.64-5,12.18,12.18,0,0,1-2.06-4.08,16.15,16.15,0,0,1-.54-4.53,46.8,46.8,0,0,1,1.33-9,42,42,0,0,0,1.22-8.83A13,13,0,0,0,59,76.21a5.71,5.71,0,0,0-2.76-3.29Z"/><path class="cls-1" d="M126.73,73.9a11.56,11.56,0,0,0-2.65,8,46.33,46.33,0,0,0,1.6,8.54,34,34,0,0,1,1.15,8.76,14.15,14.15,0,0,1-3.11,8.2,14.49,14.49,0,0,1-7.55,4.66,21.18,21.18,0,0,1-8.93.4,16.1,16.1,0,0,1-8-3.85,10.07,10.07,0,0,1-2.55-3.7,9.3,9.3,0,0,1-.55-4.39h.1a9.54,9.54,0,0,0,3.5,7.53,16.14,16.14,0,0,0,7.73,3.4,22,22,0,0,0,8.52-.27,14.77,14.77,0,0,0,7.38-4.13,11,11,0,0,0,2.29-3.63,12.26,12.26,0,0,0,.89-4.23,30.31,30.31,0,0,0-1.59-8.55,35,35,0,0,1-1.57-8.73c0-.37,0-.75.06-1.12a5.29,5.29,0,0,1,.15-1.12l.23-1.1c.1-.36.26-.71.38-1.06a9.2,9.2,0,0,1,1.06-2,17.72,17.72,0,0,1,1.44-1.68Z"/><path class="cls-2" d="M57.36,158.85a.52.52,0,0,1-.45-.79l1.65-2.67c2.84-4.55,6.36-10.22,7.37-13.64,2.15-7.33,2.32-14.41.49-20.5a48.3,48.3,0,0,0-4.06-8.94,52.93,52.93,0,0,1-3.56-7.49,24.33,24.33,0,0,1-1-11.54A30,30,0,0,1,59,88.68c.82-2.56,1.67-5.21,1.47-7.85a3.47,3.47,0,0,1,.84-2.44l2.94-3.53a1.35,1.35,0,0,1,1-.48h53.19a1.34,1.34,0,0,1,.52.1c.26.16,1.33,1.32,3.48,4.62a8.73,8.73,0,0,1,.89,4.05c0,.65.08,1.32.17,2s.26,1.56.42,2.35.35,1.74.54,2.61c1.18,5.51,2.29,10.72-.37,15.62-1,1.81-2.09,3.54-3.16,5.21a50.14,50.14,0,0,0-5.17,9.59c-2.86,7.69-2.28,16.79,1.58,25a54.94,54.94,0,0,0,7,11,3.65,3.65,0,0,0,.34.4,1.2,1.2,0,0,1-.9,2Z"/><path class="cls-1" d="M118.52,75.37h0a29.86,29.86,0,0,1,3.14,4.27,8,8,0,0,1,.72,3.58c0,.67.09,1.36.19,2s.25,1.51.42,2.41.36,1.74.55,2.62c1.14,5.32,2.21,10.36-.28,14.93-1,1.78-2.06,3.5-3.12,5.16a50.87,50.87,0,0,0-5.27,9.78c-2.94,7.93-2.35,17.31,1.62,25.73a56.74,56.74,0,0,0,7.11,11.21c.11.13.33.39.67.77H58.2l1.21-1.94c2.86-4.61,6.43-10.34,7.47-13.89,2.21-7.51,2.37-14.8.49-21.07a48.75,48.75,0,0,0-4.14-9.12,51.58,51.58,0,0,1-3.49-7.35,23.35,23.35,0,0,1-.94-11.06A29,29,0,0,1,60,89c.85-2.66,1.73-5.4,1.51-8.23A2.49,2.49,0,0,1,62.12,79l2.93-3.52a.39.39,0,0,1,.29-.13h53.18m0-2H65.34a2.37,2.37,0,0,0-1.82.85l-2.93,3.52a4.51,4.51,0,0,0-1.07,3.16c.3,4-2.1,8.3-2.69,12.22a25.4,25.4,0,0,0,1,12c2,5.71,5.86,10.56,7.61,16.39,2,6.5,1.4,13.47-.5,19.93-1.33,4.54-7.64,13.77-9.8,17.59a.53.53,0,0,0,.46.79h72A.52.52,0,0,0,128,159c-1-1.05-2.49-2.76-2.81-3.15A54.16,54.16,0,0,1,118.32,145c-3.54-7.49-4.47-16.33-1.55-24.19,2-5.46,5.52-9.62,8.27-14.68,3.29-6,1.17-12.57-.07-18.89-.15-.77-.29-1.54-.4-2.31-.31-2,0-4.61-1.21-6.4-1-1.5-3.11-4.65-3.94-5a2.33,2.33,0,0,0-.9-.18Z"/></svg>