<svg id="图层_1" data-name="图层 1" xmlns="http://www.w3.org/2000/svg" viewBox="0 0 186 186"><defs><style>.cls-1{fill:#9b9692;}.cls-2{fill:#f2f2f2;}</style></defs><g id="页面-1"><g id="sweetheart"><path id="路径" class="cls-1" d="M102.61,58.41a9.24,9.24,0,0,1,6.23-3.6,17.49,17.49,0,0,1,7.37.51c2.41.74,4.54,2,6.81,2.67a6,6,0,0,0,3.29.2,4.42,4.42,0,0,0,2.47-1.88h0a.74.74,0,0,1,1.24.82h0a5.86,5.86,0,0,1-3.38,2.27,7.28,7.28,0,0,1-3.92-.4c-2.4-.85-4.46-2.22-6.69-3a17,17,0,0,0-7.1-.86A9.1,9.1,0,0,0,102.61,58.41Z"/><path id="路径-2" data-name="路径" class="cls-1" d="M80.5,58.94a15.1,15.1,0,0,0-13.92-2.88c-2.31.73-4.43,2.13-6.84,3a10.27,10.27,0,0,1-3.86.81,5.88,5.88,0,0,1-3.82-1.44h0A.71.71,0,1,1,53,57.37h0a4.47,4.47,0,0,0,2.93,1.28,9.38,9.38,0,0,0,3.44-.56c2.33-.74,4.51-2,7-2.7A15.48,15.48,0,0,1,80.5,58.94Z"/><path id="路径-3" data-name="路径" class="cls-1" d="M92.76,58.41A2.77,2.77,0,0,1,92.37,60a2.64,2.64,0,0,1-3.12,1.23,3.84,3.84,0,0,1-.78-.34,4.69,4.69,0,0,1-.64-.54,2.59,2.59,0,0,1,.8.08,1.43,1.43,0,0,0,.74,0,3.23,3.23,0,0,0,1.3-.21,5.23,5.23,0,0,0,2.09-1.84Z"/><path id="路径-4" data-name="路径" class="cls-1" d="M86.35,41.14l.56,5c.09.83.2,1.65.34,2.47A14.45,14.45,0,0,0,87.83,51a8.48,8.48,0,0,1-1-2.34,16.28,16.28,0,0,1-.46-2.49,23.7,23.7,0,0,1-.17-2.52,21.51,21.51,0,0,1,.15-2.54Z"/><path id="路径-5" data-name="路径" class="cls-1" d="M96.2,39.2a41.53,41.53,0,0,1-1.07,5.53c-.23.91-.47,1.82-.78,2.71a13.8,13.8,0,0,1-1.1,2.6c.3-.89.51-1.8.74-2.71l.67-2.72C95.13,42.8,95.6,41,96.2,39.2Z"/><path id="路径-6" data-name="路径" class="cls-1" d="M83.11,26.79c3.39-.38,6.78-.59,10.17-.69C95,26,96.67,26,98.36,26h2.88l.25.08a1.1,1.1,0,0,1,.28.2,1.43,1.43,0,0,1,.35.56,4.61,4.61,0,0,1,.21.75,12,12,0,0,1,.16,1.34c.07.86.07,1.77.09,2.58a13.14,13.14,0,0,0,.31,2.41,11.22,11.22,0,0,0,2.1,4.42c2,2.68,5,4.47,7.88,6.12a34.18,34.18,0,0,0,4.45,2.22,18.8,18.8,0,0,0,4.66,1.2,23.09,23.09,0,0,0,4.84-.47,10,10,0,0,1,2.79,0,12.11,12.11,0,0,1,2.68.73,16.6,16.6,0,0,1,7.86,7.06,14.43,14.43,0,0,1,1.92,10.08h-.2a15.54,15.54,0,0,0-3-9.22,16.46,16.46,0,0,0-7.31-6,11.51,11.51,0,0,0-2.21-.61,9.66,9.66,0,0,0-2.28,0,24.37,24.37,0,0,1-5.26.27,21.29,21.29,0,0,1-9.49-4.31,35.23,35.23,0,0,1-7.77-6.69,15.35,15.35,0,0,1-2.52-4.5,13.53,13.53,0,0,1-.61-2.57c-.11-.88-.21-1.66-.37-2.49-.08-.4-.17-.8-.27-1.16a2.6,2.6,0,0,0-.16-.47c0-.05-.07-.08,0,0a.91.91,0,0,0,.16.11l.18.06H98.35c-1.69,0-3.38,0-5.06-.1-3.39-.1-6.77-.31-10.16-.69Z"/><path id="路径-7" data-name="路径" class="cls-1" d="M100.92,27c-3.43.35-6.85.55-10.28.66-1.72.06-3.44.1-5.15.12H83.76c.33-.11.28-.18.28-.15a1.09,1.09,0,0,0-.08.15A16.44,16.44,0,0,0,83.28,30l-.56,2.47c-.2.85-.32,1.64-.56,2.56a11.33,11.33,0,0,1-2.77,4.54,29.55,29.55,0,0,1-4,3.34c-1.42,1-2.75,2.05-4.12,3.11a22.2,22.2,0,0,1-4.49,2.8,12.24,12.24,0,0,1-5.4,1.06c-1.82,0-3.51-.3-5.15-.39a10.61,10.61,0,0,0-4.57.68c-2.86,1.15-4.81,4-5.85,7.11a24.21,24.21,0,0,0-1.15,4.88,37.81,37.81,0,0,0-.38,5.1h-.23a26.64,26.64,0,0,1,.35-10.41A15.12,15.12,0,0,1,46.58,52a10.22,10.22,0,0,1,4.25-3.62,11.53,11.53,0,0,1,5.5-.92c1.78.09,3.48.4,5.09.49a10.49,10.49,0,0,0,4.63-.76A39.76,39.76,0,0,0,70.56,45c3-1.7,6.06-3.33,8.3-5.85A8.87,8.87,0,0,0,81,34.78c.21-1.6.32-3.4.62-5.1A12.34,12.34,0,0,1,82.38,27a3.3,3.3,0,0,1,.23-.41,1.24,1.24,0,0,1,.76-.56H85.5c1.71,0,3.43,0,5.15.11,3.43.11,6.85.31,10.28.66Z"/><path id="路径-8" data-name="路径" class="cls-1" d="M44.06,71a139.3,139.3,0,0,0,5.15,20c2.15,6.54,4.61,13,6.82,19.57a121.91,121.91,0,0,1,5.21,20.19,87.87,87.87,0,0,1,1,10.38q.09,2.61,0,5.22a28.79,28.79,0,0,1-.65,5.15,49.36,49.36,0,0,0-.18-10.31c-.35-3.43-.87-6.83-1.52-10.2a158.07,158.07,0,0,0-5.64-19.81l-3.37-9.8c-1.09-3.29-2.17-6.59-3.11-9.93A91.82,91.82,0,0,1,44.06,71Z"/><path id="路径-9" data-name="路径" class="cls-1" d="M141.23,67.29c0,1.82-.07,3.64-.17,5.46s-.42,3.61-.69,5.42-.67,3.58-1.06,5.35-.9,3.53-1.42,5.27l-1.78,5.15c-.64,1.7-1.27,3.4-1.84,5.12-1.17,3.42-2.18,6.9-3.15,10.39-.48,1.74-.93,3.49-1.44,5.22s-1,3.48-1.47,5.21l-1.39,5.22-1.32,5.23a137.43,137.43,0,0,0-3.74,21.22h-.2a71.38,71.38,0,0,1,1.9-21.7c.45-1.77.87-3.54,1.37-5.29l1.61-5.21c1.11-3.46,2.34-6.87,3.65-10.24s2.54-6.78,3.57-10.25,1.8-7,2.64-10.51c.41-1.75.83-3.5,1.31-5.23s.82-3.5,1.26-5.25.73-3.52,1.15-5.27.63-3.54,1-5.32Z"/><path id="路径-10" data-name="路径" class="cls-1" d="M84.22,80.61s8.87,12.81,15.76,0c.33,0-8.22,17.37-8.22,17.37Z"/><path id="路径-11" data-name="路径" class="cls-1" d="M56.67,72.58a5.58,5.58,0,0,1,3.17,3.15,12.37,12.37,0,0,1,.91,4.49,32.58,32.58,0,0,1-1.18,9,39.36,39.36,0,0,0-1.77,8.72,11.44,11.44,0,0,0,2.66,8.17,14.57,14.57,0,0,0,7.4,4.38,21.48,21.48,0,0,0,8.67.37,16,16,0,0,0,7.87-3.44,11.92,11.92,0,0,0,3.88-7.65h.09A11.56,11.56,0,0,1,84.92,108a16,16,0,0,1-8.22,3.91,21,21,0,0,1-9.09-.51,14.4,14.4,0,0,1-7.56-5,11.85,11.85,0,0,1-2-4.06,16.13,16.13,0,0,1-.54-4.48A47,47,0,0,1,58.82,89,41.09,41.09,0,0,0,60,80.23a12.56,12.56,0,0,0-.63-4.3,5.55,5.55,0,0,0-2.73-3.26Z"/><path id="路径-12" data-name="路径" class="cls-1" d="M126.48,73.64a11.45,11.45,0,0,0-2.63,7.92A45.18,45.18,0,0,0,125.44,90a34.35,34.35,0,0,1,1.14,8.68,14.13,14.13,0,0,1-3.09,8.13,14.4,14.4,0,0,1-7.49,4.62,21.09,21.09,0,0,1-8.84.4,16.06,16.06,0,0,1-8-3.82,10.24,10.24,0,0,1-2.53-3.67,9.51,9.51,0,0,1-.55-4.36h.1a9.47,9.47,0,0,0,3.48,7.47,16.06,16.06,0,0,0,7.66,3.36,21.66,21.66,0,0,0,8.45-.26,14.61,14.61,0,0,0,7.31-4.09,11,11,0,0,0,2.28-3.61,12.5,12.5,0,0,0,.88-4.19,30.2,30.2,0,0,0-1.58-8.48,34.87,34.87,0,0,1-1.56-8.65,7.07,7.07,0,0,1,.06-1.12,6.77,6.77,0,0,1,.15-1.1l.23-1.1a16.46,16.46,0,0,1,1.38-3,17.37,17.37,0,0,1,1.43-1.66Z"/><path id="路径-13" data-name="路径" class="cls-2" d="M93.93,92.79a.57.57,0,0,1-.54.41.55.55,0,0,1-.54-.41,19.34,19.34,0,0,0-4.06-8.18c-5.07-6.16-10.5-7.71-15.18-7.36-8.44.65-13.89,4.88-15.44,15.56a25.41,25.41,0,0,0,1,12c2,5.66,5.81,10.46,7.54,16.24,1.94,6.46,1.39,13.36-.48,19.76-1.68,5.72-7,14.74-8.58,17.4a.53.53,0,0,0,0,.52.51.51,0,0,0,.44.26h70.23a.51.51,0,0,0,.46-.3.53.53,0,0,0-.08-.55c-1-1-2.46-2.73-2.78-3.13a53.91,53.91,0,0,1-6.8-10.71c-3.51-7.43-4.43-16.19-1.54-24a30.48,30.48,0,0,1,4.21-8.42c3.47-5.24,5.7-8.66,5.76-15.44.06-5.34-1.3-11.42-5.25-15.35-4.85-4.83-12.88-4.63-18.64-1.61C98.17,82.34,95.73,87.27,93.93,92.79Z"/><path id="形状" class="cls-1" d="M128.33,159.93H58.08a1.5,1.5,0,0,1-1.28-.78,1.54,1.54,0,0,1,0-1.5c1.57-2.61,6.83-11.57,8.47-17.17,2-6.89,2.19-13.53.49-19.2a46.21,46.21,0,0,0-3.88-8.5,55.76,55.76,0,0,1-3.65-7.69,26.19,26.19,0,0,1-1.06-12.42C58.68,82.22,63.87,77,73.5,76.27c6-.46,11.43,2.13,16,7.72a20.43,20.43,0,0,1,3.9,7.2c1.73-4.91,4.25-9.68,9.76-12.57,5.69-3,14.3-3.7,19.8,1.78,4.91,4.89,5.58,12.17,5.54,16.06-.07,7.12-2.53,10.83-5.93,16a30.21,30.21,0,0,0-4.11,8.23c-2.64,7.13-2.09,15.59,1.51,23.22a52.75,52.75,0,0,0,6.68,10.52c.13.16.66.77,2.74,3.07a1.5,1.5,0,0,1-1.11,2.51Zm-69.4-2h68.33q-1.79-2-2.1-2.37a54.74,54.74,0,0,1-6.93-10.91c-3.83-8.11-4.39-17.13-1.57-24.76a31.77,31.77,0,0,1,4.3-8.62c3.34-5,5.55-8.36,5.61-14.9.06-6.1-1.75-11.44-5-14.64-4.57-4.56-12.25-4.18-17.48-1.43s-7.6,7.82-9.22,12.81h0a1.54,1.54,0,0,1-3-.12A18.38,18.38,0,0,0,88,85.2c-4.16-5.06-9-7.42-14.35-7-8.67.66-13.15,5.2-14.53,14.71a24.31,24.31,0,0,0,1,11.48,55.47,55.47,0,0,0,3.53,7.43,48,48,0,0,1,4,8.86c1.81,6,1.64,13-.49,20.32C65.61,146.39,60.9,154.62,58.93,157.93Z"/></g></g></svg>