<svg id="图层_1" data-name="图层 1" xmlns="http://www.w3.org/2000/svg" viewBox="0 0 186 186"><defs><style>.cls-1{fill:#9b9692;}.cls-2{fill:#f2f2f2;}</style></defs><path class="cls-1" d="M102.57,59a9.22,9.22,0,0,1,6.22-3.6,17.35,17.35,0,0,1,7.37.52c2.41.73,4.54,2,6.8,2.66a6.22,6.22,0,0,0,3.29.21,4.5,4.5,0,0,0,2.46-1.88h0a.74.74,0,0,1,1.21.85l0,0a5.9,5.9,0,0,1-3.37,2.27,7.36,7.36,0,0,1-3.92-.41c-2.39-.84-4.45-2.22-6.68-3a16.75,16.75,0,0,0-7.1-.85A9,9,0,0,0,102.57,59Z"/><path class="cls-1" d="M80.48,59.53a15.13,15.13,0,0,0-13.92-2.88c-2.3.74-4.42,2.13-6.83,3a10.29,10.29,0,0,1-3.87.81A5.94,5.94,0,0,1,52,59h0a.74.74,0,0,1,1-1.11l0,0a4.53,4.53,0,0,0,2.94,1.28,9.47,9.47,0,0,0,3.44-.56c2.32-.74,4.5-2,7-2.7A15.47,15.47,0,0,1,80.48,59.53Z"/><path class="cls-1" d="M92.72,59a2.8,2.8,0,0,1-.39,1.63A2.76,2.76,0,0,1,91,61.8a2.79,2.79,0,0,1-1.78.05,3.83,3.83,0,0,1-.77-.34A4.81,4.81,0,0,1,87.8,61c.29,0,.54.05.8.08s.5.05.73,0a3.38,3.38,0,0,0,1.3-.21A5.21,5.21,0,0,0,92.72,59Z"/><path class="cls-1" d="M86.32,41.77l.55,5c.09.83.21,1.65.35,2.46a14.8,14.8,0,0,0,.58,2.43,7.9,7.9,0,0,1-1-2.35,17.48,17.48,0,0,1-.47-2.48c-.09-.84-.15-1.68-.16-2.52A21.24,21.24,0,0,1,86.32,41.77Z"/><path class="cls-1" d="M96.17,39.8a46.94,46.94,0,0,1-1.07,5.53c-.24.91-.49,1.81-.79,2.7a13.53,13.53,0,0,1-1.1,2.6c.3-.89.51-1.8.74-2.7l.67-2.72C95.09,43.4,95.57,41.59,96.17,39.8Z"/><path class="cls-1" d="M86.4,109.41s4.93,5.9,8.87-1c.32,0-5,14-5,14Z"/><path class="cls-1" d="M83.08,27.4c3.39-.38,6.78-.59,10.16-.69,1.7-.07,3.39-.07,5.09-.1.84,0,1.69,0,2.54,0h.19l.14,0a1.47,1.47,0,0,1,.25.08,1,1,0,0,1,.28.21,1.35,1.35,0,0,1,.35.55,4.84,4.84,0,0,1,.21.75,12.85,12.85,0,0,1,.16,1.34c.07.85.07,1.76.09,2.57a12.43,12.43,0,0,0,.31,2.42A11.28,11.28,0,0,0,105,39c2,2.67,5,4.46,7.87,6.11a32.3,32.3,0,0,0,4.45,2.21,18.11,18.11,0,0,0,4.65,1.2,23.68,23.68,0,0,0,4.84-.46,10.4,10.4,0,0,1,2.79,0,12.8,12.8,0,0,1,2.67.73,16.61,16.61,0,0,1,7.86,7.07A14.36,14.36,0,0,1,142,65.91l-.2,0a15.52,15.52,0,0,0-3-9.21,16.49,16.49,0,0,0-7.32-5.94,11.29,11.29,0,0,0-2.2-.61,10.79,10.79,0,0,0-2.28,0,24,24,0,0,1-5.26.27,21.13,21.13,0,0,1-9.49-4.3,36.06,36.06,0,0,1-7.76-6.68A15.66,15.66,0,0,1,102,34.83a13.25,13.25,0,0,1-.61-2.56c-.11-.89-.21-1.67-.37-2.49-.08-.4-.17-.8-.27-1.16a3.61,3.61,0,0,0-.16-.47s-.07-.08,0,0a.85.85,0,0,0,.16.11l.18.06h-.07c-.84,0-1.69,0-2.53,0-1.69,0-3.38,0-5.07-.1-3.38-.1-6.76-.31-10.15-.69Z"/><path class="cls-1" d="M100.88,27.59c-3.43.35-6.86.55-10.28.67-1.71,0-3.43.09-5.14.11H83.59l.14,0c.34-.11.28-.18.28-.15a1.55,1.55,0,0,0-.08.15,17,17,0,0,0-.68,2.26l-.56,2.48c-.19.84-.32,1.63-.56,2.55a11.15,11.15,0,0,1-2.77,4.54,28.72,28.72,0,0,1-4,3.34c-1.42,1-2.74,2-4.12,3.11a22,22,0,0,1-4.48,2.8,12.09,12.09,0,0,1-5.4,1.05c-1.81,0-3.5-.29-5.14-.38a10.75,10.75,0,0,0-4.57.67c-2.85,1.15-4.8,4-5.84,7.11a23.59,23.59,0,0,0-1.15,4.88,37.3,37.3,0,0,0-.38,5.09h-.2a26.41,26.41,0,0,1,.35-10.39,15.28,15.28,0,0,1,2.16-4.94,10.17,10.17,0,0,1,4.25-3.61A11.51,11.51,0,0,1,56.34,48c1.79.08,3.49.4,5.1.49a10.6,10.6,0,0,0,4.63-.74,37.07,37.07,0,0,0,4.51-2.16c3-1.7,6.06-3.33,8.3-5.85A9.1,9.1,0,0,0,81,35.38c.2-1.6.31-3.39.62-5.09a11.25,11.25,0,0,1,.71-2.68,3,3,0,0,1,.23-.41,1.3,1.3,0,0,1,.76-.56l.22,0h.62l1.29,0c1.71,0,3.43.05,5.14.11,3.42.11,6.85.31,10.28.66Z"/><path class="cls-1" d="M44.09,71.61a138.12,138.12,0,0,0,5.16,20c2.14,6.54,4.6,13,6.81,19.55a122.25,122.25,0,0,1,5.2,20.18,88,88,0,0,1,1,10.38c.06,1.73,0,3.47,0,5.21a28.68,28.68,0,0,1-.65,5.15,49.34,49.34,0,0,0-.17-10.31c-.35-3.42-.88-6.82-1.52-10.19a159,159,0,0,0-5.64-19.79L50.84,102c-1.09-3.28-2.16-6.58-3.1-9.92A91.44,91.44,0,0,1,44.09,71.61Z"/><path class="cls-1" d="M141.17,67.87c0,1.76-.07,3.53-.16,5.3s-.4,3.51-.64,5.27-.67,3.47-1,5.2-.89,3.42-1.39,5.11l-1.76,5c-.63,1.65-1.25,3.29-1.82,5-1.17,3.31-2.17,6.68-3.13,10-.48,1.69-.92,3.4-1.43,5.07s-.94,3.38-1.45,5.05L127,123.93c-.41,1.69-.85,3.38-1.29,5.06a131.94,131.94,0,0,0-3.62,20.6h-.2a68.32,68.32,0,0,1,1.77-21.08c.45-1.72.87-3.43,1.36-5.13l1.58-5c1.1-3.35,2.32-6.65,3.62-9.92s2.52-6.56,3.56-9.91,1.77-6.8,2.59-10.19c.39-1.71.81-3.4,1.28-5.08s.79-3.39,1.23-5.08.71-3.42,1.11-5.12.61-3.44,1-5.17Z"/><path class="cls-1" d="M88.63,100.05a9.48,9.48,0,0,1-.51,4.43,11,11,0,0,1-2.46,3.83,17.06,17.06,0,0,1-7.92,4.43,20.39,20.39,0,0,1-9.13.38,14.78,14.78,0,0,1-4.41-1.55,12.93,12.93,0,0,1-2-1.33c-.3-.26-.6-.53-.88-.82s-.28-.29-.4-.45l-.2-.24-.05,0s0,0,0-.1a3.33,3.33,0,0,1,.6-.65,4,4,0,0,1,.76-.43c.08,0,.08,0,.1,0l0,0,.16.18c.1.13.23.24.34.36a7.85,7.85,0,0,0,.74.67,10.62,10.62,0,0,0,1.68,1.11A14.79,14.79,0,0,0,69,111.21a20.75,20.75,0,0,0,8.34-.14,17.58,17.58,0,0,0,7.56-3.58A10.39,10.39,0,0,0,88.63,100.05Z"/><path class="cls-1" d="M95.27,100.54a23.48,23.48,0,0,0,4.5,6.11,16.46,16.46,0,0,0,6.19,3.8,16.68,16.68,0,0,0,3.57.75,10.35,10.35,0,0,0,1.85.16c.62,0,1.24,0,1.87,0a13.25,13.25,0,0,0,1.88-.16l1.9-.2c1.25-.24,2.51-.51,3.83-.69-1.16.59-2.37,1.11-3.59,1.63a31.67,31.67,0,0,1-3.87.95,18,18,0,0,1-8.07-.56,15,15,0,0,1-6.68-4.62c-.44-.52-.82-1.08-1.21-1.63s-.68-1.15-1-1.76A13.72,13.72,0,0,1,95.27,100.54Z"/><path class="cls-2" d="M124.39,49.75a.54.54,0,0,1,.49.67,47,47,0,0,0-.32,6.66,70.33,70.33,0,0,0,.43,8.21,39.5,39.5,0,0,0,1.71,7.83c0,.07,0,.13.07.2s.13.39.2.58a1.4,1.4,0,0,1,.18.48c0,.15-.16.19-.27.28a5.9,5.9,0,0,0-2,3.07c-1.33,4.19-.54,9,.82,13.12,1.77,5.32,1.74,11.52-1.23,16.42-1.54,2.54-3.71,4.63-5.25,7.21-4.59,7.72-6.41,17.43-2.4,25.45A97.12,97.12,0,0,0,129,158.78a.51.51,0,0,1-.39.84H56.8a.51.51,0,0,1-.44-.77c1.79-3,10.53-14.4,12.24-29.75.47-4.29-.85-8.62-2.65-12.46s-4.35-6.72-6.46-10.18c-3.44-5.65-2-13.09,0-18.95s1.42-9.07-1.16-12.81L58,74.23a.82.82,0,0,1-.17-.6c.3-2.45,2.15-17.77,1.39-23a.5.5,0,0,1,.62-.55c1.81.46,2.7.07,3.09,2.22,1.11,6,3.74,12,5.93,17.73q3.54,9.18,7.85,18c2.27,4.65,4.23,9.47,6.48,14.13,1,2,2.51,5.4,3.37,7.49q2,4.74,3.8,9.52c.73-1.94,1.69-3.81,2.56-5.7,2.13-4.25,4-8.66,6-13q1.93-4.18,3.88-8.38l4.1-8.85,4.08-8.8q1.92-4.14,3.83-8.26c1.12-2.4,2.23-4.8,3.35-7.19s2.35-5.06,3.51-7.6c.34-.73.55-1.31,1.35-1.58A3.84,3.84,0,0,1,124.39,49.75Z"/><path class="cls-1" d="M128.57,160.61H56.79a1.5,1.5,0,0,1-1.29-2.26c.24-.39.59-.93,1-1.6,2.88-4.37,9.63-14.62,11.09-27.76.39-3.52-.45-7.42-2.56-11.94a42.59,42.59,0,0,0-3.86-6.25c-.86-1.23-1.75-2.5-2.56-3.83-2.9-4.77-2.94-11.24-.09-19.77,1.75-5.27,1.49-8.28-1-11.94l-.32-.44a1.79,1.79,0,0,1-.36-1.32c.22-1.78,2.15-17.58,1.39-22.69a1.49,1.49,0,0,1,.47-1.31,1.51,1.51,0,0,1,1.37-.34,8.1,8.1,0,0,0,.93.19c1.44.25,2.49.6,2.89,2.81.91,4.92,2.87,9.88,4.76,14.68l1.12,2.87c2.32,6,4.95,12.07,7.82,18,1.16,2.38,2.25,4.83,3.3,7.2s2.08,4.65,3.18,6.93,2.56,5.53,3.39,7.54c1,2.54,2,4.93,2.93,7.26.31-.68.63-1.36.94-2,.23-.49.46-1,.68-1.45,1.42-2.84,2.74-5.78,4-8.62.66-1.45,1.32-2.91,2-4.36l19.23-41.49c1.18-2.53,2.35-5.05,3.51-7.59l.07-.15a3.08,3.08,0,0,1,1.87-2,4.39,4.39,0,0,1,1.75-.21h0a1.51,1.51,0,0,1,1.4,1.87,35,35,0,0,0-.3,6.25v.19a70.61,70.61,0,0,0,.43,8.09,39,39,0,0,0,1.67,7.65l.06.18c.06.19.13.37.2.55a1.92,1.92,0,0,1,.23.83,1.2,1.2,0,0,1-.66,1.07A4.82,4.82,0,0,0,125.85,78c-1.35,4.25-.3,9.15.82,12.51,2,6.18,1.57,12.46-1.33,17.24a36.28,36.28,0,0,1-2.64,3.63,31.74,31.74,0,0,0-2.6,3.57c-5,8.37-5.86,17.53-2.37,24.51a96.42,96.42,0,0,0,12,18.68,1.49,1.49,0,0,1-1.15,2.44Zm-70.92-2h69.91A99.4,99.4,0,0,1,116,140.37c-3.79-7.58-2.88-17.45,2.44-26.4a34.69,34.69,0,0,1,2.75-3.79,33,33,0,0,0,2.51-3.43c2.59-4.27,3-10,1.13-15.59-1.2-3.63-2.33-9-.82-13.73a7,7,0,0,1,2-3.33c-.06-.15-.11-.31-.17-.47l-.07-.2a42,42,0,0,1-1.75-8,70.18,70.18,0,0,1-.44-8.32V56.9a49,49,0,0,1,.25-6.16,2.46,2.46,0,0,0-.5.1c-.32.11-.4.25-.7.91l-.07.15q-1.76,3.81-3.52,7.6L99.79,101q-1,2.16-2,4.34c-1.29,2.86-2.61,5.81-4,8.66-.21.47-.45,1-.68,1.44-.64,1.36-1.31,2.76-1.83,4.17a1,1,0,0,1-.92.64h0a1,1,0,0,1-.92-.64c-1.16-3-2.4-6.14-3.79-9.5-.82-2-2.32-5.31-3.34-7.43-1.12-2.31-2.18-4.69-3.21-7S77,90.89,75.81,88.54c-2.9-6-5.55-12.05-7.89-18.12L66.8,67.57c-1.92-4.89-3.91-9.94-4.85-15-.2-1-.24-1-1.3-1.22l-.39-.07C60.8,57,59.17,70.69,58.8,73.68l.33.46C62,78.3,62.36,82,60.42,87.82c-2.65,8-2.68,13.88-.09,18.13.78,1.27,1.64,2.51,2.48,3.71a43.23,43.23,0,0,1,4,6.56c2.28,4.85,3.17,9.1,2.74,13-1.51,13.61-8.44,24.13-11.4,28.62Zm66.69-107.9Zm-.42-.54Z"/></svg>