<svg id="图层_1" data-name="图层 1" xmlns="http://www.w3.org/2000/svg" viewBox="0 0 186 186"><defs><style>.cls-1{fill:#f5e3e9;}.cls-2{fill:#e2c9d2;}.cls-3{fill:#fff;}.cls-4{fill:#5b3b2f;}</style></defs><path class="cls-1" d="M131.13,73.5c0,2.14,3.38,16.5,3.3,26.16,0,5,4.95,29.61,4.95,34.59s-1.12,6-2.08,8.84-1.91,15.66-1.91,17.8,1.91.71,2.87-.71,1.91-7.83,2.87-9.26,1.91,0,1.91,0,0,7.83-1,10-5.73,7.83-5.73,7.83c0,3.56,3.82-.71,3.82-.71s7.65-8.54,9.56-11.39,1-13.53,1.91-27.06-1.91-27-1.91-31.33L146.29,50c0-6.41-11.94-12.46-15.29-13.53,0,0-.48-.35-4.78-1.42-3.73-.93-19.5-6.54-19.5-6.54l-1-12.6H82.91L82,29.17c-3.36,1.88-20.76,6.31-25.27,7.39a4.15,4.15,0,0,0-1.24.36c-4.61,1.95-15,7.71-15,13.41L37.8,98.23c0,4.28-2.87,17.8-1.92,31.33s0,24.21,1.92,27.06S47.35,168,47.35,168s3.83,4.27,3.83.71c0,0-4.78-5.69-5.74-7.83s-.95-10-.95-10a1.06,1.06,0,0,1,1.91,0c1,1.43,1.91,7.83,2.87,9.26s2.86,2.85,2.86.71-1-14.95-1.91-17.8-2.09-4.23-2.09-9.21,5.15-29.24,5-34.22c-.46-11.78,2.17-24.77,2.17-26.91,0,0,6.87,13.75,8.37,27.58.63,5.75-1.18,13.5-3.09,21.33s-2.87,29.19-2.87,29.19c21-3.56,32.8,2.21,32.8,2.21h6.69c22.94-12.11,31.84-3,31.84-3V138c-2.37-11.62-3.37-28.12-3.26-37.58.08-6.69,6.78-29.9,6.78-29.9"/><path class="cls-2" d="M73,39.88c3-.3,6-.5,9-.58,1.51,0,3,0,4.52.05a18.72,18.72,0,0,1,2.24.25,4.51,4.51,0,0,1,2.1.78,4.37,4.37,0,0,0-2.11-.66,18.68,18.68,0,0,0-2.24-.12c-1.5,0-3,.08-4.48.2-3,.24-6,.61-8.91,1.07Z"/><path class="cls-2" d="M115.22,39.88l.28,0h0c.44.06-.73-.34-.17.93l0,0-.07,0-.57-.1-1.16-.19-2.33-.35c-1.56-.21-3.12-.39-4.69-.53s-3.13-.22-4.71-.21a18.27,18.27,0,0,0-2.34.15,4.55,4.55,0,0,0-2.21.74,4.73,4.73,0,0,1,2.19-.87,20.79,20.79,0,0,1,2.36-.27,46.84,46.84,0,0,1,4.74,0c1.58,0,3.16.15,4.74.28l2.36.22,1.19.13.59.08a1,1,0,0,1,.22,0l0,0c.57,1.28-.61.87-.17.94h-.22l-.31,0Z"/><path class="cls-3" d="M131.88,154.62s-4.31-38.8-4.08-53.12c0-1.65.25-7.35.3-8.27.14-2.57.36-5.38.84-10.62.06-.68.38-5.67,2.52-7.63.67-.6,1.14,26,2.37,25.73a48,48,0,0,1,17.1-.22c1.76-2.65-1.33-25.61-1.41-28.8a178,178,0,0,0-1.76-19.57c-.09-.45-1-5.62-4.75-8.74-4.52-3.81-19-8.75-22.17-10.07-1.24-.53-2.52-.34-2.79.07h0c-13,18.31-29.49,19.41-44,2.67L72.22,34A2.64,2.64,0,0,0,70,33.08c-4.8,1.29-11.28,2.36-18.48,6.26-5.15,2.79-10.38,7.47-11.35,11.78C39,56.31,37.54,70.94,37.56,71.07l-.17,5.26c-.66,10.25-2.51,24.32-.33,24.29,0,0,9.16-1.43,16.44.19,1.58.35.48-26.82.83-26.31a16.13,16.13,0,0,1,2.14,4.57A67.66,67.66,0,0,1,58.13,87c.45,3.25.77,7,.84,8.87.45,13-2.65,58.79-2.65,58.79Z"/><path class="cls-4" d="M131.88,155.62H56.32a1,1,0,0,1-1-1.06c0-.46,3.1-45.92,2.65-58.7-.07-1.82-.39-5.59-.83-8.77a66.38,66.38,0,0,0-1.64-7.77c-.06-.21-.13-.46-.22-.72,0,.65,0,1.35,0,2.05.23,16.84-.07,20.12-1,20.9a1.16,1.16,0,0,1-1,.24c-6.9-1.54-15.69-.23-16.06-.18h-.17a1.49,1.49,0,0,1-1.11-.5c-1.32-1.42-1.06-6.38-.13-17.34.21-2.53.43-5.15.59-7.52L36.56,71h0c.07-1.83,1.55-15.52,2.59-20.13C40.3,45.84,46.25,41,51,38.46a62,62,0,0,1,15.77-5.61c1-.25,2-.49,2.93-.73A3.61,3.61,0,0,1,73,33.29L74.8,35.4C81.62,43.26,89,47.2,96.3,46.88S111,41.65,117.23,32.81c.59-.9,2.4-1.1,4-.42.62.26,1.75.69,3.18,1.23,5.8,2.19,15.52,5.86,19.23,9s4.81,7.89,5.08,9.29a177.6,177.6,0,0,1,1.79,19.76c0,.79.24,3,.53,5.7,1.43,13.89,2,21.78.71,23.68a1,1,0,0,1-1,.43,47.72,47.72,0,0,0-16.69.21,1.15,1.15,0,0,1-.9-.2c-.83-.62-1.13-2.64-1.87-16.55-.13-2.49-.27-5.18-.41-7.08a18.77,18.77,0,0,0-.92,4.72v.13c-.5,5.43-.71,8.1-.85,10.58-.05,1-.26,6.64-.29,8.24-.23,14.09,4,52.61,4.08,53a1,1,0,0,1-1,1.11Zm-74.49-2h73.38c-.7-6.46-4.18-39.28-4-52.14,0-1.61.24-7.33.3-8.31.13-2.51.35-5.2.84-10.65l0-.12c.33-3.94,1.31-6.77,2.83-8.16a1.06,1.06,0,0,1,1.09-.19c.82.33.85.35,1.4,10.77.27,5.09.66,12.53,1.11,14.75a49,49,0,0,1,15.9-.2c.69-3.19-.64-16.07-1.23-21.81-.3-2.89-.52-5-.54-5.85a177.78,177.78,0,0,0-1.74-19.39c-.25-1.28-1.29-5.55-4.41-8.18-3.46-2.91-13.35-6.64-18.66-8.65-1.45-.55-2.59-1-3.26-1.26a2.66,2.66,0,0,0-1.65-.18c-6.65,9.32-14.39,14.44-22.41,14.82s-15.87-3.82-23.1-12.16L71.47,34.6a1.78,1.78,0,0,0-1.25-.55c-.93.25-1.93.49-3,.75A60.19,60.19,0,0,0,52,40.22c-4.73,2.56-9.91,7-10.84,11.12-1.13,5-2.51,19.07-2.55,19.74v0l-.17,5.26c-.15,2.42-.38,5-.59,7.59-.5,5.92-1.18,13.93-.49,15.63,1.82-.24,9.32-1.12,15.68.11.53-2.72.39-13.58.31-19-.09-6.88-.09-6.88.72-7.14a1,1,0,0,1,1.14.39,17.07,17.07,0,0,1,2.27,4.88,66.82,66.82,0,0,1,1.69,8c.46,3.36.78,7.13.85,9C60.38,107.57,57.85,146.64,57.39,153.62ZM118.75,34.07Zm.13-.14,0,0S118.87,34,118.88,33.93Z"/></svg>