<svg id="图层_1" data-name="图层 1" xmlns="http://www.w3.org/2000/svg" viewBox="0 0 186 186"><defs><style>.cls-1{fill:#f5e3e9;}.cls-2{fill:#e2c9d2;}.cls-3{fill:#fff;}.cls-4{fill:#5b3b2f;}</style></defs><path class="cls-1" d="M132,73.61c0,2.13,3.38,16.5,3.3,26.16,0,5,4.95,29.6,4.95,34.59s-1.13,6-2.08,8.84-1.91,15.66-1.91,17.8,1.91.71,2.86-.71S141,152.45,142,151a1.06,1.06,0,0,1,1.91,0s0,7.83-1,10-5.74,7.83-5.74,7.83c0,3.56,3.83-.71,3.83-.71s7.64-8.55,9.55-11.39,1-13.53,1.92-27.06-1.92-27-1.92-31.33l-3.43-48.28c0-6.41-11.95-12.46-15.29-13.53,0,0-.48-.35-4.78-1.42-3.74-.93-19.51-6.54-19.51-6.54l-1-12.6H83.75l-1,13.31C79.43,31.16,62,35.59,57.52,36.67a3.93,3.93,0,0,0-1.25.36c-4.6,1.95-15,7.71-15,13.41l-2.64,47.9c0,4.28-2.86,17.8-1.91,31.33s0,24.21,1.91,27.06,9.56,11.39,9.56,11.39,3.82,4.27,3.82.71c0,0-4.77-5.7-5.73-7.83s-1-10-1-10a1.07,1.07,0,0,1,1.92,0c.95,1.42,1.91,7.83,2.86,9.26S53,163.13,53,161s-1-14.95-1.91-17.8S49,139,49,134s5.15-29.23,5-34.21C53.47,88,56.1,75,56.1,72.86c0,0,6.87,13.75,8.37,27.58.62,5.74-1.19,13.5-3.1,21.33S58.5,151,58.5,151c21-3.56,32.8,2.21,32.8,2.21H98c22.94-12.11,31.85-3,31.85-3v-12.1c-2.37-11.62-3.37-28.12-3.26-37.58.08-6.69,6.78-29.9,6.78-29.9"/><path class="cls-2" d="M73.79,40c3-.3,6-.51,9-.59,1.5,0,3,0,4.51.06a20.91,20.91,0,0,1,2.25.24,4.63,4.63,0,0,1,2.1.79,4.4,4.4,0,0,0-2.12-.66,18.57,18.57,0,0,0-2.24-.12c-1.49,0-3,.08-4.48.19-3,.25-6,.62-8.91,1.08Z"/><path class="cls-2" d="M116.05,40l.28,0h0c.45.06-.73-.35-.17.93l.05,0-.07,0-.57-.1-1.16-.2-2.34-.34c-1.55-.21-3.12-.39-4.68-.53s-3.14-.23-4.71-.21a18.54,18.54,0,0,0-2.35.15,4.51,4.51,0,0,0-2.2.74,4.63,4.63,0,0,1,2.18-.87,20.79,20.79,0,0,1,2.36-.27c1.58-.1,3.17-.09,4.75,0s3.16.16,4.74.29l2.36.22,1.18.13.6.08a1,1,0,0,1,.22,0l.05,0c.56,1.28-.61.87-.17.93h-.23l-.3,0Z"/><path class="cls-3" d="M132.72,154.73s-4.31-38.8-4.08-53.12c0-1.65.24-7.34.29-8.27.14-2.58.37-5.38.85-10.62.06-.68.38-5.67,2.52-7.63.66-.6,3.7,45.21,4.93,44.94,5.11-1.15,17.8,2.08,17.21-3.5-.38-3.53-4-42-4.09-44.73a180.64,180.64,0,0,0-1.75-19.57c-.1-.46-1-5.62-4.75-8.75-4.53-3.8-19-8.74-22.17-10.06-1.24-.53-2.52-.34-2.8.07h0c-13,18.31-29.49,19.41-44,2.67l-1.82-2.11a2.65,2.65,0,0,0-2.26-.86c-4.8,1.29-11.28,2.35-18.49,6.26C47.16,42.24,41.94,46.92,41,51.23c-1.17,5.19-2.6,19.82-2.58,20l-.16,5.25c-.67,10.26-2.59,36.15-2.95,40.05-.58,6.19,9.22,1.51,16.5,3.13,1.58.35,3-45.51,3.39-45a16.15,16.15,0,0,1,2.13,4.56A66.55,66.55,0,0,1,59,87.07c.45,3.25.77,7,.83,8.86.46,13-2.64,58.8-2.64,58.8Z"/><path class="cls-4" d="M132.72,155.73H57.16a1,1,0,0,1-.73-.31,1,1,0,0,1-.27-.75c0-.46,3.09-45.92,2.64-58.7-.06-1.81-.39-5.59-.82-8.77a66.72,66.72,0,0,0-1.65-7.77,9.67,9.67,0,0,0-.44-1.32c-.11,2-.25,4.83-.39,7.7-1.4,28.66-2,33.77-3,34.57a1.16,1.16,0,0,1-.9.2,28.28,28.28,0,0,0-8.37,0c-3.45.33-6.42.61-8-.94a3.82,3.82,0,0,1-.94-3.21c.37-4,2.31-30.19,2.95-40l.16-5.23h0C37.48,69.32,39,55.63,40,51c1.14-5.06,7.1-9.86,11.85-12.44A62,62,0,0,1,67.6,33c1-.25,2-.49,2.94-.74a3.62,3.62,0,0,1,3.27,1.18l1.83,2.1C82.45,43.37,89.9,47.32,97.13,47c7.42-.36,14.66-5.23,20.94-14.08.59-.89,2.39-1.1,4-.41.63.26,1.76.69,3.18,1.23,5.81,2.19,15.52,5.86,19.24,9s4.81,7.88,5.08,9.29a180.18,180.18,0,0,1,1.78,19.76c.07,2.56,3.68,40.89,4.08,44.65a3.37,3.37,0,0,1-.85,2.78c-1.86,2-6.11,1.82-10.61,1.65a30,30,0,0,0-6.52.15,1.1,1.1,0,0,1-.86-.18c-.81-.6-1.26-2.91-3.45-28.06-.5-5.8-1-11.73-1.38-14.94a18.86,18.86,0,0,0-1,4.86v.13c-.49,5.46-.71,8.13-.84,10.58-.05.86-.27,6.57-.29,8.23-.23,14.09,4,52.62,4.07,53a1,1,0,0,1-.25.78A1,1,0,0,1,132.72,155.73Zm-74.5-2H131.6c-.7-6.46-4.17-39.28-4-52.14,0-1.64.24-7.29.29-8.31.14-2.48.35-5.17.85-10.65v-.12c.33-4,1.31-6.77,2.84-8.16a1,1,0,0,1,1.05-.2c.86.34.88.35,2.45,18.43.82,9.37,2,23.16,2.71,26.32a39.35,39.35,0,0,1,6.2-.05c3.5.13,7.84.3,9.08-1a1.4,1.4,0,0,0,.32-1.2c-.37-3.48-4-42-4.09-44.81a172.71,172.71,0,0,0-1.74-19.39c-.25-1.28-1.28-5.55-4.41-8.18-3.45-2.91-13.34-6.65-18.65-8.65-1.45-.55-2.59-1-3.26-1.26a2.52,2.52,0,0,0-1.65-.18C113,43.48,105.25,48.59,97.23,49s-15.87-3.82-23.1-12.17l-1.83-2.1a1.7,1.7,0,0,0-1.24-.55c-.93.25-1.93.49-3,.75a60.06,60.06,0,0,0-15.29,5.42c-4.73,2.56-9.92,7-10.84,11.12-1.14,5-2.51,19.07-2.56,19.74v0l-.16,5.26c-.66,10.15-2.58,36-3,40.11-.1,1.14.24,1.49.36,1.6.89.89,3.68.63,6.37.37a33.29,33.29,0,0,1,8.23-.07c.85-3.69,1.77-22.42,2.27-32.77.58-11.84.58-11.84,1.39-12.07A1,1,0,0,1,56,74a17.13,17.13,0,0,1,2.28,4.88,71,71,0,0,1,1.69,8c.46,3.36.78,7.13.84,9C61.22,107.67,58.69,146.75,58.22,153.73ZM119.59,34.18Zm.13-.14,0,0Z"/></svg>