<svg id="图层_1" data-name="图层 1" xmlns="http://www.w3.org/2000/svg" viewBox="0 0 186 186"><defs><style>.cls-1{fill:#f5e3ea;}.cls-2{fill:#e2c9d2;}.cls-3{fill:#fff;}.cls-4{fill:#5b3b2f;}</style></defs><path class="cls-1" d="M79,25.56s4.54,17.88-19,26.81S28.52,67.17,30.35,87.2s3.57,58.06.89,72.36h21s3-65.07,2.62-70.95l7.13,71h60.16l6.24-71.69s4.66,55.61,4.66,71.69h21.44a261.69,261.69,0,0,1-1-62.48c3.68-33.11-7-34-27.58-43.83S107.18,39,107.18,25.56Z"/><path class="cls-2" d="M70,55.07c3-.3,6-.51,9-.59,1.51,0,3,0,4.53.06a19,19,0,0,1,2.26.24,4.63,4.63,0,0,1,2.1.79,4.4,4.4,0,0,0-2.12-.66,18.85,18.85,0,0,0-2.25-.12c-1.5,0-3,.07-4.49.19-3,.25-6,.62-8.94,1.08Z"/><path class="cls-2" d="M113.81,56.06c-3-.46-6-.83-8.94-1.08-1.5-.12-3-.2-4.5-.19a18.57,18.57,0,0,0-2.24.12,4.4,4.4,0,0,0-2.12.66,4.63,4.63,0,0,1,2.1-.79,19,19,0,0,1,2.26-.24c1.51-.09,3-.09,4.53-.06,3,.08,6,.29,9,.59Z"/><path class="cls-3" d="M156.48,74.51C155.13,65.88,143.41,57,135.27,56c-3.22-.42-19.6,3.27-27,8.45-.36.25-15.94,11.7-15.94,11.7S76,64,75.67,63.68c-4.58-3.75-18.85-9.49-23-9C44.52,55.52,31.33,64,29.73,73.5c-.11.66-2.56,10,1.27,9.5,11.67-1.5,17,1,23,13.78A20,20,0,0,1,55.89,104c.22,7.34.89,30.52.91,40.79,0,6-.77,14.77-.77,14.77H130s-.79-8.76-.77-14.77c0-10.27.68-34.57.94-41.91A21.13,21.13,0,0,1,134,92.56c6.39-9,11.5-11.73,21.5-9.81C158.73,83.37,157.12,78.59,156.48,74.51Z"/><path class="cls-4" d="M130,160.56H56a1,1,0,0,1-.74-.33,1,1,0,0,1-.25-.76c0-.09.78-8.79.76-14.67,0-9.93-.64-31.82-.91-40.77a18.81,18.81,0,0,0-1.75-6.82C47.5,85.34,42.77,82.5,31.13,84a2.49,2.49,0,0,1-2.28-.78c-1.26-1.39-1.32-4.42-.17-9.55,0-.16.06-.27.07-.33,1.7-10.11,15.4-18.77,23.81-19.69,4.63-.51,19.12,5.48,23.74,9.26.39.31,11.17,8.37,16,12,3.12-2.3,15-11,15.36-11.28,7.57-5.29,24.16-9.08,27.72-8.63,10.46,1.35,20.88,11.79,22.07,19.39.11.72.26,1.47.4,2.21.56,2.88,1,5.36-.19,6.6a2.48,2.48,0,0,1-2.37.56c-9.32-1.79-14.11.41-20.49,9.4a20.24,20.24,0,0,0-3.68,9.79c-.26,7.18-.92,31.66-.94,41.88,0,5.88.76,14.58.76,14.67a1,1,0,0,1-.25.76A1,1,0,0,1,130,160.56Zm-72.85-2h71.76c-.21-2.55-.69-9-.68-13.77,0-10.24.68-34.76.94-41.94a22.11,22.11,0,0,1,4-10.87c6.79-9.56,12.47-12.14,22.51-10.21.37.07.54,0,.57,0,.48-.48,0-3.18-.35-4.8-.15-.76-.3-1.53-.42-2.28h0c-1.06-6.79-10.86-16.49-20.35-17.71-2.82-.37-18.88,3.08-26.32,8.28-.34.23-10.56,7.75-15.91,11.69a1,1,0,0,1-1.2,0C90,75.68,75.38,64.74,75,64.45c-4.52-3.71-18.47-9.24-22.26-8.82-7.62.83-20.52,8.94-22.05,18,0,.06,0,.21-.09.42-1.35,6-.57,7.48-.3,7.78.06.06.17.19.54.14,12.62-1.62,18,1.59,24.07,14.34a21,21,0,0,1,2,7.62c.27,9,.89,30.87.91,40.82C57.81,149.52,57.33,156,57.12,158.56Z"/></svg>