<svg id="图层_1" data-name="图层 1" xmlns="http://www.w3.org/2000/svg" viewBox="0 0 186 186"><defs><style>.cls-1{fill:#fff;}.cls-2{fill:#5b3b2f;}.cls-3{fill:#f5e3e9;}</style></defs><path class="cls-1" d="M58.29,125.88c-5.29-1-10.37-2.46-15-5.38C41,119,38,116.64,37.17,113.88s.61-6.08-.37-9A18.91,18.91,0,0,0,32,98L52.74,65,71.16,72.7Z"/><path class="cls-2" d="M58.29,126.88l-.19,0c-4.72-.91-10.23-2.28-15.32-5.52-2.51-1.59-5.69-4.13-6.57-7.18a12.64,12.64,0,0,1-.18-4.7,10.45,10.45,0,0,0-.18-4.27,18.1,18.1,0,0,0-4.57-6.52,1,1,0,0,1-.14-1.24l20.76-33a1,1,0,0,1,1.23-.39l18.41,7.71a1,1,0,0,1,.59,1.16L59.26,126.11A1,1,0,0,1,58.29,126.88Zm-25-29.06a18.67,18.67,0,0,1,4.49,6.73,12.06,12.06,0,0,1,.28,5.09,11.08,11.08,0,0,0,.11,4c.75,2.58,3.9,4.9,5.72,6.05a39.93,39.93,0,0,0,13.7,5.06L70,73.3,53.14,66.24Z"/><path class="cls-1" d="M156.39,98.11c-3.57,2.77-4,7.19-5.75,11.06a25.77,25.77,0,0,1-8.43,10.76c-5.62,3.9-12.09,2.29-17.65,6.92L121.3,68l27,16.69Z"/><path class="cls-2" d="M124.56,127.85a1.1,1.1,0,0,1-.4-.08,1,1,0,0,1-.6-.87L120.3,68a1,1,0,0,1,1.53-.9l26.94,16.69a1,1,0,0,1,.33.33l8.15,13.43A1,1,0,0,1,157,98.9c-2.32,1.8-3.21,4.41-4.15,7.18-.39,1.15-.79,2.34-1.31,3.5a26.72,26.72,0,0,1-8.77,11.17c-2.8,2-5.77,2.59-8.65,3.22-3.17.7-6.17,1.35-8.93,3.65A1,1,0,0,1,124.56,127.85Zm-2.15-58,3,55.11a23.76,23.76,0,0,1,8.25-2.94c2.8-.61,5.46-1.19,7.93-2.91a24.77,24.77,0,0,0,8.08-10.35c.48-1.07.87-2.22,1.25-3.32.91-2.68,1.84-5.43,4.13-7.54l-7.58-12.5Z"/><path class="cls-3" d="M130.37,73.5c0,2.14,3.38,16.5,3.3,26.16,0,5,5,29.61,5,34.59s-1.12,6-2.08,8.84-1.91,15.66-1.91,17.8,1.91.71,2.87-.71,1.91-7.83,2.86-9.26a1.07,1.07,0,0,1,1.92,0s0,7.83-1,10-5.74,7.83-5.74,7.83c0,3.56,3.83-.71,3.83-.71s7.64-8.54,9.56-11.39.95-13.53,1.91-27.06-1.91-27-1.91-31.33L145.53,50c0-6.41-11.95-12.46-15.29-13.53,0,0-.48-.35-4.78-1.42-3.74-.93-19.51-6.54-19.51-6.54l-1-12.6H82.15l-1,13.31c-3.36,1.88-20.76,6.31-25.27,7.39a4.15,4.15,0,0,0-1.24.36c-4.61,1.95-15,7.71-15,15.72L37,100.54c0,2-2.86,15.49-1.91,29s0,24.21,1.91,27.06S46.59,168,46.59,168s3.83,4.27,3.83.71c0,0-4.78-5.69-5.74-7.83s-1-10-1-10a1.07,1.07,0,0,1,1.92,0c1,1.43,1.91,7.83,2.86,9.26s2.87,2.85,2.87.71-.95-14.95-1.91-17.8-2.09-4.23-2.09-9.21,5.15-29.24,5-34.22c-.46-11.78,2.17-24.77,2.17-26.91,0,0,6.87,13.75,8.37,27.58.62,5.75-1.19,13.5-3.1,21.33s-2.86,29.19-2.86,29.19c21-3.56,32.8,2.21,32.8,2.21H96.4c22.94-12.11,31.84-3,31.84-3V138c-2.37-11.62-3.37-28.12-3.26-37.58.08-6.69,6.78-29.9,6.78-29.9"/><path class="cls-1" d="M116.93,34.16a7.57,7.57,0,0,1-.88.91c-4.92,5.84-9.14,10.41-17,12.11a22.78,22.78,0,0,1-15.12-2.1c-5.09-2.63-7.68-7.55-12.22-10.76-1.7-1.21-3.7-.89-5.62-.45-8.6,2-24.26,7.91-26.7,17.25Q35.77,74,32.15,96.88a1.17,1.17,0,0,0,1,1.32,8,8,0,0,0,4.08-.31c2.41-.88,4.23-3,7.58-7a10,10,0,0,1,1.76-1.82c1.43-1,2.9-1.27,4.93-2.4,1.6-.89,3.74-2.6,5.09-8.12,0,0,2-1.75,1.75,4.55-.07-.11-2.73,71.49-2.73,71.49h75.56s-8.26-54.23-1.59-74.3c0,0,1.75,6.13,10.8,8a13.18,13.18,0,0,1,6.22,3.15c1.2,1.09,2.74,2.42,4.52,3.84a15.46,15.46,0,0,0,5.32,2.85c2.14.72-1.42-11.49-1.77-12.79a238.38,238.38,0,0,1-6.3-28.55A22.11,22.11,0,0,0,141.21,43c-4.52-3.91-10.59-5.36-15.92-7.83C123.08,34.13,118.48,31.64,116.93,34.16Z"/><path class="cls-2" d="M131.12,155.62H55.56a1,1,0,0,1-.72-.3,1,1,0,0,1-.28-.73s.66-17.87,1.34-35.74c.33-8.94.67-17.87.93-24.58.13-3.35.24-6.15.32-8.1.07-1.61.11-2.53.18-3.08h0a14,14,0,0,0-.11-3c-1.43,4.84-3.53,6.55-5.25,7.51a21.08,21.08,0,0,1-2.52,1.16,9.94,9.94,0,0,0-2.3,1.17,6.6,6.6,0,0,0-1.29,1.3l-.29.36c-3.46,4.06-5.36,6.29-8,7.26a9,9,0,0,1-4.57.35,2.14,2.14,0,0,1-1.78-2.45L38.38,51C41,41,56.86,35,65.85,32.89c2-.46,4.38-.84,6.42.61a34.86,34.86,0,0,1,5.31,4.94c2.09,2.23,4.06,4.33,6.79,5.75a21.66,21.66,0,0,0,14.45,2c7.43-1.6,11.35-5.7,16.47-11.77a5.1,5.1,0,0,1,.46-.47,2.56,2.56,0,0,0,.33-.32h0c1.89-3.06,6.54-.85,9,.34l.6.28c1.57.73,3.25,1.39,4.87,2,3.92,1.53,8,3.12,11.28,6a23.09,23.09,0,0,1,7.44,14.4,235.88,235.88,0,0,0,6.27,28.42l.09.33c3.36,11.93,2.39,12.84,1.82,13.39a1.36,1.36,0,0,1-1.42.29,16.49,16.49,0,0,1-5.62-3c-1.58-1.26-3.12-2.56-4.57-3.87a12.14,12.14,0,0,0-5.75-2.92c-5.89-1.19-8.88-4.1-10.33-6.23-5.23,21.24,2.23,70.94,2.31,71.45a1,1,0,0,1-.23.81A1,1,0,0,1,131.12,155.62Zm-74.52-2H130c-1.18-8.15-7.59-54.93-1.38-73.61a1,1,0,0,1,1-.69,1,1,0,0,1,.94.73c.07.22,1.75,5.57,10,7.24a14.09,14.09,0,0,1,6.69,3.39c1.43,1.28,2.94,2.56,4.49,3.8a13.77,13.77,0,0,0,4.38,2.46c0-1-.28-3.72-2.34-11l-.09-.34a237.89,237.89,0,0,1-6.32-28.66,21.11,21.11,0,0,0-6.77-13.17c-3-2.63-6.93-4.15-10.7-5.62-1.65-.64-3.36-1.31-5-2.06l-.61-.29c-1.93-.92-5.53-2.64-6.48-1.1h0a3.56,3.56,0,0,1-.69.77,2.29,2.29,0,0,0-.27.27c-5.22,6.19-9.54,10.7-17.57,12.44A23.66,23.66,0,0,1,83.46,46a27.37,27.37,0,0,1-7.34-6.15,32.93,32.93,0,0,0-5-4.68c-1.38-1-3.07-.69-4.82-.29-8,1.82-23.64,7.62-26,16.54L33.14,97a.16.16,0,0,0,.12.17A7.16,7.16,0,0,0,36.84,97c2.15-.79,3.93-2.88,7.16-6.67l.28-.34a8.52,8.52,0,0,1,1.65-1.64,11.44,11.44,0,0,1,2.73-1.41A18.84,18.84,0,0,0,51,85.83c1.5-.83,3.38-2.44,4.61-7.48a1,1,0,0,1,.31-.52,1.83,1.83,0,0,1,1.95-.31c1.16.56,1.6,2.3,1.46,5.65a.38.38,0,0,1,0,.1C59.16,84.92,57.5,129.33,56.6,153.62Z"/></svg>