<svg id="图层_1" data-name="图层 1" xmlns="http://www.w3.org/2000/svg" viewBox="0 0 186 186"><defs><style>.cls-1{fill:#f5e3e9;}.cls-2{fill:#fff;}.cls-3{fill:#5b3b2f;}</style></defs><path class="cls-1" d="M130.37,73.5c0,2.14,3.38,16.5,3.3,26.16,0,5,5,29.61,5,34.59s-1.12,6-2.08,8.84-1.91,15.66-1.91,17.8,1.91.71,2.87-.71,1.91-7.83,2.86-9.26a1.07,1.07,0,0,1,1.92,0s0,7.83-1,10-5.74,7.83-5.74,7.83c0,3.56,3.83-.71,3.83-.71s7.64-8.54,9.56-11.39.95-13.53,1.91-27.06-1.91-27-1.91-31.33L145.53,50c0-6.41-11.95-12.46-15.29-13.53,0,0-.48-.35-4.78-1.42-3.74-.93-19.51-6.54-19.51-6.54l-1-12.6H82.15l-1,13.31c-3.36,1.88-20.76,6.31-25.27,7.39a4.15,4.15,0,0,0-1.24.36c-4.61,1.95-15,7.71-15,13.41L37,98.23c0,4.28-2.86,17.8-1.91,31.33s0,24.21,1.91,27.06S46.59,168,46.59,168s3.83,4.27,3.83.71c0,0-4.78-5.69-5.74-7.83s-1-10-1-10a1.07,1.07,0,0,1,1.92,0c1,1.43,1.91,7.83,2.86,9.26s2.87,2.85,2.87.71-.95-14.95-1.91-17.8-2.09-4.23-2.09-9.21,5.15-29.24,5-34.22c-.46-11.78,2.17-24.77,2.17-26.91,0,0,6.87,13.75,8.37,27.58.62,5.75-1.19,13.5-3.1,21.33s-2.86,29.19-2.86,29.19c21-3.56,32.8,2.21,32.8,2.21H96.4c22.94-12.11,31.84-3,31.84-3V138c-2.37-11.62-3.37-28.12-3.26-37.58.08-6.69,6.78-29.9,6.78-29.9"/><path class="cls-2" d="M128.19,116.45l2.93,38.17-74.31.09,1-38.78c1.12-35.69-2-38.89-2.92-39.07a.21.21,0,0,0-.25.21c0,2.19-.38,22.33-1.39,31.31-.37,3.34-2.3,1.86-2.31,1.85A35.09,35.09,0,0,1,43.79,103c-2-3-1.71-5.69-1.57-9.14a10.7,10.7,0,0,0-2.58-7.35c-3.45-4-3.93-8.2-3.33-13.3,1.1-9.36,1.4-23.4,8.89-30.29C51.3,37.3,60,34.58,67.93,33a5.57,5.57,0,0,1,5.22,1.73c6.2,6.87,13.4,13.62,23.33,13a23.87,23.87,0,0,0,12.66-4.94,29.39,29.39,0,0,0,5-4.79c1.74-2.09,2.34-4.69,5.29-4.94,2.46-.22,4.6,1,6.82,2,9,3.62,18.09,5.75,21,18.18,2.09,8.85,3,17.93,5.32,26.73,1,3.68-2.44,5.78-4.36,8.2-2.2,2.78-1.06,6.43-1,9.64.16,5.19-3.16,6.63-6.86,9.44a11,11,0,0,0-3.46,4.62,1.2,1.2,0,0,1-2.3-.35L131,78.11a.39.39,0,0,0-.77,0l-1.18,8.54A139.54,139.54,0,0,0,128.19,116.45Z"/><path class="cls-3" d="M56.81,155.71a1,1,0,0,1-.72-.3,1,1,0,0,1-.28-.72l1-38.78c.72-22.87-.33-32-1.23-35.71-.14,6.52-.52,21-1.33,28.29-.18,1.63-.76,2.63-1.72,3a2.46,2.46,0,0,1-2.3-.51,34.88,34.88,0,0,1-7.28-7.4c-2-3.07-1.91-5.83-1.77-9l0-.69a9.63,9.63,0,0,0-2.35-6.66c-4-4.73-4.08-9.56-3.55-14.07.15-1.28.28-2.65.43-4.08.91-9.19,2-20.63,8.77-26.83C49.7,37.42,57.29,34.09,67.73,32a6.59,6.59,0,0,1,6.16,2c5.82,6.45,12.85,13.29,22.52,12.63a22.85,22.85,0,0,0,12.13-4.75,28.81,28.81,0,0,0,4.82-4.63,16.35,16.35,0,0,0,1.18-1.68c1-1.59,2.16-3.39,4.79-3.62a12,12,0,0,1,6,1.47c.44.19.87.38,1.3.55,1,.4,2,.77,2.92,1.14,7.85,3,16,6.15,18.7,17.74,1,4.08,1.69,8.27,2.39,12.31.83,4.75,1.68,9.67,2.91,14.4.88,3.36-1.32,5.64-3.09,7.47-.53.55-1,1.07-1.45,1.6-1.43,1.81-1.18,4.14-.93,6.6.08.79.17,1.6.19,2.39.16,4.94-2.66,7-5.64,9.09-.52.37-1.06.76-1.61,1.18a9.91,9.91,0,0,0-3.15,4.22,2.2,2.2,0,0,1-4.21-.64l-3.06-28.35-.5,3.61a139.54,139.54,0,0,0-.9,29.6l2.94,38.17a1,1,0,0,1-.26.75,1,1,0,0,1-.74.32l-74.31.09Zm-2-79.86a1,1,0,0,1,.24,0c3.28.66,4.53,14.15,3.72,40.08l-1,37.75,72.21-.08-2.85-37.1h0a140.83,140.83,0,0,1,.91-30L129.28,78a1.37,1.37,0,0,1,1.37-1.2h0A1.37,1.37,0,0,1,132,78l3.6,33.31a.16.16,0,0,0,.16.17.17.17,0,0,0,.22-.12,12,12,0,0,1,3.77-5c.57-.43,1.13-.83,1.67-1.22,3-2.12,4.93-3.53,4.8-7.39,0-.72-.1-1.46-.18-2.25-.27-2.63-.58-5.61,1.35-8,.48-.61,1-1.18,1.58-1.74,1.71-1.78,3.19-3.31,2.6-5.59-1.26-4.81-2.12-9.76-2.95-14.55-.7-4-1.42-8.18-2.37-12.2C143.8,42.79,136.85,40.12,128.81,37l-3-1.15-1.35-.58a10.59,10.59,0,0,0-5-1.31c-1.57.14-2.23,1.07-3.28,2.71a16.54,16.54,0,0,1-1.32,1.88,30.88,30.88,0,0,1-5.16,5,24.7,24.7,0,0,1-13.2,5.14c-10.59.7-18-6.48-24.14-13.28A4.58,4.58,0,0,0,68.12,34c-10.07,2-17.35,5.18-22.24,9.68-6.18,5.68-7.27,16.69-8.14,25.54-.15,1.45-.28,2.83-.44,4.13-.55,4.69-.23,8.62,3.1,12.54a11.64,11.64,0,0,1,2.82,8l0,.7c-.14,3.09-.24,5.32,1.43,7.84a34.21,34.21,0,0,0,7,7,.71.71,0,0,0,.3.1s.27-.21.39-1.3c1-8.93,1.34-28.95,1.38-31.2a1.22,1.22,0,0,1,.46-.94A1.15,1.15,0,0,1,54.86,75.85Z"/></svg>