<svg id="图层_1" data-name="图层 1" xmlns="http://www.w3.org/2000/svg" viewBox="0 0 186 186"><defs><style>.cls-1{fill:#f5e3e9;}.cls-2{fill:#e2c9d2;}.cls-3{fill:#fff;}.cls-4{fill:#5b3b2f;}</style></defs><path class="cls-1" d="M132.82,73.5c0,2.14,3.37,16.5,3.3,26.16,0,5,4.95,29.61,4.95,34.59s-1.13,6-2.08,8.84-1.91,15.66-1.91,17.8,1.91.71,2.86-.71,1.92-7.83,2.87-9.26a1.06,1.06,0,0,1,1.91,0s0,7.83-.95,10-5.74,7.83-5.74,7.83c0,3.56,3.83-.71,3.83-.71s7.64-8.54,9.55-11.39,1-13.53,1.92-27.06-1.92-27-1.92-31.33L148,50c0-6.41-11.95-12.46-15.29-13.53,0,0-.48-.35-4.78-1.42-3.74-.93-19.51-6.54-19.51-6.54l-1-12.6H84.59l-1,13.31c-3.37,1.88-20.76,6.31-25.27,7.39a4.21,4.21,0,0,0-1.25.36c-4.6,1.95-15,7.71-15,13.41l-2.64,47.9c0,4.28-2.87,17.8-1.91,31.33s0,24.21,1.91,27.06S49,168,49,168s3.82,4.27,3.82.71c0,0-4.78-5.69-5.73-7.83s-1-10-1-10,1-1.42,1.91,0S50,158.75,51,160.18s2.87,2.85,2.87.71-1-14.95-1.91-17.8-2.09-4.23-2.09-9.21,5.15-29.24,5-34.22c-.46-11.78,2.16-24.77,2.16-26.91,0,0,6.88,13.75,8.38,27.58.62,5.75-1.19,13.5-3.1,21.33s-2.87,29.19-2.87,29.19c21-3.56,32.8,2.21,32.8,2.21h6.69c22.94-12.11,31.85-3,31.85-3V138c-2.37-11.62-3.37-28.12-3.26-37.58.08-6.69,6.78-29.9,6.78-29.9"/><path class="cls-2" d="M74.64,39.88c3-.3,6-.5,9-.58,1.5,0,3,0,4.51.05a18.88,18.88,0,0,1,2.25.25,4.43,4.43,0,0,1,2.09.78,4.33,4.33,0,0,0-2.11-.66,18.57,18.57,0,0,0-2.24-.12c-1.49,0-3,.08-4.48.2-3,.24-6,.61-8.91,1.07Z"/><path class="cls-2" d="M116.9,39.88l.28,0h0c.45.06-.73-.34-.17.93l0,0-.07,0-.57-.1-1.16-.19L113,40.23c-1.55-.21-3.12-.39-4.68-.53s-3.14-.22-4.71-.21a18.54,18.54,0,0,0-2.35.15,4.51,4.51,0,0,0-2.2.74,4.74,4.74,0,0,1,2.18-.87,20.79,20.79,0,0,1,2.36-.27,47,47,0,0,1,4.75,0c1.58,0,3.16.15,4.74.28l2.36.22,1.18.13.6.08a1.12,1.12,0,0,1,.22,0l0,0c.56,1.28-.61.87-.17.94h-.23l-.3,0Z"/><path class="cls-3" d="M133.57,154.62s-4.31-38.8-4.08-53.12c0-1.65.24-7.37.29-8.27.14-2.57.37-5.38.85-10.62.06-.68.38-5.67,2.52-7.63.66-.6,5.85,61.54,6.83,62.74,1.61,2,8.52-1.83,13.54.68,4.5,2.25-2.25-64-2.32-66.71a178,178,0,0,0-1.76-19.57c-.09-.45-1-5.62-4.75-8.74-4.52-3.81-19-8.75-22.16-10.07-1.24-.53-2.53-.34-2.8.07h0c-13,18.31-29.49,19.41-44,2.67L73.91,34a2.66,2.66,0,0,0-2.26-.87c-4.8,1.29-11.28,2.36-18.49,6.26C48,42.13,42.79,46.81,41.82,51.12c-1.17,5.19-1.91,16.56-2.28,20.38l-.74,8.71c-.66,10.26-5,59.71-1.42,58.1,3.18-1.43,12.88,1.35,14.12-.48S55.67,74,56,74.5a16.07,16.07,0,0,1,2.13,4.57A66.07,66.07,0,0,1,59.82,87c.44,3.25.77,7,.83,8.87.46,13-2.64,58.79-2.64,58.79Z"/><path class="cls-4" d="M133.57,155.62H58a1,1,0,0,1-.73-.31,1,1,0,0,1-.27-.75c0-.46,3.09-45.92,2.64-58.7-.06-1.82-.39-5.6-.82-8.77a67.59,67.59,0,0,0-1.65-7.77,11.93,11.93,0,0,0-.47-1.38c-.21,3.35-.53,8.9-.86,14.66-2,34.38-2.75,44.66-3.52,45.79-.93,1.37-3.33,1.21-7.5.8-2.69-.26-5.74-.55-7,0a1.35,1.35,0,0,1-1.36-.12c-2.17-1.52-2-14.65.87-52,.22-3,.4-5.39.5-6.92l.74-8.73c.08-.8.17-1.91.28-3.22.43-5.22,1.08-13.11,2-17.29C42,45.84,47.93,41,52.69,38.46a62,62,0,0,1,15.76-5.61c1-.25,2-.49,2.94-.73a3.59,3.59,0,0,1,3.27,1.17l1.83,2.11C83.3,43.26,90.74,47.21,98,46.88c7.42-.36,14.66-5.23,20.94-14.07.59-.9,2.39-1.1,4-.42.63.26,1.75.69,3.18,1.23,5.8,2.19,15.52,5.86,19.24,9s4.81,7.89,5.08,9.29a180.18,180.18,0,0,1,1.78,19.76c0,.42.22,2.75.51,6,4.37,49.16,3.88,60.17,1.82,61.58a1.42,1.42,0,0,1-1.46.08c-2.47-1.24-5.64-.74-8.19-.33s-4.58.72-5.67-.61c-.57-.69-1.09-4.85-4-34.75-1-10-2-21.14-2.62-25.9a18.41,18.41,0,0,0-1,4.87v.13c-.49,5.43-.7,8.1-.84,10.58-.05,1-.27,6.62-.29,8.24-.23,14.09,4,52.61,4.07,53a1,1,0,0,1-1,1.11Zm-74.49-2h73.37c-.7-6.45-4.17-39.28-4-52.14,0-1.62.24-7.34.29-8.31.14-2.51.35-5.2.85-10.65V82.4c.33-3.94,1.31-6.77,2.84-8.16a1,1,0,0,1,1-.2c.9.35.92.36,3.71,29.37,1.36,14.12,3,31.62,3.61,33.75.51.33,2.28.05,3.73-.18,2.69-.42,6-.95,8.94.31,1.36-3.33.42-23.33-2.8-59.48-.33-3.79-.49-5.64-.51-6.1a172.93,172.93,0,0,0-1.74-19.39c-.25-1.28-1.28-5.55-4.41-8.18-3.45-2.91-13.34-6.64-18.66-8.65-1.44-.55-2.59-1-3.25-1.26a2.59,2.59,0,0,0-1.65-.18c-6.65,9.32-14.39,14.44-22.41,14.82S82.21,45.05,75,36.71L73.15,34.6a1.76,1.76,0,0,0-1.24-.55c-.93.25-1.93.49-3,.75a60.06,60.06,0,0,0-15.29,5.42c-4.73,2.56-9.92,7-10.85,11.12s-1.58,12.17-2,17c-.11,1.32-.2,2.43-.27,3.23l-.74,8.7c-.1,1.52-.28,3.93-.51,6.92-.86,11.42-3.42,45.46-1.79,50,1.85-.55,4.72-.27,7.52,0,1.87.18,5,.48,5.63.08.8-2.6,2.3-29,3.2-44.79.29-5.09.55-9.59.75-12.83.37-5.91.37-5.91,1.14-6.13a1,1,0,0,1,1.1.4,17.13,17.13,0,0,1,2.28,4.88,71,71,0,0,1,1.69,8c.46,3.35.78,7.13.84,9C62.07,107.57,59.54,146.64,59.08,153.62ZM120.57,33.93l0,0Z"/></svg>