<svg id="图层_1" data-name="图层 1" xmlns="http://www.w3.org/2000/svg" viewBox="0 0 186 186"><defs><style>.cls-1{fill:#f5e3e9;}.cls-2{fill:#e2c9d2;}.cls-3{fill:#fff;}.cls-4{fill:#5b3b2f;}</style></defs><path class="cls-1" d="M130,73.5c0,2.14,3.38,16.5,3.3,26.16,0,5,4.95,29.61,4.95,34.59s-1.13,6-2.08,8.84-1.91,15.66-1.91,17.8,1.91.71,2.86-.71,1.92-7.83,2.87-9.26a1.06,1.06,0,0,1,1.91,0s0,7.83-1,10-5.74,7.83-5.74,7.83c0,3.56,3.83-.71,3.83-.71s7.64-8.54,9.55-11.39,1-13.53,1.92-27.06-1.92-27-1.92-31.33L145.16,50c0-6.41-11.95-12.46-15.29-13.53,0,0-.48-.35-4.78-1.42-3.74-.93-19.51-6.54-19.51-6.54l-1-12.6H81.78l-1,13.31c-3.36,1.88-20.76,6.31-25.27,7.39a4.21,4.21,0,0,0-1.25.36c-4.6,1.95-15,7.71-15,15.72l-2.64,47.9c0,2-2.86,15.49-1.91,29s0,24.21,1.91,27.06S46.22,168,46.22,168s3.82,4.27,3.82.71c0,0-4.77-5.69-5.73-7.83s-1-10-1-10a1.07,1.07,0,0,1,1.92,0c.95,1.43,1.91,7.83,2.86,9.26S51,163,51,160.89s-1-14.95-1.91-17.8S47,138.86,47,133.88s5.15-29.24,5-34.22c-.46-11.78,2.16-24.77,2.16-26.91,0,0,6.88,13.75,8.38,27.58.62,5.75-1.19,13.5-3.1,21.33s-2.87,29.19-2.87,29.19c21-3.56,32.8,2.21,32.8,2.21H96c22.94-12.11,31.85-3,31.85-3V138c-2.37-11.62-3.37-28.12-3.26-37.58.08-6.69,6.78-29.9,6.78-29.9"/><path class="cls-2" d="M71.82,39.88c3-.3,6-.5,9-.58,1.5,0,3,0,4.51.05a18.88,18.88,0,0,1,2.25.25,4.51,4.51,0,0,1,2.1.78,4.4,4.4,0,0,0-2.12-.66,18.57,18.57,0,0,0-2.24-.12c-1.49,0-3,.08-4.48.2-3,.24-6,.61-8.91,1.07Z"/><path class="cls-2" d="M114.08,39.88l.28,0h0c.45.06-.73-.34-.17.93l.05,0-.07,0-.57-.1-1.16-.19-2.34-.35c-1.55-.21-3.12-.39-4.68-.53s-3.14-.22-4.71-.21a18.54,18.54,0,0,0-2.35.15,4.51,4.51,0,0,0-2.2.74,4.74,4.74,0,0,1,2.18-.87,20.79,20.79,0,0,1,2.36-.27,47,47,0,0,1,4.75,0c1.58,0,3.16.15,4.74.28l2.36.22,1.18.13.6.08a1,1,0,0,1,.22,0l.05,0c.56,1.28-.61.87-.17.94h-.23l-.3,0Z"/><path class="cls-3" d="M130.75,154.62s-4.31-38.8-4.08-53.12c.06-3.62.29-8.27.29-8.27.14-2.57.37-5.38.85-10.62.06-.68.38-8.24,2.52-10.19.58-.53-.29,4.7.75,4.5,4.67-.93,14.7-.73,16.42-2,.56-.42,1.15-1.09.88-3.23-.64-5.21-1.06-16-1.76-19.57-.09-.45-1-5.62-4.74-8.74-4.53-3.81-19-8.75-22.17-10.07-1.24-.53-2.52-.34-2.8.07h0c-13,18.31-29.49,19.41-44,2.67L71.09,34a2.66,2.66,0,0,0-2.26-.87c-4.8,1.29-11.28,2.36-18.49,6.26C45.19,42.13,40,46.81,39,51.12c-1.17,5.19-2.11,15.1-2.58,22.26a1.53,1.53,0,0,0,0,.37l0,.28c.23,1.39,1.38,1.85,2.76,2.12l.11,0a106.73,106.73,0,0,0,14,1.15c1.09,0,.57-5.39,1-5,1,.86,1.55,5,1.79,6.24.65,3.37,1,5.47,1.21,7.46a92.35,92.35,0,0,1,.45,9.79c-.24,14.65-2.64,58.79-2.64,58.79Z"/><path class="cls-4" d="M130.75,155.62H55.19a1,1,0,0,1-.73-.31,1,1,0,0,1-.27-.74c0-.44,2.4-44.3,2.64-58.76a89.24,89.24,0,0,0-.45-9.66c-.19-1.9-.53-4-1.19-7.38,0-.18-.08-.43-.14-.72s-.15-.84-.22-1.21c-.22.87-.65,1.46-1.47,1.48a107.21,107.21,0,0,1-14.2-1.17h0l-.15,0c-.9-.18-3.13-.61-3.5-2.93l0-.28a3,3,0,0,1,0-.6c.47-7,1.42-17.15,2.6-22.4,1.14-5.07,7.1-9.87,11.85-12.45a62,62,0,0,1,15.76-5.61c1-.25,2-.49,2.94-.73a3.59,3.59,0,0,1,3.27,1.17l1.83,2.11c6.81,7.86,14.24,11.8,21.49,11.48,7.42-.36,14.66-5.23,20.94-14.07.59-.9,2.39-1.1,4-.42.63.26,1.76.69,3.18,1.23,5.81,2.19,15.52,5.86,19.24,9s4.81,7.89,5.08,9.29c.41,2.08.71,6.29,1,10.75.23,3.27.47,6.66.75,8.92.25,2.06-.13,3.3-1.29,4.15s-4.25,1.11-9.17,1.43a67.76,67.76,0,0,0-7.64.75,1.26,1.26,0,0,1-1.06-.27,2,2,0,0,1-.6-1.24,38,38,0,0,0-.79,6l0,.33c-.49,5.43-.7,8.1-.84,10.58,0,0-.24,4.67-.29,8.24-.23,14.09,4,52.61,4.07,53a1,1,0,0,1-.24.78A1,1,0,0,1,130.75,155.62Zm-74.51-2h73.39c-.7-6.46-4.17-39.28-4-52.14,0-3.59.29-8.26.29-8.3.14-2.52.35-5.21.85-10.66l0-.28c.38-5.72,1.31-9.17,2.83-10.56a1.08,1.08,0,0,1,1.18-.21c.75.34.73,1.08.7,2.56,0,.45,0,1.26,0,1.78,2-.32,4.65-.49,7.23-.66,3.11-.2,7.36-.48,8.12-1,.26-.19.7-.52.48-2.3-.28-2.3-.52-5.72-.76-9-.3-4.2-.6-8.54-1-10.47-.25-1.28-1.28-5.55-4.41-8.18-3.45-2.91-13.34-6.64-18.65-8.65-1.45-.55-2.59-1-3.26-1.26a2.66,2.66,0,0,0-1.65-.18C111,43.37,103.28,48.49,95.26,48.87s-15.87-3.82-23.1-12.16L70.33,34.6a1.74,1.74,0,0,0-1.24-.55c-.93.25-1.93.49-3,.75a60.06,60.06,0,0,0-15.29,5.42c-4.73,2.56-9.92,7-10.84,11.12-1.16,5.14-2.1,15.12-2.56,22.1a.71.71,0,0,0,0,.15l0,.28c.1.6.45,1,2,1.29l.11,0h0a109.11,109.11,0,0,0,13.37,1.13,16.18,16.18,0,0,0,.21-2.45c.06-1.53.08-2.16.8-2.47a1.12,1.12,0,0,1,1.12.2c.91.8,1.41,2.85,2,6.1,0,.28.09.52.13.69.68,3.47,1,5.59,1.22,7.55a91.94,91.94,0,0,1,.46,9.9C58.61,109.08,56.61,146.82,56.24,153.62ZM117.62,34.07Zm.13-.14,0,0Z"/></svg>