<svg id="图层_1" data-name="图层 1" xmlns="http://www.w3.org/2000/svg" viewBox="0 0 186 186"><defs><style>.cls-1{fill:#f5e3ea;}.cls-2{fill:#e2c9d2;}.cls-3{fill:#fff;}.cls-4{fill:#5b3b2f;}</style></defs><path class="cls-1" d="M79.77,26s4.54,17.83-18.88,26.72S29.43,67.47,31.25,87.44s3.56,57.87.89,72.11h21s3-64.85,2.61-70.71l7.11,70.71h60L129,88.1s4.65,55.43,4.65,71.45H155a260.51,260.51,0,0,1-1-62.27c3.67-33-7-33.88-27.49-43.68s-18.7-14.24-18.7-27.6Z"/><path class="cls-1" d="M155.59,160.05H133.14v-.5c0-12.72-3-50.78-4.16-65.51l-5.75,66H62.37L56.12,97.9c-.53,18.91-2.43,59.55-2.52,61.68l0,.47h-22l.11-.59c2.6-13.86,1-51.15-.9-72-1.81-19.87,5.51-25.94,30-35.23,22.7-8.62,18.76-25.42,18.58-26.13l-.16-.62h29.19V26c0,1,0,2,0,3-.12,11.13-.17,15.29,18.43,24.19,2.11,1,4.11,1.92,6,2.78,16.72,7.62,25.11,11.45,21.78,41.41a263,263,0,0,0,1,62.14Zm-21.45-1h20.29a264.93,264.93,0,0,1-.92-61.82c3.25-29.24-4.92-33-21.19-40.39-1.9-.86-3.91-1.78-6-2.79-19.18-9.17-19.13-13.83-19-25.1,0-.78,0-1.6,0-2.45H80.38c.52,3.28,1.77,18.68-19.31,26.69-23.91,9.08-31.08,15-29.32,34.2,1.87,20.6,3.45,57.27,1,71.66H52.62c.27-5.93,3-64.67,2.59-70.17l1-.09,7.06,70.26h59l6.17-71h1C129.54,88.61,134.05,142.57,134.14,159.05Z"/><path class="cls-2" d="M70.8,55.42c3-.3,6-.51,9-.59,1.5,0,3,0,4.51.05a20.92,20.92,0,0,1,2.25.25,4.51,4.51,0,0,1,2.1.78,4.51,4.51,0,0,0-2.12-.66c-.74-.08-1.49-.11-2.23-.12-1.5,0-3,.08-4.49.2-3,.24-6,.62-8.91,1.08Z"/><path class="cls-2" d="M114.43,56.41c-3-.46-5.93-.84-8.91-1.08-1.49-.12-3-.2-4.48-.2-.75,0-1.5,0-2.24.12a4.47,4.47,0,0,0-2.11.66,4.43,4.43,0,0,1,2.09-.78,21.5,21.5,0,0,1,2.25-.25c1.51-.09,3-.09,4.52-.05,3,.08,6,.29,9,.59Z"/><path class="cls-3" d="M58.8,159a101,101,0,0,0,.84-13c0-2,0-4.48.13-7.3.27-9.4.63-22.28-1.57-35.08-1.79-10.36-5.52-25.84-8-36.08-1.06-4.4-1.9-7.87-2.1-9,4-3,13.14-6.91,15.84-8.05a.81.81,0,0,1,.27,0,.75.75,0,0,1,.51.21l2.2,2.21a35.68,35.68,0,0,0,52.92-2.62l1.18.43c4,1.57,13.26,5.25,17.25,8.12-1.37,5.46-7.3,30.62-9,44.85a257.46,257.46,0,0,0-.77,44c.34,4.4.65,9.22.78,11.31Z"/><path class="cls-4" d="M120.68,50.83h0m-.49.6.48.19c3.76,1.48,12.33,4.88,16.49,7.63-1.65,6.64-7.22,30.54-8.83,44.29a256.42,256.42,0,0,0-.77,44.23c.28,3.76.55,7.83.71,10.23H59.93a101,101,0,0,0,.71-12c0-2,0-4.46.13-7.27.27-9.45.63-22.38-1.59-35.28-1.79-10.39-5.52-25.89-8-36.14-.9-3.74-1.64-6.81-2-8.29,4.07-2.8,12.18-6.33,14.94-7.49l2.06,2.08a36.69,36.69,0,0,0,54-2.16m-55.85,0h0m55.55-2.21a1,1,0,0,0-.8.4h0a34.69,34.69,0,0,1-51.44,2.55L65.45,50a1.73,1.73,0,0,0-1.22-.51,1.69,1.69,0,0,0-.66.13c-3.08,1.3-12,5.16-16.06,8.19a1,1,0,0,0-.37,1c.64,3.56,7.48,30,10.07,45,2.85,16.52,1.38,33.33,1.43,42.22a97.18,97.18,0,0,1-1,14H130.4s-.4-6.52-.85-12.38a251.06,251.06,0,0,1,.77-43.85c1.76-15,8.09-41.31,9-44.72a1,1,0,0,0-.39-1c-4.56-3.27-15.55-7.46-18.62-8.7a1,1,0,0,0-.37-.07Z"/></svg>