<svg id="图层_1" data-name="图层 1" xmlns="http://www.w3.org/2000/svg" viewBox="0 0 186 186"><defs><style>.cls-1{fill:#f5e3ea;}.cls-2{fill:#e2c9d2;}.cls-3{fill:#fff;}.cls-4{fill:#5b3b2f;}</style></defs><path class="cls-1" d="M78.81,25.56s4.55,17.88-18.94,26.81S28.3,67.17,30.13,87.2s3.57,58.06.89,72.36h21s3.05-65.07,2.62-70.95l7.58,47.78-.45,23.17H122l6.24-71.69s4.66,55.61,4.66,71.69H154.3a261.69,261.69,0,0,1-1-62.48c3.68-33.11-7-34-27.59-43.83S107,39,107,25.56Z"/><path class="cls-2" d="M69.81,55.07c3-.3,6-.51,9-.59,1.51,0,3,0,4.53.06a18.86,18.86,0,0,1,2.25.24,4.63,4.63,0,0,1,2.11.79,4.4,4.4,0,0,0-2.12-.66,18.85,18.85,0,0,0-2.25-.12c-1.5,0-3,.07-4.5.19-3,.25-6,.62-8.93,1.08Z"/><path class="cls-2" d="M113.59,56.06c-3-.46-6-.83-8.94-1.08-1.5-.12-3-.2-4.5-.19a18.57,18.57,0,0,0-2.24.12,4.37,4.37,0,0,0-2.12.66,4.59,4.59,0,0,1,2.1-.79,18.86,18.86,0,0,1,2.25-.24c1.51-.09,3-.09,4.53-.06,3,.08,6,.29,9,.59Z"/><path class="cls-3" d="M124.71,143.26a18.49,18.49,0,0,1-.52-8.2l7.29-45.37a3,3,0,0,0-.66-2.12,20.07,20.07,0,0,0-12.48-6.89c-6.46-.76-10.89-1.49-18.69.95a24.33,24.33,0,0,1-6.84,1.43A24.27,24.27,0,0,1,86,81.63c-7.81-2.44-12.86-1.71-18.7-.95a20.45,20.45,0,0,0-12.47,6.89,3,3,0,0,0-.66,2.12l6.94,45.71a18.34,18.34,0,0,1-.4,7.41,157.32,157.32,0,0,0-3.54,16.75h71.33A121.66,121.66,0,0,0,124.71,143.26Z"/><path class="cls-4" d="M128.48,160.56H57.15a1,1,0,0,1-.76-.35,1,1,0,0,1-.23-.79,156,156,0,0,1,3.56-16.87,17.22,17.22,0,0,0,.38-7L53.16,89.84a4,4,0,0,1,.87-2.9,21.37,21.37,0,0,1,13.12-7.25l.38,0c5.85-.76,10.9-1.42,18.75,1a23.69,23.69,0,0,0,6.53,1.38,23.44,23.44,0,0,0,6.54-1.39c7.56-2.36,12.17-1.81,18-1.11l1.09.13a21.13,21.13,0,0,1,13.13,7.25,4,4,0,0,1,.89,2.83l-7.3,45.45a17.54,17.54,0,0,0,.49,7.76,120.51,120.51,0,0,1,3.8,16.44,1,1,0,0,1-.24.79A1,1,0,0,1,128.48,160.56Zm-70.18-2h69a124.4,124.4,0,0,0-3.57-15h0a19.71,19.71,0,0,1-.55-8.64l7.29-45.38a2,2,0,0,0-.45-1.34,19.12,19.12,0,0,0-11.81-6.52l-1.1-.13c-5.82-.69-10-1.19-17.19,1a25.16,25.16,0,0,1-7.13,1.48,25.23,25.23,0,0,1-7.13-1.48c-7.43-2.32-12.28-1.69-17.9-1l-.37,0a19.47,19.47,0,0,0-11.82,6.52,2,2,0,0,0-.45,1.42l6.93,45.64a19.23,19.23,0,0,1-.41,7.81C60.75,146.54,59.15,153,58.3,158.56Z"/><path class="cls-4" d="M120,80.52h-.07a.61.61,0,0,1-.53-.67,98.37,98.37,0,0,1,7-26.22.6.6,0,0,1,1.1.5,96.38,96.38,0,0,0-7,25.86A.6.6,0,0,1,120,80.52Z"/><path class="cls-4" d="M63.81,80.52a.6.6,0,0,1-.6-.53,96.38,96.38,0,0,0-7-25.86.6.6,0,0,1,1.09-.5A97.5,97.5,0,0,1,64.4,79.85a.6.6,0,0,1-.52.67Z"/></svg>