<svg id="图层_1" data-name="图层 1" xmlns="http://www.w3.org/2000/svg" viewBox="0 0 186 186"><defs><style>.cls-1{fill:#f5e3ea;}.cls-2{fill:#e2c9d2;}.cls-3{fill:#fff;}.cls-4{fill:#5b3b2f;}</style></defs><path class="cls-1" d="M79.57,26s4.54,17.83-18.88,26.72S29.23,67.47,31.05,87.44s3.56,57.87.89,72.11h21s3-64.85,2.61-70.71l7.11,70.71h60l6.22-71.45s4.65,55.43,4.65,71.45h21.37a260.51,260.51,0,0,1-1-62.27c3.67-33-7-33.88-27.49-43.68s-18.7-14.24-18.7-27.6Z"/><path class="cls-1" d="M154.81,160.05H132.94v-.5c0-12.72-3-50.78-4.16-65.51l-5.75,66H62.17L55.92,97.9c-.52,18.91-2.42,59.55-2.52,61.68l0,.47h-22l.12-.59c2.59-13.86,1-51.14-.9-72-1.81-19.87,5.51-25.94,30-35.23C83.25,43.62,79.13,26.3,79.09,26.12l-.16-.62h29.19V26c0,1,0,2,0,3-.12,11.13-.17,15.29,18.43,24.19,2.11,1,4.11,1.92,6,2.78,16.71,7.62,25.1,11.45,21.77,41.41a263.05,263.05,0,0,0,1,62.14l.09.57Zm-20.87-1h20.29a264.93,264.93,0,0,1-.92-61.82c3.25-29.24-4.91-33-21.19-40.39-1.9-.86-3.91-1.78-6-2.79C106.92,44.88,107,40.22,107.1,29c0-.78,0-1.6,0-2.45H80.18C80.7,29.78,82,45.18,60.87,53.19c-23.91,9.08-31.08,15-29.32,34.2,1.87,20.6,3.45,57.27,1,71.66H52.42c.28-5.93,3-64.67,2.59-70.17l1-.09,7.06,70.26h59.05l6.17-71h1C129.34,88.61,133.85,142.57,133.94,159.05Z"/><path class="cls-2" d="M70.6,55.42c3-.3,6-.51,9-.59,1.5,0,3,0,4.51.05a20.92,20.92,0,0,1,2.25.25,4.51,4.51,0,0,1,2.1.78,4.51,4.51,0,0,0-2.12-.66c-.74-.08-1.49-.11-2.23-.12-1.5,0-3,.08-4.49.2-3,.24-6,.62-8.9,1.08Z"/><path class="cls-2" d="M114.23,56.41c-3-.46-5.93-.84-8.91-1.08-1.49-.12-3-.2-4.48-.2-.75,0-1.5,0-2.24.12a4.47,4.47,0,0,0-2.11.66,4.43,4.43,0,0,1,2.09-.78,21.5,21.5,0,0,1,2.25-.25c1.51-.09,3-.09,4.52-.05,3,.08,6,.29,9,.59Z"/><path class="cls-3" d="M128.71,159.13c-.07-3.67.19-2.92,0-10.53-.53-17.12-1.84-25.7.76-43.84,2-13.67,1.62-27.34-1.89-27.34-5.5,0-66.8.69-70.46.69-2.08,0-2.16,14.83-.75,26.65,2,16.64,1.37,33.33,1.42,42.21v12.16Z"/><path class="cls-4" d="M72.91,160.13H57.75a1,1,0,0,1-1-1V147c0-1.67,0-3.62,0-5.8.07-9.1.17-22.85-1.44-36.29-1.14-9.57-1.59-24.77.58-27.22a1.52,1.52,0,0,1,1.17-.55c1.63,0,15.1-.14,29.35-.29,17.82-.19,38-.4,41.09-.4h0a2.47,2.47,0,0,1,1.91,1c2.9,3.34,2.54,16.62,1,27.53-2,14.18-1.66,22.36-1.15,33.69.14,3.11.28,6.32.4,10,.14,4.71.1,6.24.06,7.59,0,.83,0,1.56,0,3a1,1,0,0,1-.29.72,1,1,0,0,1-.71.29H72.91Zm-14.16-2h69c0-.83,0-1.41,0-2,0-1.32.08-2.82-.06-7.47-.11-3.64-.26-6.85-.4-9.95-.52-11.44-.89-19.7,1.17-34.06,1.75-12.2,1.53-23.6-.5-25.95-.24-.27-.36-.25-.42-.25-3.07,0-23.25.21-41.07.4-14.29.15-26.71.28-29.12.29-1,1.7-1.46,13.37,0,25.53,1.62,13.57,1.52,27.4,1.45,36.54,0,2.17,0,4.12,0,5.79Z"/></svg>