<svg id="图层_1" data-name="图层 1" xmlns="http://www.w3.org/2000/svg" viewBox="0 0 186 186"><defs><style>.cls-1{fill:#9b9692;}.cls-2{fill:#f2f2f2;}</style></defs><path class="cls-1" d="M122.3,157.57c0-5.81.08-11.61.17-17.42s.3-11.61.6-17.41c.16-2.91.33-5.82.65-8.73s.71-5.77,1.1-8.65c.78-5.76,1.64-11.5,2.49-17.24l1.27-8.5.7,8.56c1,11.88,1.85,23.76,2.54,35.65q.52,8.92.88,17.85c.16,6,.4,11.92.23,17.88-.28-5.95-.72-11.89-1.21-17.82l-1.46-17.8-2.95-35.59,2,.07-2.61,17.2c-.42,2.86-.85,5.73-1.22,8.6s-.6,5.73-.84,8.62c-.43,5.77-.81,11.56-1.18,17.35Z"/><path class="cls-1" d="M52.57,159.56c0-5.89.21-11.77.31-17.66l.46-17.64.52-17.64.26-8.82c.05-2.91.16-5.92.07-8.72L54,82.16l2.16,6.53c1.83,5.53,3.59,11.07,5.16,16.69.77,2.81,1.52,5.63,2.11,8.52a44.53,44.53,0,0,1,.77,8.81c.09,5.84-.16,11.65-.44,17.46s-.7,11.61-1.24,17.4c.09-5.81.25-11.62.27-17.43s.09-11.61-.13-17.38a47,47,0,0,0-.93-8.51c-.61-2.79-1.4-5.58-2.21-8.36-1.63-5.55-3.39-11.08-5.24-16.57l1.93-.39c.1,3.08,0,6-.11,8.93l-.31,8.82c-.27,5.88-.51,11.76-.85,17.64s-.67,11.75-1,17.62S53.07,153.69,52.57,159.56Z"/><path class="cls-1" d="M79.19,26.3a17.43,17.43,0,0,1,.51,5.39,24.82,24.82,0,0,1-.28,2.72l-.3,1.34-.15.68-.22.65a22.67,22.67,0,0,1-5.88,9.26l-1,.95a7.46,7.46,0,0,1-1,.9l-2.23,1.64c-.77.52-1.59.93-2.38,1.41L65,51.92c-.4.23-.83.39-1.25.59-3.35,1.58-6.71,2.7-10,4.14a86.56,86.56,0,0,0-9.62,4.57,30.43,30.43,0,0,0-8.24,6.39,20,20,0,0,0-4.43,9.32,46.78,46.78,0,0,0-.71,10.67,40.87,40.87,0,0,1-.25-10.83,17.4,17.4,0,0,1,.52-2.7,16.32,16.32,0,0,1,.87-2.64l.54-1.28a11.24,11.24,0,0,1,.69-1.22l.72-1.2c.27-.38.57-.74.85-1.1a30.32,30.32,0,0,1,8.49-7A84.33,84.33,0,0,1,53,54.82c3.32-1.41,6.79-2.58,10-4,.4-.17.82-.32,1.21-.52l1.16-.63c.76-.43,1.56-.81,2.3-1.28l2.15-1.49a6.81,6.81,0,0,0,1-.81l1-.85a22.84,22.84,0,0,0,6-8.46l.26-.61.19-.63.4-1.26a23.5,23.5,0,0,0,.49-2.61A20,20,0,0,0,79.19,26.3Z"/><path class="cls-1" d="M30.77,87.6c.92,6,1.59,11.93,2.07,17.93s.8,12,1,18,.18,12-.08,18.06a97.61,97.61,0,0,1-2.09,17.95c.27-3,.48-6,.49-9s.06-6,.05-9q-.09-9-.36-18l-.55-18C31.08,99.62,30.92,93.62,30.77,87.6Z"/><path class="cls-1" d="M153.26,97.42a113.85,113.85,0,0,0,.31-11.82,39.85,39.85,0,0,0-1.83-11.5,20.16,20.16,0,0,0-2.56-5.1,19.83,19.83,0,0,0-3.94-4.09,49.5,49.5,0,0,0-10.11-5.71c-3.56-1.66-7.2-3.23-10.77-5a69.74,69.74,0,0,1-10.41-6,22.22,22.22,0,0,1-4.5-4.23,14,14,0,0,1-2.66-5.68,28.65,28.65,0,0,1-.48-6.08c0-2,.09-4,.12-5.94l.74.74-7-.13-7-.16c-4.67-.15-9.33-.24-14-.45,4.66-.2,9.32-.3,14-.44l7-.17,7-.12h.72v.74c0,2,0,4,.06,5.92a27.38,27.38,0,0,0,.56,5.71c.79,3.67,3.44,6.51,6.56,8.73a72.05,72.05,0,0,0,10.14,5.78c3.52,1.76,7.13,3.34,10.72,5A50.89,50.89,0,0,1,146.3,63.6a21,21,0,0,1,4.13,4.55A20.67,20.67,0,0,1,153,73.69a38.21,38.21,0,0,1,1.34,11.9A91.4,91.4,0,0,1,153.26,97.42Z"/><path class="cls-1" d="M154.25,159.56a127.59,127.59,0,0,1-2.42-15.43c-.28-2.59-.44-5.19-.63-7.79s-.24-5.2-.29-7.8,0-5.21,0-7.82.16-5.21.39-7.8a134.49,134.49,0,0,1,1.94-15.5c-.11,5.21-.35,10.38-.39,15.56s-.08,10.35,0,15.52.25,10.34.48,15.52S153.9,154.36,154.25,159.56Z"/><path class="cls-1" d="M70.24,55.65c3-.29,6-.5,9-.58,1.5,0,3,0,4.51,0a21,21,0,0,1,2.24.25,4.47,4.47,0,0,1,2.09.78A4.37,4.37,0,0,0,86,55.49a18.52,18.52,0,0,0-2.23-.12c-1.49,0-3,.08-4.47.2-3,.24-6,.61-8.89,1.07Z"/><path class="cls-1" d="M113.76,56.64c-2.94-.46-5.91-.83-8.88-1.07-1.49-.12-3-.21-4.48-.2a18.52,18.52,0,0,0-2.23.12,4.37,4.37,0,0,0-2.11.66,4.51,4.51,0,0,1,2.09-.78,21.5,21.5,0,0,1,2.25-.25c1.5-.09,3-.09,4.5,0,3,.08,6,.29,9,.58Z"/><path class="cls-2" d="M156.48,74.51C155.13,65.88,143.41,57,135.27,56c-3.22-.42-19.6,3.27-27,8.45-.36.25-15.94,11.7-15.94,11.7S76,64,75.67,63.68c-4.58-3.75-18.85-9.49-23-9C44.52,55.52,31.33,64,29.73,73.5c-.11.66-2.56,10,1.27,9.5,11.67-1.5,17,1,23,13.78A20,20,0,0,1,55.89,104c.22,7.34.89,30.52.91,40.79,0,6-.77,14.77-.77,14.77H130s-.79-8.76-.77-14.77c0-10.27.68-34.57.94-41.91A21.13,21.13,0,0,1,134,92.56c6.39-9,11.5-11.73,21.5-9.81C158.73,83.37,157.12,78.59,156.48,74.51Z"/><path class="cls-1" d="M130,160.56H56a1,1,0,0,1-.74-.33,1,1,0,0,1-.25-.76c0-.09.78-8.79.76-14.67,0-9.93-.64-31.82-.91-40.77a18.81,18.81,0,0,0-1.75-6.82C47.5,85.34,42.77,82.49,31.13,84a2.49,2.49,0,0,1-2.28-.78c-1.26-1.39-1.32-4.42-.17-9.55,0-.16.06-.27.07-.33,1.7-10.11,15.4-18.77,23.81-19.69,4.63-.5,19.12,5.48,23.74,9.26.39.31,11.17,8.37,16,12,3.12-2.3,15-11,15.36-11.28,7.57-5.29,24.16-9.08,27.72-8.63,10.46,1.35,20.88,11.79,22.07,19.39.11.72.26,1.47.4,2.21.56,2.88,1,5.36-.19,6.6a2.5,2.5,0,0,1-2.37.56c-9.32-1.79-14.11.41-20.49,9.4a20.24,20.24,0,0,0-3.68,9.79c-.26,7.18-.92,31.66-.94,41.88,0,5.88.76,14.58.76,14.67a1,1,0,0,1-.25.76A1,1,0,0,1,130,160.56Zm-72.85-2h71.76c-.21-2.55-.69-9-.68-13.77,0-10.24.68-34.76.94-41.94a22.11,22.11,0,0,1,4-10.87c6.79-9.56,12.47-12.14,22.51-10.21.37.07.54,0,.57,0,.48-.48,0-3.18-.35-4.8-.15-.76-.3-1.53-.42-2.28-1.06-6.79-10.86-16.49-20.35-17.71-2.82-.38-18.88,3.08-26.32,8.28-.34.23-10.56,7.75-15.91,11.69a1,1,0,0,1-1.2,0C90,75.68,75.38,64.74,75,64.45c-4.52-3.71-18.47-9.23-22.26-8.82-7.62.83-20.52,8.94-22.05,18,0,.06,0,.21-.09.42-1.35,6-.57,7.48-.3,7.78.06.06.17.19.54.14,12.62-1.62,18,1.59,24.07,14.34a21,21,0,0,1,2,7.62c.27,9,.89,30.87.91,40.82C57.81,149.52,57.33,156,57.12,158.56Z"/></svg>