<svg id="图层_1" data-name="图层 1" xmlns="http://www.w3.org/2000/svg" viewBox="0 0 186 186"><defs><style>.cls-1{fill:#9b9692;}.cls-2{fill:#f2f2f2;}.cls-3{fill:#9a9592;}</style></defs><path class="cls-1" d="M123.2,157.57c0-5.81.08-11.61.16-17.42s.31-11.61.61-17.41c.16-2.91.33-5.82.65-8.73s.71-5.77,1.1-8.65c.78-5.76,1.64-11.5,2.49-17.24l1.27-8.5.7,8.56c1,11.88,1.85,23.76,2.54,35.65q.53,8.92.88,17.85c.16,6,.4,11.92.23,17.88-.28-5.95-.72-11.89-1.22-17.82l-1.45-17.8-3-35.59,2,.07-2.61,17.2c-.43,2.86-.86,5.73-1.22,8.6s-.6,5.73-.84,8.62c-.43,5.77-.81,11.56-1.18,17.35Z"/><path class="cls-1" d="M53.47,159.56c.05-5.89.21-11.77.31-17.66l.46-17.64.52-17.64L55,97.8c0-2.91.16-5.92.07-8.72l-.23-6.92L57,88.69c1.83,5.53,3.59,11.07,5.16,16.69.77,2.81,1.52,5.63,2.11,8.52a44.53,44.53,0,0,1,.77,8.81c.09,5.84-.16,11.65-.44,17.46s-.7,11.61-1.24,17.4c.09-5.81.25-11.62.27-17.43s.09-11.61-.13-17.38a47,47,0,0,0-.93-8.51c-.62-2.79-1.4-5.58-2.21-8.36-1.63-5.55-3.39-11.08-5.24-16.57l1.93-.39c.1,3.08,0,6-.11,8.93l-.31,8.82c-.27,5.88-.51,11.76-.85,17.64s-.67,11.75-1,17.62S54,153.69,53.47,159.56Z"/><path class="cls-1" d="M80.08,26.3a17.13,17.13,0,0,1,.52,5.39,24.82,24.82,0,0,1-.28,2.72L80,35.75l-.15.68-.22.65a22.67,22.67,0,0,1-5.88,9.26l-1,.95a7.46,7.46,0,0,1-1.05.9l-2.23,1.64c-.77.52-1.59.93-2.38,1.41l-1.19.68c-.41.23-.84.39-1.25.59-3.36,1.58-6.71,2.7-10,4.14a86.56,86.56,0,0,0-9.62,4.57,30.43,30.43,0,0,0-8.24,6.39,20,20,0,0,0-4.43,9.32,46.78,46.78,0,0,0-.71,10.67,40.87,40.87,0,0,1-.25-10.83,22.18,22.18,0,0,1,1.38-5.34l.55-1.28A11.24,11.24,0,0,1,34,68.93l.72-1.2c.27-.38.57-.74.85-1.1a30.32,30.32,0,0,1,8.49-7,84.33,84.33,0,0,1,9.8-4.77c3.32-1.41,6.79-2.58,10-4,.4-.17.82-.32,1.21-.52l1.16-.63c.76-.43,1.56-.81,2.29-1.28l2.16-1.49a6.81,6.81,0,0,0,1-.81l1-.85a22.84,22.84,0,0,0,6-8.46l.26-.61.19-.63.4-1.26a23.5,23.5,0,0,0,.49-2.61A19.56,19.56,0,0,0,80.08,26.3Z"/><path class="cls-1" d="M31.67,87.6c.92,6,1.59,11.93,2.07,17.93s.8,12,1,18,.18,12-.08,18.06a97.61,97.61,0,0,1-2.09,17.95c.27-3,.48-6,.49-9s.06-6,.05-9q-.09-9-.36-18l-.55-18C32,99.62,31.82,93.62,31.67,87.6Z"/><path class="cls-1" d="M154.15,97.42a111.15,111.15,0,0,0,.32-11.82,39.85,39.85,0,0,0-1.83-11.5,20.16,20.16,0,0,0-2.56-5.1,19.83,19.83,0,0,0-3.94-4.09A49.5,49.5,0,0,0,136,59.2c-3.56-1.66-7.2-3.23-10.78-5a70.76,70.76,0,0,1-10.41-6A22.44,22.44,0,0,1,110.35,44a13.87,13.87,0,0,1-2.66-5.68,28.65,28.65,0,0,1-.48-6.08c0-2,.09-4,.12-5.94l.74.74-7-.13-7-.16c-4.67-.15-9.33-.24-14-.45,4.67-.2,9.33-.3,14-.44l7-.17,7-.12h.72v.74c0,2,0,4,.06,5.92a28.07,28.07,0,0,0,.55,5.71c.8,3.67,3.45,6.51,6.57,8.73a72.05,72.05,0,0,0,10.14,5.78c3.52,1.76,7.13,3.34,10.72,5A51.16,51.16,0,0,1,147.2,63.6a20.32,20.32,0,0,1,6.7,10.09,38.21,38.21,0,0,1,1.34,11.9A89.68,89.68,0,0,1,154.15,97.42Z"/><path class="cls-1" d="M155.15,159.56a127.59,127.59,0,0,1-2.42-15.43c-.28-2.59-.44-5.19-.63-7.79s-.24-5.2-.29-7.8,0-5.21,0-7.82.16-5.21.39-7.8a134.47,134.47,0,0,1,1.93-15.5c-.1,5.21-.34,10.38-.38,15.56s-.08,10.35,0,15.52.25,10.34.48,15.52S154.8,154.36,155.15,159.56Z"/><path class="cls-1" d="M71.13,55.65c3-.29,6-.5,9-.58,1.5,0,3,0,4.51,0a21,21,0,0,1,2.24.25,4.47,4.47,0,0,1,2.09.78,4.37,4.37,0,0,0-2.11-.66,18.52,18.52,0,0,0-2.23-.12c-1.49,0-3,.08-4.47.2-3,.24-6,.61-8.89,1.07Z"/><path class="cls-1" d="M114.66,56.64c-2.94-.46-5.91-.83-8.88-1.07-1.49-.12-3-.21-4.48-.2a18.52,18.52,0,0,0-2.23.12,4.37,4.37,0,0,0-2.11.66,4.47,4.47,0,0,1,2.09-.78,21,21,0,0,1,2.24-.25c1.51-.09,3-.09,4.51,0,3,.08,6,.29,9,.58Z"/><path class="cls-2" d="M58.8,159a101,101,0,0,0,.84-13c0-2,0-4.48.13-7.3.27-9.4.63-22.28-1.57-35.08-1.79-10.36-5.52-25.84-8-36.08-1.06-4.4-1.9-7.87-2.1-9,4-3,13.14-6.91,15.84-8.05a.81.81,0,0,1,.27,0,.75.75,0,0,1,.51.21l2.2,2.21a35.68,35.68,0,0,0,52.92-2.62l1.18.43c4,1.57,13.26,5.25,17.25,8.12-1.37,5.46-7.3,30.62-9,44.85a257.46,257.46,0,0,0-.77,44c.34,4.4.65,9.22.78,11.31Z"/><path class="cls-3" d="M120.68,50.83h0m-.49.6.48.19c3.76,1.48,12.33,4.88,16.49,7.63-1.65,6.64-7.22,30.54-8.83,44.29a256.42,256.42,0,0,0-.77,44.23c.28,3.76.55,7.83.71,10.23H59.93a101,101,0,0,0,.71-12c0-2,0-4.46.13-7.27.27-9.45.63-22.38-1.59-35.28-1.79-10.39-5.52-25.89-8-36.14-.9-3.74-1.64-6.81-2-8.29,4.07-2.8,12.18-6.33,14.94-7.49l2.06,2.08a36.69,36.69,0,0,0,54-2.16m-55.85,0h0m55.55-2.21a1,1,0,0,0-.8.4h0a34.69,34.69,0,0,1-51.44,2.55L65.45,50a1.73,1.73,0,0,0-1.22-.51,1.69,1.69,0,0,0-.66.13c-3.08,1.3-12,5.16-16.06,8.19a1,1,0,0,0-.37,1c.64,3.56,7.48,30,10.07,45,2.85,16.52,1.38,33.33,1.43,42.22a97.18,97.18,0,0,1-1,14H130.4s-.4-6.52-.85-12.38a251.06,251.06,0,0,1,.77-43.85c1.76-15,8.09-41.31,9-44.72a1,1,0,0,0-.39-1c-4.56-3.27-15.55-7.46-18.62-8.7a1,1,0,0,0-.37-.07Z"/></svg>