<svg id="图层_1" data-name="图层 1" xmlns="http://www.w3.org/2000/svg" viewBox="0 0 186 186"><defs><style>.cls-1{fill:#9b9692;}.cls-2{fill:#f2f2f2;}.cls-3{fill:#9a9592;}</style></defs><path class="cls-1" d="M122.07,157.57c0-5.81.09-11.61.17-17.42s.31-11.61.61-17.41c.16-2.91.32-5.82.65-8.73s.71-5.77,1.09-8.65c.78-5.76,1.65-11.5,2.5-17.24l1.26-8.5.71,8.56c1,11.88,1.85,23.76,2.54,35.65q.53,8.92.88,17.85c.16,6,.4,11.92.23,17.88-.29-5.95-.72-11.89-1.22-17.82L130,123.94l-3-35.59,2,.07-2.61,17.2c-.43,2.86-.86,5.73-1.23,8.6s-.6,5.73-.83,8.62q-.64,8.66-1.18,17.35Z"/><path class="cls-1" d="M52.35,159.56c0-5.89.21-11.77.3-17.66l.47-17.64.52-17.64.26-8.82c.05-2.91.16-5.92.07-8.72l-.23-6.92,2.16,6.53c1.82,5.53,3.58,11.07,5.16,16.69.77,2.81,1.52,5.63,2.1,8.52a43.8,43.8,0,0,1,.78,8.81c.09,5.84-.16,11.65-.45,17.46s-.7,11.61-1.24,17.4c.1-5.81.26-11.62.28-17.43s.09-11.61-.13-17.38a47,47,0,0,0-.93-8.51c-.62-2.79-1.4-5.58-2.21-8.36-1.63-5.55-3.39-11.08-5.24-16.57L56,88.93c.1,3.08-.05,6-.11,8.93l-.31,8.82c-.27,5.88-.52,11.76-.85,17.64s-.67,11.75-1,17.62S52.85,153.69,52.35,159.56Z"/><path class="cls-1" d="M79,26.3a17.13,17.13,0,0,1,.52,5.39,24.82,24.82,0,0,1-.28,2.72l-.3,1.34-.16.68-.21.65a22.88,22.88,0,0,1-5.88,9.26l-1,.95a7.46,7.46,0,0,1-1,.9l-2.24,1.64c-.76.52-1.58.93-2.37,1.41l-1.2.68c-.4.23-.83.39-1.24.59-3.36,1.58-6.71,2.7-10,4.14a86.72,86.72,0,0,0-9.63,4.57,30.54,30.54,0,0,0-8.23,6.39,20.16,20.16,0,0,0-4.44,9.32,47.35,47.35,0,0,0-.7,10.67,41.29,41.29,0,0,1-.26-10.83,18.68,18.68,0,0,1,.53-2.7,16.28,16.28,0,0,1,.86-2.64l.55-1.28a13.13,13.13,0,0,1,.68-1.22l.72-1.2c.28-.38.58-.74.86-1.1a30.32,30.32,0,0,1,8.49-7,83.56,83.56,0,0,1,9.8-4.77c3.31-1.41,6.79-2.58,10-4,.4-.17.82-.32,1.21-.52l1.15-.63c.77-.43,1.57-.81,2.3-1.28l2.16-1.49a6.81,6.81,0,0,0,1-.81l1-.85a22.82,22.82,0,0,0,6-8.46l.26-.61.2-.63.4-1.26A23.5,23.5,0,0,0,79,31.65,20,20,0,0,0,79,26.3Z"/><path class="cls-1" d="M30.55,87.6c.92,6,1.59,11.93,2.07,17.93s.79,12,1,18,.19,12-.07,18.06a97.61,97.61,0,0,1-2.09,17.95c.27-3,.48-6,.49-9s.06-6,.05-9q-.09-9-.36-18l-.55-18C30.86,99.62,30.7,93.62,30.55,87.6Z"/><path class="cls-1" d="M153,97.42a111.15,111.15,0,0,0,.32-11.82,39.85,39.85,0,0,0-1.83-11.5,19,19,0,0,0-6.5-9.19,49.5,49.5,0,0,0-10.11-5.71c-3.57-1.66-7.21-3.23-10.78-5a70.76,70.76,0,0,1-10.41-6A22.17,22.17,0,0,1,109.23,44a13.87,13.87,0,0,1-2.66-5.68,28,28,0,0,1-.48-6.08c0-2,.09-4,.12-5.94l.73.74-7-.13-7-.16c-4.66-.15-9.32-.24-14-.45,4.67-.2,9.33-.3,14-.44l7-.17,7-.12h.73v.74c0,2,0,4,.06,5.92a28.07,28.07,0,0,0,.55,5.71c.8,3.67,3.45,6.51,6.57,8.73A72.05,72.05,0,0,0,125,52.44c3.51,1.76,7.13,3.34,10.72,5a51.16,51.16,0,0,1,10.36,6.13,20.32,20.32,0,0,1,6.7,10.09,38.51,38.51,0,0,1,1.34,11.9A89.68,89.68,0,0,1,153,97.42Z"/><path class="cls-1" d="M154,159.56a127.59,127.59,0,0,1-2.42-15.43c-.29-2.59-.45-5.19-.63-7.79s-.24-5.2-.29-7.8,0-5.21,0-7.82.15-5.21.39-7.8A134.47,134.47,0,0,1,153,97.42c-.1,5.21-.35,10.38-.38,15.56s-.08,10.35,0,15.52.26,10.34.48,15.52S153.68,154.36,154,159.56Z"/><path class="cls-1" d="M70,55.65c3-.29,6-.5,9-.58,1.5,0,3,0,4.5,0a21.5,21.5,0,0,1,2.25.25,4.51,4.51,0,0,1,2.09.78,4.37,4.37,0,0,0-2.11-.66,18.57,18.57,0,0,0-2.24-.12c-1.49,0-3,.08-4.47.2-3,.24-5.94.61-8.89,1.07Z"/><path class="cls-1" d="M113.54,56.64c-2.94-.46-5.91-.83-8.89-1.07-1.49-.12-3-.21-4.47-.2a18.52,18.52,0,0,0-2.23.12,4.37,4.37,0,0,0-2.11.66,4.43,4.43,0,0,1,2.09-.78,21,21,0,0,1,2.24-.25c1.5-.09,3-.09,4.51,0,3,.08,6,.29,9,.58Z"/><path class="cls-2" d="M124.71,143.26a18.49,18.49,0,0,1-.52-8.2l7.29-45.37a3,3,0,0,0-.66-2.12,20.07,20.07,0,0,0-12.48-6.89c-6.46-.76-10.89-1.49-18.69.95a24.33,24.33,0,0,1-6.84,1.43A24.27,24.27,0,0,1,86,81.63c-7.81-2.44-12.86-1.71-18.7-.95a20.45,20.45,0,0,0-12.47,6.89,3,3,0,0,0-.66,2.12l6.94,45.71a18.34,18.34,0,0,1-.4,7.41,157.32,157.32,0,0,0-3.54,16.75h71.33A121.66,121.66,0,0,0,124.71,143.26Z"/><path class="cls-3" d="M128.48,160.56H57.15a1,1,0,0,1-.76-.35,1,1,0,0,1-.23-.79,156,156,0,0,1,3.56-16.87,17.22,17.22,0,0,0,.38-7L53.16,89.84a4,4,0,0,1,.87-2.9,21.37,21.37,0,0,1,13.12-7.25l.38,0c5.85-.76,10.9-1.42,18.75,1a23.69,23.69,0,0,0,6.53,1.38,23.44,23.44,0,0,0,6.54-1.39c7.56-2.36,12.17-1.81,18-1.11l1.09.13a21.13,21.13,0,0,1,13.13,7.25,4,4,0,0,1,.89,2.83l-7.3,45.45a17.54,17.54,0,0,0,.49,7.76,120.51,120.51,0,0,1,3.8,16.44,1,1,0,0,1-.24.79A1,1,0,0,1,128.48,160.56Zm-70.18-2h69a124.4,124.4,0,0,0-3.57-15h0a19.71,19.71,0,0,1-.55-8.64l7.29-45.38a2,2,0,0,0-.45-1.34,19.12,19.12,0,0,0-11.81-6.52l-1.1-.13c-5.82-.69-10-1.19-17.19,1a25.16,25.16,0,0,1-7.13,1.48,25.23,25.23,0,0,1-7.13-1.48c-7.43-2.32-12.28-1.69-17.9-1l-.37,0a19.47,19.47,0,0,0-11.82,6.52,2,2,0,0,0-.45,1.42l6.93,45.64a19.23,19.23,0,0,1-.41,7.81C60.75,146.54,59.15,153,58.3,158.56Z"/><path class="cls-1" d="M120,80.52h-.07a.61.61,0,0,1-.53-.67,98.37,98.37,0,0,1,7-26.22.6.6,0,0,1,1.1.5,96.38,96.38,0,0,0-7,25.86A.6.6,0,0,1,120,80.52Z"/><path class="cls-1" d="M63.81,80.52a.6.6,0,0,1-.6-.53,96.38,96.38,0,0,0-7-25.86.6.6,0,0,1,1.09-.5A97.5,97.5,0,0,1,64.4,79.85a.6.6,0,0,1-.52.67Z"/></svg>