<svg id="图层_1" data-name="图层 1" xmlns="http://www.w3.org/2000/svg" viewBox="0 0 186 186"><defs><style>.cls-1,.cls-2{fill:none;stroke:#5b3b2f;}.cls-1{stroke-miterlimit:10;}.cls-2{stroke-linecap:round;stroke-linejoin:round;stroke-width:0.75px;}.cls-3{fill:#fff;}.cls-4{fill:#5b3b2f;}.cls-5{fill:#f6e3ea;}</style></defs><path class="cls-1" d="M72.85,40.35s12.16,8.32,2,27.17c-.1.3,35,0,35,0s-11.64-17.2-8.57-26.88Z"/><path class="cls-2" d="M51.24,84a7.38,7.38,0,0,0-3.73,2.3A15.75,15.75,0,0,1,46,87.67c-.39.41-.9,1.09-.38,1.61.17.18.71.12.92.09a2.46,2.46,0,0,0,1.25-.59,4.64,4.64,0,0,0,.5-.49c.15-.18.21-.33.46-.32s.63.08.95.07a5.83,5.83,0,0,0,2.94-.9c2.47-1.57,3.14-4.73,4-7.31,1.17-3.42,3-6.57,4.45-9.88a104.91,104.91,0,0,0,6-16.49c1.88-7.61,4.19-14.9,6.51-22.39L98,35.91c.46.46,6.51,10.69,12.8,14.2-.27,0,3.39,2.14,8.74-5,0,.16,8.4-13.44,8.4-13.44a3.85,3.85,0,0,1,1.34-1,8.77,8.77,0,0,1,1.84-.33,9.62,9.62,0,0,0,5-1.72,3.18,3.18,0,0,0,.66-.66,1.54,1.54,0,0,0,.09-1.37.49.49,0,0,1,.35-.65c1.45-.32,3.19-.27,3.81-.65s-.66-.81-1-.85c-1.95-.26-3.93.53-5.86.18a1.88,1.88,0,0,1-1-.47.46.46,0,0,1-.17-.36.57.57,0,0,1,.19-.29c0-.2.83-.8,1-1l1.14-1.13a1.4,1.4,0,0,0,.27-.33.86.86,0,0,0-.16-.88c-.69-.78-1.34.67-1.77,1.07-1.41,1.29-3.1,1.31-4.76,2.05a11.25,11.25,0,0,0-3.63,2.51c-1.8,1.92-3,4.44-4.56,6.54-1.73,2.31-4.29,3.59-6.42,5.47a15.17,15.17,0,0,1-1.87,1.81c-.8.46-.86.14-1.52-.62a22.67,22.67,0,0,1-4.28-7.46,44.3,44.3,0,0,1-2-9.67c-.38-3.35.33-10.5-5.8-10.82-3-.15-4.26.09-6.6-1.16-2.91-1.56-2.5-4.51-1.55-6.9h-12s2.9,9.76-3.79,10.88a22.51,22.51,0,0,0-6,.18,8,8,0,0,0-6.67,8c0,4.66-.09,13.07-.09,13.07s-1.6,11.54-3.54,15.15c-3.4,6.35-3.85,13.7-4.84,20.67-.33,2.33-.68,4.65-1.07,7a5.63,5.63,0,0,1-2.55,4c-2.76,1.49-5.26,4.92-5.4,8-.08,1.8,1.92,3.54,2.6,3.76,2.48.82,1.9-.31,1.9-.31l-2.89-3"/><path class="cls-2" d="M49,93c1,.54,1.53,0,1-1A13.6,13.6,0,0,0,48,89.83"/><path class="cls-2" d="M49.72,89.41l.9,1c.38.43,1.33,1,1.07,1.74S50.34,92.22,50,92"/><path class="cls-2" d="M50.72,87.91a4.06,4.06,0,0,0,2,2c.33.19.47.37.18.63a1.24,1.24,0,0,1-1.29,0c-.47-.2-.92-.42-1.4-.6"/><path class="cls-1" d="M82.4,135.75s-3.19,13.54-7.3,21.45c-.3-.45-2.74,10.2,0,17,1.16,2.64-1.52,6.66-5.47,2.53a9.12,9.12,0,0,1-2.55-4.08c-1.57-4.67.48-5.85.73-13.92.07-2.14.43-4.27.47-6.41.06-2.76-.21-5.42.11-8.18.24-2.11.56-4.2,1-6.28,1-5,2.7-10.23,6.06-14.16C75.56,123.74,82.4,135.75,82.4,135.75Z"/><path class="cls-1" d="M104.81,174.57l-5.15-1.36-6.13-6.66V164c0-4.63-.19-9.27-.19-13.88,0-5.37-1-10.67-1.26-16-.19-4.21,0-10,2.29-13.71,0-.15,10.6,1.42,10.61,1.42.34,0-.19,8.14-.22,8.63a165.9,165.9,0,0,1-2.49,18c-.71,4-.38,9.58-.46,13.63a8.11,8.11,0,0,0,1,4.32"/><path class="cls-3" d="M75.7,175.23a3.13,3.13,0,0,1-2,2,4,4,0,0,1-2.37-.13c-2.25-.78-3.19-2.69-3.78-4.84-.41-1.5-1-3.31-.53-4.85a16.06,16.06,0,0,0,.76-1.83c0-.33-.17-1.58-.23-2.46a5.9,5.9,0,0,1-1,3.06,9.42,9.42,0,0,0-1.42,2.24,6,6,0,0,0,.33,3.93,12.61,12.61,0,0,1,1.06,3.86c0,1.28-.4,2.65.21,3.78a3.61,3.61,0,0,0,1.56,1.38,10.85,10.85,0,0,0,6.92,1.1,3.32,3.32,0,0,0,2.53-1.4,2.4,2.4,0,0,0-.2-2.59l-.79-1.39Z"/><path class="cls-4" d="M73.31,183a10.94,10.94,0,0,1-5.24-1.3,4.08,4.08,0,0,1-1.71-1.53,4.82,4.82,0,0,1-.31-2.78,9.46,9.46,0,0,0,.06-1.17,9.73,9.73,0,0,0-.78-3.05c-.09-.23-.18-.47-.26-.7a6.36,6.36,0,0,1-.33-4.18,7.11,7.11,0,0,1,1.14-1.89l.33-.44a5.54,5.54,0,0,0,1-2.82v0a.38.38,0,0,1,.34-.38.36.36,0,0,1,.4.35c0,.36.08.77.13,1.16a6.41,6.41,0,0,1,.1,1.39,3.79,3.79,0,0,1-.45,1.16,5.07,5.07,0,0,0-.33.72,7.86,7.86,0,0,0,.42,4.2l.12.44c.51,1.84,1.32,3.81,3.54,4.58a3.6,3.6,0,0,0,2.15.13,2.7,2.7,0,0,0,1.76-1.79.37.37,0,0,1,.67,0l1.81,3.25a2.79,2.79,0,0,1,.2,2.94,3.61,3.61,0,0,1-2.79,1.6A11.42,11.42,0,0,1,73.31,183ZM67.4,165.33a5.3,5.3,0,0,1-.59,1.07l-.33.46a6.66,6.66,0,0,0-1,1.68,5.64,5.64,0,0,0,.34,3.68c.08.23.16.46.25.69a10.48,10.48,0,0,1,.83,3.29c0,.42,0,.85-.06,1.26a4.07,4.07,0,0,0,.22,2.35,3.5,3.5,0,0,0,1.41,1.24,10.5,10.5,0,0,0,6.68,1,2.9,2.9,0,0,0,2.25-1.21,2,2,0,0,0-.18-2.22L75.71,176a3.14,3.14,0,0,1-1.92,1.56,4.38,4.38,0,0,1-2.59-.14c-2.57-.89-3.5-3.19-4-5.09l-.12-.44a8.31,8.31,0,0,1-.41-4.62,4.67,4.67,0,0,1,.38-.85,3.4,3.4,0,0,0,.37-.93A.57.57,0,0,0,67.4,165.33Z"/><path class="cls-4" d="M75.7,175.6a.38.38,0,0,1-.33-.18c-2.06-3.52-2.6-10-1.61-13.69a.37.37,0,0,1,.46-.26.38.38,0,0,1,.27.46c-1,3.49-.38,9.84,1.53,13.11a.37.37,0,0,1-.14.51A.41.41,0,0,1,75.7,175.6Z"/><path class="cls-3" d="M67.39,171.72s3-3.38,6.4-1a.22.22,0,0,0,.34-.22,6.26,6.26,0,0,1-.25-1.83.22.22,0,0,0-.14-.24,7.17,7.17,0,0,0-6.42,1.21.79.79,0,0,0-.25.76Z"/><path class="cls-4" d="M67.39,172.09H67.3a.37.37,0,0,1-.27-.27l-.32-1.29a1.14,1.14,0,0,1,.37-1.14,7.57,7.57,0,0,1,6.78-1.27.59.59,0,0,1,.4.64,4.22,4.22,0,0,0,.16,1.37l.08.34a.59.59,0,0,1-.27.61.61.61,0,0,1-.66,0c-3.12-2.19-5.78.78-5.9.91A.36.36,0,0,1,67.39,172.09Zm4.27-3.55A6.37,6.37,0,0,0,67.55,170a.36.36,0,0,0-.11.37l.16.66a5.06,5.06,0,0,1,6.08-.77,4.81,4.81,0,0,1-.18-1.45A7.24,7.24,0,0,0,71.66,168.54Z"/><path class="cls-3" d="M93.78,164.19c.53,1.74,2,3.17,3.17,4.5,1.63,1.85,3.62,4.11,6.21,4.43a3.68,3.68,0,0,0,3.93-1.94,6.29,6.29,0,0,1,2.4,1.55,2.57,2.57,0,0,1,.6,3c-1.08,2.11-4.23,2.62-6.33,2.26-2.55-.43-5.86-1.89-6.51-4.63-.13-.56-.34-2.15-1.06-2.3-.57-.11-.42,1.05-.45,1.35a3.37,3.37,0,0,1-1.43-.48,4.37,4.37,0,0,1-1.52-1.38,5.62,5.62,0,0,1,0-6.5A.57.57,0,0,1,93.78,164.19Z"/><path class="cls-4" d="M105.06,178.48a7.48,7.48,0,0,1-1.36-.12c-2.72-.46-6.14-2-6.82-4.91,0-.09,0-.2-.06-.32-.08-.4-.33-1.62-.7-1.7,0,.07,0,.53,0,.71a2.63,2.63,0,0,1,0,.31l0,.31-.3,0a3.38,3.38,0,0,1-1.64-.52,4.8,4.8,0,0,1-1.64-1.49,6,6,0,0,1,0-6.93.94.94,0,0,1,1.68.24h0a10.77,10.77,0,0,0,2.59,3.81l.5.56c1.6,1.8,3.55,4,6,4.3a3.33,3.33,0,0,0,3.54-1.7l.12-.32.33.09a6.46,6.46,0,0,1,2.57,1.65,3,3,0,0,1,.67,3.43C109.52,177.67,107.21,178.48,105.06,178.48Zm-8.94-7.8.15,0c.86.17,1.11,1.44,1.28,2.28a2.84,2.84,0,0,0,.06.29c.6,2.54,3.72,3.93,6.21,4.36,1.74.29,4.89,0,5.94-2.07a2.19,2.19,0,0,0-.54-2.57,6,6,0,0,0-1.94-1.34,4.17,4.17,0,0,1-4.17,1.84c-2.71-.33-4.76-2.65-6.41-4.51l-.53-.59a11.63,11.63,0,0,1-2.75-4.09h0a.19.19,0,0,0-.15-.13.22.22,0,0,0-.2.09,5.28,5.28,0,0,0,0,6.08,4.2,4.2,0,0,0,1.39,1.26,5.42,5.42,0,0,0,.89.38,1.48,1.48,0,0,1,.34-1.16A.68.68,0,0,1,96.12,170.68Z"/><path class="cls-3" d="M97,168.69s2.88-3.4,5.88-2.3c.1.1.08-.8-1-1.33a6.17,6.17,0,0,0-5.6,2.78Z"/><path class="cls-4" d="M97,169.07a.4.4,0,0,1-.28-.12l-.77-.86a.39.39,0,0,1,0-.46,6.36,6.36,0,0,1,5.7-2.94h.16a.23.23,0,0,1,.21,0,2,2,0,0,1,1.31,1.63.48.48,0,0,1-.25.4.41.41,0,0,1-.29,0h0c-2.71-1-5.44,2.17-5.46,2.2a.39.39,0,0,1-.29.13Zm-.3-1.27.3.34c.76-.78,2.91-2.68,5.3-2.29a2.18,2.18,0,0,0-.55-.41h-.24A5.6,5.6,0,0,0,96.65,167.8Z"/><path class="cls-4" d="M106.15,170.45a.38.38,0,0,1-.25-.09l-3.58-3.2a.39.39,0,0,1,0-.53.37.37,0,0,1,.53,0l3.58,3.2a.37.37,0,0,1,0,.53A.36.36,0,0,1,106.15,170.45Z"/><path class="cls-5" d="M79.28,54.51s14.72.3,21.36-3.87c5.52,3.37,17.67,39.74,35.87,83a2.76,2.76,0,0,1-.33,2.74c-4.64,6.15-28,29-79.5,10.91a2.81,2.81,0,0,1-1.78-3.4C58.37,131.7,71,77.05,79.28,54.51Z"/><path class="cls-4" d="M92.9,155.14c-10.16,0-22.27-1.9-36.55-6.92a3.81,3.81,0,0,1-2.41-4.61c1-3.45,2.7-10.31,4.88-19C64.24,103,72.43,70.34,78.34,54.17a1,1,0,0,1,1-.65c.15,0,14.5.24,20.81-3.73a1,1,0,0,1,1,0c3.73,2.29,9.31,16.1,19.67,42.36,4.85,12.3,10.34,26.23,16.6,41.1A3.78,3.78,0,0,1,137,137C135.19,139.35,122.16,155.14,92.9,155.14ZM80,55.52c-5.85,16.29-13.88,48.31-19.22,69.6-2.17,8.69-3.9,15.55-4.89,19A1.79,1.79,0,0,0,57,146.33c14.06,4.95,26,6.82,35.91,6.82,28.27,0,40.74-15.1,42.46-17.38a1.79,1.79,0,0,0,.2-1.76c-6.27-14.88-11.77-28.83-16.62-41.14-8.29-21-14.92-37.84-18.4-41C94.39,55.28,83.06,55.52,80,55.52Z"/><path class="cls-5" d="M94.29,11.56c.87,0,2-.07,2.84-.05a1.77,1.77,0,0,1,1.52.87c3.1,5.49,4,12.11,3.86,18.34a56.59,56.59,0,0,1-1.08,9c-.13.67-.64,7-1.12,7.18a68.24,68.24,0,0,1-21.68,3.75c-.41-2.75-5.57-10-7.28-12.43a1.5,1.5,0,0,1-.17-1.51c3.23-6.92-.86-17.34-2.7-21.39a1,1,0,0,1,1-1.45,12.36,12.36,0,0,0,6.43-1.45,1.35,1.35,0,0,1,1.88.67l.73,1.73a7.82,7.82,0,0,0,7.74,4.88c2.64-.22,5.36-1.81,6.52-6.86A1.62,1.62,0,0,1,94.29,11.56Z"/><path class="cls-4" d="M78.63,51.63a1,1,0,0,1-1-.85c-.25-1.66-2.63-5.68-7.08-12a2.5,2.5,0,0,1-.28-2.54c3-6.52-.88-16.55-2.71-20.55a2,2,0,0,1,.17-2,2,2,0,0,1,1.78-.88,11.47,11.47,0,0,0,5.91-1.34,2.38,2.38,0,0,1,1.9-.14,2.34,2.34,0,0,1,1.37,1.3l.73,1.74a6.87,6.87,0,0,0,6.73,4.27c2.87-.24,4.76-2.29,5.63-6.1a2.65,2.65,0,0,1,2.46-2h0c1.23-.05,2.21-.06,2.9-.05a2.74,2.74,0,0,1,2.36,1.38c2.84,5,4.18,11.36,4,18.86a59,59,0,0,1-1.1,9.15c0,.16-.08.67-.16,1.35-.61,5.74-.82,6.3-1.61,6.58a67.17,67.17,0,0,1-21.22,3.76h-.55a.51.51,0,0,1-.17,0ZM69.41,14.86c1.92,4.3,6.06,15,2.68,22.26a.55.55,0,0,0,.07.52c2.72,3.83,6.26,9,7.23,12a65.39,65.39,0,0,0,20.2-3.52c.25-1,.56-3.88.68-5,.08-.76.14-1.33.18-1.51a55.78,55.78,0,0,0,1.06-8.83c.18-7.13-1.08-13.13-3.73-17.83a.79.79,0,0,0-.66-.37c-.65,0-1.61,0-2.79.06h0a.62.62,0,0,0-.59.49C92.39,19,89,20.47,86.33,20.69a8.78,8.78,0,0,1-8.74-5.49l-.73-1.73a.35.35,0,0,0-.2-.2.4.4,0,0,0-.3,0A13.38,13.38,0,0,1,69.41,14.86Z"/></svg>