<svg id="图层_1" data-name="图层 1" xmlns="http://www.w3.org/2000/svg" viewBox="0 0 186 186"><defs><style>.cls-1{fill:#9b9692;}.cls-2{fill:#fff;}.cls-3{fill:#f2f2f2;}</style></defs><path class="cls-1" d="M128.78,84.24a2,2,0,0,1-1.28-.56,18.4,18.4,0,0,1-2.92-3.46l-.38-.53a12.62,12.62,0,0,1-1.89-6l-.11-.8A10.51,10.51,0,0,0,120,68.48l-.62-.87c-.64-.92-1.32-1.84-2-2.77a40.75,40.75,0,0,1-5.1-8.16,29.14,29.14,0,0,1-1.2-3.75,27.79,27.79,0,0,0-1.15-3.63c-1.15-2.75-2.15-5.58-3.12-8.32a104.56,104.56,0,0,0-4.58-11.52L70.76,31.4c-.5,1-2.39,4.91-3.49,7.8-.51,1.33-.91,2.57-1.29,3.77a26.82,26.82,0,0,1-3.84,8.37,45,45,0,0,1,1.39,15c-.07.54-.16,2.46,1.35,6.73h.88c1.23,0,2.5,0,3-.47a1.77,1.77,0,0,1,2.42,0,1.93,1.93,0,0,1,.35,1.84,3.45,3.45,0,0,1-2,1.94,7.11,7.11,0,0,1-2.46.54h0l.05,0a13.77,13.77,0,0,1,1.43,1.08,6.58,6.58,0,0,0,2.67,1.61,2.64,2.64,0,0,0,1.18.05c.3-.09,2.09-.45,2.82.14a.85.85,0,0,1,.32.77c-.09,1-1.48,1.28-2.31,1.45l-.32.07a8.49,8.49,0,0,1-3.36.29,4.83,4.83,0,0,1-.78-.21c-.49-.16-1-.32-1.26-.11a1,1,0,0,0-.2.41,1.65,1.65,0,0,1-.46.83,2.07,2.07,0,0,1-2,.15,11.77,11.77,0,0,1-3.54-2.13l-.39-.3c-4.67-3.55-6.61-10.52-7.65-15.45-2.32-11,.29-20.81,4.92-32.25.48-1.17.93-2.42,1.36-3.63,1.89-5.2,3.83-10.58,8.76-13.65a26.5,26.5,0,0,1,7.81-2.91L77.4,13c4.07-1.07,3.22-9.56,3.21-9.65l-.06-.55H94v.49c0,.08.25,7.94,5.33,8.93l.36.07,0,.15c.22.07.64.16,1,.24,3.14.65,10.51,2.18,11.79,10.46a130.38,130.38,0,0,0,3.87,16.19l.33,1.16c1.13,4,2.19,7.75,4.64,11.19a23.23,23.23,0,0,1,3.33,7,61.58,61.58,0,0,1,1.67,7.26c.09.55.17,1.11.25,1.67a14.69,14.69,0,0,0,1.14,4.56,6.28,6.28,0,0,0,2,2.15c2.94,2.28,4.53,4.56,4.71,6.77h0a1.64,1.64,0,0,1-.11.81,1,1,0,0,1-.72.59,1.23,1.23,0,0,1-1.07-.3,2.42,2.42,0,0,1-.61-1,5,5,0,0,0-2.67-2.9c-.9-.41-1.59-.47-1.72-.35s-.07.18.07.59a9.59,9.59,0,0,0,.59.93c1.19,1.77,2.14,3.3,1.72,4.22a1.07,1.07,0,0,1-.92.62Zm-26-55.82.15.3a101.58,101.58,0,0,1,4.77,11.93c1,2.72,2,5.54,3.1,8.26a29.78,29.78,0,0,1,1.2,3.76,27.79,27.79,0,0,0,1.15,3.63,40.35,40.35,0,0,0,5,7.94c.69.94,1.38,1.87,2,2.8.19.28.4.56.61.85a11.42,11.42,0,0,1,2.42,4.81l.11.81A11.64,11.64,0,0,0,125,79.1l.39.54a17.67,17.67,0,0,0,2.74,3.28,1,1,0,0,0,.69.32.24.24,0,0,0,.14,0c.17-.28-.38-1.37-1.64-3.25a6,6,0,0,1-.71-1.17,1.49,1.49,0,0,1,.21-1.66c.7-.62,2-.15,2.8.19a6,6,0,0,1,3.2,3.45,1.75,1.75,0,0,0,.34.64.24.24,0,0,0,.19.07.66.66,0,0,0,0-.35c-.15-1.89-1.65-4-4.33-6.06a7.21,7.21,0,0,1-2.23-2.49,15.2,15.2,0,0,1-1.24-4.87c-.08-.55-.15-1.1-.25-1.63a57.75,57.75,0,0,0-1.63-7.14,22.44,22.44,0,0,0-3.19-6.72c-2.55-3.58-3.64-7.43-4.79-11.5l-.33-1.15a131.9,131.9,0,0,1-3.9-16.31c-1.17-7.6-8.06-9-11-9.65a4.08,4.08,0,0,1-1.6-.49C94,12,93.13,5.6,93,3.75H81.65c.13,2.05.27,9-4,10.16l-1.24.32A25.63,25.63,0,0,0,68.88,17c-4.63,2.89-6.52,8.1-8.35,13.14-.44,1.22-.89,2.47-1.37,3.67-4.57,11.26-7.14,21-4.87,31.66,1,4.78,2.87,11.52,7.27,14.86l.4.31a11.24,11.24,0,0,0,3.2,2c.44.13.84.23,1,.06a.91.91,0,0,0,.17-.37,1.73,1.73,0,0,1,.5-.87,2.26,2.26,0,0,1,2.22-.08,4.49,4.49,0,0,0,.62.17,7.45,7.45,0,0,0,3-.27l.36-.08a3.39,3.39,0,0,0,1.49-.5,4,4,0,0,0-1.81.07,3.43,3.43,0,0,1-1.66,0,7.16,7.16,0,0,1-3.12-1.82,14.25,14.25,0,0,0-1.38-1,1.33,1.33,0,0,1-.61-1.11.79.79,0,0,1,.52-.63A1.59,1.59,0,0,1,67,76a6.14,6.14,0,0,0,2.12-.45,2.5,2.5,0,0,0,1.41-1.31.94.94,0,0,0-.12-.87.76.76,0,0,0-1,0c-.78.73-2.18.74-3.66.75-.41,0-.81,0-1.21,0l-.37,0-.12-.35c-1.68-4.59-1.63-6.77-1.53-7.49a44,44,0,0,0-1.43-14.92L61,51.15l.15-.2A25.52,25.52,0,0,0,65,42.66c.39-1.21.79-2.46,1.3-3.81C67.62,35.46,70,30.74,70,30.7l.13-.26Z"/><path class="cls-2" d="M98.33,164.11s4.72,9.2-2.6,9.57c-.21,0-15.73,2.8-24.49,1.47a2.92,2.92,0,0,1-2.51-2.45c-.4-3.28,3.71-4.16,6-4.93l.94-.31c-3,2.18,2.11,2.06,2.11,2,19.28-1.17,20.54-5.34,20.54-5.34"/><path class="cls-2" d="M98.4,164.11c-4-6.37-2.21-20.7-2.21-20.7l-8.6,1.91s-4.82,18.21-4.82,18.29c0,.94-2.59,2-3.24,2.34a17.74,17.74,0,0,1-3.13,1.28l-.66.23c-3,2.18,2.12,2.06,2.12,2,19.27-1.17,20.54-5.17,20.54-5.17Z"/><path class="cls-1" d="M76.91,175.88a38.35,38.35,0,0,1-5.66-.36,3.3,3.3,0,0,1-2.83-2.78c-.39-3.24,3.16-4.35,5.51-5.08l.76-.24a39.43,39.43,0,0,0,4.68-1.81l.24-.11c2.42-1.11,2.78-1.66,2.78-1.89,0-.06,0-.13,4.84-18.39l.06-.22,9.34-2.07-.07.53c0,.14-1.7,14.27,2.16,20.45.12.24,2.66,5.26,1,8.17a4.39,4.39,0,0,1-3.88,2l-.47.07A121.19,121.19,0,0,1,76.91,175.88Zm11-30.25c-1.64,6.23-4.68,17.71-4.75,18.05,0,.89-1.54,1.73-3.22,2.5l-.22.11a41.89,41.89,0,0,1-4.77,1.84l-.77.24c-2.24.7-5.31,1.66-5,4.28a2.53,2.53,0,0,0,2.19,2.13c5,.77,13.53.27,23.87-1.4l.57-.08a3.71,3.71,0,0,0,3.25-1.59c1.48-2.57-1-7.38-1-7.43-3.61-5.76-2.59-17.7-2.31-20.39Z"/><path class="cls-1" d="M77.29,169.85c-.89,0-2.44-.12-2.79-.91s.68-1.54,1-1.78l.44.6c-.72.53-.8.81-.78.88.15.34,1.6.49,2.31.47h0l.35,0C96.35,168,98,164,98.05,164l.71.23c-.06.18-1.56,4.42-20.83,5.6h0S77.65,169.85,77.29,169.85Z"/><path class="cls-2" d="M94.35,150l-1.53,4.6c-1,3-4,8.3-1,11.17a25.42,25.42,0,0,1,1.94,2.2c.78,1,1.52,2,2.24,3a11.52,11.52,0,0,0,2.14,2.84c.79.61,1.74,1,2.56,1.62,1.66,1.2,3.63,3,3.42,5.27-.11,1.19-1.76,1.74-2.7,1.94a18.32,18.32,0,0,1-12-2c-1.07-.67-1.26-1-2.3-1.71a10,10,0,0,0-5.4-1.78,4.94,4.94,0,0,1-2.78-.94c-2.35-1.77-.17-5.65.51-7.84a19.61,19.61,0,0,0,.76-3.29c.16-1.19-.24-2.3-.12-3.47.14-1.38,1.05-2.78,1.43-4.13s.73-2.42,1.11-3.63c.54-1.75,2.23-8,2.79-9.7l11.15-.65Z"/><path class="cls-1" d="M98.44,183.25a18.66,18.66,0,0,1-9.24-2.38,11.4,11.4,0,0,1-1.3-1,12.59,12.59,0,0,0-1-.77,9.59,9.59,0,0,0-5.16-1.72,5.26,5.26,0,0,1-3-1c-2.14-1.61-1-4.66-.12-6.89.19-.5.37-1,.5-1.37a20.15,20.15,0,0,0,.74-3.22,6.64,6.64,0,0,0,0-1.72,7.62,7.62,0,0,1-.07-1.73,8.87,8.87,0,0,1,.82-2.59,14.25,14.25,0,0,0,.62-1.61c.25-.92.54-1.84.83-2.75l.28-.89c.25-.82.75-2.6,1.28-4.48.6-2.11,1.21-4.29,1.51-5.23l.08-.24,12-.69L93.18,154.7c-.18.55-.43,1.18-.7,1.85-1.2,3-2.68,6.75-.44,8.93a27.9,27.9,0,0,1,2,2.23c.75.93,1.49,1.91,2.25,3,.2.28.39.58.58.88a6.44,6.44,0,0,0,1.49,1.87,11,11,0,0,0,1.29.83,13.81,13.81,0,0,1,1.26.78c2.58,1.88,3.75,3.71,3.57,5.61-.14,1.51-2.14,2.09-3,2.28A14.53,14.53,0,0,1,98.44,183.25Zm-16.52-6.57a10.88,10.88,0,0,1,5.39,1.85c.48.33.78.58,1.07.81a8.85,8.85,0,0,0,1.22.89,18,18,0,0,0,11.7,2c.54-.11,2.31-.57,2.4-1.61.15-1.61-.91-3.22-3.26-4.93a13.15,13.15,0,0,0-1.19-.74,14.57,14.57,0,0,1-1.38-.88A7.19,7.19,0,0,1,96.2,172c-.18-.29-.36-.58-.55-.85-.75-1.07-1.48-2-2.22-2.95A23.71,23.71,0,0,0,91.51,166c-2.6-2.53-.94-6.7.27-9.75.26-.66.51-1.27.69-1.81L96,143.82l-10.34.6c-.32,1-.88,3-1.43,5s-1,3.66-1.28,4.49l-.29.89c-.28.91-.57,1.82-.82,2.73a14.25,14.25,0,0,1-.65,1.71,8.56,8.56,0,0,0-.77,2.36,7.57,7.57,0,0,0,.07,1.57,7.57,7.57,0,0,1,.06,1.91,21.06,21.06,0,0,1-.78,3.35c-.13.42-.31.89-.51,1.41-.81,2.11-1.81,4.75-.13,6a4.52,4.52,0,0,0,2.53.86Z"/><path class="cls-2" d="M97.72,173.55a2.09,2.09,0,0,1-1.38,1.83c-2.35,1.08-7.32,1.47-12.81-1.65-2.25-1.28-4.1-5.45-4.1-5.45-.68,2.2-2.86,6.07-.51,7.84,1.27.95,2.64.84,4.11,1.09a10.33,10.33,0,0,1,4.07,1.63c1,.71,1.23,1,2.3,1.71a18.33,18.33,0,0,0,12,2c.94-.2,2.59-.75,2.7-1.94C104.44,176.68,97.81,173.74,97.72,173.55Z"/><path class="cls-2" d="M95.05,169.75c-6.42-1.8-9.28,5.1-9.28,5.1l1.81.53s2.63-5.42,8.61-4.12Z"/><path class="cls-1" d="M87.59,175.76a.42.42,0,0,1-.16,0,.38.38,0,0,1-.18-.5c0-.06,2.55-5.12,8.13-4.48a6.47,6.47,0,0,0-.5-.65c-6-1.62-8.65,4.63-8.76,4.9a.37.37,0,1,1-.69-.29c0-.07,3-7.13,9.64-5.33h0c.2,0,.44.23,1.41,1.68a.36.36,0,0,1,0,.42.37.37,0,0,1-.39.16,7.37,7.37,0,0,0-8.18,3.91A.38.38,0,0,1,87.59,175.76Z"/><path class="cls-1" d="M98.44,183.25a18.66,18.66,0,0,1-9.24-2.38,11.4,11.4,0,0,1-1.3-1c-.27-.22-.56-.46-1-.77A10,10,0,0,0,83,177.58c-.35-.06-.7-.1-1-.13a6.09,6.09,0,0,1-3.23-1c-2.14-1.61-1-4.66-.12-6.89.19-.49.37-1,.49-1.36a.38.38,0,0,1,.47-.25.38.38,0,0,1,.25.47c-.13.42-.31.9-.51,1.41-.81,2.12-1.81,4.76-.13,6a5.33,5.33,0,0,0,2.86.88c.36,0,.72.08,1.09.14a10.56,10.56,0,0,1,4.21,1.69c.48.33.78.58,1.07.81a8.85,8.85,0,0,0,1.22.89,18,18,0,0,0,11.7,2c.54-.12,2.31-.58,2.41-1.61.28-3.12-4.24-5.63-5.72-6.46-.47-.26-.54-.3-.6-.43a.37.37,0,0,1,.16-.5.4.4,0,0,1,.44.07l.36.2c1.59.89,6.44,3.58,6.1,7.19-.14,1.5-2.14,2.09-3,2.27A14.52,14.52,0,0,1,98.44,183.25Z"/><path class="cls-1" d="M92.44,176.61A19.79,19.79,0,0,1,85,174.92a10.5,10.5,0,0,1-5.88-6.53.38.38,0,0,1,.72-.22,9.73,9.73,0,0,0,5.45,6.06c2.15.92,6.32,2.3,10.14,1.25.35-.1,2.08-.64,2-1.89a.37.37,0,0,1,.34-.41.37.37,0,0,1,.41.34c.12,1.43-1.22,2.32-2.52,2.68A11.68,11.68,0,0,1,92.44,176.61Z"/><path class="cls-3" d="M91.41,148.24c-4.15,0-8.35-.16-12.48-.46-14.64-1.08-28.77-2.5-40.58-7.86a52.46,52.46,0,0,1-6.44-3.53l.12-.28C49,96.73,67.37,54.28,68.12,52.73a.36.36,0,0,0,0-.09c2.36-5.3,1.61-18,1.57-18.49a5.67,5.67,0,0,1,.21-1.81c2.3-8.26,1-13.52.46-15.5l-.08-.33a.16.16,0,0,1,.09-.2A17.26,17.26,0,0,1,74.48,15l1,2.56a10.84,10.84,0,0,0,2.6,4,13.81,13.81,0,0,0,9.7,3.9,8.51,8.51,0,0,0,3.76-.58l0,.06c6.11-2.36,8.17-7.43,8.83-11.26a23.78,23.78,0,0,0,4.4,1c-2.26,7.52-.39,15.14.52,18.07a7.9,7.9,0,0,1,.35,3.11,167.86,167.86,0,0,0-.5,18,2.88,2.88,0,0,0,1.39,2.39c5.46,3.4,9.85,8.9,14.1,14.22,1,1.3,2.06,2.58,3.08,3.8,1.84,2.21,3.6,4.47,5.23,6.73a26.25,26.25,0,0,0,4.5,4.5,30.48,30.48,0,0,1,3.49,3.29c1.89,2.21,2.75,4.92,3.66,7.79l.11.33a275.25,275.25,0,0,0,13.31,33.2c-2.75,1.59-5.32,3.44-7.81,5.23-4.26,3.07-8.28,6-13.17,7.73-7,2.53-14.67,3.3-22.08,4l-2,.21a169.37,169.37,0,0,1-17.45.9Z"/><path class="cls-1" d="M101.27,13.87h0M101.05,15a21.3,21.3,0,0,0,2.41.58c-1.88,7.44-.09,14.69.8,17.56a6.86,6.86,0,0,1,.31,2.72,164.84,164.84,0,0,0-.5,18.07,3.87,3.87,0,0,0,1.85,3.22c5.32,3.3,9.65,8.74,13.85,14,1.06,1.33,2.07,2.59,3.09,3.82,1.83,2.2,3.58,4.44,5.19,6.67a26.81,26.81,0,0,0,4.66,4.68,28.68,28.68,0,0,1,3.38,3.18c1.76,2.06,2.59,4.67,3.47,7.44l.11.33a271.33,271.33,0,0,0,13,32.5c-2.5,1.5-4.84,3.19-7.11,4.82-4.2,3-8.17,5.88-12.92,7.6-6.91,2.49-14.5,3.26-21.85,4l-2,.21a170.26,170.26,0,0,1-17.35.89c-4.12,0-8.3-.15-12.41-.46-14.55-1.07-28.58-2.47-40.24-7.77a62.63,62.63,0,0,1-5.61-3C40,120.12,67.87,55.6,69,53.18a.83.83,0,0,1,.07-.13c2.45-5.52,1.68-18.42,1.65-19a4.56,4.56,0,0,1,.17-1.49c2.26-8.1,1.11-13.42.55-15.68a17.07,17.07,0,0,1,2.4-.78l.65,1.74a11.84,11.84,0,0,0,2.85,4.42,14.78,14.78,0,0,0,10.39,4.18A9.92,9.92,0,0,0,92,25.83,14.8,14.8,0,0,0,101.05,15m-.72-2.29a1,1,0,0,0-1,.86A13.06,13.06,0,0,1,91.1,24a11,11,0,0,1-3.36.45,12.79,12.79,0,0,1-9-3.63,9.74,9.74,0,0,1-2.36-3.68l-1.25-3.33A20,20,0,0,0,70,15.42a1.17,1.17,0,0,0-.6,1.33c.38,1.59,2,6.78-.37,15.32a6.21,6.21,0,0,0-.24,2.14c.2,3.27.46,13.64-1.49,18-.11,0-36.45,84.2-36.47,84.25-.33.75,6.7,4.13,7.16,4.34,12.36,5.61,27.51,6.95,40.92,7.94q6.26.47,12.55.47a168.67,168.67,0,0,0,17.55-.91c8-.83,16.55-1.51,24.33-4.31,8.31-3,14.33-9.29,21.94-13.49a279.6,279.6,0,0,1-13.66-33.91c-1-3-1.86-6-4-8.47-2.41-2.81-5.75-4.69-7.94-7.73q-2.52-3.48-5.28-6.78C119.29,67.51,114,59.75,107,55.42a1.91,1.91,0,0,1-.92-1.57,163.71,163.71,0,0,1,.5-17.85,9.24,9.24,0,0,0-.39-3.5c-1-3.08-2.64-10.44-.48-17.51a1,1,0,0,0-.86-1.24,19.9,19.9,0,0,1-4.11-1,1.07,1.07,0,0,0-.39-.07Z"/><path class="cls-2" d="M73.07,82h0l.6-1c.34-.57-.81-.81-1.18-.71a1,1,0,0,0-.38.19h0s-.16-.23-.2-.22c-1.15-.65-2,.88-2,.88-.87-.62-1.69-1.42-2.54-2-.26-.21-.62-.65-.15-.85a1.14,1.14,0,0,1,.41-.07,6.66,6.66,0,0,0,2.29-.49,3,3,0,0,0,1.68-1.63,1.45,1.45,0,0,0-.24-1.36,1.26,1.26,0,0,0-1.7,0c-.81.76-2.74.56-4.5.63h0a24.46,24.46,0,0,1-1.55-11c.2-4.93-1.69-9.79-2.92-14.57L54.32,65.62c1.1,5.18,3,13.46,7.46,16.81a13.38,13.38,0,0,0,3.77,2.35,3.23,3.23,0,0,0,.93.15h0l3.85-.17a3.07,3.07,0,0,0,1.83-.66,1,1,0,0,0,.4-.52h0l.76-.17c.53-.14,2.19-.35,2.26-1.08S73.59,81.79,73.07,82Z"/><path class="cls-1" d="M66.51,85.57l0-.75,3.9-.17A2.74,2.74,0,0,0,72,84.06c.24-.19.27-.28.27-.28l.74.09a1.23,1.23,0,0,1-.54.78,3.49,3.49,0,0,1-2.07.74Z"/><path class="cls-1" d="M73.5,82.35,72.85,82l.61-1a1.17,1.17,0,0,0-.77-.17,1.53,1.53,0,0,0-.69.54l-.17.2c-.18.22-.37.43-.55.64l-.57-.5c.19-.2.37-.41.55-.63l.17-.19A2.24,2.24,0,0,1,72.49,80a1.81,1.81,0,0,1,1.59.47.71.71,0,0,1,0,.81Z"/><path class="cls-1" d="M70.24,81.46l-.64-.38C70,80.44,71,79.41,72.13,80a.92.92,0,0,1,.38.35l-.43.31v.06l-.18.07-.08-.11h0C71,80.23,70.27,81.41,70.24,81.46Z"/><path class="cls-1" d="M66.27,85.6H66.1a3.64,3.64,0,0,1-1.39-.48C57.61,81.31,55.21,74,53.8,67.37l.74-.16c1.37,6.47,3.69,13.58,10.53,17.25a2.93,2.93,0,0,0,1.08.39c.51,0,.59-.12.77-.54a1.74,1.74,0,0,1,2.7-.92,4.83,4.83,0,0,0,.65.17,7.57,7.57,0,0,0,3.06-.27l.35-.08q1.62-.34,1.65-.69c-.14-.22-1.43-.19-2,0a3.52,3.52,0,0,1-1.62,0,7.35,7.35,0,0,1-3.11-1.82,12.8,12.8,0,0,0-1.41-1.07,1.23,1.23,0,0,1-.55-1,.66.66,0,0,1,.44-.54,1.59,1.59,0,0,1,.54-.1,6.37,6.37,0,0,0,2.2-.47,2.67,2.67,0,0,0,1.5-1.41,1.09,1.09,0,0,0-.16-1,.9.9,0,0,0-1.2,0c-.74.7-2.14.71-3.61.72a10.8,10.8,0,0,0-2.94.26l-.22-.71A11,11,0,0,1,66.3,75c1.27,0,2.58,0,3.11-.52a1.65,1.65,0,0,1,2.26,0A1.89,1.89,0,0,1,72,76.31a3.5,3.5,0,0,1-1.92,1.89,7.07,7.07,0,0,1-2.44.52,1.55,1.55,0,0,0-.29,0,1.62,1.62,0,0,0,.24.24A13.54,13.54,0,0,1,69,80.1a6.76,6.76,0,0,0,2.76,1.66,2.88,2.88,0,0,0,1.27,0c.24-.07,2-.44,2.73.12a.76.76,0,0,1,.28.67c-.08.9-1.38,1.17-2.24,1.35l-.33.07a8.1,8.1,0,0,1-3.35.29,4,4,0,0,1-.77-.2c-.54-.17-1.1-.35-1.41-.09a1.56,1.56,0,0,0-.37.59A1.32,1.32,0,0,1,66.27,85.6Z"/><path class="cls-1" d="M64.77,75.57a23.07,23.07,0,0,1-2-10.73,41.6,41.6,0,0,0-1.56-13.31l.72-.19a42.34,42.34,0,0,1,1.59,13.53A22.33,22.33,0,0,0,65.47,75.3Z"/><path class="cls-2" d="M110.31,49.22c1,2.39,1.4,5,2.43,7.37,1.68,3.89,4.74,7.35,7.17,10.79,1.15,1.63,2.7,3.39,3,5.43.36,2.35.53,4.64,2,6.62a21.65,21.65,0,0,0,3.25,3.88,1.52,1.52,0,0,0,1.08.43c2-.27-1.62-4.43-1.85-5.11-.63-1.86,1.29-1.34,2.32-.89a5.51,5.51,0,0,1,3,3.16,2.16,2.16,0,0,0,.48.83.62.62,0,0,0,1-.14,1.07,1.07,0,0,0,.06-.56c-.24-2.61-2.62-4.9-4.59-6.39a6.77,6.77,0,0,1-2.12-2.3c-1-1.93-1.11-4.26-1.51-6.37a59.8,59.8,0,0,0-1.72-7.2A23.22,23.22,0,0,0,121,51.93c-2.79-3.82-3.86-8-5.18-12.48l-3,5.36Z"/><path class="cls-1" d="M128.74,84.24a2,2,0,0,1-1.28-.56,18.4,18.4,0,0,1-2.92-3.46l-.38-.53a12.62,12.62,0,0,1-1.89-6l-.11-.8a10.51,10.51,0,0,0-2.24-4.36l-.62-.87c-.64-.92-1.32-1.84-2-2.77a40.75,40.75,0,0,1-5.1-8.16,41.41,41.41,0,0,1-1.4-4.28,39.67,39.67,0,0,0-1.35-4.18l.92-.39a41.7,41.7,0,0,1,1.39,4.29,42,42,0,0,0,1.36,4.18,40.65,40.65,0,0,0,5,7.94c.69.94,1.38,1.87,2,2.8.19.28.4.56.61.85a11.42,11.42,0,0,1,2.42,4.81l.11.81A11.64,11.64,0,0,0,125,79.1l.39.54a17.67,17.67,0,0,0,2.74,3.28,1.06,1.06,0,0,0,.69.32.24.24,0,0,0,.14,0c.17-.28-.38-1.37-1.64-3.25a6.62,6.62,0,0,1-.71-1.17,1.49,1.49,0,0,1,.21-1.66c.7-.62,2-.15,2.8.19a6,6,0,0,1,3.2,3.45,1.69,1.69,0,0,0,.34.64.2.2,0,0,0,.2.06.66.66,0,0,0,0-.34c-.15-1.89-1.65-4-4.33-6.06a7.41,7.41,0,0,1-2.23-2.48,15.32,15.32,0,0,1-1.24-4.88c-.07-.55-.15-1.1-.25-1.63a58.75,58.75,0,0,0-1.63-7.14,22.44,22.44,0,0,0-3.19-6.72c-2.55-3.58-3.64-7.42-4.79-11.5l-.33-1.15,1-.28.33,1.16c1.13,4,2.2,7.75,4.65,11.19a23.22,23.22,0,0,1,3.32,7,59.19,59.19,0,0,1,1.67,7.26c.1.55.17,1.11.25,1.68a14.63,14.63,0,0,0,1.14,4.55,6.28,6.28,0,0,0,2,2.15c2.94,2.28,4.53,4.56,4.71,6.77a1.62,1.62,0,0,1-.11.81,1,1,0,0,1-.72.59,1.22,1.22,0,0,1-1.07-.3,2.62,2.62,0,0,1-.61-1,5,5,0,0,0-2.67-2.9c-.9-.41-1.59-.47-1.72-.35s-.07.18.07.59c0,.12.35.57.59.93,1.19,1.77,2.14,3.3,1.72,4.22a1.07,1.07,0,0,1-.92.62Z"/></svg>