<svg id="图层_1" data-name="图层 1" xmlns="http://www.w3.org/2000/svg" viewBox="0 0 186 186"><defs><style>.cls-1{fill:#9b9692;}.cls-2{fill:#fff;}.cls-3{fill:#f2f2f2;}</style></defs><path class="cls-1" d="M137.68,96.24a1.33,1.33,0,0,1-.66-.17,1.21,1.21,0,0,1-.57-1.32,2.3,2.3,0,0,1-1.11.78l-.07,0h-.07a2.44,2.44,0,0,1-2-.86,29,29,0,0,1-2.38-5.48c-.28-.77-.55-1.53-.85-2.28-.46-1.17-.95-2.31-1.44-3.44a61.73,61.73,0,0,1-2.74-7.19c-.27-1-.9-3-1.61-5.31-1.13-3.68-2.41-7.85-2.81-9.42-1.66-6.56-3.17-13-4.42-18.43-1.55-6.69-2.9-12.73-4.15-18.44-2.91.86-21.37,6.2-30.8,6a10.82,10.82,0,0,1-5.36-1.8c-1.09-.65-3.45-.07-7,1.74l-.56.28a36.58,36.58,0,0,0-7.74,4.76c-.89.78-1.91,1.82-1.92,2.95a11.38,11.38,0,0,0,1.11,3.84c.18.45.36.87.49,1.25l.18.48a64.11,64.11,0,0,0,2.57,6.42l.27.61c.28.66.86,2,1.26,2.23s1.8-.3,2.58-.61c.34-.13.64-.25.87-.32a4.75,4.75,0,0,1,2.14-.3c2.25.35,6.23,5.21,7,7,.46,1.07,1.27,3,0,3.93a3.9,3.9,0,0,0-1.17,2.29c-.34,1.35-.73,2.88-3.47,2.3a3.65,3.65,0,0,1-1.51-1,6,6,0,0,0-4-1.75c-3.89-.22-5.66-2-8.11-4.57-.38-.39-.78-.8-1.21-1.22A47.88,47.88,0,0,1,52.58,52,41.67,41.67,0,0,1,46,36.27a4.76,4.76,0,0,1,.7-3.46c1.84-2.7,4.71-4.35,7.49-6,.71-.41,1.42-.82,2.1-1.24,1-.64,2-1.18,2.93-1.71a38.24,38.24,0,0,0,8.12-5.7c2.86-2.63,6.66-3.36,10.33-4.06a46.73,46.73,0,0,0,4.78-1.09c5.8-1.78,8-5,6.82-10l-.12-.47h14.78V3l.33.14a19.22,19.22,0,0,0,0,2.28,6,6,0,0,0,1.65,4c1.21,1.1,3.32,1.42,5.18,1.71.61.09,1.2.18,1.72.29.93.19,1.92.33,3,.48,3,.43,6.16.88,8.42,2.68,2.93,2.31,3.17,5.55,3.17,9,.12,1.26.36,5.73.08,20.84-.06,2.73.95,5.18,2,7.77.28.69.56,1.37.82,2.06,2.49,6.63,2.95,13.47,3.08,18.69a15.85,15.85,0,0,0,.3,2.53c.07.41.14.82.19,1.22l.1.75c.06.5.13,1,.2,1.49s.76,1.14,1.4,1.64a8.26,8.26,0,0,1,1,.84,14.31,14.31,0,0,1,3.15,12.75,3.44,3.44,0,0,1-.76,1.6A1.78,1.78,0,0,1,137.68,96.24Zm-3.2-8.57c0,1.23.79,2.35,2.35,3.34s.92,2.37.46,3.51c-.13.31-.21.71.1.89a.87.87,0,0,0,1-.25A2.7,2.7,0,0,0,139,93.9a13.56,13.56,0,0,0-3-12.07,7.74,7.74,0,0,0-.87-.75A3.64,3.64,0,0,1,133.43,79c-.07-.5-.14-1-.2-1.5l-.1-.75c0-.39-.12-.79-.19-1.19a17,17,0,0,1-.31-2.65c-.12-5.15-.59-11.91-3-18.43-.26-.69-.54-1.37-.82-2-1-2.55-2.12-5.18-2.06-8.08.28-15.06,0-19.5-.07-20.71V23.5c0-3.21-.22-6.26-2.88-8.37-2.11-1.67-5.14-2.1-8.07-2.51-1.06-.16-2.07-.3-3-.5-.5-.11-1.07-.19-1.67-.28-2-.3-4.2-.64-5.58-1.9a6.76,6.76,0,0,1-1.89-4.45,18.18,18.18,0,0,1,0-2.11H90.09c1.06,5.05-1.44,8.55-7.43,10.39a46.87,46.87,0,0,1-4.86,1.11c-3.57.68-7.26,1.39-10,3.87a38.26,38.26,0,0,1-8.26,5.8c-.93.53-1.89,1.07-2.91,1.7-.68.42-1.4.84-2.12,1.25-2.7,1.56-5.5,3.18-7.24,5.73a4,4,0,0,0-.58,2.91A40.9,40.9,0,0,0,53.21,51.6,46.21,46.21,0,0,0,59,58.72L60.24,60c2.42,2.49,4,4.13,7.61,4.35a6.68,6.68,0,0,1,4.45,1.93,3,3,0,0,0,1.17.77c2,.43,2.24-.39,2.59-1.75a4.45,4.45,0,0,1,1.43-2.69c.77-.6.11-2.16-.25-3-.77-1.81-4.57-6.29-6.42-6.58a4.35,4.35,0,0,0-1.81.28c-.22.06-.5.18-.82.3-1.06.42-2.38.94-3.16.59-.62-.29-1.11-1.35-1.64-2.62-.1-.23-.18-.43-.25-.57a64.34,64.34,0,0,1-2.61-6.5L60.36,44c-.14-.38-.31-.79-.48-1.22a11.9,11.9,0,0,1-1.17-4.13c0-1.44,1.17-2.63,2.17-3.51a37.32,37.32,0,0,1,7.91-4.87l.5-.26c2.51-1.27,6-2.81,7.77-1.74a10,10,0,0,0,5,1.7c10.09.21,30.75-6,31-6.1l.39-.12.09.4c1.27,5.83,2.65,12,4.23,18.83,1.25,5.43,2.76,11.87,4.42,18.42.39,1.54,1.67,5.7,2.8,9.38.7,2.29,1.34,4.35,1.61,5.33a58,58,0,0,0,2.71,7.09c.49,1.14,1,2.29,1.45,3.46.3.76.58,1.53.85,2.31a29,29,0,0,0,2.32,5.34,1.72,1.72,0,0,0,1.26.49,1.19,1.19,0,0,0,.76-.62,1,1,0,0,0-.29-.78,7.37,7.37,0,0,1-2-3.84,4.57,4.57,0,0,1,0-1.18,5.51,5.51,0,0,0,.06-.71Zm-.06,2.14a7,7,0,0,0,1.77,3.11,1.77,1.77,0,0,1,.47,1.14c.47-1.15.65-1.85-.23-2.41A6.84,6.84,0,0,1,134.42,89.81Z"/><path class="cls-1" d="M86.47,175.81a6.31,6.31,0,0,1-3-.64c-2.71-1.53-2.5-4-2.29-6.32a18.92,18.92,0,0,0,.1-2.12c-.16-6.43-1.67-12.24-3.49-18.63a45.66,45.66,0,0,1-1.7-8.2c0-.26,0-.85.06-1.88a31.19,31.19,0,0,0,0-4.62l-4-2.16,4.48,1.3,15.41,4.36.12.06c.5.3.62,1.12,0,5.42,0,.36-.08.62-.09.73-.06.72-.12,1.45-.19,2.17a54.44,54.44,0,0,0-.32,6.52c.08,2.64.41,5.32.73,7.92a62.55,62.55,0,0,1,.72,11,6.53,6.53,0,0,1-.4,2.21,4.8,4.8,0,0,1-3,2.38A10.17,10.17,0,0,1,86.47,175.81Zm-9.26-42.07a41,41,0,0,1-.08,4.33c0,.79-.08,1.54-.06,1.74a43.55,43.55,0,0,0,1.67,8c1.83,6.45,3.36,12.33,3.52,18.87a18.47,18.47,0,0,1-.11,2.24c-.19,2.22-.36,4.14,1.79,5.36a7.68,7.68,0,0,0,5.42,0,3.76,3.76,0,0,0,2.38-1.81,6,6,0,0,0,.32-1.88,61.83,61.83,0,0,0-.71-10.81c-.33-2.62-.66-5.32-.74-8a54.09,54.09,0,0,1,.33-6.64c.06-.72.13-1.44.18-2.15,0-.12,0-.41.1-.79a21.06,21.06,0,0,0,.36-4.44Z"/><path class="cls-1" d="M113.82,175.83a.87.87,0,0,1-.28-.05c-.56-.15-6-.1-10.73,0h-.52V162.6c0-1.14,0-2.28.08-3.41.06-1.54.12-3.13.06-4.68a34.66,34.66,0,0,0-.88-5.92c-.16-.77-.32-1.54-.46-2.31a56.25,56.25,0,0,1-.71-10.15v-.42c-.12-6.71.13-6.79.61-6.9h0c4-.94,10.62-2.49,12.49-3l-.06-.16h1.16l.05.39c2.36,6.42,1.29,13.79.35,20.3a67.05,67.05,0,0,0-.84,8.13,27.4,27.4,0,0,0,.24,3.62,25.3,25.3,0,0,1,.22,4.19,24.21,24.21,0,0,0,1.27,9.65l.43,1.21-.1.19C115.7,174.33,114.74,175.83,113.82,175.83Zm-3.52-1.14a22.66,22.66,0,0,1,3.58.15,5.77,5.77,0,0,0,1.35-1.75l-.28-.79a25.2,25.2,0,0,1-1.33-10,23.85,23.85,0,0,0-.22-4,29,29,0,0,1-.24-3.75,66.52,66.52,0,0,1,.84-8.2c.92-6.33,2-13.43-.17-19.53-.85.25-2.53.65-5.84,1.43l-6.53,1.53a45.76,45.76,0,0,0-.09,6v.44a56.06,56.06,0,0,0,.69,10c.14.76.3,1.52.46,2.28a35.94,35.94,0,0,1,.9,6.08c.06,1.59,0,3.2-.06,4.75,0,1.13-.08,2.25-.08,3.38v12.2C104.92,174.75,107.9,174.69,110.3,174.69Z"/><path class="cls-2" d="M93.68,172.89c-.24-2.46-.14-5-.28-7.44.44-3-5-3.42-6.93-3.28-1.44.11-4.91.62-4.79,2.68a16.26,16.26,0,0,1-.87,4.72,18.43,18.43,0,0,1-1.66,4.52c.12-.24-2.36,4.16-.81,6.75A2.52,2.52,0,0,0,79.9,182a21.27,21.27,0,0,0,11.21-.19A4.07,4.07,0,0,0,94,178.46,26,26,0,0,0,93.68,172.89Zm-2.4-4.8c-.1,1.26,0,2.8-.88,3.85-1,1.3-3.68.91-5.14.78s-3.52-.53-3.37-2.46c.18-2.16.32-4.6,2.7-5.45,1.79-.64,5.19-.89,6.34,1.05A3.78,3.78,0,0,1,91.28,168.09Z"/><path class="cls-1" d="M85.25,183a22.31,22.31,0,0,1-5.44-.67A2.91,2.91,0,0,1,78,181c-1.46-2.45.36-6.35.81-7.1h0v0h0a18.55,18.55,0,0,0,1.62-4.43c.06-.25.13-.51.2-.77a13.13,13.13,0,0,0,.66-3.84c-.15-2.49,3.89-3,5.14-3.07s5.13,0,6.7,1.72a2.31,2.31,0,0,1,.62,2c.06.94.08,2,.09,3,0,1.43,0,2.92.19,4.35h0c0,.51.1,1,.16,1.54a16.13,16.13,0,0,1,.11,4.11,4.39,4.39,0,0,1-3.1,3.61A20.08,20.08,0,0,1,85.25,183Zm-5.87-8.78.09.06s-2.19,4.06-.81,6.37a2.17,2.17,0,0,0,1.33.95,20.82,20.82,0,0,0,11-.19,3.66,3.66,0,0,0,2.58-3,15.65,15.65,0,0,0-.12-3.92c-.06-.52-.12-1-.15-1.56-.14-1.46-.17-3-.19-4.41,0-1,0-2-.09-3a1.65,1.65,0,0,0-.42-1.44c-1.26-1.35-4.72-1.59-6.11-1.48-.76,0-4.55.42-4.45,2.28a13.07,13.07,0,0,1-.68,4.08c-.07.26-.14.51-.2.75a19.16,19.16,0,0,1-1.69,4.62Zm8.16-1c-.68,0-1.34-.07-1.91-.12l-.41,0c-1-.08-3.91-.34-3.7-2.86v-.16c.18-2.21.39-4.7,2.93-5.61,2.08-.75,5.57-.86,6.79,1.21a4.1,4.1,0,0,1,.4,2.45h0c0,.2,0,.41,0,.62a6,6,0,0,1-.92,3.44A3.92,3.92,0,0,1,87.54,173.25Zm-.15-8.54a8.54,8.54,0,0,0-2.68.45c-2.09.75-2.26,2.89-2.43,5v.16c-.1,1.23.83,1.86,3,2.06l.41,0c1.43.14,3.59.35,4.4-.67a5.24,5.24,0,0,0,.76-3c0-.22,0-.44,0-.65a2.83,2.83,0,0,0-3.52-3.34Z"/><path class="cls-1" d="M79.6,177a16.94,16.94,0,0,1,5.57-1.67,15,15,0,0,1,2.92-.05,12,12,0,0,1,2.85.61,16.17,16.17,0,0,0-2.86-.42,17.31,17.31,0,0,0-2.88.11,22.56,22.56,0,0,0-2.84.53A24.63,24.63,0,0,0,79.6,177Z"/><path class="cls-2" d="M116.58,172.87c-.11-.17-2.9-5.1-2.48-8.67a1.6,1.6,0,0,0-.81-1.57c-1.66-1-5.39-2.12-10.11.32a1.51,1.51,0,0,0-.85,1.43c.09,2,.26,6.69.11,9.87a12.38,12.38,0,0,1-.44,2.49c-1.19,4.95,4.79,5.08,8,5.07,1.32,0,2.66-.05,4-.18,1-.11,2.37,0,3.17-.79C119.25,178.83,117.88,174.82,116.58,172.87Zm-3-1.58a12.23,12.23,0,0,1-5.3.72c-1.13,0-2.67-.23-3.42-1.2a3,3,0,0,1-.48-1.24,10,10,0,0,1-.28-2.36,3.15,3.15,0,0,1,1-2.27,6,6,0,0,1,3.8-1.44,6.83,6.83,0,0,1,4.23,1.22,1.48,1.48,0,0,1,.5,1.9,3.09,3.09,0,0,0,.35,3.1,1.59,1.59,0,0,1,.3.43C114.39,170.6,114,171.09,113.57,171.29Z"/><path class="cls-1" d="M109.59,182.19c-2.12,0-5.85-.12-7.4-2.08a3.88,3.88,0,0,1-.55-3.46l0-.11a12.57,12.57,0,0,0,.4-2.31c.15-3.19,0-7.94-.12-9.84a1.93,1.93,0,0,1,1.06-1.78c5.4-2.78,9.38-.94,10.47-.31a2,2,0,0,1,1,1.95c-.41,3.47,2.38,8.35,2.43,8.42,1.4,2.1,2.78,6.25.54,8.44a4.17,4.17,0,0,1-2.78.84L114,182a38.92,38.92,0,0,1-4,.18Zm-.82-20.32a11.79,11.79,0,0,0-5.42,1.41,1.15,1.15,0,0,0-.65,1.08c.09,1.91.27,6.69.12,9.91a13,13,0,0,1-.43,2.44l0,.12a3.12,3.12,0,0,0,.41,2.82c1.43,1.81,5.37,1.8,7.24,1.79,1.54,0,2.8-.07,4-.19l.64-.05a3.57,3.57,0,0,0,2.31-.63c1.81-1.77.71-5.44-.65-7.49h0a22.66,22.66,0,0,1-2.39-6.19,2.58,2.58,0,0,0,.32,2.59,1.74,1.74,0,0,1,.37.54,1.35,1.35,0,0,1-.84,1.61h0a13,13,0,0,1-5.48.76c-1.29-.07-2.87-.28-3.69-1.36a3.29,3.29,0,0,1-.56-1.39,10.14,10.14,0,0,1-.28-2.44,3.47,3.47,0,0,1,1.06-2.53,6.35,6.35,0,0,1,4-1.55,7.23,7.23,0,0,1,4.48,1.31,2.55,2.55,0,0,1,.37.36c0-.21,0-.42,0-.63a1.22,1.22,0,0,0-.61-1.21A8.78,8.78,0,0,0,108.77,161.87Zm.3,2h-.22a5.61,5.61,0,0,0-3.56,1.34,2.84,2.84,0,0,0-.83,2,9.39,9.39,0,0,0,.28,2.26,2.66,2.66,0,0,0,.41,1.09c.65.84,2.1,1,3.14,1.06a12.23,12.23,0,0,0,5.13-.69h0c.28-.13.54-.44.45-.66a.94.94,0,0,0-.18-.26l-.06-.08a3.49,3.49,0,0,1-.42-3.44c.22-.73.2-1-.38-1.5A6.36,6.36,0,0,0,109.07,163.87Z"/><path class="cls-1" d="M104.32,174.52a27.9,27.9,0,0,1,5.85,0,12.48,12.48,0,0,1,5.56,1.68,11.06,11.06,0,0,0-2.72-1,21.41,21.41,0,0,0-2.87-.45c-1-.12-1.93-.16-2.9-.2S105.29,174.5,104.32,174.52Z"/><path class="cls-1" d="M104,174.44a43.66,43.66,0,0,1,5,.45c.83.13,1.65.27,2.46.47a9.91,9.91,0,0,1,2.37.81,14.24,14.24,0,0,0-2.41-.63c-.81-.15-1.63-.29-2.45-.4Z"/><path class="cls-3" d="M102.56,146.72c-12.75,0-27.23-.78-38-6.63-4.75-2.59-2.75-15.4-1.68-22.28.16-1.06.31-2,.42-2.79,1.65-12.3,3.26-22.52,4.8-30.36,1.37-7,2.88-14.31,4.61-22.41.54-2.56,1.22-5.06,1.88-7.49a74.4,74.4,0,0,0,2.91-14.65c.15-2.18.44-4.45.73-6.64.79-6.17,1.62-12.54-.47-18.67,1.39-1,3.88-1.31,5-1.39a6.54,6.54,0,0,0,1.72,2c2,1.64,4.73,1.94,6.92,2.17a27.82,27.82,0,0,0,3,.16,28.34,28.34,0,0,0,7.28-.94c2.28-.6,6.9-1.81,8.1-4.61a.51.51,0,0,1,.43-.33,15.94,15.94,0,0,1,5.49,1.23.42.42,0,0,1,.25.45c-1.54,6-.28,13.25.82,19.66.36,2,.69,4,.93,5.79.65,5,1.5,10.53,2.59,16.8.72,4.13,1.47,8.2,2,11.28l1.07,5.7c3,16.16,6.19,32.88,7.26,49.55.47,7.27.36,15.34-4,20.07-2.55,2.76-6.31,4.13-11.48,4.2l-3.64,0C108.65,146.68,105.63,146.72,102.56,146.72Z"/><path class="cls-1" d="M110.6,12.87a15.51,15.51,0,0,1,4.31.92c-1.4,6.08-.16,13.23.93,19.56.35,2,.68,4,.92,5.76.65,5,1.5,10.55,2.6,16.84.71,4.11,1.47,8.2,2,11.29.36,1.9.71,3.8,1.07,5.7,3,16.14,6.18,32.82,7.25,49.44.43,6.64.39,14.85-3.75,19.32-2.36,2.55-5.88,3.81-10.76,3.88l-3.64,0c-2.93.05-5.95.1-9,.1-12.61,0-26.94-.78-37.49-6.52C60.93,137,63,123.65,63.88,118c.17-1.08.32-2,.43-2.82,1.64-12.28,3.26-22.47,4.79-30.3,1.37-7,2.88-14.31,4.6-22.39.54-2.53,1.22-5,1.87-7.44a74.88,74.88,0,0,0,3-14.84c.14-2.16.42-4.31.72-6.58.77-6,1.58-12.24-.27-18.35a11,11,0,0,1,3.27-.79,8.75,8.75,0,0,0,1.63,1.71c2.24,1.83,5.25,2.16,7.45,2.39a29.55,29.55,0,0,0,3.13.17,30,30,0,0,0,7.54-1l.05,0c2.3-.6,7-1.84,8.56-4.87m-.34-2a1.49,1.49,0,0,0-1.35.94c-1,2.37-5.47,3.52-7.43,4a27.78,27.78,0,0,1-7,.9,28.41,28.41,0,0,1-2.92-.15c-2.18-.23-4.65-.52-6.4-1.95a5.77,5.77,0,0,1-1.5-1.74.81.81,0,0,0-.76-.48h-.06c-1.31.08-4.12.41-5.73,1.66a.86.86,0,0,0-.28,1c2.81,8.11.28,16.75-.27,25-.52,7.73-3.18,14.49-4.78,22S68.62,77,67.14,84.47c-1.84,9.39-3.51,20.67-4.81,30.41C61.5,121.1,58,137.62,64.1,141c10.77,5.86,25.09,6.76,38.45,6.76,4.39,0,8.66-.1,12.68-.15,16.11-.2,17.27-13,16.48-25.32-1.2-18.66-4.92-37-8.34-55.37q-1.05-5.64-2.05-11.27c-1-5.57-1.85-11.15-2.58-16.76-1-7.67-3.73-17.48-1.78-25.07a1.4,1.4,0,0,0-.76-1.59,17,17,0,0,0-5.83-1.34Z"/></svg>