<svg id="图层_1" data-name="图层 1" xmlns="http://www.w3.org/2000/svg" viewBox="0 0 186 186"><defs><style>.cls-1,.cls-2{fill:none;stroke:#9b9692;}.cls-1{stroke-miterlimit:10;}.cls-2{stroke-linecap:round;stroke-linejoin:round;stroke-width:0.75px;}.cls-3{fill:#fff;}.cls-4{fill:#9b9692;}.cls-5{fill:#f2f2f2;}</style></defs><path class="cls-1" d="M72.85,41.15s12.16,8.31,2,27.17c-.1.29,35,0,35,0s-11.64-17.2-8.57-26.88Z"/><path class="cls-2" d="M51.24,84.81a7.52,7.52,0,0,0-3.73,2.3A14.54,14.54,0,0,1,46,88.46c-.39.41-.9,1.1-.38,1.62.17.17.71.12.92.09a2.55,2.55,0,0,0,1.25-.59,3.94,3.94,0,0,0,.5-.5c.15-.18.21-.32.46-.32s.63.09.95.08a6,6,0,0,0,2.94-.9c2.47-1.58,3.14-4.73,4-7.32,1.17-3.41,3-6.56,4.45-9.87a105.65,105.65,0,0,0,6-16.49c1.88-7.61,4.19-14.91,6.51-22.4L98,36.7c.46.46,6.51,10.7,12.8,14.21-.27,0,3.39,2.14,8.74-5,0,.15,8.4-13.44,8.4-13.44a4,4,0,0,1,1.34-1,8.77,8.77,0,0,1,1.84-.33,9.44,9.44,0,0,0,5-1.72,3,3,0,0,0,.66-.66,1.54,1.54,0,0,0,.09-1.37.49.49,0,0,1,.35-.65c1.45-.32,3.19-.27,3.81-.65s-.66-.8-1-.84c-1.95-.26-3.93.52-5.86.17a1.8,1.8,0,0,1-1-.47.43.43,0,0,1-.17-.36.59.59,0,0,1,.19-.28c0-.2.83-.81,1-1l1.14-1.14a1.22,1.22,0,0,0,.27-.33.84.84,0,0,0-.16-.87c-.69-.78-1.34.67-1.77,1.07-1.41,1.29-3.1,1.31-4.76,2.05a11.1,11.1,0,0,0-3.63,2.51c-1.8,1.92-3,4.43-4.56,6.54-1.73,2.31-4.29,3.58-6.42,5.46a14.48,14.48,0,0,1-1.87,1.81c-.8.47-.86.14-1.52-.61a22.67,22.67,0,0,1-4.28-7.46,44.51,44.51,0,0,1-2-9.68c-.38-3.34.33-10.5-5.8-10.81-3-.15-4.26.09-6.6-1.16-2.91-1.57-2.5-4.52-1.55-6.9h-12s2.9,9.76-3.79,10.87a22.3,22.3,0,0,0-6,.19,8,8,0,0,0-6.67,8c0,4.65-.09,13.06-.09,13.06S60.6,47.41,58.66,51c-3.4,6.34-3.85,13.7-4.84,20.67-.33,2.33-.68,4.65-1.07,7a5.65,5.65,0,0,1-2.55,4c-2.76,1.49-5.26,4.92-5.4,8-.08,1.8,1.92,3.54,2.6,3.77,2.48.81,1.9-.31,1.9-.31l-2.89-2.95"/><path class="cls-2" d="M49,93.81c1,.54,1.53,0,1-1A13.6,13.6,0,0,0,48,90.62"/><path class="cls-2" d="M49.72,90.2l.9,1c.38.43,1.33,1,1.07,1.73S50.34,93,50,92.83"/><path class="cls-2" d="M50.72,88.7a4,4,0,0,0,2,2c.33.19.47.38.18.64a1.27,1.27,0,0,1-1.29,0c-.47-.21-.92-.42-1.4-.61"/><path class="cls-1" d="M82.4,136.55c-.66,2.81-1.45,5.6-2.29,8.37s-2,5.63-3.07,8.39c-1,2.49-2.3,5-2.72,7.62-.73,4.58-1,9.73.78,14.11,1.16,2.63-1.52,6.66-5.47,2.53a9.18,9.18,0,0,1-2.55-4.08c-1.57-4.67.48-5.85.73-13.92.07-2.14.43-4.27.47-6.41.06-2.77-.21-5.42.11-8.18.24-2.11.56-4.21,1-6.28,1-5,2.7-10.23,6.06-14.17C75.56,124.53,82.4,136.55,82.4,136.55Z"/><path class="cls-1" d="M104.81,175.36,99.66,174l-6.13-6.66v-2.57c0-4.63-.19-9.26-.19-13.87,0-5.37-1-10.68-1.26-16-.19-4.2,0-10,2.29-13.7,0-.15,10.6,1.42,10.61,1.42.34,0-.19,8.14-.22,8.62a166.09,166.09,0,0,1-2.49,18c-.71,4-.38,9.58-.46,13.63a8.13,8.13,0,0,0,1,4.32"/><path class="cls-3" d="M75.7,176a3.15,3.15,0,0,1-2,2,4.09,4.09,0,0,1-2.37-.14c-2.25-.78-3.19-2.68-3.78-4.83-.41-1.51-1-3.31-.53-4.86a15.92,15.92,0,0,0,.76-1.82c0-.33-.17-1.58-.23-2.47a5.9,5.9,0,0,1-1,3.07,9.57,9.57,0,0,0-1.42,2.23,5.94,5.94,0,0,0,.33,3.93A12.69,12.69,0,0,1,66.48,177c0,1.28-.4,2.66.21,3.78a3.7,3.7,0,0,0,1.56,1.39,10.85,10.85,0,0,0,6.92,1.1,3.33,3.33,0,0,0,2.53-1.41,2.38,2.38,0,0,0-.2-2.58l-.79-1.4Z"/><path class="cls-4" d="M73.31,183.8a11.05,11.05,0,0,1-5.24-1.3A4,4,0,0,1,66.36,181a4.78,4.78,0,0,1-.31-2.77,9.62,9.62,0,0,0,.06-1.18,9.87,9.87,0,0,0-.78-3c-.09-.23-.18-.46-.26-.69a6.36,6.36,0,0,1-.33-4.18,7,7,0,0,1,1.14-1.89l.33-.44a5.57,5.57,0,0,0,1-2.82v0a.37.37,0,0,1,.34-.37.36.36,0,0,1,.4.35c0,.35.08.77.13,1.16a6.38,6.38,0,0,1,.1,1.39,3.63,3.63,0,0,1-.45,1.15,5.63,5.63,0,0,0-.33.72,7.9,7.9,0,0,0,.42,4.21l.12.44c.51,1.83,1.32,3.81,3.54,4.58a3.77,3.77,0,0,0,2.15.13,2.74,2.74,0,0,0,1.76-1.8.38.38,0,0,1,.67,0l1.81,3.25A2.8,2.8,0,0,1,78,182a3.61,3.61,0,0,1-2.79,1.6A12.56,12.56,0,0,1,73.31,183.8ZM67.4,166.13a5.59,5.59,0,0,1-.59,1.07l-.33.45a6.71,6.71,0,0,0-1,1.69,5.64,5.64,0,0,0,.34,3.68c.08.23.16.45.25.68a10.55,10.55,0,0,1,.83,3.29c0,.42,0,.85-.06,1.26a4.1,4.1,0,0,0,.22,2.36,3.47,3.47,0,0,0,1.41,1.23,10.5,10.5,0,0,0,6.68,1.06,2.87,2.87,0,0,0,2.25-1.22,2,2,0,0,0-.18-2.21l-1.47-2.64a3.17,3.17,0,0,1-1.92,1.56,4.38,4.38,0,0,1-2.59-.14c-2.57-.89-3.5-3.19-4-5.1l-.12-.43a8.34,8.34,0,0,1-.41-4.63,4.58,4.58,0,0,1,.38-.84,3.4,3.4,0,0,0,.37-.93A.59.59,0,0,0,67.4,166.13Z"/><path class="cls-4" d="M75.7,176.4a.39.39,0,0,1-.33-.19c-2.06-3.52-2.6-10-1.61-13.68a.38.38,0,0,1,.46-.27.38.38,0,0,1,.27.46c-1,3.5-.38,9.85,1.53,13.11a.39.39,0,0,1-.14.52A.41.41,0,0,1,75.7,176.4Z"/><path class="cls-3" d="M67.39,172.51s3-3.37,6.4-1a.22.22,0,0,0,.34-.22,6.24,6.24,0,0,1-.25-1.82.21.21,0,0,0-.14-.24,7.13,7.13,0,0,0-6.42,1.21.77.77,0,0,0-.25.76C67.2,171.74,67.39,172.51,67.39,172.51Z"/><path class="cls-4" d="M67.39,172.89H67.3a.38.38,0,0,1-.27-.28l-.32-1.28a1.13,1.13,0,0,1,.37-1.14,7.55,7.55,0,0,1,6.78-1.28.61.61,0,0,1,.4.65,4.19,4.19,0,0,0,.16,1.36c0,.14.06.25.08.34a.6.6,0,0,1-.93.6c-3.12-2.18-5.78.78-5.9.91A.37.37,0,0,1,67.39,172.89Zm4.27-3.55a6.41,6.41,0,0,0-4.11,1.42.38.38,0,0,0-.11.38l.16.66a5,5,0,0,1,6.08-.77,4.85,4.85,0,0,1-.18-1.45A6.8,6.8,0,0,0,71.66,169.34Z"/><path class="cls-3" d="M93.78,165c.53,1.74,2,3.17,3.17,4.5,1.63,1.85,3.62,4.11,6.21,4.42a3.67,3.67,0,0,0,3.93-1.93,6.15,6.15,0,0,1,2.4,1.54,2.58,2.58,0,0,1,.6,3c-1.08,2.11-4.23,2.62-6.33,2.26-2.55-.43-5.86-1.89-6.51-4.64-.13-.55-.34-2.14-1.06-2.29-.57-.12-.42,1-.45,1.35a3.52,3.52,0,0,1-1.43-.48,4.47,4.47,0,0,1-1.52-1.38,5.62,5.62,0,0,1,0-6.5A.57.57,0,0,1,93.78,165Z"/><path class="cls-4" d="M105.06,179.27a8.51,8.51,0,0,1-1.36-.11c-2.72-.46-6.14-2-6.82-4.92,0-.08,0-.19-.06-.31-.08-.41-.33-1.63-.7-1.71,0,.08,0,.54,0,.71a2.73,2.73,0,0,1,0,.32l0,.3-.3,0a3.5,3.5,0,0,1-1.64-.52,4.8,4.8,0,0,1-1.64-1.49,6,6,0,0,1,0-6.93.94.94,0,0,1,.93-.41.93.93,0,0,1,.75.65h0a10.65,10.65,0,0,0,2.59,3.8l.5.56c1.6,1.81,3.55,4,6,4.3a3.3,3.3,0,0,0,3.54-1.7l.12-.31.33.09a6.55,6.55,0,0,1,2.57,1.64,3,3,0,0,1,.67,3.44C109.52,178.47,107.21,179.27,105.06,179.27Zm-8.94-7.79h.15c.86.18,1.11,1.45,1.28,2.29,0,.11,0,.21.06.29.6,2.53,3.72,3.93,6.21,4.35,1.74.3,4.89,0,5.94-2.07a2.19,2.19,0,0,0-.54-2.57,6.14,6.14,0,0,0-1.94-1.34,4.18,4.18,0,0,1-4.17,1.85c-2.71-.33-4.76-2.65-6.41-4.52l-.53-.59a11.5,11.5,0,0,1-2.75-4.08h0a.17.17,0,0,0-.15-.13.2.2,0,0,0-.2.09,5.26,5.26,0,0,0,0,6.07,4.1,4.1,0,0,0,1.39,1.26,4.87,4.87,0,0,0,.89.39,1.47,1.47,0,0,1,.34-1.16A.68.68,0,0,1,96.12,171.48Z"/><path class="cls-3" d="M97,169.49s2.88-3.4,5.88-2.3c.1.1.08-.8-1-1.33a6.12,6.12,0,0,0-5.6,2.77Z"/><path class="cls-4" d="M97,169.86a.36.36,0,0,1-.28-.12l-.77-.86a.38.38,0,0,1,0-.45,6.36,6.36,0,0,1,5.7-2.94h.16a.23.23,0,0,1,.21,0,2,2,0,0,1,1.31,1.62.46.46,0,0,1-.25.4.41.41,0,0,1-.29,0h0c-2.71-1-5.44,2.16-5.46,2.19a.39.39,0,0,1-.29.13Zm-.3-1.26.3.33c.76-.77,2.91-2.68,5.3-2.28a2,2,0,0,0-.55-.41h-.24A5.6,5.6,0,0,0,96.65,168.6Z"/><path class="cls-4" d="M106.15,171.25a.35.35,0,0,1-.25-.1l-3.58-3.2a.38.38,0,0,1,.5-.56l3.58,3.21a.37.37,0,0,1,0,.53A.36.36,0,0,1,106.15,171.25Z"/><path class="cls-5" d="M79.28,55.31s14.72.29,21.36-3.88c5.52,3.38,17.67,39.74,35.87,83a2.75,2.75,0,0,1-.33,2.74c-4.64,6.16-28,29-79.5,10.91a2.8,2.8,0,0,1-1.78-3.39C58.37,132.49,71,77.84,79.28,55.31Z"/><path class="cls-4" d="M92.9,155.94c-10.16,0-22.27-1.9-36.55-6.93a3.8,3.8,0,0,1-2.41-4.6c1-3.46,2.7-10.31,4.88-19C64.24,103.81,72.43,71.14,78.34,55a1.07,1.07,0,0,1,1-.66c.15,0,14.5.24,20.81-3.72a1,1,0,0,1,1,0c3.73,2.28,9.31,16.09,19.67,42.35,4.85,12.3,10.34,26.24,16.6,41.1a3.8,3.8,0,0,1-.45,3.74C135.19,140.14,122.16,155.94,92.9,155.94ZM80,56.31c-5.85,16.29-13.88,48.31-19.22,69.6-2.17,8.69-3.9,15.56-4.89,19A1.81,1.81,0,0,0,57,147.13c14.06,5,26,6.82,35.91,6.82,28.27,0,40.74-15.1,42.46-17.39a1.77,1.77,0,0,0,.2-1.75C129.32,119.92,123.82,106,119,93.67c-8.29-21-14.92-37.84-18.4-41C94.39,56.07,83.06,56.31,80,56.31Z"/><path class="cls-5" d="M94.29,12.36c.87,0,2-.08,2.84-.06a1.77,1.77,0,0,1,1.52.87c3.1,5.5,4,12.12,3.86,18.35a56.59,56.59,0,0,1-1.08,9c-.13.67-.64,7-1.12,7.17a67.56,67.56,0,0,1-21.68,3.75c-.41-2.75-5.57-10-7.28-12.42a1.52,1.52,0,0,1-.17-1.52c3.23-6.91-.86-17.33-2.7-21.38a1,1,0,0,1,1-1.45,12.56,12.56,0,0,0,6.43-1.45,1.34,1.34,0,0,1,1.88.67l.73,1.73a7.82,7.82,0,0,0,7.74,4.88c2.64-.22,5.36-1.81,6.52-6.87A1.62,1.62,0,0,1,94.29,12.36Z"/><path class="cls-4" d="M78.63,52.43a1,1,0,0,1-1-.85c-.25-1.66-2.63-5.68-7.08-12a2.52,2.52,0,0,1-.28-2.55c3-6.51-.88-16.54-2.71-20.55a2,2,0,0,1,.17-2,2,2,0,0,1,1.78-.88,11.38,11.38,0,0,0,5.91-1.34,2.36,2.36,0,0,1,3.27,1.17l.73,1.73a6.87,6.87,0,0,0,6.73,4.27c2.87-.24,4.76-2.29,5.63-6.09a2.65,2.65,0,0,1,2.46-2h0c1.23,0,2.21-.07,2.9-.06a2.76,2.76,0,0,1,2.36,1.38c2.84,5,4.18,11.37,4,18.86a59,59,0,0,1-1.1,9.15c0,.16-.08.68-.16,1.35-.61,5.75-.82,6.3-1.61,6.58a67.18,67.18,0,0,1-21.22,3.77h-.55l-.17,0ZM69.41,15.66c1.92,4.29,6.06,15,2.68,22.25a.55.55,0,0,0,.07.52c2.72,3.84,6.26,9,7.23,12a65.1,65.1,0,0,0,20.2-3.52c.25-1,.56-3.88.68-5,.08-.75.14-1.32.18-1.51a55.78,55.78,0,0,0,1.06-8.83c.18-7.13-1.08-13.12-3.73-17.83a.76.76,0,0,0-.66-.36c-.65,0-1.61,0-2.79,0h0a.64.64,0,0,0-.59.49c-1.35,5.92-4.78,7.42-7.41,7.64A8.77,8.77,0,0,1,77.59,16l-.73-1.74a.33.33,0,0,0-.2-.19.36.36,0,0,0-.3,0A13.48,13.48,0,0,1,69.41,15.66Z"/></svg>