<svg id="图层_1" data-name="图层 1" xmlns="http://www.w3.org/2000/svg" viewBox="0 0 186 186"><defs><style>.cls-1{fill:#9b9692;}.cls-2{fill:#f2f2f2;}</style></defs><path class="cls-1" d="M141.91,71.9a4.12,4.12,0,0,1-1-.11A6.64,6.64,0,0,1,138,70a3.49,3.49,0,0,1-.41-.53h0a1.49,1.49,0,0,1-.23-1.25.84.84,0,0,1,.59-.49,1.57,1.57,0,0,1,1.24.26l.17.09a7.08,7.08,0,0,0,1.39.51,10.17,10.17,0,0,0,2.61.35,2.28,2.28,0,0,1,1.66.64,1.16,1.16,0,0,1,.22.94,1.23,1.23,0,0,1-.63.77A6.14,6.14,0,0,1,141.91,71.9ZM138.2,69a1.74,1.74,0,0,0,.29.38,5.73,5.73,0,0,0,2.61,1.64,4.87,4.87,0,0,0,3.13-.48.45.45,0,0,0,.24-.27.41.41,0,0,0-.09-.32,1.68,1.68,0,0,0-1.07-.34,11.32,11.32,0,0,1-2.81-.37,9.94,9.94,0,0,1-1.52-.57l-.2-.11a.89.89,0,0,0-.67-.19s-.09,0-.1,0a1,1,0,0,0,.19.58Z"/><path class="cls-1" d="M140.24,73.34a5.77,5.77,0,0,1-3.76-1.58c-.94-.81-1.36-1.46-1.32-2.05a1.16,1.16,0,0,1,.56-.88,3,3,0,0,1,2.26,0l-.21.72a2.27,2.27,0,0,0-1.64-.11c-.21.14-.22.26-.22.3s.11.61,1.06,1.43a5,5,0,0,0,3.43,1.4c1,0,2.69-.56,2.68-1.46h.75c0,1.42-2,2.16-3.39,2.22Z"/><path class="cls-1" d="M138.55,74.33a7.2,7.2,0,0,1-1-.09,4.07,4.07,0,0,1-3.69-2.72l-.39-.62a1.72,1.72,0,0,1-.23-.47.81.81,0,0,1,.18-.74,1,1,0,0,1,.91-.31,3.94,3.94,0,0,1,1.8,1l.11.09-.46.59-.11-.09a3.46,3.46,0,0,0-1.43-.81.37.37,0,0,0-.26.07.59.59,0,0,0,.11.29c.15.22.28.44.41.66a4.59,4.59,0,0,0,1.91,2.09,4.49,4.49,0,0,0,1.23.27c1.3.16,2.17.11,2.47-.67l.7.27A2.14,2.14,0,0,1,138.55,74.33Z"/><path class="cls-1" d="M45.42,72.93A17.48,17.48,0,0,0,50.29,72a8.18,8.18,0,0,0,2.18-1.12c.63-.49.94-1.38,1.82-1.74a1.25,1.25,0,0,1,1.27.33,1.26,1.26,0,0,1,.25,1.27,4.24,4.24,0,0,1-1.6,1.94,11.21,11.21,0,0,1-4.31,2.47,12.65,12.65,0,0,0,4.21-2.59,4.15,4.15,0,0,0,1.5-1.88,1,1,0,0,0-.21-1,1,1,0,0,0-1-.25c-.74.26-1.09,1.13-1.77,1.66a8.09,8.09,0,0,1-2.26,1.12A14.7,14.7,0,0,1,45.42,72.93Z"/><path class="cls-1" d="M141.78,66.62a36.87,36.87,0,0,1-3.64.62,13.26,13.26,0,0,1-3.72-.07,4.06,4.06,0,0,0-1.77-.24,1.4,1.4,0,0,0-.75.39.58.58,0,0,0,0,.74,4.38,4.38,0,0,0,1.53.92,3.17,3.17,0,0,0,1.79.29,3.25,3.25,0,0,1-1.82-.19,4.14,4.14,0,0,1-1.63-.92.73.73,0,0,1,0-1,1.51,1.51,0,0,1,.85-.47,4.44,4.44,0,0,1,1.86.23,13.49,13.49,0,0,0,3.65.11C139.34,67,140.56,66.79,141.78,66.62Z"/><path class="cls-1" d="M47.21,83a1.25,1.25,0,0,1-.87-.34,1.79,1.79,0,0,1-.47-1.29,9.51,9.51,0,0,1,.7-3.3l.16-.44c.18-.51.28-.85.34-1.09-.19.24-.37.53-.55.8s-.21.34-.31.49c-.5.71-1,1.44-1.46,2.17l-.9,1.34a1,1,0,0,1-1.26.41,1.42,1.42,0,0,1-1-1.32,5.46,5.46,0,0,1,.74-2.22c.09-.19.19-.38.27-.57l.09-.2a1,1,0,0,1-.31.17,1.22,1.22,0,0,1-1.08-.14c-1-.69-.32-2.37,0-3,.21-.37.44-.73.66-1.09a30.93,30.93,0,0,1,3.66-4.9,8,8,0,0,1,3.55-2.23c.29-.08.6-.15.9-.21a4.79,4.79,0,0,0,2.43-1,4,4,0,0,0,.94-2.89l0-.32a43.5,43.5,0,0,1,.74-5.35,49,49,0,0,1,3.12-9.81l.57-1.29a33.77,33.77,0,0,0,2.41-6.62c.36-1.62.61-3.29.87-4.91.18-1.18.37-2.36.59-3.54.18-1,.33-2.07.48-3.22C63,22,63.72,16.22,68.53,14a17.55,17.55,0,0,1,6-1.3l1.18-.12a4.48,4.48,0,0,0,3.45-2c1.46-2.3.93-6,.57-7a.38.38,0,0,1,0-.33A.4.4,0,0,1,80,3H90.87a.36.36,0,0,1,.27.12.34.34,0,0,1,.1.27s-.2,4.7,2.88,7.46c2.08,1.86,5.18,2.47,9.22,1.81a5.09,5.09,0,0,1,1.85-.24c2.25,0,7.62,1.12,8.92,10.49,0,4.47,2.76,11.22,4.58,15.69l.33.79a74,74,0,0,0,6.82,12.19l.36.56c1.12,1.73,2.27,3.51,3.35,5.31.18.31.36.66.55,1,.74,1.44,1.58,3.07,3.05,3.12.58,0,1.14,0,1.68,0a11.22,11.22,0,0,1,3.43.2,8.39,8.39,0,0,1,4.49,2.77c.76,1,1.92,2.38,2,3.69.06.67-.1,1.09-.46,1.27-.75.36-1.93-.55-3.58-2.13-.13-.12-.23-.22-.3-.27a.39.39,0,0,1,0-.53.38.38,0,0,1,.53,0l.31.3c2.06,2,2.61,2.05,2.74,2s.08-.11,0-.53c-.1-1.09-1.21-2.47-1.87-3.29a7.71,7.71,0,0,0-4.1-2.51,10.49,10.49,0,0,0-3.2-.18c-.56,0-1.14.06-1.74,0-1.92-.06-2.9-2-3.69-3.52-.19-.36-.36-.7-.54-1-1.06-1.79-2.22-3.57-3.33-5.29l-.36-.56a75.07,75.07,0,0,1-6.89-12.32l-.32-.79c-1.85-4.52-4.64-11.36-4.63-15.92-.63-4.44-2.25-7.45-4.82-8.9a6.93,6.93,0,0,0-4.88-.74.38.38,0,0,1-.17.08c-4.29.7-7.62,0-9.88-2C90.78,8.86,90.5,5,90.49,3.75h-10c.32,1.42.72,4.82-.79,7.19a5.15,5.15,0,0,1-4,2.34c-.39.05-.79.08-1.18.12a16.84,16.84,0,0,0-5.71,1.24C64.41,16.72,63.67,22.29,63,27.2c-.15,1.15-.3,2.25-.49,3.26-.22,1.17-.4,2.34-.58,3.52-.25,1.63-.52,3.31-.88,5A33.72,33.72,0,0,1,58.6,45.7L58,47A46.89,46.89,0,0,0,55,56.64a42.06,42.06,0,0,0-.73,5.26l0,.31a4.66,4.66,0,0,1-1.17,3.38,5.39,5.39,0,0,1-2.79,1.2c-.29.06-.58.13-.86.21a7.05,7.05,0,0,0-3.21,2,29.53,29.53,0,0,0-3.56,4.78c-.23.35-.44.71-.66,1.07-.32.54-.68,1.67-.25,2a.47.47,0,0,0,.44,0,1.2,1.2,0,0,0,.28-.21l.16-.14.39-.45c2-2.35,2.11-2.34,2.38-2.3a.37.37,0,0,1,.29.21c.14.31,0,.59-.95,1.64l-.15.18a10.53,10.53,0,0,0-1.27,2.13c-.09.2-.19.4-.29.6a4.9,4.9,0,0,0-.66,1.91.67.67,0,0,0,.48.58.32.32,0,0,0,.41-.12c.3-.44.59-.89.89-1.34.49-.73,1-1.46,1.47-2.18.1-.14.2-.3.3-.46a6,6,0,0,1,1-1.24.65.65,0,0,1,.64-.23.52.52,0,0,1,.32.28c.17.34.07.94-.37,2.14l-.15.43a8.78,8.78,0,0,0-.66,3,1.11,1.11,0,0,0,.25.78.49.49,0,0,0,.42.13.53.53,0,0,0,.39-.22.37.37,0,0,1,.46-.15,2.89,2.89,0,0,0,.74.24.68.68,0,0,0,.54-.12c.18-.16.21-.42.23-.83,0-.12,0-.22,0-.33a13.73,13.73,0,0,1,.23-1.43,6.94,6.94,0,0,1,.46-1.49l0-.09c.16-.4.46-1.06,1-1a.36.36,0,0,1,.35.31c.11.68.19,1.36.24,2,0,.15,0,.3,0,.45a2,2,0,0,0,.2,1.07.76.76,0,0,0,1.22.06c.25-.3.21-.67.1-1.22,0-.18-.06-.35-.08-.52a8.59,8.59,0,0,1,0-1.9c.22-1.67,1.43-2.86,2.5-3.92l.23-.22a4.68,4.68,0,0,0,1.16-1.46,5.61,5.61,0,0,0,.3-1.56c0-.27.05-.54.1-.8A12.45,12.45,0,0,1,60,64.24a20.58,20.58,0,0,0,1.41-2.35q2.57-5.14,5.1-10.31,3.16-6.44,6.31-12.86l5-11.78a.38.38,0,0,1,.4-.23c6.34.87,25.64,3.5,26.52,3.5h0A2.43,2.43,0,0,1,107.07,32c1.2,4.17,5.44,18.18,9.75,23,.1.13,8.91,10.94,13.46,14a4.56,4.56,0,0,1,.72.46,22.84,22.84,0,0,0,3.6,2.12.37.37,0,0,1,.2.49.37.37,0,0,1-.49.2A23.3,23.3,0,0,1,130.58,70c-.27-.19-.46-.32-.55-.37a.31.31,0,0,1-.1,0c-4.64-3-13.31-13.7-13.68-14.15-4.29-4.75-8.35-17.84-9.9-23.25A1.68,1.68,0,0,0,104.73,31h0c-.64,0-8.77-1.07-26.34-3.47L73.46,39q-3.15,6.45-6.32,12.87Q64.61,57.07,62,62.23a24.19,24.19,0,0,1-1.45,2.42,11.52,11.52,0,0,0-2.13,4.55q-.06.38-.09.75A6.13,6.13,0,0,1,58,71.72a5.27,5.27,0,0,1-1.33,1.72l-.2.19c-1,1-2.12,2.09-2.31,3.51a7.63,7.63,0,0,0,0,1.72,4,4,0,0,0,.07.46A2.07,2.07,0,0,1,54,81.15a1.59,1.59,0,0,1-1.24.56A1.54,1.54,0,0,1,51.56,81a2.66,2.66,0,0,1-.32-1.48c0-.14,0-.27,0-.41,0-.37-.07-.74-.11-1.12l0,.07-.05.11a6.52,6.52,0,0,0-.41,1.34,12.22,12.22,0,0,0-.21,1.35,2.64,2.64,0,0,0,0,.28,1.77,1.77,0,0,1-.49,1.37,1.49,1.49,0,0,1-1.13.3,3,3,0,0,1-.68-.19,1.28,1.28,0,0,1-.72.31Z"/><path class="cls-1" d="M50.07,75.79a19.54,19.54,0,0,0-1.3,3.15,7.38,7.38,0,0,0-.4,3.22v0a.38.38,0,0,1-.31.43.38.38,0,0,1-.43-.32s0,0,0,0a8.05,8.05,0,0,1,.8-3.44A20.06,20.06,0,0,1,50.07,75.79Z"/><path class="cls-2" d="M123,167.38c-.93-2.82-1.75-5.67-2.48-8.55-3.65-11-4.62-23.38-6.46-34.77-3.14-19.45-6.6-38.88-8.41-58.52a273.5,273.5,0,0,1-1.26-29.47c0-2.09,2.53-22.45-.07-22.75a4.79,4.79,0,0,0-2,0c-1.26.51-1.73,2.14-2.6,3.07-3.12,3.3-8.15,4.54-12.53,4.12A18.43,18.43,0,0,1,80,18.21c-1.79-1-2.63-2.56-4-4a6.72,6.72,0,0,0-.86-.74,2.77,2.77,0,0,0-2.23-.1c-.44.11-1,.27-1.13.69a1.43,1.43,0,0,0,0,.89C72.7,19.3,74,24.69,74,29.1c0,4.17-1,7.89-1.8,12-1.11,5.8-3.17,11.35-4.76,17C65,66.8,63.71,75.76,62.59,84.71c-2.24,18-3.87,36.07-5.5,54.14-1.09,12.06-2,24.12-3.86,36.08a4.9,4.9,0,0,0,0,1.48c.45,3.14,3.67,1.63,5.59,2.18,3,.86,5.63,1.88,8.75,1.21,3.6-.77,7.07,1.39,10.58,1.9a28.93,28.93,0,0,0,11.26-.77c6-1.49,11.79,2,17.85.81,3.1-.63,18.63-2.36,18.71-6.58C126,173.12,123.63,169.43,123,167.38Z"/><path class="cls-1" d="M104.45,183a34.69,34.69,0,0,1-6.14-.74c-3-.55-5.85-1.07-8.69-.36a29.76,29.76,0,0,1-11.65.78,24.11,24.11,0,0,1-3.93-1c-2.18-.68-4.24-1.33-6.29-.9-3,.64-5.46-.1-8.1-.89l-1.13-.34a6.5,6.5,0,0,0-1.71-.08c-1.56.06-4.15.15-4.6-2.91a5.94,5.94,0,0,1,0-1.78c1.57-9.89,2.46-20,3.32-29.85.18-2,.35-4.11.54-6.16,1.61-17.8,3.26-36.17,5.51-54.17,1.07-8.6,2.33-17.75,4.86-26.74.53-1.86,1.11-3.73,1.67-5.54a105,105,0,0,0,3.07-11.39c.18-.93.37-1.84.56-2.74A42.3,42.3,0,0,0,73,29.11c0-4-1.15-9-2-13.06l-.19-.86a2.39,2.39,0,0,1,0-1.49,2.42,2.42,0,0,1,1.82-1.27,3.71,3.71,0,0,1,3,.24,7.46,7.46,0,0,1,1,.87c.47.48.87,1,1.25,1.42a9.53,9.53,0,0,0,2.56,2.39,17.34,17.34,0,0,0,6.8,2.17c3.61.35,8.56-.47,11.71-3.82a6,6,0,0,0,.72-1,5,5,0,0,1,2.24-2.27,4.86,4.86,0,0,1,2.27-.09l.18,0c2.34.27,2.62,5.12,1.19,20.77-.13,1.46-.23,2.61-.24,3a270,270,0,0,0,1.25,29.37c1.52,16.46,4.24,33.05,6.88,49.11L115,123.9c.48,3,.9,6.08,1.32,9.08,1.19,8.6,2.42,17.5,5.09,25.54.8,3.1,1.61,5.88,2.49,8.55h0a26.91,26.91,0,0,0,1.12,2.54c1,2,1.94,4,1.91,5.57-.07,4.07-9,5.84-17.37,7.17-.93.15-1.67.27-2.13.36A14.47,14.47,0,0,1,104.45,183Zm-11.86-3.44a34.25,34.25,0,0,1,6.08.74c2.88.53,5.6,1,8.36.47.48-.1,1.25-.23,2.22-.38,10.38-1.66,15.66-3.42,15.7-5.25,0-1.08-1-3.07-1.72-4.67a25.87,25.87,0,0,1-1.22-2.78h0c-.9-2.71-1.72-5.53-2.5-8.61-2.71-8.15-4-17.14-5.16-25.83-.41-3-.84-6.08-1.32-9-.5-3.11-1-6.23-1.52-9.34-2.64-16.09-5.37-32.72-6.9-49.25a273.89,273.89,0,0,1-1.26-29.58c0-.45.1-1.51.25-3.13,1-11.13,1.14-17.4.37-18.64h0a4.64,4.64,0,0,0-1.28,0,3.42,3.42,0,0,0-1.28,1.48,9,9,0,0,1-1,1.35C97.38,20.31,92.25,22,87.08,21.5a19.21,19.21,0,0,1-7.6-2.42,11.36,11.36,0,0,1-3.09-2.84c-.36-.44-.74-.89-1.15-1.31a5.77,5.77,0,0,0-.71-.62c-.32-.22-1,0-1.43,0a2.5,2.5,0,0,0-.44.14c0,.08,0,.2,0,.26l.19.86c.92,4.12,2,9.24,2.09,13.48a44.08,44.08,0,0,1-1.27,9.49c-.19.89-.38,1.78-.55,2.7A109.22,109.22,0,0,1,70,52.89c-.56,1.8-1.14,3.66-1.65,5.5-2.5,8.86-3.75,17.92-4.81,26.44-2.24,18-3.89,36.32-5.5,54.07-.18,2.09-.36,4.14-.54,6.19-.86,9.85-1.75,20-3.33,30a4,4,0,0,0,0,1.19c.17,1.16.67,1.27,2.56,1.21a7.55,7.55,0,0,1,2.33.15l1.15.34c2.49.75,4.64,1.39,7.12.86s5,.21,7.3.95a24.2,24.2,0,0,0,3.62.94A27.94,27.94,0,0,0,89.13,180,14.28,14.28,0,0,1,92.59,179.56ZM104.15,14.31h0Z"/></svg>