<svg id="图层_1" data-name="图层 1" xmlns="http://www.w3.org/2000/svg" viewBox="0 0 186 186"><defs><style>.cls-1{fill:none;stroke:#9b9692;stroke-miterlimit:10;stroke-width:0.75px;}.cls-2{fill:#f2f2f2;}.cls-3{fill:#9b9692;}</style></defs><path class="cls-1" d="M111.62,24.14s-20.7,6.31-30.94,6.09a10.56,10.56,0,0,1-5.15-1.74c-1.83-1.1-6,1-7.38,1.74a39.68,39.68,0,0,0-8.3,5.05c-.9.79-2,1.92-2,3.22,0,1.6,1.08,3.7,1.62,5.2a69.48,69.48,0,0,0,2.75,6.91c.32.65,1,2.68,1.7,3,.84.38,3.83-1.27,4.71-1.54a4.47,4.47,0,0,1,2-.29c2,.31,5.89,4.92,6.66,6.73.39.9,1.17,2.68.16,3.47-2.13,1.65-.41,5.32-4.31,4.49-1.34-.28-2-2.48-5.54-2.68-4.32-.26-7-2-10.05-5a47.39,47.39,0,0,1-5.84-7.15,41,41,0,0,1-6.5-15.54,4.27,4.27,0,0,1,.64-3.17c2.24-3.29,6.14-5,9.43-7.06,3.76-2.33,6.71-3.41,11.06-7.42,4-3.68,9.9-3.51,14.9-5.05s8.46-4.65,7-10.36h14.24a13.18,13.18,0,0,0,0,2.44,6.44,6.44,0,0,0,1.76,4.2c1.69,1.54,4.89,1.62,7.05,2.08,3.56.75,8.23.73,11.19,3.07,2.78,2.2,3,5.34,3,8.62,0,.14.41,2.8.07,20.75-.06,3.55,1.62,6.67,2.85,9.93,2.25,6,2.89,12.14,3.05,18.48a28.54,28.54,0,0,0,.49,3.78c.1.74.19,1.49.3,2.23.16,1.16,1.72,1.85,2.44,2.67a13.93,13.93,0,0,1,3.06,12.35,3.14,3.14,0,0,1-.66,1.43,1.25,1.25,0,0,1-1.45.32,1,1,0,0,1-.27-1.35c.47-1.15.92-2.26-.31-3s-2.51-2-2.51-3.65a15.94,15.94,0,0,0-.12,1.84,7.06,7.06,0,0,0,1.9,3.63c.74.9.39,1.6-.69,2a2.05,2.05,0,0,1-1.63-.67c-1.45-2.39-2.17-5.1-3.19-7.68-1.4-3.54-3.1-6.87-4.15-10.54-.71-2.51-3.75-12.13-4.4-14.66-1.54-6.09-3-12.21-4.4-18.34S113,30.4,111.62,24.14Z"/><path class="cls-2" d="M113.75,42.21s.58-3.59.59-3.66c.8-9.95,1.18-15.1,1.38-19.77a51.72,51.72,0,0,0,.23-5.61c-.77-.27-3.17-.6-4.83-1a3.33,3.33,0,0,0-2.25.32c-11.68,6.11-22.32,3.69-29.34,1.14a2.18,2.18,0,0,0-1.57,0c-.75.31-1.69.7-2.12.9s-.65.33-1,.51-.58.38-.86.58c1,2.85,3,9.31,2.48,13.6.07.36.14.73.19,1.09.31,2.12.61,4.25.85,6.37.33,3,.71,5.94.88,8.92v.17c0,.06,0,.13,0,.18s0,.29,0,.42c-.24,3.1-2,9.06-2.46,11.44a5.13,5.13,0,0,1-.1.51,63.27,63.27,0,0,0-2.68,12c-.26,2.79-.5,5.58-.57,8.37a64.49,64.49,0,0,0,.32,6.65c.18,2.28.47,4.56.73,6.84.41,3.47,1,6.94,1.2,10.43a43.38,43.38,0,0,1-2,16.19,141.66,141.66,0,0,1-5.25,14.29c-4.64,10.3-9.06,20.68-13.45,31.08-1.43,3.42-3.61,6.3-5.15,9.61-1,2.15-1.55,2.49,0,3.07a50.45,50.45,0,0,0,5.15,1.62,52.31,52.31,0,0,0,12.92,2,15.93,15.93,0,0,1,1.68.17c1.12.14,2.23.33,3.36.41,2,.14,4,.18,6.07.33,5.73.43,11.48.55,17.23.52,4.73,0,9.46.05,14.17-.22a100.16,100.16,0,0,0,10-1.4c2.42-.38,4.8-.89,7.21-1.31,2-.35,4.09-.52,6.06-1,2.21-.56,4.34-1.38,6.48-2.12a.76.76,0,0,0,.51-.7,10.3,10.3,0,0,0-.44-2.71c-.72-2-1.61-3.91-2.41-5.86-.47-1.14-.86-2.3-1.34-3.44-1.22-2.93-2.42-5.87-3.74-8.77-3-6.59-5.93-13.2-9.11-19.73-2.68-5.5-5.37-11-7.58-16.65a33.69,33.69,0,0,1-2.51-11.26,81.21,81.21,0,0,1,1.06-12.54c.26-2,.37-4.07.48-6.11a8.74,8.74,0,0,1,.08-1.34v0l0-.51c.06-.79,0-.61.11-1.41,0-.07,0-.4.09-1.22,1-9-1.29-23.29-1.74-25.15l-.28-1.13a70.48,70.48,0,0,1-.5-7.13c.41-2.23.86-4.45,1.29-6.68Z"/><path class="cls-3" d="M93.86,183c-5.79,0-10.94-.17-15.69-.53-1-.07-2.08-.12-3.13-.17s-2-.09-2.93-.16c-.77,0-1.54-.16-2.28-.26l-1.13-.15-.43-.06a9,9,0,0,0-1.11-.1H67a54.4,54.4,0,0,1-13-2.06,50.48,50.48,0,0,1-5.26-1.66,2.33,2.33,0,0,1-1.55-1.19c-.29-.73,0-1.4.5-2.32l.45-.91A49.73,49.73,0,0,1,50.56,169a45.34,45.34,0,0,0,2.71-5.12c4.18-9.94,8.71-20.59,13.45-31.11a139.58,139.58,0,0,0,5.21-14.19,42.19,42.19,0,0,0,1.92-15.83c-.13-2.31-.45-4.67-.75-7-.16-1.14-.31-2.28-.44-3.42l-.16-1.3c-.21-1.82-.44-3.71-.59-5.57v-.15a65.43,65.43,0,0,1-.3-6.6c.07-2.94.33-5.9.57-8.44a63.78,63.78,0,0,1,2.72-12.18,1.5,1.5,0,0,0,0-.24l0-.17c.16-.87.48-2.14.85-3.61a59.79,59.79,0,0,0,1.6-7.73,2.73,2.73,0,0,0,0-.35v-.29c-.13-2.45-.42-5-.7-7.4l-.17-1.45c-.25-2.22-.56-4.44-.84-6.35,0-.34-.12-.69-.19-1a1.08,1.08,0,0,1,0-.31C76,25.06,74,18.61,73.09,16a1,1,0,0,1,.35-1.12c.3-.23.61-.44.93-.64s.68-.38,1-.55,1-.43,1.61-.69l.56-.24a3.17,3.17,0,0,1,2.29,0c10.51,3.81,19.85,3.45,28.54-1.09a4.3,4.3,0,0,1,2.92-.41c.66.14,1.45.28,2.19.41a23.72,23.72,0,0,1,2.76.58,1,1,0,0,1,.65.77,17,17,0,0,1-.07,3.35c0,.77-.11,1.62-.15,2.47-.21,4.91-.61,10.3-1.38,19.81a17.27,17.27,0,0,1-.65,3.8h0l-.31,1.35-.46,2.38c-.28,1.41-.56,2.83-.82,4.25,0,.49.26,5.35.5,6.78l.27,1.06c.46,1.92,2.73,16.39,1.76,25.49a9.84,9.84,0,0,0-.08,1.07s0,.12,0,.14l0,.38c0,.37,0,.39-.08,1l0,.51V87a7.51,7.51,0,0,0-.07,1.18l0,.53c-.11,1.88-.22,3.82-.46,5.73l-.22,1.72a66.84,66.84,0,0,0-.83,10.67,32.36,32.36,0,0,0,2.44,10.93c2.17,5.54,4.85,11,7.44,16.37l.1.21c2.63,5.4,5.14,10.95,7.57,16.31l1.56,3.44c1.06,2.33,2.05,4.72,3,7l.74,1.77c.26.62.49,1.24.73,1.87s.39,1.05.61,1.57q.42,1,.87,2.07c.53,1.24,1.08,2.53,1.55,3.83a9.77,9.77,0,0,1,.48,2.68l0,.29a1.74,1.74,0,0,1-1.17,1.71l-1.3.46c-1.7.61-3.46,1.23-5.27,1.69a39.25,39.25,0,0,1-4,.71c-.71.1-1.43.2-2.14.32l-3,.55c-1.41.27-2.82.54-4.24.76l-2.37.39a67.82,67.82,0,0,1-7.75,1c-3.69.21-7.44.22-11.07.22H93.86Zm-26.7-3.42a10.12,10.12,0,0,1,1.38.12l.4.06c.39,0,.77.1,1.16.15.74.1,1.44.2,2.15.25q1.44.09,2.88.15c1.07.05,2.13.1,3.19.18,5.14.38,10.76.55,17.15.52h3.17c3.6,0,7.32,0,11-.21a68.38,68.38,0,0,0,7.53-1c.8-.13,1.59-.27,2.39-.39,1.4-.22,2.79-.49,4.18-.75l3-.56c.73-.12,1.47-.23,2.21-.33a35.59,35.59,0,0,0,3.77-.67c1.72-.43,3.44-1,5.1-1.63l1.13-.4v0a8.41,8.41,0,0,0-.35-2.15c-.46-1.25-1-2.51-1.52-3.73-.3-.7-.6-1.4-.89-2.1-.22-.54-.42-1.08-.62-1.62s-.45-1.21-.7-1.8l-.74-1.77c-1-2.3-2-4.67-3-7l-1.56-3.44c-2.42-5.35-4.93-10.88-7.55-16.26l-.1-.21c-2.61-5.36-5.31-10.9-7.5-16.52a34.21,34.21,0,0,1-2.58-11.59,70.14,70.14,0,0,1,.84-11l.23-1.71c.23-1.84.34-3.75.45-5.6l0-.43a7.91,7.91,0,0,1,.09-1.42l0-.5c0-.64,0-.66.08-1l0-.38c0-.19,0-.56.09-1.25,1-8.85-1.26-22.94-1.71-24.81l-.29-1.12a62.55,62.55,0,0,1-.51-7.55c.27-1.43.55-2.85.83-4.28l.79-3.79a.16.16,0,0,1,0-.09c.09-.46.5-3.15.54-3.45.76-9.46,1.16-14.83,1.38-19.7,0-.88.09-1.74.15-2.53S115,14.53,115,14c-.51-.11-1.19-.23-1.82-.34s-1.58-.28-2.26-.43a2.35,2.35,0,0,0-1.58.23c-9.22,4.82-19.08,5.21-30.15,1.2a1.16,1.16,0,0,0-.84,0l-.57.23c-.59.25-1.2.5-1.51.65a9.09,9.09,0,0,0-.87.47l-.19.11c1.14,3.44,2.71,9.09,2.3,13.16.07.33.13.66.18,1,.28,1.92.59,4.16.85,6.4l.16,1.46c.29,2.46.58,5,.72,7.52v.26s0,.55-.05.71a59.48,59.48,0,0,1-1.64,8c-.36,1.44-.67,2.69-.82,3.49l0,.14c0,.17-.06.34-.1.48a61.84,61.84,0,0,0-2.64,11.79c-.24,2.51-.5,5.43-.56,8.3a62.37,62.37,0,0,0,.3,6.41v.14c.14,1.83.37,3.69.58,5.49l.15,1.31c.13,1.13.29,2.26.44,3.38.31,2.32.63,4.72.77,7.11a44.22,44.22,0,0,1-2,16.56,139.92,139.92,0,0,1-5.29,14.38c-4.73,10.51-9.25,21.14-13.43,31.07A47.65,47.65,0,0,1,52.27,170c-.81,1.38-1.65,2.81-2.34,4.28-.17.37-.33.69-.47,1s-.23.47-.31.65l.26.1a47.83,47.83,0,0,0,5.05,1.6,52.23,52.23,0,0,0,12.67,2Zm71.78-4.26h0Z"/></svg>