<svg id="图层_1" data-name="图层 1" xmlns="http://www.w3.org/2000/svg" viewBox="0 0 186 186"><defs><style>.cls-1{fill:#9a9692;}.cls-2{fill:#f2f2f2;}</style></defs><title>child_neckline传iconfount</title><path class="cls-1" d="M122.87,157.52c0-5.79.09-11.57.17-17.35s.3-11.57.61-17.35c.16-2.89.32-5.79.64-8.69s.71-5.76,1.09-8.63c.78-5.73,1.64-11.45,2.49-17.17l1.26-8.47.7,8.54c1,11.82,1.84,23.66,2.53,35.51q.52,8.88.88,17.78c.16,5.94.4,11.88.23,17.81-.29-5.93-.72-11.84-1.21-17.75L130.81,124l-3-35.46,2,.07-2.6,17.14c-.42,2.85-.85,5.71-1.22,8.56s-.6,5.71-.83,8.59c-.43,5.75-.81,11.52-1.18,17.29Z"/><path class="cls-1" d="M53.4,159.5c.05-5.86.22-11.72.31-17.59l.47-17.58.51-17.57L55,98c0-2.9.16-5.9.07-8.7l-.23-6.89,2.15,6.51c1.82,5.51,3.58,11,5.14,16.63.77,2.8,1.52,5.61,2.1,8.49a44.13,44.13,0,0,1,.77,8.77c.09,5.82-.16,11.61-.44,17.4s-.7,11.56-1.23,17.33c.09-5.79.25-11.57.27-17.36s.09-11.57-.13-17.32a46.44,46.44,0,0,0-.93-8.47c-.61-2.79-1.39-5.57-2.2-8.33-1.62-5.53-3.38-11.05-5.22-16.51L57,89.14c.1,3.07,0,5.93-.1,8.89l-.32,8.8c-.26,5.85-.51,11.71-.84,17.57s-.67,11.7-1,17.56S53.9,153.66,53.4,159.5Z"/><path class="cls-1" d="M79.92,26.74a17,17,0,0,1,.52,5.37,25.07,25.07,0,0,1-.28,2.72l-.3,1.33-.16.67-.21.65a22.7,22.7,0,0,1-5.86,9.23l-1,.95a8.1,8.1,0,0,1-1,.89l-2.23,1.63c-.76.52-1.57.93-2.36,1.4l-1.19.69c-.4.23-.83.39-1.24.58-3.35,1.58-6.69,2.69-10,4.13A83.43,83.43,0,0,0,45,61.54a30.1,30.1,0,0,0-8.2,6.36,20,20,0,0,0-4.42,9.29,47,47,0,0,0-.7,10.62A41,41,0,0,1,31.43,77,18.82,18.82,0,0,1,32,74.33a16.49,16.49,0,0,1,.86-2.63l.54-1.28a12.13,12.13,0,0,1,.69-1.21L34.76,68c.28-.38.57-.74.86-1.1a30.22,30.22,0,0,1,8.45-7,83.72,83.72,0,0,1,9.76-4.76c3.31-1.4,6.77-2.57,9.94-4,.4-.17.82-.32,1.2-.52L66.12,50c.77-.42,1.56-.8,2.29-1.27l2.16-1.49a7.19,7.19,0,0,0,1-.8l1-.85a22.77,22.77,0,0,0,6-8.43l.26-.61.19-.62.4-1.26a22.9,22.9,0,0,0,.49-2.6A19.82,19.82,0,0,0,79.92,26.74Z"/><path class="cls-1" d="M31.69,87.81c.91,5.93,1.58,11.89,2.06,17.87s.79,12,1,17.95.19,12-.07,18a96.76,96.76,0,0,1-2.09,17.87c.28-3,.48-6,.49-8.95s.06-6,0-9q-.09-9-.36-17.91l-.54-17.93C32,99.79,31.84,93.81,31.69,87.81Z"/><path class="cls-1" d="M153.72,97.6A113.09,113.09,0,0,0,154,85.82a40,40,0,0,0-1.82-11.46,20.27,20.27,0,0,0-2.55-5.07,19.48,19.48,0,0,0-3.93-4.08,49.12,49.12,0,0,0-10.07-5.69c-3.55-1.66-7.18-3.22-10.74-5a68.8,68.8,0,0,1-10.37-6,22.57,22.57,0,0,1-4.48-4.21,14,14,0,0,1-2.65-5.66,28.45,28.45,0,0,1-.47-6.06c0-2,.09-3.95.12-5.91l.73.73-7-.13-7-.16c-4.65-.15-9.29-.24-13.94-.45,4.65-.2,9.29-.29,13.94-.44l7-.16,7-.13h.72v.75c0,2,0,3.95.06,5.89a28,28,0,0,0,.55,5.69c.8,3.66,3.44,6.48,6.54,8.7a72.61,72.61,0,0,0,10.11,5.76c3.5,1.74,7.1,3.32,10.68,5a50.79,50.79,0,0,1,10.32,6.11,20.15,20.15,0,0,1,6.67,10,38,38,0,0,1,1.34,11.86A91,91,0,0,1,153.72,97.6Z"/><path class="cls-1" d="M154.71,159.5a126.6,126.6,0,0,1-2.41-15.37c-.28-2.58-.45-5.16-.63-7.75s-.24-5.19-.29-7.78,0-5.19,0-7.79.16-5.19.39-7.77a133.45,133.45,0,0,1,1.93-15.44c-.11,5.19-.35,10.34-.39,15.5s-.08,10.31,0,15.46.25,10.31.48,15.46S154.36,154.33,154.71,159.5Z"/><path class="cls-1" d="M71,56c3-.3,6-.51,9-.59,1.49,0,3,0,4.49.06a18.76,18.76,0,0,1,2.23.24,4.4,4.4,0,0,1,2.08.78,4.4,4.4,0,0,0-2.1-.66c-.74-.08-1.48-.11-2.22-.12-1.49,0-3,.08-4.46.2-3,.24-5.92.61-8.85,1.07Z"/><path class="cls-1" d="M114.37,57c-2.93-.46-5.89-.83-8.85-1.07-1.49-.12-3-.2-4.46-.2-.74,0-1.48,0-2.22.12a4.4,4.4,0,0,0-2.1.66,4.4,4.4,0,0,1,2.08-.78,18.76,18.76,0,0,1,2.23-.24c1.5-.09,3-.09,4.49-.06,3,.08,6,.29,9,.59Z"/><path class="cls-2" d="M138.32,57.16a42.63,42.63,0,0,0-5.33-2.4c-.38-.14-6.23,2.09-7,2.32-8,2.34-23.73,5.22-33,5.22s-25-2.88-33-5.22c-.79-.23-6.64-2.46-7-2.32a42.63,42.63,0,0,0-5.33,2.4.88.88,0,0,0-.37,1c.64,3.55,4,22.38,6.62,37.37,2.83,16.45,3.1,40.26,3.15,49.11a96.55,96.55,0,0,1-1,14L93,159l37.31-.44a96.55,96.55,0,0,1-1-14c.05-8.85-.08-32.66,2.75-49.11,2.58-15,6-33.82,6.62-37.37A.88.88,0,0,0,138.32,57.16Z"/><path class="cls-1" d="M93,160l-36.93-.44a1,1,0,0,1-.75-.36,1,1,0,0,1-.22-.8,96.87,96.87,0,0,0,1-13.8c-.14-26.26-1.78-41.11-3.13-48.95-2.59-15-6-33.75-6.62-37.35a1.85,1.85,0,0,1,.88-2,42.46,42.46,0,0,1,5.46-2.45c.48-.19.79-.16,5.85,1.66.86.31,1.55.57,1.79.63C68.71,58.57,84.2,61.3,93,61.3s24.29-2.73,32.69-5.18c.24-.06.93-.32,1.79-.63,5.06-1.82,5.36-1.85,5.85-1.66a42.46,42.46,0,0,1,5.46,2.45h0a1.85,1.85,0,0,1,.88,2c-.65,3.6-4,22.31-6.62,37.35s-2.69,36.51-2.72,46.76v2.19a96.87,96.87,0,0,0,1,13.8,1,1,0,0,1-1,1.16Zm-35.77-2.42L93,158l36.15-.43a99.06,99.06,0,0,1-.83-13v-2.18c0-10.32.12-31.77,2.76-47.09,2.59-15,6-33.71,6.62-37.36a41.86,41.86,0,0,0-4.86-2.18c-.77.17-3.39,1.12-4.69,1.59l-1.91.67C117.72,60.52,102,63.29,93,63.29S68.28,60.52,59.75,58l-1.91-.67c-1.3-.47-3.92-1.42-4.69-1.59A39.91,39.91,0,0,0,48.3,58c.68,3.81,4,22.4,6.61,37.36,2,11.34,3.05,28.38,3.16,49.27A100.89,100.89,0,0,1,57.24,157.58Z"/></svg>