<svg id="图层_1" data-name="图层 1" xmlns="http://www.w3.org/2000/svg" viewBox="0 0 186 186"><defs><style>.cls-1{fill:#9a9692;}.cls-2{fill:#f2f2f2;}</style></defs><title>child_neckline传iconfount</title><path class="cls-1" d="M123,158c0-5.81.08-11.61.17-17.41s.3-11.61.6-17.41c.16-2.91.33-5.82.65-8.73s.71-5.77,1.1-8.65c.78-5.75,1.64-11.49,2.49-17.23l1.27-8.5.7,8.56c1,11.87,1.85,23.75,2.54,35.64q.52,8.92.88,17.85c.16,6,.4,11.91.23,17.87-.29-5.95-.72-11.88-1.22-17.82l-1.45-17.79-3-35.58,2,.07L127.34,106c-.42,2.87-.86,5.74-1.22,8.6s-.6,5.73-.84,8.61c-.43,5.78-.81,11.57-1.18,17.36Z"/><path class="cls-1" d="M53.27,160c0-5.89.21-11.77.31-17.65L54,124.68,54.56,107l.26-8.81c0-2.91.16-5.92.07-8.72l-.23-6.92,2.16,6.53c1.82,5.53,3.58,11.07,5.16,16.68.77,2.82,1.52,5.63,2.1,8.52a44.54,44.54,0,0,1,.78,8.81c.09,5.84-.16,11.65-.45,17.46s-.7,11.6-1.24,17.39c.1-5.81.26-11.62.28-17.42s.09-11.61-.13-17.38a45.9,45.9,0,0,0-.94-8.5c-.61-2.8-1.39-5.59-2.21-8.36-1.62-5.55-3.38-11.09-5.23-16.57l1.93-.39c.1,3.08,0,6-.11,8.92l-.31,8.83c-.27,5.88-.51,11.76-.85,17.63s-.67,11.75-1.05,17.62S53.77,154.1,53.27,160Z"/><path class="cls-1" d="M79.88,26.75a17.37,17.37,0,0,1,.52,5.38,25,25,0,0,1-.29,2.73l-.3,1.34-.15.67-.22.65a22.76,22.76,0,0,1-5.87,9.26l-1,.95a8.27,8.27,0,0,1-1.06.9l-2.23,1.64c-.76.51-1.58.93-2.37,1.4l-1.2.69c-.4.23-.83.39-1.24.58-3.36,1.59-6.71,2.71-10,4.15a84.82,84.82,0,0,0-9.62,4.57A30.35,30.35,0,0,0,36.62,68a20.11,20.11,0,0,0-4.44,9.32A46.82,46.82,0,0,0,31.47,88a41.73,41.73,0,0,1-.25-10.83,16.74,16.74,0,0,1,.53-2.7,15.36,15.36,0,0,1,.86-2.64l.55-1.28a10.47,10.47,0,0,1,.68-1.22l.72-1.2c.27-.37.57-.73.86-1.1a30.28,30.28,0,0,1,8.48-7,81.23,81.23,0,0,1,9.8-4.77c3.31-1.42,6.79-2.58,10-4,.4-.18.82-.32,1.21-.53L66,50.09c.76-.43,1.56-.81,2.3-1.28l2.16-1.49a8,8,0,0,0,1-.81l1-.85a22.82,22.82,0,0,0,6-8.46l.26-.61L79,36l.4-1.26a23.5,23.5,0,0,0,.49-2.61A19.49,19.49,0,0,0,79.88,26.75Z"/><path class="cls-1" d="M31.47,88Q32.85,97,33.54,106c.5,6,.8,12,1,18s.18,12-.08,18.06A96.65,96.65,0,0,1,32.36,160c.28-3,.49-6,.49-9s.06-6,0-9q-.09-9-.36-18L32,106C31.78,100.05,31.63,94,31.47,88Z"/><path class="cls-1" d="M153.93,97.85A116.71,116.71,0,0,0,154.25,86a40.21,40.21,0,0,0-1.84-11.5,19.06,19.06,0,0,0-6.49-9.18,49.53,49.53,0,0,0-10.11-5.72c-3.56-1.66-7.2-3.22-10.77-5a68,68,0,0,1-10.41-6,21.9,21.9,0,0,1-4.5-4.22,14.13,14.13,0,0,1-2.66-5.68,28,28,0,0,1-.47-6.08c0-2,.09-4,.12-5.93l.73.73-7-.12-7-.16c-4.66-.15-9.32-.25-14-.45,4.66-.21,9.32-.3,14-.45l7-.16,7-.13h.73v.75c0,2,0,4,0,5.92a28.77,28.77,0,0,0,.56,5.7c.8,3.67,3.44,6.51,6.56,8.73a72.05,72.05,0,0,0,10.14,5.78c3.52,1.75,7.13,3.33,10.72,5A51.16,51.16,0,0,1,147,64a20.41,20.41,0,0,1,6.7,10.08A38.5,38.5,0,0,1,155,86,91.57,91.57,0,0,1,153.93,97.85Z"/><path class="cls-1" d="M154.92,160a127.72,127.72,0,0,1-2.41-15.42c-.29-2.59-.45-5.19-.64-7.79s-.24-5.2-.29-7.8,0-5.21,0-7.82.15-5.2.38-7.8a134.32,134.32,0,0,1,1.94-15.49c-.11,5.21-.35,10.38-.39,15.56s-.08,10.34,0,15.51.25,10.34.48,15.51S154.58,154.77,154.92,160Z"/><path class="cls-1" d="M70.93,56.09c3-.3,6-.51,9-.58,1.5,0,3,0,4.51.05a21,21,0,0,1,2.24.24,4.7,4.7,0,0,1,2.09.78,4.46,4.46,0,0,0-2.11-.65,18.52,18.52,0,0,0-2.23-.12c-1.49,0-3,.07-4.47.19-3,.25-6,.62-8.89,1.08Z"/><path class="cls-1" d="M114.45,57.08c-2.94-.46-5.92-.83-8.89-1.08-1.49-.12-3-.2-4.47-.19a18.41,18.41,0,0,0-2.23.12,4.46,4.46,0,0,0-2.11.65,4.65,4.65,0,0,1,2.09-.78,21,21,0,0,1,2.24-.24c1.5-.09,3-.09,4.51-.05,3,.07,6,.28,9,.58Z"/><path class="cls-2" d="M53.92,67.27s3.92,26.39,5.24,50.62A162.81,162.81,0,0,1,55.82,159h75.05a185.58,185.58,0,0,1-4.11-41.11c.47-20.59,3.37-42.77,5.55-50.62,0,0-21.63,16-39.2,16.43C72.88,84.14,53.92,67.27,53.92,67.27Z"/><path class="cls-1" d="M130.86,160h-75a1,1,0,0,1-.78-.38,1,1,0,0,1-.19-.84,163.81,163.81,0,0,0,3.31-40.84C56.86,94,53,67.68,52.93,67.42a1,1,0,0,1,.51-1,1,1,0,0,1,1.14.14c.19.16,18.43,16.18,37.75,16.18h.76c17.06-.38,38.41-16.07,38.62-16.23a1,1,0,0,1,1.17,0,1,1,0,0,1,.39,1.09C131,75.8,128.22,98,127.76,117.91a186,186,0,0,0,4.08,40.86,1,1,0,0,1-1,1.23Zm-73.8-2h72.56a189.7,189.7,0,0,1-3.86-40.14c.42-18.22,2.77-38.41,4.94-48.23-6,4.09-23,14.75-37.56,15.07-16.77.39-32.41-10.68-37.87-15,1,7.24,3.82,28.51,4.89,48.14A163.74,163.74,0,0,1,57.06,158Z"/><path class="cls-1" d="M53.92,68.27a1,1,0,0,1-1-.79L50.66,56.67a1,1,0,0,1,2-.41L54.9,67.07a1,1,0,0,1-.78,1.18A.71.71,0,0,1,53.92,68.27Z"/><path class="cls-1" d="M132.31,68.27a.75.75,0,0,1-.21,0,1,1,0,0,1-.77-1.19l2.06-9.58a1,1,0,0,1,1.18-.77,1,1,0,0,1,.77,1.19l-2.05,9.58A1,1,0,0,1,132.31,68.27Z"/><path class="cls-1" d="M54.91,77.1l5.85,4.67-6.29-4.06a.38.38,0,1,1,.41-.63Z"/><path class="cls-1" d="M62.48,74l3.58,6.58-4.22-6.19a.37.37,0,0,1,.1-.53.38.38,0,0,1,.52.1Z"/><path class="cls-1" d="M74.49,105.25a21.52,21.52,0,0,0,6.65,5.39,19,19,0,0,0,8.31,2.22,19.67,19.67,0,0,0,2.17-.07,9.81,9.81,0,0,0,1.09-.08l1.07-.21a18.77,18.77,0,0,0,2.13-.47l2.08-.71a12.37,12.37,0,0,0,2-.88l2-1c1.25-.76,2.47-1.58,3.71-2.37-1.22.82-2.42,1.68-3.65,2.48l-2,1a12.56,12.56,0,0,1-2,.94l-2.08.78a19.31,19.31,0,0,1-2.15.54l-1.08.24a10.18,10.18,0,0,1-1.11.12c-.74,0-1.48.16-2.22.13a19.67,19.67,0,0,1-8.64-2c-.68-.32-1.31-.72-2-1.08S77.58,109.41,77,109a20.83,20.83,0,0,1-3.29-3.09.5.5,0,1,1,.76-.65h0Z"/><path class="cls-1" d="M66.32,88.22a37,37,0,0,0,10.61,12.72,23.52,23.52,0,0,0,7.45,3.66,21,21,0,0,0,8.27.61c.69-.12,1.39-.16,2.07-.34l2-.51a33.32,33.32,0,0,0,3.91-1.53,35.76,35.76,0,0,0,3.72-2c1.2-.74,2.36-1.54,3.5-2.35a78.76,78.76,0,0,0,12.24-11.63A79.11,79.11,0,0,1,108,98.71c-1.14.84-2.29,1.66-3.49,2.42a37.25,37.25,0,0,1-3.72,2,34,34,0,0,1-4,1.61l-2.06.55c-.68.19-1.4.24-2.1.37a21.56,21.56,0,0,1-8.5-.49,24.36,24.36,0,0,1-7.72-3.66,34.58,34.58,0,0,1-6.27-5.81,39.49,39.49,0,0,1-4.81-7.09.5.5,0,1,1,.88-.47h0Z"/><path class="cls-1" d="M108.3,90.42a38.46,38.46,0,0,0,6.62-3,41.75,41.75,0,0,0,6-4.09c1-.73,1.82-1.59,2.71-2.4s1.73-1.68,2.52-2.59a66.3,66.3,0,0,0,4.67-5.58,0,0,0,0,1,.07,0,0,0,0,0,1,0,.06,27.63,27.63,0,0,1-4,6.19,28.16,28.16,0,0,1-2.58,2.66c-1,.78-1.88,1.6-2.9,2.31a43,43,0,0,1-6.26,3.89,38.17,38.17,0,0,1-6.83,2.69,0,0,0,0,1-.06,0S108.27,90.43,108.3,90.42Z"/><path class="cls-1" d="M129.37,84.81,121,93.17l7.62-9a.51.51,0,0,1,.71-.06.51.51,0,0,1,.06.71Z"/><path class="cls-1" d="M115.18,81.79A47,47,0,0,1,108.8,84a52,52,0,0,1-6.67,1.3,33,33,0,0,1-6.81.32,26.09,26.09,0,0,1-6.67-1.35.05.05,0,0,1,0-.07s0,0,0,0c2.26.17,4.46.48,6.7.45a64.79,64.79,0,0,0,6.68-.11,53.29,53.29,0,0,0,6.63-1,52,52,0,0,0,6.51-1.81,0,0,0,0,1,.06,0,0,0,0,0,1,0,.06Z"/></svg>