<svg id="图层_1" data-name="图层 1" xmlns="http://www.w3.org/2000/svg" viewBox="0 0 186 186"><defs><style>.cls-1{fill:#9a9692;}.cls-2{fill:#f2f2f2;}</style></defs><title>child_neckline传iconfount</title><path class="cls-1" d="M123,157.86c0-5.8.08-11.6.17-17.4s.3-11.6.6-17.39c.16-2.9.33-5.81.65-8.72s.71-5.77,1.1-8.64c.78-5.75,1.64-11.49,2.49-17.22L129.22,80l.71,8.55c1,11.86,1.84,23.73,2.53,35.61q.53,8.91.88,17.83c.16,5.95.4,11.9.23,17.85-.28-5.94-.71-11.87-1.21-17.79l-1.46-17.78-3-35.55,2,.07L127.31,106c-.43,2.86-.86,5.73-1.22,8.59s-.6,5.72-.84,8.61c-.43,5.76-.81,11.55-1.18,17.33Z"/><path class="cls-1" d="M53.3,159.84c.05-5.88.22-11.75.31-17.63l.47-17.63L54.6,107l.25-8.81c0-2.91.16-5.92.07-8.71l-.23-6.91,2.16,6.52c1.83,5.52,3.58,11.06,5.15,16.67.78,2.81,1.52,5.63,2.11,8.51a44.43,44.43,0,0,1,.77,8.8c.09,5.84-.16,11.64-.44,17.44s-.7,11.59-1.24,17.38c.1-5.81.26-11.61.28-17.41s.08-11.6-.14-17.36a46,46,0,0,0-.93-8.5c-.61-2.79-1.39-5.58-2.2-8.35C58.58,100.7,56.82,95.17,55,89.69l1.93-.39c.1,3.08,0,6-.11,8.92L56.48,107c-.27,5.88-.51,11.75-.85,17.62s-.66,11.74-1,17.6S53.8,154,53.3,159.84Z"/><path class="cls-1" d="M79.89,26.75a17.07,17.07,0,0,1,.52,5.38,22.82,22.82,0,0,1-.29,2.72l-.3,1.34-.15.67-.22.65a22.8,22.8,0,0,1-5.86,9.25l-1,1a8.27,8.27,0,0,1-1.06.9l-2.23,1.64c-.76.51-1.58.93-2.37,1.4l-1.19.69c-.4.22-.83.38-1.25.58-3.35,1.58-6.7,2.7-10,4.14a85.49,85.49,0,0,0-9.61,4.57A30.26,30.26,0,0,0,36.67,68a20,20,0,0,0-4.43,9.31A46.6,46.6,0,0,0,31.53,88a41.22,41.22,0,0,1-.25-10.82,17.87,17.87,0,0,1,.52-2.7,17.57,17.57,0,0,1,.86-2.63l.55-1.28c.18-.43.46-.81.68-1.22l.72-1.2c.28-.37.57-.73.86-1.1A30.24,30.24,0,0,1,44,60a81,81,0,0,1,9.78-4.77c3.32-1.41,6.79-2.58,10-4,.4-.18.83-.32,1.21-.53l1.16-.62c.76-.43,1.56-.81,2.29-1.28l2.16-1.49a8,8,0,0,0,1-.81l1-.85a23,23,0,0,0,6-8.45l.26-.61L79,36l.39-1.26a25.05,25.05,0,0,0,.5-2.61A19.82,19.82,0,0,0,79.89,26.75Z"/><path class="cls-1" d="M31.53,88c.92,5.94,1.59,11.92,2.07,17.91s.79,12,1,18,.19,12-.07,18a97.19,97.19,0,0,1-2.09,17.92c.27-3,.48-6,.49-9s.06-6,.05-9q-.09-9-.36-17.95l-.55-18C31.84,100,31.68,94,31.53,88Z"/><path class="cls-1" d="M153.87,97.78A111,111,0,0,0,154.19,86a39.84,39.84,0,0,0-1.83-11.49,20,20,0,0,0-2.56-5.08,19.53,19.53,0,0,0-3.93-4.09,49.42,49.42,0,0,0-10.1-5.71c-3.56-1.66-7.2-3.22-10.76-5a68.79,68.79,0,0,1-10.4-6,21.85,21.85,0,0,1-4.49-4.22,13.83,13.83,0,0,1-2.66-5.67,28.56,28.56,0,0,1-.48-6.07c0-2,.09-4,.12-5.93l.74.73-7-.13-7-.16c-4.65-.14-9.31-.24-14-.44,4.66-.21,9.32-.3,14-.45l7-.16,7-.13h.72v.75c0,2,0,4,.06,5.91a28,28,0,0,0,.55,5.7c.8,3.67,3.45,6.5,6.56,8.72a71.94,71.94,0,0,0,10.13,5.78c3.51,1.75,7.12,3.33,10.71,5A51.51,51.51,0,0,1,146.93,64a21.2,21.2,0,0,1,4.12,4.54,21,21,0,0,1,2.57,5.54A38.07,38.07,0,0,1,155,86,87.86,87.86,0,0,1,153.87,97.78Z"/><path class="cls-1" d="M154.87,159.84a127.11,127.11,0,0,1-2.42-15.4c-.28-2.59-.44-5.19-.63-7.78s-.24-5.2-.29-7.8,0-5.2,0-7.81.15-5.2.39-7.79a134.4,134.4,0,0,1,1.93-15.48c-.1,5.21-.35,10.37-.38,15.55s-.08,10.33,0,15.5.26,10.33.48,15.49S154.52,154.66,154.87,159.84Z"/><path class="cls-1" d="M71,56.06c3-.29,6-.5,9-.58,1.5,0,3,0,4.5.05a21,21,0,0,1,2.24.25,4.43,4.43,0,0,1,2.09.78,4.36,4.36,0,0,0-2.1-.66,18.52,18.52,0,0,0-2.23-.12c-1.49,0-3,.08-4.47.19-3,.25-5.94.62-8.88,1.08Z"/><path class="cls-1" d="M114.43,57.05c-2.94-.46-5.91-.83-8.88-1.08-1.49-.11-3-.2-4.47-.19a18.52,18.52,0,0,0-2.23.12,4.3,4.3,0,0,0-2.1.66,4.43,4.43,0,0,1,2.09-.78,20.84,20.84,0,0,1,2.23-.25c1.5-.09,3-.09,4.51-.05,3,.08,6,.29,9,.58Z"/><path class="cls-2" d="M57.15,159a1,1,0,0,1-.76-.35,1,1,0,0,1-.23-.79c4.42-29.79-2.09-61.31-5.1-73.49a2,2,0,0,1,1.07-2.26c6.94-3.38,26.24-16,25.59-29.94l-8.57-2a1.5,1.5,0,0,1-.28-2.83c2.07-.91,5.74-2.88,7-5.8a1,1,0,0,1,.91-.59,1.09,1.09,0,0,1,.39.08,43.87,43.87,0,0,0,15,2.82H93A65.71,65.71,0,0,0,109.06,41a1.12,1.12,0,0,1,.31-.05,1,1,0,0,1,.9.56c1.2,2.46,4.54,4.53,5.93,5.31a1.49,1.49,0,0,1,.75,1.44,1.53,1.53,0,0,1-1,1.29l-7.55,2.53c-1.4,16.4,23.68,29.77,24.76,30.34a2,2,0,0,1,1,2.25c-3.12,12.47-9.7,44.55-3.31,73.09a1,1,0,0,1-.19.85,1,1,0,0,1-.78.37Z"/><path class="cls-1" d="M109.37,42c1.29,2.65,4.64,4.79,6.34,5.74a.5.5,0,0,1-.1.91l-8.16,2.74c-2,16.37,20.86,29.67,25.22,32a1,1,0,0,1,.51,1.11c-1.46,5.82-10.42,41.82-3.31,73.56H57.15c4.92-33.18-3.68-68.06-5.12-73.86A1,1,0,0,1,52.56,83c4.54-2.21,27.63-15.72,26.1-31.65l-9.29-2.14a.5.5,0,0,1-.09-.94c2.16-1,6.1-3.07,7.55-6.31a44.62,44.62,0,0,0,15.4,2.9H93A66.24,66.24,0,0,0,109.37,42m0-2a2.21,2.21,0,0,0-.62.09A64.36,64.36,0,0,1,93,42.87h-.73A42.84,42.84,0,0,1,77.6,40.13a1.89,1.89,0,0,0-.77-.15A2,2,0,0,0,75,41.15c-1.22,2.71-5,4.61-6.54,5.3a2.5,2.5,0,0,0,.45,4.72L76.73,53c0,4.22-2,10.41-10.19,17.89A72.42,72.42,0,0,1,51.69,81.21a3,3,0,0,0-1.59,3.4c3,12.12,9.46,43.49,5.07,73.1a2,2,0,0,0,.47,1.6,2,2,0,0,0,1.51.69h72.72a2,2,0,0,0,1.95-2.43c-6.35-28.34.19-60.24,3.3-72.64a3,3,0,0,0-1.52-3.37c-1-.55-24.9-13.27-24.27-28.72l6.92-2.33a2.5,2.5,0,0,0,.43-4.54c-2.71-1.52-4.77-3.35-5.52-4.87A2,2,0,0,0,109.37,40Z"/><path class="cls-1" d="M83.84,52.41l4.61.59c1.53.17,3,.36,4.56.38A30.64,30.64,0,0,0,97.55,53c1.53-.21,3.06-.41,4.61-.6a30.35,30.35,0,0,1-4.47,1.37,20.31,20.31,0,0,1-4.7.6,24.29,24.29,0,0,1-4.67-.62A28.91,28.91,0,0,1,83.84,52.41Z"/><path class="cls-1" d="M82.59,57.78c-.46,2.74-1.1,5.44-1.8,8.13s-1.53,5.34-2.42,8a72.79,72.79,0,0,1-3.15,7.73,30,30,0,0,1-4.4,7.07c.35-.6.71-1.19,1.07-1.77l1-1.84c.59-1.25,1.18-2.49,1.68-3.77,1-2.56,2-5.13,2.9-7.75s1.77-5.23,2.63-7.86Z"/><path class="cls-1" d="M105.62,59.23l2.53,7.92c.86,2.63,1.71,5.25,2.63,7.86s1.86,5.19,2.9,7.74c.5,1.29,1.09,2.53,1.69,3.78l.94,1.84q.54.87,1.08,1.77A30.26,30.26,0,0,1,113,83.07a70.68,70.68,0,0,1-3.14-7.73c-.9-2.63-1.74-5.29-2.42-8S106.07,62,105.62,59.23Z"/><path class="cls-1" d="M99.7,58.74c.26,1.89.57,3.76.87,5.63s.67,3.72,1.08,5.56.88,3.67,1.38,5.49,1.15,3.6,1.8,5.39a28.29,28.29,0,0,1-2.53-5.15,39.1,39.1,0,0,1-1.62-5.51A42.14,42.14,0,0,1,99.7,58.74Z"/><path class="cls-1" d="M87.53,61.45a30.64,30.64,0,0,1-.06,8.5A25.27,25.27,0,0,1,85,78.1c.57-2.78,1.08-5.51,1.45-8.29S87.16,64.27,87.53,61.45Z"/><path class="cls-1" d="M93.65,60.23c.41,2.14.74,4.24,1.15,6.33.19,1,.43,2.08.65,3.12l.74,3.15a16.64,16.64,0,0,1-2.37-6.08,23.74,23.74,0,0,1-.37-3.26A14.85,14.85,0,0,1,93.65,60.23Z"/></svg>