<svg id="图层_1" data-name="图层 1" xmlns="http://www.w3.org/2000/svg" viewBox="0 0 186 186"><defs><style>.cls-1{fill:#9a9692;}.cls-2{fill:#f2f2f2;}</style></defs><title>child_neckline传iconfount</title><path class="cls-1" d="M122.87,157.52c0-5.79.09-11.57.17-17.35s.3-11.57.61-17.35c.16-2.89.32-5.79.64-8.69s.71-5.76,1.09-8.63c.78-5.73,1.64-11.45,2.49-17.17l1.26-8.46.7,8.53q1.47,17.75,2.53,35.51.52,8.88.88,17.78c.16,5.94.4,11.88.23,17.81-.29-5.93-.72-11.84-1.21-17.75L130.81,124l-3-35.46,2,.07-2.6,17.14c-.42,2.85-.85,5.71-1.22,8.56s-.6,5.71-.83,8.59c-.43,5.75-.81,11.52-1.18,17.29Z"/><path class="cls-1" d="M53.4,159.5c.05-5.86.22-11.72.31-17.59l.47-17.58.51-17.57L55,98c0-2.9.16-5.9.07-8.7l-.23-6.89,2.15,6.51c1.82,5.51,3.58,11,5.14,16.63.77,2.8,1.52,5.61,2.1,8.49a44.13,44.13,0,0,1,.77,8.77c.09,5.82-.16,11.61-.44,17.4s-.7,11.56-1.23,17.33c.09-5.79.25-11.57.27-17.36s.09-11.57-.13-17.32a46.44,46.44,0,0,0-.93-8.47c-.61-2.79-1.39-5.57-2.2-8.33-1.62-5.53-3.38-11.05-5.22-16.51L57,89.14c.1,3.07,0,5.93-.1,8.89l-.32,8.8c-.26,5.85-.51,11.71-.84,17.57s-.67,11.7-1,17.56S53.9,153.66,53.4,159.5Z"/><path class="cls-1" d="M79.92,26.74a17,17,0,0,1,.52,5.37,25.07,25.07,0,0,1-.28,2.72l-.3,1.33-.16.67-.21.65a22.7,22.7,0,0,1-5.86,9.23l-1,.95a8.1,8.1,0,0,1-1,.89l-2.23,1.63c-.76.52-1.57.93-2.36,1.4l-1.19.69c-.4.23-.83.39-1.24.58-3.35,1.58-6.69,2.69-10,4.13A83.43,83.43,0,0,0,45,61.54a30.1,30.1,0,0,0-8.2,6.36,20,20,0,0,0-4.42,9.29,46.38,46.38,0,0,0-.7,10.62A41,41,0,0,1,31.43,77,18.82,18.82,0,0,1,32,74.33a16.49,16.49,0,0,1,.86-2.63l.54-1.28a12.13,12.13,0,0,1,.69-1.21L34.76,68c.28-.38.57-.74.86-1.1a30.22,30.22,0,0,1,8.45-7,83.72,83.72,0,0,1,9.76-4.76c3.31-1.4,6.77-2.57,9.94-4,.4-.17.82-.32,1.2-.52L66.12,50c.77-.42,1.56-.8,2.29-1.27l2.16-1.49a7.19,7.19,0,0,0,1-.8l1-.85a22.77,22.77,0,0,0,6-8.43l.26-.61.19-.62.4-1.26a22.9,22.9,0,0,0,.49-2.6A19.82,19.82,0,0,0,79.92,26.74Z"/><path class="cls-1" d="M31.69,87.81c.91,5.93,1.58,11.89,2.06,17.87s.79,12,1,17.95.19,12-.07,18a96.76,96.76,0,0,1-2.09,17.87c.28-3,.48-6,.49-8.95s.06-6,0-9q-.09-9-.36-17.91l-.54-17.93C32,99.79,31.84,93.81,31.69,87.81Z"/><path class="cls-1" d="M153.72,97.6A113.09,113.09,0,0,0,154,85.82a40,40,0,0,0-1.82-11.46,20.27,20.27,0,0,0-2.55-5.07,19.48,19.48,0,0,0-3.93-4.08,48.85,48.85,0,0,0-10.07-5.69c-3.55-1.66-7.18-3.22-10.74-5a68.8,68.8,0,0,1-10.37-6,22.57,22.57,0,0,1-4.48-4.21,14,14,0,0,1-2.65-5.66,28.45,28.45,0,0,1-.47-6.06c0-2,.09-3.95.12-5.91l.73.73-7-.13-7-.16c-4.65-.15-9.29-.24-13.94-.45,4.65-.2,9.29-.29,13.94-.44l7-.16,7-.13h.72v.75c0,2,0,3.95.06,5.89a28,28,0,0,0,.55,5.69c.8,3.66,3.44,6.48,6.54,8.7a72.61,72.61,0,0,0,10.11,5.76c3.5,1.74,7.1,3.32,10.68,5a50.79,50.79,0,0,1,10.32,6.11,20.15,20.15,0,0,1,6.67,10,38,38,0,0,1,1.34,11.86A91,91,0,0,1,153.72,97.6Z"/><path class="cls-1" d="M154.71,159.5a126.6,126.6,0,0,1-2.41-15.37c-.28-2.58-.44-5.16-.63-7.75s-.24-5.19-.29-7.78,0-5.19,0-7.79.16-5.19.39-7.77a133.45,133.45,0,0,1,1.93-15.44c-.11,5.19-.35,10.34-.39,15.5s-.08,10.31,0,15.46.25,10.31.48,15.46S154.36,154.33,154.71,159.5Z"/><path class="cls-1" d="M71,56c3-.3,6-.51,9-.59,1.49,0,3,0,4.49.06a18.76,18.76,0,0,1,2.23.24,4.4,4.4,0,0,1,2.08.78,4.4,4.4,0,0,0-2.1-.66c-.74-.08-1.48-.11-2.22-.12-1.49,0-3,.08-4.46.2-3,.24-5.92.61-8.85,1.07Z"/><path class="cls-1" d="M114.37,57c-2.93-.46-5.89-.83-8.85-1.07-1.49-.12-3-.2-4.46-.2-.74,0-1.48,0-2.22.12a4.4,4.4,0,0,0-2.1.66,4.4,4.4,0,0,1,2.08-.78,18.76,18.76,0,0,1,2.23-.24c1.5-.09,3-.09,4.49-.06,3,.08,6,.29,9,.59Z"/><path class="cls-2" d="M156.44,79.36c-8.8-4.14-21.44-6.6-29.84-6.29-14.32.51-25.73,7.92-31.17,11.53a4.4,4.4,0,0,1-4.87,0C85.13,81,73.72,73.58,59.4,73.07c-8.4-.31-21,2.15-29.84,6.29,0,0-1.84,6.06,1.22,17.82,0,0,12.3-5.75,23.39-.73a3,3,0,0,1,1.72,2.61c.22,7.34,1,35,1,45.24,0,6-.77,14.7-.77,14.7h73.66s-.78-8.72-.77-14.7c0-10.23.83-37.9,1.05-45.24a3,3,0,0,1,1.72-2.61c11.09-5,23.39.73,23.39.73C158.28,85.42,156.44,79.36,156.44,79.36Z"/><path class="cls-1" d="M129.83,160H56.17a1,1,0,0,1-.74-.32,1,1,0,0,1-.25-.76c0-.09.78-8.76.76-14.62,0-10.1-.8-37.16-1-45.21a2,2,0,0,0-1.14-1.73c-10.53-4.77-22.44.67-22.56.72a1,1,0,0,1-.85,0,1,1,0,0,1-.54-.65c-3.09-11.89-1.28-18.1-1.21-18.36a1,1,0,0,1,.53-.61c8.56-4,21.28-6.73,30.3-6.39,14.9.54,26.66,8.36,31.69,11.7a3.39,3.39,0,0,0,3.76,0c5-3.34,16.79-11.16,31.69-11.7,9-.34,21.74,2.36,30.3,6.39a1,1,0,0,1,.53.61c.07.26,1.88,6.47-1.21,18.36a1,1,0,0,1-.54.65,1,1,0,0,1-.85,0c-.12,0-12-5.48-22.56-.72a2,2,0,0,0-1.14,1.73c-.24,8-1,35.11-1,45.21,0,5.86.76,14.53.76,14.61a1,1,0,0,1-.25.77A1,1,0,0,1,129.83,160Zm-72.58-2h71.5c-.21-2.54-.7-9-.68-13.72,0-10.12.8-37.2,1-45.26a4,4,0,0,1,2.31-3.48c9.55-4.33,19.78-1,23.12.26,2.15-8.93,1.35-14.28,1.05-15.75-8.3-3.79-20.38-6.29-28.95-6-14.34.52-25.77,8.12-30.65,11.37a5.38,5.38,0,0,1-6,0C85.13,82.18,73.7,74.58,59.36,74.06c-8.58-.29-20.65,2.21-28.95,6-.3,1.47-1.1,6.82,1.05,15.75,3.34-1.3,13.56-4.59,23.12-.26A4,4,0,0,1,56.89,99c.24,8.06,1,35.14,1,45.26C57.94,149,57.46,155.47,57.25,158Z"/></svg>