<svg id="图层_1" data-name="图层 1" xmlns="http://www.w3.org/2000/svg" viewBox="0 0 186 186"><defs><style>.cls-1{fill:#9a9692;}.cls-2{fill:#f2f2f2;}</style></defs><title>child_neckline传iconfount</title><path class="cls-1" d="M122.89,157.8c0-5.79.08-11.58.16-17.36s.31-11.57.61-17.36c.16-2.89.32-5.79.64-8.69s.71-5.76,1.1-8.63c.78-5.74,1.63-11.46,2.49-17.18l1.25-8.47.71,8.53c1,11.84,1.84,23.68,2.53,35.53q.52,8.89.87,17.79c.17,5.94.41,11.88.23,17.82-.28-5.93-.71-11.85-1.21-17.76l-1.45-17.74-2.94-35.47,2,.07L127.24,106c-.43,2.86-.86,5.72-1.22,8.57s-.6,5.71-.84,8.59q-.65,8.64-1.17,17.3Z"/><path class="cls-1" d="M53.39,159.78c0-5.87.21-11.73.31-17.6l.46-17.58L54.68,107l.25-8.79c.06-2.9.16-5.9.07-8.7l-.22-6.89,2.15,6.5c1.82,5.52,3.57,11,5.14,16.64.77,2.81,1.52,5.62,2.1,8.49a44.33,44.33,0,0,1,.77,8.79c.09,5.82-.16,11.61-.44,17.4S63.8,152,63.26,157.8c.1-5.8.26-11.58.28-17.37s.09-11.58-.13-17.33a46.44,46.44,0,0,0-.93-8.47c-.61-2.79-1.4-5.57-2.2-8.34Q57.83,98,55.05,89.78L57,89.39c.1,3.07,0,5.93-.11,8.89l-.31,8.8c-.27,5.86-.51,11.72-.85,17.58s-.66,11.71-1,17.57S53.89,153.93,53.39,159.78Z"/><path class="cls-1" d="M79.92,27a17.27,17.27,0,0,1,.51,5.37,24.89,24.89,0,0,1-.28,2.71l-.3,1.34-.15.67-.22.65a22.78,22.78,0,0,1-5.85,9.23l-1,1a7.38,7.38,0,0,1-1.05.89l-2.23,1.64c-.76.51-1.57.93-2.36,1.4l-1.2.68a12.77,12.77,0,0,1-1.24.58c-3.34,1.58-6.68,2.7-10,4.14A85.07,85.07,0,0,0,45,61.77a30.33,30.33,0,0,0-8.2,6.37,20,20,0,0,0-4.42,9.29,46.47,46.47,0,0,0-.71,10.63,41.49,41.49,0,0,1-.25-10.8,17.74,17.74,0,0,1,.52-2.69A17.08,17.08,0,0,1,32.79,72l.55-1.28A12.18,12.18,0,0,1,34,69.45l.72-1.19c.27-.38.57-.74.85-1.1a30.26,30.26,0,0,1,8.46-7,82.28,82.28,0,0,1,9.77-4.76c3.3-1.41,6.77-2.57,9.94-4,.4-.18.82-.32,1.2-.53l1.15-.62c.76-.43,1.56-.81,2.29-1.28l2.16-1.49a6.53,6.53,0,0,0,1-.8l1-.85a22.69,22.69,0,0,0,6-8.44l.26-.6.2-.63.39-1.26a22.49,22.49,0,0,0,.49-2.6A19.34,19.34,0,0,0,79.92,27Z"/><path class="cls-1" d="M31.66,88.06c.92,5.93,1.59,11.9,2.06,17.87s.8,12,1,18,.18,12-.08,18a96.85,96.85,0,0,1-2.08,17.88c.27-3,.48-6,.49-8.95s.06-6,.05-9q-.09-9-.36-17.92L32.18,106C32,100,31.82,94.06,31.66,88.06Z"/><path class="cls-1" d="M153.74,97.85a110.48,110.48,0,0,0,.32-11.78,39.65,39.65,0,0,0-1.83-11.47,19.94,19.94,0,0,0-2.55-5.07,19.69,19.69,0,0,0-3.92-4.08,49.23,49.23,0,0,0-10.08-5.7c-3.55-1.65-7.18-3.21-10.74-5a68.47,68.47,0,0,1-10.38-6,22.57,22.57,0,0,1-4.48-4.21,13.94,13.94,0,0,1-2.65-5.67,28.42,28.42,0,0,1-.48-6.06c0-2,.09-4,.12-5.91l.74.73-7-.13-7-.16c-4.65-.14-9.3-.24-13.94-.44,4.64-.21,9.29-.3,13.94-.45l7-.16,7-.12.72,0V27c0,2,0,4,.06,5.9a28,28,0,0,0,.55,5.69c.8,3.66,3.43,6.48,6.54,8.7A71.61,71.61,0,0,0,125.8,53c3.51,1.75,7.11,3.32,10.68,5a50.54,50.54,0,0,1,10.33,6.1,20.85,20.85,0,0,1,4.11,4.53,20.61,20.61,0,0,1,2.57,5.53,38.21,38.21,0,0,1,1.33,11.86A91,91,0,0,1,153.74,97.85Z"/><path class="cls-1" d="M154.73,159.78a126.58,126.58,0,0,1-2.4-15.37c-.29-2.59-.45-5.18-.64-7.77s-.24-5.18-.29-7.78,0-5.19,0-7.79.15-5.19.38-7.77a133.62,133.62,0,0,1,1.93-15.45c-.1,5.2-.34,10.35-.38,15.51s-.08,10.31,0,15.47.25,10.31.47,15.46S154.39,154.6,154.73,159.78Z"/><path class="cls-1" d="M71,56.22c3-.3,6-.5,9-.58,1.5,0,3,0,4.49,0a21,21,0,0,1,2.24.25,4.53,4.53,0,0,1,2.08.77,4.42,4.42,0,0,0-2.1-.65,18.41,18.41,0,0,0-2.23-.12c-1.48,0-3,.07-4.45.19-3,.24-5.93.62-8.86,1.07Z"/><path class="cls-1" d="M114.38,57.2c-2.93-.45-5.89-.83-8.86-1.07-1.48-.12-3-.2-4.45-.19a18.41,18.41,0,0,0-2.23.12,4.39,4.39,0,0,0-2.1.65,4.53,4.53,0,0,1,2.08-.77,21,21,0,0,1,2.24-.25c1.49-.09,3-.09,4.49,0,3,.08,6,.28,9,.58Z"/><path class="cls-2" d="M59.55,83.61A3.32,3.32,0,0,0,57.64,85a35,35,0,0,0-3,7.29l3.43,47a144.71,144.71,0,0,1-.85,19.91h73.2c-1.19-8.75-1.8-14.44-2-19.47C128,128.07,130.48,93,130.48,93a.9.9,0,0,0-.09-.46c-1.69-3.6-1.58-4.81-3-6.59a6.18,6.18,0,0,0-2.58-2.19,109.44,109.44,0,0,0-32.1-4.54C76.61,79.22,63.49,82.76,59.55,83.61Z"/><path class="cls-1" d="M131.38,160.22H58.17a1,1,0,0,1-.75-.34,1,1,0,0,1-.24-.79A145,145,0,0,0,58,139.35l-3.77-46,.23-2a34,34,0,0,1,2.87-6.09l.75-1.33a2.55,2.55,0,0,1,2.22-1.3h0l1.77-.4a138.89,138.89,0,0,1,31.62-4A106.3,106.3,0,0,1,125,82.48l.17,0a10.33,10.33,0,0,1,3.77,2.76l.07.09c1.44,1.82,1.38,2.58,3.11,6.27a2,2,0,0,1,.18,1c0,.37-2.34,35.62-1.91,47.11a194.71,194.71,0,0,0,2,19.37,1,1,0,0,1-1,1.13Zm-72.07-2h70.93c-1.15-8.5-1.67-13.73-1.84-18.43-.38-10.05,1-37.08,1.71-45.11a8.12,8.12,0,0,0-.92-4.51,20.64,20.64,0,0,0-2.51-3.76l-.08-.1c-.28-.37-1.15-1.63-2-1.88l-.17-.06a104.63,104.63,0,0,0-30.71-4.16,137.31,137.31,0,0,0-31.17,4l-1.8.41h0a2.34,2.34,0,0,0-1.24.93l-.42.74a32,32,0,0,0-2.76,5.87l-.1.89L60,139.24a152.79,152.79,0,0,1-.72,19Z"/></svg>