<svg id="图层_1" data-name="图层 1" xmlns="http://www.w3.org/2000/svg" viewBox="0 0 186 186"><defs><style>.cls-1{fill:#9a9692;}.cls-2{fill:#f2f2f2;}</style></defs><title>child_neckline传iconfount</title><path class="cls-1" d="M123,158c0-5.81.08-11.61.16-17.42s.31-11.6.61-17.41c.16-2.9.32-5.81.65-8.72s.71-5.78,1.09-8.66c.79-5.76,1.65-11.5,2.5-17.24l1.26-8.49.71,8.56c1,11.87,1.85,23.75,2.54,35.64q.53,8.92.88,17.86c.16,6,.4,11.91.23,17.87-.29-5.95-.72-11.88-1.22-17.82L131,124.38l-3-35.59,2,.07-2.61,17.2c-.43,2.87-.86,5.74-1.23,8.6s-.59,5.73-.83,8.62c-.43,5.78-.81,11.56-1.18,17.35Z"/><path class="cls-1" d="M53.26,160c0-5.89.21-11.77.31-17.65L54,124.7l.52-17.64.26-8.81c0-2.92.16-5.93.07-8.73l-.23-6.92,2.16,6.53c1.83,5.54,3.58,11.08,5.16,16.69.77,2.82,1.52,5.64,2.1,8.52a43.9,43.9,0,0,1,.78,8.82c.09,5.84-.16,11.65-.45,17.46s-.69,11.6-1.24,17.39c.1-5.81.26-11.62.28-17.42s.09-11.62-.13-17.39a46.77,46.77,0,0,0-.93-8.5c-.62-2.8-1.4-5.59-2.21-8.36-1.63-5.55-3.39-11.09-5.24-16.57l1.93-.39c.1,3.08,0,6-.11,8.92l-.31,8.83c-.27,5.88-.51,11.76-.85,17.63s-.67,11.76-1.05,17.63S53.76,154.13,53.26,160Z"/><path class="cls-1" d="M79.87,26.75a17.1,17.1,0,0,1,.52,5.39,25.07,25.07,0,0,1-.28,2.72l-.3,1.34-.16.67-.21.66a22.84,22.84,0,0,1-5.88,9.26l-1,1a8.18,8.18,0,0,1-1,.9l-2.23,1.63c-.77.52-1.59.94-2.38,1.41l-1.2.69c-.4.22-.83.38-1.24.58-3.36,1.58-6.71,2.7-10,4.15a84.07,84.07,0,0,0-9.63,4.57,30.51,30.51,0,0,0-8.23,6.38,20.08,20.08,0,0,0-4.43,9.33A46.73,46.73,0,0,0,31.46,88a41.28,41.28,0,0,1-.26-10.83,19.23,19.23,0,0,1,.53-2.7,17.32,17.32,0,0,1,.86-2.64l.55-1.28a12.28,12.28,0,0,1,.69-1.22l.72-1.2c.27-.37.57-.73.85-1.1a30.46,30.46,0,0,1,8.49-7,82.83,82.83,0,0,1,9.8-4.78c3.31-1.41,6.79-2.58,10-4,.4-.18.82-.32,1.21-.53L66,50.09c.77-.43,1.57-.81,2.3-1.28l2.16-1.49a6.75,6.75,0,0,0,1-.8l1-.86a22.7,22.7,0,0,0,6-8.46l.26-.61L79,36l.4-1.26a22.66,22.66,0,0,0,.49-2.61A19.89,19.89,0,0,0,79.87,26.75Z"/><path class="cls-1" d="M31.46,88C32.38,94,33.05,100,33.53,106s.8,12,1,18,.19,12-.07,18.06A97.41,97.41,0,0,1,32.35,160c.27-3,.48-6,.49-9s.06-6,0-9q-.09-9-.36-18l-.55-18C31.77,100.06,31.61,94.06,31.46,88Z"/><path class="cls-1" d="M153.94,97.87A111.41,111.41,0,0,0,154.26,86a40,40,0,0,0-1.83-11.5,20.09,20.09,0,0,0-2.56-5.09,19.84,19.84,0,0,0-3.94-4.09,49.53,49.53,0,0,0-10.11-5.72c-3.56-1.66-7.21-3.23-10.78-5a69.87,69.87,0,0,1-10.41-6,22.12,22.12,0,0,1-4.49-4.22,13.91,13.91,0,0,1-2.66-5.69,28.6,28.6,0,0,1-.48-6.08c0-2,.09-4,.12-5.93l.74.73-7-.12-7-.16c-4.66-.15-9.32-.25-14-.45,4.67-.21,9.33-.3,14-.45l7-.16,7-.13h.72v.75c0,2,0,4,.06,5.92a28.14,28.14,0,0,0,.55,5.71c.8,3.67,3.45,6.5,6.57,8.73a72.05,72.05,0,0,0,10.14,5.78c3.52,1.75,7.13,3.33,10.72,5A51.16,51.16,0,0,1,147,64.05a20.23,20.23,0,0,1,6.7,10.08A38.24,38.24,0,0,1,155,86,90,90,0,0,1,153.94,97.87Z"/><path class="cls-1" d="M154.94,160a127.59,127.59,0,0,1-2.42-15.43c-.28-2.58-.45-5.18-.63-7.78s-.24-5.2-.29-7.81,0-5.21,0-7.81.15-5.21.39-7.81a134.3,134.3,0,0,1,1.93-15.49c-.1,5.21-.34,10.38-.38,15.56s-.08,10.35,0,15.52.25,10.34.47,15.51S154.59,154.81,154.94,160Z"/><path class="cls-1" d="M70.92,56.1c3-.3,6-.51,9-.59,1.5,0,3,0,4.5.06a19.09,19.09,0,0,1,2.25.24,4.51,4.51,0,0,1,2.09.78,4.46,4.46,0,0,0-2.11-.65,20.84,20.84,0,0,0-2.23-.13c-1.5,0-3,.08-4.48.2-3,.24-5.94.62-8.88,1.07Z"/><path class="cls-1" d="M114.45,57.08c-2.94-.45-5.91-.83-8.89-1.07-1.48-.12-3-.2-4.47-.2a20.84,20.84,0,0,0-2.23.13,4.46,4.46,0,0,0-2.11.65,4.47,4.47,0,0,1,2.09-.78,18.7,18.7,0,0,1,2.24-.24c1.5-.09,3-.09,4.51-.06,3,.08,6,.29,9,.59Z"/><path class="cls-2" d="M59,159a100.56,100.56,0,0,0,.83-12.95c0-2,.06-4.45.14-7.26.26-9.35.62-22.16-1.57-34.88C56.58,93.61,52.88,78.22,50.42,68c-1.05-4.37-1.88-7.82-2.08-8.9,4-3,13.06-6.88,15.75-8a.63.63,0,0,1,.27-.06.75.75,0,0,1,.51.21L94,80.57a1,1,0,0,0,.7.3h.05a1,1,0,0,0,.72-.36l24.17-29.63,1.18.43C124.8,52.86,134,56.52,138,59.38c-1.37,5.42-7.26,30.45-8.92,44.59a254.66,254.66,0,0,0-.77,43.79c.34,4.37.65,9.17.78,11.25Z"/><path class="cls-1" d="M120.5,51.44h0M120,52l.47.18c3.74,1.48,12.26,4.86,16.4,7.59-1.63,6.6-7.18,30.37-8.78,44.05a256.89,256.89,0,0,0-.77,44c.29,3.73.56,7.78.71,10.17H60.09a100.69,100.69,0,0,0,.69-12c0-2,.06-4.42.14-7.22.27-9.4.63-22.26-1.58-35.08-1.78-10.34-5.49-25.75-8-35.95-.9-3.71-1.63-6.76-1.94-8.23,4-2.79,12.11-6.3,14.84-7.45l29,29.15a2,2,0,0,0,1.41.59h.1a2,2,0,0,0,1.44-.73L120,52M64.47,52h0m55.23-2.19a1,1,0,0,0-.79.39L94.74,79.87,65.57,50.58a1.72,1.72,0,0,0-1.87-.37c-3.06,1.28-11.92,5.13-16,8.14a1,1,0,0,0-.37,1c.64,3.54,7.44,29.82,10,44.78,2.83,16.42,1.37,33.14,1.42,42a96,96,0,0,1-1,13.93h72.35s-.4-6.49-.84-12.32a248.86,248.86,0,0,1,.76-43.59c1.75-14.92,8-41.08,8.9-44.48a1,1,0,0,0-.39-1c-4.53-3.26-15.46-7.42-18.52-8.65a.94.94,0,0,0-.37-.07Z"/></svg>