<svg id="图层_1" data-name="图层 1" xmlns="http://www.w3.org/2000/svg" viewBox="0 0 186 186"><defs><style>.cls-1{fill:#fff;}.cls-2{fill:#f3e1e7;}.cls-3{fill:#9b9692;}.cls-4{fill:#f2f2f2;}</style></defs><path class="cls-1" d="M145.71,12.65c3.38.95,8.86,1.64,8.39,11.53s-1.27,27.75-1.16,30,.74,15.78,1.12,18,2.5,7.08,2.53,10.39-1.64,7-3.36,8-3.61.28-2.41-1,3-3.35,2.84-4.75a3.79,3.79,0,0,0-1.48-2.31,26.5,26.5,0,0,1-1.45,4.58c-.63,1.05-1.77,1.52-1.6-.68s.45-7.82.7-11.11S147.27,58,147,54.66s.35-22.86,0-25.09S141.63,11.51,145.71,12.65Z"/><path class="cls-1" d="M126.23,3.69s1.37,4.4-1.38,6.32-7.42,2.47-7.42,2.47.18,8.86-.94,12.48-.57,12.68-.57,14.33.27,13.75-.83,16.5S111.25,66,111.25,69.26V85.21h40.14s1.65-12.92.82-17.32-5.77-13.75-5.77-17.6,1.79-20.68,1.3-22-2.81-9.73-2.13-15.64c0,0-6.87-.82-8-2.75s-1.37-6-1.37-6Z"/><path class="cls-1" d="M113.59,17.51c-.07-.82.79-3.41,0-3.17-2.9.91-8.92,3.72-8.72,11.25.27,9.9.68,27.78.48,30s-1.37,15.79-1.9,18-3.21,7.08-3.34,10.39,1.74,7.06,3.79,8,4.32.29,2.92-1-3.51-3.37-3.27-4.76v0a1.28,1.28,0,0,1,2.47,0,11.13,11.13,0,0,0,1,2.37c.73,1,2.08,1.52,1.95-.67s-.31-7.83-.5-11.13,3.59-17.29,4.05-20.62.15-22.9.81-25.12C114.24,27.93,114.44,27.58,113.59,17.51Z"/><path class="cls-2" d="M111.25,85.21s3.29,20.58,3.84,24.54a100.68,100.68,0,0,1,1.1,18.73c-.27,9-.55,16.89.55,20.85a50.59,50.59,0,0,1,1.65,12.93c0,4.22.55,8.18,0,10s-3.57,4.22-3,6.59,9.9,3.7,10.72.79.83-9.5.83-10.81-1.38-6.6-1.1-10.3S127.47,148,127.74,143s-1.1-12.14-.82-13.73,1.65-3.16,1.65-7.12.27-16.62.55-23.75.55-13.19.55-13.19Z"/><path class="cls-2" d="M151.39,85.21s-3.3,20.58-3.85,24.54a100.68,100.68,0,0,0-1.1,18.73c.27,9,.55,16.89-.55,20.85a50.59,50.59,0,0,0-1.65,12.93c0,4.22-.55,8.18,0,10s3.57,4.22,3,6.59-9.9,3.7-10.72.79-.82-9.5-.82-10.81,1.37-6.6,1.1-10.3S135.17,148,134.89,143s1.1-12.14.83-13.73-1.65-3.16-1.65-7.12-.28-16.62-.55-23.75S133,85.21,133,85.21Z"/><path class="cls-3" d="M151.59,91.39a1.63,1.63,0,0,1-1.32-.51c-.13-.16-.49-.76.28-1.58s2.9-3.12,2.74-4.45a3.12,3.12,0,0,0-.89-1.68,21.1,21.1,0,0,1-1.35,4.09c-.36.6-1,1.22-1.62,1s-.76-.81-.67-1.92.17-2.67.28-4.52c.13-2.26.28-4.78.42-6.59.15-2-.93-8.52-1.81-13.72-.5-3-.94-5.62-1.05-6.84-.14-1.61-.07-6.78,0-12.25.08-5.74.16-11.68,0-12.81-.07-.4-.3-1.28-.58-2.39-1.61-6.26-3.19-13.07-1.58-14.65a1.34,1.34,0,0,1,1.4-.29l.73.19c3.34.88,8.38,2.2,7.93,11.7C154,34.29,153.2,52,153.31,54.13l0,.67c.49,10.11.86,15.93,1.09,17.29a27.52,27.52,0,0,0,.9,3.19A28,28,0,0,1,157,82.54c0,3.37-1.63,7.27-3.55,8.35A3.88,3.88,0,0,1,151.59,91.39Zm.59-9.28a.44.44,0,0,1,.22.07A4.25,4.25,0,0,1,154,84.76c.18,1.48-1.47,3.48-2.94,5-.09.1-.38.43-.24.61s1.21.37,2.19-.18c1.49-.84,3.2-4.38,3.18-7.69a27.77,27.77,0,0,0-1.6-7,27.43,27.43,0,0,1-.92-3.3c-.36-2.09-.92-13.59-1.1-17.37l0-.68c-.13-2.7,1-27.21,1.15-30,.43-8.9-4.08-10.08-7.37-10.95l-.74-.2h0c-.4-.11-.57,0-.67.11-1.45,1.41.8,10.19,1.77,13.93.3,1.18.52,2,.59,2.45.21,1.2.13,6.91,0,13-.08,5.21-.15,10.6,0,12.18.11,1.19.55,3.78,1,6.78.88,5.23,2,11.75,1.81,13.9-.14,1.8-.28,4.31-.42,6.57-.11,1.86-.21,3.55-.28,4.54s.15,1.15.15,1.16.44-.16.76-.71a25.71,25.71,0,0,0,1.41-4.47.36.36,0,0,1,.23-.26A.31.31,0,0,1,152.18,82.11Z"/><path class="cls-3" d="M151.39,85.58H111.24a.38.38,0,0,1-.37-.37V69.26c0-3.81,3.48-12.62,3.88-13.61,1-2.37.84-12.2.8-15.43v-.93c0-.28,0-.78,0-1.43-.1-3.23-.32-10,.62-13,1.1-3.52.93-12.27.93-12.36a.36.36,0,0,1,.33-.37s4.61-.57,7.25-2.42c2.49-1.74,1.25-5.86,1.23-5.9a.41.41,0,0,1,.06-.34.37.37,0,0,1,.3-.15l10,.14a.39.39,0,0,1,.37.35s.28,4.06,1.32,5.89c.83,1.44,5.84,2.34,7.7,2.56a.37.37,0,0,1,.32.41c-.68,5.9,1.66,14.2,2.11,15.48.29.8-.05,5.27-.63,12.55-.34,4.11-.65,8-.65,9.6,0,2.09,1.55,6,3.05,9.7a50.43,50.43,0,0,1,2.72,7.83c.82,4.4-.76,16.91-.82,17.44A.38.38,0,0,1,151.39,85.58Zm-39.77-.74h39.44c.25-2,1.52-13,.79-16.88a51,51,0,0,0-2.68-7.69c-1.53-3.81-3.1-7.74-3.1-10,0-1.63.31-5.53.64-9.66.42-5.14.94-11.54.68-12.24-.45-1.28-2.75-9.43-2.18-15.45-1.56-.21-6.85-1-7.89-2.88-1-1.67-1.31-4.82-1.4-5.87l-9.21-.12c.29,1.25.76,4.56-1.64,6.25s-6.13,2.32-7.26,2.49c0,1.67,0,9-1,12.26-.91,2.93-.7,9.57-.6,12.77,0,.66,0,1.17,0,1.45s0,.5,0,.92c.06,5.67,0,13.47-.86,15.72-1.42,3.55-3.82,10.35-3.82,13.33Z"/><path class="cls-4" d="M115.8,181.68q-2.25-.13-4.5-.24c-13-.58-26.15,1.14-39.22.84q-17-.37-33.88-2c-5.49-.52-19.7.4-22.94-5.35-3.89-6.92,9.09-12.29,13.61-14.08,7.87-3.11,15.54-5.87,22.87-10.21,17.31-10.25,32-25.26,41.17-43.24a405.27,405.27,0,0,0,17.21-37.78c1.47-3.83,3.71-8.43,3.71-12.62,0-10.64-1-38.67-1-41.4a.52.52,0,0,1,.07-.32c1.11-1.82,4.91-2.52,6.14-2.84,2.53-.66,4.64-1.07,6.75.79a11.86,11.86,0,0,0,1.9,1.56c2.52,1.47,6.68,1.15,9.25-.06,1.28-.6,1.86-1.59,3.05-2.3,1.58-.94,1.64-1,3.12-.51l1.62.55,2.9,1a3.66,3.66,0,0,1,2,1.49c1.23,2.32.79,4.19.75,6.72-.18,12.57-1.1,25.2.57,37.72.9,6.66,3.07,13.37,4.58,20,3.57,15.55,7,31.15,9.92,46.82,1.89,10,3.69,20,4.77,30.14.54,5,3,13.31-1.05,17.49a10.56,10.56,0,0,1-4.61,2.42C148.63,181.39,132.43,182.65,115.8,181.68Z"/><path class="cls-3" d="M75.18,183.31q-1.58,0-3.12,0c-11.29-.26-22.71-.93-33.95-2-1.06-.1-2.45-.15-4.06-.2-7.08-.23-16.78-.55-19.65-5.66a5.88,5.88,0,0,1-.5-5c1.3-3.66,6.08-7.07,14.6-10.44l3.18-1.25c6.83-2.66,13.28-5.18,19.56-8.9C68.78,139.42,83.26,124.21,92,107a394.81,394.81,0,0,0,17.16-37.69c.27-.69.56-1.41.86-2.14,1.3-3.22,2.78-6.87,2.78-10.12,0-6.76-.39-20.43-.68-30.41-.17-5.8-.29-10-.28-11a1.5,1.5,0,0,1,.21-.83c1.2-2,4.47-2.74,6.23-3.16l.51-.12c2.24-.59,5-1.31,7.65,1l.44.39a7.83,7.83,0,0,0,1.31,1c2.24,1.3,6.06,1,8.32-.1A5.89,5.89,0,0,0,138,12.78a8.81,8.81,0,0,1,1.5-1.18c1.79-1.07,2.15-1.18,3.94-.6l1.64.55,1.29.44,1.6.56a4.69,4.69,0,0,1,2.55,2,10,10,0,0,1,.92,5.73c0,.47,0,.95-.06,1.46,0,2.79-.11,5.58-.19,8.37-.26,9.6-.53,19.54.76,29.2a112.89,112.89,0,0,0,2.9,13.25c.57,2.17,1.15,4.43,1.66,6.63,4.17,18.19,7.32,33.08,9.93,46.87,1.73,9.13,3.66,19.75,4.78,30.21.1.92.27,2,.45,3.11.81,5.09,1.82,11.44-1.77,15.18a11.6,11.6,0,0,1-5,2.68c-14.76,4.74-30.83,6.53-49.14,5.46h0l-4.48-.24c-6.9-.3-14,0-20.82.38C85.44,183.06,80.29,183.31,75.18,183.31ZM113.85,15.7c0,1.19.13,5.47.28,10.85.29,10,.69,23.68.69,30.47,0,3.63-1.56,7.47-2.94,10.86L111,70A396.08,396.08,0,0,1,93.8,107.87c-8.93,17.57-23.69,33.07-41.55,43.64-6.42,3.8-12.94,6.35-19.85,9l-3.17,1.25c-7.85,3.1-12.38,6.21-13.46,9.26a3.93,3.93,0,0,0,.36,3.4c2.33,4.13,11.75,4.44,18,4.64,1.65.06,3.07.1,4.18.21,11.2,1.06,22.57,1.73,33.81,2,6.06.14,12.26-.17,18.24-.46,6.89-.34,14-.69,21-.38l4.51.24c18,1.05,33.89-.7,48.41-5.37a9.91,9.91,0,0,0,4.21-2.16c2.9-3,2-8.84,1.24-13.5-.19-1.15-.36-2.24-.46-3.21-1.11-10.38-3-21-4.76-30-2.6-13.76-5.75-28.63-9.91-46.79-.5-2.18-1.09-4.42-1.65-6.58A111.77,111.77,0,0,1,150,59.55c-1.31-9.83-1-19.84-.77-29.53.07-2.78.15-5.56.19-8.34q0-.8.06-1.53a8.26,8.26,0,0,0-.69-4.7,2.76,2.76,0,0,0-1.44-1l-1.62-.56-1.28-.44c-.53-.19-1.07-.37-1.61-.54-1-.34-1-.34-2.28.4a7.69,7.69,0,0,0-1.21,1,7.49,7.49,0,0,1-2,1.41c-2.74,1.28-7.23,1.73-10.17,0a9.6,9.6,0,0,1-1.66-1.31l-.4-.36c-1.71-1.52-3.35-1.23-5.84-.58l-.55.13C117.54,13.85,114.73,14.52,113.85,15.7Zm-.08.11h0Z"/><path class="cls-3" d="M85,120.58s-19.5,34.66-22.74,38.14"/><path class="cls-3" d="M62.21,159.72a1,1,0,0,1-.73-1.67c2.5-2.69,15.88-26,22.6-38a1,1,0,1,1,1.73,1c-.8,1.42-19.6,34.8-22.87,38.33A1,1,0,0,1,62.21,159.72Z"/><path class="cls-1" d="M105.36,55.58c-.2,2.22-1.37,15.79-1.9,18s-3.21,7.08-3.34,10.39,1.74,7.06,3.79,8,4.32.29,2.92-1-3.51-3.37-3.27-4.76v0a1.28,1.28,0,0,1,2.47,0,11.13,11.13,0,0,0,1,2.37c.73,1,2.08,1.52,1.95-.67s-.31-7.83-.5-11.13,3.59-17.29,4.05-20.62Z"/><path class="cls-3" d="M105.86,92.86a4.89,4.89,0,0,1-2.11-.5c-2.27-1.08-4.14-5-4-8.38.09-2.19,1.25-5,2.19-7.28a25.26,25.26,0,0,0,1.17-3.18c.32-1.35.93-7.14,1.82-17.22l.07-.75c.19-2.16-.21-19.85-.48-29.95-.2-7.57,5.2-10.41,8.43-11.43a.52.52,0,0,1,.51.1c.42.35.33,1.38,0,3.5a11.81,11.81,0,0,0-.16,1.56h0c.63,7.43.54,8.58.44,9.92,0,.47-.07.95-.08,1.75,0,2.35-.34,21.81-.81,25.17-.17,1.22-.77,3.83-1.47,6.84-1.21,5.2-2.71,11.67-2.58,13.71.11,1.81.21,4.36.3,6.6.07,1.85.14,3.54.2,4.53.08,1.33-.37,1.76-.75,1.9-.66.22-1.42-.34-1.88-1a11.11,11.11,0,0,1-1-2.47.91.91,0,0,0-1-.65.81.81,0,0,0-.78.67c-.24,1.33,2.31,3.68,3.14,4.45s.55,1.29.41,1.5A1.93,1.93,0,0,1,105.86,92.86ZM113,14.94c-3,1-7.91,3.7-7.72,10.64.07,2.79.71,27.33.47,30l-.06.75c-.34,3.77-1.35,15.24-1.84,17.32A26.93,26.93,0,0,1,102.62,77c-.92,2.22-2.05,5-2.13,7-.14,3.35,1.78,6.82,3.58,7.68,1.33.64,2.59.45,2.8.14.08-.12-.1-.35-.29-.53-1.72-1.58-3.65-3.59-3.38-5.1a1.56,1.56,0,0,1,1.48-1.31,1.65,1.65,0,0,1,1.71,1.16,9.41,9.41,0,0,0,.93,2.28c.35.5.81.78,1,.71s.29-.43.25-1.15c-.06-1-.13-2.68-.2-4.54-.1-2.24-.2-4.78-.31-6.58-.13-2.16,1.39-8.68,2.6-13.93.7-3,1.3-5.58,1.47-6.77.46-3.33.79-22.73.8-25.07,0-.82,0-1.32.08-1.8.1-1.31.18-2.44-.44-9.81h0a9.67,9.67,0,0,1,.16-1.72A16.14,16.14,0,0,0,113,14.94Z"/><path class="cls-3" d="M114.83,58h-2c0-6.9-.39-20.86-.68-31.06-.17-5.92-.29-10.2-.28-11.23a1.53,1.53,0,0,1,.21-.84c1.19-2,4.47-2.8,6.23-3.22l.51-.13.52,1.94-.56.13c-1.22.3-4,1-4.91,2.2,0,1.21.13,5.59.28,11.09C114.43,37.08,114.83,51.07,114.83,58Zm-1-42.1Z"/></svg>