<svg id="图层_1" data-name="图层 1" xmlns="http://www.w3.org/2000/svg" viewBox="0 0 186 186"><defs><style>.cls-1{fill:#fff;}.cls-2{fill:#f3e1e7;}.cls-3{fill:#9b9692;}.cls-4{fill:#5b3b2f;}.cls-5{fill:#f2f2f2;}</style></defs><path class="cls-1" d="M120.71,12.55c3.33.93,8.75,1.62,8.29,11.39s-1.26,27.44-1.15,29.63.73,15.59,1.11,17.8,2.47,7,2.5,10.28-1.62,7-3.33,7.92-3.56.28-2.37-1,3-3.32,2.8-4.7a3.75,3.75,0,0,0-1.46-2.29,26.43,26.43,0,0,1-1.43,4.53c-.62,1-1.75,1.5-1.59-.67s.45-7.73.7-11S122.25,57.37,122,54.08s.34-22.6,0-24.81S116.67,11.42,120.71,12.55Z"/><path class="cls-1" d="M101.45,3.69S102.8,8,100.09,9.94s-7.34,2.44-7.34,2.44.18,8.76-.93,12.33-.57,12.55-.57,14.18.27,13.59-.81,16.31-3.81,10-3.81,13.32V84.28h39.69s1.63-12.77.81-17.12-5.71-13.59-5.71-17.4,1.77-20.45,1.3-21.78-2.79-9.62-2.11-15.46c0,0-6.8-.81-7.88-2.72s-1.36-6-1.36-6Z"/><path class="cls-1" d="M89,17.35c-.07-.81.78-3.37,0-3.13-2.87.9-8.82,3.68-8.62,11.12.26,9.79.67,27.46.48,29.65S79.46,70.6,78.94,72.81s-3.18,7-3.31,10.27,1.73,7,3.75,7.94,4.27.29,2.89-1S78.79,86.7,79,85.33v0a1.27,1.27,0,0,1,2.44,0,10.31,10.31,0,0,0,1,2.34c.71,1.05,2,1.51,1.92-.66s-.3-7.74-.5-11,3.56-17.09,4-20.39.14-22.64.8-24.83C89.6,27.65,89.79,27.31,89,17.35Z"/><path class="cls-2" d="M86.63,84.28s3.26,20.35,3.81,24.26a99.82,99.82,0,0,1,1.08,18.52c-.27,8.87-.54,16.7.55,20.61a49.92,49.92,0,0,1,1.63,12.78c0,4.18.54,8.09,0,9.92s-3.53,4.17-3,6.52,9.78,3.65,10.6.78.82-9.39.82-10.69-1.36-6.53-1.09-10.18,1.63-10.43,1.9-15.39-1.09-12-.81-13.56,1.63-3.13,1.63-7,.27-16.43.54-23.48.54-13,.54-13Z"/><path class="cls-2" d="M126.32,84.28s-3.26,20.35-3.81,24.26a100.49,100.49,0,0,0-1.09,18.52c.28,8.87.55,16.7-.54,20.61a49.92,49.92,0,0,0-1.63,12.78c0,4.18-.54,8.09,0,9.92s3.53,4.17,3,6.52-9.79,3.65-10.6.78-.82-9.39-.82-10.69,1.36-6.53,1.09-10.18-1.63-10.43-1.9-15.39,1.09-12,.81-13.56-1.63-3.13-1.63-7-.27-16.43-.54-23.48-.54-13-.54-13Z"/><path class="cls-3" d="M126.52,90.4a1.62,1.62,0,0,1-1.31-.51c-.13-.16-.49-.75.27-1.57s2.88-3.08,2.72-4.39a3.08,3.08,0,0,0-.88-1.65,21.17,21.17,0,0,1-1.33,4c-.36.59-1,1.22-1.61,1s-.75-.81-.67-1.91.17-2.64.28-4.47c.13-2.24.28-4.73.41-6.51.16-2-.92-8.43-1.78-13.58-.5-3-.93-5.54-1-6.75-.14-1.59-.07-6.7,0-12.1.08-5.68.16-11.56,0-12.68-.07-.39-.29-1.26-.57-2.36-1.6-6.18-3.16-12.92-1.56-14.49a1.34,1.34,0,0,1,1.39-.29h0l.72.2c3.3.86,8.28,2.18,7.84,11.57-.48,10-1.25,27.44-1.15,29.59l0,.69c.48,10,.84,15.73,1.07,17.07a26.34,26.34,0,0,0,.89,3.15,27.9,27.9,0,0,1,1.61,7.18c0,3.33-1.61,7.19-3.51,8.26A3.8,3.8,0,0,1,126.52,90.4Zm.58-9.18a.36.36,0,0,1,.22.07,4.1,4.1,0,0,1,1.61,2.55c.18,1.47-1.45,3.44-2.9,5-.09.1-.37.43-.24.6s1.12.41,2.16-.18c1.47-.83,3.16-4.33,3.14-7.6a27.47,27.47,0,0,0-1.58-7,27.23,27.23,0,0,1-.91-3.25c-.36-2.07-.91-13.43-1.09-17.17l0-.68c-.11-2.18.67-19.67,1.14-29.66.42-8.8-4-10-7.28-10.82l-.73-.2h0a.63.63,0,0,0-.67.1c-1.43,1.4.8,10.08,1.76,13.78.29,1.16.51,2,.58,2.42.21,1.19.13,6.83,0,12.81-.07,5.15-.15,10.47,0,12,.11,1.17.54,3.73,1,6.69.86,5.18,2,11.63,1.79,13.75-.14,1.79-.28,4.27-.41,6.5-.11,1.84-.21,3.51-.28,4.49s.14,1.14.14,1.14.43-.16.75-.69a24.18,24.18,0,0,0,1.39-4.42.39.39,0,0,1,.23-.27Z"/><path class="cls-3" d="M126.32,84.65H86.63a.37.37,0,0,1-.37-.37V68.52c0-3.77,3.44-12.48,3.83-13.46.94-2.35.83-12.07.8-15.26,0-.42,0-.73,0-.91s0-.77,0-1.42c-.1-3.19-.31-9.85.62-12.87,1.08-3.47.92-12.12.91-12.21A.37.37,0,0,1,92.7,12s4.56-.56,7.17-2.39c2.46-1.72,1.23-5.79,1.22-5.83a.41.41,0,0,1,.06-.34.3.3,0,0,1,.3-.15l9.92.14a.37.37,0,0,1,.37.35s.28,4,1.31,5.82c.81,1.42,5.76,2.31,7.6,2.53a.38.38,0,0,1,.33.41c-.68,5.83,1.63,14,2.09,15.3.28.79,0,5.21-.64,12.41-.32,4.07-.63,7.9-.63,9.49,0,2.07,1.53,5.89,3,9.59a50,50,0,0,1,2.69,7.74c.82,4.35-.75,16.71-.81,17.24A.38.38,0,0,1,126.32,84.65ZM87,83.91h39c.24-2,1.5-12.83.78-16.68a49.79,49.79,0,0,0-2.65-7.6c-1.51-3.77-3.07-7.66-3.07-9.87,0-1.62.31-5.47.64-9.55.41-5.08.92-11.41.67-12.1-.45-1.27-2.72-9.33-2.16-15.27-1.54-.21-6.76-1-7.8-2.85-.94-1.65-1.28-4.76-1.38-5.8l-9.09-.12c.28,1.24.75,4.51-1.63,6.17s-6,2.3-7.18,2.47c0,1.66.06,8.88-1,12.11-.9,2.9-.68,9.47-.58,12.63,0,.65,0,1.15,0,1.44s0,.49,0,.9c.06,5.61,0,13.32-.85,15.54C89.38,58.84,87,65.57,87,68.52Z"/><path class="cls-4" d="M51,173a1,1,0,0,1-.78-.37,1,1,0,0,1,.15-1.39c5-4,8.89-17.64,8.93-17.78a1,1,0,0,1,1.91.54c-.17.59-4.16,14.43-9.59,18.79A1.05,1.05,0,0,1,51,173Z"/><path class="cls-5" d="M123.57,54.4c6.74,11.33,11.64,24,16.79,36.12q8.22,19.28,14.6,39.28a196.33,196.33,0,0,1,5.83,21.71c2,9.84,4.22,23-7.64,27.35-3.51,1.3-7.32,1.49-11.06,1.55-4.55.07-9,.42-13.54.92-8.86,1-35.43,1-43.3,1s-13.78-1-18.7-1c-12.67,0-25.13,1-37.82.53a6.74,6.74,0,0,1-3.09-.59,4.28,4.28,0,0,1-2-4.1c.21-2.61,2.24-5,4.36-6.41,4.67-3,10.05-4.64,15.37-6.13,4.92-1.38,10.57-2.2,14.3-5.93,4.92-4.92,31.49-92.28,31.49-101.32,0-10.74-1-39.05-1-41.81a.63.63,0,0,1,.06-.33c1.1-1.83,4.86-2.54,6.08-2.86,2.5-.67,4.58-1.09,6.67.8a12.23,12.23,0,0,0,1.88,1.57c2.49,1.48,6.61,1.16,9.14-.06,1.27-.61,1.84-1.6,3-2.32,1.56-1,1.62-1,3.08-.51.54.17,1.08.36,1.61.54l2.86,1a3.57,3.57,0,0,1,2,1.51c1.22,2.33.78,4.23.74,6.78q-.06,4.37-.27,8.75c-.16,3.16-.36,6.32-.54,9.49C124.53,40,123.08,53.58,123.57,54.4Z"/><path class="cls-3" d="M85.25,183.31c-4.44,0-8.25-.31-11.6-.58-2.67-.22-5-.4-7.1-.4-5.15,0-10.35.16-15.38.32-7.34.23-14.92.47-22.48.2a7.67,7.67,0,0,1-3.53-.71,5.27,5.27,0,0,1-2.49-5c.25-3.14,2.65-5.76,4.81-7.17,4.67-3,9.85-4.62,15.65-6.25.89-.25,1.8-.48,2.72-.71,4.07-1,8.27-2.1,11.14-5,4.37-4.38,31.2-90.89,31.2-100.62,0-6.82-.39-20.62-.68-30.7-.16-5.86-.28-10.1-.27-11.12a1.57,1.57,0,0,1,.2-.83c1.19-2,4.43-2.76,6.17-3.19l.5-.12c2.22-.59,5-1.33,7.59,1l.42.39a7.89,7.89,0,0,0,1.31,1.07c2.2,1.31,6,1,8.2-.1a5.59,5.59,0,0,0,1.44-1.09,9.7,9.7,0,0,1,1.49-1.19c1.78-1.08,2.14-1.2,3.92-.61l1.62.56,1.32.46,1.54.55a4.58,4.58,0,0,1,2.52,2,10.24,10.24,0,0,1,.91,5.78c0,.47,0,1-.06,1.47,0,3-.13,6-.27,8.79-.11,2.13-.23,4.25-.36,6.38L125.52,40c-.65,6.1-1.2,12.87-1,14,5.6,9.42,10,19.82,14.16,29.88.88,2.09,1.75,4.18,2.63,6.25,5.47,12.84,10.39,26.08,14.63,39.37a202,202,0,0,1,5.87,21.82c1.75,8.86,4.68,23.7-8.28,28.48a34.43,34.43,0,0,1-11.38,1.6c-4.09.07-8.49.37-13.45.92C122.75,183,108.14,183.31,85.25,183.31Zm-18.7-3c2.21,0,4.55.19,7.26.41,3.32.27,7.08.58,11.44.58,22.82,0,37.35-.33,43.19-1,5-.56,9.48-.86,13.64-.93,3.55-.06,7.3-.22,10.72-1.49,10.5-3.86,9.22-15.07,7-26.23A201.74,201.74,0,0,0,154,130.1c-4.22-13.22-9.12-26.41-14.56-39.19l-2.64-6.26c-4.2-10-8.54-20.41-14.1-29.74h0c-.18-.3-.65-1.1.84-15.07l.17-3.07q.19-3.18.36-6.36c.14-2.78.23-5.72.27-8.72,0-.54,0-1.05.06-1.54a8.45,8.45,0,0,0-.69-4.76,2.7,2.7,0,0,0-1.41-1l-1.56-.55-1.31-.46-1.59-.54c-1-.34-1-.34-2.23.4a7,7,0,0,0-1.19,1,7.87,7.87,0,0,1-1.94,1.43c-2.71,1.3-7.17,1.75-10.08,0a9.47,9.47,0,0,1-1.64-1.32l-.4-.37c-1.68-1.52-3.29-1.23-5.75-.57l-.54.13c-1.21.3-4,1-4.86,2.17,0,1.2.12,5.53.28,11,.28,10.09.67,23.91.67,30.76,0,8.06-26,96.27-31.78,102-3.25,3.25-7.72,4.39-12,5.48-.91.23-1.8.46-2.68.7-5.64,1.58-10.66,3.12-15.1,6-1.68,1.09-3.72,3.24-3.91,5.66a3.3,3.3,0,0,0,1.46,3.15,6.25,6.25,0,0,0,2.65.47c7.49.26,15,0,22.34-.21C56.15,180.51,61.37,180.34,66.55,180.34ZM89.15,15.75h0Z"/><path class="cls-1" d="M63,146.87s-7.67,19.63-9.15,21.72"/><path class="cls-3" d="M53.81,169.58A1,1,0,0,1,53,168c1-1.45,6-13.66,9-21.51a1,1,0,1,1,1.85.73c-.79,2-7.76,19.81-9.26,21.93A1,1,0,0,1,53.81,169.58Z"/><path class="cls-1" d="M78.94,72.81c-.52,2.21-3.18,7-3.31,10.27s1.73,7,3.75,7.94,4.27.29,2.89-1S78.79,86.7,79,85.33v0a1.27,1.27,0,0,1,2.44,0,10.31,10.31,0,0,0,1,2.34c.71,1.05,2,1.51,1.92-.66s-.3-7.74-.5-11Z"/><path class="cls-3" d="M81.31,91.85a4.94,4.94,0,0,1-2.09-.49c-2.25-1.07-4.1-5-4-8.29.08-2.16,1.23-5,2.16-7.2a25.86,25.86,0,0,0,1.16-3.15c.31-1.34.92-7.08,1.8-17.07l.06-.69c.2-2.16-.2-19.63-.47-29.61-.21-7.77,5.73-10.62,8.46-11.48A.54.54,0,0,1,89,14c.37.32.27,1,.06,2.15a6.86,6.86,0,0,0-.15,1.2h0c.83,9.79.65,10.39-.22,13.26l-.06.22c-.35,1.15,0,7.74-.06,13.55-.06,5-.11,9.72-.32,11.22-.16,1.21-.76,3.79-1.45,6.77-1.19,5.14-2.68,11.53-2.56,13.55.11,1.8.22,4.33.31,6.56.07,1.82.13,3.47.19,4.44.08,1.32-.36,1.75-.74,1.88-.66.23-1.41-.33-1.86-1a10.55,10.55,0,0,1-1-2.44.93.93,0,0,0-.95-.63.78.78,0,0,0-.77.65c-.24,1.32,2.28,3.64,3.11,4.4s.54,1.28.4,1.49A1.91,1.91,0,0,1,81.31,91.85ZM88.5,14.63c-3.22,1-8,3.81-7.79,10.7.27,10,.67,27.5.48,29.7l-.07.69c-.33,3.73-1.33,15.1-1.82,17.17a23.89,23.89,0,0,1-1.2,3.26c-.9,2.19-2,4.92-2.1,6.94-.13,3.32,1.76,6.75,3.54,7.6,1.32.63,2.55.44,2.76.14.08-.12-.1-.36-.29-.52-1.69-1.57-3.61-3.55-3.34-5A1.54,1.54,0,0,1,80.14,84a1.65,1.65,0,0,1,1.7,1.15,9.27,9.27,0,0,0,.91,2.25c.35.5.81.78,1,.71s.3-.33.25-1.14c-.06-1-.13-2.63-.2-4.45-.09-2.23-.19-4.75-.3-6.55-.13-2.12,1.31-8.3,2.57-13.76.69-3,1.28-5.52,1.45-6.7.2-1.46.25-6.16.3-11.13.07-6.43-.28-12.5.1-13.75l.06-.22c.85-2.83,1-3.34.19-13A6.14,6.14,0,0,1,88.33,16,9.33,9.33,0,0,0,88.5,14.63Z"/><path class="cls-3" d="M90.17,57.38h-2c0-6.82-.39-20.62-.68-30.7-.16-5.86-.28-10.1-.27-11.12a1.57,1.57,0,0,1,.2-.83c1.19-2,4.43-2.76,6.17-3.19l.5-.12.51,1.92-.54.13c-1.21.3-4,1-4.86,2.17,0,1.2.12,5.53.28,11C89.78,36.71,90.17,50.53,90.17,57.38Zm-1-41.63h0Z"/></svg>