<svg id="图层_1" data-name="图层 1" xmlns="http://www.w3.org/2000/svg" viewBox="0 0 186 186"><defs><style>.cls-1{fill:#fff;}.cls-2{fill:#9b9692;}.cls-3{fill:#f2f2f2;}</style></defs><path class="cls-1" d="M125.9,52.1c-.19-1.94,1.95-3.91,1.06-7.23-1.67-6.2-2.77-17-4.51-20.57a30.56,30.56,0,0,0-4.61-6.79c-1.06-1.3-3.54,4.53-4.44,9.75,0,0,1.07,6.43,1.75,8.7s4.22,7.49,4.88,9.53Z"/><path class="cls-1" d="M113.08,36.25s-3.44,17-3.46,18.08-3.69,43.74-2.82,52.83a96.57,96.57,0,0,0,4,21.07c1.71,5.22,3.71,9.14,4.59,17.71s1.55,13.77,4.84,17.72,9,8.35,9,11.2-7,5.73-9.53,2.79c-6.58-7.53-8.91-10-11.65-14-1-1.51.63-6.21.65-7.25a19.9,19.9,0,0,0-3-7.57C104,146.24,100,137.1,99.79,134.5s-6.05-8.67-5.66-15.66S95,74,95,74s-10.13,41.54-10.45,44.64-2,12.15-1.83,14.74-1,10.61-1.83,14-2.27,10.58-2.34,14.21.84,10.38-.26,13.21,1.13,8.84-4.55,7.69-7.21-2.47-5.27-8.91,2.08-14,2.14-17.07-1.09-24.13.57-30.06S76.79,77,76.36,72.36s1.78-25.63,1.8-26.67,3.79-8.22,4.1-11.06,2.59-6.37,2.9-9.22-2-7.62,1.6-8.84,8.85-1.91,9.13-3.2A27.21,27.21,0,0,0,96,8.71L95.81,4l13.1-.66s-.38,6.22,2.17,8.86,6.33,3.83,8.44,6Z"/><path class="cls-1" d="M74.34,51.14s5.38-18.88,6.16-24.58,4.07-9.69,4.35-9.65c11.72,2-4.37,31.82-8.8,40.08S74.08,52.18,74.34,51.14Z"/><path class="cls-2" d="M120,45.86a.38.38,0,0,1-.36-.25,31,31,0,0,0-2.24-4.34,33.48,33.48,0,0,1-2.64-5.2c-.68-2.27-1.72-8.49-1.76-8.75a.28.28,0,0,1,0-.13c.69-4,2.65-9.79,4.26-10.21a.79.79,0,0,1,.84.29c.14.18.31.37.48.58a28.53,28.53,0,0,1,4.17,6.29c1,2.12,1.82,6.58,2.65,11.31.59,3.31,1.19,6.74,1.89,9.33a.37.37,0,0,1-.26.45.36.36,0,0,1-.46-.26c-.71-2.62-1.31-6.06-1.9-9.39-.82-4.67-1.6-9.09-2.59-11.11A27.25,27.25,0,0,0,118,18.33l-.48-.59c-.67-.12-2.84,4.21-3.77,9.52.11.67,1.1,6.49,1.73,8.59a33,33,0,0,0,2.57,5,31.05,31.05,0,0,1,2.3,4.48.37.37,0,0,1-.24.47Z"/><path class="cls-2" d="M75,183a7,7,0,0,1-1.36-.15c-2.92-.59-4.92-1.26-5.82-2.77-.81-1.35-.73-3.33.26-6.62,1.92-6.39,2.06-13.79,2.13-17,0-.69,0-2.31-.1-4.37-.22-7.38-.63-21.12.69-25.79,1.69-6,5.58-49.42,5.17-53.94-.34-3.63,3.14-15.87,3.73-22.26.18-1.84.3-3.16.3-3.39A17.63,17.63,0,0,1,81.45,43c1.11-2.55,2.5-5.73,2.67-7.36a19.1,19.1,0,0,1,1.48-4.7A18.93,18.93,0,0,0,87,26.43c.09-.82-2.29-2.88-2.44-3.94-.37-2.49-.78-5.32,2.06-6.28,1.24-.41,2.64-.76,4-1.1,2.11-.53,4.75-1.19,4.89-1.82a26.81,26.81,0,0,0,.08-4.56l-.19-5L109.31,3l0,.42c0,.06-.34,6.08,2.06,8.57a20.07,20.07,0,0,0,4.52,3.24A18.11,18.11,0,0,1,119.79,18l.16.17-6.51,18.19c-1.38,6.84-3.43,17.26-3.44,18,0,.17-.09,1.22-.27,3.58-.81,10.3-3.28,41.64-2.56,49.2a96.85,96.85,0,0,0,4,21c.36,1.1.74,2.14,1.11,3.18a54.92,54.92,0,0,1,3.5,14.62c.87,8.59,1.52,13.64,4.76,17.51,1,1.26,2.36,2.58,3.64,3.86,2.82,2.82,5.48,5.49,5.44,7.58,0,1.69-2,3.16-3.92,3.86s-4.74.92-6.26-.82c-1.18-1.36-2.23-2.55-3.17-3.62a107.29,107.29,0,0,1-8.51-10.38c-.84-1.21-.19-3.93.28-5.91a10.7,10.7,0,0,0,.31-1.55,19.75,19.75,0,0,0-2.9-7.36c-1.73-2.57-5.79-11.82-6-14.55a12.58,12.58,0,0,0-1.73-3.74c-1.77-3.09-4.19-7.32-3.93-12,.32-5.69.69-32.15.81-41.52-2.38,9.81-9.39,38.85-9.66,41.39-.1,1.07-.37,2.79-.68,4.79-.58,3.66-1.29,8.22-1.15,9.88.21,2.65-1,10.72-1.83,14.09-.78,3.1-2.27,10.43-2.34,14.13,0,1.12,0,2.55.13,4.07.17,3.4.37,7.25-.41,9.27a9.69,9.69,0,0,0-.36,3c0,1.77-.11,3.59-1.29,4.53A3.09,3.09,0,0,1,75,183ZM96.2,4.4l.15,4.3a26.21,26.21,0,0,1-.09,4.75c-.23,1-2.12,1.56-5.44,2.38-1.34.34-2.73.68-3.94,1.09-2.25.76-1.92,3-1.56,5.47.16,1.11,2.55,3.21,2.45,4.12a19.31,19.31,0,0,1-1.48,4.71,18.72,18.72,0,0,0-1.42,4.5c-.2,1.75-1.6,5-2.74,7.58a24.69,24.69,0,0,0-1.36,3.46c0,.24-.1,1.28-.3,3.44-.6,6.36-4.07,18.56-3.74,22.12.42,4.55-3.49,48.16-5.2,54.21-1.28,4.56-.87,18.23-.65,25.57.06,2.15.11,3.7.09,4.4-.06,3.2-.2,10.68-2.15,17.17-.93,3.07-1,4.87-.34,6s2.6,1.87,5.32,2.42a3.27,3.27,0,0,0,2.71-.3c.91-.72,1-2.37,1-4a10,10,0,0,1,.42-3.2c.72-1.87.53-5.64.35-9-.07-1.54-.15-3-.13-4.13.08-3.75,1.57-11.16,2.36-14.29.83-3.33,2-11.27,1.81-13.85-.14-1.75.55-6.16,1.16-10.06.31-2,.57-3.69.68-4.74.32-3.1,10-43,10.46-44.7l.77-3.18,0,3.28c0,.37-.47,37.92-.86,44.84-.25,4.43,2.11,8.55,3.83,11.56a12.3,12.3,0,0,1,1.83,4.05c.2,2.42,4.08,11.5,5.89,14.19a19.87,19.87,0,0,1,3,7.79,11.24,11.24,0,0,1-.34,1.72c-.38,1.63-1,4.37-.39,5.31a108.58,108.58,0,0,0,8.46,10.31L120,177.4c1.28,1.46,3.73,1.25,5.44.62,2-.71,3.41-2.05,3.43-3.17,0-1.78-2.64-4.45-5.22-7-1.29-1.29-2.62-2.63-3.69-3.91-3.36-4-4.06-9.44-4.93-17.92a53.67,53.67,0,0,0-3.45-14.44c-.38-1-.75-2.09-1.12-3.19a98,98,0,0,1-4-21.16c-.73-7.62,1.74-39,2.55-49.33.15-2,.27-3.38.27-3.54,0-1,3.11-16.39,3.46-18.14l0,0,6.35-17.78a18.25,18.25,0,0,0-3.59-2.48,21,21,0,0,1-4.68-3.37c-2.27-2.36-2.32-7.25-2.29-8.72Z"/><path class="cls-2" d="M73.93,60.09A.59.59,0,0,1,73.7,60c-1.57-.61.26-8.91.28-9h0c0-.19,5.38-18.93,6.15-24.54.74-5.42,3.71-9.33,4.4-9.84a.49.49,0,0,1,.38-.11,4.8,4.8,0,0,1,3.75,2.69c3.87,7.87-8.25,30.42-12.23,37.84l-.05.09C75.29,59.2,74.55,60.09,73.93,60.09Zm.77-8.86c-.44,1.76-1.3,7.59-.71,8.12,0,0,.45-.16,1.73-2.54l0-.09C86.33,37.06,90.44,24.56,88,19.57a4,4,0,0,0-3.08-2.26,18.39,18.39,0,0,0-4,9.3C80.1,32.25,74.94,50.38,74.7,51.23Z"/><path class="cls-3" d="M115.94,50.41a5.74,5.74,0,0,1-.45-3.16l4.7-28.83a1.14,1.14,0,0,0-.71-1.27l-5.77-2.27a1.14,1.14,0,0,0-1.11.15c-1.38,1.06-5.41,3.85-9.38,3.76-4.41-.11-8.71-3.59-9.51-4.47a.51.51,0,0,0-.35-.15l-6.42,1.55a2.4,2.4,0,0,0-2,2.38c.32,5.35-2.22,18.69-4.83,26.89a20.76,20.76,0,0,1-2.83,5.67c-7,9.91-33.7,45.6-38.37,52.93-5.4,8.49-3.57,10.56-.82,13.66,7.14,8,21.49,11.08,31.62,12.42a164.57,164.57,0,0,0,24.62,1c7.58-.14,15.09,1.11,22.71,1.12,4.55,0,7.86-2.58,12.23-3.18a23.52,23.52,0,0,1,6.19.43c3.74.48,8.44,1,11.69-1.34a7.48,7.48,0,0,0,3.22-5.89c0-4.46-3.11-9.73-5-13.78s-4-8.32-6.09-12.45c-4.78-9.5-9.7-18.94-14.62-28.37C121.72,61.67,118.32,56.18,115.94,50.41Z"/><path class="cls-2" d="M117,132.78h0c-3.64,0-7.29-.3-10.82-.57-3.89-.31-7.92-.62-11.88-.55a167.29,167.29,0,0,1-24.76-1c-15.73-2.08-26.58-6.37-32.23-12.75-3.16-3.55-4.81-6.17.72-14.86,2.82-4.43,13.7-19.21,23.29-32.25C67.66,62.18,73.65,54,76.43,50.09a19.91,19.91,0,0,0,2.69-5.4C81.88,36,84.2,23.12,83.91,18.16a3.37,3.37,0,0,1,2.85-3.41l6.49-1.58h.13a1.46,1.46,0,0,1,1.06.48c.57.63,4.63,4,8.8,4.14,3.67.05,7.63-2.69,8.75-3.55a2.13,2.13,0,0,1,2.08-.29l5.78,2.27a2.14,2.14,0,0,1,1.32,2.38l-4.7,28.81a4.81,4.81,0,0,0,.39,2.62h0a114.06,114.06,0,0,0,5.79,11.47c.94,1.71,1.92,3.49,2.84,5.24,5,9.57,9.87,19,14.62,28.39,2,4,4.1,8.2,6.1,12.47.35.74.75,1.53,1.16,2.35,1.86,3.74,4,8,3.95,11.86a8.48,8.48,0,0,1-3.64,6.7c-3.42,2.42-8,2.07-12.39,1.51l-1.23-.18a17.15,17.15,0,0,0-4.7-.25,23.54,23.54,0,0,0-5.11,1.49A20,20,0,0,1,117,132.78Zm-21.57-3.13c3.66,0,7.33.29,10.89.57s7.1.56,10.66.57a18,18,0,0,0,6.55-1.57,25,25,0,0,1,5.54-1.6,18.81,18.81,0,0,1,5.26.25l1.19.17c4,.51,8.16.85,11-1.16a6.44,6.44,0,0,0,2.8-5.09c0-3.39-2-7.41-3.75-11-.41-.83-.81-1.63-1.17-2.39-2-4.24-4.1-8.47-6.08-12.42-4.74-9.42-9.62-18.79-14.61-28.36-.9-1.73-1.87-3.5-2.82-5.2A116.69,116.69,0,0,1,115,50.8h0a6.7,6.7,0,0,1-.52-3.7l4.71-28.83a.18.18,0,0,0-.09-.19l-5.78-2.26a.14.14,0,0,0-.14,0c-1.6,1.23-5.74,4.1-10,4-4.53-.1-8.79-3.43-10-4.55l-6,1.46A1.45,1.45,0,0,0,85.89,18c.34,5.64-2.34,19.28-4.87,27.25a22.21,22.21,0,0,1-3,6c-2.79,4-8.79,12.11-15.13,20.74C53.35,85,42.5,99.75,39.71,104.12c-5,7.86-3.55,9.5-.91,12.47,5.33,6,15.76,10.08,31,12.09a164.34,164.34,0,0,0,24.47,1ZM93,15h0Z"/><path class="cls-1" d="M127.91,71.33a13.93,13.93,0,0,0,.92-3.59c.46-2.89-.85-5.45-1-6.84s.59-2.61,0-8.8c-.18-1.94.51-1.51-.89-7.23l-6.93.62c.66,2,.79,13.93.85,16.52.13,5.73.2,4.1.77,6.74.47,2.14,1.6,1.32,1.65.09.11-2.14-.51-2.94.64-3,1-.1,1.33.71,2,1.95Z"/><path class="cls-2" d="M127.91,71.71a.38.38,0,0,1-.32-.19l-2.1-3.75c-.59-1.19-.86-1.66-1.51-1.61-.41,0-.42,0-.35,1a12.47,12.47,0,0,1,.05,1.72c0,.86-.51,1.54-1.09,1.59-.35,0-1-.15-1.3-1.62-.15-.68-.26-1.08-.35-1.39-.27-.91-.34-1.15-.43-5.42l0-1.31c-.07-3.65-.24-13.36-.81-15.1a.38.38,0,0,1,.24-.47.36.36,0,0,1,.47.24c.53,1.62.73,8.65.85,15.32l0,1.3c.1,4.18.16,4.4.4,5.24.1.32.21.72.37,1.43.19.87.44,1,.5,1s.39-.32.41-.88a13.37,13.37,0,0,0,0-1.63c-.07-.89-.13-1.67,1-1.78s1.66.83,2.25,2l.07.14,1.62,2.89a17.93,17.93,0,0,0,.61-2.78,11.57,11.57,0,0,0-.59-5.06,10.63,10.63,0,0,1-.39-1.69,7.45,7.45,0,0,1,.07-1.53,32.56,32.56,0,0,0-.07-7.26,7.88,7.88,0,0,1,0-1.37c0-.89.11-1.82-.87-5.81a.37.37,0,0,1,.72-.18c1,4.1,1,5.08.89,6a7.64,7.64,0,0,0,0,1.26,32.61,32.61,0,0,1,.07,7.41,7.78,7.78,0,0,0-.07,1.38,9.58,9.58,0,0,0,.37,1.55,12.47,12.47,0,0,1,.61,5.39,14.14,14.14,0,0,1-.95,3.69.36.36,0,0,1-.32.22Z"/></svg>