<svg id="图层_1" data-name="图层 1" xmlns="http://www.w3.org/2000/svg" viewBox="0 0 186 186"><defs><style>.cls-1{fill:#fff;}.cls-2{fill:#9b9692;}.cls-3{fill:#f3e1e7;}.cls-4{fill:#f2f2f2;}</style></defs><path class="cls-1" d="M75.49,50.83a6.42,6.42,0,0,0,3.78-5.47l.22-3.5c.34-5.84.7-11.84,1.05-13,.95-3.12,2.71-5.42,2.3-16.65,0,0-8.66,1.08-8.93,10.83-.15,5.39-.38,13.19-.61,19.45a5.86,5.86,0,0,1-3,4.9c-4,2.25-8.64,4.88-9.88,5.4-2.05.87-7.2,1.69-10,3.43s-5,5.09-4.87,7,1.69,3.14,2.12,1.46,1.18-4.28,2.43-4.88a3.77,3.77,0,0,1,2.7,0,26.08,26.08,0,0,0-3,3.63c-.54,1.08-.32,2.27,1.41,1s6.24-4.53,8.84-6.48c1.69-1.28,7.87-3.9,12.77-6Z"/><path class="cls-1" d="M110.58,12.38c3.38.67,8.81.94,9.08,10.69s.82,27.33,1.09,29.5,1.89,15.43,2.43,17.59,3,6.77,3.25,10-1.08,7-2.71,8.12-3.51.54-2.43-.81,2.7-3.52,2.43-4.87a3.78,3.78,0,0,0-1.62-2.17A26.07,26.07,0,0,1,121,85.05c-.54,1.08-1.63,1.62-1.63-.55s-.13-7.71-.13-11-3.79-16.78-4.33-20-1.36-22.47-1.9-24.63S106.49,11.56,110.58,12.38Z"/><path class="cls-1" d="M91.5,3.58s1.35,4.33-1.35,6.23-7.31,2.43-7.31,2.43S83,21,81.91,24.52,81.35,37,81.35,38.63s.27,13.53-.81,16.24-3.79,10-3.79,13.26v15.7h39.52s1.62-12.72.81-17-5.69-13.53-5.69-17.32,1.76-20.36,1.29-21.69-2.78-9.57-2.1-15.39c0,0-6.76-.81-7.85-2.71s-1.35-5.95-1.35-5.95Z"/><path class="cls-2" d="M47,65.92h-.08c-.85-.09-1.6-1.26-1.68-2.61-.12-2.16,2.23-5.61,5-7.38a27.12,27.12,0,0,1,6.88-2.5,29.82,29.82,0,0,0,3.13-1c1-.41,4.37-2.27,9.84-5.38a5.48,5.48,0,0,0,2.78-4.59c.28-7.72.53-16.84.61-19.45a11.06,11.06,0,0,1,9.25-11.19.38.38,0,0,1,.29.09.35.35,0,0,1,.13.27c.34,9.4-.84,12.63-1.78,15.22-.19.52-.37,1-.53,1.55-.35,1.12-.73,7.64-1,12.88l-.21,3.5a6.79,6.79,0,0,1-4,5.79h0l-3,1.34c-4.77,2-10.7,4.56-12.32,5.78-1.44,1.08-3.46,2.55-5.27,3.87-1.47,1.06-2.8,2-3.57,2.61s-1.53.81-2,.46-.31-1.28,0-1.9a20.82,20.82,0,0,1,2.67-3.27,3,3,0,0,0-1.85.15c-1.19.57-2,3.63-2.23,4.63S47.29,65.92,47,65.92ZM82.48,12.68c-1.69.35-8,2.18-8.2,10.4-.07,2.61-.33,11.73-.6,19.45a6.23,6.23,0,0,1-3.17,5.22c-5.57,3.17-8.91,5-9.91,5.42a31.33,31.33,0,0,1-3.22,1,26.6,26.6,0,0,0-6.68,2.41c-2.81,1.76-4.79,5-4.69,6.71.06,1.09.64,1.87,1,1.9s.34-.39.38-.52c.52-2,1.29-4.47,2.63-5.11a4.14,4.14,0,0,1,3,0,.37.37,0,0,1,.13.61,26,26,0,0,0-3,3.54c-.28.56-.24.94-.18,1s.33,0,1-.49l3.58-2.62c1.81-1.31,3.83-2.78,5.26-3.86,1.69-1.27,7.67-3.82,12.47-5.87l.38-.16,2.61-1.17a6,6,0,0,0,3.56-5.16l.22-3.49c.39-6.72.72-11.94,1.06-13.06.17-.54.35-1.05.55-1.58C81.64,24.7,82.77,21.61,82.48,12.68Zm-7,38.15h0Z"/><path class="cls-2" d="M122,89.24a1.49,1.49,0,0,1-1.14-.41c-.14-.15-.54-.71.16-1.58s2.62-3.28,2.36-4.57a3,3,0,0,0-1-1.57,21.38,21.38,0,0,1-1,4.1c-.31.62-.9,1.28-1.52,1.14S119,85.6,119,84.5s0-2.62-.06-4.44c0-2.24-.08-4.73-.08-6.52,0-2-1.54-8.29-2.78-13.33-.72-2.92-1.34-5.44-1.54-6.63-.26-1.57-.57-6.65-.9-12-.35-5.64-.71-11.48-1-12.58-.09-.39-.38-1.23-.74-2.3-2.05-6-4.11-12.6-2.63-14.28a1.34,1.34,0,0,1,1.35-.39h0l.73.14c3.35.62,8.4,1.54,8.66,10.91.27,9.94.81,27.34,1.08,29.46l.08.69c1.23,9.88,2,15.55,2.34,16.86a27.66,27.66,0,0,0,1.12,3.07,27.26,27.26,0,0,1,2.14,7c.28,3.31-1.07,7.26-2.87,8.46A3.64,3.64,0,0,1,122,89.24Zm.12-9.17a.33.33,0,0,1,.19.06,4.07,4.07,0,0,1,1.8,2.41c.29,1.44-1.19,3.52-2.51,5.17-.08.11-.34.45-.19.62s1.22.26,2.13-.35c1.39-.93,2.81-4.53,2.54-7.77A26.79,26.79,0,0,0,124,73.42a27.8,27.8,0,0,1-1.15-3.17c-.5-2-1.9-13.26-2.36-17l-.08-.69c-.33-2.64-1-26.79-1.09-29.53-.24-8.76-4.75-9.59-8-10.2l-.74-.14h0c-.4-.08-.56,0-.65.16-1.32,1.49,1.55,9.93,2.77,13.54.38,1.13.66,1.94.77,2.36.29,1.16.63,6.78,1,12.72.31,5.11.64,10.4.89,11.93.2,1.17.82,3.68,1.53,6.59,1.25,5.07,2.81,11.39,2.81,13.5,0,1.79,0,4.27.08,6.5,0,1.83.06,3.49.06,4.46s.19,1.11.23,1.12.4-.18.68-.74a25.38,25.38,0,0,0,1-4.49.38.38,0,0,1,.21-.28A.29.29,0,0,1,122.1,80.07Z"/><path class="cls-2" d="M116.27,84.2H76.75a.38.38,0,0,1-.37-.37V68.13c0-3.76,3.42-12.42,3.81-13.4.94-2.33.83-12,.8-15.19,0-.41,0-.73,0-.91s0-.77,0-1.41c-.1-3.18-.31-9.81.62-12.81,1.07-3.46.91-12.07.91-12.16a.37.37,0,0,1,.33-.38s4.54-.55,7.13-2.37,1.23-5.77,1.21-5.81a.39.39,0,0,1,.06-.33.36.36,0,0,1,.3-.15h0l9.87.13a.38.38,0,0,1,.37.35s.28,4,1.31,5.8c.81,1.42,5.74,2.3,7.57,2.52a.36.36,0,0,1,.32.41c-.67,5.8,1.63,14,2.08,15.23.28.78,0,5.19-.63,12.36-.33,4-.63,7.87-.63,9.45,0,2,1.52,5.86,3,9.55a49,49,0,0,1,2.67,7.7c.82,4.34-.74,16.64-.81,17.17A.37.37,0,0,1,116.27,84.2Zm-39.15-.74h38.82c.24-2,1.49-12.77.77-16.61a49.54,49.54,0,0,0-2.63-7.57c-1.51-3.75-3.06-7.62-3.06-9.82,0-1.61.31-5.45.64-9.51.41-5.06.92-11.36.67-12.05-.45-1.26-2.71-9.29-2.16-15.2-1.54-.21-6.73-1-7.76-2.84-.94-1.64-1.28-4.74-1.38-5.77L92,4c.29,1.24.75,4.5-1.62,6.15s-6,2.29-7.14,2.46c0,1.65,0,8.84-1,12.06-.9,2.88-.68,9.42-.58,12.57,0,.65,0,1.15,0,1.43s0,.49,0,.9c.06,5.58,0,13.26-.84,15.48-1.4,3.49-3.77,10.18-3.77,13.12Z"/><path class="cls-3" d="M76.75,83.83S80,104.09,80.54,108a99.85,99.85,0,0,1,1.08,18.44c-.27,8.84-.54,16.63.54,20.52a49.54,49.54,0,0,1,1.63,12.73c0,4.16.54,8.05,0,9.87s-3.52,4.16-3,6.49,9.74,3.64,10.56.78.81-9.35.81-10.65S90.82,159.67,91.1,156s1.62-10.38,1.89-15.32-1.08-12-.81-13.51,1.62-3.11,1.62-7,.27-16.36.54-23.38.54-13,.54-13Z"/><path class="cls-3" d="M116.27,83.83S113,104.94,112.48,109a107,107,0,0,0-1.09,19.21c.27,9.21.54,17.33-.54,21.38a54.13,54.13,0,0,0-1.62,13.27c0,4.33-.54,8.39,0,10.28s3.52,4.33,3,6.77-9.75,3.79-10.56.81-.81-9.74-.81-11.1,1.35-6.76,1.08-10.55-1.62-10.83-1.89-16,1.08-12.45.81-14.07-1.63-3.25-1.63-7.31-.27-17-.54-24.36-.54-13.53-.54-13.53Z"/><path class="cls-4" d="M79.49,14.48a2.22,2.22,0,0,1,2-2.4l6.37-.72a.52.52,0,0,1,.35.14c.82.86,5.2,5.19,9.58,5.19,3.94,0,8.2-3.79,9.54-4.87a1.12,1.12,0,0,1,1.1-.18l5.79,2.12a1.15,1.15,0,0,1,.74,1.25l-4.31,29.68a5.33,5.33,0,0,0,.53,3.14c4.06,8,23.26,46.33,25,56.81,1.94,11.72,6.8,52.23,13.61,58.63s10.69,6.4,12.63,7.46,3.41,3.92-10.69,6.4c-23.56,4.15-24.3,6.39-44.71,4.26s-27.21,0-45.68-2.13S40.9,171.8,34.1,165.4s-10.7-7.46-11.67-8.53,12.64-73.55,17.5-85.28,36-18.12,38.88-26.65C81.19,38,80,20.58,79.49,14.48Z"/><path class="cls-2" d="M119.82,183.21a125,125,0,0,1-12.93-.83c-20.48-2.14-27.26,0-45.69-2.13-15.81-1.83-20-6.13-24.78-11.12-.94-1-1.91-2-3-3a46.61,46.61,0,0,0-9.73-7.23,8.27,8.27,0,0,1-2-1.35c-.43-.47-.69-.75,1.39-13,1.25-7.31,3-17,4.93-26.54C29.81,109,35.9,78.72,39,71.21c2.74-6.63,12.77-11.34,22.47-15.9,7.8-3.66,15.16-7.12,16.38-10.69,2.36-6.88,1.08-24.74.64-30a3.21,3.21,0,0,1,2.85-3.48l6.48-.73a1.45,1.45,0,0,1,1.06.45c.48.5,4.81,4.88,8.87,4.88,3.68,0,7.52-2.85,8.61-3.73.59-.47,1.67-1.51,2.37-1.25l5.79,2.11a2.14,2.14,0,0,1,1.38,2.34l-4.3,29.67a4.32,4.32,0,0,0,.42,2.55c3.88,7.66,23.33,46.44,25.1,57.09.31,1.89.71,4.54,1.16,7.61,2.17,14.71,6.69,45.33,12.15,50.47,5,4.7,8.32,5.81,10.51,6.55a11.81,11.81,0,0,1,1.92.76,2.71,2.71,0,0,1,1.71,2.77c-.23,1.43-1.81,3.56-12.71,5.48-5.84,1-10.35,1.95-14,2.7C130.57,182.31,126.21,183.21,119.82,183.21ZM23.37,156.38c.29.2.77.48,1.3.78a48.28,48.28,0,0,1,10.11,7.52c1.12,1.06,2.11,2.08,3.07,3.07,4.74,4.91,8.48,8.78,23.57,10.52a171.89,171.89,0,0,0,22,1.06,204.58,204.58,0,0,1,23.68,1.07c15.18,1.59,19.32.74,30.4-1.54,3.63-.75,8.15-1.68,14-2.71,10.65-1.88,11.08-3.77,11.09-3.85s-.18-.41-.7-.7a11.75,11.75,0,0,0-1.6-.62c-2.21-.74-5.92-2-11.24-7-5.51-5.17-9.47-29.36-12.76-51.62-.45-3.06-.84-5.7-1.15-7.57-1.72-10.37-21-48.9-24.91-56.52a6.33,6.33,0,0,1-.62-3.73l4.3-29.68a.14.14,0,0,0-.09-.18l-5.79-2.12a.15.15,0,0,0-.14,0c-1.56,1.26-6,5.09-10.16,5.09-4.51,0-8.9-4.07-10.12-5.3l-6.07.69a1.23,1.23,0,0,0-1.09,1.33h0c.58,6.93,1.67,23.81-.73,30.86-1.5,4.37-8.88,7.84-17.42,11.85-8.92,4.19-19,9-21.48,14.86C36.25,83.06,23.44,150.64,23.37,156.38Z"/><path class="cls-2" d="M50.06,65.41a.83.83,0,0,1-.53-.18c-.5-.41-.31-1.28,0-1.9a15.15,15.15,0,0,1,2.07-2.63.43.43,0,0,0,.07-.48.4.4,0,0,0-.4-.24h-.11a.36.36,0,0,1-.4-.34.37.37,0,0,1,.35-.4h.12a1.13,1.13,0,0,1,1.11.66,1.17,1.17,0,0,1-.19,1.3,15.06,15.06,0,0,0-2,2.47c-.28.56-.24.94-.18,1s.33,0,1-.49,2.11-1.55,3.58-2.61c1.72-1.25,3.62-2.64,5-3.7a2.43,2.43,0,0,0,.38-.34l14.78-9.27a.37.37,0,1,1,.4.63L60.51,58.1a3.33,3.33,0,0,1-.41.36c-1.41,1.06-3.32,2.45-5.05,3.7-1.46,1.06-2.79,2-3.56,2.61A2.59,2.59,0,0,1,50.06,65.41Z"/><path class="cls-1" d="M74.43,48.29c.42-.43-8,2-8.55,2.21l-5.43,2.32c-2.05.87-7.2,1.69-10,3.43l-.22,2.49a.79.79,0,0,0,.84.88h.12A.8.8,0,0,1,51.86,61a16,16,0,0,0-2,2.55c-.54,1.08-.32,2.27,1.41,1s6-4.34,8.61-6.31a3.89,3.89,0,0,0,.43-.38Z"/><path class="cls-2" d="M47.39,64.65c.52-2,1.29-4.47,2.63-5.11a2.71,2.71,0,0,1,2.56.14.39.39,0,0,1,.13.61,27.62,27.62,0,0,0-2.52,3.38c-.28.56-.24.94-.18,1s.33,0,1-.49l3.58-2.62c1.81-1.31,3.83-2.78,5.26-3.86,1.69-1.27,3.24-2.11,8.05-4.16l.29.68c-4.77,2-6.27,2.86-7.89,4.08-1.44,1.08-3.46,2.55-5.27,3.87-1.47,1.06-2.8,2-3.57,2.61s-1.53.81-2,.46-.31-1.28,0-1.9a16.52,16.52,0,0,1,2.22-3.11c-.48-.1-.76-.32-1.4,0-1.19.57-1.68,2.53-1.93,3.53Zm-2.13-1.34c-.12-2.16,2.23-5.61,5-7.38a27.12,27.12,0,0,1,6.88-2.5,29.82,29.82,0,0,0,3.13-1c1-.41,4.37-2.27,9.84-5.38a5.48,5.48,0,0,0,2.78-4.59l.75,0a6.23,6.23,0,0,1-3.17,5.22c-5.57,3.17-8.91,5-9.91,5.42a31.33,31.33,0,0,1-3.22,1,26.6,26.6,0,0,0-6.68,2.41c-2.81,1.76-4.79,5-4.69,6.71Z"/></svg>