<svg id="图层_1" data-name="图层 1" xmlns="http://www.w3.org/2000/svg" viewBox="0 0 186 186"><defs><style>.cls-1{fill:#fff;}.cls-2{fill:#9b9692;}.cls-3{fill:#f2f2f2;}</style></defs><path class="cls-1" d="M95.93,128.82s9.84,25.62,11.69,29.81c.94,2.12,2.38,3.46,2,5.77-.44,2.48-.49,3.32,0,3.94,1.6,2,3.56,3,5.4,5.12,3.77,4.37,7.15,8.67,9.11,8.67,2.92,0,5.52-1.86,4.86-4.86s-1.37-2.76-4.84-6.52a85.86,85.86,0,0,0-6.21-6.35c-1.16-1-1.77-2.7-3.53-10.45s-6.11-27.69-6.11-27.69Z"/><path class="cls-1" d="M70,119.71s-.37,16.09,1,24.22A147.83,147.83,0,0,1,73,161c0,2.46.28,5.2-2,9s-8.51,9.46-6.43,10.78,6.81,4,11.35-.95,7-4.35,6.44-8.7-3-8.89-1.9-17.22,5.3-23.46,4.73-34.05,0-15.33,0-15.33l-16.83-.56Z"/><path class="cls-1" d="M112.64,12.15c3.38.68,8.81.95,9.08,10.69s.81,27.32,1.08,29.49,1.89,15.42,2.43,17.58,3,6.76,3.25,10-1.08,7-2.7,8.12-3.52.54-2.44-.81,2.71-3.52,2.44-4.87a3.78,3.78,0,0,0-1.63-2.17,25.82,25.82,0,0,1-1.08,4.6c-.54,1.08-1.62,1.62-1.62-.54s-.14-7.71-.14-11-4-11.64-5-21.35c-.33-3.28-.71-21.12-1.25-23.29S108.55,11.33,112.64,12.15Z"/><path class="cls-1" d="M84.91,12S76.25,13.1,76,22.84s-.81,27.32-1.08,29.49S73,67.75,72.46,69.91s-3,6.76-3.24,10,1.08,7,2.7,8.12,3.52.54,2.44-.81-2.71-3.52-2.44-4.87a3.74,3.74,0,0,1,1.63-2.17,25.82,25.82,0,0,0,1.08,4.6c.54,1.08,1.62,1.62,1.62-.54s.14-7.71.14-11,3.78-16.77,4.33-20S82,30.79,82.61,28.65C83.56,25.54,85.31,23.24,84.91,12Z"/><path class="cls-1" d="M93.57,3.36s1.35,4.33-1.36,6.22S84.91,12,84.91,12s.18,8.71-.93,12.27-.56,12.48-.56,14.1.27,13.53-.81,16.24-3.79,10-3.79,13.25V83.57h39.5s1.62-12.71.81-17S113.45,53,113.45,49.22s1.76-20.36,1.29-21.68S112,18,112.64,12.15c0,0-6.76-.81-7.85-2.7s-1.35-6-1.35-6Z"/><path class="cls-2" d="M124.11,182.49c-1.89,0-4.6-3.18-8-7.21l-1.36-1.59a19.88,19.88,0,0,0-2.65-2.46,16.83,16.83,0,0,1-2.76-2.66c-.58-.74-.53-1.66-.08-4.24.27-1.52-.35-2.61-1.06-3.87a16.62,16.62,0,0,1-.88-1.69c-1.84-4.14-11.6-29.56-11.7-29.82a.37.37,0,0,1,0-.31.36.36,0,0,1,.25-.18l12.35-2.56a.37.37,0,0,1,.43.28c0,.2,4.38,20,6.11,27.69,1.78,7.87,2.36,9.33,3.42,10.25s2.53,2.37,6.23,6.38c1,1.06,1.73,1.79,2.33,2.38,1.53,1.5,2.1,2.06,2.6,4.31a4,4,0,0,1-.74,3.42A5.72,5.72,0,0,1,124.11,182.49Zm-27.68-53.4c1.27,3.29,9.83,25.55,11.53,29.39.26.58.56,1.11.85,1.62a6.14,6.14,0,0,1,1.15,4.36c-.44,2.46-.45,3.18-.08,3.66a16.73,16.73,0,0,0,2.66,2.54,20,20,0,0,1,2.74,2.56l1.36,1.59c3,3.57,5.92,6.95,7.47,6.95a5,5,0,0,0,3.91-1.61,3.23,3.23,0,0,0,.59-2.8c-.45-2-.9-2.48-2.39-3.94-.61-.6-1.37-1.34-2.36-2.41-3.68-4-5.09-5.37-6.18-6.33-1.28-1.12-1.89-2.91-3.64-10.64-1.61-7.09-5.45-24.62-6-27.33Z"/><path class="cls-2" d="M70.13,183a10.86,10.86,0,0,1-5.76-2,1.21,1.21,0,0,1-.56-.86c-.23-1.38,1.61-3.63,3.73-6.23a40.87,40.87,0,0,0,3.15-4.19,13.57,13.57,0,0,0,1.94-8.06V161a148.2,148.2,0,0,0-2.07-17c-1.29-7.93-1-23.56-1-24.26L68,104a.33.33,0,0,1,.1-.28.33.33,0,0,1,.28-.12l16.84.57a.36.36,0,0,1,.26.12.39.39,0,0,1,.09.29s-.56,4.83,0,15.26c.4,7.41-1.53,17.14-3.07,25-.68,3.42-1.32,6.65-1.66,9.17a31.2,31.2,0,0,0,1,13.18,34.87,34.87,0,0,1,.84,3.94c.4,3.07-.69,3.93-2.66,5.49A31.17,31.17,0,0,0,76.19,180,8.12,8.12,0,0,1,70.13,183ZM68.76,104.3l1.57,15.38v0c0,.16-.36,16.14.94,24.15A148.46,148.46,0,0,1,73.36,161v.73a14.11,14.11,0,0,1-2,8.45,42.09,42.09,0,0,1-3.21,4.27c-1.76,2.16-3.75,4.59-3.58,5.66a.5.5,0,0,0,.24.35c1.57,1,6.34,4,10.88-.88A30.88,30.88,0,0,1,79.6,176c1.94-1.54,2.74-2.17,2.39-4.82a34.34,34.34,0,0,0-.82-3.86,32.23,32.23,0,0,1-1.07-13.45c.35-2.55,1-5.79,1.67-9.22,1.54-7.78,3.45-17.45,3.06-24.77a111.22,111.22,0,0,1,0-15Z"/><path class="cls-2" d="M124,89a1.48,1.48,0,0,1-1.13-.41c-.14-.15-.54-.71.15-1.57s2.62-3.28,2.36-4.57a3,3,0,0,0-1-1.58,21.68,21.68,0,0,1-1,4.11c-.31.61-.88,1.28-1.52,1.13s-.8-.75-.8-1.84,0-2.63-.06-4.45c0-2.23-.08-4.72-.08-6.51A28,28,0,0,0,119.41,67,77.79,77.79,0,0,1,116,52c-.13-1.31-.27-4.87-.42-9-.23-5.78-.5-13-.82-14.24-.09-.38-.38-1.23-.74-2.3-2-6-4.1-12.58-2.63-14.26a1.32,1.32,0,0,1,1.35-.39h0l.73.14c3.34.61,8.38,1.54,8.64,10.9.28,9.94.82,27.33,1.08,29.45l.09.7c1.23,9.87,2,15.53,2.34,16.84a27.66,27.66,0,0,0,1.12,3.07,27.66,27.66,0,0,1,2.14,7c.27,3.3-1.07,7.25-2.87,8.45A3.64,3.64,0,0,1,124,89Zm.12-9.16a.33.33,0,0,1,.19.06,4.07,4.07,0,0,1,1.8,2.4c.28,1.45-1.19,3.53-2.51,5.18-.09.1-.34.45-.19.61s1.2.28,2.13-.34c1.43-1,2.82-4.48,2.54-7.78A26.88,26.88,0,0,0,126,73.16,27.75,27.75,0,0,1,124.88,70c-.51-2-1.9-13.24-2.36-16.93l-.09-.7c-.26-2.15-.8-19.57-1.08-29.52-.24-8.76-4.75-9.59-8-10.2l-.74-.14c-.4-.08-.57.05-.66.16-1.31,1.49,1.55,9.93,2.77,13.54.39,1.13.66,1.94.77,2.36.33,1.33.6,8.27.83,14.39.15,3.93.29,7.64.42,8.94a75.44,75.44,0,0,0,3.41,14.9,28.16,28.16,0,0,1,1.57,6.49c0,1.79,0,4.27.08,6.5,0,1.83,0,3.49,0,4.46s.24,1.12.24,1.12.41-.18.69-.74a24.67,24.67,0,0,0,1.05-4.49.38.38,0,0,1,.21-.28A.42.42,0,0,1,124.15,79.82Z"/><path class="cls-2" d="M73.66,89a3.63,3.63,0,0,1-1.94-.64c-1.8-1.2-3.14-5.15-2.87-8.45a27.26,27.26,0,0,1,2.14-7,27.66,27.66,0,0,0,1.12-3.07c.33-1.32,1.12-7,2.35-16.95l.07-.59c.27-2.13.81-19.52,1.08-29.45a11.07,11.07,0,0,1,9.25-11.18.38.38,0,0,1,.29.09.36.36,0,0,1,.13.26c.33,9.4-.84,12.62-1.79,15.22-.19.52-.37,1-.53,1.54-.34,1.13-.73,7.68-1.07,13.46-.29,5-.57,9.63-.81,11.11-.2,1.2-.82,3.72-1.54,6.64-1.24,5-2.79,11.3-2.79,13.32,0,1.79,0,4.28-.07,6.51,0,1.82-.06,3.48-.06,4.45s-.27,1.71-.8,1.84S74.61,85.57,74.3,85a20.94,20.94,0,0,1-1-4.11,3,3,0,0,0-1,1.58C72,83.72,74,86.19,74.64,87s.3,1.42.16,1.57A1.49,1.49,0,0,1,73.66,89Zm10.9-76.53c-1.69.34-8,2.17-8.21,10.4-.28,9.95-.82,27.36-1.09,29.52l-.07.59c-1.23,10-2,15.69-2.37,17a27.07,27.07,0,0,1-1.15,3.16A27.33,27.33,0,0,0,69.58,80c-.27,3.25,1.15,6.85,2.55,7.78.92.62,1.88.62,2.13.34s-.11-.51-.19-.61c-1.32-1.65-2.8-3.73-2.51-5.18a4.07,4.07,0,0,1,1.8-2.4.34.34,0,0,1,.34,0,.38.38,0,0,1,.21.28,25.38,25.38,0,0,0,1,4.49c.28.56.59.77.69.74s.23-.14.23-1.12,0-2.63.06-4.46c0-2.23.08-4.71.08-6.5,0-2.11,1.55-8.42,2.8-13.49.72-2.91,1.34-5.42,1.53-6.59.24-1.44.52-6.1.81-11,.36-6.1.73-12.41,1.1-13.62.16-.54.35-1.05.54-1.58C83.71,24.47,84.84,21.38,84.56,12.45Z"/><path class="cls-2" d="M118.32,83.94H78.82a.37.37,0,0,1-.37-.37V67.88c0-3.75,3.43-12.42,3.82-13.39.93-2.33.83-12,.79-15.19,0-.41,0-.72,0-.91s0-.76,0-1.4c-.11-3.19-.32-9.81.61-12.81,1.07-3.46.91-12.07.91-12.16a.37.37,0,0,1,.33-.37S89.41,11.1,92,9.28s1.23-5.77,1.21-5.81a.39.39,0,0,1,.06-.33.32.32,0,0,1,.3-.15l9.87.14a.37.37,0,0,1,.37.34s.27,4,1.3,5.79c.81,1.43,5.74,2.31,7.57,2.53a.35.35,0,0,1,.32.4c-.67,5.81,1.63,14,2.08,15.23.28.78,0,5.19-.63,12.35-.32,4-.63,7.87-.63,9.45,0,2.05,1.52,5.86,3,9.54a49.34,49.34,0,0,1,2.67,7.7c.82,4.34-.74,16.64-.81,17.16A.37.37,0,0,1,118.32,83.94Zm-39.13-.73H118c.24-2,1.49-12.77.77-16.61A49.86,49.86,0,0,0,116.14,59c-1.5-3.75-3.06-7.63-3.06-9.82,0-1.61.31-5.45.64-9.51.41-5.06.92-11.35.67-12-.45-1.26-2.71-9.29-2.15-15.2-1.54-.21-6.74-1-7.77-2.84a17.29,17.29,0,0,1-1.37-5.77L94,3.73c.28,1.24.75,4.5-1.62,6.15s-6,2.29-7.14,2.46c0,1.64,0,8.84-1,12.06-.89,2.88-.68,9.42-.58,12.56,0,.65,0,1.15,0,1.43s0,.5,0,.91c.06,5.58,0,13.25-.85,15.46-1.4,3.49-3.76,10.18-3.76,13.12Z"/><path class="cls-3" d="M115.06,53.5a8,8,0,0,1-.66-3.67l2.77-34a1.38,1.38,0,0,0-.79-1.44l-5.87-2.28a1,1,0,0,0-1.09.25c-1.3,1.32-5.12,4.84-9.06,5-4.38.16-8.94-4.77-9.8-5.75a.41.41,0,0,0-.35-.15l-6.33,1.08A2.54,2.54,0,0,0,82,15.44c1.16,10.7.52,22.05-.79,32.77a9.47,9.47,0,0,1-.65,3.22,17.87,17.87,0,0,1-1.07,1.51c-8.2,11.61-15.33,23.92-23,35.85C49.16,100.13,40.21,110.54,34.81,123a21.35,21.35,0,0,0-2,6.91c-.46,6.47,4.69,9.88,10,12.09,11,4.59,23,6.6,34.9,7.16a210.48,210.48,0,0,0,23-.36c6.65-.41,15,.2,21.23-2.34a36.76,36.76,0,0,1,6-2.34c2.68-.59,5.46-.16,8.21,0,5.9.29,11.82.13,15.54-4.84,2.85-3.8.61-7.21-.77-11.2C147,116.62,116.48,56.9,115.06,53.5Z"/><path class="cls-2" d="M85.44,150.33c-2.69,0-5.25-.06-7.75-.17-13.51-.63-25-3-35.23-7.24-2.77-1.15-11.2-4.65-10.6-13.06a22.62,22.62,0,0,1,2-7.23c3.75-8.66,9.24-16.42,14.56-23.92,2.41-3.4,4.9-6.91,7.18-10.45,2.68-4.15,5.34-8.42,7.91-12.56C68.37,68,73.34,60,78.7,52.38l.38-.52a7.5,7.5,0,0,0,.63-.91,6.76,6.76,0,0,0,.48-2.25q0-.31.06-.6C81.79,35.51,82,24.87,81,15.55a3.52,3.52,0,0,1,2.68-4l6.45-1.09A1.43,1.43,0,0,1,91.3,11c.49.56,4.88,5.42,8.85,5.42h.17c3.64-.13,7.35-3.62,8.4-4.69a2,2,0,0,1,2.14-.47l5.9,1.26a2.34,2.34,0,0,1,1.41,2.45l-2.79,35a6.92,6.92,0,0,0,.58,3.21h0c.39.94,3.3,6.75,7,14.1,9.77,19.56,26.13,52.28,29,60.54.23.67.49,1.33.74,2,1.26,3.22,2.57,6.54-.11,10.13-4,5.38-10.31,5.53-16.38,5.22q-.91,0-1.83-.12a21.48,21.48,0,0,0-6.12.13,20.41,20.41,0,0,0-4.12,1.53l-1.74.75c-4.81,2-10.93,2.12-16.32,2.24-1.84,0-3.57.08-5.21.18C95.14,150.16,90.1,150.33,85.44,150.33ZM90,12.49l-6,1A1.61,1.61,0,0,0,83,15.34c1,9.47.77,20.26-.78,33q0,.27-.06.57a8,8,0,0,1-.72,3A9.39,9.39,0,0,1,80.64,53l-.34.47C75,61,70,69,65.22,76.74,62.65,80.88,60,85.16,57.3,89.32,55,92.9,52.49,96.43,50.07,99.84c-5.26,7.42-10.7,15.1-14.36,23.57A20.46,20.46,0,0,0,33.82,130c-.34,4.78,2.64,8.31,9.39,11.11,10,4.15,21.29,6.47,34.58,7.09a210.71,210.71,0,0,0,22.91-.35c1.68-.11,3.44-.15,5.29-.19,5.48-.13,11.15-.25,15.63-2.09.56-.23,1.12-.48,1.67-.73a23.33,23.33,0,0,1,4.51-1.66,23.06,23.06,0,0,1,6.68-.16c.6,0,1.19.09,1.79.12,5.78.29,11.25.17,14.71-4.45,2-2.71,1.07-5.15-.14-8.23-.27-.68-.53-1.36-.78-2.07-2.8-8.13-19.12-40.78-28.87-60.29-4-8-6.62-13.23-7-14.23h0a8.78,8.78,0,0,1-.73-4.12l2.79-35a.44.44,0,0,0-.16-.45l-5.91-1.27c-1.54,1.56-5.51,5.15-9.76,5.3h-.24C95.76,18.36,91.51,14.14,90,12.49Z"/><path class="cls-1" d="M122.8,52.33c.27,2.16,1.89,15.42,2.43,17.58s3,6.76,3.25,10-1.08,7-2.7,8.12-3.52.54-2.44-.81,2.71-3.52,2.44-4.87a3.78,3.78,0,0,0-1.63-2.17,25.82,25.82,0,0,1-1.08,4.6c-.54,1.08-1.62,1.62-1.62-.54s-.14-7.71-.14-11-2.06-6.78-5-20.38Z"/><path class="cls-2" d="M124,89a1.48,1.48,0,0,1-1.13-.41c-.14-.15-.54-.71.15-1.57s2.62-3.28,2.36-4.57a3,3,0,0,0-1-1.58,21.68,21.68,0,0,1-1,4.11c-.31.61-.88,1.28-1.52,1.13s-.8-.75-.8-1.84,0-2.63-.06-4.45c0-2.23-.08-4.72-.08-6.51,0-1.56-.47-3.24-1.33-6.27s-2.08-7.39-3.55-14.22a.38.38,0,0,1,.29-.44.37.37,0,0,1,.43.28c1.46,6.81,2.66,11.07,3.54,14.18s1.36,4.8,1.36,6.47,0,4.27.08,6.5c0,1.83,0,3.49,0,4.46s.24,1.12.24,1.12.41-.18.69-.74a26.33,26.33,0,0,0,1.05-4.49.38.38,0,0,1,.21-.28.34.34,0,0,1,.34,0,4.07,4.07,0,0,1,1.8,2.4c.28,1.45-1.19,3.53-2.51,5.18-.09.1-.34.45-.19.61s1.2.28,2.13-.34c1.43-1,2.82-4.48,2.54-7.78A26.88,26.88,0,0,0,126,73.16,27.75,27.75,0,0,1,124.88,70c-.51-2-1.9-13.24-2.36-16.93l-.09-.7a.38.38,0,0,1,.32-.41.36.36,0,0,1,.41.32l.09.7c1.23,9.87,2,15.53,2.34,16.84a27.66,27.66,0,0,0,1.12,3.07,27.66,27.66,0,0,1,2.14,7c.27,3.3-1.07,7.25-2.87,8.45A3.64,3.64,0,0,1,124,89Z"/></svg>